<?xml version="1.0" encoding="utf-8"?>
<!-- Generator: Adobe Illustrator 24.2.0, SVG Export Plug-In . SVG Version: 6.00 Build 0)  -->
<svg version="1.1" id="Layer_1" xmlns="http://www.w3.org/2000/svg" xmlns:xlink="http://www.w3.org/1999/xlink" x="0px" y="0px"
	 viewBox="0 0 1241.4 436.6" style="enable-background:new 0 0 1241.4 436.6;" xml:space="preserve">
<style type="text/css">
	.st0{fill:none;}
	.st1{fill:#E5E5E5;}
	.st2{fill:none;stroke:#647882;stroke-width:0.216;stroke-miterlimit:2.613;}
	.st3{fill:#839CA9;}
	.st4{fill:#E5E5E5;stroke:#647882;stroke-width:0.216;stroke-miterlimit:2.613;}
	.st5{fill:#FFFFFF;}
	.st6{fill:#F0F0F0;stroke:#647882;stroke-width:0.216;stroke-miterlimit:2.613;}
	.st7{fill:#F0F0F0;}
	.st8{fill:#EDF7FC;}
	.st9{fill:none;stroke:#647882;stroke-width:0.216;stroke-miterlimit:2.6126;}
	.st10{fill:#F0F0F0;stroke:#647882;stroke-width:0.216;stroke-miterlimit:2.6126;}
	.st11{fill:#FFFCFC;}
	.st12{fill:#E0E0E0;stroke:#829199;stroke-width:0.216;stroke-miterlimit:2.613;}
	.st13{fill:#E0E0E0;stroke:#647882;stroke-width:0.216;stroke-miterlimit:2.613;}
	.st14{fill:#EDF7FC;stroke:#647882;stroke-width:0.216;stroke-miterlimit:2.613;}
	.st15{fill:#FAFCFD;}
	.st16{fill:#D5D5D5;}
	.st17{fill:#E7E7E7;}
	.st18{fill:#C1C1C1;}
</style>
<rect x="1.2" class="st0" width="1240.3" height="436.6"/>
<g transform="translate(-5.522 -2873)">
	<path class="st1" d="M1177.6,3033.6c-2.3,0-4.2-1.8-4.2-4.1c0-0.3,0-0.6,0.1-0.9c-0.6,0.1-1.2,0.2-1.8,0.2
		c-3.6,0.1-6.9-2.2-7.9-5.7c-2.3,2-5.3,3.1-8.3,3c-4.2,0.2-8.2-2-10.5-5.6c-6.8,6.2-17.4,5.9-23.9-0.6c-2.3,2.3-5.5,3.6-8.8,3.5
		c-16.7,0-16.7-25.9,0-25.9c2.2,0,4.4,0.5,6.4,1.6c0.4-0.8,0.9-1.5,1.4-2.2c-2.6-5.1-0.1-12.9,7.4-12.9c4-0.1,7.5,2.7,8.1,6.6
		c6.4,0.6,11.8,5,13.6,11.1c1.9-1.1,4.1-1.6,6.4-1.6c8,0,12.2,5.9,12.5,12.1c1.2-0.5,2.4-0.8,3.7-0.8c7.8,0,10.1,8.5,6.9,13.6
		C1183.2,3026,1182.8,3033.6,1177.6,3033.6z"/>
	<path class="st2" d="M1177.6,3033.6c-2.3,0-4.2-1.8-4.2-4.1c0-0.3,0-0.6,0.1-0.9c-0.6,0.1-1.2,0.2-1.8,0.2
		c-3.6,0.1-6.9-2.2-7.9-5.7c-2.3,2-5.3,3.1-8.3,3c-4.2,0.2-8.2-2-10.5-5.6c-6.8,6.2-17.4,5.9-23.9-0.6c-2.3,2.3-5.5,3.6-8.8,3.5
		c-16.7,0-16.7-25.9,0-25.9c2.2,0,4.4,0.5,6.4,1.6c0.4-0.8,0.9-1.5,1.4-2.2c-2.6-5.1-0.1-12.9,7.4-12.9c4-0.1,7.5,2.7,8.1,6.6
		c6.4,0.6,11.8,5,13.6,11.1c1.9-1.1,4.1-1.6,6.4-1.6c8,0,12.2,5.9,12.5,12.1c1.2-0.5,2.4-0.8,3.7-0.8c7.8,0,10.1,8.5,6.9,13.6
		C1183.2,3026,1182.8,3033.6,1177.6,3033.6z"/>
	<path class="st1" d="M1029,3042.2c-5.9,0.2-11.5-2.9-14.4-8c-1.5,0.3-3,0.5-4.5,0.5c-4.6,0.1-9.2-1.3-12.9-4.1
		c-3.1,4.4-8.2,7-13.6,6.8c-22.3,0-22.3-34.6,0-34.6c2.5,0,4.9,0.5,7.2,1.4c2.8-7.2,9.2-12.8,19.2-12.8c5.7-0.2,11.1,2,15.1,6.1
		c0.6-1.5,1.3-3,2.1-4.4c-2.2-2-1.8-6.2,1.1-7.3c-1-4.9,1.7-10.6,8.1-10.6c4-0.1,7.5,2.7,8.1,6.7c1.2-0.2,2.5-0.2,3.7-0.2
		c10.8,0,18.1,5.5,21.9,12.8c1.3-0.3,2.6-0.4,4-0.4c14.9,0,19.8,15.5,14.8,25.7c8.7,2.3,7.9,17-2.4,17c-5.5,0-8.3-4.2-8.4-8.5
		c-1.3,0.3-2.7,0.4-4.1,0.4c-2.9,0-5.7-0.6-8.3-2c-4.7,4.6-11.1,7.1-17.6,6.9c-1.5,0-3.1-0.1-4.6-0.4
		C1041.2,3038.9,1035.3,3042.5,1029,3042.2z"/>
	<path class="st2" d="M1029,3042.2c-5.9,0.2-11.5-2.9-14.4-8c-1.5,0.3-3,0.5-4.5,0.5c-4.6,0.1-9.2-1.3-12.9-4.1
		c-3.1,4.4-8.2,7-13.6,6.8c-22.3,0-22.3-34.6,0-34.6c2.5,0,4.9,0.5,7.2,1.4c2.8-7.2,9.2-12.8,19.2-12.8c5.7-0.2,11.1,2,15.1,6.1
		c0.6-1.5,1.3-3,2.1-4.4c-2.2-2-1.8-6.2,1.1-7.3c-1-4.9,1.7-10.6,8.1-10.6c4-0.1,7.5,2.7,8.1,6.7c1.2-0.2,2.5-0.2,3.7-0.2
		c10.8,0,18.1,5.5,21.9,12.8c1.3-0.3,2.6-0.4,4-0.4c14.9,0,19.8,15.5,14.8,25.7c8.7,2.3,7.9,17-2.4,17c-5.5,0-8.3-4.2-8.4-8.5
		c-1.3,0.3-2.7,0.4-4.1,0.4c-2.9,0-5.7-0.6-8.3-2c-4.7,4.6-11.1,7.1-17.6,6.9c-1.5,0-3.1-0.1-4.6-0.4
		C1041.2,3038.9,1035.3,3042.5,1029,3042.2z"/>
	<path class="st1" d="M959.3,3008.7c-11.1,0-11.1-17.3,0-17.3S970.4,3008.7,959.3,3008.7z"/>
	<path class="st2" d="M959.3,3008.7c-11.1,0-11.1-17.3,0-17.3S970.4,3008.7,959.3,3008.7z"/>
	<path class="st3" d="M941.4,3033c-9.6,0-13.7-8.6-12.2-15.9c-9.1-1.9-8.5-17.1,2-17.1c4.2-0.1,7.8,3,8.2,7.2c0.7-0.1,1.3-0.2,2-0.2
		C958.1,3007.1,958.1,3033,941.4,3033z"/>
	<path class="st4" d="M941.4,3033c-9.6,0-13.7-8.6-12.2-15.9c-9.1-1.9-8.5-17.1,2-17.1c4.2-0.1,7.8,3,8.2,7.2c0.7-0.1,1.3-0.2,2-0.2
		C958.1,3007.1,958.1,3033,941.4,3033z"/>
	<path class="st5" d="M976.9,3134.9v13.8h13.8v-13.8H976.9z M889,3156.1v13.8h13.8v-13.8H889z M911,3219.6v13.8h13.8v-13.8H911z
		 M889,3240.8v13.8h13.8v-13.8H889z M974.8,3308.3h-95.4v-183.4h142.3v69.3h-46.9v35.5l-5.9-2.1l-0.1,0v-8h-13.8v13.8h4.1
		c-0.9,2.2-3.4,3.3-5.7,2.4c-0.5-0.2-1-0.5-1.5-1c-0.8-0.8-1.3-1.9-1.3-3.1v-6.6h-2.8l-1,0.3l-0.1,0v-6H933v10.8l-6,2.1l-47.4,47.4
		v28.3L974.8,3308.3L974.8,3308.3z"/>
	<path class="st6" d="M976.9,3134.9v13.8h13.8v-13.8H976.9z M889,3156.1v13.8h13.8v-13.8H889z M911,3219.6v13.8h13.8v-13.8H911z
		 M889,3240.8v13.8h13.8v-13.8H889z M974.8,3308.3h-95.4v-183.4h142.3v69.3h-46.9v35.5l-5.9-2.1l-0.1,0v-8h-13.8v13.8h4.1
		c-0.9,2.2-3.4,3.3-5.7,2.4c-0.5-0.2-1-0.5-1.5-1c-0.8-0.8-1.3-1.9-1.3-3.1v-6.6h-2.8l-1,0.3l-0.1,0v-6H933v10.8l-6,2.1l-47.4,47.4
		v28.3L974.8,3308.3L974.8,3308.3z"/>
	<rect x="911" y="3134.9" class="st3" width="13.8" height="13.8"/>
	<rect x="911" y="3134.9" class="st2" width="13.8" height="13.8"/>
	<rect x="976.9" y="3134.9" class="st3" width="13.8" height="13.8"/>
	<rect x="976.9" y="3134.9" class="st2" width="13.8" height="13.8"/>
	<rect x="998.9" y="3134.9" class="st3" width="13.8" height="13.8"/>
	<rect x="998.9" y="3134.9" class="st2" width="13.8" height="13.8"/>
	<rect x="889" y="3156.1" class="st3" width="13.8" height="13.8"/>
	<rect x="889" y="3156.1" class="st2" width="13.8" height="13.8"/>
	<rect x="933" y="3156.1" class="st3" width="13.8" height="13.8"/>
	<rect x="933" y="3156.1" class="st2" width="13.8" height="13.8"/>
	<rect x="998.9" y="3156.1" class="st3" width="13.8" height="13.8"/>
	<rect x="998.9" y="3156.1" class="st2" width="13.8" height="13.8"/>
	<rect x="911" y="3177.3" class="st3" width="13.8" height="13.8"/>
	<rect x="911" y="3177.3" class="st2" width="13.8" height="13.8"/>
	<rect x="933" y="3177.3" class="st3" width="13.8" height="13.8"/>
	<rect x="933" y="3177.3" class="st2" width="13.8" height="13.8"/>
	<rect x="889" y="3198.4" class="st3" width="13.8" height="13.8"/>
	<rect x="889" y="3198.4" class="st2" width="13.8" height="13.8"/>
	<rect x="911" y="3198.4" class="st3" width="13.8" height="13.8"/>
	<rect x="911" y="3198.4" class="st2" width="13.8" height="13.8"/>
	<rect x="976.9" y="3198.4" class="st3" width="13.8" height="13.8"/>
	<rect x="976.9" y="3198.4" class="st2" width="13.8" height="13.8"/>
	<rect x="911" y="3219.6" class="st3" width="13.8" height="13.8"/>
	<rect x="911" y="3219.6" class="st2" width="13.8" height="13.8"/>
	<path class="st3" d="M933,3230.4v-10.8h13.8v6L933,3230.4L933,3230.4z"/>
	<path class="st2" d="M933,3230.4v-10.8h13.8v6L933,3230.4L933,3230.4z"/>
	<rect x="954.9" y="3219.6" class="st3" width="13.8" height="13.8"/>
	<rect x="954.9" y="3219.6" class="st2" width="13.8" height="13.8"/>
	<rect x="889" y="3240.8" class="st3" width="13.8" height="13.8"/>
	<rect x="889" y="3240.8" class="st2" width="13.8" height="13.8"/>
	<rect x="954.9" y="3240.8" class="st3" width="13.8" height="13.8"/>
	<rect x="954.9" y="3240.8" class="st2" width="13.8" height="13.8"/>
	<rect x="976.9" y="3240.8" class="st3" width="13.8" height="13.8"/>
	<rect x="976.9" y="3240.8" class="st2" width="13.8" height="13.8"/>
	<rect x="911" y="3261.9" class="st3" width="13.8" height="13.8"/>
	<rect x="911" y="3261.9" class="st2" width="13.8" height="13.8"/>
	<rect x="933" y="3261.9" class="st3" width="13.8" height="13.8"/>
	<rect x="933" y="3261.9" class="st2" width="13.8" height="13.8"/>
	<rect x="889" y="3283.1" class="st3" width="13.8" height="13.8"/>
	<rect x="889" y="3283.1" class="st2" width="13.8" height="13.8"/>
	<rect x="933" y="3283.1" class="st3" width="13.8" height="13.8"/>
	<rect x="933" y="3283.1" class="st2" width="13.8" height="13.8"/>
	<rect x="976.9" y="3283.1" class="st3" width="13.8" height="13.8"/>
	<rect x="976.9" y="3283.1" class="st2" width="13.8" height="13.8"/>
	<rect x="974.8" y="3194.2" class="st7" width="272.2" height="114.4"/>
	<rect x="974.8" y="3194.2" class="st2" width="272.2" height="114.4"/>
	<path class="st3" d="M954.9,3240.8v13.8h13.8v-13.8H954.9z M911,3261.9v13.8h13.8v-13.8H911z M933,3261.9v13.8h13.8v-13.8H933z
		 M889,3283.1v13.8h13.8v-13.8H889z M933,3283.1v13.8h13.8v-13.8H933z M974.8,3308.2h-95.2v-28.3l47.4-47.4l6-2.1v3.1h13.8v-7.9
		l0.1,0l1-0.3h2.8v6.6c0,1.2,0.5,2.3,1.3,3.1c1.7,1.7,4.5,1.7,6.2,0c0.4-0.4,0.7-0.9,1-1.5h9.7v-5.8l0.1,0l5.9,2.1L974.8,3308.2z"/>
	<path class="st2" d="M954.9,3240.8v13.8h13.8v-13.8H954.9z M911,3261.9v13.8h13.8v-13.8H911z M933,3261.9v13.8h13.8v-13.8H933z
		 M889,3283.1v13.8h13.8v-13.8H889z M933,3283.1v13.8h13.8v-13.8H933z M974.8,3308.2h-95.2v-28.3l47.4-47.4l6-2.1v3.1h13.8v-7.9
		l0.1,0l1-0.3h2.8v6.6c0,1.2,0.5,2.3,1.3,3.1c1.7,1.7,4.5,1.7,6.2,0c0.4-0.4,0.7-0.9,1-1.5h9.7v-5.8l0.1,0l5.9,2.1L974.8,3308.2z"/>
	<path class="st3" d="M946.8,3233.4H933v-3.1l0.1,0l13.7-4.8V3233.4z"/>
	<path class="st2" d="M946.8,3233.4H933v-3.1l0.1,0l13.7-4.8V3233.4z"/>
	<path class="st3" d="M968.8,3233.4h-9.7l0-0.1c0.2-0.5,0.3-1,0.3-1.5v-6.6h2.5l6.9,2.4L968.8,3233.4z"/>
	<path class="st2" d="M968.8,3233.4h-9.7l0-0.1c0.2-0.5,0.3-1,0.3-1.5v-6.6h2.5l6.9,2.4L968.8,3233.4z"/>
	<rect x="954.9" y="3240.8" class="st3" width="13.8" height="13.8"/>
	<rect x="954.9" y="3240.8" class="st2" width="13.8" height="13.8"/>
	<rect x="911" y="3261.9" class="st3" width="13.8" height="13.8"/>
	<rect x="911" y="3261.9" class="st2" width="13.8" height="13.8"/>
	<rect x="933" y="3261.9" class="st3" width="13.8" height="13.8"/>
	<rect x="933" y="3261.9" class="st2" width="13.8" height="13.8"/>
	<rect x="889" y="3283.1" class="st3" width="13.8" height="13.8"/>
	<rect x="889" y="3283.1" class="st2" width="13.8" height="13.8"/>
	<rect x="933" y="3283.1" class="st3" width="13.8" height="13.8"/>
	<rect x="933" y="3283.1" class="st2" width="13.8" height="13.8"/>
	<path class="st3" d="M1118.2,3226.9L1118.2,3226.9L1118.2,3226.9L1118.2,3226.9z M1118.1,3308.4H974.9v-0.2h-0.1v-78.5l0.1,0l8,2.8
		v4.6l4.6-4.6l20.9-7.3h2.6v6.6c0,2.4,1.9,4.4,4.4,4.4c2.4,0,4.4-1.9,4.4-4.4c0,0,0,0,0,0v-6.6h2.6l21,7.3v4.6l4.6-4.6l20.9-7.3h2.5
		v6.6c0,2.4,1.9,4.4,4.3,4.4c0,0,0,0,0,0c2.4,0,4.4-2,4.4-4.4v-6.6h2.8l21,7.3v8.8l14.3-14.3L1118.1,3308.4z"/>
	<path class="st2" d="M1118.2,3226.9L1118.2,3226.9L1118.2,3226.9L1118.2,3226.9z M1118.1,3308.4H974.9v-0.2h-0.1v-78.5l0.1,0l8,2.8
		v4.6l4.6-4.6l20.9-7.3h2.6v6.6c0,2.4,1.9,4.4,4.4,4.4c2.4,0,4.4-1.9,4.4-4.4c0,0,0,0,0,0v-6.6h2.6l21,7.3v4.6l4.6-4.6l20.9-7.3h2.5
		v6.6c0,2.4,1.9,4.4,4.3,4.4c0,0,0,0,0,0c2.4,0,4.4-2,4.4-4.4v-6.6h2.8l21,7.3v8.8l14.3-14.3L1118.1,3308.4z"/>
	<path class="st7" d="M982.7,3232.6v75.7h-55.9v-75.7l20.9-7.3h14L982.7,3232.6z"/>
	<path class="st2" d="M982.7,3232.6v75.7h-55.9v-75.7l20.9-7.3h14L982.7,3232.6z"/>
	<path class="st7" d="M1043.2,3232.6v75.7h-55.9v-75.7l20.9-7.3h14L1043.2,3232.6z"/>
	<path class="st2" d="M1043.2,3232.6v75.7h-55.9v-75.7l20.9-7.3h14L1043.2,3232.6z"/>
	<path class="st7" d="M1103.7,3232.6v75.7h-55.9v-75.7l20.9-7.3h14L1103.7,3232.6z"/>
	<path class="st2" d="M1103.7,3232.6v75.7h-55.9v-75.7l20.9-7.3h14L1103.7,3232.6z"/>
	<path class="st3" d="M1093,3208.5v8.1H950.5v-3.7c0-2.4,1.9-4.4,4.4-4.4H1093z"/>
	<path class="st2" d="M1093,3208.5v8.1H950.5v-3.7c0-2.4,1.9-4.4,4.4-4.4H1093z"/>
	<path class="st3" d="M959.3,3212.9v12.4h-8.7v-12.4c0-2.4,1.9-4.4,4.4-4.4c1.2,0,2.3,0.5,3.1,1.3
		C958.8,3210.6,959.3,3211.7,959.3,3212.9z"/>
	<path class="st2" d="M959.3,3212.9v12.4h-8.7v-12.4c0-2.4,1.9-4.4,4.4-4.4c1.2,0,2.3,0.5,3.1,1.3
		C958.8,3210.6,959.3,3211.7,959.3,3212.9z"/>
	<path class="st3" d="M1019.6,3212.9v12.4h-8.7v-12.4c0-2.4,1.9-4.4,4.3-4.4c1.2,0,2.3,0.5,3.1,1.3
		C1019.2,3210.6,1019.6,3211.7,1019.6,3212.9z"/>
	<path class="st2" d="M1019.6,3212.9v12.4h-8.7v-12.4c0-2.4,1.9-4.4,4.3-4.4c1.2,0,2.3,0.5,3.1,1.3
		C1019.2,3210.6,1019.6,3211.7,1019.6,3212.9z"/>
	<path class="st3" d="M1080,3212.9v12.4h-8.7v-12.4c0-2.4,1.9-4.4,4.3-4.4c2.4,0,4.4,1.9,4.4,4.3
		C1080,3212.8,1080,3212.8,1080,3212.9z"/>
	<path class="st2" d="M1080,3212.9v12.4h-8.7v-12.4c0-2.4,1.9-4.4,4.3-4.4c2.4,0,4.4,1.9,4.4,4.3
		C1080,3212.8,1080,3212.8,1080,3212.9z"/>
	<rect x="1118.1" y="3226.9" class="st7" width="81.6" height="81.6"/>
	<rect x="1118.1" y="3226.9" class="st2" width="81.6" height="81.6"/>
	<rect x="1126.5" y="3234.5" class="st8" width="15" height="15"/>
	<rect x="1126.5" y="3234.5" class="st2" width="15" height="15"/>
	<rect x="1143.3" y="3234.5" class="st8" width="15" height="15"/>
	<rect x="1143.3" y="3234.5" class="st2" width="15" height="15"/>
	<rect x="1160.1" y="3234.5" class="st8" width="15" height="15"/>
	<rect x="1160.1" y="3234.5" class="st2" width="15" height="15"/>
	<rect x="1176.9" y="3234.5" class="st8" width="15" height="15"/>
	<rect x="1176.9" y="3234.5" class="st2" width="15" height="15"/>
	<rect x="1126.5" y="3251.4" class="st8" width="15" height="15"/>
	<rect x="1126.5" y="3251.4" class="st2" width="15" height="15"/>
	<rect x="1143.3" y="3251.4" class="st8" width="15" height="15"/>
	<rect x="1143.3" y="3251.4" class="st2" width="15" height="15"/>
	<rect x="1160.1" y="3251.4" class="st8" width="15" height="15"/>
	<rect x="1160.1" y="3251.4" class="st2" width="15" height="15"/>
	<rect x="1176.9" y="3251.4" class="st8" width="15" height="15"/>
	<rect x="1176.9" y="3251.4" class="st2" width="15" height="15"/>
	<rect x="1126.5" y="3268.4" class="st8" width="15" height="15"/>
	<rect x="1126.5" y="3268.4" class="st2" width="15" height="15"/>
	<rect x="1143.3" y="3268.4" class="st8" width="15" height="15"/>
	<rect x="1143.3" y="3268.4" class="st2" width="15" height="15"/>
	<rect x="1160.1" y="3268.4" class="st8" width="15" height="15"/>
	<rect x="1160.1" y="3268.4" class="st2" width="15" height="15"/>
	<rect x="1176.9" y="3268.4" class="st8" width="15" height="15"/>
	<rect x="1126.5" y="3285.3" class="st8" width="15" height="15"/>
	<rect x="1126.5" y="3285.3" class="st2" width="15" height="15"/>
	<rect x="1143.3" y="3285.3" class="st8" width="15" height="15"/>
	<rect x="1143.3" y="3285.3" class="st2" width="15" height="15"/>
	<rect x="1160.1" y="3285.3" class="st8" width="15" height="15"/>
	<rect x="1160.1" y="3285.3" class="st2" width="15" height="15"/>
	<rect x="1176.9" y="3285.3" class="st8" width="15" height="15"/>
	<rect x="1176.9" y="3285.3" class="st2" width="15" height="15"/>
	<rect x="985" y="3170.9" class="st7" width="245.7" height="23.2"/>
	<rect x="985" y="3170.9" class="st2" width="245.7" height="23.2"/>
	<rect x="994.2" y="3177.4" class="st3" width="27.6" height="10.8"/>
	<rect x="994.2" y="3177.4" class="st2" width="27.6" height="10.8"/>
	<rect x="1034" y="3177.4" class="st3" width="27.6" height="10.8"/>
	<rect x="1034" y="3177.4" class="st2" width="27.6" height="10.8"/>
	<rect x="1073.8" y="3177.4" class="st3" width="27.6" height="10.8"/>
	<rect x="1073.8" y="3177.4" class="st2" width="27.6" height="10.8"/>
	<rect x="1113.6" y="3177.4" class="st3" width="27.6" height="10.8"/>
	<rect x="1113.6" y="3177.4" class="st2" width="27.6" height="10.8"/>
	<rect x="1153.4" y="3177.4" class="st3" width="27.6" height="10.8"/>
	<rect x="1153.4" y="3177.4" class="st2" width="27.6" height="10.8"/>
	<rect x="1193.2" y="3177.4" class="st3" width="27.6" height="10.8"/>
	<rect x="1193.2" y="3177.4" class="st2" width="27.6" height="10.8"/>
	<rect x="1093" y="3208.5" class="st3" width="92.5" height="8.1"/>
	<rect x="1093" y="3208.5" class="st2" width="92.5" height="8.1"/>
	<path class="st3" d="M1227.1,3244.3h-8.1c-0.1-15.3-12.6-27.7-27.9-27.7h-5.4v-8.1h5.4C1210.8,3208.5,1226.9,3224.5,1227.1,3244.3z
		"/>
	<path class="st2" d="M1227.1,3244.3h-8.1c-0.1-15.3-12.6-27.7-27.9-27.7h-5.4v-8.1h5.4C1210.8,3208.5,1226.9,3224.5,1227.1,3244.3z
		"/>
	<path class="st3" d="M1237,3278.7c0,8.1-6.6,14.7-14.7,14.7c-8.1,0-14.7-6.6-14.7-14.7V3253c0-8.1,6.6-14.7,14.7-14.7
		c8.1,0,14.7,6.6,14.7,14.7V3278.7z"/>
	<path class="st2" d="M1237,3278.7c0,8.1-6.6,14.7-14.7,14.7c-8.1,0-14.7-6.6-14.7-14.7V3253c0-8.1,6.6-14.7,14.7-14.7
		c8.1,0,14.7,6.6,14.7,14.7V3278.7z"/>
	<rect x="1210.7" y="3250.3" class="st7" width="3.5" height="58.1"/>
	<rect x="1210.7" y="3250.3" class="st2" width="3.5" height="58.1"/>
	<rect x="1230.1" y="3250.3" class="st7" width="3.5" height="58.1"/>
	<rect x="1230.1" y="3250.3" class="st2" width="3.5" height="58.1"/>
	<rect x="1212.4" y="3250.3" class="st7" width="19.4" height="1.6"/>
	<rect x="1212.4" y="3250.3" class="st2" width="19.4" height="1.6"/>
	<path class="st7" d="M1231.8,3252.2l-18.6,18.6l-1.1-1.1l18.6-18.6L1231.8,3252.2z"/>
	<path class="st2" d="M1231.8,3252.2l-18.6,18.6l-1.1-1.1l18.6-18.6L1231.8,3252.2z"/>
	<path class="st7" d="M1213.3,3251.1l18.6,18.6l-1.1,1.1l-18.6-18.6L1213.3,3251.1z"/>
	<path class="st2" d="M1213.3,3251.1l18.6,18.6l-1.1,1.1l-18.6-18.6L1213.3,3251.1z"/>
	<rect x="1212.4" y="3268.7" class="st7" width="19.4" height="1.6"/>
	<rect x="1212.4" y="3268.7" class="st2" width="19.4" height="1.6"/>
	
		<rect x="1208.9" y="3278.6" transform="matrix(0.7072 -0.7071 0.7071 0.7072 -1960.8722 1824.3754)" class="st7" width="26.2" height="1.6"/>
	
		<rect x="1208.9" y="3278.6" transform="matrix(0.7072 -0.7071 0.7071 0.7072 -1960.8722 1824.3754)" class="st2" width="26.2" height="1.6"/>
	
		<rect x="1221.2" y="3266.3" transform="matrix(0.7071 -0.7071 0.7071 0.7071 -1960.9739 1824.5959)" class="st7" width="1.6" height="26.2"/>
	
		<rect x="1221.2" y="3266.3" transform="matrix(0.7071 -0.7071 0.7071 0.7071 -1960.9739 1824.5959)" class="st9" width="1.6" height="26.2"/>
	<rect x="1212.4" y="3287.2" class="st3" width="19.4" height="1.6"/>
	<rect x="1212.4" y="3287.2" class="st6" width="19.4" height="1.6"/>
	<rect x="1212.4" y="3306.9" class="st3" width="19.4" height="1.6"/>
	<rect x="1212.4" y="3306.9" class="st2" width="19.4" height="1.6"/>
	
		<rect x="1208.9" y="3297" transform="matrix(0.7071 -0.7071 0.7071 0.7071 -1974.0237 1830.0022)" class="st3" width="26.2" height="1.6"/>
	
		<rect x="1208.9" y="3297" transform="matrix(0.7071 -0.7071 0.7071 0.7071 -1974.0237 1830.0022)" class="st10" width="26.2" height="1.6"/>
	
		<rect x="1221.2" y="3284.7" transform="matrix(0.7071 -0.7071 0.7071 0.7071 -1974.0231 1830.0009)" class="st3" width="1.6" height="26.2"/>
	
		<rect x="1221.2" y="3284.7" transform="matrix(0.7071 -0.7071 0.7071 0.7071 -1974.0231 1830.0009)" class="st10" width="1.6" height="26.2"/>
	<path class="st11" d="M1101.4,3042.2h27.8v128.7h-27.8V3042.2z"/>
	<rect x="1101.4" y="3042.2" class="st2" width="27.8" height="128.7"/>
	<path class="st3" d="M1135,3107.7c1,0,1.8-0.9,1.8-1.9c0-1-0.8-1.7-1.8-1.8h-1.7v-45.4h1.7c1,0,1.8-0.8,1.8-1.8
		c0-1-0.8-1.8-1.8-1.8h-1.7v-9.5h-2.2v9.5H1099v-9.5h-2.2v9.5h-2c-1,0-1.8,0.8-1.8,1.8c0,1,0.8,1.8,1.8,1.8c0,0,0,0,0,0h2v45.4h-2
		c-1,0-1.8,0.9-1.8,1.9c0,1,0.8,1.7,1.8,1.8h2v45.4h-2c-1,0-1.8,0.9-1.8,1.9c0,1,0.8,1.7,1.8,1.8h2v14.2h2.2v-14.2h32.1v14.2h2.2
		v-14.2h1.7c1,0,1.8-0.9,1.8-1.9c0-1-0.8-1.7-1.8-1.8h-1.7v-45.4L1135,3107.7z M1131.1,3153.1H1099v-45.4h32.1L1131.1,3153.1z
		 M1131.1,3104.1H1099v-45.4h32.1L1131.1,3104.1z"/>
	<path class="st12" d="M1135,3107.7c1,0,1.8-0.9,1.8-1.9c0-1-0.8-1.7-1.8-1.8h-1.7v-45.4h1.7c1,0,1.8-0.8,1.8-1.8
		c0-1-0.8-1.8-1.8-1.8h-1.7v-9.5h-2.2v9.5H1099v-9.5h-2.2v9.5h-2c-1,0-1.8,0.8-1.8,1.8c0,1,0.8,1.8,1.8,1.8c0,0,0,0,0,0h2v45.4h-2
		c-1,0-1.8,0.9-1.8,1.9c0,1,0.8,1.7,1.8,1.8h2v45.4h-2c-1,0-1.8,0.9-1.8,1.9c0,1,0.8,1.7,1.8,1.8h2v14.2h2.2v-14.2h32.1v14.2h2.2
		v-14.2h1.7c1,0,1.8-0.9,1.8-1.9c0-1-0.8-1.7-1.8-1.8h-1.7v-45.4L1135,3107.7z M1131.1,3153.1H1099v-45.4h32.1L1131.1,3153.1z
		 M1131.1,3104.1H1099v-45.4h32.1L1131.1,3104.1z"/>
	<rect x="1161.6" y="3042.2" class="st11" width="27.8" height="128.7"/>
	<rect x="1161.6" y="3042.2" class="st2" width="27.8" height="128.7"/>
	<path class="st3" d="M1195.2,3107.7c1,0,1.8-0.9,1.8-1.9c0-1-0.8-1.7-1.8-1.8h-1.7v-45.4h1.7c1,0,1.8-0.8,1.8-1.8s-0.8-1.8-1.8-1.8
		c0,0,0,0,0,0h-1.7v-9.5h-2.2v9.5h-32.2v-9.5h-2.2v9.5h-2c-1,0-1.8,0.8-1.8,1.8c0,1,0.8,1.8,1.8,1.8h2v45.4h-2c-1,0-1.8,0.9-1.8,1.9
		c0,1,0.8,1.7,1.8,1.8h2v45.4h-2c-1,0-1.8,0.9-1.8,1.9c0,1,0.8,1.7,1.8,1.8h2v14.2h2.2v-14.2h32.1v14.2h2.2v-14.2h1.7
		c1,0,1.8-0.9,1.8-1.9c0-1-0.8-1.7-1.8-1.8h-1.7v-45.4L1195.2,3107.7z M1191.3,3153.1h-32.1v-45.4h32.1L1191.3,3153.1z
		 M1191.3,3104.1h-32.1v-45.4h32.1L1191.3,3104.1z"/>
	<path class="st13" d="M1195.2,3107.7c1,0,1.8-0.9,1.8-1.9c0-1-0.8-1.7-1.8-1.8h-1.7v-45.4h1.7c1,0,1.8-0.8,1.8-1.8
		s-0.8-1.8-1.8-1.8c0,0,0,0,0,0h-1.7v-9.5h-2.2v9.5h-32.2v-9.5h-2.2v9.5h-2c-1,0-1.8,0.8-1.8,1.8c0,1,0.8,1.8,1.8,1.8h2v45.4h-2
		c-1,0-1.8,0.9-1.8,1.9c0,1,0.8,1.7,1.8,1.8h2v45.4h-2c-1,0-1.8,0.9-1.8,1.9c0,1,0.8,1.7,1.8,1.8h2v14.2h2.2v-14.2h32.1v14.2h2.2
		v-14.2h1.7c1,0,1.8-0.9,1.8-1.9c0-1-0.8-1.7-1.8-1.8h-1.7v-45.4L1195.2,3107.7z M1191.3,3153.1h-32.1v-45.4h32.1L1191.3,3153.1z
		 M1191.3,3104.1h-32.1v-45.4h32.1L1191.3,3104.1z"/>
	<rect x="922.9" y="3244.3" class="st3" width="183.3" height="14.7"/>
	<rect x="922.9" y="3244.3" class="st2" width="183.3" height="14.7"/>
	<rect x="922.9" y="3282.3" class="st3" width="183.3" height="14.7"/>
	<rect x="922.9" y="3282.3" class="st2" width="183.3" height="14.7"/>
	<path class="st3" d="M1192.2,3249.8h-15.1v-0.3h14.8v-14.8h0.2V3249.8z"/>
	<path class="st3" d="M1192.2,3266.8h-15.1v-0.3h14.8v-14.7h0.2V3266.8z"/>
	<path class="st3" d="M1192.2,3283.7h-15l0-0.1v-0.2h14.8v-14.7h0.2V3283.7z"/>
	<rect x="1177.1" y="3268.7" class="st2" width="14.8" height="14.7"/>
	<path class="st3" d="M1177.1,3283.7L1177.1,3283.7L1177.1,3283.7L1177.1,3283.7z"/>
	<path class="st3" d="M1192.2,3300.7h-11.6l-0.1-0.3h11.5v-14.8h0.2V3300.7z"/>
	<path class="st3" d="M1175.1,3249.2v-14.5h0.2L1175.1,3249.2z"/>
	<path class="st8" d="M1175.1,3266.5h-1.5l-3-14.7h4.5V3266.5z"/>
	<path class="st7" d="M257.6,3255.9h-24.5l4.5-91.3l0.1-2.7l0.1-1.9l0.1-2.7l0.2-4.4h14.4l0.2,4.4l0.1,2.7l0.1,1.9l0.1,2.7
		L257.6,3255.9z"/>
	<path class="st2" d="M257.6,3255.9h-24.5l4.5-91.3l0.1-2.7l0.1-1.9l0.1-2.7l0.2-4.4h14.4l0.2,4.4l0.1,2.7l0.1,1.9l0.1,2.7
		L257.6,3255.9z"/>
	<path class="st3" d="M253,3160h-15.1l0.1-2.7h14.8L253,3160z"/>
	<path class="st2" d="M253,3160h-15.1l0.1-2.7h14.8L253,3160z"/>
	<path class="st3" d="M253.2,3164.6h-15.5l0.1-2.7H253L253.2,3164.6z"/>
	<path class="st2" d="M253.2,3164.6h-15.5l0.1-2.7H253L253.2,3164.6z"/>
	<path class="st7" d="M297.9,3255.9h-24.5l4.5-91.3l0.1-2.7l0.1-1.9l0.1-2.7l0.2-4.4h14.4l0.2,4.4l0.1,2.7l0.1,1.9l0.1,2.7
		L297.9,3255.9z"/>
	<path class="st2" d="M297.9,3255.9h-24.5l4.5-91.3l0.1-2.7l0.1-1.9l0.1-2.7l0.2-4.4h14.4l0.2,4.4l0.1,2.7l0.1,1.9l0.1,2.7
		L297.9,3255.9z"/>
	<path class="st3" d="M293.2,3160h-15.1l0.1-2.7h14.8L293.2,3160z"/>
	<path class="st2" d="M293.2,3160h-15.1l0.1-2.7h14.8L293.2,3160z"/>
	<path class="st3" d="M293.5,3164.6h-15.5l0.1-2.7h15.3L293.5,3164.6z"/>
	<path class="st2" d="M293.5,3164.6h-15.5l0.1-2.7h15.3L293.5,3164.6z"/>
	<rect x="369.7" y="3269.4" class="st3" width="117.4" height="5.5"/>
	<rect x="369.7" y="3269.4" class="st2" width="117.4" height="5.5"/>
	<rect x="369.7" y="3276.8" class="st3" width="117.4" height="2.8"/>
	<rect x="369.7" y="3276.8" class="st2" width="117.4" height="2.8"/>
	<path class="st7" d="M496.9,3201.3l-26.2,16.2v-10.3l23.9-14.8l-2.8-4.5l-122,75.5l2.8,4.5l22.4-13.8v10.3l-25.3,15.6l1.4,2.3
		l23.9-14.8v41.9h7.1v-46.3l61.8-38.2v84.6h6.8v-88.8l27.6-17.1L496.9,3201.3z M402,3260v-10.3l61.8-38.2v10.3L402,3260z"/>
	<path class="st2" d="M496.9,3201.3l-26.2,16.2v-10.3l23.9-14.8l-2.8-4.5l-122,75.5l2.8,4.5l22.4-13.8v10.3l-25.3,15.6l1.4,2.3
		l23.9-14.8v41.9h7.1v-46.3l61.8-38.2v84.6h6.8v-88.8l27.6-17.1L496.9,3201.3z M402,3260v-10.3l61.8-38.2v10.3L402,3260z"/>
	<path class="st3" d="M374.9,3232.9l11.1,18l103.6-63.7l-11.1-18L374.9,3232.9z M486.2,3186.3l-12.8-1.5l4.4-12.1L486.2,3186.3z
		 M476.2,3173.2l-4.1,11.3l-12-1.5L476.2,3173.2z M456,3185.7l-4.1,11.3l-12-1.4L456,3185.7z M435.8,3198.1l-4.1,11.3l-12-1.5
		L435.8,3198.1z M415.5,3210.6l-4.1,11.3l-12-1.4L415.5,3210.6z M395.3,3223l-4.1,11.3l-12-1.4L395.3,3223z M378.4,3234.1l12.3,1.5
		l-4.2,11.6L378.4,3234.1z M387.9,3247.1l4.1-11.4l12,1.4L387.9,3247.1z M404.8,3236l-12.2-1.5l4.2-11.6L404.8,3236z M398.8,3221.8
		l12,1.5l-4.1,11.4L398.8,3221.8z M408.1,3234.7l4.1-11.4l12,1.4L408.1,3234.7z M425.2,3223.6l-12.5-1.5l4.3-11.8L425.2,3223.6z
		 M419.2,3209.3l12,1.4l-4.1,11.4L419.2,3209.3z M428.4,3222.2l4.1-11.3l12,1.4L428.4,3222.2z M445.5,3211.1l-12.5-1.5l4.3-11.8
		L445.5,3211.1z M439.5,3196.9l11.9,1.4l-4.1,11.2L439.5,3196.9z M448.6,3209.8l4.1-11.4l12,1.5L448.6,3209.8z M465.9,3198.7
		l-12.6-1.5l4.3-12L465.9,3198.7z M459.9,3184.5l11.7,1.4l-4,11.1L459.9,3184.5z M468.9,3197.4l4.1-11.4l12,1.4L468.9,3197.4z"/>
	<path class="st6" d="M374.9,3232.9l11.1,18l103.6-63.7l-11.1-18L374.9,3232.9z M486.2,3186.3l-12.8-1.5l4.4-12.1L486.2,3186.3z
		 M476.2,3173.2l-4.1,11.3l-12-1.5L476.2,3173.2z M456,3185.7l-4.1,11.3l-12-1.4L456,3185.7z M435.8,3198.1l-4.1,11.3l-12-1.5
		L435.8,3198.1z M415.5,3210.6l-4.1,11.3l-12-1.4L415.5,3210.6z M395.3,3223l-4.1,11.3l-12-1.4L395.3,3223z M378.4,3234.1l12.3,1.5
		l-4.2,11.6L378.4,3234.1z M387.9,3247.1l4.1-11.4l12,1.4L387.9,3247.1z M404.8,3236l-12.2-1.5l4.2-11.6L404.8,3236z M398.8,3221.8
		l12,1.5l-4.1,11.4L398.8,3221.8z M408.1,3234.7l4.1-11.4l12,1.4L408.1,3234.7z M425.2,3223.6l-12.5-1.5l4.3-11.8L425.2,3223.6z
		 M419.2,3209.3l12,1.4l-4.1,11.4L419.2,3209.3z M428.4,3222.2l4.1-11.3l12,1.4L428.4,3222.2z M445.5,3211.1l-12.5-1.5l4.3-11.8
		L445.5,3211.1z M439.5,3196.9l11.9,1.4l-4.1,11.2L439.5,3196.9z M448.6,3209.8l4.1-11.4l12,1.5L448.6,3209.8z M465.9,3198.7
		l-12.6-1.5l4.3-12L465.9,3198.7z M459.9,3184.5l11.7,1.4l-4,11.1L459.9,3184.5z M468.9,3197.4l4.1-11.4l12,1.4L468.9,3197.4z"/>
	<path class="st8" d="M386.4,3251.5l-11.5,6.9v-25.9L386.4,3251.5z"/>
	<path class="st2" d="M386.4,3251.5l-11.5,6.9v-25.9L386.4,3251.5z"/>
	<path class="st8" d="M490.7,3160.7v26.3l-1.3,0.8l-11.6-19.3L490.7,3160.7z"/>
	<path class="st2" d="M490.7,3160.7v26.3l-1.3,0.8l-11.6-19.3L490.7,3160.7z"/>
	<path class="st7" d="M541.6,3219.4v90.1h-57.1v-90.1h6.2v-81.1l44.6,13.6v67.5L541.6,3219.4z"/>
	<path class="st2" d="M541.6,3219.4v90.1h-57.1v-90.1h6.2v-81.1l44.6,13.6v67.5L541.6,3219.4z"/>
	<path class="st3" d="M573.1,3286.9c0,6.2-5,11.3-11.3,11.3c-6.2,0-11.3-5-11.3-11.3v-73.3c0-6.2,5-11.3,11.3-11.3
		c6.2,0,11.3,5,11.3,11.3V3286.9z"/>
	<path class="st2" d="M573.1,3286.9c0,6.2-5,11.3-11.3,11.3c-6.2,0-11.3-5-11.3-11.3v-73.3c0-6.2,5-11.3,11.3-11.3
		c6.2,0,11.3,5,11.3,11.3V3286.9z"/>
	<rect x="557.4" y="3179.2" class="st3" width="8.9" height="24.5"/>
	<rect x="557.4" y="3179.2" class="st2" width="8.9" height="24.5"/>
	<path class="st7" d="M577.4,3222.4c0.7,0,1.3-0.6,1.3-1.3c0-0.7-0.6-1.3-1.3-1.3l0,0H576v-31.4h1.4c0.7,0,1.3-0.6,1.3-1.3
		c0-0.7-0.6-1.3-1.3-1.3H576v-1.3h-1.6v1.3h-25.2v-1.3h-1.6v1.3h-1.4c-0.7,0-1.3,0.6-1.3,1.3c0,0.7,0.6,1.3,1.3,1.3h1.4v31.4h-1.4
		c-0.7,0-1.3,0.6-1.3,1.3c0,0.7,0.6,1.3,1.3,1.3h1.4v15.2h-1.4c-0.7,0-1.3,0.6-1.3,1.3c0,0.7,0.6,1.3,1.3,1.3h1.4v15.2h-1.4
		c-0.7,0-1.4,0.6-1.4,1.3c0,0.7,0.6,1.4,1.3,1.4c0,0,0.1,0,0.1,0h1.4v15.2h-1.4c-0.7,0-1.3,0.6-1.3,1.3c0,0.7,0.6,1.3,1.3,1.3
		c0,0,0,0,0,0h1.4v24.4h1.6v-24.4h25.2v24.4h1.6v-24.4h1.4c0.7,0,1.3-0.6,1.3-1.3c0-0.7-0.6-1.3-1.3-1.3H576V3258h1.4
		c0.7,0,1.3-0.6,1.3-1.4c0-0.7-0.6-1.3-1.3-1.3H576v-15.2h1.4c0.7,0,1.3-0.6,1.3-1.3c0-0.7-0.6-1.3-1.3-1.3H576v-15.2L577.4,3222.4z
		 M574.4,3273.2h-25.2V3258h25.2V3273.2z M574.4,3255.4h-25.2v-15.2h25.2V3255.4z M574.4,3237.5h-25.2v-15.2h25.2V3237.5z
		 M574.4,3219.7h-25.2v-31.4h25.2V3219.7z"/>
	<path class="st2" d="M577.4,3222.4c0.7,0,1.3-0.6,1.3-1.3c0-0.7-0.6-1.3-1.3-1.3l0,0H576v-31.4h1.4c0.7,0,1.3-0.6,1.3-1.3
		c0-0.7-0.6-1.3-1.3-1.3H576v-1.3h-1.6v1.3h-25.2v-1.3h-1.6v1.3h-1.4c-0.7,0-1.3,0.6-1.3,1.3c0,0.7,0.6,1.3,1.3,1.3h1.4v31.4h-1.4
		c-0.7,0-1.3,0.6-1.3,1.3c0,0.7,0.6,1.3,1.3,1.3h1.4v15.2h-1.4c-0.7,0-1.3,0.6-1.3,1.3c0,0.7,0.6,1.3,1.3,1.3h1.4v15.2h-1.4
		c-0.7,0-1.4,0.6-1.4,1.3c0,0.7,0.6,1.4,1.3,1.4c0,0,0.1,0,0.1,0h1.4v15.2h-1.4c-0.7,0-1.3,0.6-1.3,1.3c0,0.7,0.6,1.3,1.3,1.3
		c0,0,0,0,0,0h1.4v24.4h1.6v-24.4h25.2v24.4h1.6v-24.4h1.4c0.7,0,1.3-0.6,1.3-1.3c0-0.7-0.6-1.3-1.3-1.3H576V3258h1.4
		c0.7,0,1.3-0.6,1.3-1.4c0-0.7-0.6-1.3-1.3-1.3H576v-15.2h1.4c0.7,0,1.3-0.6,1.3-1.3c0-0.7-0.6-1.3-1.3-1.3H576v-15.2L577.4,3222.4z
		 M574.4,3273.2h-25.2V3258h25.2V3273.2z M574.4,3255.4h-25.2v-15.2h25.2V3255.4z M574.4,3237.5h-25.2v-15.2h25.2V3237.5z
		 M574.4,3219.7h-25.2v-31.4h25.2V3219.7z"/>
	<rect x="490.7" y="3227.2" class="st3" width="10.3" height="16.9"/>
	<rect x="490.7" y="3227.2" class="st2" width="10.3" height="16.9"/>
	<rect x="502.1" y="3227.2" class="st3" width="10.3" height="16.9"/>
	<rect x="502.1" y="3227.2" class="st2" width="10.3" height="16.9"/>
	<rect x="513.6" y="3227.2" class="st3" width="10.3" height="16.9"/>
	<rect x="513.6" y="3227.2" class="st2" width="10.3" height="16.9"/>
	<rect x="525" y="3227.2" class="st3" width="10.3" height="16.9"/>
	<rect x="525" y="3227.2" class="st2" width="10.3" height="16.9"/>
	<rect x="490.7" y="3250.9" class="st3" width="10.3" height="16.9"/>
	<rect x="490.7" y="3250.9" class="st2" width="10.3" height="16.9"/>
	<rect x="502.1" y="3250.9" class="st3" width="10.3" height="16.9"/>
	<rect x="502.1" y="3250.9" class="st2" width="10.3" height="16.9"/>
	<rect x="513.6" y="3250.9" class="st3" width="10.3" height="16.9"/>
	<rect x="513.6" y="3250.9" class="st2" width="10.3" height="16.9"/>
	<rect x="525" y="3250.9" class="st3" width="10.3" height="16.9"/>
	<rect x="525" y="3250.9" class="st2" width="10.3" height="16.9"/>
	<rect x="490.7" y="3274.5" class="st3" width="10.3" height="16.9"/>
	<rect x="490.7" y="3274.5" class="st2" width="10.3" height="16.9"/>
	<rect x="502.1" y="3274.5" class="st3" width="10.3" height="16.9"/>
	<rect x="502.1" y="3274.5" class="st2" width="10.3" height="16.9"/>
	<rect x="513.6" y="3274.5" class="st3" width="10.3" height="16.9"/>
	<rect x="513.6" y="3274.5" class="st2" width="10.3" height="16.9"/>
	<rect x="525" y="3274.5" class="st3" width="10.3" height="16.9"/>
	<rect x="525" y="3274.5" class="st2" width="10.3" height="16.9"/>
	<rect x="498.7" y="3204.4" class="st3" width="27.2" height="8"/>
	<rect x="498.7" y="3204.4" class="st2" width="27.2" height="8"/>
	<rect x="498.7" y="3188.4" class="st3" width="27.2" height="8"/>
	<rect x="498.7" y="3188.4" class="st2" width="27.2" height="8"/>
	<rect x="498.7" y="3172.3" class="st3" width="27.2" height="8"/>
	<rect x="498.7" y="3172.3" class="st2" width="27.2" height="8"/>
	<rect x="498.7" y="3156.3" class="st3" width="27.2" height="8"/>
	<rect x="498.7" y="3156.3" class="st2" width="27.2" height="8"/>
	<path class="st7" d="M374.9,3192.4v117.1H217.5v-85.9h88.4v-40.9L374.9,3192.4z"/>
	<path class="st2" d="M374.9,3192.4v117.1H217.5v-85.9h88.4v-40.9L374.9,3192.4z"/>
	<rect x="228.1" y="3232.6" class="st8" width="15.8" height="21.2"/>
	<rect x="228.1" y="3232.6" class="st2" width="15.8" height="21.2"/>
	<rect x="245.5" y="3232.6" class="st8" width="15.8" height="21.2"/>
	<rect x="245.5" y="3232.6" class="st2" width="15.8" height="21.2"/>
	<rect x="263" y="3232.6" class="st8" width="15.8" height="21.2"/>
	<rect x="263" y="3232.6" class="st2" width="15.8" height="21.2"/>
	<rect x="280.5" y="3232.6" class="st8" width="15.8" height="21.2"/>
	<rect x="280.5" y="3232.6" class="st2" width="15.8" height="21.2"/>
	<rect x="297.9" y="3232.6" class="st8" width="15.8" height="21.2"/>
	<rect x="297.9" y="3232.6" class="st2" width="15.8" height="21.2"/>
	<rect x="315.4" y="3232.6" class="st8" width="15.8" height="21.2"/>
	<rect x="315.4" y="3232.6" class="st2" width="15.8" height="21.2"/>
	<rect x="332.9" y="3232.6" class="st8" width="15.8" height="21.2"/>
	<rect x="332.9" y="3232.6" class="st2" width="15.8" height="21.2"/>
	<rect x="350.3" y="3232.6" class="st8" width="15.8" height="21.2"/>
	<rect x="350.3" y="3232.6" class="st2" width="15.8" height="21.2"/>
	<rect x="228.1" y="3261.5" class="st8" width="15.8" height="21.2"/>
	<rect x="228.1" y="3261.5" class="st2" width="15.8" height="21.2"/>
	<rect x="245.5" y="3261.5" class="st8" width="15.8" height="21.2"/>
	<rect x="245.5" y="3261.5" class="st2" width="15.8" height="21.2"/>
	<rect x="263" y="3261.5" class="st8" width="15.8" height="21.2"/>
	<rect x="263" y="3261.5" class="st2" width="15.8" height="21.2"/>
	<rect x="280.5" y="3261.5" class="st8" width="15.8" height="21.2"/>
	<rect x="280.5" y="3261.5" class="st2" width="15.8" height="21.2"/>
	<rect x="297.9" y="3261.5" class="st3" width="15.8" height="21.2"/>
	<rect x="297.9" y="3261.5" class="st14" width="15.8" height="21.2"/>
	<rect x="315.4" y="3261.5" class="st8" width="15.8" height="21.2"/>
	<rect x="315.4" y="3261.5" class="st2" width="15.8" height="21.2"/>
	<rect x="332.9" y="3261.5" class="st8" width="15.8" height="21.2"/>
	<rect x="332.9" y="3261.5" class="st2" width="15.8" height="21.2"/>
	<rect x="350.3" y="3261.5" class="st8" width="15.8" height="21.2"/>
	<rect x="350.3" y="3261.5" class="st2" width="15.8" height="21.2"/>
	<rect x="315.4" y="3202.4" class="st8" width="15.8" height="21.2"/>
	<rect x="315.4" y="3202.4" class="st2" width="15.8" height="21.2"/>
	<rect x="332.9" y="3202.4" class="st8" width="15.8" height="21.2"/>
	<rect x="332.9" y="3202.4" class="st2" width="15.8" height="21.2"/>
	<rect x="350.3" y="3202.4" class="st8" width="15.8" height="21.2"/>
	<rect x="350.3" y="3202.4" class="st2" width="15.8" height="21.2"/>
	<path class="st1" d="M244.5,3150.2c-5.8,0-5.8-9.1,0-9.1c0.6,0,1.2,0.1,1.8,0.4c-0.5-3.7,1.6-7.9,6.5-7.9c0.6,0,1.2,0.1,1.8,0.2
		c1.1-0.7,2.3-1,3.5-1c1.2,0,2.4,0.3,3.4,0.9c0.4-4.5,4.2-7.9,8.7-7.7c1.6,0,3.2,0.4,4.6,1.2c0.1-1.3,0.4-2.5,1-3.7
		c-4.5-1.2-4.1-8.9,1.3-8.9c2.3-0.1,4.2,1.7,4.3,3.9c1-0.3,2.1-0.5,3.2-0.5c3.4-0.1,6.6,1.6,8.3,4.5c0.3,0,0.5,0.1,0.7,0.1
		c0.2-0.1,0.5-0.1,0.7-0.1c0.7,0,1.4,0.2,2,0.6c4,1.5,6.6,5.4,6.4,9.7c7.9,0.8,7.7,13.5-0.8,13.5l-0.1,0c-0.5,1.2-1.7,2-3,1.9
		c-1.8,0-3.3-1.5-3.3-3.3c0-0.4,0.1-0.7,0.2-1.1c-0.4,0.1-0.9,0.2-1.4,0.2c-1.2,0-2.3-0.4-3.1-1.3c-0.7-0.1-1.4-0.3-2-0.5
		c-1.6,1.2-3.5,1.8-5.4,1.8c-2.6,0.1-5.2-1.1-6.8-3.2c-1.6,2.1-4.2,3.2-6.8,3.2c-2.2,0.1-4.3-0.7-5.9-2.2c-0.8,2.7-3.4,4.6-6.2,4.5
		c-0.6,0-1.2-0.1-1.8-0.2c-1.1,0.7-2.3,1-3.5,1c-1.4,0-2.8-0.4-3.9-1.2c0,2.4-1.9,4.3-4.3,4.2
		C244.5,3150.2,244.5,3150.2,244.5,3150.2z"/>
	<path class="st2" d="M244.5,3150.2c-5.8,0-5.8-9.1,0-9.1c0.6,0,1.2,0.1,1.8,0.4c-0.5-3.7,1.6-7.9,6.5-7.9c0.6,0,1.2,0.1,1.8,0.2
		c1.1-0.7,2.3-1,3.5-1c1.2,0,2.4,0.3,3.4,0.9c0.4-4.5,4.2-7.9,8.7-7.7c1.6,0,3.2,0.4,4.6,1.2c0.1-1.3,0.4-2.5,1-3.7
		c-4.5-1.2-4.1-8.9,1.3-8.9c2.3-0.1,4.2,1.7,4.3,3.9c1-0.3,2.1-0.5,3.2-0.5c3.4-0.1,6.6,1.6,8.3,4.5c0.3,0,0.5,0.1,0.7,0.1
		c0.2-0.1,0.5-0.1,0.7-0.1c0.7,0,1.4,0.2,2,0.6c4,1.5,6.6,5.4,6.4,9.7c7.9,0.8,7.7,13.5-0.8,13.5l-0.1,0c-0.5,1.2-1.7,2-3,1.9
		c-1.8,0-3.3-1.5-3.3-3.3c0-0.4,0.1-0.7,0.2-1.1c-0.4,0.1-0.9,0.2-1.4,0.2c-1.2,0-2.3-0.4-3.1-1.3c-0.7-0.1-1.4-0.3-2-0.5
		c-1.6,1.2-3.5,1.8-5.4,1.8c-2.6,0.1-5.2-1.1-6.8-3.2c-1.6,2.1-4.2,3.2-6.8,3.2c-2.2,0.1-4.3-0.7-5.9-2.2c-0.8,2.7-3.4,4.6-6.2,4.5
		c-0.6,0-1.2-0.1-1.8-0.2c-1.1,0.7-2.3,1-3.5,1c-1.4,0-2.8-0.4-3.9-1.2c0,2.4-1.9,4.3-4.3,4.2
		C244.5,3150.2,244.5,3150.2,244.5,3150.2z"/>
	<path class="st3" d="M366.1,3140.6c-3,0.1-5.9-1.1-8-3.2c-2.6,1.5-5.6,2.2-8.6,2.2c-2.1,0-4.2-0.3-6.2-1.1c-1-0.1-2-0.3-2.9-0.7
		c-1.8,1.6-4.1,2.4-6.5,2.3c-3.6,0.1-6.9-1.8-8.6-4.9c-2,1.6-4.5,2.4-7,2.5c-6.4-0.1-11.7-5.3-11.7-11.7v-1
		c0-6.5,5.2-11.7,11.6-11.7c4.8,0,9.2,3,10.9,7.5c0.9-0.4,1.8-0.7,2.8-0.9c0.5-1.9,1.3-3.7,2.5-5.3l0,0c2.1-4.9,6.5-8.3,11.8-9.1
		c1.4-2.7,3.9-4.8,6.9-5.7c4.5-9.4,15.8-13.3,25.1-8.8c4.4,2.1,7.8,5.8,9.5,10.4c0.2,0,0.5,0,0.7,0c7.2-0.3,13.7,4.3,15.7,11.3
		c2.5,0.6,4.7,2.1,6.1,4.2c0.2,0,0.5-0.1,0.7-0.1c0.8,0,1.7,0.1,2.5,0.3c-1.9-2.5-0.7-7.1,3.4-7.1c5.6,0,5.7,8.6,0.2,8.8l0.3,0.2
		c0.5-0.1,1-0.2,1.5-0.2c3.7-0.1,6.8,2.7,7,6.4c7.4,0.2,7.3,11.7-0.2,11.7c-2.3,0.1-4.5-1.4-5.2-3.6c-0.5,0.1-1,0.1-1.4,0.1
		c-1.8,2.6-4.8,4-7.9,3.9c-2.2,0.1-4.4-0.6-6.2-2c-1.2,0.3-2.4,0.5-3.6,0.5c-1,0-1.9-0.1-2.9-0.3c-0.8,2.2-3.3,3.3-5.5,2.5
		c-0.5-0.2-0.9-0.4-1.3-0.8c-1.3,1.3-3.1,2.1-5,2c-3.4,0.1-6.4-2.3-6.9-5.7h0c-1.5,1.6-3.3,2.8-5.3,3.7
		C372.3,3139.5,369.3,3140.8,366.1,3140.6z"/>
	<path class="st4" d="M366.1,3140.6c-3,0.1-5.9-1.1-8-3.2c-2.6,1.5-5.6,2.2-8.6,2.2c-2.1,0-4.2-0.3-6.2-1.1c-1-0.1-2-0.3-2.9-0.7
		c-1.8,1.6-4.1,2.4-6.5,2.3c-3.6,0.1-6.9-1.8-8.6-4.9c-2,1.6-4.5,2.4-7,2.5c-6.4-0.1-11.7-5.3-11.7-11.7v-1
		c0-6.5,5.2-11.7,11.6-11.7c4.8,0,9.2,3,10.9,7.5c0.9-0.4,1.8-0.7,2.8-0.9c0.5-1.9,1.3-3.7,2.5-5.3l0,0c2.1-4.9,6.5-8.3,11.8-9.1
		c1.4-2.7,3.9-4.8,6.9-5.7c4.5-9.4,15.8-13.3,25.1-8.8c4.4,2.1,7.8,5.8,9.5,10.4c0.2,0,0.5,0,0.7,0c7.2-0.3,13.7,4.3,15.7,11.3
		c2.5,0.6,4.7,2.1,6.1,4.2c0.2,0,0.5-0.1,0.7-0.1c0.8,0,1.7,0.1,2.5,0.3c-1.9-2.5-0.7-7.1,3.4-7.1c5.6,0,5.7,8.6,0.2,8.8l0.3,0.2
		c0.5-0.1,1-0.2,1.5-0.2c3.7-0.1,6.8,2.7,7,6.4c7.4,0.2,7.3,11.7-0.2,11.7c-2.3,0.1-4.5-1.4-5.2-3.6c-0.5,0.1-1,0.1-1.4,0.1
		c-1.8,2.6-4.8,4-7.9,3.9c-2.2,0.1-4.4-0.6-6.2-2c-1.2,0.3-2.4,0.5-3.6,0.5c-1,0-1.9-0.1-2.9-0.3c-0.8,2.2-3.3,3.3-5.5,2.5
		c-0.5-0.2-0.9-0.4-1.3-0.8c-1.3,1.3-3.1,2.1-5,2c-3.4,0.1-6.4-2.3-6.9-5.7h0c-1.5,1.6-3.3,2.8-5.3,3.7
		C372.3,3139.5,369.3,3140.8,366.1,3140.6z"/>
	<path class="st1" d="M448.6,3126.4c-2.8,0.1-5.3-1.6-6.3-4.2c-0.5,0.1-1.1,0.2-1.6,0.2c-12.3,0-12.3-19.1,0-19.1
		c4.9-0.1,9.1,3.8,9.2,8.7c0,0.1,0,0.1,0,0.2C457.8,3113.4,457.4,3126.4,448.6,3126.4z"/>
	<path class="st2" d="M448.6,3126.4c-2.8,0.1-5.3-1.6-6.3-4.2c-0.5,0.1-1.1,0.2-1.6,0.2c-12.3,0-12.3-19.1,0-19.1
		c4.9-0.1,9.1,3.8,9.2,8.7c0,0.1,0,0.1,0,0.2C457.8,3113.4,457.4,3126.4,448.6,3126.4z"/>
	<rect x="541.6" y="3300.3" class="st3" width="40.5" height="9.2"/>
	<rect x="541.6" y="3300.3" class="st2" width="40.5" height="9.2"/>
	<rect x="374.9" y="3304.9" class="st3" width="109.6" height="4.6"/>
	<rect x="374.9" y="3304.9" class="st2" width="109.6" height="4.6"/>
	<path class="st7" d="M513.6,3227.2v16.9h10.3v-16.9H513.6z M525,3227.2v16.9h10.3v-16.9H525z M490.7,3250.9v16.9h10.3v-16.9H490.7z
		 M502.1,3250.9v16.9h10.3v-16.9H502.1z M513.6,3250.9v16.9h10.3v-16.9H513.6z M525,3250.9v16.9h10.3v-16.9H525z M490.7,3274.5v16.9
		h10.3v-16.9H490.7z M502.1,3274.5v16.9h10.3v-16.9H502.1z M513.6,3274.5v16.9h10.3v-16.9H513.6z M525,3274.5v16.9h10.3v-16.9H525z
		 M541.6,3309.5h-57.1v-4.6l0,0v-52.8l7.9-7.9h8.7v-8.7l1.1-1.1v9.8h10.3v-16.9h-3.2l0,0l14.8-14.8h1.8v-1.8l9.4-9.4v18.2h6.2
		L541.6,3309.5z"/>
	<path class="st2" d="M513.6,3227.2v16.9h10.3v-16.9H513.6z M525,3227.2v16.9h10.3v-16.9H525z M490.7,3250.9v16.9h10.3v-16.9H490.7z
		 M502.1,3250.9v16.9h10.3v-16.9H502.1z M513.6,3250.9v16.9h10.3v-16.9H513.6z M525,3250.9v16.9h10.3v-16.9H525z M490.7,3274.5v16.9
		h10.3v-16.9H490.7z M502.1,3274.5v16.9h10.3v-16.9H502.1z M513.6,3274.5v16.9h10.3v-16.9H513.6z M525,3274.5v16.9h10.3v-16.9H525z
		 M541.6,3309.5h-57.1v-4.6l0,0v-52.8l7.9-7.9h8.7v-8.7l1.1-1.1v9.8h10.3v-16.9h-3.2l0,0l14.8-14.8h1.8v-1.8l9.4-9.4v18.2h6.2
		L541.6,3309.5z"/>
	<path class="st3" d="M501.1,3244.2h-8.7l8.7-8.7V3244.2z"/>
	<path class="st2" d="M501.1,3244.2h-8.7l8.7-8.7V3244.2z"/>
	<path class="st3" d="M512.5,3244.2h-10.3v-9.8l7.2-7.2h3.2L512.5,3244.2z"/>
	<path class="st2" d="M512.5,3244.2h-10.3v-9.8l7.2-7.2h3.2L512.5,3244.2z"/>
	<rect x="513.6" y="3227.2" class="st3" width="10.3" height="16.9"/>
	<rect x="513.6" y="3227.2" class="st2" width="10.3" height="16.9"/>
	<rect x="525" y="3227.2" class="st3" width="10.3" height="16.9"/>
	<rect x="525" y="3227.2" class="st2" width="10.3" height="16.9"/>
	<rect x="490.7" y="3250.9" class="st3" width="10.3" height="16.9"/>
	<rect x="490.7" y="3250.9" class="st2" width="10.3" height="16.9"/>
	<rect x="502.1" y="3250.9" class="st3" width="10.3" height="16.9"/>
	<rect x="502.1" y="3250.9" class="st2" width="10.3" height="16.9"/>
	<rect x="513.6" y="3250.9" class="st3" width="10.3" height="16.9"/>
	<rect x="513.6" y="3250.9" class="st2" width="10.3" height="16.9"/>
	<rect x="525" y="3250.9" class="st3" width="10.3" height="16.9"/>
	<rect x="525" y="3250.9" class="st2" width="10.3" height="16.9"/>
	<rect x="490.7" y="3274.5" class="st3" width="10.3" height="16.9"/>
	<rect x="490.7" y="3274.5" class="st2" width="10.3" height="16.9"/>
	<rect x="502.1" y="3274.5" class="st3" width="10.3" height="16.9"/>
	<rect x="502.1" y="3274.5" class="st2" width="10.3" height="16.9"/>
	<rect x="513.6" y="3274.5" class="st3" width="10.3" height="16.9"/>
	<rect x="513.6" y="3274.5" class="st2" width="10.3" height="16.9"/>
	<rect x="525" y="3274.5" class="st3" width="10.3" height="16.9"/>
	<rect x="525" y="3274.5" class="st2" width="10.3" height="16.9"/>
	<path class="st3" d="M525.9,3212.4h-1.8l0,0L525.9,3212.4l0-1.8l0,0L525.9,3212.4z"/>
	<path class="st2" d="M525.9,3212.4h-1.8l0,0L525.9,3212.4l0-1.8l0,0L525.9,3212.4z"/>
	<path class="st3" d="M295.7,3210l-0.8-16.4l0,0L295.7,3210z M275.3,3217.4l0.2-4.5l0,0L275.3,3217.4z"/>
	<path class="st2" d="M295.7,3210l-0.8-16.4l0,0L295.7,3210z M275.3,3217.4l0.2-4.5l0,0L275.3,3217.4z"/>
	<path class="st3" d="M296.3,3223.6H275l0.3-6.2l0.2-4.5l19.3-19.3l0.8,16.4L296.3,3223.6z"/>
	<path class="st2" d="M296.3,3223.6H275l0.3-6.2l0.2-4.5l19.3-19.3l0.8,16.4L296.3,3223.6z"/>
	<rect x="275" y="3223.6" class="st3" width="21.3" height="0"/>
	<rect x="275" y="3223.6" class="st2" width="21.3" height="0"/>
	<path class="st3" d="M484.5,3269.4h-13.8v-3.5l0,0v3.5L484.5,3269.4L484.5,3269.4z M463.9,3276.8h-4.2h0H463.9z M484.5,3276.8
		h-13.8v-2l0,0v1.9L484.5,3276.8L484.5,3276.8z M463.9,3304.9h-32.3l0,0H463.9L463.9,3304.9z M484.5,3304.9h-13.8v-25.3l0,0v25.3
		L484.5,3304.9L484.5,3304.9z"/>
	<path class="st2" d="M484.5,3269.4h-13.8v-3.5l0,0v3.5L484.5,3269.4L484.5,3269.4z M463.9,3276.8h-4.2h0H463.9z M484.5,3276.8
		h-13.8v-2l0,0v1.9L484.5,3276.8L484.5,3276.8z M463.9,3304.9h-32.3l0,0H463.9L463.9,3304.9z M484.5,3304.9h-13.8v-25.3l0,0v25.3
		L484.5,3304.9L484.5,3304.9z"/>
	<path class="st3" d="M470.7,3274.9L470.7,3274.9v-5.5h13.8v5.5L470.7,3274.9L470.7,3274.9z"/>
	<path class="st2" d="M470.7,3274.9L470.7,3274.9v-5.5h13.8v5.5L470.7,3274.9L470.7,3274.9z"/>
	<path class="st3" d="M463.9,3279.6h-6.9l2.8-2.8h4.2V3279.6z M470.7,3279.6L470.7,3279.6v-2.8h13.8l0,2.8L470.7,3279.6
		L470.7,3279.6z"/>
	<path class="st2" d="M463.9,3279.6h-6.9l2.8-2.8h4.2V3279.6z M470.7,3279.6L470.7,3279.6v-2.8h13.8l0,2.8L470.7,3279.6
		L470.7,3279.6z"/>
	<path class="st7" d="M470.7,3304.9h-6.8l0,0l0,0v-25.3l0,0v-2.8l0,0v-4.2l3.3-3.3l3.5-3.5L470.7,3304.9z"/>
	<path class="st2" d="M470.7,3304.9h-6.8l0,0l0,0v-25.3l0,0v-2.8l0,0v-4.2l3.3-3.3l3.5-3.5L470.7,3304.9z"/>
	<path class="st3" d="M484.5,3309.5H427l4.6-4.6h52.9L484.5,3309.5z"/>
	<path class="st2" d="M484.5,3309.5H427l4.6-4.6h52.9L484.5,3309.5z"/>
	<path class="st3" d="M484.5,3274.9L484.5,3274.9z M484.5,3309.5L484.5,3309.5v-4.6l0,0V3309.5z"/>
	<path class="st2" d="M484.5,3274.9L484.5,3274.9z M484.5,3309.5L484.5,3309.5v-4.6l0,0V3309.5z"/>
	<path class="st7" d="M175.7,3227.1v82.4h-89v-50.6h12.7v-6.4h12.7v-6.4h12.7v-6.4h12.7v-6.3h12.7v-6.4L175.7,3227.1z"/>
	<path class="st2" d="M175.7,3227.1v82.4h-89v-50.6h12.7v-6.4h12.7v-6.4h12.7v-6.4h12.7v-6.3h12.7v-6.4L175.7,3227.1z"/>
	<rect x="103.2" y="3266.7" class="st8" width="6" height="6"/>
	<rect x="103.2" y="3266.7" class="st2" width="6" height="6"/>
	<path class="st8" d="M106.9,3291.2h-3.7v-6h6v3.7L106.9,3291.2z"/>
	<path class="st2" d="M106.9,3291.2h-3.7v-6h6v3.7L106.9,3291.2z"/>
	<rect x="116.1" y="3257.5" class="st8" width="6" height="6"/>
	<rect x="116.1" y="3257.5" class="st14" width="6" height="6"/>
	<rect x="116.1" y="3266.7" class="st8" width="6" height="6"/>
	<rect x="116.1" y="3266.7" class="st2" width="6" height="6"/>
	<rect x="116.1" y="3294.3" class="st3" width="6" height="6"/>
	<rect x="116.1" y="3294.3" class="st2" width="6" height="6"/>
	<path class="st8" d="M129.9,3254.4h-0.8v-6h4.8C132.2,3250.1,130.9,3252.1,129.9,3254.4z M135.2,3254.4H135
		c0.1-0.1,0.1-0.2,0.2-0.3V3254.4z"/>
	<path class="st2" d="M129.9,3254.4h-0.8v-6h4.8C132.2,3250.1,130.9,3252.1,129.9,3254.4z M135.2,3254.4H135
		c0.1-0.1,0.1-0.2,0.2-0.3V3254.4z"/>
	<rect x="129.1" y="3266.7" class="st3" width="6" height="6"/>
	<rect x="129.1" y="3266.7" class="st2" width="6" height="6"/>
	<path class="st8" d="M142.1,3243.1v-4h6v3C146.1,3242.2,144.1,3242.5,142.1,3243.1z"/>
	<path class="st2" d="M142.1,3243.1v-4h6v3C146.1,3242.2,144.1,3242.5,142.1,3243.1z"/>
	<rect x="142.1" y="3248.3" class="st8" width="6" height="6"/>
	<rect x="142.1" y="3248.3" class="st2" width="6" height="6"/>
	<rect x="142.1" y="3275.9" class="st3" width="6" height="6"/>
	<rect x="142.1" y="3275.9" class="st2" width="6" height="6"/>
	<rect x="155.1" y="3257.5" class="st3" width="6" height="6"/>
	<rect x="155.1" y="3257.5" class="st2" width="6" height="6"/>
	<path class="st8" d="M75.3,3186.9h-7.4v-9.5h7.4V3186.9z M75.3,3194.1h-7.4v-6.6h7.4V3194.1z M75.3,3201.3h-7.4v-6.6h7.4V3201.3z
		 M75.3,3208.5h-7.4v-6.6h7.4V3208.5z M75.3,3215.7h-7.4v-6.6h7.4V3215.7z M75.3,3222.9h-7.4v-6.6h7.4V3222.9z M75.3,3230.1h-7.4
		v-6.6h7.4V3230.1z M75.3,3237.3h-7.4v-6.6h7.4V3237.3z M75.3,3244.5h-7.4v-6.6h7.4V3244.5z M75.3,3251.7h-7.4v-6.6h7.4V3251.7z
		 M75.3,3261.7l-7.4-3.2v-6h7.4V3261.7z"/>
	<path class="st2" d="M75.3,3186.9h-7.4v-9.5h7.4V3186.9z M75.3,3194.1h-7.4v-6.6h7.4V3194.1z M75.3,3201.3h-7.4v-6.6h7.4V3201.3z
		 M75.3,3208.5h-7.4v-6.6h7.4V3208.5z M75.3,3215.7h-7.4v-6.6h7.4V3215.7z M75.3,3222.9h-7.4v-6.6h7.4V3222.9z M75.3,3230.1h-7.4
		v-6.6h7.4V3230.1z M75.3,3237.3h-7.4v-6.6h7.4V3237.3z M75.3,3244.5h-7.4v-6.6h7.4V3244.5z M75.3,3251.7h-7.4v-6.6h7.4V3251.7z
		 M75.3,3261.7l-7.4-3.2v-6h7.4V3261.7z"/>
	<path class="st15" d="M78.6,3263.1l-1.3-0.6v-10.1H78v-0.6h-0.7v-6.6H78v-0.6h-0.7v-6.6H78v-0.6h-0.7v-6.6H78v-0.6h-0.7v-6.6H78
		v-0.6h-0.7v-6.6H78v-0.6h-0.7v-6.6H78v-0.6h-0.7v-6.6H78v-0.6h-0.7v-6.6H78v-0.6h-0.7v-6.6H78v-0.6h-0.7v-4h1.3V3263.1z"/>
	<path class="st2" d="M78.6,3263.1l-1.3-0.6v-10.1H78v-0.6h-0.7v-6.6H78v-0.6h-0.7v-6.6H78v-0.6h-0.7v-6.6H78v-0.6h-0.7v-6.6H78
		v-0.6h-0.7v-6.6H78v-0.6h-0.7v-6.6H78v-0.6h-0.7v-6.6H78v-0.6h-0.7v-6.6H78v-0.6h-0.7v-6.6H78v-0.6h-0.7v-4h1.3V3263.1z"/>
	<path class="st15" d="M66.1,3257.6l-1.3-0.6v-74.1h1.3v4h-0.7v0.6h0.7v6.6h-0.7v0.6h0.7v6.6h-0.7v0.6h0.7v6.6h-0.7v0.6h0.7v6.6
		h-0.7v0.6h0.7v6.6h-0.7v0.6h0.7v6.6h-0.7v0.6h0.7v6.6h-0.7v0.6h0.7v6.6h-0.7v0.6h0.7v6.6h-0.7v0.6h0.7V3257.6z"/>
	<path class="st2" d="M66.1,3257.6l-1.3-0.6v-74.1h1.3v4h-0.7v0.6h0.7v6.6h-0.7v0.6h0.7v6.6h-0.7v0.6h0.7v6.6h-0.7v0.6h0.7v6.6h-0.7
		v0.6h0.7v6.6h-0.7v0.6h0.7v6.6h-0.7v0.6h0.7v6.6h-0.7v0.6h0.7v6.6h-0.7v0.6h0.7v6.6h-0.7v0.6h0.7V3257.6z"/>
	<rect x="65.4" y="3186.9" class="st3" width="12.6" height="0.6"/>
	<rect x="65.4" y="3186.9" class="st2" width="12.6" height="0.6"/>
	<rect x="65.4" y="3194.1" class="st3" width="12.6" height="0.6"/>
	<rect x="65.4" y="3194.1" class="st2" width="12.6" height="0.6"/>
	<rect x="65.4" y="3201.3" class="st3" width="12.6" height="0.6"/>
	<rect x="65.4" y="3201.3" class="st2" width="12.6" height="0.6"/>
	<rect x="65.4" y="3208.5" class="st3" width="12.6" height="0.6"/>
	<rect x="65.4" y="3208.5" class="st2" width="12.6" height="0.6"/>
	<rect x="65.4" y="3215.7" class="st3" width="12.6" height="0.6"/>
	<rect x="65.4" y="3215.7" class="st2" width="12.6" height="0.6"/>
	<rect x="65.4" y="3222.9" class="st3" width="12.6" height="0.6"/>
	<rect x="65.4" y="3222.9" class="st2" width="12.6" height="0.6"/>
	<rect x="65.4" y="3230.1" class="st3" width="12.6" height="0.6"/>
	<rect x="65.4" y="3230.1" class="st2" width="12.6" height="0.6"/>
	<rect x="65.4" y="3237.3" class="st3" width="12.6" height="0.6"/>
	<rect x="65.4" y="3237.3" class="st2" width="12.6" height="0.6"/>
	<rect x="65.4" y="3244.5" class="st3" width="12.6" height="0.6"/>
	<rect x="65.4" y="3244.5" class="st2" width="12.6" height="0.6"/>
	<rect x="65.4" y="3251.7" class="st3" width="12.6" height="0.6"/>
	<rect x="65.4" y="3251.7" class="st2" width="12.6" height="0.6"/>
	<rect x="62.3" y="3226.5" class="st7" width="18.9" height="40.5"/>
	<rect x="62.3" y="3226.5" class="st2" width="18.9" height="40.5"/>
	<path class="st7" d="M50.7,3309.5h-44v-58.6l44,19.3V3309.5z"/>
	<path class="st2" d="M50.7,3309.5h-44v-58.6l44,19.3V3309.5z"/>
	<rect x="38.5" y="3272.4" class="st3" width="8.4" height="8.6"/>
	<rect x="38.5" y="3272.4" class="st2" width="8.4" height="8.6"/>
	<rect x="38.5" y="3282" class="st3" width="8.4" height="8.6"/>
	<rect x="38.5" y="3282" class="st2" width="8.4" height="8.6"/>
	<path class="st7" d="M94.8,3309.5h-44v-58.6l44,19.3L94.8,3309.5z"/>
	<path class="st2" d="M94.8,3309.5h-44v-58.6l44,19.3L94.8,3309.5z"/>
	<rect x="67" y="3295.5" class="st3" width="11.6" height="14"/>
	<rect x="67" y="3295.5" class="st2" width="11.6" height="14"/>
	<rect x="54.3" y="3272.4" class="st8" width="8.4" height="8.6"/>
	<rect x="54.3" y="3272.4" class="st2" width="8.4" height="8.6"/>
	<rect x="63.7" y="3272.4" class="st8" width="8.4" height="8.6"/>
	<rect x="63.7" y="3272.4" class="st2" width="8.4" height="8.6"/>
	<rect x="73.1" y="3272.4" class="st8" width="8.4" height="8.6"/>
	<rect x="73.1" y="3272.4" class="st2" width="8.4" height="8.6"/>
	<rect x="82.6" y="3272.4" class="st3" width="8.4" height="8.6"/>
	<rect x="82.6" y="3272.4" class="st2" width="8.4" height="8.6"/>
	<rect x="54.3" y="3282" class="st8" width="8.4" height="8.6"/>
	<rect x="54.3" y="3282" class="st2" width="8.4" height="8.6"/>
	<rect x="63.7" y="3282" class="st8" width="8.4" height="8.6"/>
	<rect x="63.7" y="3282" class="st2" width="8.4" height="8.6"/>
	<rect x="73.1" y="3282" class="st8" width="8.4" height="8.6"/>
	<rect x="73.1" y="3282" class="st2" width="8.4" height="8.6"/>
	<rect x="82.6" y="3282" class="st3" width="8.4" height="8.6"/>
	<rect x="82.6" y="3282" class="st2" width="8.4" height="8.6"/>
	<rect x="82.6" y="3272.4" class="st8" width="8.4" height="8.6"/>
	<rect x="82.6" y="3272.4" class="st2" width="8.4" height="8.6"/>
	<rect x="82.6" y="3282" class="st8" width="8.4" height="8.6"/>
	<rect x="82.6" y="3282" class="st2" width="8.4" height="8.6"/>
	<path class="st3" d="M146.8,3277.7l-4.4,15.7h-22.7l-4.3-15.7l4.3-12.4h22.7L146.8,3277.7z"/>
	<path class="st2" d="M146.8,3277.7l-4.4,15.7h-22.7l-4.3-15.7l4.3-12.4h22.7L146.8,3277.7z"/>
	<rect x="127.2" y="3292.2" class="st3" width="6.9" height="4.2"/>
	<rect x="127.2" y="3292.2" class="st2" width="6.9" height="4.2"/>
	<rect x="121" y="3270" class="st3" width="1.6" height="38.5"/>
	<rect x="121" y="3270" class="st2" width="1.6" height="38.5"/>
	<rect x="139.4" y="3270" class="st3" width="1.6" height="38.5"/>
	<rect x="139.4" y="3270" class="st2" width="1.6" height="38.5"/>
	<path class="st3" d="M145.8,3270.7c0,0.4-0.3,0.7-0.7,0.7h-27.8c-0.4,0-0.7-0.3-0.7-0.7c0-0.4,0.3-0.7,0.7-0.7h27.8
		C145.5,3270,145.8,3270.3,145.8,3270.7C145.8,3270.7,145.8,3270.7,145.8,3270.7z"/>
	<path class="st2" d="M145.8,3270.7c0,0.4-0.3,0.7-0.7,0.7h-27.8c-0.4,0-0.7-0.3-0.7-0.7c0-0.4,0.3-0.7,0.7-0.7h27.8
		C145.5,3270,145.8,3270.3,145.8,3270.7C145.8,3270.7,145.8,3270.7,145.8,3270.7z"/>
	<path class="st3" d="M145.8,3285.5c0,0.4-0.3,0.7-0.7,0.7h-27.8c-0.4,0-0.7-0.3-0.7-0.7c0-0.4,0.3-0.7,0.7-0.7h27.8
		C145.5,3284.8,145.8,3285.1,145.8,3285.5C145.8,3285.5,145.8,3285.5,145.8,3285.5z"/>
	<path class="st2" d="M145.8,3285.5c0,0.4-0.3,0.7-0.7,0.7h-27.8c-0.4,0-0.7-0.3-0.7-0.7c0-0.4,0.3-0.7,0.7-0.7h27.8
		C145.5,3284.8,145.8,3285.1,145.8,3285.5C145.8,3285.5,145.8,3285.5,145.8,3285.5z"/>
	<path class="st3" d="M157.5,3242.1v4.5h-9.2c-8.5,0.1-15.4,7-15.4,15.5v3h-4.5v-3c0-11,8.9-20,20-20.1L157.5,3242.1z"/>
	<path class="st2" d="M157.5,3242.1v4.5h-9.2c-8.5,0.1-15.4,7-15.4,15.5v3h-4.5v-3c0-11,8.9-20,20-20.1L157.5,3242.1z"/>
	<rect x="157.5" y="3240.6" class="st7" width="32.4" height="67.9"/>
	<rect x="157.5" y="3240.6" class="st2" width="32.4" height="67.9"/>
	<path class="st3" d="M195.9,3242.4v59.2h-1.8v-12.9h-4.2v-1.2h4.2v-11.6h-4.2v-1.2h4.2V3263h-4.2v-1.2h4.2v-11.6h-4.2v-1.2h4.2
		v-6.7c0-2.4-1.9-4.4-4.3-4.4c-1.7,0-3.3,1-4,2.6h-1.9c1-3.2,4.4-5.1,7.6-4.1C194.2,3237.2,196,3239.6,195.9,3242.4z"/>
	<path class="st2" d="M195.9,3242.4v59.2h-1.8v-12.9h-4.2v-1.2h4.2v-11.6h-4.2v-1.2h4.2V3263h-4.2v-1.2h4.2v-11.6h-4.2v-1.2h4.2
		v-6.7c0-2.4-1.9-4.4-4.3-4.4c-1.7,0-3.3,1-4,2.6h-1.9c1-3.2,4.4-5.1,7.6-4.1C194.2,3237.2,196,3239.6,195.9,3242.4z"/>
	<path class="st3" d="M114.8,3309.5h-4.4c-0.1-8.2-6.7-14.8-14.9-14.8h-2.9v-4.4h2.9C106.1,3290.3,114.7,3298.9,114.8,3309.5z"/>
	<path class="st2" d="M114.8,3309.5h-4.4c-0.1-8.2-6.7-14.8-14.9-14.8h-2.9v-4.4h2.9C106.1,3290.3,114.7,3298.9,114.8,3309.5z"/>
	<rect x="115.5" y="3305" class="st3" width="30.3" height="4.5"/>
	<rect x="115.5" y="3305" class="st2" width="30.3" height="4.5"/>
	<rect x="155.9" y="3305" class="st3" width="35.6" height="4.5"/>
	<rect x="155.9" y="3305" class="st2" width="35.6" height="4.5"/>
	<path class="st3" d="M155.9,3309.5H88.6l0,0L155.9,3309.5L155.9,3309.5z"/>
	<path class="st2" d="M155.9,3309.5H88.6l0,0L155.9,3309.5L155.9,3309.5z"/>
	<path class="st7" d="M110.4,3309.5H94.8v-6.2l7.2-7.2C107.1,3298.6,110.4,3303.8,110.4,3309.5z M115.5,3309.5h-0.7
		c0-6.8-3.7-13.1-9.6-16.6l1.7-1.7h2.3v-2.3l7.3-7.3l0.9,3.3h-0.2c-0.2,0-0.5,0.1-0.6,0.3h-0.5v6h3l0.6,2.2h1.2v0.9h-4.8v6h4.8v4.6
		h-5.5L115.5,3309.5z M155.9,3309.5h-10.1v-4.5h-4.7v-11.6h1.4l2-7.1h0.6c0.4,0,0.7-0.3,0.7-0.7c0-0.4-0.3-0.7-0.7-0.7h-0.2l0.8-2.8
		h2.5v-6h-1.9l-1.6-4.5h0.4c0.4,0,0.7-0.3,0.7-0.7c0-0.4-0.3-0.7-0.7-0.7h-0.9l-1.7-4.8h-9.6v0l10.8-10.8h4.5v-4.5l3.3-3.3h6.1v-4.5
		h-1.6l1.6-1.6v7.8h-2.4v6h2.4v3.2h-2.4v6h2.4v3.2h-2.4v6h2.4v32.2h-1.6L155.9,3309.5z"/>
	<path class="st2" d="M110.4,3309.5H94.8v-6.2l7.2-7.2C107.1,3298.6,110.4,3303.8,110.4,3309.5z M115.5,3309.5h-0.7
		c0-6.8-3.7-13.1-9.6-16.6l1.7-1.7h2.3v-2.3l7.3-7.3l0.9,3.3h-0.2c-0.2,0-0.5,0.1-0.6,0.3h-0.5v6h3l0.6,2.2h1.2v0.9h-4.8v6h4.8v4.6
		h-5.5L115.5,3309.5z M155.9,3309.5h-10.1v-4.5h-4.7v-11.6h1.4l2-7.1h0.6c0.4,0,0.7-0.3,0.7-0.7c0-0.4-0.3-0.7-0.7-0.7h-0.2l0.8-2.8
		h2.5v-6h-1.9l-1.6-4.5h0.4c0.4,0,0.7-0.3,0.7-0.7c0-0.4-0.3-0.7-0.7-0.7h-0.9l-1.7-4.8h-9.6v0l10.8-10.8h4.5v-4.5l3.3-3.3h6.1v-4.5
		h-1.6l1.6-1.6v7.8h-2.4v6h2.4v3.2h-2.4v6h2.4v3.2h-2.4v6h2.4v32.2h-1.6L155.9,3309.5z"/>
	<path class="st3" d="M109.2,3291.2h-2.3l2.3-2.3L109.2,3291.2z"/>
	<path class="st2" d="M109.2,3291.2h-2.3l2.3-2.3L109.2,3291.2z"/>
	<path class="st8" d="M119.2,3291.2h-3v-6h0.5c-0.1,0.1-0.1,0.3-0.1,0.4c0,0.4,0.3,0.7,0.7,0.7h0.6L119.2,3291.2z"/>
	<path class="st2" d="M119.2,3291.2h-3v-6h0.5c-0.1,0.1-0.1,0.3-0.1,0.4c0,0.4,0.3,0.7,0.7,0.7h0.6L119.2,3291.2z"/>
	<rect x="116.1" y="3294.3" class="st8" width="4.8" height="6"/>
	<rect x="116.1" y="3294.3" class="st2" width="4.8" height="6"/>
	<path class="st8" d="M148.1,3254.4h-4.5l4.5-4.5L148.1,3254.4z"/>
	<path class="st2" d="M148.1,3254.4h-4.5l4.5-4.5L148.1,3254.4z"/>
	<path class="st3" d="M148.1,3282h-2.5l1.2-4.3l-0.6-1.7h1.9V3282z"/>
	<path class="st14" d="M148.1,3282h-2.5l1.2-4.3l-0.6-1.7h1.9V3282z"/>
	<rect x="155.1" y="3257.5" class="st8" width="2.4" height="6"/>
	<rect x="155.1" y="3257.5" class="st2" width="2.4" height="6"/>
	<rect x="155.1" y="3266.7" class="st8" width="2.4" height="6"/>
	<rect x="155.1" y="3266.7" class="st2" width="2.4" height="6"/>
	<rect x="155.1" y="3248.3" class="st8" width="2.4" height="6"/>
	<rect x="155.1" y="3248.3" class="st2" width="2.4" height="6"/>
	<path class="st3" d="M139.4,3305h-16.8v-11.6h4.6v3.1h2v3.9h6v-6h-1.1v-0.9h5.4L139.4,3305z"/>
	<path class="st2" d="M139.4,3305h-16.8v-11.6h4.6v3.1h2v3.9h6v-6h-1.1v-0.9h5.4L139.4,3305z"/>
	<path class="st3" d="M135.2,3300.4h-6v-3.9h4.9v-2.1h1.1V3300.4z"/>
	<path class="st2" d="M135.2,3300.4h-6v-3.9h4.9v-2.1h1.1V3300.4z"/>
	<path class="st3" d="M94.8,3309.5h-6.2l6.2-6.2V3309.5z"/>
	<path class="st2" d="M94.8,3309.5h-6.2l6.2-6.2V3309.5z"/>
	<path class="st3" d="M144.1,3270h-16.1l4.8-4.8h9.6L144.1,3270z M121,3284.8h-3.5l-0.9-3.3l4.4-4.4V3284.8z M139.4,3284.8h-16.8
		v-9.4l4-4h12.8L139.4,3284.8z M144.9,3284.8h-3.8v-13.3h3.6l1.6,4.5l0.6,1.7l-1.2,4.3L144.9,3284.8z M121,3293.4h-1.2l-0.6-2.2
		l-1.3-4.9h3.1L121,3293.4z M139.4,3293.4h-5.4v-1.1h-6.9v1.1h-4.6v-7.1h16.8L139.4,3293.4z M142.5,3293.4h-1.4v-7.1h3.4
		L142.5,3293.4z"/>
	<path class="st2" d="M144.1,3270h-16.1l4.8-4.8h9.6L144.1,3270z M121,3284.8h-3.5l-0.9-3.3l4.4-4.4V3284.8z M139.4,3284.8h-16.8
		v-9.4l4-4h12.8L139.4,3284.8z M144.9,3284.8h-3.8v-13.3h3.6l1.6,4.5l0.6,1.7l-1.2,4.3L144.9,3284.8z M121,3293.4h-1.2l-0.6-2.2
		l-1.3-4.9h3.1L121,3293.4z M139.4,3293.4h-5.4v-1.1h-6.9v1.1h-4.6v-7.1h16.8L139.4,3293.4z M142.5,3293.4h-1.4v-7.1h3.4
		L142.5,3293.4z"/>
	<rect x="127.2" y="3292.2" class="st3" width="6.9" height="4.2"/>
	<rect x="127.2" y="3292.2" class="st2" width="6.9" height="4.2"/>
	<path class="st3" d="M122.6,3284.8H121v-7.7l1.6-1.6V3284.8z M122.6,3305H121v-18.7h1.6V3305z"/>
	<path class="st2" d="M122.6,3284.8H121v-7.7l1.6-1.6V3284.8z M122.6,3305H121v-18.7h1.6V3305z"/>
	<path class="st3" d="M141.1,3284.8h-1.6v-13.3h1.6L141.1,3284.8z M141.1,3305h-1.6v-18.7h1.6L141.1,3305z"/>
	<path class="st2" d="M141.1,3284.8h-1.6v-13.3h1.6L141.1,3284.8z M141.1,3305h-1.6v-18.7h1.6L141.1,3305z"/>
	<path class="st3" d="M145.1,3271.5h-18.4l1.4-1.4h17c0.4,0,0.7,0.3,0.7,0.7C145.8,3271.1,145.5,3271.5,145.1,3271.5z"/>
	<path class="st2" d="M145.1,3271.5h-18.4l1.4-1.4h17c0.4,0,0.7,0.3,0.7,0.7C145.8,3271.1,145.5,3271.5,145.1,3271.5z"/>
	<path class="st3" d="M145.1,3286.3h-27.8c-0.4,0-0.7-0.3-0.7-0.7c0-0.1,0-0.3,0.1-0.4c0.1-0.2,0.4-0.3,0.6-0.3h27.8
		c0.4,0,0.7,0.3,0.7,0.7C145.8,3285.9,145.5,3286.3,145.1,3286.3L145.1,3286.3z"/>
	<path class="st2" d="M145.1,3286.3h-27.8c-0.4,0-0.7-0.3-0.7-0.7c0-0.1,0-0.3,0.1-0.4c0.1-0.2,0.4-0.3,0.6-0.3h27.8
		c0.4,0,0.7,0.3,0.7,0.7C145.8,3285.9,145.5,3286.3,145.1,3286.3L145.1,3286.3z"/>
	<path class="st3" d="M157.5,3246.7h-6.1l4.5-4.5h1.5V3246.7z M132.9,3265.2L132.9,3265.2L132.9,3265.2L132.9,3265.2z"/>
	<path class="st2" d="M157.5,3246.7h-6.1l4.5-4.5h1.5V3246.7z M132.9,3265.2L132.9,3265.2L132.9,3265.2L132.9,3265.2z"/>
	<path class="st3" d="M157.5,3305L157.5,3305z"/>
	<path class="st2" d="M157.5,3305L157.5,3305z"/>
	<path class="st3" d="M114.8,3309.5h-4.4c0-5.7-3.3-10.9-8.5-13.4l3.2-3.2C111.1,3296.4,114.7,3302.7,114.8,3309.5z"/>
	<path class="st2" d="M114.8,3309.5h-4.4c0-5.7-3.3-10.9-8.5-13.4l3.2-3.2C111.1,3296.4,114.7,3302.7,114.8,3309.5z"/>
	<rect x="115.5" y="3305" class="st3" width="30.3" height="4.5"/>
	<rect x="115.5" y="3305" class="st2" width="30.3" height="4.5"/>
	<path class="st3" d="M155.9,3309.5v-4.5l0,0V3309.5z"/>
	<path class="st2" d="M155.9,3309.5v-4.5l0,0V3309.5z"/>
	<path class="st3" d="M50.7,3270.2l-13.3-5.8l0,0L50.7,3270.2z"/>
	<path class="st2" d="M50.7,3270.2l-13.3-5.8l0,0L50.7,3270.2z"/>
	<path class="st7" d="M38.5,3272.4v8.6h8.4v-8.6H38.5z M19.7,3282v8.6H28v-8.6H19.7z M29.1,3282v8.6h8.4v-8.6H29.1z M38.5,3282v8.6
		h8.4v-8.6H38.5z M50.7,3309.5H34.5v-14H22.9v14H6.7v-14.6l4.4-4.4h7.5v-7.5l2.1-2.1H28v-7.4l1.1-1v8.4h8.4v-8.6h-8.2l8.1-8l0.2,0.1
		l13.3,5.8L50.7,3309.5"/>
	<path class="st2" d="M38.5,3272.4v8.6h8.4v-8.6H38.5z M19.7,3282v8.6H28v-8.6H19.7z M29.1,3282v8.6h8.4v-8.6H29.1z M38.5,3282v8.6
		h8.4v-8.6H38.5z M50.7,3309.5H34.5v-14H22.9v14H6.7v-14.6l4.4-4.4h7.5v-7.5l2.1-2.1H28v-7.4l1.1-1v8.4h8.4v-8.6h-8.2l8.1-8l0.2,0.1
		l13.3,5.8L50.7,3309.5"/>
	<rect x="38.5" y="3272.4" class="st8" width="8.4" height="8.6"/>
	<rect x="38.5" y="3272.4" class="st2" width="8.4" height="8.6"/>
	<rect x="38.5" y="3282" class="st8" width="8.4" height="8.6"/>
	<rect x="38.5" y="3282" class="st2" width="8.4" height="8.6"/>
	<path class="st8" d="M78.5,3309.5h-3.3v-10.7H67v-3.3h11.6V3309.5z"/>
	<path class="st2" d="M78.5,3309.5h-3.3v-10.7H67v-3.3h11.6V3309.5z"/>
	<path class="st1" d="M27.7,3174.2c-1.3,0-2.3-1.1-2.2-2.3c0-1,0.7-1.9,1.7-2.2c-1.7-2.7-0.5-7.2,3.7-7.2c0.7,0,1.3,0.1,2,0.4
		c0-3.5,2.9-6.4,6.4-6.4c0.1,0,0.1,0,0.2,0c1.2,0,2.3,0.3,3.4,0.8c1-3.2,3.8-5.6,7.2-5.9c0.3-2.1,2.2-3.6,4.3-3.5
		c4,0,5.2,4.1,3.9,6.8c0.3,0.4,0.5,0.8,0.7,1.2c1-0.6,2.2-0.9,3.4-0.8c8.8,0,8.8,13.7,0,13.7c-1.7,0.1-3.4-0.6-4.7-1.8
		c-1.7,1.8-4,2.8-6.5,2.7c-2.3,0.1-4.5-0.8-6.2-2.4c-1.2,1.9-3.3,3-5.5,2.9c-1.6,0-3.2-0.5-4.4-1.6c-0.5,1.8-2.3,3.1-4.2,3
		c-0.3,0-0.6,0-1-0.1c0.3,1.2-0.5,2.4-1.7,2.6C28,3174.1,27.8,3174.2,27.7,3174.2z"/>
	<path class="st2" d="M27.7,3174.2c-1.3,0-2.3-1.1-2.2-2.3c0-1,0.7-1.9,1.7-2.2c-1.7-2.7-0.5-7.2,3.7-7.2c0.7,0,1.3,0.1,2,0.4
		c0-3.5,2.9-6.4,6.4-6.4c0.1,0,0.1,0,0.2,0c1.2,0,2.3,0.3,3.4,0.8c1-3.2,3.8-5.6,7.2-5.9c0.3-2.1,2.2-3.6,4.3-3.5
		c4,0,5.2,4.1,3.9,6.8c0.3,0.4,0.5,0.8,0.7,1.2c1-0.6,2.2-0.9,3.4-0.8c8.8,0,8.8,13.7,0,13.7c-1.7,0.1-3.4-0.6-4.7-1.8
		c-1.7,1.8-4,2.8-6.5,2.7c-2.3,0.1-4.5-0.8-6.2-2.4c-1.2,1.9-3.3,3-5.5,2.9c-1.6,0-3.2-0.5-4.4-1.6c-0.5,1.8-2.3,3.1-4.2,3
		c-0.3,0-0.6,0-1-0.1c0.3,1.2-0.5,2.4-1.7,2.6C28,3174.1,27.8,3174.2,27.7,3174.2z"/>
	<path class="st1" d="M104.7,3177.3c-3.3,0.1-6.4-1.7-7.9-4.8c-0.8,0.1-1.6,0.2-2.4,0.2c-3.5,0.1-6.8-1.2-9.3-3.6
		c-1.3,0.7-2.9,1.1-4.4,1.1c-0.7,0-1.4-0.1-2.1-0.2c0.1,2.4-1.7,4.4-4.1,4.5c-0.1,0-0.2,0-0.3,0c-5.4,0-5.8-7.7-1.2-9
		c-2.7-5.4-0.1-13.6,7.8-13.6c0.7,0,1.4,0.1,2.1,0.2c2.2-4.3,6.7-7,11.6-6.8c0.7,0,1.3,0,2,0.1c0.3-2.1,2.2-3.6,4.3-3.6
		c2.4,0,4.4,1.9,4.5,4.4c0,0.4,0,0.8-0.2,1.2c1.2,0.6,1.7,2,1.1,3.2c-0.1,0.3-0.3,0.5-0.5,0.7c0.4,0.7,0.8,1.5,1.1,2.3
		c2.1-2.2,5-3.3,8-3.2c4.5-0.2,8.6,2.5,10.2,6.8c1.2-0.5,2.5-0.8,3.8-0.8c11.8,0,11.8,18.3,0,18.3c-2.9,0.1-5.6-1.2-7.2-3.6
		c-2,1.5-4.3,2.2-6.8,2.2c-0.8,0-1.6-0.1-2.4-0.2C110.7,3175.8,107.8,3177.4,104.7,3177.3z"/>
	<path class="st2" d="M104.7,3177.3c-3.3,0.1-6.4-1.7-7.9-4.8c-0.8,0.1-1.6,0.2-2.4,0.2c-3.5,0.1-6.8-1.2-9.3-3.6
		c-1.3,0.7-2.9,1.1-4.4,1.1c-0.7,0-1.4-0.1-2.1-0.2c0.1,2.4-1.7,4.4-4.1,4.5c-0.1,0-0.2,0-0.3,0c-5.4,0-5.8-7.7-1.2-9
		c-2.7-5.4-0.1-13.6,7.8-13.6c0.7,0,1.4,0.1,2.1,0.2c2.2-4.3,6.7-7,11.6-6.8c0.7,0,1.3,0,2,0.1c0.3-2.1,2.2-3.6,4.3-3.6
		c2.4,0,4.4,1.9,4.5,4.4c0,0.4,0,0.8-0.2,1.2c1.2,0.6,1.7,2,1.1,3.2c-0.1,0.3-0.3,0.5-0.5,0.7c0.4,0.7,0.8,1.5,1.1,2.3
		c2.1-2.2,5-3.3,8-3.2c4.5-0.2,8.6,2.5,10.2,6.8c1.2-0.5,2.5-0.8,3.8-0.8c11.8,0,11.8,18.3,0,18.3c-2.9,0.1-5.6-1.2-7.2-3.6
		c-2,1.5-4.3,2.2-6.8,2.2c-0.8,0-1.6-0.1-2.4-0.2C110.7,3175.8,107.8,3177.4,104.7,3177.3z"/>
	<path class="st1" d="M141.2,3161.9c-5.9,0-5.9-9.1,0-9.1S147.1,3161.9,141.2,3161.9z"/>
	<path class="st2" d="M141.2,3161.9c-5.9,0-5.9-9.1,0-9.1S147.1,3161.9,141.2,3161.9z"/>
	<path class="st1" d="M153.5,3172.5c-8.8,0-8.8-13.7,0-13.7c0.4,0,0.7,0,1.1,0.1c0.2-2.2,2.1-3.9,4.4-3.8c5.5,0,5.9,8,1,9
		C160.7,3167.9,158.5,3172.5,153.5,3172.5z"/>
	<path class="st2" d="M153.5,3172.5c-8.8,0-8.8-13.7,0-13.7c0.4,0,0.7,0,1.1,0.1c0.2-2.2,2.1-3.9,4.4-3.8c5.5,0,5.9,8,1,9
		C160.7,3167.9,158.5,3172.5,153.5,3172.5z"/>
	<path class="st1" d="M168.9,3164.2c-1.3,0-2.3-1.1-2.2-2.3c0-1.2,1-2.2,2.2-2.2c1.3,0,2.3,1.1,2.2,2.3
		C171.1,3163.2,170.1,3164.1,168.9,3164.2z"/>
	<path class="st2" d="M168.9,3164.2c-1.3,0-2.3-1.1-2.2-2.3c0-1.2,1-2.2,2.2-2.2c1.3,0,2.3,1.1,2.2,2.3
		C171.1,3163.2,170.1,3164.1,168.9,3164.2z"/>
	<g>
		<path class="st5" d="M979.4,3193.5c0,0-4.4-3.9-12.1-9.6l1.5-2.1c7.8,5.8,12.2,9.7,12.3,9.8L979.4,3193.5z M954.7,3175
			c-4.2-2.8-8.6-5.6-13.1-8.3l1.3-2.2c4.4,2.7,8.9,5.5,13.2,8.3L954.7,3175z M928.2,3159.1c-4.5-2.4-9.2-4.8-13.8-7l1.1-2.3
			c4.6,2.2,9.3,4.6,13.9,7.1L928.2,3159.1z M900.4,3145.7c-4.8-2-9.6-3.9-14.4-5.6l0.9-2.4c4.8,1.7,9.7,3.6,14.5,5.6L900.4,3145.7z
			 M704.1,3142.6l-0.1-2.6c5.1-0.1,10.2-0.6,15.2-1.4l0.4,2.5C714.5,3142,709.3,3142.4,704.1,3142.6z M688.5,3141.8
			c-5.2-0.7-10.3-1.7-15.4-3l0.7-2.5c4.9,1.3,9.9,2.3,15,3L688.5,3141.8z M734.9,3137.6l-0.7-2.5c1.7-0.5,3.3-1,5-1.6
			c3.2-1.1,6.5-2.1,9.8-3l0.7,2.5c-3.2,0.9-6.5,1.9-9.7,3C738.3,3136.5,736.6,3137.1,734.9,3137.6L734.9,3137.6z M871.3,3135.4
			c-5-1.5-10-2.8-14.9-3.9l0.6-2.5c5,1.2,10.1,2.5,15.1,4L871.3,3135.4z M658.3,3133.8c-4.5-1.8-9.2-3.8-14.3-6.3l1.1-2.3
			c5,2.4,9.6,4.4,14.1,6.2L658.3,3133.8z M764.7,3129.4l-0.5-2.5c5.1-1,10.2-1.9,15.4-2.5l0.3,2.6
			C774.8,3127.6,769.7,3128.4,764.7,3129.4L764.7,3129.4z M841.3,3128.4c-5.1-0.8-10.2-1.5-15.3-2l0.2-2.6c5.1,0.5,10.3,1.2,15.5,2
			L841.3,3128.4z M387.3,3126l-1.4-2.2c4.4-2.9,8.9-5.6,13.2-8.2l1.3,2.2C396.1,3120.4,391.7,3123.1,387.3,3126L387.3,3126z
			 M795.2,3125.6l-0.1-2.6c5.1-0.2,10.4-0.3,15.6-0.2l-0.1,2.6C805.5,3125.4,800.3,3125.4,795.2,3125.6L795.2,3125.6z M630.2,3120.4
			c-4.4-2.4-8.7-4.8-13.5-7.5l1.3-2.2c4.8,2.7,9.1,5.2,13.5,7.5L630.2,3120.4z M413.8,3110.1l-1.2-2.3c4.6-2.6,9.3-5,13.8-7.2
			l1.1,2.3C423,3105.1,418.4,3107.5,413.8,3110.1z M603.1,3105.3c-5.1-2.8-9.5-5.1-13.7-7.2l1.2-2.3c4.2,2.1,8.7,4.5,13.8,7.2
			L603.1,3105.3z M441.4,3096.4l-1-2.4c4.9-2.1,9.7-4.1,14.5-5.8l0.9,2.4C451.1,3092.3,446.3,3094.3,441.4,3096.4L441.4,3096.4z
			 M575.5,3091.7c-5-2.1-9.7-3.9-14.4-5.4l0.8-2.5c4.8,1.6,9.6,3.4,14.6,5.5L575.5,3091.7z M470.4,3085.8l-0.7-2.5
			c5.1-1.5,10.2-2.7,15.1-3.7l0.5,2.5C480.4,3083.2,475.4,3084.4,470.4,3085.8L470.4,3085.8z M546.3,3082.2c-5-1.1-10-1.9-15.1-2.5
			l0.3-2.6c5.2,0.6,10.3,1.4,15.4,2.5L546.3,3082.2z M500.5,3079.8l-0.3-2.6c5.2-0.6,10.4-0.8,15.6-0.9v2.6
			C510.7,3079,505.6,3079.3,500.5,3079.8L500.5,3079.8z"/>
		<g>
			<path class="st16" d="M330.8,3168.9l57.2-32l-19.7-1.3L330.8,3168.9z"/>
			<path class="st17" d="M330.8,3168.9l17.6-28.3l14.8-0.4L330.8,3168.9z"/>
			<path class="st18" d="M374.8,3144.3l1.1,7.2l-45.2,17.4L374.8,3144.3z"/>
		</g>
	</g>
</g>
</svg>
