<svg xmlns="http://www.w3.org/2000/svg" width="875.05" height="362.871" viewBox="0 0 875.05 362.871"><defs><style>.a,.d{fill:#e5e5e5;}.ag,.ah,.b{fill:none;}.b,.d,.f,.k,.l{stroke:#647882;}.ag,.ah,.b,.d,.f,.j,.k,.l{stroke-miterlimit:2.613;stroke-width:0.216px;}.c{fill:#839ca9;}.e{fill:#fff;}.f,.g{fill:#f0f0f0;}.h,.l{fill:#edf7fc;}.i{fill:#fffcfc;}.j,.k{fill:#e0e0e0;}.j{stroke:#829199;}.m{fill:#fafcfd;}.n{fill:#d5d5d5;}.o{fill:#e7e7e7;}.p{fill:#c1c1c1;}.q{fill:#3d374f;}.r{fill:#5b5978;}.s{fill:#ee4635;}.t{fill:#3a354b;}.u{fill:#cdccda;}.v{fill:#b3b4c1;}.w{fill:#1e182a;}.x{fill:#120b19;}.y{fill:#dddbdc;}.z{fill:#cac9cb;}.aa{fill:#868b99;}.ab{fill:#acadbf;}.ac{fill:#43525a;}.ad{fill:#49465e;}.ae{fill:#647882;}.af{fill:#16111e;}.ag{stroke:#43525a;}.ah{stroke:#839ca9;}.ai{fill:#332e42;}.aj{fill:#58595b;fill-rule:evenodd;}</style></defs><g transform="translate(-5.522 -2873)"><path class="a" d="M308.335,2958.908a3.175,3.175,0,0,1-3.14-3.842,7.4,7.4,0,0,1-1.389.14,6,6,0,0,1-6.008-4.317,9.273,9.273,0,0,1-6.338,2.259,8.976,8.976,0,0,1-7.988-4.233,13.2,13.2,0,0,1-18.2-.459,9.173,9.173,0,0,1-6.732,2.633c-12.738,0-12.738-19.75,0-19.75a9.728,9.728,0,0,1,4.872,1.214,12.588,12.588,0,0,1,1.05-1.672c-1.958-3.9-.1-9.827,5.6-9.827a6.052,6.052,0,0,1,6.193,5.062,11.9,11.9,0,0,1,10.354,8.479,9.734,9.734,0,0,1,4.846-1.2c6.09,0,9.259,4.514,9.528,9.225a6.678,6.678,0,0,1,2.818-.586c5.972,0,7.726,6.506,5.292,10.369C312.561,2953.15,312.3,2958.908,308.335,2958.908Z" transform="translate(341.29 67.391)"/><path class="b" d="M308.335,2958.908a3.175,3.175,0,0,1-3.14-3.842,7.4,7.4,0,0,1-1.389.14,6,6,0,0,1-6.008-4.317,9.273,9.273,0,0,1-6.338,2.259,8.976,8.976,0,0,1-7.988-4.233,13.2,13.2,0,0,1-18.2-.459,9.173,9.173,0,0,1-6.732,2.633c-12.738,0-12.738-19.75,0-19.75a9.728,9.728,0,0,1,4.872,1.214,12.588,12.588,0,0,1,1.05-1.672c-1.958-3.9-.1-9.827,5.6-9.827a6.052,6.052,0,0,1,6.193,5.062,11.9,11.9,0,0,1,10.354,8.479,9.734,9.734,0,0,1,4.846-1.2c6.09,0,9.259,4.514,9.528,9.225a6.678,6.678,0,0,1,2.818-.586c5.972,0,7.726,6.506,5.292,10.369C312.561,2953.15,312.3,2958.908,308.335,2958.908Z" transform="translate(341.29 67.391)"/><path class="a" d="M254.167,2969.335a11.979,11.979,0,0,1-10.953-6.115,18.016,18.016,0,0,1-3.45.355,15.69,15.69,0,0,1-9.8-3.123,12.01,12.01,0,0,1-10.362,5.18c-16.983,0-16.983-26.335,0-26.335a13.421,13.421,0,0,1,5.5,1.1c2.138-5.466,7.013-9.744,14.659-9.744a15.244,15.244,0,0,1,11.476,4.654,19.688,19.688,0,0,1,1.629-3.376c-1.648-1.488-1.362-4.687.867-5.569-.747-3.7,1.3-8.056,6.191-8.056a6.058,6.058,0,0,1,6.208,5.125,22.443,22.443,0,0,1,2.844-.188c8.255,0,13.821,4.161,16.721,9.771a14.6,14.6,0,0,1,3.029-.308c11.363,0,15.109,11.789,11.267,19.587,6.619,1.742,6.025,12.92-1.8,12.92-4.214,0-6.325-3.233-6.364-6.5a14.6,14.6,0,0,1-3.1.327,13.018,13.018,0,0,1-6.323-1.526,18.375,18.375,0,0,1-13.427,5.228,22.084,22.084,0,0,1-3.481-.3A11.946,11.946,0,0,1,254.167,2969.335Z" transform="translate(282.214 63.548)"/><path class="b" d="M254.167,2969.335a11.979,11.979,0,0,1-10.953-6.115,18.016,18.016,0,0,1-3.45.355,15.69,15.69,0,0,1-9.8-3.123,12.01,12.01,0,0,1-10.362,5.18c-16.983,0-16.983-26.335,0-26.335a13.421,13.421,0,0,1,5.5,1.1c2.138-5.466,7.013-9.744,14.659-9.744a15.244,15.244,0,0,1,11.476,4.654,19.688,19.688,0,0,1,1.629-3.376c-1.648-1.488-1.362-4.687.867-5.569-.747-3.7,1.3-8.056,6.191-8.056a6.058,6.058,0,0,1,6.208,5.125,22.443,22.443,0,0,1,2.844-.188c8.255,0,13.821,4.161,16.721,9.771a14.6,14.6,0,0,1,3.029-.308c11.363,0,15.109,11.789,11.267,19.587,6.619,1.742,6.025,12.92-1.8,12.92-4.214,0-6.325-3.233-6.364-6.5a14.6,14.6,0,0,1-3.1.327,13.018,13.018,0,0,1-6.323-1.526,18.375,18.375,0,0,1-13.427,5.228,22.084,22.084,0,0,1-3.481-.3A11.946,11.946,0,0,1,254.167,2969.335Z" transform="translate(282.214 63.548)"/><path class="a" d="M208.172,2936.615c-8.492,0-8.492-13.163,0-13.163S216.665,2936.615,208.172,2936.615Z" transform="translate(275.112 70.754)"/><path class="b" d="M208.172,2936.615c-8.492,0-8.492-13.163,0-13.163S216.665,2936.615,208.172,2936.615Z" transform="translate(275.112 70.754)"/><path class="c" d="M207.063,2951.29c-7.325,0-10.429-6.532-9.326-12.081-6.945-1.464-6.446-13.017,1.511-13.017a6.1,6.1,0,0,1,6.273,5.466,10.976,10.976,0,0,1,1.542-.118C219.8,2931.54,219.8,2951.29,207.063,2951.29Z" transform="translate(262.597 74.596)"/><path class="d" d="M207.063,2951.29c-7.325,0-10.429-6.532-9.326-12.081-6.945-1.464-6.446-13.017,1.511-13.017a6.1,6.1,0,0,1,6.273,5.466,10.976,10.976,0,0,1,1.542-.118C219.8,2931.54,219.8,2951.29,207.063,2951.29Z" transform="translate(262.597 74.596)"/><path class="e" d="M253.4,2973.437v10.544h10.542v-10.544Zm-66.964,16.124v10.544h10.539v-10.544Zm16.74,48.377v10.542h10.542v-10.542Zm-16.74,16.125v10.541h10.539v-10.541Zm65.336,51.454H179.127V2965.759H287.518v52.8H251.773v27.065l-4.492-1.567-.079-.029v-6.088H236.66v10.542h3.152a3.323,3.323,0,0,1-5.434,1.121,3.372,3.372,0,0,1-.968-2.354V3042.2h-2.126l-.738.262-.084.027v-4.546H219.92v8.217l-4.584,1.6-36.127,36.114v21.578h72.564Z" transform="translate(243.311 130.085)"/><path class="f" d="M253.4,2973.437v10.544h10.542v-10.544Zm-66.964,16.124v10.544h10.539v-10.544Zm16.74,48.377v10.542h10.542v-10.542Zm-16.74,16.125v10.541h10.539v-10.541Zm65.336,51.454H179.127V2965.759H287.518v52.8H251.773v27.065l-4.492-1.567-.079-.029v-6.088H236.66v10.542h3.152a3.323,3.323,0,0,1-5.434,1.121,3.372,3.372,0,0,1-.968-2.354V3042.2h-2.126l-.738.262-.084.027v-4.546H219.92v8.217l-4.584,1.6-36.127,36.114v21.578h72.564Z" transform="translate(243.311 130.085)"/><rect class="c" width="10.543" height="10.543" transform="translate(446.488 3103.522)"/><rect class="b" width="10.543" height="10.543" transform="translate(446.488 3103.522)"/><rect class="c" width="10.541" height="10.543" transform="translate(496.713 3103.522)"/><rect class="b" width="10.541" height="10.543" transform="translate(496.713 3103.522)"/><rect class="c" width="10.543" height="10.543" transform="translate(513.453 3103.522)"/><rect class="b" width="10.543" height="10.543" transform="translate(513.453 3103.522)"/><rect class="c" width="10.541" height="10.543" transform="translate(429.748 3119.647)"/><rect class="b" width="10.541" height="10.543" transform="translate(429.748 3119.647)"/><rect class="c" width="10.542" height="10.543" transform="translate(463.231 3119.647)"/><rect class="b" width="10.542" height="10.543" transform="translate(463.231 3119.647)"/><rect class="c" width="10.543" height="10.543" transform="translate(513.453 3119.647)"/><rect class="b" width="10.543" height="10.543" transform="translate(513.453 3119.647)"/><rect class="c" width="10.543" height="10.543" transform="translate(446.488 3135.773)"/><rect class="b" width="10.543" height="10.543" transform="translate(446.488 3135.773)"/><rect class="c" width="10.542" height="10.543" transform="translate(463.231 3135.773)"/><rect class="b" width="10.542" height="10.543" transform="translate(463.231 3135.773)"/><rect class="c" width="10.541" height="10.54" transform="translate(429.748 3151.901)"/><rect class="b" width="10.541" height="10.54" transform="translate(429.748 3151.901)"/><rect class="c" width="10.543" height="10.54" transform="translate(446.488 3151.901)"/><rect class="b" width="10.543" height="10.54" transform="translate(446.488 3151.901)"/><rect class="c" width="10.541" height="10.54" transform="translate(496.713 3151.901)"/><rect class="b" width="10.541" height="10.54" transform="translate(496.713 3151.901)"/><rect class="c" width="10.543" height="10.543" transform="translate(446.488 3168.023)"/><rect class="b" width="10.543" height="10.543" transform="translate(446.488 3168.023)"/><path class="c" d="M196.107,3004.021V2995.8h10.542v4.546l-10.468,3.645Z" transform="translate(267.124 172.22)"/><path class="b" d="M196.107,3004.021V2995.8h10.542v4.546l-10.468,3.645Z" transform="translate(267.124 172.22)"/><rect class="c" width="10.541" height="10.543" transform="translate(479.971 3168.023)"/><rect class="b" width="10.541" height="10.543" transform="translate(479.971 3168.023)"/><rect class="c" width="10.541" height="10.542" transform="translate(429.748 3184.148)"/><rect class="b" width="10.541" height="10.542" transform="translate(429.748 3184.148)"/><rect class="c" width="10.541" height="10.542" transform="translate(479.971 3184.148)"/><rect class="b" width="10.541" height="10.542" transform="translate(479.971 3184.148)"/><rect class="c" width="10.541" height="10.542" transform="translate(496.713 3184.148)"/><rect class="b" width="10.541" height="10.542" transform="translate(496.713 3184.148)"/><rect class="c" width="10.543" height="10.541" transform="translate(446.488 3200.273)"/><rect class="b" width="10.543" height="10.541" transform="translate(446.488 3200.273)"/><rect class="c" width="10.542" height="10.541" transform="translate(463.231 3200.273)"/><rect class="b" width="10.542" height="10.541" transform="translate(463.231 3200.273)"/><rect class="c" width="10.541" height="10.541" transform="translate(429.748 3216.401)"/><rect class="b" width="10.541" height="10.541" transform="translate(429.748 3216.401)"/><rect class="c" width="10.542" height="10.541" transform="translate(463.231 3216.401)"/><rect class="b" width="10.542" height="10.541" transform="translate(463.231 3216.401)"/><rect class="c" width="10.541" height="10.541" transform="translate(496.713 3216.401)"/><rect class="b" width="10.541" height="10.541" transform="translate(496.713 3216.401)"/><rect class="g" width="207.377" height="87.122" transform="translate(495.085 3148.641)"/><rect class="b" width="207.377" height="87.122" transform="translate(495.085 3148.641)"/><path class="c" d="M236.612,3009.444v10.542h10.542v-10.542Zm-33.482,16.122v10.542h10.542v-10.542Zm16.742,0v10.542h10.542v-10.542ZM186.39,3041.7v10.542h10.539V3041.7Zm33.482,0v10.542h10.542V3041.7Zm31.853,19.13H179.161v-21.578l36.127-36.113,4.584-1.6v2.325h10.542v-6l.084-.027.738-.262h2.126v5.052a3.373,3.373,0,0,0,.968,2.354,3.323,3.323,0,0,0,5.434-1.121h7.39v-4.454l.079.029,4.493,1.566Z" transform="translate(243.359 174.705)"/><path class="b" d="M236.612,3009.444v10.542h10.542v-10.542Zm-33.482,16.122v10.542h10.542v-10.542Zm16.742,0v10.542h10.542v-10.542ZM186.39,3041.7v10.542h10.539V3041.7Zm33.482,0v10.542h10.542V3041.7Zm31.853,19.13H179.161v-21.578l36.127-36.113,4.584-1.6v2.325h10.542v-6l.084-.027.738-.262h2.126v5.052a3.373,3.373,0,0,0,.968,2.354,3.323,3.323,0,0,0,5.434-1.121h7.39v-4.454l.079.029,4.493,1.566Z" transform="translate(243.359 174.705)"/><path class="c" d="M206.649,3003.693H196.107v-2.326l.074-.026,10.468-3.645Z" transform="translate(267.124 174.873)"/><path class="b" d="M206.649,3003.693H196.107v-2.326l.074-.026,10.468-3.645Z" transform="translate(267.124 174.873)"/><path class="c" d="M211.777,3003.861h-7.39l.031-.082a2.972,2.972,0,0,0,.211-1.151v-5.052h1.9l5.252,1.831Z" transform="translate(278.736 174.705)"/><path class="b" d="M211.777,3003.861h-7.39l.031-.082a2.972,2.972,0,0,0,.211-1.151v-5.052h1.9l5.252,1.831Z" transform="translate(278.736 174.705)"/><rect class="c" width="10.541" height="10.542" transform="translate(479.971 3184.148)"/><rect class="b" width="10.541" height="10.542" transform="translate(479.971 3184.148)"/><rect class="c" width="10.543" height="10.541" transform="translate(446.488 3200.273)"/><rect class="b" width="10.543" height="10.541" transform="translate(446.488 3200.273)"/><rect class="c" width="10.542" height="10.541" transform="translate(463.231 3200.273)"/><rect class="b" width="10.542" height="10.541" transform="translate(463.231 3200.273)"/><rect class="c" width="10.541" height="10.541" transform="translate(429.748 3216.401)"/><rect class="b" width="10.541" height="10.541" transform="translate(429.748 3216.401)"/><rect class="c" width="10.542" height="10.541" transform="translate(463.231 3216.401)"/><rect class="b" width="10.542" height="10.541" transform="translate(463.231 3216.401)"/><path class="c" d="M318.67,2998.9H318.6l.075-.072Zm-.082,62.077H209.45v-.149h-.084V3001l.084.028,6.059,2.1v3.511l3.5-3.511,15.95-5.559h2.008v5.052a3.325,3.325,0,1,0,6.65,0v-5.052h2.006l15.966,5.559v3.511l3.505-3.511,15.947-5.559h1.893v5.052a3.319,3.319,0,0,0,3.327,3.325,3.329,3.329,0,0,0,3.323-3.325v-5.052h2.124l15.966,5.559v6.689l10.912-10.914Z" transform="translate(285.718 174.705)"/><path class="b" d="M318.67,2998.9H318.6l.075-.072Zm-.082,62.077H209.45v-.149h-.084V3001l.084.028,6.059,2.1v3.511l3.5-3.511,15.95-5.559h2.008v5.052a3.325,3.325,0,1,0,6.65,0v-5.052h2.006l15.966,5.559v3.511l3.505-3.511,15.947-5.559h1.893v5.052a3.319,3.319,0,0,0,3.327,3.325,3.329,3.329,0,0,0,3.323-3.325v-5.052h2.124l15.966,5.559v6.689l10.912-10.914Z" transform="translate(285.718 174.705)"/><path class="g" d="M236.743,3003.169v57.673H194.164v-57.673l15.948-5.562h10.667Z" transform="translate(264.399 174.751)"/><path class="b" d="M236.743,3003.169v57.673H194.164v-57.673l15.948-5.562h10.667Z" transform="translate(264.399 174.751)"/><path class="g" d="M255.925,3003.169v57.673H213.346v-57.673l15.949-5.562h10.663Z" transform="translate(291.3 174.751)"/><path class="b" d="M255.925,3003.169v57.673H213.346v-57.673l15.949-5.562h10.663Z" transform="translate(291.3 174.751)"/><path class="g" d="M275.109,3003.169v57.673h-42.58v-57.673l15.948-5.562h10.665Z" transform="translate(318.202 174.751)"/><path class="b" d="M275.109,3003.169v57.673h-42.58v-57.673l15.948-5.562h10.665Z" transform="translate(318.202 174.751)"/><path class="c" d="M310.248,2992.27v6.19H201.686v-2.846a3.34,3.34,0,0,1,3.325-3.344Z" transform="translate(274.948 167.264)"/><path class="b" d="M310.248,2992.27v6.19H201.686v-2.846a3.34,3.34,0,0,1,3.325-3.344Z" transform="translate(274.948 167.264)"/><path class="c" d="M208.336,2995.615v9.479h-6.65v-9.479a3.34,3.34,0,0,1,3.325-3.344,3.294,3.294,0,0,1,2.354.989A3.337,3.337,0,0,1,208.336,2995.615Z" transform="translate(274.948 167.264)"/><path class="b" d="M208.336,2995.615v9.479h-6.65v-9.479a3.34,3.34,0,0,1,3.325-3.344,3.294,3.294,0,0,1,2.354.989A3.337,3.337,0,0,1,208.336,2995.615Z" transform="translate(274.948 167.264)"/><path class="c" d="M227.472,2995.615v9.479H220.82v-9.479a3.317,3.317,0,0,1,5.679-2.355A3.26,3.26,0,0,1,227.472,2995.615Z" transform="translate(301.781 167.264)"/><path class="b" d="M227.472,2995.615v9.479H220.82v-9.479a3.317,3.317,0,0,1,5.679-2.355A3.26,3.26,0,0,1,227.472,2995.615Z" transform="translate(301.781 167.264)"/><path class="c" d="M246.61,2995.615v9.479h-6.647v-9.479a3.324,3.324,0,1,1,6.647,0Z" transform="translate(328.627 167.264)"/><path class="b" d="M246.61,2995.615v9.479h-6.647v-9.479a3.324,3.324,0,1,1,6.647,0Z" transform="translate(328.627 167.264)"/><rect class="g" width="62.161" height="62.158" transform="translate(604.306 3173.604)"/><rect class="b" width="62.161" height="62.158" transform="translate(604.306 3173.604)"/><rect class="h" width="11.46" height="11.46" transform="translate(610.655 3179.353)"/><rect class="b" width="11.46" height="11.46" transform="translate(610.655 3179.353)"/><rect class="h" width="11.46" height="11.46" transform="translate(623.46 3179.353)"/><rect class="b" width="11.46" height="11.46" transform="translate(623.46 3179.353)"/><rect class="h" width="11.462" height="11.46" transform="translate(636.268 3179.353)"/><rect class="b" width="11.462" height="11.46" transform="translate(636.268 3179.353)"/><rect class="h" width="11.46" height="11.46" transform="translate(649.076 3179.353)"/><rect class="b" width="11.46" height="11.46" transform="translate(649.076 3179.353)"/><rect class="h" width="11.46" height="11.458" transform="translate(610.655 3192.273)"/><rect class="b" width="11.46" height="11.458" transform="translate(610.655 3192.273)"/><rect class="h" width="11.46" height="11.458" transform="translate(623.46 3192.273)"/><rect class="b" width="11.46" height="11.458" transform="translate(623.46 3192.273)"/><rect class="h" width="11.462" height="11.458" transform="translate(636.268 3192.273)"/><rect class="b" width="11.462" height="11.458" transform="translate(636.268 3192.273)"/><rect class="h" width="11.46" height="11.458" transform="translate(649.076 3192.273)"/><rect class="b" width="11.46" height="11.458" transform="translate(649.076 3192.273)"/><rect class="h" width="11.46" height="11.463" transform="translate(610.655 3205.188)"/><rect class="b" width="11.46" height="11.463" transform="translate(610.655 3205.188)"/><rect class="h" width="11.46" height="11.463" transform="translate(623.46 3205.188)"/><rect class="b" width="11.46" height="11.463" transform="translate(623.46 3205.188)"/><rect class="h" width="11.462" height="11.461" transform="translate(636.268 3205.19)"/><rect class="b" width="11.462" height="11.461" transform="translate(636.268 3205.19)"/><rect class="h" width="11.46" height="11.461" transform="translate(649.076 3205.19)"/><rect class="h" width="11.46" height="11.458" transform="translate(610.655 3218.111)"/><rect class="b" width="11.46" height="11.458" transform="translate(610.655 3218.111)"/><rect class="h" width="11.46" height="11.458" transform="translate(623.46 3218.111)"/><rect class="b" width="11.46" height="11.458" transform="translate(623.46 3218.111)"/><rect class="h" width="11.461" height="11.458" transform="translate(636.269 3218.111)"/><rect class="b" width="11.461" height="11.458" transform="translate(636.269 3218.111)"/><rect class="h" width="11.46" height="11.458" transform="translate(649.076 3218.111)"/><rect class="b" width="11.46" height="11.458" transform="translate(649.076 3218.111)"/><rect class="g" width="187.215" height="17.692" transform="translate(502.903 3130.948)"/><rect class="b" width="187.215" height="17.692" transform="translate(502.903 3130.948)"/><rect class="c" width="21.018" height="8.228" transform="translate(509.896 3135.885)"/><rect class="b" width="21.018" height="8.228" transform="translate(509.896 3135.885)"/><rect class="c" width="21.015" height="8.228" transform="translate(540.223 3135.885)"/><rect class="b" width="21.015" height="8.228" transform="translate(540.223 3135.885)"/><rect class="c" width="21.018" height="8.228" transform="translate(570.547 3135.885)"/><rect class="b" width="21.018" height="8.228" transform="translate(570.547 3135.885)"/><rect class="c" width="21.016" height="8.228" transform="translate(600.871 3135.885)"/><rect class="b" width="21.016" height="8.228" transform="translate(600.871 3135.885)"/><rect class="c" width="21.014" height="8.228" transform="translate(631.196 3135.885)"/><rect class="b" width="21.014" height="8.228" transform="translate(631.196 3135.885)"/><rect class="c" width="21.016" height="8.228" transform="translate(661.521 3135.885)"/><rect class="b" width="21.016" height="8.228" transform="translate(661.521 3135.885)"/><rect class="c" width="70.507" height="6.191" transform="translate(585.195 3159.535)"/><rect class="b" width="70.507" height="6.191" transform="translate(585.195 3159.535)"/><path class="c" d="M307.814,3019.552h-6.193a21.259,21.259,0,0,0-21.247-21.086h-4.151v-6.2h4.151A27.482,27.482,0,0,1,307.814,3019.552Z" transform="translate(379.478 167.264)"/><path class="b" d="M307.814,3019.552h-6.193a21.259,21.259,0,0,0-21.247-21.086h-4.151v-6.2h4.151A27.482,27.482,0,0,1,307.814,3019.552Z" transform="translate(379.478 167.264)"/><path class="c" d="M305.61,3032.492a11.213,11.213,0,0,1-22.426,0v-19.543a11.213,11.213,0,0,1,22.426,0Z" transform="translate(389.24 180.54)"/><path class="b" d="M305.61,3032.492a11.213,11.213,0,0,1-22.426,0v-19.543a11.213,11.213,0,0,1,22.426,0Z" transform="translate(389.24 180.54)"/><rect class="g" width="2.674" height="44.3" transform="translate(674.793 3191.402)"/><rect class="b" width="2.674" height="44.3" transform="translate(674.793 3191.402)"/><rect class="g" width="2.673" height="44.3" transform="translate(689.605 3191.402)"/><rect class="b" width="2.673" height="44.3" transform="translate(689.605 3191.402)"/><rect class="g" width="14.812" height="1.233" transform="translate(676.128 3191.402)"/><rect class="b" width="14.812" height="1.233" transform="translate(676.128 3191.402)"/><path class="g" d="M299.651,3006.666,285.515,3020.8l-.87-.874,14.135-14.139Z" transform="translate(391.289 186.226)"/><path class="b" d="M299.651,3006.666,285.515,3020.8l-.87-.874,14.135-14.139Z" transform="translate(391.289 186.226)"/><path class="g" d="M285.515,3005.79l14.136,14.139-.871.874-14.135-14.136Z" transform="translate(391.289 186.226)"/><path class="b" d="M285.515,3005.79l14.136,14.139-.871.874-14.135-14.136Z" transform="translate(391.289 186.226)"/><rect class="g" width="14.812" height="1.234" transform="translate(676.128 3205.46)"/><rect class="b" width="14.812" height="1.234" transform="translate(676.128 3205.46)"/><rect class="g" width="19.99" height="1.232" transform="translate(675.933 3220.213) rotate(-44.996)"/><rect class="b" width="19.99" height="1.232" transform="translate(675.933 3220.213) rotate(-44.996)"/><rect class="g" width="1.232" height="19.99" transform="matrix(0.707, -0.707, 0.707, 0.707, 675.933, 3206.95)"/><rect class="b" width="1.232" height="19.99" transform="matrix(0.707, -0.707, 0.707, 0.707, 675.933, 3206.95)"/><rect class="c" width="14.812" height="1.233" transform="translate(676.128 3219.519)"/><rect class="f" width="14.812" height="1.233" transform="translate(676.128 3219.519)"/><rect class="c" width="14.812" height="1.235" transform="translate(676.128 3234.527)"/><rect class="b" width="14.812" height="1.235" transform="translate(676.128 3234.527)"/><rect class="c" width="19.991" height="1.233" transform="matrix(0.707, -0.707, 0.707, 0.707, 675.933, 3234.272)"/><rect class="f" width="19.991" height="1.233" transform="matrix(0.707, -0.707, 0.707, 0.707, 675.933, 3234.272)"/><rect class="c" width="1.233" height="19.991" transform="matrix(0.707, -0.707, 0.707, 0.707, 675.932, 3221.009)"/><rect class="f" width="1.233" height="19.991" transform="matrix(0.707, -0.707, 0.707, 0.707, 675.932, 3221.009)"/><path class="i" d="M0,0H21.2V98.065H0Z" transform="translate(591.566 3032.882)"/><rect class="b" width="21.199" height="98.065" transform="translate(591.566 3032.882)"/><path class="c" d="M278.836,2987.954a1.375,1.375,0,0,0,0-2.749h-1.3v-34.561h1.3a1.367,1.367,0,0,0,0-2.734h-1.3v-7.274h-1.646v7.274H251.4v-7.274h-1.646v7.274h-1.514a1.367,1.367,0,1,0,0,2.734h1.514v34.561h-1.514a1.375,1.375,0,0,0,0,2.749h1.514v34.563h-1.514a1.375,1.375,0,0,0,0,2.749h1.514v10.83H251.4v-10.83h24.49v10.83h1.646v-10.83h1.3a1.375,1.375,0,0,0,0-2.749h-1.3v-34.562Zm-2.945,34.563H251.4v-34.562h24.49Zm0-37.312H251.4v-34.561h24.49Z" transform="translate(338.321 94.852)"/><path class="j" d="M278.836,2987.954a1.375,1.375,0,0,0,0-2.749h-1.3v-34.561h1.3a1.367,1.367,0,0,0,0-2.734h-1.3v-7.274h-1.646v7.274H251.4v-7.274h-1.646v7.274h-1.514a1.367,1.367,0,1,0,0,2.734h1.514v34.561h-1.514a1.375,1.375,0,0,0,0,2.749h1.514v34.563h-1.514a1.375,1.375,0,0,0,0,2.749h1.514v10.83H251.4v-10.83h24.49v10.83h1.646v-10.83h1.3a1.375,1.375,0,0,0,0-2.749h-1.3v-34.562Zm-2.945,34.563H251.4v-34.562h24.49Zm0-37.312H251.4v-34.561h24.49Z" transform="translate(338.321 94.852)"/><rect class="i" width="21.201" height="98.065" transform="translate(637.434 3032.882)"/><rect class="b" width="21.201" height="98.065" transform="translate(637.434 3032.882)"/><path class="c" d="M297.932,2987.954a1.375,1.375,0,0,0,0-2.749h-1.3v-34.561h1.3a1.367,1.367,0,1,0,0-2.734h-1.3v-7.274h-1.643v7.274H270.494v-7.274h-1.646v7.274h-1.516a1.367,1.367,0,0,0,0,2.734h1.516v34.561h-1.516a1.375,1.375,0,0,0,0,2.749h1.516v34.563h-1.516a1.375,1.375,0,0,0,0,2.749h1.516v10.83h1.646v-10.83h24.492v10.83h1.643v-10.83h1.3a1.375,1.375,0,0,0,0-2.749h-1.3v-34.562Zm-2.945,34.563H270.494v-34.562h24.492Zm0-37.312H270.494v-34.561h24.492Z" transform="translate(365.097 94.852)"/><path class="k" d="M297.932,2987.954a1.375,1.375,0,0,0,0-2.749h-1.3v-34.561h1.3a1.367,1.367,0,1,0,0-2.734h-1.3v-7.274h-1.643v7.274H270.494v-7.274h-1.646v7.274h-1.516a1.367,1.367,0,0,0,0,2.734h1.516v34.561h-1.516a1.375,1.375,0,0,0,0,2.749h1.516v34.563h-1.516a1.375,1.375,0,0,0,0,2.749h1.516v10.83h1.646v-10.83h24.492v10.83h1.643v-10.83h1.3a1.375,1.375,0,0,0,0-2.749h-1.3v-34.562Zm-2.945,34.563H270.494v-34.562h24.492Zm0-37.312H270.494v-34.561h24.492Z" transform="translate(365.097 94.852)"/><rect class="c" width="139.625" height="11.182" transform="translate(455.585 3186.816)"/><rect class="b" width="139.625" height="11.182" transform="translate(455.585 3186.816)"/><rect class="c" width="139.625" height="11.185" transform="translate(455.585 3215.756)"/><rect class="b" width="139.625" height="11.185" transform="translate(455.585 3215.756)"/><path class="c" d="M285,3012.069H273.528v-.219h11.309v-11.24H285Z" transform="translate(375.699 178.963)"/><path class="c" d="M285,3017.443H273.528v-.218h11.309V3005.99H285Z" transform="translate(375.699 186.507)"/><path class="c" d="M285,3022.823H273.543l-.015-.05v-.17h11.309v-11.236H285Z" transform="translate(375.699 194.048)"/><rect class="b" width="11.31" height="11.235" transform="translate(649.227 3205.416)"/><path class="c" d="M273.543,3016.166h-.015v-.05Z" transform="translate(375.699 200.706)"/><path class="c" d="M283.5,3028.2h-8.856l-.044-.219h8.74v-11.237h.16Z" transform="translate(377.199 201.588)"/><path class="c" d="M274.334,3011.634V3000.61h.162Z" transform="translate(373.396 178.963)"/><path class="h" d="M274.9,3017.225h-1.149l-2.26-11.235H274.9Z" transform="translate(372.835 186.507)"/><path class="g" d="M88.525,3050.405H71.437l3.121-63.752.091-1.886.061-1.328.09-1.884.151-3.047h10.06l.15,3.047.091,1.884.06,1.328.091,1.886Z" transform="translate(92.287 147.966)"/><path class="b" d="M88.525,3050.405H71.437l3.121-63.752.091-1.886.061-1.328.09-1.884.151-3.047h10.06l.15,3.047.091,1.884.06,1.328.091,1.886Z" transform="translate(92.287 147.966)"/><path class="c" d="M83.342,2981.66H72.8l.09-1.884H83.251Z" transform="translate(94.198 149.744)"/><path class="b" d="M83.342,2981.66H72.8l.09-1.884H83.251Z" transform="translate(94.198 149.744)"/><path class="c" d="M83.582,2983H72.736l.091-1.886H83.491Z" transform="translate(94.109 151.619)"/><path class="b" d="M83.582,2983H72.736l.091-1.886H83.491Z" transform="translate(94.109 151.619)"/><path class="g" d="M100.233,3050.405H83.145l3.123-63.752.091-1.886.061-1.328.089-1.884.151-3.047H96.72l.151,3.047.09,1.884.061,1.328.089,1.886Z" transform="translate(108.706 147.966)"/><path class="b" d="M100.233,3050.405H83.145l3.123-63.752.091-1.886.061-1.328.089-1.884.151-3.047H96.72l.151,3.047.09,1.884.061,1.328.089,1.886Z" transform="translate(108.706 147.966)"/><path class="c" d="M95.049,2981.66H84.508l.09-1.884H94.959Z" transform="translate(110.617 149.744)"/><path class="b" d="M95.049,2981.66H84.508l.09-1.884H94.959Z" transform="translate(110.617 149.744)"/><path class="c" d="M95.288,2983H84.445l.091-1.886H95.2Z" transform="translate(110.529 151.619)"/><path class="b" d="M95.288,2983H84.445l.091-1.886H95.2Z" transform="translate(110.529 151.619)"/><rect class="c" width="81.952" height="3.857" transform="translate(259.054 3207.752)"/><rect class="b" width="81.952" height="3.857" transform="translate(259.054 3207.752)"/><rect class="c" width="81.952" height="1.929" transform="translate(259.054 3212.97)"/><rect class="b" width="81.952" height="1.929" transform="translate(259.054 3212.97)"/><path class="g" d="M199.966,2998.023l-18.323,11.327v-7.2l16.67-10.307-1.968-3.163-85.184,52.67,1.956,3.174,15.623-9.66v7.183l-17.65,10.92.983,1.578,16.668-10.309v29.281h4.98v-32.354l43.157-26.685v59.039h4.766V3011.53l19.3-11.927Zm-66.246,40.953V3031.8l43.157-26.69v7.2Z" transform="translate(147.895 162.236)"/><path class="b" d="M199.966,2998.023l-18.323,11.327v-7.2l16.67-10.307-1.968-3.163-85.184,52.67,1.956,3.174,15.623-9.66v7.183l-17.65,10.92.983,1.578,16.668-10.309v29.281h4.98v-32.354l43.157-26.685v59.039h4.766V3011.53l19.3-11.927Zm-66.246,40.953V3031.8l43.157-26.69v7.2Z" transform="translate(147.895 162.236)"/><path class="c" d="M112.623,3027.7l7.736,12.586,72.336-44.466-7.738-12.586Zm77.713-32.531-8.92-1.079,3.065-8.444Zm-6.993-9.117-2.876,7.918-8.353-1.013Zm-14.124,8.683-2.866,7.913-8.365-1.009Zm-14.1,8.673-2.866,7.908-8.353-1.016Zm-14.179,8.713-2.866,7.913-8.365-1.009Zm-14.085,8.656-2.864,7.913-8.365-1.009ZM115.1,3028.56l8.557,1.038-2.945,8.094Zm6.631,9.076,2.885-7.928,8.368,1.012Zm11.75-7.793-8.541-1.033,2.933-8.089Zm-4.142-9.919,8.4,1.018-2.883,7.952Zm6.474,9.054,2.888-7.925,8.363,1.009Zm11.906-7.776-8.694-1.05,2.986-8.235Zm-4.2-9.995,8.408,1.012-2.895,7.962Zm6.482,9.048,2.876-7.918,8.365,1.007Zm11.909-7.775-8.709-1.045,3-8.246Zm-4.163-9.934,8.286,1-2.849,7.844Zm6.347,9.046,2.88-7.935,8.372,1.018Zm12.034-7.763-8.822-1.064,3.032-8.353Zm-4.171-9.943,8.192.984-2.818,7.752Zm6.263,9.024,2.871-7.93,8.38,1.011Z" transform="translate(150.046 154.592)"/><path class="f" d="M112.623,3027.7l7.736,12.586,72.336-44.466-7.738-12.586Zm77.713-32.531-8.92-1.079,3.065-8.444Zm-6.993-9.117-2.876,7.918-8.353-1.013Zm-14.124,8.683-2.866,7.913-8.365-1.009Zm-14.1,8.673-2.866,7.908-8.353-1.016Zm-14.179,8.713-2.866,7.913-8.365-1.009Zm-14.085,8.656-2.864,7.913-8.365-1.009ZM115.1,3028.56l8.557,1.038-2.945,8.094Zm6.631,9.076,2.885-7.928,8.368,1.012Zm11.75-7.793-8.541-1.033,2.933-8.089Zm-4.142-9.919,8.4,1.018-2.883,7.952Zm6.474,9.054,2.888-7.925,8.363,1.009Zm11.906-7.776-8.694-1.05,2.986-8.235Zm-4.2-9.995,8.408,1.012-2.895,7.962Zm6.482,9.048,2.876-7.918,8.365,1.007Zm11.909-7.775-8.709-1.045,3-8.246Zm-4.163-9.934,8.286,1-2.849,7.844Zm6.347,9.046,2.88-7.935,8.372,1.018Zm12.034-7.763-8.822-1.064,3.032-8.353Zm-4.171-9.943,8.192.984-2.818,7.752Zm6.263,9.024,2.871-7.93,8.38,1.011Z" transform="translate(150.046 154.592)"/><path class="h" d="M120.625,3014.921l-8,4.8v-18.11Z" transform="translate(150.045 180.368)"/><path class="b" d="M120.625,3014.921l-8,4.8v-18.11Z" transform="translate(150.045 180.368)"/><path class="h" d="M151.543,2980.769v18.374l-.909.545-8.1-13.506Z" transform="translate(191.988 151.135)"/><path class="b" d="M151.543,2980.769v18.374l-.909.545-8.1-13.506Z" transform="translate(191.988 151.135)"/><path class="g" d="M184.3,3030.893v62.864H144.468v-62.864h4.357v-56.639l31.12,9.5v47.14Z" transform="translate(194.705 142.001)"/><path class="b" d="M184.3,3030.893v62.864H144.468v-62.864h4.357v-56.639l31.12,9.5v47.14Z" transform="translate(194.705 142.001)"/><path class="c" d="M179.379,3051.908a7.857,7.857,0,1,1-15.714,0v-51.193a7.857,7.857,0,1,1,15.714,0Z" transform="translate(221.627 168.088)"/><path class="b" d="M179.379,3051.908a7.857,7.857,0,1,1-15.714,0v-51.193a7.857,7.857,0,1,1,15.714,0Z" transform="translate(221.627 168.088)"/><rect class="c" width="6.222" height="17.117" transform="translate(390.037 3144.813)"/><rect class="b" width="6.222" height="17.117" transform="translate(390.037 3144.813)"/><path class="g" d="M184.673,3014.212a.932.932,0,0,0,0-1.865H183.7v-21.934h.975a.933.933,0,0,0,0-1.867H183.7v-.935h-1.091v.935H165.026v-.935h-1.093v.935h-.971a.933.933,0,1,0,0,1.867h.971v21.934h-.971a.932.932,0,1,0,0,1.865h.971v10.583h-.971a.934.934,0,1,0,0,1.869h.971v10.58h-.971a.934.934,0,1,0,0,1.867h.971v10.58h-.971a.933.933,0,1,0,0,1.866h.971V3068.6h1.093v-17.043h17.581V3068.6H183.7v-17.043h.975a.933.933,0,0,0,0-1.866H183.7v-10.58h.975a.934.934,0,0,0,0-1.867H183.7v-10.58h.975a.934.934,0,0,0,0-1.869H183.7v-10.583Zm-2.066,35.478H165.026v-10.58h17.581Zm0-12.447H165.026v-10.58h17.581Zm0-12.448H165.026v-10.583h17.581Zm0-12.447H165.026v-21.934h17.581Z" transform="translate(219.331 160.734)"/><path class="b" d="M184.673,3014.212a.932.932,0,0,0,0-1.865H183.7v-21.934h.975a.933.933,0,0,0,0-1.867H183.7v-.935h-1.091v.935H165.026v-.935h-1.093v.935h-.971a.933.933,0,1,0,0,1.867h.971v21.934h-.971a.932.932,0,1,0,0,1.865h.971v10.583h-.971a.934.934,0,1,0,0,1.869h.971v10.58h-.971a.934.934,0,1,0,0,1.867h.971v10.58h-.971a.933.933,0,1,0,0,1.866h.971V3068.6h1.093v-17.043h17.581V3068.6H183.7v-17.043h.975a.933.933,0,0,0,0-1.866H183.7v-10.58h.975a.934.934,0,0,0,0-1.867H183.7v-10.58h.975a.934.934,0,0,0,0-1.869H183.7v-10.583Zm-2.066,35.478H165.026v-10.58h17.581Zm0-12.447H165.026v-10.58h17.581Zm0-12.448H165.026v-10.583h17.581Zm0-12.447H165.026v-21.934h17.581Z" transform="translate(219.331 160.734)"/><rect class="c" width="7.211" height="11.826" transform="translate(343.528 3178.346)"/><rect class="b" width="7.211" height="11.826" transform="translate(343.528 3178.346)"/><rect class="c" width="7.211" height="11.826" transform="translate(351.498 3178.346)"/><rect class="b" width="7.211" height="11.826" transform="translate(351.498 3178.346)"/><rect class="c" width="7.211" height="11.826" transform="translate(359.467 3178.346)"/><rect class="b" width="7.211" height="11.826" transform="translate(359.467 3178.346)"/><rect class="c" width="7.211" height="11.826" transform="translate(367.437 3178.346)"/><rect class="b" width="7.211" height="11.826" transform="translate(367.437 3178.346)"/><rect class="c" width="7.211" height="11.825" transform="translate(343.528 3194.839)"/><rect class="b" width="7.211" height="11.825" transform="translate(343.528 3194.839)"/><rect class="c" width="7.211" height="11.825" transform="translate(351.498 3194.839)"/><rect class="b" width="7.211" height="11.825" transform="translate(351.498 3194.839)"/><rect class="c" width="7.211" height="11.825" transform="translate(359.467 3194.839)"/><rect class="b" width="7.211" height="11.825" transform="translate(359.467 3194.839)"/><rect class="c" width="7.211" height="11.825" transform="translate(367.437 3194.839)"/><rect class="b" width="7.211" height="11.825" transform="translate(367.437 3194.839)"/><rect class="c" width="7.211" height="11.825" transform="translate(343.528 3211.333)"/><rect class="b" width="7.211" height="11.825" transform="translate(343.528 3211.333)"/><rect class="c" width="7.211" height="11.825" transform="translate(351.498 3211.333)"/><rect class="b" width="7.211" height="11.825" transform="translate(351.498 3211.333)"/><rect class="c" width="7.211" height="11.825" transform="translate(359.467 3211.333)"/><rect class="b" width="7.211" height="11.825" transform="translate(359.467 3211.333)"/><rect class="c" width="7.211" height="11.825" transform="translate(367.437 3211.333)"/><rect class="b" width="7.211" height="11.825" transform="translate(367.437 3211.333)"/><rect class="c" width="18.982" height="5.589" transform="translate(349.097 3162.423)"/><rect class="b" width="18.982" height="5.589" transform="translate(349.097 3162.423)"/><rect class="c" width="18.982" height="5.59" transform="translate(349.097 3151.22)"/><rect class="b" width="18.982" height="5.59" transform="translate(349.097 3151.22)"/><rect class="c" width="18.982" height="5.589" transform="translate(349.097 3140.016)"/><rect class="b" width="18.982" height="5.589" transform="translate(349.097 3140.016)"/><rect class="c" width="18.982" height="5.589" transform="translate(349.097 3128.813)"/><rect class="b" width="18.982" height="5.589" transform="translate(349.097 3128.813)"/><path class="g" d="M176.778,2993.931v81.746H66.875v-59.95h61.7v-28.581Z" transform="translate(85.889 160.079)"/><path class="b" d="M176.778,2993.931v81.746H66.875v-59.95h61.7v-28.581Z" transform="translate(85.889 160.079)"/><rect class="h" width="11.06" height="14.831" transform="translate(160.173 3182.094)"/><rect class="b" width="11.06" height="14.831" transform="translate(160.173 3182.094)"/><rect class="h" width="11.061" height="14.831" transform="translate(172.363 3182.094)"/><rect class="b" width="11.061" height="14.831" transform="translate(172.363 3182.094)"/><rect class="h" width="11.06" height="14.831" transform="translate(184.556 3182.094)"/><rect class="b" width="11.06" height="14.831" transform="translate(184.556 3182.094)"/><rect class="h" width="11.059" height="14.831" transform="translate(196.747 3182.094)"/><rect class="b" width="11.059" height="14.831" transform="translate(196.747 3182.094)"/><rect class="h" width="11.059" height="14.831" transform="translate(208.939 3182.094)"/><rect class="b" width="11.059" height="14.831" transform="translate(208.939 3182.094)"/><rect class="h" width="11.06" height="14.831" transform="translate(221.131 3182.094)"/><rect class="b" width="11.06" height="14.831" transform="translate(221.131 3182.094)"/><rect class="h" width="11.061" height="14.831" transform="translate(233.322 3182.094)"/><rect class="b" width="11.061" height="14.831" transform="translate(233.322 3182.094)"/><rect class="h" width="11.058" height="14.831" transform="translate(245.515 3182.094)"/><rect class="b" width="11.058" height="14.831" transform="translate(245.515 3182.094)"/><rect class="h" width="11.06" height="14.831" transform="translate(160.173 3202.266)"/><rect class="b" width="11.06" height="14.831" transform="translate(160.173 3202.266)"/><rect class="h" width="11.061" height="14.831" transform="translate(172.363 3202.266)"/><rect class="b" width="11.061" height="14.831" transform="translate(172.363 3202.266)"/><rect class="h" width="11.06" height="14.831" transform="translate(184.556 3202.266)"/><rect class="b" width="11.06" height="14.831" transform="translate(184.556 3202.266)"/><rect class="h" width="11.059" height="14.831" transform="translate(196.747 3202.266)"/><rect class="b" width="11.059" height="14.831" transform="translate(196.747 3202.266)"/><rect class="c" width="11.059" height="14.831" transform="translate(208.939 3202.266)"/><rect class="l" width="11.059" height="14.831" transform="translate(208.939 3202.266)"/><rect class="h" width="11.06" height="14.831" transform="translate(221.131 3202.266)"/><rect class="b" width="11.06" height="14.831" transform="translate(221.131 3202.266)"/><rect class="h" width="11.061" height="14.831" transform="translate(233.322 3202.266)"/><rect class="b" width="11.061" height="14.831" transform="translate(233.322 3202.266)"/><rect class="h" width="11.058" height="14.831" transform="translate(245.515 3202.266)"/><rect class="b" width="11.058" height="14.831" transform="translate(245.515 3202.266)"/><rect class="h" width="11.06" height="14.831" transform="translate(221.131 3160.979)"/><rect class="b" width="11.06" height="14.831" transform="translate(221.131 3160.979)"/><rect class="h" width="11.061" height="14.831" transform="translate(233.322 3160.979)"/><rect class="b" width="11.061" height="14.831" transform="translate(233.322 3160.979)"/><rect class="h" width="11.058" height="14.831" transform="translate(245.515 3160.979)"/><rect class="b" width="11.058" height="14.831" transform="translate(245.515 3160.979)"/><path class="a" d="M76.51,2992.2c-4.082,0-4.082-6.333,0-6.333a3.188,3.188,0,0,1,1.276.253c-.375-2.6,1.129-5.526,4.529-5.526a5.121,5.121,0,0,1,1.223.152,4.593,4.593,0,0,1,2.47-.68,4.642,4.642,0,0,1,2.393.634,5.874,5.874,0,0,1,6.047-5.384,6.074,6.074,0,0,1,3.2.865,7.747,7.747,0,0,1,.673-2.57c-3.166-.848-2.878-6.207.882-6.207a2.942,2.942,0,0,1,3.027,2.739,7.467,7.467,0,0,1,2.249-.365,6.468,6.468,0,0,1,5.826,3.168c.185,0,.344.042.521.053a2.314,2.314,0,0,1,.512-.056,2.274,2.274,0,0,1,1.372.423,6.862,6.862,0,0,1,4.456,6.753c5.545.572,5.374,9.444-.555,9.444l-.036-.007a2.144,2.144,0,0,1-2.073,1.324,2.321,2.321,0,0,1-2.2-3.061,3.085,3.085,0,0,1-.963.161,2.889,2.889,0,0,1-2.169-.9,7.229,7.229,0,0,1-1.415-.345,6,6,0,0,1-3.8,1.247,5.786,5.786,0,0,1-4.747-2.2,5.781,5.781,0,0,1-4.75,2.2,5.9,5.9,0,0,1-4.108-1.526,4.33,4.33,0,0,1-4.331,3.109,5.1,5.1,0,0,1-1.223-.156,4.586,4.586,0,0,1-2.47.685,4.529,4.529,0,0,1-2.756-.855A2.971,2.971,0,0,1,76.51,2992.2Z" transform="translate(95.108 132.389)"/><path class="b" d="M76.51,2992.2c-4.082,0-4.082-6.333,0-6.333a3.188,3.188,0,0,1,1.276.253c-.375-2.6,1.129-5.526,4.529-5.526a5.121,5.121,0,0,1,1.223.152,4.593,4.593,0,0,1,2.47-.68,4.642,4.642,0,0,1,2.393.634,5.874,5.874,0,0,1,6.047-5.384,6.074,6.074,0,0,1,3.2.865,7.747,7.747,0,0,1,.673-2.57c-3.166-.848-2.878-6.207.882-6.207a2.942,2.942,0,0,1,3.027,2.739,7.467,7.467,0,0,1,2.249-.365,6.468,6.468,0,0,1,5.826,3.168c.185,0,.344.042.521.053a2.314,2.314,0,0,1,.512-.056,2.274,2.274,0,0,1,1.372.423,6.862,6.862,0,0,1,4.456,6.753c5.545.572,5.374,9.444-.555,9.444l-.036-.007a2.144,2.144,0,0,1-2.073,1.324,2.321,2.321,0,0,1-2.2-3.061,3.085,3.085,0,0,1-.963.161,2.889,2.889,0,0,1-2.169-.9,7.229,7.229,0,0,1-1.415-.345,6,6,0,0,1-3.8,1.247,5.786,5.786,0,0,1-4.747-2.2,5.781,5.781,0,0,1-4.75,2.2,5.9,5.9,0,0,1-4.108-1.526,4.33,4.33,0,0,1-4.331,3.109,5.1,5.1,0,0,1-1.223-.156,4.586,4.586,0,0,1-2.47.685,4.529,4.529,0,0,1-2.756-.855A2.971,2.971,0,0,1,76.51,2992.2Z" transform="translate(95.108 132.389)"/><path class="c" d="M134.337,2995.931a7.379,7.379,0,0,1-5.586-2.258,11.783,11.783,0,0,1-6,1.508,12.058,12.058,0,0,1-4.327-.74,8.636,8.636,0,0,1-2.03-.478,6.633,6.633,0,0,1-4.548,1.633,6.479,6.479,0,0,1-5.987-3.428,8.059,8.059,0,0,1-4.913,1.713,8.245,8.245,0,0,1-8.18-8.177v-.673a8.157,8.157,0,0,1,15.767-2.962,6.711,6.711,0,0,1,1.97-.625,10.058,10.058,0,0,1,1.759-3.682l.017-.032a10.692,10.692,0,0,1,8.228-6.37,8.078,8.078,0,0,1,4.8-3.969,13.146,13.146,0,0,1,24.158,1.135c.161,0,.32-.015.495-.015a10.95,10.95,0,0,1,10.981,7.877,7.19,7.19,0,0,1,4.274,2.9,3.99,3.99,0,0,1,.5-.048,7.323,7.323,0,0,1,1.727.206c-1.3-1.778-.512-4.978,2.354-4.978,3.923,0,3.954,6,.111,6.114l.207.159a5.354,5.354,0,0,1,1.043-.142,4.76,4.76,0,0,1,4.9,4.449c5.141.128,5.105,8.165-.13,8.165a3.711,3.711,0,0,1-3.664-2.5,5.074,5.074,0,0,1-1.009.1,6.488,6.488,0,0,1-5.538,2.736,6.763,6.763,0,0,1-4.31-1.393,8.9,8.9,0,0,1-2.51.365,8.782,8.782,0,0,1-2-.221,2.983,2.983,0,0,1-4.738,1.215,4.728,4.728,0,0,1-3.491,1.393,4.669,4.669,0,0,1-4.8-3.954h-.014a11.544,11.544,0,0,1-3.716,2.561A7.476,7.476,0,0,1,134.337,2995.931Z" transform="translate(122.199 121.958)"/><path class="d" d="M134.337,2995.931a7.379,7.379,0,0,1-5.586-2.258,11.783,11.783,0,0,1-6,1.508,12.058,12.058,0,0,1-4.327-.74,8.636,8.636,0,0,1-2.03-.478,6.633,6.633,0,0,1-4.548,1.633,6.479,6.479,0,0,1-5.987-3.428,8.059,8.059,0,0,1-4.913,1.713,8.245,8.245,0,0,1-8.18-8.177v-.673a8.157,8.157,0,0,1,15.767-2.962,6.711,6.711,0,0,1,1.97-.625,10.058,10.058,0,0,1,1.759-3.682l.017-.032a10.692,10.692,0,0,1,8.228-6.37,8.078,8.078,0,0,1,4.8-3.969,13.146,13.146,0,0,1,24.158,1.135c.161,0,.32-.015.495-.015a10.95,10.95,0,0,1,10.981,7.877,7.19,7.19,0,0,1,4.274,2.9,3.99,3.99,0,0,1,.5-.048,7.323,7.323,0,0,1,1.727.206c-1.3-1.778-.512-4.978,2.354-4.978,3.923,0,3.954,6,.111,6.114l.207.159a5.354,5.354,0,0,1,1.043-.142,4.76,4.76,0,0,1,4.9,4.449c5.141.128,5.105,8.165-.13,8.165a3.711,3.711,0,0,1-3.664-2.5,5.074,5.074,0,0,1-1.009.1,6.488,6.488,0,0,1-5.538,2.736,6.763,6.763,0,0,1-4.31-1.393,8.9,8.9,0,0,1-2.51.365,8.782,8.782,0,0,1-2-.221,2.983,2.983,0,0,1-4.738,1.215,4.728,4.728,0,0,1-3.491,1.393,4.669,4.669,0,0,1-4.8-3.954h-.014a11.544,11.544,0,0,1-3.716,2.561A7.476,7.476,0,0,1,134.337,2995.931Z" transform="translate(122.199 121.958)"/><path class="a" d="M141.056,2980.229a4.545,4.545,0,0,1-4.42-2.9,7.179,7.179,0,0,1-1.146.115c-8.615,0-8.615-13.357,0-13.357a6.246,6.246,0,0,1,6.422,6.206C147.49,2971.151,147.211,2980.229,141.056,2980.229Z" transform="translate(173.053 127.745)"/><path class="b" d="M141.056,2980.229a4.545,4.545,0,0,1-4.42-2.9,7.179,7.179,0,0,1-1.146.115c-8.615,0-8.615-13.357,0-13.357a6.246,6.246,0,0,1,6.422,6.206C147.49,2971.151,147.211,2980.229,141.056,2980.229Z" transform="translate(173.053 127.745)"/><rect class="c" width="28.269" height="6.429" transform="translate(379.008 3229.333)"/><rect class="b" width="28.269" height="6.429" transform="translate(379.008 3229.333)"/><rect class="c" width="76.506" height="3.209" transform="translate(262.667 3232.547)"/><rect class="b" width="76.506" height="3.209" transform="translate(262.667 3232.547)"/><path class="g" d="M164.761,3010.693v11.827h7.212v-11.827Zm7.971,0v11.827h7.21v-11.827Zm-23.909,16.495v11.824h7.21v-11.824Zm7.969,0v11.824H164v-11.824Zm7.969,0v11.824h7.212v-11.824Zm7.971,0v11.824h7.21v-11.824Zm-23.909,16.493v11.826h7.21v-11.826Zm7.969,0v11.826H164v-11.826Zm7.969,0v11.826h7.212v-11.826Zm7.971,0v11.826h7.21v-11.826Zm11.57,24.425H144.47v-3.212h0v-36.872l5.5-5.5h6.061v-6.063l.759-.757v6.82H164v-11.827H161.8l.012-.01,10.321-10.323h1.244v-1.247l6.571-6.569v12.7H184.3Z" transform="translate(194.705 167.651)"/><path class="b" d="M164.761,3010.693v11.827h7.212v-11.827Zm7.971,0v11.827h7.21v-11.827Zm-23.909,16.495v11.824h7.21v-11.824Zm7.969,0v11.824H164v-11.824Zm7.969,0v11.824h7.212v-11.824Zm7.971,0v11.824h7.21v-11.824Zm-23.909,16.493v11.826h7.21v-11.826Zm7.969,0v11.826H164v-11.826Zm7.969,0v11.826h7.212v-11.826Zm7.971,0v11.826h7.21v-11.826Zm11.57,24.425H144.47v-3.212h0v-36.872l5.5-5.5h6.061v-6.063l.759-.757v6.82H164v-11.827H161.8l.012-.01,10.321-10.323h1.244v-1.247l6.571-6.569v12.7H184.3Z" transform="translate(194.705 167.651)"/><path class="c" d="M152.82,3008.563h-6.061l6.061-6.065Z" transform="translate(197.918 181.609)"/><path class="b" d="M152.82,3008.563h-6.061l6.061-6.065Z" transform="translate(197.918 181.609)"/><path class="c" d="M156.809,3011.926H149.6V3005.1l5-5h2.207Z" transform="translate(201.9 178.245)"/><path class="b" d="M156.809,3011.926H149.6V3005.1l5-5h2.207Z" transform="translate(201.9 178.245)"/><rect class="c" width="7.211" height="11.826" transform="translate(359.467 3178.346)"/><rect class="b" width="7.211" height="11.826" transform="translate(359.467 3178.346)"/><rect class="c" width="7.211" height="11.826" transform="translate(367.437 3178.346)"/><rect class="b" width="7.211" height="11.826" transform="translate(367.437 3178.346)"/><rect class="c" width="7.211" height="11.825" transform="translate(343.528 3194.839)"/><rect class="b" width="7.211" height="11.825" transform="translate(343.528 3194.839)"/><rect class="c" width="7.211" height="11.825" transform="translate(351.498 3194.839)"/><rect class="b" width="7.211" height="11.825" transform="translate(351.498 3194.839)"/><rect class="c" width="7.211" height="11.825" transform="translate(359.467 3194.839)"/><rect class="b" width="7.211" height="11.825" transform="translate(359.467 3194.839)"/><rect class="c" width="7.211" height="11.825" transform="translate(367.437 3194.839)"/><rect class="b" width="7.211" height="11.825" transform="translate(367.437 3194.839)"/><rect class="c" width="7.211" height="11.825" transform="translate(343.528 3211.333)"/><rect class="b" width="7.211" height="11.825" transform="translate(343.528 3211.333)"/><rect class="c" width="7.211" height="11.825" transform="translate(351.498 3211.333)"/><rect class="b" width="7.211" height="11.825" transform="translate(351.498 3211.333)"/><rect class="c" width="7.211" height="11.825" transform="translate(359.467 3211.333)"/><rect class="b" width="7.211" height="11.825" transform="translate(359.467 3211.333)"/><rect class="c" width="7.211" height="11.825" transform="translate(367.437 3211.333)"/><rect class="b" width="7.211" height="11.825" transform="translate(367.437 3211.333)"/><path class="c" d="M157.227,2996.527h-1.244l.01-.01h1.231v-1.233l0,0Z" transform="translate(210.853 171.485)"/><path class="b" d="M157.227,2996.527h-1.244l.01-.01h1.231v-1.233l0,0Z" transform="translate(210.853 171.485)"/><path class="c" d="M97.9,3001.785l-.56-11.45h0Zm-14.2,5.153.151-3.109v0Z" transform="translate(109.475 164.551)"/><path class="b" d="M97.9,3001.785l-.56-11.45h0Zm-14.2,5.153.151-3.109v0Z" transform="translate(109.475 164.551)"/><path class="c" d="M98.48,3011.255H83.606l.209-4.318.153-3.112,13.49-13.49.56,11.448Z" transform="translate(109.353 164.552)"/><path class="b" d="M98.48,3011.255H83.606l.209-4.318.153-3.112,13.49-13.49.56,11.448Z" transform="translate(109.353 164.552)"/><rect class="c" width="14.874" height="0.003" transform="translate(192.958 3175.807)"/><rect class="b" width="14.874" height="0.003" transform="translate(192.958 3175.807)"/><path class="c" d="M166.013,3013.781h-9.636v-2.465l0,0v2.463h9.634Zm-14.4,5.218h-2.916l.007,0h2.909Zm14.4,0h-9.636v-1.362h0v1.357h9.634Zm-14.4,19.578H129.1l0,0h22.5Zm14.4,0h-9.636v-17.649h0v17.646h9.634Z" transform="translate(173.16 193.972)"/><path class="b" d="M166.013,3013.781h-9.636v-2.465l0,0v2.463h9.634Zm-14.4,5.218h-2.916l.007,0h2.909Zm14.4,0h-9.636v-1.362h0v1.357h9.634Zm-14.4,19.578H129.1l0,0h22.5Zm14.4,0h-9.636v-17.649h0v17.646h9.634Z" transform="translate(173.16 193.972)"/><path class="c" d="M140.46,3016.2h0v-3.856h9.635v3.855H140.46Z" transform="translate(189.081 195.412)"/><path class="b" d="M140.46,3016.2h0v-3.856h9.635v3.855H140.46Z" transform="translate(189.081 195.412)"/><path class="c" d="M141.3,3016.437h-4.841l1.924-1.924H141.3Zm4.769,0h0v-1.929H155.7l-.012,1.924h-9.622Z" transform="translate(183.472 198.458)"/><path class="b" d="M141.3,3016.437h-4.841l1.924-1.924H141.3Zm4.769,0h0v-1.929H155.7l-.012,1.924h-9.622Z" transform="translate(183.472 198.458)"/><path class="g" d="M143.24,3038.575h-4.767v0h0v-17.65h0v-1.93h0v-2.913l2.3-2.3,2.462-2.461Z" transform="translate(186.298 193.972)"/><path class="b" d="M143.24,3038.575h-4.767v0h0v-17.65h0v-1.93h0v-2.913l2.3-2.3,2.462-2.461Z" transform="translate(186.298 193.972)"/><path class="c" d="M167.886,3025.871H127.769l3.209-3.209h36.909Z" transform="translate(171.287 209.886)"/><path class="b" d="M167.886,3025.871H127.769l3.209-3.209h36.909Z" transform="translate(171.287 209.886)"/><path class="c" d="M144.468,3016.2v0Zm0,24.15h0v-3.212h0Z" transform="translate(194.705 195.409)"/><path class="b" d="M144.468,3016.2v0Zm0,24.15h0v-3.212h0Z" transform="translate(194.705 195.409)"/><path class="g" d="M91,3000.06v57.506H28.869v-35.324h8.88v-4.436h8.874v-4.437h8.872v-4.437h8.881V3004.5h8.873v-4.437Z" transform="translate(32.59 178.19)"/><path class="b" d="M91,3000.06v57.506H28.869v-35.324h8.88v-4.436h8.874v-4.437h8.872v-4.437h8.881V3004.5h8.873v-4.437Z" transform="translate(32.59 178.19)"/><rect class="h" width="4.217" height="4.219" transform="translate(72.977 3205.918)"/><rect class="b" width="4.217" height="4.219" transform="translate(72.977 3205.918)"/><path class="h" d="M36.273,3021.141H33.663v-4.219h4.218v2.61Z" transform="translate(39.313 201.837)"/><path class="b" d="M36.273,3021.141H33.663v-4.219h4.218v2.61Z" transform="translate(39.313 201.837)"/><rect class="h" width="4.217" height="4.218" transform="translate(82.037 3199.499)"/><rect class="l" width="4.217" height="4.218" transform="translate(82.037 3199.499)"/><rect class="h" width="4.217" height="4.219" transform="translate(82.037 3205.918)"/><rect class="b" width="4.217" height="4.219" transform="translate(82.037 3205.918)"/><rect class="c" width="4.217" height="4.217" transform="translate(82.037 3225.18)"/><rect class="b" width="4.217" height="4.217" transform="translate(82.037 3225.18)"/><path class="h" d="M41.761,3010.45h-.555v-4.219h3.339A14.111,14.111,0,0,0,41.761,3010.45Zm3.664,0H45.29c.043-.076.089-.151.135-.225Z" transform="translate(49.891 186.845)"/><path class="b" d="M41.761,3010.45h-.555v-4.219h3.339A14.111,14.111,0,0,0,41.761,3010.45Zm3.664,0H45.29c.043-.076.089-.151.135-.225Z" transform="translate(49.891 186.845)"/><rect class="c" width="4.218" height="4.219" transform="translate(91.097 3205.918)"/><rect class="b" width="4.218" height="4.219" transform="translate(91.097 3205.918)"/><path class="h" d="M44.977,3006.353v-2.794H49.2v2.085A13.943,13.943,0,0,0,44.977,3006.353Z" transform="translate(55.179 183.096)"/><path class="b" d="M44.977,3006.353v-2.794H49.2v2.085A13.943,13.943,0,0,0,44.977,3006.353Z" transform="translate(55.179 183.096)"/><rect class="h" width="4.217" height="4.218" transform="translate(100.156 3193.076)"/><rect class="b" width="4.217" height="4.218" transform="translate(100.156 3193.076)"/><rect class="c" width="4.217" height="4.218" transform="translate(100.156 3212.339)"/><rect class="b" width="4.217" height="4.218" transform="translate(100.156 3212.339)"/><rect class="c" width="4.218" height="4.218" transform="translate(109.217 3199.499)"/><rect class="b" width="4.218" height="4.218" transform="translate(109.217 3199.499)"/><path class="h" d="M28.593,2992.269h-5.18v-6.651h5.18Zm0,5.029h-5.18v-4.58h5.18Zm0,5.028h-5.18v-4.579h5.18Zm0,5.025h-5.18v-4.578h5.18Zm0,5.032h-5.18V3007.8h5.18Zm0,5.025h-5.18v-4.579h5.18Zm0,5.028h-5.18v-4.578h5.18Zm0,5.028h-5.18v-4.582h5.18Zm0,5.028h-5.18v-4.58h5.18Zm0,5.025h-5.18v-4.579h5.18Zm0,6.919-5.18-2.268v-4.2h5.18Z" transform="translate(24.938 157.933)"/><path class="b" d="M28.593,2992.269h-5.18v-6.651h5.18Zm0,5.029h-5.18v-4.58h5.18Zm0,5.028h-5.18v-4.579h5.18Zm0,5.025h-5.18v-4.578h5.18Zm0,5.032h-5.18V3007.8h5.18Zm0,5.025h-5.18v-4.579h5.18Zm0,5.028h-5.18v-4.578h5.18Zm0,5.028h-5.18v-4.582h5.18Zm0,5.028h-5.18v-4.58h5.18Zm0,5.025h-5.18v-4.579h5.18Zm0,6.919-5.18-2.268v-4.2h5.18Z" transform="translate(24.938 157.933)"/><path class="m" d="M27.074,3043.208l-.921-.4v-7.084h.46v-.449h-.46v-4.58h.46v-.447h-.46v-4.579h.46v-.449h-.46v-4.58h.46v-.447h-.46v-4.58h.46v-.449h-.46v-4.579h.46v-.448h-.46v-4.58h.46v-.448h-.46v-4.58h.46v-.447h-.46V2995.5h.46v-.449h-.46v-4.58h.46v-.447h-.46v-2.805h.921Z" transform="translate(28.78 160.181)"/><path class="b" d="M27.074,3043.208l-.921-.4v-7.084h.46v-.449h-.46v-4.58h.46v-.447h-.46v-4.579h.46v-.449h-.46v-4.58h.46v-.447h-.46v-4.58h.46v-.449h-.46v-4.579h.46v-.448h-.46v-4.58h.46v-.448h-.46v-4.58h.46v-.447h-.46V2995.5h.46v-.449h-.46v-4.58h.46v-.447h-.46v-2.805h.921Z" transform="translate(28.78 160.181)"/><path class="m" d="M23.423,3039.369l-.921-.4v-51.748h.921v2.805h-.461v.447h.461v4.58h-.461v.449h.461v4.579h-.461v.447h.461v4.58h-.461v.448h.461v4.58h-.461v.448h.461v4.579h-.461v.449h.461v4.58h-.461v.447h.461v4.58h-.461v.449h.461v4.579h-.461v.447h.461v4.58h-.461v.449h.461Z" transform="translate(23.661 160.181)"/><path class="b" d="M23.423,3039.369l-.921-.4v-51.748h.921v2.805h-.461v.447h.461v4.58h-.461v.449h.461v4.579h-.461v.447h.461v4.58h-.461v.448h.461v4.58h-.461v.448h.461v4.579h-.461v.449h.461v4.58h-.461v.447h.461v4.58h-.461v.449h.461v4.579h-.461v.447h.461v4.58h-.461v.449h.461Z" transform="translate(23.661 160.181)"/><rect class="c" width="8.769" height="0.447" transform="translate(46.623 3150.204)"/><rect class="b" width="8.769" height="0.447" transform="translate(46.623 3150.204)"/><rect class="c" width="8.769" height="0.449" transform="translate(46.623 3155.231)"/><rect class="b" width="8.769" height="0.449" transform="translate(46.623 3155.231)"/><rect class="c" width="8.769" height="0.447" transform="translate(46.623 3160.26)"/><rect class="b" width="8.769" height="0.447" transform="translate(46.623 3160.26)"/><rect class="c" width="8.769" height="0.448" transform="translate(46.623 3165.287)"/><rect class="b" width="8.769" height="0.448" transform="translate(46.623 3165.287)"/><rect class="c" width="8.769" height="0.448" transform="translate(46.623 3170.315)"/><rect class="b" width="8.769" height="0.448" transform="translate(46.623 3170.315)"/><rect class="c" width="8.769" height="0.449" transform="translate(46.623 3175.342)"/><rect class="b" width="8.769" height="0.449" transform="translate(46.623 3175.342)"/><rect class="c" width="8.769" height="0.447" transform="translate(46.623 3180.371)"/><rect class="b" width="8.769" height="0.447" transform="translate(46.623 3180.371)"/><rect class="c" width="8.769" height="0.449" transform="translate(46.623 3185.398)"/><rect class="b" width="8.769" height="0.449" transform="translate(46.623 3185.398)"/><rect class="c" width="8.769" height="0.447" transform="translate(46.623 3190.426)"/><rect class="b" width="8.769" height="0.447" transform="translate(46.623 3190.426)"/><rect class="c" width="8.769" height="0.449" transform="translate(46.623 3195.453)"/><rect class="b" width="8.769" height="0.449" transform="translate(46.623 3195.453)"/><rect class="g" width="13.162" height="28.275" transform="translate(44.427 3177.798)"/><rect class="b" width="13.162" height="28.275" transform="translate(44.427 3177.798)"/><path class="g" d="M36.369,3047.871H5.63v-40.9l30.739,13.457Z" transform="translate(0 187.885)"/><path class="b" d="M36.369,3047.871H5.63v-40.9l30.739,13.457Z" transform="translate(0 187.885)"/><rect class="c" width="5.849" height="5.991" transform="translate(27.85 3209.837)"/><rect class="b" width="5.849" height="5.991" transform="translate(27.85 3209.837)"/><rect class="c" width="5.849" height="5.991" transform="translate(27.85 3216.545)"/><rect class="b" width="5.849" height="5.991" transform="translate(27.85 3216.545)"/><path class="g" d="M49.163,3047.871H18.425v-40.9l30.738,13.457Z" transform="translate(17.944 187.885)"/><path class="b" d="M49.163,3047.871H18.425v-40.9l30.738,13.457Z" transform="translate(17.944 187.885)"/><rect class="c" width="8.075" height="9.769" transform="translate(47.7 3225.988)"/><rect class="b" width="8.075" height="9.769" transform="translate(47.7 3225.988)"/><rect class="h" width="5.851" height="5.991" transform="translate(38.843 3209.837)"/><rect class="b" width="5.851" height="5.991" transform="translate(38.843 3209.837)"/><rect class="h" width="5.85" height="5.991" transform="translate(45.425 3209.837)"/><rect class="b" width="5.85" height="5.991" transform="translate(45.425 3209.837)"/><rect class="h" width="5.85" height="5.991" transform="translate(52.007 3209.837)"/><rect class="b" width="5.85" height="5.991" transform="translate(52.007 3209.837)"/><rect class="c" width="5.85" height="5.991" transform="translate(58.588 3209.837)"/><rect class="b" width="5.85" height="5.991" transform="translate(58.588 3209.837)"/><rect class="h" width="5.851" height="5.991" transform="translate(38.843 3216.545)"/><rect class="b" width="5.851" height="5.991" transform="translate(38.843 3216.545)"/><rect class="h" width="5.85" height="5.991" transform="translate(45.425 3216.545)"/><rect class="b" width="5.85" height="5.991" transform="translate(45.425 3216.545)"/><rect class="h" width="5.85" height="5.991" transform="translate(52.007 3216.545)"/><rect class="b" width="5.85" height="5.991" transform="translate(52.007 3216.545)"/><rect class="c" width="5.85" height="5.991" transform="translate(58.588 3216.545)"/><rect class="b" width="5.85" height="5.991" transform="translate(58.588 3216.545)"/><rect class="h" width="5.846" height="5.988" transform="translate(58.591 3209.839)"/><rect class="b" width="5.846" height="5.988" transform="translate(58.591 3209.839)"/><rect class="h" width="5.846" height="5.989" transform="translate(58.591 3216.545)"/><rect class="b" width="5.846" height="5.989" transform="translate(58.591 3216.545)"/><path class="c" d="M59.126,3019.825l-3.05,10.967H40.25l-3-10.967,3-8.682H56.068Z" transform="translate(44.339 193.732)"/><path class="b" d="M59.126,3019.825l-3.05,10.967H40.25l-3-10.967,3-8.682H56.068Z" transform="translate(44.339 193.732)"/><rect class="c" width="4.808" height="2.948" transform="translate(89.734 3223.721)"/><rect class="b" width="4.808" height="2.948" transform="translate(89.734 3223.721)"/><rect class="c" width="1.137" height="26.863" transform="translate(85.416 3208.208)"/><rect class="b" width="1.137" height="26.863" transform="translate(85.416 3208.208)"/><rect class="c" width="1.137" height="26.863" transform="translate(98.292 3208.208)"/><rect class="b" width="1.137" height="26.863" transform="translate(98.292 3208.208)"/><path class="c" d="M57.954,3013.035a.506.506,0,0,1-.5.5H38.059a.5.5,0,1,1,0-1.009h19.39A.5.5,0,0,1,57.954,3013.035Z" transform="translate(44.771 195.678)"/><path class="b" d="M57.954,3013.035a.506.506,0,0,1-.5.5H38.059a.5.5,0,1,1,0-1.009h19.39A.5.5,0,0,1,57.954,3013.035Z" transform="translate(44.771 195.678)"/><path class="c" d="M57.954,3017.334a.5.5,0,0,1-.5.5H38.059a.5.5,0,1,1,0-1.009h19.39A.5.5,0,0,1,57.954,3017.334Z" transform="translate(44.771 201.707)"/><path class="b" d="M57.954,3017.334a.5.5,0,0,1-.5.5H38.059a.5.5,0,1,1,0-1.009h19.39A.5.5,0,0,1,57.954,3017.334Z" transform="translate(44.771 201.707)"/><path class="c" d="M61.335,3004.427v3.161H54.906a10.86,10.86,0,0,0-10.768,10.85v2.126H40.977v-2.126a14.033,14.033,0,0,1,13.929-14.01Z" transform="translate(49.57 184.313)"/><path class="b" d="M61.335,3004.427v3.161H54.906a10.86,10.86,0,0,0-10.768,10.85v2.126H40.977v-2.126a14.033,14.033,0,0,1,13.929-14.01Z" transform="translate(49.57 184.313)"/><rect class="g" width="22.652" height="47.414" transform="translate(110.904 3187.656)"/><rect class="b" width="22.652" height="47.414" transform="translate(110.904 3187.656)"/><path class="c" d="M65.523,3007v41.314H64.281v-9H61.336v-.832h2.945v-8.115H61.336v-.83h2.945v-8.115H61.336v-.829h2.945v-8.116H61.336v-.829h2.945V3007a3.043,3.043,0,0,0-5.828-1.241H57.129A4.287,4.287,0,0,1,65.523,3007Z" transform="translate(72.221 181.896)"/><path class="b" d="M65.523,3007v41.314H64.281v-9H61.336v-.832h2.945v-8.115H61.336v-.83h2.945v-8.115H61.336v-.829h2.945v-8.116H61.336v-.829h2.945V3007a3.043,3.043,0,0,0-5.828-1.241H57.129A4.287,4.287,0,0,1,65.523,3007Z" transform="translate(72.221 181.896)"/><path class="c" d="M46.095,3031.82H43.049a10.439,10.439,0,0,0-10.434-10.357H30.573v-3.044h2.042A13.5,13.5,0,0,1,46.095,3031.82Z" transform="translate(34.979 203.935)"/><path class="b" d="M46.095,3031.82H43.049a10.439,10.439,0,0,0-10.434-10.357H30.573v-3.044h2.042A13.5,13.5,0,0,1,46.095,3031.82Z" transform="translate(34.979 203.935)"/><rect class="c" width="21.137" height="3.135" transform="translate(81.589 3232.622)"/><rect class="b" width="21.137" height="3.135" transform="translate(81.589 3232.622)"/><rect class="c" width="24.871" height="3.135" transform="translate(109.797 3232.622)"/><rect class="b" width="24.871" height="3.135" transform="translate(109.797 3232.622)"/><path class="c" d="M76.422,3024H29.429l.006-.006H76.422Z" transform="translate(33.375 211.759)"/><path class="b" d="M76.422,3024H29.429l.006-.006H76.422Z" transform="translate(33.375 211.759)"/><path class="g" d="M42.141,3052.076H31.22v-4.3l5.023-5.024A10.436,10.436,0,0,1,42.141,3052.076Zm3.56,0h-.514a13.5,13.5,0,0,0-6.7-11.565L39.7,3039.3h1.607v-1.609l5.127-5.126.627,2.294h-.118a.506.506,0,0,0-.418.223h-.375v4.218h2.126l.425,1.548h.826v.653H46.151v4.219h3.378v3.225H45.7Zm28.209,0H66.838v-3.132h-3.3v-8.1h.985l1.386-4.98h.42a.5.5,0,0,0,0-1.009h-.139l.55-1.98h1.744v-4.218H67.148l-1.1-3.121h.283a.5.5,0,0,0,0-1.009h-.639L64.52,3021.2h-6.7v-.023l7.556-7.559h3.111v-3.11l2.282-2.283h4.247v-3.161H73.932l1.086-1.085v5.421H73.329v4.219h1.689v2.2H73.329v4.218h1.689v2.2H73.329v4.219h1.689v22.485H73.911Z" transform="translate(35.887 183.679)"/><path class="b" d="M42.141,3052.076H31.22v-4.3l5.023-5.024A10.436,10.436,0,0,1,42.141,3052.076Zm3.56,0h-.514a13.5,13.5,0,0,0-6.7-11.565L39.7,3039.3h1.607v-1.609l5.127-5.126.627,2.294h-.118a.506.506,0,0,0-.418.223h-.375v4.218h2.126l.425,1.548h.826v.653H46.151v4.219h3.378v3.225H45.7Zm28.209,0H66.838v-3.132h-3.3v-8.1h.985l1.386-4.98h.42a.5.5,0,0,0,0-1.009h-.139l.55-1.98h1.744v-4.218H67.148l-1.1-3.121h.283a.5.5,0,0,0,0-1.009h-.639L64.52,3021.2h-6.7v-.023l7.556-7.559h3.111v-3.11l2.282-2.283h4.247v-3.161H73.932l1.086-1.085v5.421H73.329v4.219h1.689v2.2H73.329v4.218h1.689v2.2H73.329v4.219h1.689v22.485H73.911Z" transform="translate(35.887 183.679)"/><path class="c" d="M36.358,3019.617H34.75l1.609-1.608Z" transform="translate(40.837 203.36)"/><path class="b" d="M36.358,3019.617H34.75l1.609-1.608Z" transform="translate(40.837 203.36)"/><path class="h" d="M39.561,3021.141H37.435v-4.219h.375a.487.487,0,0,0-.086.281.5.5,0,0,0,.5.5h.394Z" transform="translate(44.603 201.838)"/><path class="b" d="M39.561,3021.141H37.435v-4.219h.375a.487.487,0,0,0-.086.281.5.5,0,0,0,.5.5h.394Z" transform="translate(44.603 201.838)"/><rect class="h" width="3.379" height="4.217" transform="translate(82.037 3225.18)"/><rect class="b" width="3.379" height="4.217" transform="translate(82.037 3225.18)"/><path class="h" d="M48.548,3009.8H45.438l3.109-3.111Z" transform="translate(55.827 187.491)"/><path class="b" d="M48.548,3009.8H45.438l3.109-3.111Z" transform="translate(55.827 187.491)"/><path class="c" d="M47.751,3018.468H46.007l.834-3-.429-1.219h1.339Z" transform="translate(56.624 198.09)"/><path class="l" d="M47.751,3018.468H46.007l.834-3-.429-1.219h1.339Z" transform="translate(56.624 198.09)"/><rect class="h" width="1.687" height="4.218" transform="translate(109.217 3199.499)"/><rect class="b" width="1.687" height="4.218" transform="translate(109.217 3199.499)"/><rect class="h" width="1.687" height="4.219" transform="translate(109.217 3205.918)"/><rect class="b" width="1.687" height="4.219" transform="translate(109.217 3205.918)"/><rect class="h" width="1.687" height="4.218" transform="translate(109.217 3193.076)"/><rect class="b" width="1.687" height="4.218" transform="translate(109.217 3193.076)"/><path class="c" d="M51.054,3027.419H39.314v-8.1H42.5v2.144h1.363v2.729h4.218v-4.219H47.3v-.655h3.75Z" transform="translate(47.238 205.203)"/><path class="b" d="M51.054,3027.419H39.314v-8.1H42.5v2.144h1.363v2.729h4.218v-4.219H47.3v-.655h3.75Z" transform="translate(47.238 205.203)"/><path class="c" d="M45.424,3023.813H41.206v-2.729h3.445v-1.489h.773Z" transform="translate(49.891 205.585)"/><path class="b" d="M45.424,3023.813H41.206v-2.729h3.445v-1.489h.773Z" transform="translate(49.891 205.585)"/><path class="c" d="M33.729,3026.507h-4.3l4.3-4.3Z" transform="translate(33.379 209.25)"/><path class="b" d="M33.729,3026.507h-4.3l4.3-4.3Z" transform="translate(33.379 209.25)"/><path class="c" d="M56.813,3014.476H45.584l3.332-3.333h6.722ZM40.647,3024.8H38.18l-.627-2.295,3.094-3.1Zm12.877,0H41.784v-6.527l2.794-2.792h8.947Zm3.789,0H54.66v-9.319h2.508l1.1,3.121.43,1.218-.834,3Zm-16.665,5.989h-.826l-.425-1.547-.939-3.433h2.191Zm12.877,0h-3.75v-.8H44.967v.8H41.784v-4.98H53.524Zm2.121,0H54.66v-4.98h2.371Z" transform="translate(44.768 193.733)"/><path class="b" d="M56.813,3014.476H45.584l3.332-3.333h6.722ZM40.647,3024.8H38.18l-.627-2.295,3.094-3.1Zm12.877,0H41.784v-6.527l2.794-2.792h8.947Zm3.789,0H54.66v-9.319h2.508l1.1,3.121.43,1.218-.834,3Zm-16.665,5.989h-.826l-.425-1.547-.939-3.433h2.191Zm12.877,0h-3.75v-.8H44.967v.8H41.784v-4.98H53.524Zm2.121,0H54.66v-4.98h2.371Z" transform="translate(44.768 193.733)"/><rect class="c" width="4.808" height="2.948" transform="translate(89.734 3223.721)"/><rect class="b" width="4.808" height="2.948" transform="translate(89.734 3223.721)"/><path class="c" d="M39.977,3020.64H38.841v-5.392l1.136-1.135Zm0,14.085H38.841v-13.077h1.136Z" transform="translate(46.574 197.896)"/><path class="b" d="M39.977,3020.64H38.841v-5.392l1.136-1.135Zm0,14.085H38.841v-13.077h1.136Z" transform="translate(46.574 197.896)"/><path class="c" d="M45.337,3022.27H44.2v-9.319h1.136Zm0,14.085H44.2v-13.077h1.136Z" transform="translate(54.091 196.267)"/><path class="b" d="M45.337,3022.27H44.2v-9.319h1.136Zm0,14.085H44.2v-13.077h1.136Z" transform="translate(54.091 196.267)"/><path class="c" d="M53.351,3013.54H40.477l1.007-1.009H53.351a.5.5,0,1,1,0,1.009Z" transform="translate(48.869 195.678)"/><path class="b" d="M53.351,3013.54H40.477l1.007-1.009H53.351a.5.5,0,1,1,0,1.009Z" transform="translate(48.869 195.678)"/><path class="c" d="M57.449,3017.838H38.059a.5.5,0,0,1-.5-.5.488.488,0,0,1,.086-.281.505.505,0,0,1,.418-.223h19.39a.5.5,0,1,1,0,1.009Z" transform="translate(44.771 201.707)"/><path class="b" d="M57.449,3017.838H38.059a.5.5,0,0,1-.5-.5.488.488,0,0,1,.086-.281.505.505,0,0,1,.418-.223h19.39a.5.5,0,1,1,0,1.009Z" transform="translate(44.771 201.707)"/><path class="c" d="M59.5,3007.587H55.256l3.162-3.161H59.5Zm-17.2,12.976h-.024l.024-.023Z" transform="translate(51.401 184.313)"/><path class="b" d="M59.5,3007.587H55.256l3.162-3.161H59.5Zm-17.2,12.976h-.024l.024-.023Z" transform="translate(51.401 184.313)"/><path class="c" d="M49.451,3048.941v0Z" transform="translate(61.453 183.68)"/><path class="b" d="M49.451,3048.941v0Z" transform="translate(61.453 183.68)"/><path class="c" d="M42.255,3030.749H39.209a10.437,10.437,0,0,0-5.9-9.32l2.244-2.245A13.494,13.494,0,0,1,42.255,3030.749Z" transform="translate(38.819 205.007)"/><path class="b" d="M42.255,3030.749H39.209a10.437,10.437,0,0,0-5.9-9.32l2.244-2.245A13.494,13.494,0,0,1,42.255,3030.749Z" transform="translate(38.819 205.007)"/><rect class="c" width="21.137" height="3.135" transform="translate(81.589 3232.622)"/><rect class="b" width="21.137" height="3.135" transform="translate(81.589 3232.622)"/><path class="c" d="M48.99,3025.827v-3.135h0Z" transform="translate(60.807 209.929)"/><path class="b" d="M48.99,3025.827v-3.135h0Z" transform="translate(60.807 209.929)"/><path class="c" d="M23.826,3014.942l-9.251-4.05v0Z" transform="translate(12.544 193.374)"/><path class="b" d="M23.826,3014.942l-9.251-4.05v0Z" transform="translate(12.544 193.374)"/><path class="g" d="M27.848,3016.488v5.989H33.7v-5.989ZM14.686,3023.2v5.991h5.85V3023.2Zm6.583,0v5.991h5.85V3023.2Zm6.58,0v5.991H33.7V3023.2Zm8.521,19.21H25.038v-9.769H16.961v9.769H5.631v-10.163l3.058-3.056h5.266v-5.269l1.441-1.441h5.139v-5.139l.733-.732v5.871h5.85v-5.989H21.386l5.622-5.619.111.048,9.252,4.05v27.441" transform="translate(0.001 193.349)"/><path class="b" d="M27.848,3016.488v5.989H33.7v-5.989ZM14.686,3023.2v5.991h5.85V3023.2Zm6.583,0v5.991h5.85V3023.2Zm6.58,0v5.991H33.7V3023.2Zm8.521,19.21H25.038v-9.769H16.961v9.769H5.631v-10.163l3.058-3.056h5.266v-5.269l1.441-1.441h5.139v-5.139l.733-.732v5.871h5.85v-5.989H21.386l5.622-5.619.111.048,9.252,4.05v27.441" transform="translate(0.001 193.349)"/><rect class="h" width="5.849" height="5.991" transform="translate(27.85 3209.837)"/><rect class="b" width="5.849" height="5.991" transform="translate(27.85 3209.837)"/><rect class="h" width="5.849" height="5.991" transform="translate(27.85 3216.545)"/><rect class="b" width="5.849" height="5.991" transform="translate(27.85 3216.545)"/><path class="h" d="M31.212,3029.7H28.934v-7.486h-5.79v-2.279h8.068Z" transform="translate(24.56 206.058)"/><path class="b" d="M31.212,3029.7H28.934v-7.486h-5.79v-2.279h8.068Z" transform="translate(24.56 206.058)"/><path class="a" d="M12.627,2995.37a1.6,1.6,0,0,1-.372-3.146c-1.177-1.869-.327-5.016,2.563-5.016a3.2,3.2,0,0,1,1.362.283,4.484,4.484,0,0,1,4.61-4.466,4.71,4.71,0,0,1,2.347.579,5.762,5.762,0,0,1,5.009-4.1,2.929,2.929,0,0,1,3-2.449c2.758,0,3.656,2.869,2.71,4.754a6.107,6.107,0,0,1,.507.81,4.711,4.711,0,0,1,2.359-.586c6.165,0,6.165,9.557,0,9.557a4.44,4.44,0,0,1-3.258-1.274,5.878,5.878,0,0,1-4.507,1.872,5.927,5.927,0,0,1-4.3-1.65,4.347,4.347,0,0,1-3.868,2.049,4.483,4.483,0,0,1-3.065-1.093,2.9,2.9,0,0,1-2.907,2.087,3.493,3.493,0,0,1-.673-.067A1.537,1.537,0,0,1,12.627,2995.37Z" transform="translate(7.65 145.923)"/><path class="b" d="M12.627,2995.37a1.6,1.6,0,0,1-.372-3.146c-1.177-1.869-.327-5.016,2.563-5.016a3.2,3.2,0,0,1,1.362.283,4.484,4.484,0,0,1,4.61-4.466,4.71,4.71,0,0,1,2.347.579,5.762,5.762,0,0,1,5.009-4.1,2.929,2.929,0,0,1,3-2.449c2.758,0,3.656,2.869,2.71,4.754a6.107,6.107,0,0,1,.507.81,4.711,4.711,0,0,1,2.359-.586c6.165,0,6.165,9.557,0,9.557a4.44,4.44,0,0,1-3.258-1.274,5.878,5.878,0,0,1-4.507,1.872,5.927,5.927,0,0,1-4.3-1.65,4.347,4.347,0,0,1-3.868,2.049,4.483,4.483,0,0,1-3.065-1.093,2.9,2.9,0,0,1-2.907,2.087,3.493,3.493,0,0,1-.673-.067A1.537,1.537,0,0,1,12.627,2995.37Z" transform="translate(7.65 145.923)"/><path class="a" d="M48.34,3000a5.781,5.781,0,0,1-5.485-3.33,10.7,10.7,0,0,1-1.684.144,8.894,8.894,0,0,1-6.5-2.53,6.3,6.3,0,0,1-3.061.738,7.07,7.07,0,0,1-1.5-.158,3.009,3.009,0,0,1-3.08,3.145c-3.791,0-4.074-5.41-.872-6.251-1.859-3.777-.048-9.48,5.451-9.48a7.036,7.036,0,0,1,1.465.149,8.675,8.675,0,0,1,8.094-4.728,10.99,10.99,0,0,1,1.374.089,2.936,2.936,0,0,1,3.005-2.48,3.085,3.085,0,0,1,3,3.9,1.661,1.661,0,0,1,.42,2.695,9.56,9.56,0,0,1,.788,1.635,7.368,7.368,0,0,1,5.554-2.254A7.243,7.243,0,0,1,62.4,2986a6.467,6.467,0,0,1,2.662-.535c8.219,0,8.219,12.745,0,12.745a5.82,5.82,0,0,1-5.016-2.506,7.583,7.583,0,0,1-4.74,1.508,8.718,8.718,0,0,1-1.67-.171A5.8,5.8,0,0,1,48.34,3000Z" transform="translate(25.7 143.482)"/><path class="b" d="M48.34,3000a5.781,5.781,0,0,1-5.485-3.33,10.7,10.7,0,0,1-1.684.144,8.894,8.894,0,0,1-6.5-2.53,6.3,6.3,0,0,1-3.061.738,7.07,7.07,0,0,1-1.5-.158,3.009,3.009,0,0,1-3.08,3.145c-3.791,0-4.074-5.41-.872-6.251-1.859-3.777-.048-9.48,5.451-9.48a7.036,7.036,0,0,1,1.465.149,8.675,8.675,0,0,1,8.094-4.728,10.99,10.99,0,0,1,1.374.089,2.936,2.936,0,0,1,3.005-2.48,3.085,3.085,0,0,1,3,3.9,1.661,1.661,0,0,1,.42,2.695,9.56,9.56,0,0,1,.788,1.635,7.368,7.368,0,0,1,5.554-2.254A7.243,7.243,0,0,1,62.4,2986a6.467,6.467,0,0,1,2.662-.535c8.219,0,8.219,12.745,0,12.745a5.82,5.82,0,0,1-5.016-2.506,7.583,7.583,0,0,1-4.74,1.508,8.718,8.718,0,0,1-1.67-.171A5.8,5.8,0,0,1,48.34,3000Z" transform="translate(25.7 143.482)"/><path class="a" d="M46.515,2984.832c-4.111,0-4.111-6.371,0-6.371S50.623,2984.832,46.515,2984.832Z" transform="translate(53.012 147.898)"/><path class="b" d="M46.515,2984.832c-4.111,0-4.111-6.371,0-6.371S50.623,2984.832,46.515,2984.832Z" transform="translate(53.012 147.898)"/><path class="a" d="M50.978,2991.271c-6.165,0-6.165-9.56,0-9.56a5.249,5.249,0,0,1,.745.058,2.953,2.953,0,0,1,3.039-2.645c3.849,0,4.091,5.589.73,6.3C56.025,2988.109,54.524,2991.271,50.978,2991.271Z" transform="translate(57.111 148.828)"/><path class="b" d="M50.978,2991.271c-6.165,0-6.165-9.56,0-9.56a5.249,5.249,0,0,1,.745.058,2.953,2.953,0,0,1,3.039-2.645c3.849,0,4.091,5.589.73,6.3C56.025,2988.109,54.524,2991.271,50.978,2991.271Z" transform="translate(57.111 148.828)"/><path class="a" d="M53.654,2983.635a1.593,1.593,0,0,1,0-3.185A1.593,1.593,0,0,1,53.654,2983.635Z" transform="translate(65.188 150.688)"/><path class="b" d="M53.654,2983.635a1.593,1.593,0,0,1,0-3.185A1.593,1.593,0,0,1,53.654,2983.635Z" transform="translate(65.188 150.688)"/><path class="e" d="M554.844,2972.791c-.038-.034-3.714-3.3-10.3-8.193l1.314-1.765c6.669,4.958,10.407,8.281,10.446,8.315Zm-21.067-15.775c-3.62-2.414-7.361-4.788-11.121-7.048l1.134-1.886c3.791,2.28,7.56,4.67,11.21,7.1Zm-22.556-13.57c-3.868-2.085-7.815-4.095-11.729-5.968l.951-1.987c3.945,1.891,7.926,3.916,11.82,6.018Zm-23.733-11.352c-4.067-1.7-8.195-3.3-12.264-4.759l.742-2.07c4.106,1.465,8.267,3.082,12.37,4.8ZM320.248,2929.4l-.048-2.2a93.061,93.061,0,0,0,12.983-1.22l.358,2.171A95.286,95.286,0,0,1,320.248,2929.4Zm-13.319-.685a98.163,98.163,0,0,1-13.086-2.576l.567-2.126a95.734,95.734,0,0,0,12.79,2.516Zm39.6-3.556-.62-2.112c1.413-.416,2.854-.87,4.283-1.348,2.751-.925,5.554-1.79,8.336-2.574l.6,2.12c-2.748.773-5.521,1.627-8.235,2.539C349.439,2924.271,347.971,2924.735,346.53,2925.158Zm116.194-1.9c-4.224-1.246-8.5-2.371-12.709-3.343l.495-2.144c4.252.983,8.572,2.119,12.836,3.375Zm-181.518-1.289c-3.875-1.514-7.849-3.261-12.149-5.346l.958-1.979c4.25,2.056,8.171,3.783,11.99,5.273Zm90.671-3.8-.432-2.16c4.317-.865,8.728-1.578,13.112-2.117l.269,2.185C380.5,2916.615,376.14,2917.317,371.878,2918.174Zm65.254-.812c-4.339-.714-8.716-1.29-13.019-1.706l.211-2.191c4.351.421,8.781,1,13.165,1.727Zm-386.791-2.095-1.2-1.848c3.769-2.443,7.546-4.807,11.222-7.022l1.139,1.883C57.846,2910.484,54.089,2912.836,50.341,2915.268Zm347.555-.289-.1-2.2c4.38-.208,8.834-.252,13.278-.135l-.058,2.2C406.624,2914.732,402.222,2914.774,397.9,2914.979Zm-140.615-4.442c-3.731-2.027-7.433-4.112-11.541-6.431l1.084-1.917c4.1,2.313,7.793,4.394,11.51,6.415ZM72.895,2901.7l-1.064-1.927c3.945-2.176,7.892-4.25,11.731-6.157l.978,1.97C80.729,2897.475,76.81,2899.532,72.895,2901.7Zm161.34-4.026c-4.31-2.364-8.12-4.368-11.644-6.128l.98-1.971c3.553,1.773,7.387,3.792,11.724,6.167Zm-137.78-7.639-.877-2.021c4.147-1.8,8.288-3.459,12.315-4.933l.754,2.066C104.664,2886.6,100.563,2888.245,96.455,2890.031Zm114.217-4.008c-4.219-1.782-8.231-3.292-12.267-4.61l.687-2.089c4.094,1.337,8.161,2.866,12.437,4.672Zm-89.554-4.961-.608-2.114c4.339-1.251,8.68-2.32,12.9-3.171l.435,2.157C129.685,2878.774,125.4,2879.827,121.118,2881.062Zm64.673-3.093a120.646,120.646,0,0,0-12.894-2.1l.233-2.189a122.8,122.8,0,0,1,13.132,2.136Zm-39-2.04-.235-2.191a129.171,129.171,0,0,1,13.29-.737l0,2.2A126.5,126.5,0,0,0,146.79,2875.928Z" transform="translate(61.02 0)"/><path class="n" d="M29.587,2922.391l48.765-27.272-16.763-1.106Z" transform="translate(33.596 29.47)"/><path class="o" d="M29.587,2920.111l15.005-24.136,12.592-.334Z" transform="translate(33.596 31.75)"/><path class="p" d="M67.136,2897.084l.977,6.144-38.526,14.856Z" transform="translate(33.596 33.777)"/><path class="q" d="M334.4,3018.024a2.6,2.6,0,0,1-2.607,2.6H314.869a2.4,2.4,0,0,1-2.4-2.4v-.2Z" transform="translate(430.31 203.383)"/><path class="r" d="M332.039,3016.329a4.1,4.1,0,0,0,4.075,4.074H313.944l-2.921,2.187V3019l.939-.644v-2.022Z" transform="translate(428.282 201.005)"/><path class="s" d="M310.609,3021.774v-3.66l.993-.676v3.593Z" transform="translate(427.702 202.562)"/><path class="t" d="M318.734,3019.548c.9,0,1.016,1.4.106,1.4s-1.016-1.4-.106-1.4" transform="translate(438.212 205.521)"/><path class="t" d="M317.84,3020.339c.911,0,1.014,1.41.106,1.41s-1.009-1.41-.106-1.41" transform="translate(436.963 206.628)"/><path class="t" d="M317.168,3020.29a.843.843,0,1,1,.841.838.848.848,0,0,1-.841-.838" transform="translate(436.899 205.38)"/><path class="t" d="M317.972,3020.04c-.9,0-1.009-1.41-.106-1.41s1.016,1.41.106,1.41" transform="translate(436.999 204.231)"/><path class="t" d="M317,3019.566c.9,0,1.016,1.411.106,1.411s-1.016-1.411-.106-1.411" transform="translate(435.787 205.546)"/><path class="u" d="M321.547,3022.488c.911,0,.8-1.4-.106-1.4s-.8,1.4.106,1.4m-2.143,1.9c.908,0,.8-1.41-.106-1.41S318.5,3024.392,319.4,3024.392Zm.062-4.105c.91,0,.8-1.411-.106-1.411S318.563,3020.287,319.467,3020.287Zm-.062.557a.84.84,0,1,0,.846.841A.848.848,0,0,0,319.4,3020.844Zm-2.117.284c-.91,0-.8,1.41.106,1.41S318.191,3021.127,317.288,3021.127Zm-1.115.557a3.234,3.234,0,1,1,3.231,3.236A3.23,3.23,0,0,1,316.173,3021.685Z" transform="translate(435.504 203.984)"/><path class="v" d="M320.91,3019.96a3.233,3.233,0,1,0,3.236,3.23,3.23,3.23,0,0,0-3.236-3.23m-5.811,3.23a5.815,5.815,0,1,1,5.811,5.818A5.812,5.812,0,0,1,315.1,3023.191Z" transform="translate(433.998 202.479)"/><path class="q" d="M322.15,3018.618a5.815,5.815,0,1,0,5.819,5.812,5.812,5.812,0,0,0-5.819-5.812m0-2.123a7.937,7.937,0,1,1-7.935,7.935A7.938,7.938,0,0,1,322.15,3016.5Z" transform="translate(432.758 201.239)"/><path class="w" d="M333.5,3025.687a10.09,10.09,0,1,1-10.092-10.087,10.087,10.087,0,0,1,10.092,10.087m-10.092,7.94a7.938,7.938,0,1,0-7.935-7.94A7.938,7.938,0,0,0,323.407,3033.627Z" transform="translate(431.502 199.983)"/><rect class="x" width="26.708" height="14.018" transform="translate(838.041 3210.811)"/><path class="t" d="M358.5,3019.548c.9,0,1.014,1.4.106,1.4s-1.016-1.4-.106-1.4" transform="translate(493.98 205.521)"/><path class="t" d="M357.6,3020.339c.911,0,1.016,1.41.106,1.41s-1.009-1.41-.106-1.41" transform="translate(492.729 206.628)"/><path class="t" d="M356.934,3020.29a.843.843,0,1,1,.839.838.846.846,0,0,1-.839-.838" transform="translate(492.667 205.38)"/><path class="t" d="M357.738,3020.04c-.9,0-1.009-1.41-.106-1.41s1.014,1.41.106,1.41" transform="translate(492.767 204.231)"/><path class="t" d="M356.769,3019.566c.9,0,1.016,1.411.106,1.411s-1.014-1.411-.106-1.411" transform="translate(491.555 205.546)"/><path class="u" d="M361.313,3022.488c.908,0,.8-1.4-.106-1.4s-.8,1.4.106,1.4m-2.145,1.9c.91,0,.8-1.41-.106-1.41S358.264,3024.392,359.168,3024.392Zm.065-4.105c.908,0,.8-1.411-.106-1.411S358.329,3020.287,359.233,3020.287Zm-.065.557a.84.84,0,1,0,.848.841A.846.846,0,0,0,359.168,3020.844Zm-2.117.284c-.908,0-.8,1.41.106,1.41S357.955,3021.127,357.051,3021.127Zm-1.112.557a3.234,3.234,0,1,1,3.229,3.236A3.228,3.228,0,0,1,355.939,3021.685Z" transform="translate(491.272 203.984)"/><path class="v" d="M360.675,3019.96a3.233,3.233,0,1,0,3.238,3.23,3.228,3.228,0,0,0-3.238-3.23m-5.811,3.23a5.815,5.815,0,1,1,5.811,5.818A5.812,5.812,0,0,1,354.864,3023.191Z" transform="translate(489.764 202.479)"/><path class="q" d="M361.915,3018.618a5.815,5.815,0,1,0,5.819,5.812,5.812,5.812,0,0,0-5.819-5.812m0-2.123a7.937,7.937,0,1,1-7.935,7.935A7.94,7.94,0,0,1,361.915,3016.5Z" transform="translate(488.525 201.239)"/><path class="w" d="M373.263,3025.687A10.089,10.089,0,1,1,363.17,3015.6a10.087,10.087,0,0,1,10.092,10.087m-10.092,7.94a7.938,7.938,0,1,0-7.935-7.94A7.94,7.94,0,0,0,363.17,3033.627Z" transform="translate(487.269 199.983)"/><rect class="w" width="55.244" height="5.876" transform="translate(766.42 3219.23)"/><path class="q" d="M351.313,3017.941v-2.763h1.353v3.209h2.657v2.552s-.053,2.068,3.76,2.068v1.521h5.247v3.5H344.041v-10.083Z" transform="translate(474.586 199.392)"/><rect class="y" width="87.521" height="2.817" transform="translate(740.712 3177.469)"/><rect class="z" width="87.521" height="3.308" transform="translate(740.712 3174.161)"/><rect class="y" width="87.521" height="3.303" transform="translate(740.712 3170.859)"/><rect class="z" width="87.521" height="3.307" transform="translate(740.712 3167.551)"/><rect class="y" width="87.521" height="2.978" transform="translate(740.712 3164.573)"/><path class="r" d="M336.83,3018.352l.554-2.022h22.074l.006,2.022Z" transform="translate(464.473 201.004)"/><path class="aa" d="M338.224,3017.732h-5.206v-1.353H341.1v-.051h1.626l-.553,2.022-.649.848a4.1,4.1,0,0,1-2.9,1.2h-5.607v-1h5.206Z" transform="translate(459.127 201.005)"/><rect class="v" width="5.206" height="1.668" transform="translate(792.146 3218.736)"/><rect class="t" width="3.403" height="1.004" transform="translate(788.743 3220.405)"/><rect class="v" width="3.403" height="1.668" transform="translate(788.743 3218.736)"/><rect class="t" width="3.403" height="1.351" transform="translate(788.743 3217.385)"/><rect class="r" width="3.403" height="0.051" transform="translate(788.743 3217.333)"/><rect class="aa" width="15.559" height="1.004" transform="translate(773.183 3220.405)"/><rect class="v" width="15.559" height="1.668" transform="translate(773.183 3218.736)"/><rect class="aa" width="15.559" height="1.351" transform="translate(773.183 3217.385)"/><rect class="y" width="87.521" height="3.308" transform="translate(740.712 3183.589)"/><rect class="t" width="3.404" height="1.004" transform="translate(769.779 3220.405)"/><rect class="v" width="3.404" height="1.668" transform="translate(769.779 3218.736)"/><rect class="t" width="3.404" height="1.351" transform="translate(769.779 3217.385)"/><rect class="r" width="3.404" height="0.051" transform="translate(769.779 3217.333)"/><rect class="r" width="38.28" height="1.781" transform="translate(761.948 3215.721)"/><rect class="y" width="87.521" height="3.143" transform="translate(740.712 3209.421)"/><rect class="z" width="87.521" height="3.303" transform="translate(740.712 3206.118)"/><rect class="y" width="87.521" height="3.063" transform="translate(740.712 3203.055)"/><rect class="z" width="87.521" height="3.307" transform="translate(740.712 3199.748)"/><rect class="y" width="87.521" height="3.303" transform="translate(740.712 3196.446)"/><rect class="z" width="87.521" height="3.308" transform="translate(740.712 3193.137)"/><rect class="y" width="87.521" height="2.936" transform="translate(740.712 3190.201)"/><rect class="z" width="87.521" height="3.303" transform="translate(740.712 3186.897)"/><rect class="v" width="5.073" height="1.668" transform="translate(764.707 3218.736)"/><path class="aa" d="M324.158,3020.4h-.312a4.1,4.1,0,0,1-4.075-4.074H321.4v.051h7.832v1.353h-5.071v1.667h5.071v1Z" transform="translate(440.55 201.005)"/><rect class="z" width="87.521" height="3.303" transform="translate(740.712 3180.286)"/><path class="ab" d="M310.37,2992.805v56.514l24.211-.033v-1.581h38.282v1.581h19.505v.033h11.474v-56.514Zm90.5,52.762H313.347v-49.01h87.519Z" transform="translate(427.366 168.016)"/><rect class="s" width="4.795" height="0.759" transform="translate(819.759 3214.962)"/><rect class="s" width="4.796" height="0.759" transform="translate(813.047 3214.962)"/><rect class="s" width="4.796" height="0.759" transform="translate(749.232 3215.13)"/><rect class="s" width="4.796" height="0.759" transform="translate(742.521 3215.13)"/><rect class="q" width="87.519" height="1.019" transform="translate(740.712 3212.564)"/><path class="ac" d="M364.649,3001.039a28.027,28.027,0,0,1,5.711,7.707h-.829v2.573q-.292-.587-.6-1.194h-.007a40.433,40.433,0,0,0-3.041-4.995,25.2,25.2,0,0,0-2.864-3.375l1.309-.291Z" transform="translate(501.195 179.564)"/><path class="ad" d="M370.045,3006.016v2.665L363,3010.321l-.355-3.993,6.787-1.506h.007q.31.606.6,1.194" transform="translate(500.681 184.867)"/><path class="q" d="M369.722,3007.738l-6.787,1.506-.493-5.514,4.238-.988a40.414,40.414,0,0,1,3.041,5" transform="translate(500.393 181.951)"/><path class="q" d="M364.23,3000.409a40.808,40.808,0,0,1,7.515,9.867l-.25.144h-1.11a47.727,47.727,0,0,0-6.825-9.484v-1.084l.007,0c.228.175.449.367.663.562" transform="translate(501.959 177.89)"/><path class="ae" d="M376.572,3045.927v.012l-2.607-.048-.605-6a6.612,6.612,0,0,0-6.388-4.9H359.84a7.505,7.505,0,0,0-6.921,4.591h-.055v-39.726h4.872v33.282H369.05a6.017,6.017,0,0,1,5.819,4.469Z" transform="translate(486.958 177.893)"/><path class="w" d="M362.75,3009.583l-.356-4,.61-.133.356,3.991Z" transform="translate(500.324 185.748)"/><path class="w" d="M363.152,3007.11l.011.149-.308.032h-.016l-.3-.021v-.017Z" transform="translate(500.532 188.078)"/><path class="af" d="M367.606,3011.045c-.514-1.279-1.139-2.723-1.879-4.225v-2.573h.829a42.758,42.758,0,0,1,1.9,4.213v4.82c-.233-.654-.521-1.413-.851-2.235" transform="translate(504.999 184.062)"/><path class="ac" d="M359.078,3009.623l14.14.944-11.253,2.628a.742.742,0,0,0,.219-.533v-.948h-6.2v.948h-1.1v-7.743h.935l.716-.164v2.727a2.111,2.111,0,0,0,1.97,2.1Z" transform="translate(489.802 184.775)"/><path class="ag" d="M359.078,3009.623l14.14.944-11.253,2.628a.742.742,0,0,0,.219-.533v-.948h-6.2v.948h-1.1v-7.743h.935l.716-.164v2.727a2.111,2.111,0,0,0,1.97,2.1Z" transform="translate(489.802 184.775)"/><path class="ac" d="M383.652,3006a53.6,53.6,0,0,1,2.145,6.9l.238,17.939v6.671l-12.308-.2v-.011l-1.7-8.327a6.017,6.017,0,0,0-5.819-4.469H354.891v-13.588h1.1a.778.778,0,0,0,.774.776H361.4a.772.772,0,0,0,.562-.243l11.253-2.628.053,0,0,.048.293-.026h.014a.838.838,0,0,1,.7.447l2.032,3.692a.86.86,0,0,0,.754.452h6.273a.866.866,0,0,0,.824-1.136c-.135-.4-.305-.9-.517-1.479Zm.048,26.915v-1.668h-3.56v1.668Z" transform="translate(489.802 186.522)"/><path class="w" d="M362.8,3003.154l.493,5.514-.61.133-.488-5.5Z" transform="translate(500.039 182.529)"/><path class="q" d="M357.4,3008.511l1.038-.243a.772.772,0,0,1-.562.243Z" transform="translate(493.326 189.701)"/><path class="af" d="M365.727,3005.318c.74,1.5,1.365,2.946,1.879,4.225l-1.879,2.78Z" transform="translate(504.999 185.565)"/><path class="af" d="M367.972,3006.316v2.145a42.751,42.751,0,0,0-1.9-4.213h.79c.372.658.745,1.348,1.11,2.068" transform="translate(505.482 184.062)"/><path class="ad" d="M370.471,3005.5l.356,4-.054.011-14.139-.945Z" transform="translate(492.247 185.825)"/><path class="af" d="M366.4,3004.248h1.11v2.068c-.365-.72-.738-1.41-1.11-2.068" transform="translate(505.944 184.062)"/><path class="q" d="M370.505,3015.647a51.525,51.525,0,0,0-3.642-9.247v-2.069l.25-.144a63.187,63.187,0,0,1,4.452,9.972,19.2,19.2,0,0,1,.723,2.7,2.3,2.3,0,0,1-1.783-1.21" transform="translate(506.592 183.978)"/><path class="q" d="M362.573,3007.17v.017l-.054-.005Z" transform="translate(500.501 188.161)"/><path class="c" d="M369.008,3014.154a53.591,53.591,0,0,0-2.145-6.9v-2.145a51.54,51.54,0,0,1,3.642,9.247,2.3,2.3,0,0,0,1.783,1.21,18.11,18.11,0,0,1,.3,2.139c.089,1.076.154,2.143.2,3.178H370.4v4.315a3.961,3.961,0,0,0,.975,1.729,2.076,2.076,0,0,0,1.475.606c-.058,2.7-.2,4.449-.2,4.449l.038.01-.038.1h-3.407Z" transform="translate(506.592 185.269)"/><path class="ah" d="M369.008,3014.154a53.591,53.591,0,0,0-2.145-6.9v-2.145a51.54,51.54,0,0,1,3.642,9.247,2.3,2.3,0,0,0,1.783,1.21,18.11,18.11,0,0,1,.3,2.139c.089,1.076.154,2.143.2,3.178H370.4v4.315a3.961,3.961,0,0,0,.975,1.729,2.076,2.076,0,0,0,1.475.606c-.058,2.7-.2,4.449-.2,4.449l.038.01-.038.1h-3.407Z" transform="translate(506.592 185.269)"/><path class="q" d="M363.373,3008.7a.839.839,0,0,0-.7-.448l.307-.031-.01-.149,7.041-1.641v4.341l-1.4,2.071H366.16a.86.86,0,0,1-.754-.452Z" transform="translate(500.714 187.119)"/><path class="q" d="M361.545,3007.652v.949a.741.741,0,0,1-.219.533l-1.038.243h-4.168a.778.778,0,0,1-.774-.776v-.949Z" transform="translate(490.442 188.836)"/><path class="q" d="M371.465,3003.214l.488,5.5-13.838,3.069-.567-.036a2.111,2.111,0,0,1-1.97-2.1v-2.727Z" transform="translate(490.766 182.612)"/><path class="ad" d="M371.108,3001.552l.356,3.991-15.885,3.7V3005Z" transform="translate(490.766 180.283)"/><path class="ac" d="M372.481,3001.559l-.307.026a.887.887,0,0,0-.5-.149H357.409a.862.862,0,0,0-.867.859v9.341l-.716.164h-.935v-11.952H371.8a13.6,13.6,0,0,1,4.245,2.861l-.324.425-1.309.291a15.837,15.837,0,0,0-1.908-1.6Z" transform="translate(489.802 177.893)"/><path class="ag" d="M372.481,3001.559l-.307.026a.887.887,0,0,0-.5-.149H357.409a.862.862,0,0,0-.867.859v9.341l-.716.164h-.935v-11.952H371.8a13.6,13.6,0,0,1,4.245,2.861l-.324.425-1.309.291a15.837,15.837,0,0,0-1.908-1.6Z" transform="translate(489.802 177.893)"/><path class="w" d="M362.653,3001.5l.351,3.981-.605.143-.356-3.991Z" transform="translate(499.832 180.205)"/><path class="ad" d="M366.886,3004.713l-4.238.987-.351-3.981,1.725-.382a25.217,25.217,0,0,1,2.864,3.376" transform="translate(500.188 179.981)"/><path class="w" d="M362.591,3000.809l.183,1.984-.61.135-.207-2.33.308-.027c.111.075.221.154.327.237" transform="translate(499.711 178.907)"/><path class="q" d="M364.128,3002.273l-1.725.382-.183-1.984a15.862,15.862,0,0,1,1.908,1.6" transform="translate(500.082 179.046)"/><path class="q" d="M371.21,3000.659l-.308.026.207,2.33-15.532,3.45v-5.1a.862.862,0,0,1,.867-.859h14.266a.888.888,0,0,1,.5.149" transform="translate(490.766 178.819)"/><path class="c" d="M371.883,3010.417a28.025,28.025,0,0,0-5.71-7.708,13.6,13.6,0,0,0-4.245-2.861h3.921v1.084a47.736,47.736,0,0,1,6.825,9.484Z" transform="translate(499.671 177.893)"/><path class="ah" d="M371.883,3010.417a28.025,28.025,0,0,0-5.71-7.708,13.6,13.6,0,0,0-4.245-2.861h3.921v1.084a47.736,47.736,0,0,1,6.825,9.484Z" transform="translate(499.671 177.893)"/><path class="w" d="M367.5,3010.29h1.778v-2.282c.211.579.382,1.076.517,1.479a.866.866,0,0,1-.824,1.136h-3.822l1.4-2.071v.93h.951Z" transform="translate(504.181 189.335)"/><path class="af" d="M366.678,3010.787h-.951v-.93l1.879-2.78c.329.823.617,1.582.851,2.235v1.475Z" transform="translate(504.999 188.031)"/><rect class="ai" width="1.778" height="0.807" transform="translate(871.676 3198.817)"/><path class="q" d="M362.117,3019.677l.191,1.883h-.6l-.281-1.883Z" transform="translate(498.967 205.699)"/><path class="q" d="M361.714,3019.677h18.16l.091.057a3.7,3.7,0,0,1-3.19,1.826H361.9Z" transform="translate(499.371 205.699)"/><path class="w" d="M380.006,3016.3a1.935,1.935,0,0,1,1.29,1.794v.074a1.9,1.9,0,0,1-.022.26l-.745,4.732a3.646,3.646,0,0,1-.471,1.312l-.091-.058h-18.16l-.161-1.593,2.607.047,12.308.2V3016.4h3.407Z" transform="translate(499.277 200.963)"/><path class="w" d="M362.1,3019.02l.159,1.593h-.69l-.239-1.6Z" transform="translate(498.827 204.764)"/><rect class="w" width="0.743" height="9.793" transform="translate(835.13 3217.468)"/><path class="w" d="M355.167,3016.385v.132a7.5,7.5,0,0,0-.536,2.787v6.873H351.22v-9.792Z" transform="translate(484.654 201.083)"/><path class="w" d="M354.307,3016.385s-1.427,2.69-.923,9.792h-.745V3019.3a7.494,7.494,0,0,1,.536-2.787,1.1,1.1,0,0,1,.055-.132Z" transform="translate(486.645 201.083)"/><path class="ae" d="M380.57,3000.967l-.007,0H351.436c.416-1.077,1.035-1.857,1.737-1.862l21.691-.062A9.333,9.333,0,0,1,380.57,3000.967Z" transform="translate(484.957 176.77)"/><path class="b" d="M380.57,3000.967l-.007,0H351.436c.416-1.077,1.035-1.857,1.737-1.862l21.691-.062A9.333,9.333,0,0,1,380.57,3000.967Z" transform="translate(484.957 176.77)"/><rect class="s" width="3.561" height="1.666" transform="translate(869.942 3217.771)"/><path class="s" d="M369.312,3011.675v6.044a3.961,3.961,0,0,1-.975-1.729v-4.314Z" transform="translate(508.659 194.478)"/><path class="y" d="M370.244,3016.028l-.026,2.3a2.077,2.077,0,0,1-1.475-.606v-6.044h1.405c.07,1.545.1,3.014.1,4.353" transform="translate(509.228 194.478)"/><path class="c" d="M355.167,2999.849v39.726H351.22v-36.848a8.246,8.246,0,0,1,.519-2.878Z" transform="translate(484.654 177.893)"/><path class="ah" d="M355.167,2999.849v39.726H351.22v-36.848a8.246,8.246,0,0,1,.519-2.878Z" transform="translate(484.654 177.893)"/><path class="aj" d="M349.724,3017.765a9.206,9.206,0,0,0,5.422,1.793c3.5.022,5.783-1.941,5.7-4.567-.087-2.817-1.9-4.011-5.273-4.737-1.836-.406-2.6-.661-2.6-1.432,0-.639.875-1.215,2.2-1.215a6.212,6.212,0,0,1,3.5,1.11.293.293,0,0,0,.173.064c.043,0,.084-.043.127-.129l1.132-2.583a.257.257,0,0,0-.065-.3,8.071,8.071,0,0,0-4.737-1.429c-3.522-.022-5.7,1.984-5.615,4.737.086,2.667,1.857,3.906,5.314,4.482,2.241.364,2.583,1.024,2.583,1.557,0,.79-1.067,1.175-2.155,1.175a7.187,7.187,0,0,1-3.993-1.367.29.29,0,0,0-.168-.062.221.221,0,0,0-.173.106l-1.408,2.521a.178.178,0,0,0,.043.275m-7.193-13.232h-5.081a.211.211,0,0,0-.233.233v14.366a.2.2,0,0,0,.211.214h5.593c3.159,0,5.23-1.772,5.187-4.42a3.992,3.992,0,0,0-2.177-3.627,3.485,3.485,0,0,0,1.259-2.711C347.269,3006.154,345.369,3004.533,342.532,3004.533Zm-.171,5.847h-1.879v-2.71l1.665-.022c1.132,0,1.879.491,1.879,1.238C344.026,3009.8,343.493,3010.38,342.361,3010.38Zm.7,2.433c1.132,0,1.879.534,1.879,1.578a1.85,1.85,0,0,1-2.071,1.817l-2.39.02v-3.415Zm-9.309-16.484h30.635a.3.3,0,0,1,.3.3v30.635a.3.3,0,0,1-.3.3H333.756a.3.3,0,0,1-.3-.3v-30.635A.3.3,0,0,1,333.756,2996.329Z" transform="translate(459.738 172.956)"/></g></svg>