<?xml version="1.0" encoding="utf-8"?>
<!-- Generator: Adobe Illustrator 24.2.0, SVG Export Plug-In . SVG Version: 6.00 Build 0)  -->
<svg version="1.1" id="Layer_1" xmlns="http://www.w3.org/2000/svg" xmlns:xlink="http://www.w3.org/1999/xlink" x="0px" y="0px"
	 viewBox="0 0 330 105" style="enable-background:new 0 0 330 105;" xml:space="preserve">
<style type="text/css">
	.st0{fill-rule:evenodd;clip-rule:evenodd;fill:none;}
	.st1{fill:#3D374F;}
	.st2{fill:#5B5978;}
	.st3{fill:#EE4635;}
	.st4{fill:#3A354B;}
	.st5{fill:#CDCCDA;}
	.st6{fill:#B3B4C1;}
	.st7{fill:#1E182A;}
	.st8{fill:#120B19;}
	.st9{fill:#DDDBDC;}
	.st10{fill:#CAC9CB;}
	.st11{fill:#868B99;}
	.st12{fill:#ACADBF;}
	.st13{fill:#43525A;}
	.st14{fill:#49465E;}
	.st15{fill:#647882;}
	.st16{fill:#16111E;}
	.st17{fill:none;stroke:#43525A;stroke-width:0.22;stroke-miterlimit:2.61;}
	.st18{fill:#839CA9;}
	.st19{fill:none;stroke:#839CA9;stroke-width:0.22;stroke-miterlimit:2.61;}
	.st20{fill:#332E42;}
	.st21{fill:none;stroke:#647882;stroke-width:0.22;stroke-miterlimit:2.61;}
	.st22{fill-rule:evenodd;clip-rule:evenodd;fill:#58595B;}
</style>
<rect y="0" class="st0" width="330" height="105"/>
<g>
	<path class="st1" d="M96,92.1c0,1.2-1,2.2-2.2,2.2h-14c-1.1,0-2-0.9-2-2v-0.2L96,92.1z"/>
	<path class="st2" d="M92.3,88.7c0,1.9,1.5,3.4,3.4,3.4H77.3l-2.4,1.8v-3l0.8-0.5v-1.7L92.3,88.7z"/>
	<path class="st3" d="M74.1,94.5v-3.1l0.8-0.6v3L74.1,94.5z"/>
	<path class="st4" d="M89.6,95.1c0.7,0,0.8,1.2,0.1,1.2C88.9,96.3,88.8,95.1,89.6,95.1"/>
	<path class="st4" d="M87.8,96.7c0.8,0,0.8,1.2,0.1,1.2S87,96.7,87.8,96.7"/>
	<path class="st4" d="M87.2,95.6c0-0.4,0.3-0.7,0.7-0.7c0.4,0,0.7,0.3,0.7,0.7c0,0.4-0.3,0.7-0.7,0.7c0,0,0,0,0,0l0,0
		C87.5,96.3,87.2,96,87.2,95.6"/>
	<path class="st4" d="M87.9,94.4c-0.7,0-0.8-1.2-0.1-1.2C88.5,93.3,88.6,94.4,87.9,94.4"/>
	<path class="st4" d="M86.1,95.1c0.7,0,0.8,1.2,0.1,1.2C85.4,96.3,85.4,95.1,86.1,95.1"/>
	<path class="st5" d="M89.6,96.3c0.8,0,0.7-1.2-0.1-1.2S88.9,96.3,89.6,96.3 M87.9,97.8c0.8,0,0.7-1.2-0.1-1.2S87.1,97.8,87.9,97.8z
		 M87.9,94.4c0.8,0,0.7-1.2-0.1-1.2S87.1,94.4,87.9,94.4z M87.8,94.9c-0.4,0-0.7,0.3-0.7,0.7c0,0.4,0.3,0.7,0.7,0.7
		c0.4,0,0.7-0.3,0.7-0.7C88.5,95.2,88.2,94.9,87.8,94.9z M86.1,95.1c-0.8,0-0.7,1.2,0.1,1.2S86.8,95.1,86.1,95.1z M85.2,95.6
		c0-1.5,1.2-2.7,2.7-2.7c1.5,0,2.7,1.2,2.7,2.7c0,1.5-1.2,2.7-2.7,2.7c0,0,0,0,0,0l0,0C86.4,98.2,85.2,97,85.2,95.6L85.2,95.6z"/>
	<path class="st6" d="M87.9,92.9c-1.5,0-2.7,1.2-2.7,2.7c0,1.5,1.2,2.7,2.7,2.7c1.5,0,2.7-1.2,2.7-2.7c0,0,0,0,0,0l0,0
		C90.5,94.1,89.4,92.9,87.9,92.9L87.9,92.9 M83,95.6c0-2.7,2.2-4.8,4.8-4.8s4.8,2.2,4.8,4.8c0,2.7-2.2,4.8-4.8,4.8c0,0,0,0,0,0l0,0
		C85.2,100.4,83,98.2,83,95.6C83,95.6,83,95.6,83,95.6z"/>
	<path class="st1" d="M87.9,90.8c-2.7,0-4.8,2.2-4.8,4.8c0,2.7,2.2,4.8,4.8,4.8c2.7,0,4.8-2.2,4.8-4.8c0,0,0,0,0,0
		C92.7,92.9,90.5,90.8,87.9,90.8L87.9,90.8 M87.9,89c3.6,0,6.6,2.9,6.6,6.6c0,3.6-2.9,6.6-6.6,6.6c-3.6,0-6.6-2.9-6.6-6.6
		c0,0,0,0,0,0l0,0C81.3,91.9,84.2,89,87.9,89L87.9,89L87.9,89z"/>
	<path class="st7" d="M96.2,95.6c0,4.6-3.7,8.4-8.3,8.4c-4.6,0-8.4-3.7-8.4-8.3c0-4.6,3.7-8.4,8.3-8.4c0,0,0.1,0,0.1,0l0,0
		C92.4,87.3,96.1,91,96.2,95.6L96.2,95.6 M87.9,102.2c3.6,0,6.6-3,6.5-6.6c0-3.6-3-6.6-6.6-6.5c-3.6,0-6.5,2.9-6.5,6.5l0,0
		c0,3.6,2.9,6.6,6.5,6.6C87.8,102.2,87.8,102.2,87.9,102.2L87.9,102.2z"/>
	<rect x="156.7" y="83.3" class="st8" width="22.1" height="11.6"/>
	<path class="st4" d="M168.7,95.1c0.7,0,0.8,1.2,0.1,1.2C168,96.3,167.9,95.1,168.7,95.1"/>
	<path class="st4" d="M166.9,96.7c0.8,0,0.8,1.2,0.1,1.2S166.1,96.7,166.9,96.7"/>
	<path class="st4" d="M166.3,95.6c0-0.4,0.3-0.7,0.7-0.7c0.4,0,0.7,0.3,0.7,0.7c0,0.4-0.3,0.7-0.7,0.7l0,0l0,0
		C166.6,96.3,166.3,96,166.3,95.6"/>
	<path class="st4" d="M167,94.4c-0.7,0-0.8-1.2-0.1-1.2S167.8,94.4,167,94.4"/>
	<path class="st4" d="M165.2,95.1c0.7,0,0.8,1.2,0.1,1.2S164.5,95.1,165.2,95.1"/>
	<path class="st5" d="M168.8,96.3c0.8,0,0.7-1.2-0.1-1.2C167.9,95.1,168,96.3,168.8,96.3 M167,97.8c0.8,0,0.7-1.2-0.1-1.2
		C166.1,96.7,166.2,97.8,167,97.8z M167,94.4c0.8,0,0.7-1.2-0.1-1.2S166.3,94.4,167,94.4z M167,94.9c-0.4,0-0.7,0.3-0.7,0.7
		c0,0,0,0,0,0c0,0.4,0.3,0.7,0.7,0.7c0.4,0,0.7-0.3,0.7-0.7C167.7,95.2,167.4,94.9,167,94.9L167,94.9z M165.2,95.1
		c-0.8,0-0.7,1.2,0.1,1.2C166.1,96.3,166,95.1,165.2,95.1z M164.3,95.6c0-1.5,1.2-2.7,2.7-2.7s2.7,1.2,2.7,2.7
		c0,1.5-1.2,2.7-2.7,2.7l0,0C165.5,98.3,164.3,97.1,164.3,95.6C164.3,95.6,164.3,95.6,164.3,95.6L164.3,95.6z"/>
	<path class="st6" d="M167,92.9c-1.5,0-2.7,1.2-2.7,2.7c0,1.5,1.2,2.7,2.7,2.7c1.5,0,2.7-1.2,2.7-2.7c0,0,0,0,0,0
		C169.7,94.1,168.5,92.9,167,92.9C167,92.9,167,92.9,167,92.9L167,92.9 M162.2,95.6c0-2.7,2.2-4.8,4.8-4.8s4.8,2.2,4.8,4.8
		c0,2.7-2.2,4.8-4.8,4.8l0,0l0,0C164.3,100.4,162.2,98.2,162.2,95.6C162.2,95.6,162.2,95.6,162.2,95.6z"/>
	<path class="st1" d="M167,90.8c-2.7,0-4.8,2.1-4.8,4.8c0,2.7,2.1,4.8,4.8,4.8s4.8-2.1,4.8-4.8c0,0,0,0,0,0
		C171.8,92.9,169.6,90.8,167,90.8L167,90.8 M167,89c3.6,0,6.6,2.9,6.6,6.6c0,3.6-2.9,6.6-6.6,6.6c-3.6,0-6.6-2.9-6.6-6.6
		c0,0,0,0,0,0l0,0C160.4,91.9,163.3,89,167,89z"/>
	<path class="st7" d="M175.3,95.6c0,4.6-3.7,8.4-8.3,8.4c-4.6,0-8.4-3.7-8.4-8.3c0-4.6,3.7-8.4,8.3-8.4c0,0,0,0,0.1,0
		C171.6,87.3,175.3,91,175.3,95.6L175.3,95.6 M167,102.2c3.6,0,6.6-2.9,6.6-6.6S170.6,89,167,89c-3.6,0-6.6,2.9-6.6,6.5l0,0
		C160.4,99.2,163.3,102.2,167,102.2C166.9,102.2,167,102.2,167,102.2z"/>
	<rect x="97.4" y="90.3" class="st7" width="45.8" height="4.9"/>
	<path class="st1" d="M146.6,88.7v-2.3h1.1v2.7h2.2v2.1c0,0,0,1.7,3.1,1.7v1.3h4.4V97h-16.8v-8.3H146.6z"/>
	<rect x="76.1" y="55.7" class="st9" width="72.5" height="2.3"/>
	<rect x="76.1" y="52.9" class="st10" width="72.5" height="2.7"/>
	<rect x="76.1" y="50.2" class="st9" width="72.5" height="2.7"/>
	<rect x="76.1" y="47.5" class="st10" width="72.5" height="2.7"/>
	<rect x="76.1" y="45" class="st9" width="72.5" height="2.5"/>
	<path class="st2" d="M126.3,90.4l0.5-1.7H145v1.7H126.3z"/>
	<path class="st11" d="M123,89.9h-4.3v-1.1h6.7l0,0h1.3l-0.5,1.7l-0.5,0.7c-0.6,0.6-1.5,1-2.4,1h-4.6v-0.8h4.3V89.9z"/>
	<rect x="118.7" y="89.9" class="st6" width="4.3" height="1.4"/>
	<rect x="115.9" y="91.2" class="st4" width="2.8" height="0.8"/>
	<rect x="115.9" y="89.9" class="st6" width="2.8" height="1.4"/>
	<rect x="115.9" y="88.7" class="st4" width="2.8" height="1.1"/>
	<rect x="115.9" y="88.7" class="st2" width="2.8" height="0"/>
	<rect x="103" y="91.2" class="st11" width="12.9" height="0.8"/>
	<rect x="103" y="89.9" class="st6" width="12.9" height="1.4"/>
	<rect x="103" y="88.7" class="st11" width="12.9" height="1.1"/>
	<rect x="76.1" y="60.7" class="st9" width="72.5" height="2.7"/>
	<rect x="100.2" y="91.2" class="st4" width="2.8" height="0.8"/>
	<rect x="100.2" y="89.9" class="st6" width="2.8" height="1.4"/>
	<rect x="100.2" y="88.7" class="st4" width="2.8" height="1.1"/>
	<rect x="100.2" y="88.7" class="st2" width="2.8" height="0"/>
	<rect x="93.7" y="87.4" class="st2" width="31.7" height="1.5"/>
	<rect x="76.1" y="82.1" class="st9" width="72.5" height="2.6"/>
	<rect x="76.1" y="79.4" class="st10" width="72.5" height="2.7"/>
	<rect x="76.1" y="76.9" class="st9" width="72.5" height="2.5"/>
	<rect x="76.1" y="74.1" class="st10" width="72.5" height="2.7"/>
	<rect x="76.1" y="71.4" class="st9" width="72.5" height="2.7"/>
	<rect x="76.1" y="68.7" class="st10" width="72.5" height="2.7"/>
	<rect x="76.1" y="66.2" class="st9" width="72.5" height="2.4"/>
	<rect x="76.1" y="63.5" class="st10" width="72.5" height="2.7"/>
	<rect x="96" y="89.9" class="st6" width="4.2" height="1.4"/>
	<path class="st11" d="M96,92.1h-0.3c-1.9,0-3.4-1.5-3.4-3.4h1.4v0h6.5v1.1H96v1.4h4.2v0.8H96z"/>
	<rect x="76.1" y="58" class="st10" width="72.5" height="2.7"/>
	<path class="st12" d="M73.6,41.9v46.8h20.1v-1.3h31.7v1.3h16.2l0,0h9.5V41.9H73.6z M148.6,85.6H76.1V45h72.5V85.6z"/>
	<rect x="141.6" y="86.7" class="st3" width="4" height="0.6"/>
	<rect x="136" y="86.7" class="st3" width="4" height="0.6"/>
	<rect x="83.2" y="86.9" class="st3" width="4" height="0.6"/>
	<rect x="77.6" y="86.9" class="st3" width="4" height="0.6"/>
	<rect x="76.1" y="84.7" class="st1" width="72.5" height="0.8"/>
	<path class="st13" d="M179.7,58.3c1.9,1.8,3.5,4,4.7,6.4h-0.7v2.1c-0.2-0.3-0.3-0.7-0.5-1l0,0c-0.7-1.4-1.6-2.8-2.5-4.1
		c-0.7-1-1.5-1.9-2.4-2.8l1.1-0.2L179.7,58.3z"/>
	<path class="st14" d="M183.8,66.8V69l-5.8,1.4l-0.3-3.3l5.6-1.3l0,0L183.8,66.8"/>
	<path class="st1" d="M183.3,65.8l-5.6,1.3l-0.4-4.6l3.5-0.8C181.7,62.9,182.5,64.3,183.3,65.8"/>
	<path class="st1" d="M180,56.4c2.5,2.4,4.6,5.1,6.2,8.2l-0.2,0.1h-0.9c-1.6-2.8-3.5-5.5-5.7-7.9v-0.9l0,0
		C179.7,56,179.8,56.2,180,56.4"/>
	<path class="st15" d="M177.8,94.1L177.8,94.1h-2.2l-0.5-5c-0.6-2.4-2.8-4.1-5.3-4.1H164c-2.5,0-4.8,1.5-5.7,3.8l0,0V55.9h4v27.6
		h9.3c2.3,0,4.2,1.5,4.8,3.7L177.8,94.1z"/>
	<path class="st7" d="M177.4,70.5l-0.3-3.3l0.5-0.1l0.3,3.3L177.4,70.5z"/>
	<path class="st7" d="M177.9,70.3v0.1h-0.3l0,0h-0.2l0,0L177.9,70.3z"/>
	<path class="st16" d="M185.3,70.3c-0.4-1.1-0.9-2.3-1.6-3.5v-2.1h0.7c0.6,1.1,1.1,2.3,1.6,3.5v4C185.8,71.6,185.6,71,185.3,70.3"/>
	<path class="st13" d="M165.7,69.7l11.7,0.8l-9.3,2.1c0.1-0.1,0.2-0.3,0.2-0.4v-0.8h-5.1v0.8h-0.9v-6.4h0.8l0.6-0.1v2.3
		c0,0.9,0.7,1.7,1.7,1.7L165.7,69.7z"/>
	<path class="st17" d="M165.7,69.7l11.7,0.8l-9.3,2.1c0.1-0.1,0.2-0.3,0.2-0.4v-0.8h-5.1v0.8h-0.9v-6.4h0.8l0.6-0.1v2.3
		c0,0.9,0.7,1.7,1.7,1.7L165.7,69.7z"/>
	<path class="st13" d="M186,68.1c0.7,1.9,1.3,3.8,1.8,5.7l0.2,14.9v5.5l-10.2-0.2l0,0l-1.4-6.9c-0.6-2.2-2.6-3.7-4.8-3.7h-9.4V72.2
		h0.9c0,0.4,0.3,0.6,0.6,0.6h3.8c0.2,0,0.3-0.1,0.5-0.2l9.3-2.2h0l0,0h0.2l0,0c0.2,0,0.5,0.1,0.6,0.4l1.7,3.1
		c0.1,0.2,0.4,0.4,0.6,0.4h5.2c0.4,0,0.7-0.3,0.7-0.7c0-0.1,0-0.1,0-0.2c-0.1-0.3-0.3-0.7-0.4-1.2L186,68.1z M186,90.4v-1.4h-2.9
		v1.4H186z"/>
	<path class="st7" d="M177.2,62.5l0.4,4.6l-0.5,0.1l-0.4-4.6L177.2,62.5z"/>
	<path class="st1" d="M167.2,72.9l0.8-0.2c-0.1,0.1-0.3,0.2-0.5,0.2H167.2z"/>
	<path class="st16" d="M183.8,66.8c0.6,1.2,1.1,2.4,1.6,3.5l-1.6,2.3V66.8z"/>
	<path class="st16" d="M186,66.4v1.8c-0.5-1.2-1-2.4-1.6-3.5h0.7C185.4,65.2,185.7,65.8,186,66.4"/>
	<path class="st14" d="M177.1,67.2l0.3,3.3h0l-11.7-0.8L177.1,67.2z"/>
	<path class="st16" d="M185.1,64.7h0.9v1.7C185.7,65.8,185.4,65.2,185.1,64.7"/>
	<path class="st1" d="M189.1,74c-0.8-2.6-1.8-5.2-3-7.7v-1.7l0.2-0.1c1.5,2.6,2.7,5.4,3.7,8.3c0.3,0.7,0.5,1.5,0.6,2.2
		C189.9,75,189.3,74.6,189.1,74"/>
	<path class="st1" d="M177.4,70.5L177.4,70.5L177.4,70.5L177.4,70.5z"/>
	<path class="st18" d="M187.8,73.9c-0.5-1.9-1.1-3.9-1.8-5.7v-1.8c1.3,2.5,2.3,5,3,7.7c0.3,0.6,0.9,0.9,1.5,1
		c0.1,0.6,0.2,1.2,0.2,1.8c0.1,0.9,0.1,1.8,0.2,2.6h-2V83c0.2,0.5,0.4,1,0.8,1.4c0.3,0.3,0.8,0.5,1.2,0.5c0,2.2-0.2,3.7-0.2,3.7l0,0
		v0.1H188L187.8,73.9z"/>
	<path class="st19" d="M187.8,73.9c-0.5-1.9-1.1-3.9-1.8-5.7v-1.8c1.3,2.5,2.3,5,3,7.7c0.3,0.6,0.9,0.9,1.5,1
		c0.1,0.6,0.2,1.2,0.2,1.8c0.1,0.9,0.1,1.8,0.2,2.6h-2V83c0.2,0.5,0.4,1,0.8,1.4c0.3,0.3,0.8,0.5,1.2,0.5c0,2.2-0.2,3.7-0.2,3.7l0,0
		v0.1H188L187.8,73.9z"/>
	<path class="st1" d="M178.3,70.9c-0.1-0.2-0.3-0.4-0.6-0.4h0.3v-0.1l5.8-1.4v3.6l-1.2,1.7h-2c-0.3,0-0.5-0.2-0.6-0.4L178.3,70.9z"
		/>
	<path class="st1" d="M168.2,71.4v0.8c0,0.2-0.1,0.3-0.2,0.4l-0.8,0.2h-3.5c-0.4,0-0.6-0.3-0.6-0.6v-0.8H168.2z"/>
	<path class="st1" d="M176.7,62.6l0.4,4.6l-11.5,2.5h-0.5c-0.9,0-1.7-0.8-1.7-1.7v-2.3L176.7,62.6z"/>
	<path class="st14" d="M176.4,59.3l0.3,3.3l-13.2,3.1v-3.5L176.4,59.3z"/>
	<path class="st13" d="M176.8,57.3h-0.3c-0.1-0.1-0.3-0.1-0.4-0.1h-11.8c-0.4,0-0.7,0.3-0.7,0.7c0,0,0,0,0,0l0,0v7.7l-0.6,0.1h-0.8
		v-9.9h14c1.3,0.6,2.5,1.4,3.5,2.5l-0.3,0.3l-1.1,0.2c-0.5-0.5-1-0.9-1.6-1.3L176.8,57.3z"/>
	<path class="st17" d="M176.8,57.3h-0.3c-0.1-0.1-0.3-0.1-0.4-0.1h-11.8c-0.4,0-0.7,0.3-0.7,0.7c0,0,0,0,0,0l0,0v7.7l-0.6,0.1h-0.8
		v-9.9h14c1.3,0.6,2.5,1.4,3.5,2.5l-0.3,0.3l-1.1,0.2c-0.5-0.5-1-0.9-1.6-1.3L176.8,57.3z"/>
	<path class="st7" d="M177,59.2l0.3,3.3l-0.5,0.1l-0.3-3.3L177,59.2z"/>
	<path class="st14" d="M180.8,61.7l-3.5,0.8l-0.3-3.3l1.4-0.3C179.3,59.7,180,60.7,180.8,61.7"/>
	<path class="st7" d="M176.8,57.5l0.1,1.7l-0.5,0.1l-0.2-1.9h0.3L176.8,57.5"/>
	<path class="st1" d="M178.4,58.9l-1.4,0.3l-0.1-1.7C177.4,57.9,177.9,58.4,178.4,58.9"/>
	<path class="st1" d="M176.5,57.3h-0.3l0.2,1.9l-12.9,2.9v-4.2c0-0.4,0.3-0.7,0.7-0.7l0,0h11.8C176.3,57.2,176.4,57.2,176.5,57.3"/>
	<path class="st18" d="M184.5,64.7c-1.2-2.4-2.8-4.5-4.7-6.4c-1-1-2.2-1.8-3.5-2.4h3.3v0.9c2.2,2.4,4.1,5,5.6,7.9H184.5z"/>
	<path class="st19" d="M184.5,64.7c-1.2-2.4-2.8-4.5-4.7-6.4c-1-1-2.2-1.8-3.5-2.4h3.3v0.9c2.2,2.4,4.1,5,5.6,7.9H184.5z"/>
	<path class="st7" d="M184.6,74h1.5v-1.9c0.2,0.5,0.3,0.9,0.4,1.2c0.1,0.4-0.1,0.8-0.5,0.9c-0.1,0-0.1,0-0.2,0h-3.2l1.2-1.7v0.8h0.8
		L184.6,74z"/>
	<path class="st16" d="M184.6,73.4h-0.8v-0.8l1.6-2.3c0.3,0.7,0.5,1.3,0.7,1.9v1.2H184.6z"/>
	<rect x="184.6" y="73.4" class="st20" width="1.5" height="0.7"/>
	<path class="st1" d="M175.8,95.4l0.2,1.6h-0.5l-0.2-1.6H175.8z"/>
	<path class="st1" d="M175.8,95.4h15l0.1,0c-0.6,0.9-1.6,1.5-2.6,1.5h-12.3L175.8,95.4z"/>
	<path class="st7" d="M190.9,88.6c0.6,0.2,1.1,0.8,1.1,1.5v0.1c0,0.1,0,0.1,0,0.2l-0.6,3.9c-0.1,0.4-0.2,0.8-0.4,1.1l-0.1,0h-15.1
		l-0.1-1.3h2.2l10.2,0.2v-5.5L190.9,88.6L190.9,88.6z"/>
	<path class="st7" d="M175.7,94l0.1,1.3h-0.6l-0.2-1.3L175.7,94z"/>
	<rect x="154.3" y="88.8" class="st7" width="0.6" height="8.1"/>
	<path class="st7" d="M158.2,88.8v0.1c-0.3,0.7-0.4,1.5-0.4,2.3v5.7h-2.8v-8.1H158.2z"/>
	<path class="st7" d="M159.1,88.8c0,0-1.2,2.2-0.8,8.1h-0.6v-5.7c0-0.8,0.2-1.6,0.4-2.3c0,0,0-0.1,0-0.1H159.1z"/>
	<path class="st15" d="M179.5,55.9h-24.1c0.3-0.9,0.8-1.5,1.4-1.5l18,0C176.5,54.3,178.1,54.9,179.5,55.9z"/>
	<path class="st21" d="M179.5,55.9h-24.1c0.3-0.9,0.8-1.5,1.4-1.5l18,0C176.5,54.3,178.1,54.9,179.5,55.9z"/>
	<rect x="183.1" y="89.1" class="st3" width="2.9" height="1.4"/>
	<path class="st3" d="M189.8,79.4v5c-0.4-0.4-0.7-0.9-0.8-1.4v-3.5H189.8z"/>
	<path class="st9" d="M191,83v1.9c-0.5,0-0.9-0.2-1.2-0.5v-5h1.2C191,80.7,191,82,191,83"/>
	<path class="st18" d="M158.2,55.9v32.9h-3.3V58.3c0-0.8,0.1-1.6,0.4-2.4L158.2,55.9z"/>
	<path class="st19" d="M158.2,55.9v32.9h-3.3V58.3c0-0.8,0.1-1.6,0.4-2.4L158.2,55.9z"/>
	<path class="st22" d="M133,66.6c1.3,1,2.9,1.5,4.5,1.5c2.9,0,4.8-1.6,4.7-3.8c-0.1-2.3-1.6-3.3-4.4-3.9c-1.5-0.3-2.2-0.5-2.2-1.2
		c0-0.6,0.7-1,1.8-1c1,0,2,0.3,2.9,0.9c0,0,0.1,0,0.1,0c0,0,0.1,0,0.1-0.1l0.9-2.1c0-0.1,0-0.2-0.1-0.2c-1.1-0.8-2.5-1.2-3.9-1.2
		c-2.9,0-4.7,1.7-4.7,3.9c0.1,2.3,1.5,3.2,4.4,3.7c1.9,0.3,2.1,0.8,2.1,1.3c0,0.7-0.9,1-1.8,1c-1.2,0-2.3-0.4-3.3-1.1
		c0,0-0.1,0-0.1,0c-0.1,0-0.1,0-0.1,0.1l-1.2,2.1C132.9,66.4,132.9,66.5,133,66.6L133,66.6 M127.1,55.7h-4.2c-0.1,0-0.2,0-0.2,0.1
		v12c0,0.1,0.1,0.2,0.1,0.2c0,0,0,0,0,0h4.7c2.7,0,4.3-1.5,4.3-3.7c0-1.3-0.7-2.4-1.8-3c0.7-0.6,1.1-1.4,1-2.2
		C131,57,129.4,55.7,127.1,55.7L127.1,55.7z M126.9,60.5h-1.6v-2.2h1.4c0.9,0,1.6,0.4,1.6,1C128.3,60.1,127.9,60.6,126.9,60.5
		L126.9,60.5z M127.5,62.5c0.9,0,1.6,0.4,1.6,1.3c0,0.8-0.7,1.5-1.5,1.5c0,0,0,0,0,0h-0.2h-2v-2.8H127.5z M119.8,48.9h25.4
		c0.1,0,0.2,0.1,0.2,0.2v0l0,0v25.4c0,0.1-0.1,0.2-0.2,0.2l0,0h-25.4c-0.1,0-0.2-0.1-0.2-0.2c0,0,0,0,0,0l0,0V49.2
		C119.6,49.1,119.7,48.9,119.8,48.9C119.8,48.9,119.8,48.9,119.8,48.9L119.8,48.9z"/>
</g>
</svg>
