<?xml version="1.0" encoding="utf-8"?>
<!-- Generator: Adobe Illustrator 24.1.3, SVG Export Plug-In . SVG Version: 6.00 Build 0)  -->
<svg version="1.1" id="Layer_1" xmlns="http://www.w3.org/2000/svg" xmlns:xlink="http://www.w3.org/1999/xlink" x="0px" y="0px"
	 viewBox="0 0 512 512" style="enable-background:new 0 0 512 512;" xml:space="preserve">
<style type="text/css">
	.st0{fill:#FFFFFF;}
</style>
<path class="st0" d="M123.8,475.5c39.6,23.8,84.8,36.4,131.3,36.4c140.8,0,256.9-114.9,256.9-255.9C512,115.1,396.1,0,255.1,0
	C114.5,0,0.2,114.8,0.2,255.9c0,47.1,12.6,92.7,36.4,132.3L0,512L123.8,475.5z M30.2,255.9C30.2,131.3,131.1,30,255.1,30
	C380.2,30,482,131.3,482,255.9c0,124.6-101.8,225.9-226.9,225.9c-43.1,0-84.9-12.2-121-35.3l-5.8-3.7l-84,24.8l24.8-84l-3.7-5.8
	C42.4,341.8,30.2,299.6,30.2,255.9z"/>
<path class="st0" d="M124.6,208.8c5,26,19.7,76,62.5,118.9s92.8,57.5,118.9,62.5c29.8,5.7,73.5,6.5,94.9-14.8l11.9-11.9
	c6-6,9.3-14,9.3-22.5s-3.3-16.5-9.3-22.5l-47.6-47.6c-6-6-14-9.3-22.5-9.3s-16.5,3.3-22.5,9.3l-11.9,11.9c-7.3,7.3-21,7.3-28.3,0.1
	l-47.5-49.5c-0.1-0.1-0.1-0.1-0.2-0.2c-7.3-7.3-7.3-19.1,0-26.4l11.9-11.9c12.4-12.4,12.4-32.6,0-45L196.4,102
	c-12.4-12.4-32.6-12.4-45,0l-11.9,11.9v0C122.4,130.9,116.7,167.3,124.6,208.8z M160.7,135.1c12.5-12.2,11.8-12.4,13.2-12.4
	c0.5,0,0.9,0.2,1.3,0.5c50.2,50.5,48.2,47.5,48.2,48.9c0,0.5-0.2,0.9-0.5,1.3l-11.9,11.9c-19,19-19,49.7-0.1,68.7l47.5,49.5
	c0.1,0.1,0.1,0.1,0.2,0.2c19,19,51.8,19,70.8,0l11.9-11.9c0.7-0.7,1.9-0.7,2.6,0c50.2,50.5,48.2,47.5,48.2,48.9
	c0,0.5-0.2,0.9-0.5,1.3L379.6,354c-8.2,8.2-34.2,13-68.1,6.6c-22.6-4.3-66.1-17.1-103.3-54.2s-49.9-80.6-54.2-103.3
	C147.6,169.2,152.5,143.2,160.7,135.1z"/>
</svg>
