<?xml version="1.0" encoding="utf-8"?>
<!-- Generator: Adobe Illustrator 24.2.1, SVG Export Plug-In . SVG Version: 6.00 Build 0)  -->
<svg version="1.1"
	 id="Layer_1" shape-rendering="geometricPrecision" image-rendering="optimizeQuality" text-rendering="geometricPrecision"
	 xmlns="http://www.w3.org/2000/svg" xmlns:xlink="http://www.w3.org/1999/xlink" x="0px" y="0px" viewBox="0 0 250 250"
	 style="enable-background:new 0 0 250 250;" xml:space="preserve">
<style type="text/css">
	.st0{fill:none;stroke:#FFFFFF;stroke-width:0.5002;stroke-miterlimit:10;}
	.st1{fill:#5C5D5E;}
	.st2{fill:#454445;}
	.st3{fill:#838194;}
	.st4{fill:#6F78A6;}
	.st5{fill:#7EB3A0;}
	.st6{fill:#91C499;}
	.st7{fill:#B6D9CB;}
	.st8{fill:#B8CBB2;}
	.st9{fill:#98C6B3;}
	.st10{fill:#56747C;}
	.st11{fill:#BEDCC5;}
	.st12{fill:#C7D6B9;}
	.st13{fill:#6F99A2;}
	.st14{fill:#E3BEA0;}
	.st15{fill:#DCCCBD;}
	.st16{fill:#DBAB88;}
	.st17{fill:#D15985;}
	.st18{fill:#D98193;}
	.st19{fill:#D89570;}
	.st20{fill:#D56E96;}
	.st21{fill:#CC6477;}
	.st22{fill:#AABD70;}
	.st23{fill:#5E6C60;}
	.st24{fill:#DACB61;}
	.st25{fill:#B4A27F;}
	.st26{fill:#777267;}
	.st27{fill:#757355;}
	.st28{fill:#8E9762;}
	.st29{fill:#B5CDA6;}
	.st30{fill:#E1E46C;}
	.st31{fill:#5A5751;}
	.st32{fill:#68704C;}
	.st33{fill:#D4DADE;}
	.st34{fill:#A8AAAC;}
	.st35{fill:#49534A;}
	.st36{fill:#5D5D46;}
	.st37{fill:#BCAF58;}
	.st38{fill:#A05867;}
	.st39{fill:#76454F;}
	.st40{fill:#E6AFAD;}
	.st41{fill:#DC8B8B;}
	.st42{fill:#A05261;}
	.st43{fill:#394C4D;}
	.st44{fill:#464C4F;}
	.st45{fill:#5C656A;}
	.st46{fill:#808080;}
	.st47{fill:#293030;}
	.st48{fill:#5D6B75;}
	.st49{fill:#D3D4D6;}
	.st50{fill:#D25B58;}
	.st51{fill:#EFC451;}
	.st52{fill:#8FCDF4;}
	.st53{fill:#87C2A8;}
	.st54{fill:#537467;}
	.st55{fill:#ACD4CB;}
	.st56{fill:#598949;}
	.st57{fill:#74B55A;}
	.st58{fill:#4E7842;}
	.st59{fill:#406138;}
	.st60{fill:#F4D37E;}
	.st61{fill:#CF6D7C;}
	.st62{fill:#FFFFFF;}
	.st63{fill-rule:evenodd;clip-rule:evenodd;}
	.st64{fill-rule:evenodd;clip-rule:evenodd;fill:#FFFFFF;}
</style>
<g id="Layer_x0020_1">
	<rect x="-21" y="-21" class="st0" width="292" height="292"/>
	<g id="_2861462878928">
		<g>
			<polygon class="st1" points="8.1,221.2 87,221.2 87,64.9 8.1,64.9 			"/>
			<polygon class="st2" points="12.3,102.7 83.1,102.7 83.1,71.9 12.3,71.9 			"/>
			<polygon class="st2" points="12.3,138.5 83.1,138.5 83.1,107.6 12.3,107.6 			"/>
			<polygon class="st2" points="12.3,174.3 83.1,174.3 83.1,143.1 12.3,143.1 			"/>
			<polygon class="st2" points="12.3,209.7 83.1,209.7 83.1,178.8 12.3,178.8 			"/>
			<polygon class="st3" points="15.8,102.7 25.6,102.7 25.6,75.7 15.8,75.7 			"/>
			<polygon class="st4" points="29.1,102.7 33.7,102.7 33.7,78.9 29.1,78.9 			"/>
			<polygon class="st5" points="37.2,102.7 42.1,102.7 42.1,74.3 37.2,74.3 			"/>
			<polygon class="st6" points="44.9,102.7 50.5,102.7 50.5,74.3 44.9,74.3 			"/>
			<polygon class="st3" points="53,102.7 59.3,102.7 59.3,78.9 53,78.9 			"/>
			<polygon class="st7" points="63.1,102.7 67.3,102.7 67.3,74.3 63.1,74.3 			"/>
			<polygon class="st8" points="70.5,102.7 77.5,102.7 77.5,77.2 70.5,77.2 			"/>
			<polygon class="st8" points="12.3,102.7 15.8,102.7 15.8,73.6 12.3,73.6 			"/>
			<polygon class="st9" points="25.6,102.7 29.1,102.7 29.1,74.3 25.6,74.3 			"/>
			<polygon class="st10" points="33.7,102.7 37.2,102.7 37.2,78.9 33.7,78.9 			"/>
			<polygon class="st5" points="42.1,102.7 44.9,102.7 44.9,76.5 42.1,76.5 			"/>
			<polygon class="st11" points="50.5,102.7 53,102.7 53,79.6 50.5,79.6 			"/>
			<polygon class="st12" points="59.3,102.7 63.1,102.7 63.1,76.5 59.3,76.5 			"/>
			<polygon class="st13" points="67.3,102.7 70.5,102.7 70.5,78.2 67.3,78.2 			"/>
			<polygon class="st3" points="77.5,102.7 83.1,102.7 83.1,75 77.5,75 			"/>
			<polygon class="st3" points="15.8,209.7 25.6,209.7 25.6,183.7 15.8,183.7 			"/>
			<polygon class="st4" points="29.1,209.7 34,209.7 34,186.9 29.1,186.9 			"/>
			<polygon class="st5" points="37.2,209.7 42.1,209.7 42.1,182.7 37.2,182.7 			"/>
			<polygon class="st6" points="45.3,209.7 50.5,209.7 50.5,182.7 45.3,182.7 			"/>
			<polygon class="st8" points="12.3,209.7 15.8,209.7 15.8,182 12.3,182 			"/>
			<polygon class="st9" points="25.6,209.7 29.1,209.7 29.1,182.7 25.6,182.7 			"/>
			<polygon class="st10" points="34,209.7 37.2,209.7 37.2,186.9 34,186.9 			"/>
			<polygon class="st5" points="42.1,209.7 45.3,209.7 45.3,184.4 42.1,184.4 			"/>
			<polygon class="st14" points="78.2,174.3 83.1,174.3 83.1,145.9 78.2,145.9 			"/>
			<polygon class="st15" points="70.1,174.3 75.4,174.3 75.4,145.9 70.1,145.9 			"/>
			<polygon class="st16" points="61.4,174.3 67.3,174.3 67.3,150.1 61.4,150.1 			"/>
			<polygon class="st17" points="53.3,174.3 57.5,174.3 57.5,145.9 53.3,145.9 			"/>
			<polygon class="st18" points="75.4,174.3 78.2,174.3 78.2,147.6 75.4,147.6 			"/>
			<polygon class="st19" points="67.3,174.3 70.1,174.3 70.1,150.8 67.3,150.8 			"/>
			<polygon class="st20" points="57.5,174.3 61.4,174.3 61.4,147.6 57.5,147.6 			"/>
			<polygon class="st21" points="48.1,174.3 53.3,174.3 53.3,149.4 48.1,149.4 			"/>
			<polygon class="st22" points="49.1,138.5 58.9,138.5 58.9,111.2 49.1,111.2 			"/>
			<polygon class="st23" points="24.6,138.5 29.5,138.5 29.5,114.3 24.6,114.3 			"/>
			<polygon class="st24" points="63.5,138.5 68.4,138.5 68.4,110.1 63.5,110.1 			"/>
			<polygon class="st25" points="40.7,138.5 46.3,138.5 46.3,110.1 40.7,110.1 			"/>
			<polygon class="st24" points="15.8,138.5 21.1,138.5 21.1,111.9 15.8,111.9 			"/>
			<polygon class="st26" points="78.6,138.5 83.1,138.5 83.1,110.1 78.6,110.1 			"/>
			<polygon class="st23" points="71.5,138.5 78.6,138.5 78.6,112.6 71.5,112.6 			"/>
			<polygon class="st27" points="12.3,138.5 15.8,138.5 15.8,109.1 12.3,109.1 			"/>
			<polygon class="st28" points="21.1,138.5 24.6,138.5 24.6,110.1 21.1,110.1 			"/>
			<polygon class="st26" points="29.5,138.5 32.6,138.5 32.6,114.3 29.5,114.3 			"/>
			<polygon class="st29" points="37.9,138.5 40.7,138.5 40.7,111.9 37.9,111.9 			"/>
			<polygon class="st30" points="46.3,138.5 49.1,138.5 49.1,115 46.3,115 			"/>
			<polygon class="st27" points="58.9,138.5 63.5,138.5 63.5,111.9 58.9,111.9 			"/>
			<polygon class="st28" points="68.4,138.5 71.5,138.5 71.5,113.6 68.4,113.6 			"/>
			<polygon class="st31" points="32.6,138.5 37.9,138.5 37.9,110.8 32.6,110.8 			"/>
			<polygon class="st1" points="43.5,176 48.1,176 48.1,141.7 43.5,141.7 			"/>
			<polygon class="st1" points="50.9,211.4 55.4,211.4 55.4,177.1 50.9,177.1 			"/>
			<path class="st28" d="M81.4,195.6H61.7c-1.8,0-3.2,1.4-3.2,3.2s1.4,3.2,3.2,3.2h19.6V195.6z"/>
			<path class="st32" d="M65.6,198.8c0-1.8,1.4-3.2,2.8-3.2h-6.7c-1.8,0-3.2,1.4-3.2,3.2s1.4,3.2,3.2,3.2h6.7
				C67,201.9,65.6,200.5,65.6,198.8z"/>
			<path class="st33" d="M81.4,196.3H69.8c-1.1,0-2.1,1.1-2.1,2.5c0,1.1,1.1,2.5,2.1,2.5h11.6V196.3z"/>
			<path class="st34" d="M69.8,196.3c-0.4,0-0.7,0-1.1,0.4l0,0h12.6v-0.4H69.8z"/>
			<path class="st34" d="M68,197.4L68,197.4h-0.4h13.7V197H68V197.4z"/>
			<path class="st34" d="M67.7,198.1v0.4l0,0h13.7v-0.4H67.7L67.7,198.1z"/>
			<path class="st34" d="M67.7,199.1L67.7,199.1L67.7,199.1h13.7l0,0H67.7L67.7,199.1z"/>
			<path class="st34" d="M68,199.8c0,0.4,0,0.4,0,0.4l0,0h13.3v-0.4H67.7H68z"/>
			<path class="st34" d="M68.7,200.9c0.4,0,0.7,0.4,1.1,0.4h11.6v-0.4H68.7L68.7,200.9z"/>
			<path class="st23" d="M80.3,201.9h-20c-1.4,0-3.2,1.1-3.2,3.9c0,2.5,1.8,3.9,3.2,3.9h20V201.9z"/>
			<path class="st35" d="M62.1,205.8c0-2.5,1.8-3.9,3.2-3.9h-4.9c-1.4,0-3.2,1.1-3.2,3.9c0,2.5,1.8,3.9,3.2,3.9h4.9
				C63.8,209.7,62.1,208.3,62.1,205.8z"/>
			<path class="st33" d="M80.3,202.3H65.9c-0.7,0-2.5,1.4-2.5,3.5c0,2.5,1.8,3.5,2.5,3.5h14.4V202.3z"/>
			<path class="st34" d="M66.3,202.3c-0.4,0-0.7,0-1.1,0v0.4h15.1v-0.4H66.3z"/>
			<path class="st34" d="M64.5,203c0,0.4-0.4,0.4-0.4,0.4l0,0h16.1V203H64.5L64.5,203z"/>
			<path class="st34" d="M63.8,204L63.8,204v0.4h16.5V204H63.8L63.8,204z"/>
			<path class="st34" d="M63.5,204.7v0.4l0,0h16.8v-0.4H63.5L63.5,204.7z"/>
			<polygon class="st34" points="63.5,205.8 63.5,205.8 63.5,205.8 63.5,205.8 80.3,205.8 80.3,205.4 63.5,205.4 			"/>
			<path class="st34" d="M63.5,206.5c0,0,0,0,0,0.4l0,0h16.8v-0.4H63.5L63.5,206.5z"/>
			<path class="st34" d="M63.8,207.2c0,0.4,0,0.4,0,0.4l0,0h16.5v-0.4H63.5H63.8z"/>
			<path class="st34" d="M64.2,208.3L64.2,208.3h0.4h15.8l0,0H64.2L64.2,208.3z"/>
			<path class="st34" d="M65.2,209c0.4,0.4,0.7,0.4,1.1,0.4h14V209H65.2L65.2,209z"/>
			<path class="st27" d="M80,181.6H60.3c-1.4,0-2.8,1.4-2.8,2.8c0,1.8,1.4,3.2,2.8,3.2H80V181.6z"/>
			<path class="st36" d="M64.2,184.4c0-1.4,1.4-2.8,3.2-2.8h-7c-1.4,0-2.8,1.4-2.8,2.8c0,1.8,1.4,3.2,2.8,3.2h7
				C65.6,187.6,64.2,186.2,64.2,184.4z"/>
			<path class="st33" d="M80,182.3H68.7c-1.4,0-2.5,1.1-2.5,2.1c0,1.4,1.1,2.5,2.5,2.5H80V182.3z"/>
			<path class="st34" d="M68.7,182.3c-0.4,0-0.7,0-1.1,0v0.4H80v-0.4H68.7z"/>
			<path class="st34" d="M67,183c-0.4,0-0.4,0.4-0.4,0.4l0,0H80V183H67L67,183z"/>
			<path class="st34" d="M66.3,184.1c0,0,0,0,0,0.4l0,0H80v-0.4H66.3L66.3,184.1z"/>
			<path class="st34" d="M66.3,184.8c0,0.4,0,0.4,0,0.4l0,0H80v-0.4H66.3L66.3,184.8z"/>
			<path class="st34" d="M66.6,185.8c0,0,0,0.4,0.4,0.4l0,0h13v-0.4H66.6L66.6,185.8z"/>
			<path class="st34" d="M67.7,186.9c0.4,0,0.7,0,1.1,0H80v-0.4H67.7V186.9z"/>
			<path class="st24" d="M79.3,187.6h-20c-1.1,0-3.2,1.4-3.2,4.2c0,2.5,2.1,3.9,3.2,3.9h20V187.6z"/>
			<path class="st37" d="M61,191.8c0-2.8,1.8-4.2,3.2-4.2h-4.9c-1.1,0-3.2,1.1-3.2,4.2c0,2.5,2.1,3.9,3.2,3.9h4.9
				C62.8,195.6,61,194.2,61,191.8z"/>
			<path class="st33" d="M79.3,188.3h-14c-1.1,0-2.8,1.1-2.8,3.5c0,2.1,1.8,3.2,2.8,3.2h14V188.3z"/>
			<path class="st34" d="M65.2,188.3c-0.4,0-0.7,0-0.7,0l-0.4,0.4h15.1v-0.4H65.2z"/>
			<path class="st34" d="M63.5,189c0,0,0,0-0.4,0.4l0,0h16.1V189H63.5L63.5,189z"/>
			<path class="st34" d="M62.8,190L62.8,190L62.8,190h16.5v-0.4H62.8V190z"/>
			<path class="st34" d="M62.4,190.7L62.4,190.7v0.4h16.8v-0.4H62.4L62.4,190.7z"/>
			<polygon class="st34" points="62.4,191.4 62.4,191.8 62.4,191.8 79.3,191.8 79.3,191.4 			"/>
			<path class="st34" d="M62.4,192.5L62.4,192.5L62.4,192.5h16.8l0,0H62.4L62.4,192.5z"/>
			<path class="st34" d="M62.8,193.2v0.4l0,0h16.5v-0.4H62.8L62.8,193.2z"/>
			<path class="st34" d="M63.1,194.2c0,0,0,0,0.4,0l0,0h15.8v-0.4H63.1V194.2z"/>
			<path class="st34" d="M64.2,194.9c0.4,0,0.7,0.4,1.1,0.4h14v-0.4H64.2L64.2,194.9z"/>
			<path class="st38" d="M42.4,157.4H19.3c-1.8,0-3.5,1.8-3.5,3.9c0,1.8,1.8,3.5,3.5,3.5h23.1V157.4z"/>
			<path class="st39" d="M23.9,161.3c0-2.1,1.8-3.9,3.5-3.9h-8.1c-1.8,0-3.5,1.8-3.5,3.9c0,1.8,1.8,3.5,3.5,3.5h8.1
				C25.6,164.8,23.9,163,23.9,161.3z"/>
			<path class="st33" d="M42.4,158.5H29.1c-1.4,0-2.8,1.1-2.8,2.8c0,1.4,1.4,2.8,2.8,2.8h13.3V158.5z"/>
			<path class="st34" d="M29.1,158.5c-0.4,0-0.7,0-1.4,0v0.4h14.7v-0.4H29.1z"/>
			<path class="st34" d="M27,159.5c0,0-0.4,0-0.4,0.4l0,0h15.8v-0.4H27L27,159.5z"/>
			<path class="st34" d="M26.3,160.6c0,0,0,0,0,0.4l0,0h16.1v-0.4H26.3L26.3,160.6z"/>
			<path class="st34" d="M26.3,161.6c0,0,0,0,0,0.4l0,0h16.1v-0.4H26.3L26.3,161.6z"/>
			<path class="st34" d="M26.7,162.7c0,0,0.4,0,0.4,0.4l0,0h15.4v-0.4H26.7L26.7,162.7z"/>
			<path class="st34" d="M27.7,163.7c0.7,0,1.1,0.4,1.4,0.4h13.3v-0.4H27.7L27.7,163.7z"/>
			<path class="st40" d="M41.4,164.8H17.9c-1.4,0-3.9,1.4-3.9,4.6c0,2.8,2.5,4.9,3.9,4.9h23.5V164.8z"/>
			<path class="st41" d="M20,169.3c0-2.8,2.1-4.6,3.5-4.6h-5.6c-1.4,0-3.9,1.4-3.9,4.6s2.5,4.9,3.9,4.9h5.6
				C22.1,174.3,20,172.5,20,169.3z"/>
			<path class="st33" d="M41.4,165.5H24.6c-1.1,0-3.2,1.4-3.2,3.9c0,2.8,2.1,4.2,3.2,4.2h16.8V165.5z"/>
			<path class="st34" d="M24.6,165.5c0,0-0.4,0-0.7,0l-0.4,0.4h17.9v-0.4H24.6z"/>
			<path class="st34" d="M22.8,166.2c-0.4,0.4-0.4,0.4-0.4,0.4l0,0h18.9v-0.4H22.8L22.8,166.2z"/>
			<path class="st34" d="M21.8,167.2c0,0.4,0,0.4,0,0.4l0,0h19.6v-0.4H22.1H21.8z"/>
			<path class="st34" d="M21.4,168.3v0.4l0,0h20v-0.4H21.4L21.4,168.3z"/>
			<polygon class="st34" points="21.4,169.3 21.4,169.3 21.4,169.3 21.4,169.7 41.4,169.7 41.4,169.3 			"/>
			<path class="st34" d="M21.4,170.4L21.4,170.4v0.4h20v-0.4H21.4L21.4,170.4z"/>
			<path class="st34" d="M21.8,171.4L21.8,171.4L21.8,171.4h19.6v-0.4H21.8V171.4z"/>
			<path class="st34" d="M22.5,172.5L22.5,172.5L22.5,172.5h18.9v-0.4H22.5V172.5z"/>
			<path class="st34" d="M23.9,173.2c0.4,0.4,0.7,0.4,0.7,0.4h16.8v-0.4H23.5H23.9z"/>
			<path class="st21" d="M40,148.3H16.5c-1.4,0-3.5,1.4-3.5,4.6c0,2.8,2.1,4.6,3.5,4.6H40V148.3z"/>
			<path class="st42" d="M18.6,152.9c0-3.2,2.1-4.6,3.9-4.6h-6c-1.4,0-3.5,1.1-3.5,4.6c0,2.8,2.1,4.6,3.5,4.6h6
				C20.7,157.4,18.6,155.7,18.6,152.9z"/>
			<path class="st33" d="M40,149H23.5c-1.1,0-3.2,1.4-3.2,3.9c0,2.8,2.1,3.9,3.2,3.9H40V149z"/>
			<path class="st34" d="M23.5,148.7c-0.4,0-0.7,0.4-1.1,0.4l0,0H40v-0.4H23.5z"/>
			<path class="st34" d="M21.4,149.7v0.4h-0.4H40v-0.4H21.4L21.4,149.7z"/>
			<path class="st34" d="M20.7,150.8c0,0,0,0,0,0.4l0,0H40v-0.4H20.7L20.7,150.8z"/>
			<path class="st34" d="M20.4,151.8L20.4,151.8v0.4H40v-0.4H20.4L20.4,151.8z"/>
			<polygon class="st34" points="20.4,152.9 20.4,152.9 20.4,152.9 20.4,152.9 40,152.9 40,152.9 			"/>
			<path class="st34" d="M20.4,153.9L20.4,153.9L20.4,153.9H40v-0.4H20.4V153.9z"/>
			<path class="st34" d="M20.7,154.6c0,0.4,0,0.4,0,0.4l0,0H40v-0.4H20.7L20.7,154.6z"/>
			<path class="st34" d="M21.1,155.7c0.4,0,0.4,0.4,0.4,0.4l0,0H40v-0.4H21.1L21.1,155.7z"/>
			<path class="st34" d="M22.5,156.7c0.4,0,0.7,0.4,1.1,0.4H40v-0.4H22.1H22.5z"/>
		</g>
		<polygon class="st43" points="76.5,226.8 51.2,226.8 44.6,183.4 84.2,183.4 		"/>
		<polygon class="st44" points="218.8,202.6 233.5,202.6 233.5,199.1 218.8,199.1 		"/>
		<polygon class="st45" points="216.3,226.8 226.1,160.2 235.9,226.8 239.1,226.8 227.5,150.1 224.4,150.1 213.2,226.8 		"/>
		<polygon class="st44" points="91.9,202.6 106.2,202.6 106.2,199.1 91.9,199.1 		"/>
		<polygon class="st45" points="89.4,226.8 99.2,160.2 109.1,226.8 112.2,226.8 100.6,150.1 97.5,150.1 86.3,226.8 		"/>
		<polygon class="st46" points="81.7,152.5 241.9,152.5 241.9,145.5 81.7,145.5 		"/>
		<polygon class="st47" points="114.7,89.4 103.4,80 80.3,107.6 104.5,128 104.5,143.1 106.2,143.1 106.6,127.3 82.8,107.3 
			103.4,82.4 113.6,90.8 		"/>
		<polygon class="st43" points="116.4,88.4 111.9,93.3 106.6,88.4 111.2,83.5 		"/>
		<path class="st43" d="M135,97.5L124.8,88c-3.9-3.5-9.8-3.5-13.3,0.4c-3.5,3.9-3.2,9.8,0.7,13.3l10.9,9.1L135,97.5z"/>
		<polygon class="st43" points="97.1,145.5 112.9,145.5 112.9,140.9 97.1,140.9 		"/>
		<path class="st43" d="M84.2,106.9c0,1.4-1.1,2.5-2.5,2.5s-2.5-1.1-2.5-2.5c0-1.4,1.1-2.5,2.5-2.5S84.2,105.5,84.2,106.9z"/>
		<path class="st43" d="M105.9,81c0,1.4-1.1,2.5-2.5,2.5S101,82.4,101,81s1.1-2.5,2.5-2.5S105.9,79.6,105.9,81z"/>
		<path class="st43" d="M107.6,128c0,1.4-1.1,2.5-2.5,2.5s-2.8-1.1-2.8-2.5c0-1.4,1.4-2.8,2.8-2.8S107.6,126.6,107.6,128z"/>
		<path class="st33" d="M227.2,124.8c0,1.8-1.4,3.2-3.2,3.2h-82c-1.8,0-2.8-1.4-2.8-3.2V82.4c0-1.8,1.1-2.8,2.8-2.8h82
			c1.8,0,3.2,1.1,3.2,2.8V124.8z"/>
		<path class="st43" d="M227.2,121.3V82.4c0-1.8-1.4-2.8-3.2-2.8h-82c-1.8,0-2.8,1.1-2.8,2.8v38.9H227.2z"/>
		<polygon class="st48" points="142.4,118.2 223.7,118.2 223.7,82.8 142.4,82.8 		"/>
		<path class="st49" d="M189,131.1c0-1.8,0-0.4,0-3.2h-15.4c0,2.8,0,1.4,0,3.2c0,5.6-5.6,8.4-10.2,10.5h36.8
			C195.6,139.5,189,136.4,189,131.1z"/>
		<polygon class="st43" points="163.4,145.5 200.2,145.5 200.2,141.7 163.4,141.7 		"/>
		<polygon class="st50" points="213.5,90.8 224.7,90.8 224.7,81 213.5,81 		"/>
		<polygon class="st51" points="217.7,82.1 220.5,82.1 220.5,79.6 217.7,79.6 		"/>
		<path class="st45" d="M195.6,237.7c-0.7,0-1.8-0.7-1.8-1.4l-12.3-42.8c0-1.1,0.4-2.1,1.4-2.1c1.1-0.4,2.1,0,2.5,1.1l11.9,42.8
			c0.4,1.1-0.4,2.1-1.4,2.5H195.6z"/>
		<path class="st44" d="M186.2,230.3c-1.1,0-1.8-0.7-1.8-1.4l-10.2-35.4c-0.4-1.1,0.4-2.1,1.4-2.1c1.1-0.4,2.1,0,2.5,1.1l9.8,35.4
			c0.4,1.1-0.4,2.1-1.4,2.5H186.2z"/>
		<path class="st45" d="M128,237.7c-0.4,0-0.4,0-0.7,0c-1.1-0.4-1.8-1.4-1.4-2.5l11.9-42.8c0.4-1.1,1.4-1.4,2.5-1.1
			c1.1,0,1.8,1.1,1.4,2.1l-11.9,42.8C129.4,237,128.7,237.7,128,237.7z"/>
		<path class="st44" d="M137.4,230.3c-0.4,0-0.4,0-0.7,0c-1.1-0.4-1.4-1.4-1.4-2.5l10.2-35.4c0-1.1,1.4-1.4,2.1-1.1
			c1.1,0,1.8,1.1,1.4,2.1l-9.8,35.4C138.8,229.6,138.1,230.3,137.4,230.3z"/>
		<path class="st51" d="M192.1,187.2c-7-16.8-3.9-36.8-2.5-43.8c0.4-1.1,0.7-1.8,0.7-2.8c0-3.2-2.8-6-6-6h-45.2c-3.5,0-6,2.8-6,6
			c0,1.1,0,1.8,0.7,2.8c1.4,7,4.6,27-2.5,43.8c-1.1,1.1-1.4,2.1-1.4,3.2c0,5.6,14,10.2,31.5,10.2c17.9,0,31.9-4.6,31.9-10.2
			C193.5,189.3,193.2,188.3,192.1,187.2z"/>
		<path class="st43" d="M234.9,145.9v-5.6c0-1.8-1.4-2.8-2.8-2.8h-6c-1.4,0-2.8,1.1-2.8,2.8v5.6H234.9z"/>
		<path class="st43" d="M227.5,128.7c0,0.4-0.4,0.7-0.7,0.7s-0.7-0.4-0.7-0.7v-3.2c0,0,0.4-0.4,0.7-0.4s0.7,0.4,0.7,0.4V128.7z"/>
		<path class="st33" d="M233.1,142c0,1.1-0.7,1.4-1.8,1.4h-4.6c-0.7,0-1.4-0.4-1.4-1.4v-12.6c0-0.7,0.7-1.4,1.4-1.4h4.6
			c1.1,0,1.8,0.7,1.8,1.4V142z"/>
		<polygon class="st52" points="226.1,135 232.1,135 232.1,130.1 226.1,130.1 		"/>
		<polygon class="st52" points="226.1,136.4 227.5,136.4 227.5,135.3 226.1,135.3 		"/>
		<polygon class="st52" points="227.9,136.4 228.9,136.4 228.9,135.3 227.9,135.3 		"/>
		<polygon class="st52" points="229.3,136.4 230.7,136.4 230.7,135.3 229.3,135.3 		"/>
		<polygon class="st52" points="231,136.4 232.1,136.4 232.1,135.3 231,135.3 		"/>
		<polygon class="st52" points="226.1,137.4 227.5,137.4 227.5,136.7 226.1,136.7 		"/>
		<polygon class="st52" points="227.9,137.4 228.9,137.4 228.9,136.7 227.9,136.7 		"/>
		<polygon class="st52" points="229.3,137.4 230.7,137.4 230.7,136.7 229.3,136.7 		"/>
		<polygon class="st52" points="231,137.4 232.1,137.4 232.1,136.7 231,136.7 		"/>
		<polygon class="st52" points="226.1,138.8 227.5,138.8 227.5,138.1 226.1,138.1 		"/>
		<polygon class="st52" points="227.9,138.8 228.9,138.8 228.9,138.1 227.9,138.1 		"/>
		<polygon class="st52" points="229.3,138.8 230.7,138.8 230.7,138.1 229.3,138.1 		"/>
		<polygon class="st52" points="231,138.8 232.1,138.8 232.1,138.1 231,138.1 		"/>
		<polygon class="st52" points="226.1,140.2 227.5,140.2 227.5,139.2 226.1,139.2 		"/>
		<polygon class="st52" points="227.9,140.2 228.9,140.2 228.9,139.2 227.9,139.2 		"/>
		<polygon class="st52" points="229.3,140.2 230.7,140.2 230.7,139.2 229.3,139.2 		"/>
		<polygon class="st52" points="231,140.2 232.1,140.2 232.1,139.2 231,139.2 		"/>
		<polygon class="st52" points="226.1,141.3 227.5,141.3 227.5,140.6 226.1,140.6 		"/>
		<polygon class="st52" points="227.9,141.3 228.9,141.3 228.9,140.6 227.9,140.6 		"/>
		<polygon class="st52" points="229.3,141.3 230.7,141.3 230.7,140.6 229.3,140.6 		"/>
		<polygon class="st52" points="231,141.3 232.1,141.3 232.1,140.6 231,140.6 		"/>
		<g>
			<polygon class="st33" points="91.9,68.4 218.1,68.4 218.1,63.8 91.9,63.8 			"/>
			<path class="st53" d="M108.7,19.7c0,3.9,1.4,7.4,1.4,7.4c0.4,0,1.8-4.2,1.8-7.4s-1.8-7.4-1.8-7.4S108.7,16.5,108.7,19.7z"/>
			<path class="st53" d="M115.7,32.6c-2.1,1.8-3.2,3.9-3.2,3.9s2.8-0.7,4.6-2.1c1.4-1.4,2.8-3.9,2.8-3.9S117.1,31.6,115.7,32.6z"/>
			<path class="st53" d="M105.5,30.2c2.5,1.4,2.8,3.2,2.8,3.2s-2.1-0.4-3.9-1.4c-1.8-1.4-2.5-3.2-2.5-3.2S104.1,29.1,105.5,30.2z"/>
			<path class="st53" d="M101.7,38.6c3.5,1.8,5.6,4.2,5.6,4.2c0,0.4-4.2-0.4-6.7-1.8c-2.8-1.4-5.6-4.2-5.6-4.6
				C95,36.5,99.2,37.2,101.7,38.6z"/>
			<polygon class="st54" points="110.1,20.7 110.8,50.2 109.4,50.2 			"/>
			<polygon class="st54" points="110.1,44.9 102.4,40.3 110.1,44.2 			"/>
			<path class="st53" d="M116.4,25.3c-2.1,1.4-2.8,2.8-2.8,2.8s2.1,0,3.9-1.1s2.8-2.8,2.8-2.8S118.2,24.2,116.4,25.3z"/>
			<polygon class="st54" points="110.1,29.5 117.5,26.3 110.1,30.2 			"/>
			<path class="st53" d="M118.5,38.9c-2.8-0.4-4.2,0.4-4.2,0.4s1.8,1.4,3.9,1.4c1.8,0.4,3.9-0.4,3.9-0.4S120.3,39.3,118.5,38.9z"/>
			<polygon class="st54" points="110.5,38.6 118.5,40 110.5,38.9 			"/>
			<path class="st53" d="M116.1,28.8c-2.1,0.4-2.8,1.4-2.8,1.4s1.4,0.7,3.2,0.7c1.4,0,2.8-1.1,2.8-1.1S117.8,28.8,116.1,28.8z"/>
			<polygon class="st54" points="110.1,29.8 116.4,30.2 110.1,30.5 			"/>
			<path class="st53" d="M106.6,28.8c0.7,2.1,2.1,2.5,2.1,2.5s0-1.8-0.7-3.2c-0.7-1.8-2.1-2.5-2.1-2.5S105.9,27.4,106.6,28.8z"/>
			<polygon class="st54" points="109.8,34 107.3,28.1 110.1,33.7 			"/>
			<path class="st53" d="M104.1,34c2.5,2.1,2.5,3.9,2.5,4.2c0,0-2.5-0.4-4.6-2.1c-1.8-1.4-2.5-3.5-2.5-3.9
				C99.6,32.3,102.4,32.6,104.1,34z"/>
			<polygon class="st54" points="109.8,41 102.7,35.1 110.5,40.7 			"/>
			<polygon class="st54" points="109.8,38.9 115,34.4 110.5,39.3 			"/>
			<polygon class="st54" points="110.1,34.4 105.5,31.6 110.5,34 			"/>
			<path class="st55" d="M104.8,63.8h10.9c1.8-1.8,3.2-4.2,3.2-6.7c0-3.2-1.8-7.4-4.2-9.8h-8.8c-2.5,2.5-4.2,6.7-4.2,9.8
				C101.7,59.6,103.1,62.1,104.8,63.8z"/>
			<polygon class="st43" points="139.9,63.8 132.2,63.8 130.1,53.7 142.4,53.7 			"/>
			<path class="st56" d="M145.5,33.7c-1.4,0-2.5,1.1-2.5,2.5v5.3c0,0,0,0.4-0.4,0.4h-4.6v4.6h4.6c2.8,0,4.9-2.5,4.9-4.9v-5.3
				C147.6,34.7,146.6,33.7,145.5,33.7z"/>
			<path class="st56" d="M127.3,37.2c1.1,0,2.1,1.1,2.1,2.5v5.3c0,0,0,0.4,0.4,0.4h4.6v4.6h-4.6c-2.8,0-4.9-2.5-4.9-4.9v-5.3
				C124.8,38.2,125.9,37.2,127.3,37.2z"/>
			<path class="st57" d="M139.9,53.7V35.4c0-2.1-1.8-3.5-3.5-3.5c-2.1,0-3.5,1.4-3.5,3.5v18.2H139.9z"/>
			<path class="st58" d="M134.3,35.4L134.3,35.4v-0.7c0-0.4,0-0.4,0-0.4s0.4,0,0.4,0.4v0.7H134.3z"/>
			<path class="st58" d="M135.7,37.5c0,0-0.4,0-0.4-0.4v-1.1l0.4-0.4l0.4,0.4v1.1C136,37.5,135.7,37.5,135.7,37.5z"/>
			<path class="st58" d="M134.6,42.1h-0.4V40h0.4l0,0V42.1L134.6,42.1z"/>
			<path class="st58" d="M134.6,47.4h-0.4v-1.1c0-0.4,0.4-0.4,0.4-0.4s0,0,0,0.4V47.4L134.6,47.4z"/>
			<path class="st58" d="M136.7,46.3c-0.4,0-0.4,0-0.4,0v-2.1c0,0,0,0,0.4,0l0,0V46.3L136.7,46.3z"/>
			<path class="st58" d="M137.4,53.3c-0.4,0-0.4,0-0.4,0v-1.1c0,0,0,0,0.4,0l0,0V53.3L137.4,53.3z"/>
			<path class="st58" d="M138.1,51.9h-0.4v-0.7h0.4h0.4v0.7H138.1z"/>
			<path class="st58" d="M138.8,46.7v-0.4v-1.1v-0.4c0.4,0,0.4,0.4,0.4,0.4v1.1C139.2,46.3,139.2,46.7,138.8,46.7z"/>
			<path class="st58" d="M138.1,39.3h-0.4v-0.7c0-0.4,0.4-0.4,0.4-0.4s0.4,0,0.4,0.4v0.7H138.1z"/>
			<path class="st58" d="M138.8,36.8L138.8,36.8v-0.7v-0.4c0.4,0,0.4,0.4,0.4,0.4v0.7C139.2,36.8,139.2,36.8,138.8,36.8z"/>
			<path class="st58" d="M137.4,41.7c-0.4,0-0.4,0-0.4-0.4v-0.7c0,0,0,0,0.4,0l0,0v0.7C137.4,41.7,137.4,41.7,137.4,41.7z"/>
			<path class="st58" d="M135,50.5c-0.4,0-0.4,0-0.4-0.4v-1.1c0-0.4,0-0.4,0.4-0.4c0,0,0,0,0,0.4v1.1C135,50.5,135,50.5,135,50.5z"
				/>
			<path class="st58" d="M136.7,48.8v-0.4v-0.7v-0.4l0.4,0.4v0.7L136.7,48.8z"/>
			<path class="st58" d="M135,53L135,53v-0.7c0-0.4,0-0.4,0-0.4c0.4,0,0.4,0,0.4,0.4V53C135.3,53,135.3,53,135,53z"/>
			<path class="st58" d="M138.1,43.8l-0.4-0.4v-1.1h0.4h0.4v1.1L138.1,43.8z"/>
			<path class="st58" d="M134.3,43.8v-0.4v-0.7c0-0.4,0-0.4,0-0.4s0.4,0,0.4,0.4v0.7L134.3,43.8z"/>
			<path class="st58" d="M134.3,37.9L134.3,37.9v-1.4l0,0h0.4v1.4H134.3z"/>
			<path class="st58" d="M133.6,39.6c-0.4,0-0.4,0-0.4,0v-1.1c0-0.4,0-0.4,0.4-0.4c0,0,0,0,0,0.4V39.6L133.6,39.6z"/>
			<path class="st58" d="M136.4,34.7c-0.4,0-0.4,0-0.4,0v-1.1c0,0,0,0,0.4,0l0,0V34.7L136.4,34.7z"/>
			<path class="st58" d="M135.7,39.6L135.7,39.6v-0.4v-0.4c0.4,0,0.4,0.4,0.4,0.4v0.4C136,39.6,136,39.6,135.7,39.6z"/>
			<path class="st58" d="M137.4,35.8c-0.4,0-0.4,0-0.4-0.4v-0.7c0-0.4,0-0.4,0.4-0.4c0,0,0,0,0,0.4v0.7
				C137.4,35.8,137.4,35.8,137.4,35.8z"/>
			<path class="st58" d="M135,33.7L135,33.7V33l0,0c0.4,0,0.4,0,0.4,0v0.7C135.3,33.7,135.3,33.7,135,33.7z"/>
			<path class="st58" d="M137.8,34c0,0-0.4,0-0.4-0.4V33h0.4l0,0v0.7C137.8,34,137.8,34,137.8,34z"/>
			<path class="st58" d="M135.7,43.1h-0.4v-1.4l0.4-0.4l0.4,0.4v1.4H135.7z"/>
			<path class="st58" d="M138.8,41.7L138.8,41.7V41v-0.4c0.4,0,0.4,0.4,0.4,0.4v0.7C139.2,41.7,139.2,41.7,138.8,41.7z"/>
			<path class="st58" d="M133.6,46c-0.4,0-0.4-0.4-0.4-0.4v-0.4c0-0.4,0-0.4,0.4-0.4c0,0,0,0,0,0.4v0.4V46z"/>
			<path class="st58" d="M138.1,49.1h-0.4v-1.1l0.4-0.4l0.4,0.4v1.1H138.1z"/>
			<path class="st58" d="M136.7,51.2c-0.4,0-0.4,0-0.4,0v-1.4c0,0,0,0,0.4,0l0,0V51.2L136.7,51.2z"/>
			<path class="st58" d="M133.9,51.9c-0.4,0-0.4,0-0.4,0v-0.7c0-0.4,0-0.4,0.4-0.4c0,0,0,0,0,0.4V51.9L133.9,51.9z"/>
			<path class="st59" d="M140.6,43.1c-0.4,0-0.4-0.4-0.4-0.4v-0.4c0-0.4,0-0.4,0.4-0.4c0,0,0,0,0,0.4v0.4V43.1z"/>
			<path class="st59" d="M142.7,43.5v-0.4v-1.1v-0.4l0.4,0.4v1.1L142.7,43.5z"/>
			<path class="st59" d="M144.5,40.7c0,0-0.4,0-0.4-0.4v-1.4h0.4h0.4v1.4C144.8,40.7,144.5,40.7,144.5,40.7z"/>
			<path class="st59" d="M145.5,36.8c0,0-0.4,0-0.4-0.4v-0.7h0.4l0,0v0.7C145.5,36.8,145.5,36.8,145.5,36.8z"/>
			<path class="st59" d="M146.6,37.5h-0.4v-0.7c0-0.4,0.4-0.4,0.4-0.4s0.4,0,0.4,0.4v0.7H146.6z"/>
			<path class="st59" d="M146.2,40c-0.4,0-0.4-0.4-0.4-0.4v-0.7c0,0,0,0,0.4,0l0,0v0.7V40z"/>
			<path class="st59" d="M146.2,41.7c-0.4,0-0.4,0-0.4,0V41c0-0.4,0-0.4,0.4-0.4c0,0,0,0,0,0.4V41.7L146.2,41.7z"/>
			<path class="st59" d="M144.8,43.5v-0.4v-0.7c0-0.4,0-0.4,0-0.4c0.4,0,0.4,0,0.4,0.4v0.7C145.2,43.1,145.2,43.5,144.8,43.5z"/>
			<path class="st59" d="M143.8,45.3l-0.4-0.4v-1.1l0.4-0.4v0.4v1.1V45.3z"/>
			<path class="st59" d="M142,45.6c-0.4,0-0.4,0-0.4-0.4v-0.4c0,0,0-0.4,0.4-0.4v0.4v0.4C142,45.6,142,45.6,142,45.6z"/>
			<path class="st59" d="M140.9,45.6c-0.4,0-0.4,0-0.4-0.4v-0.7c0-0.4,0-0.4,0.4-0.4c0,0,0,0,0,0.4v0.7
				C140.9,45.6,140.9,45.6,140.9,45.6z"/>
			<path class="st59" d="M144.1,38.6c-0.4,0-0.4-0.4-0.4-0.4v-1.4c0-0.4,0-0.4,0.4-0.4c0,0,0,0,0,0.4v1.4V38.6z"/>
			<path class="st59" d="M145.9,43.5v-0.4v-0.7l0,0c0.4,0,0.4,0,0.4,0v0.7C146.2,43.1,146.2,43.5,145.9,43.5z"/>
			<path class="st59" d="M144.1,42.4c-0.4,0-0.4-0.4-0.4-0.4v-0.7c0-0.4,0-0.4,0.4-0.4c0,0,0,0,0,0.4v0.7V42.4z"/>
			<path class="st59" d="M145.2,38.6v-0.4v-0.4c0-0.4,0-0.4,0-0.4s0.4,0,0.4,0.4v0.4L145.2,38.6z"/>
			<path class="st59" d="M144.5,35.8l-0.4-0.4v-0.4c0-0.4,0.4-0.4,0.4-0.4s0.4,0,0.4,0.4v0.4L144.5,35.8z"/>
			<path class="st59" d="M146.2,35.4c-0.4,0-0.4,0-0.4-0.4v-0.4c0,0,0,0,0.4,0l0,0v0.4C146.2,35.4,146.2,35.4,146.2,35.4z"/>
			<path class="st59" d="M131.8,46.3L131.8,46.3V46c0-0.4,0-0.4,0-0.4s0.4,0,0.4,0.4v0.4H131.8z"/>
			<path class="st59" d="M129.7,46.7c-0.4,0-0.4,0-0.4,0v-1.1c0-0.4,0-0.4,0.4-0.4c0,0,0,0,0,0.4V46.7L129.7,46.7z"/>
			<path class="st59" d="M128,44.2c0,0-0.4,0-0.4-0.4v-1.4l0.4-0.4v0.4v1.4C128,44.2,128,44.2,128,44.2z"/>
			<path class="st59" d="M126.9,40.3V40v-0.7v-0.4l0.4,0.4V40L126.9,40.3z"/>
			<path class="st59" d="M125.9,41h-0.4v-0.7c0-0.4,0.4-0.4,0.4-0.4s0,0,0,0.4V41L125.9,41z"/>
			<path class="st59" d="M126.2,43.1L126.2,43.1v-0.7v-0.4c0.4,0,0.4,0.4,0.4,0.4v0.7C126.6,43.1,126.6,43.1,126.2,43.1z"/>
			<path class="st59" d="M126.2,45.3c0,0,0,0,0-0.4v-0.7l0,0c0.4,0,0.4,0,0.4,0v0.7C126.6,45.3,126.6,45.3,126.2,45.3z"/>
			<path class="st59" d="M127.6,46.7c-0.4,0-0.4,0-0.4,0V46c0-0.4,0-0.4,0.4-0.4c0,0,0,0,0,0.4V46.7L127.6,46.7z"/>
			<path class="st59" d="M128.7,48.4L128.7,48.4v-1.1c0-0.4,0-0.4,0-0.4s0.4,0,0.4,0.4v1.1H128.7z"/>
			<path class="st59" d="M130.4,49.1v-0.4v-0.4v-0.4c0.4,0,0.4,0.4,0.4,0.4v0.4C130.8,48.8,130.8,49.1,130.4,49.1z"/>
			<path class="st59" d="M131.5,49.1v-0.4v-1.1l0,0c0.4,0,0.4,0,0.4,0v1.1C131.8,48.8,131.8,49.1,131.5,49.1z"/>
			<path class="st59" d="M128.3,41.7L128.3,41.7v-1.4c0-0.4,0-0.4,0-0.4s0.4,0,0.4,0.4v1.4H128.3z"/>
			<path class="st59" d="M126.6,46.7c-0.4,0-0.4,0-0.4,0V46c0,0,0,0,0.4,0l0,0V46.7L126.6,46.7z"/>
			<path class="st59" d="M128.3,45.6L128.3,45.6v-1.1l0,0h0.4v1.1H128.3z"/>
			<path class="st59" d="M127.3,41.7h-0.4V41h0.4l0,0V41.7L127.3,41.7z"/>
			<path class="st59" d="M128,38.9h-0.4v-0.7h0.4l0,0V38.9L128,38.9z"/>
			<path class="st59" d="M126.2,38.9v-0.4v-0.4v-0.4c0.4,0,0.4,0.4,0.4,0.4v0.4C126.6,38.6,126.6,38.9,126.2,38.9z"/>
			<polygon class="st43" points="171.4,37.2 166.5,50.5 161.6,63.8 171.4,63.8 			"/>
			<polygon class="st43" points="203.3,37.2 207.9,50.5 212.8,63.8 203.3,63.8 			"/>
			<polygon class="st55" points="192.1,63.8 203.3,63.8 203.3,26.7 192.1,26.7 			"/>
			<polygon class="st60" points="171.4,63.8 177.8,63.8 177.8,26 171.4,26 			"/>
			<polygon class="st61" points="180.9,63.8 190.7,63.8 190.7,30.9 180.9,30.9 			"/>
		</g>
		<g>
			<path class="st62" d="M169.7,100.3c0.4,0,0.7,0,0.7,0.4s-0.4,0.7-0.7,0.7h-1.1v-1.1H169.7z M169.3,99.2h-0.7v-1.1h0.7
				c0.4,0,0.7,0,0.7,0.4S169.7,99.2,169.3,99.2z M169.3,96.8c-0.4,0-1.4,0-1.8,0c0,0-0.4,0-0.4,0.4v5.6h0.4h2.1
				c1.1,0,2.1-0.7,2.1-1.8c0-0.7-0.4-1.1-1.1-1.4c0.4-0.4,0.7-0.7,0.7-1.1C171.4,97.5,170.4,96.8,169.3,96.8z"/>
			<path id="_x31_" class="st62" d="M173.5,100.3c0-0.4,0.4-0.7,0.7-0.7s0.7,0.4,0.7,0.7H173.5z M173.5,101h2.8l0,0
				c0-1.8-0.7-2.5-2.1-2.5s-2.1,0.7-2.1,2.1s0.7,2.1,2.1,2.1c0.7,0,1.4,0,1.8-0.7l0,0l-0.7-0.7l0,0c0,0,0,0-0.4,0
				c0,0-0.4,0.4-0.7,0.4S173.5,101.3,173.5,101z"/>
			<path id="_x32_" class="st62" d="M178.5,100.6v-1.1h0.7l0,0v-1.1l0,0h-0.7v-1.1l0,0h-1.1l0,0v1.1h-0.7l0,0v1.1l0,0h0.7v1.8
				c0,0.7,0.4,1.4,1.1,1.4c0.4,0,0.7,0,1.1-0.4l0,0l-0.4-1.1l0,0l0,0c-0.4,0-0.4,0-0.4,0C178.5,101.3,178.5,101.3,178.5,100.6z"/>
			<path id="_x33_" class="st62" d="M181.3,100.6v-1.1h0.7l0,0v-1.1l0,0h-0.7v-1.1l0,0h-1.1l0,0v1.1h-0.7l0,0v1.1l0,0h0.7v1.8
				c0,0.7,0.4,1.4,1.1,1.4c0.4,0,0.7,0,1.1-0.4l0,0l-0.4-1.1l0,0l0,0h-0.4C181.3,101.3,181.3,101.3,181.3,100.6z"/>
			<path id="_x34_" class="st62" d="M183.7,100.3c0-0.4,0.4-0.7,1.1-0.7c0.4,0,0.7,0.4,0.7,0.7H183.7z M183.7,101h2.8l0,0
				c0-1.8-0.7-2.5-1.8-2.5c-1.4,0-2.1,0.7-2.1,2.1s0.7,2.1,2.1,2.1c0.7,0,1.1,0,1.4-0.7l0,0l-0.7-0.7l0,0l0,0c0,0-0.4,0.4-0.7,0.4
				C184.1,101.7,184.1,101.3,183.7,101z"/>
			<path id="_x35_" class="st62" d="M189.7,99.9L189.7,99.9L189.7,99.9l0.4-1.1c0-0.4,0-0.4,0-0.4c-0.4,0-0.4,0-0.7,0
				c-0.4,0-0.7,0-1.1,0.4v-0.4l0,0h-0.7c-0.4,0-0.4,0-0.4,0v4.2c0,0,0,0,0.4,0h1.1l0,0v-2.5c0-0.4,0.4-0.4,0.4-0.4
				C189.3,99.9,189.7,99.9,189.7,99.9z"/>
			<path id="_x36_" class="st62" d="M192.5,102.7c1.1,0,1.8-0.7,1.8-1.8c0-0.7-0.4-1.4-1.4-1.4l-0.7-0.4c-1.1,0-1.1-0.7-1.1-0.7
				c0-0.7,0.7-1.1,1.4-1.1s1.1,0.4,1.1,1.1h0.7c0-1.1-1.1-1.8-1.8-1.8c-1.1,0-2.1,0.7-2.1,1.8c0,0.4,0.4,1.1,1.4,1.4h1.1
				c0.4,0.4,1.1,0.7,1.1,1.1c0,0.7-0.7,1.4-1.4,1.4s-1.4-0.7-1.4-1.4h-0.7C190.4,102,191.4,102.7,192.5,102.7z"/>
			<path id="_x37_" class="st62" d="M198.4,98.9v2.1c0,1.1-0.7,1.4-1.4,1.4s-1.1-0.7-1.1-1.4v-2.1h-0.7v2.1c0,1.1,0.7,1.8,1.8,1.8
				c0.4,0,1.1-0.4,1.4-0.7v0.7h0.4v-3.9H198.4z"/>
			<path id="_x38_" class="st62" d="M202.3,98.5c-0.7,0-1.4,0.4-1.8,1.1v-0.7h-0.4v5.6h0.4V102c0.4,0.4,1.1,0.7,1.8,0.7
				c1.1,0,2.1-0.7,2.1-2.1C204.4,99.6,203.3,98.5,202.3,98.5z M202.3,102.4c-0.7,0-1.8-0.7-1.8-1.8c0-0.7,0.7-1.4,1.8-1.4
				c0.7,0,1.4,0.7,1.4,1.4C203.7,101.7,203,102.4,202.3,102.4z"/>
			<path id="_x39_" class="st62" d="M207.6,98.5c-0.7,0-1.4,0.4-1.8,1.1v-0.7h-0.4v5.6h0.4V102c0.4,0.4,1.1,0.7,1.8,0.7
				c1.1,0,1.8-0.7,1.8-2.1C209.3,99.6,208.6,98.5,207.6,98.5z M207.2,102.4c-0.7,0-1.4-0.7-1.4-1.8c0-0.7,0.7-1.4,1.4-1.4
				c1.1,0,1.8,0.7,1.8,1.4C209,101.7,208.3,102.4,207.2,102.4z"/>
			<polygon id="_x31_0" class="st62" points="210.4,102.7 211.1,102.7 211.1,96.4 210.4,96.4 			"/>
			<polygon id="_x31_1" class="st62" points="214.9,98.9 213.9,102 212.5,98.9 211.8,98.9 213.5,102.7 212.5,104.5 213.2,104.5 
				215.6,98.9 			"/>
			<g>
				<path class="st63" d="M155,96.1h0.4v8.8c0,0,0,0,0.4,0h8.8v0.7c0,0,0,0-0.4,0H155l0,0V96.1L155,96.1z"/>
				<path class="st64" d="M155.7,95.7h9.1l0,0v9.1l0,0h-9.1c-0.4,0-0.4,0-0.4,0v-9.1C155.3,95.7,155.3,95.7,155.7,95.7z
					 M158.1,100.6c0.4,0,0.7,0,0.7,0.4s-0.4,0.7-0.7,0.7h-0.7v-1.1H158.1z M157.8,99.9h-0.4v-1.1h0.4c0.4,0,0.7,0,0.7,0.4
					S158.1,99.9,157.8,99.9z M157.8,97.8h-1.4H156v4.9h0.4h1.8c1.1,0,1.8-0.7,1.8-1.4s-0.4-1.1-0.7-1.4c0.4,0,0.4-0.4,0.4-0.7
					C159.5,98.5,158.8,97.8,157.8,97.8z M160.2,102.4c0.4,0,1.1,0.4,1.8,0.4c1.4,0,2.1-0.7,2.1-1.4c0-1.1-0.7-1.4-1.8-1.8
					c-0.7,0-1.1,0-1.1-0.4c0,0,0.4-0.4,0.7-0.4c0.7,0,1.1,0.4,1.4,0.4l0,0l0,0l0.4-0.7c0-0.4,0-0.4,0-0.4s-0.7-0.4-1.8-0.4
					s-1.8,0.7-1.8,1.4c0,1.1,0.7,1.4,1.8,1.8c0.7,0,1.1,0.4,1.1,0.4c0,0.4-0.4,0.4-0.7,0.4c-0.7,0-1.4-0.4-1.4-0.4l0,0l0,0l-0.7,0.7
					C160.2,102,160.2,102,160.2,102.4z"/>
			</g>
		</g>
	</g>
</g>
</svg>
