<?xml version="1.0" encoding="utf-8"?>
<!-- Generator: Adobe Illustrator 24.2.1, SVG Export Plug-In . SVG Version: 6.00 Build 0)  -->
<svg version="1.1"
	 id="Layer_1" shape-rendering="geometricPrecision" image-rendering="optimizeQuality" text-rendering="geometricPrecision"
	 xmlns="http://www.w3.org/2000/svg" xmlns:xlink="http://www.w3.org/1999/xlink" x="0px" y="0px" viewBox="0 0 250 250"
	 style="enable-background:new 0 0 250 250;" xml:space="preserve">
<style type="text/css">
	.st0{fill:none;stroke:#FFFFFF;stroke-width:0.5002;stroke-miterlimit:10;}
	.st1{fill:#282729;}
	.st2{fill:#4E4C4F;}
	.st3{fill:#F8B81A;}
	.st4{fill:#7AA343;}
	.st5{fill:#D0D1D6;}
	.st6{fill:#6A676B;}
	.st7{fill:#FFFFFF;}
	.st8{fill:#302F30;}
	.st9{fill:#3B393B;}
	.st10{fill:#B3B3B3;}
	.st11{fill:#787878;}
	.st12{fill:#50C0D8;}
	.st13{fill:#B6B9BC;}
	.st14{fill:#CED2D5;}
	.st15{fill:#B6B7B9;}
	.st16{fill:#94989B;}
	.st17{fill:#191919;}
	.st18{fill:#9D9EA0;}
	.st19{fill:#DFE2E5;}
	.st20{fill:#68686A;}
	.st21{fill:#808183;}
	.st22{fill:#9EA2A5;}
	.st23{fill:#D9DCDD;}
	.st24{fill:#383838;}
	.st25{fill:#717274;}
	.st26{fill:#EEF0EF;}
	.st27{fill:#B5B9BC;}
	.st28{fill:#7D8594;}
	.st29{fill:#CBCDCC;}
	.st30{fill:#B9BABC;}
	.st31{fill:#F2F6FC;}
	.st32{fill:#F1F1F1;}
	.st33{fill:#8C8C8C;}
	.st34{fill:#D6D5DA;}
	.st35{fill:#919095;}
	.st36{fill:#3A66B8;}
	.st37{fill:#1B2B79;}
	.st38{fill:#B1B0B5;}
	.st39{fill:#CBCACF;}
	.st40{fill:#EDEDED;}
	.st41{fill:#434244;}
	.st42{fill:#0F303F;}
	.st43{fill:#2C5871;}
	.st44{fill:#03AAB6;}
	.st45{fill:#4BCDD6;}
	.st46{fill:#8DC63F;}
</style>
<g id="Layer_x0020_1">
	<rect x="-20" y="-20" class="st0" width="290" height="290"/>
	<g id="_2861351124288">
		<g>
			<path class="st1" d="M53.1,163.1L53.1,163.1L53.1,163.1c-0.3-0.3-0.3-0.3-0.7-0.3c0,0.3,0,0.3,0,0.3s0,0,0-0.3
				c-0.3,0-0.3,0-0.7,0c0,0.3,0,0.3,0,0.3s0,0,0-0.3c-0.3,0-0.7,0-0.7,0c0,0.3,0,0.3,0,0.3c-0.3,0-0.3,0-0.3-0.3h-0.3
				c-0.3,0.3-0.3,0.3-0.3,0.3s0,0,0-0.3c0,0-0.3,0-0.7,0c0,0.3,0,0.3,0,0.3s0,0,0-0.3c-0.3,0-0.3,0-0.7,0c0,0.3,0,0.3,0,0.3
				s0,0,0-0.3c-0.3,0-0.3,0-0.3,0c-0.3,0-0.3,0-0.3,0c0,0.3,0,0.3,0,0.3s-0.3,0-0.3-0.3h-0.3c0,0.3,0,0.3-0.3,0.3c0,0,0,0,0-0.3
				c0,0-0.3,0-0.7,0c0,0.3,0,0.3,0,0.3s0,0,0-0.3c-0.3,0-0.3,0-0.7,0c0,0.3,0,0.3,0,0.3s0,0,0-0.3c-0.3,0-0.3,0-0.7,0
				c0,0.3,0,0.3,0,0.3s0,0,0-0.3c-0.3,0-0.7,0-0.7,0c0,0.3,0,0.3,0,0.3c-0.3,0-0.3,0-0.3-0.3c0,0-0.3,0-0.3,0.3H43l0,0
				c-3.1,0-5.6,0.3-5.6,1c0,0.7,4.9,1,10.8,1s10.4-0.3,10.4-1C58.7,163.5,56.6,163.1,53.1,163.1z"/>
			<path class="st1" d="M57.3,154.4L57.3,154.4v-0.3c0-0.3,0-0.3-0.3-0.3c-0.3,0-0.7,0-0.7,0.3v0.3c0.3,0,0.3,0,0.3,0
				c0,0.3,0,0.3-0.3,0.3v9.7h1v-9.7C57.3,154.8,57.3,154.8,57.3,154.4z"/>
			<path class="st2" d="M58.3,171.8H37.8c-0.7,0-1.4-0.3-1.4-1.4v-5.2c0-0.7,0.7-1.4,1.4-1.4h20.5c1,0,1.7,0.7,1.7,1.4v5.2
				C60.1,171.5,59.4,171.8,58.3,171.8z"/>
			<path class="st1" d="M60.8,169.7H35.7c-0.3,0-0.3,0-0.3-0.3V167c0-0.3,0-0.3,0.3-0.3h25.1c0,0,0,0,0,0.3v2.4
				C60.8,169.7,60.8,169.7,60.8,169.7z"/>
			<path class="st3" d="M47.2,168.3c0,0.3,0,0.3-0.3,0.3c-0.3,0-0.7,0-0.7-0.3c0-0.3,0.3-0.7,0.7-0.7
				C47.2,167.6,47.2,168,47.2,168.3z"/>
			<path class="st3" d="M49.6,168.3c0,0.3-0.3,0.3-0.7,0.3c-0.3,0-0.3,0-0.3-0.3c0-0.3,0-0.7,0.3-0.7
				C49.3,167.6,49.6,168,49.6,168.3z"/>
			<path class="st3" d="M51.7,168.3c0,0.3,0,0.3-0.3,0.3s-0.7,0-0.7-0.3c0-0.3,0.3-0.7,0.7-0.7S51.7,168,51.7,168.3z"/>
			<path class="st3" d="M54.2,168.3c0,0.3-0.3,0.3-0.7,0.3s-0.7,0-0.7-0.3c0-0.3,0.3-0.7,0.7-0.7S54.2,168,54.2,168.3z"/>
			<path class="st3" d="M56.2,168.3c0,0.3-0.3,0.3-0.3,0.3c-0.3,0-0.7,0-0.7-0.3c0-0.3,0.3-0.7,0.7-0.7
				C55.9,167.6,56.2,168,56.2,168.3z"/>
			<polygon class="st4" points="40.6,168.3 40.6,168.3 40.6,167.6 40.6,167.6 			"/>
			<path class="st4" d="M40.9,167.6v0.3l0,0c0,0.3,0,0.7-0.3,0.7c-0.3,0-0.3-0.3-0.3-0.7c0,0,0,0,0-0.3l0,0l-0.3,0.3
				c0,0.3,0.3,0.7,0.7,0.7c0.3,0,0.7-0.3,0.7-0.7L40.9,167.6z"/>
			<path class="st4" d="M44.1,168L44.1,168L44.1,168L44.1,168c0,0.3,0,0.3,0,0.3l0,0C44.1,168.3,44.1,168.3,44.1,168z"/>
			<path class="st4" d="M43.7,168c0,0,0,0,0.3-0.3h-0.3V168c0,0.3,0,0.3,0,0.7h0.3C43.7,168.3,43.7,168.3,43.7,168z"/>
			<path class="st4" d="M43.4,168c0,0,0-0.3,0.3-0.3v-0.3C43.4,167.6,43.4,168,43.4,168c0,0.3,0,0.7,0.3,1v-0.3
				C43.4,168.7,43.4,168.3,43.4,168z"/>
		</g>
		<g>
			<path class="st1" d="M139.8,121V68.4c0-1.7-1.4-3.1-3.5-3.1H59c-2.1,0-3.5,1.4-3.5,3.1V121H139.8z"/>
			<polygon class="st5" points="139.8,129.7 55.5,129.7 55.5,121 139.8,121 			"/>
			<path class="st5" d="M55.5,68.4c0-1.7,1.4-3.1,3.5-3.1h77.3c2.1,0,3.5,1.4,3.5,3.1v4.2H55.5V68.4z"/>
			<polygon class="st1" points="139.8,121 55.5,121 55.5,72.6 139.8,72.6 			"/>
			<path class="st1" d="M64.9,127.3h1c0.7,0,1-0.7,1-1.4v-0.7c0-0.7-0.3-1-1-1h-1c-0.3,0-1,0.3-1,1v0.7
				C63.9,126.6,64.6,127.3,64.9,127.3z"/>
			<polygon class="st6" points="80.3,129.7 115.1,129.7 111.2,134.2 83.7,134.2 			"/>
			<polygon class="st2" points="111.2,134.2 107.8,138.8 87.6,138.8 83.7,134.2 			"/>
			<path class="st1" d="M115.8,140.8c0,0,0-0.7,0-1.7c0-0.7-8-1.4-18.1-1.4s-18.1,0.7-18.1,1.4v1.7H115.8z"/>
			<polygon class="st1" points="105.3,126.6 90,126.6 90,124.8 105.3,124.8 			"/>
			<path class="st2" d="M66,178.1h62.7c1.7,0,3.1-1,3.1-2.8v-21.2c0-1.4-1.4-2.8-3.1-2.8H66c-1.7,0-3.1,1.4-3.1,2.8v21.2
				C62.9,177,64.2,178.1,66,178.1z"/>
			<path class="st7" d="M123.4,158.6h2.1c0.3,0,0.7-0.3,0.7-0.7v-2.1c0-0.3-0.3-0.7-0.7-0.7h-2.1c-0.3,0-0.7,0.3-0.7,0.7v2.1
				C122.7,158.2,123.1,158.6,123.4,158.6z"/>
			<path class="st7" d="M117.9,158.6h2.1c0.3,0,0.7-0.3,0.7-0.7v-2.1c0-0.3-0.3-0.7-0.7-0.7h-2.1c-0.3,0-0.3,0.3-0.3,0.7v2.1
				C117.5,158.2,117.5,158.6,117.9,158.6z"/>
			<path class="st7" d="M112.6,158.6h2.1c0.3,0,0.7-0.3,0.7-0.7v-2.1c0-0.3-0.3-0.7-0.7-0.7h-2.1c-0.3,0-0.7,0.3-0.7,0.7v2.1
				C111.9,158.2,112.3,158.6,112.6,158.6z"/>
			<path class="st7" d="M107.1,158.6h2.4c0,0,0.3-0.3,0.3-0.7v-2.1c0-0.3-0.3-0.7-0.3-0.7h-2.4c-0.3,0-0.3,0.3-0.3,0.7v2.1
				C106.7,158.2,106.7,158.6,107.1,158.6z"/>
			<path class="st7" d="M101.8,158.6h2.1c0.3,0,0.7-0.3,0.7-0.7v-2.1c0-0.3-0.3-0.7-0.7-0.7h-2.1c-0.3,0-0.7,0.3-0.7,0.7v2.1
				C101.2,158.2,101.5,158.6,101.8,158.6z"/>
			<path class="st7" d="M96.3,158.6h2.4c0.3,0,0.3-0.3,0.3-0.7v-2.1c0-0.3,0-0.7-0.3-0.7h-2.4c0,0-0.3,0.3-0.3,0.7v2.1
				C95.9,158.2,96.3,158.6,96.3,158.6z"/>
			<path class="st7" d="M91.1,158.6h2.1c0.3,0,0.7-0.3,0.7-0.7v-2.1c0-0.3-0.3-0.7-0.7-0.7h-2.1c-0.3,0-0.7,0.3-0.7,0.7v2.1
				C90.4,158.2,90.7,158.6,91.1,158.6z"/>
			<path class="st7" d="M85.8,158.6h2.1c0.3,0,0.3-0.3,0.3-0.7v-2.1c0-0.3,0-0.7-0.3-0.7h-2.1c-0.3,0-0.7,0.3-0.7,0.7v2.1
				C85.1,158.2,85.5,158.6,85.8,158.6z"/>
			<path class="st7" d="M80.3,158.6h2.1c0.3,0,0.7-0.3,0.7-0.7v-2.1c0-0.3-0.3-0.7-0.7-0.7h-2.1c-0.3,0-0.7,0.3-0.7,0.7v2.1
				C79.6,158.2,79.9,158.6,80.3,158.6z"/>
			<path class="st7" d="M75,158.6h2.1c0.3,0,0.3-0.3,0.3-0.7v-2.1c0-0.3,0-0.7-0.3-0.7H75c-0.3,0-0.7,0.3-0.7,0.7v2.1
				C74.3,158.2,74.7,158.6,75,158.6z"/>
			<path class="st7" d="M69.5,158.6h2.1c0.3,0,0.7-0.3,0.7-0.7v-2.1c0-0.3-0.3-0.7-0.7-0.7h-2.1c-0.3,0-0.7,0.3-0.7,0.7v2.1
				C68.8,158.2,69.1,158.6,69.5,158.6z"/>
			<path class="st7" d="M125.9,163.8h2.1c0.3,0,0.7-0.3,0.7-0.3V161c0-0.3-0.3-0.3-0.7-0.3h-2.1c-0.3,0-0.7,0-0.7,0.3v2.4
				C125.2,163.5,125.5,163.8,125.9,163.8z"/>
			<path class="st7" d="M120.3,163.8h2.4c0.3,0,0.3-0.3,0.3-0.3V161c0-0.3,0-0.3-0.3-0.3h-2.4c0,0-0.3,0-0.3,0.3v2.4L120.3,163.8z"
				/>
			<path class="st7" d="M115.1,163.8h2.1c0.3,0,0.7-0.3,0.7-0.3V161c0-0.3-0.3-0.3-0.7-0.3h-2.1c-0.3,0-0.7,0-0.7,0.3v2.4
				C114.4,163.5,114.7,163.8,115.1,163.8z"/>
			<path class="st7" d="M109.9,163.8h2.1c0.3,0,0.3-0.3,0.3-0.3V161c0-0.3,0-0.3-0.3-0.3h-2.1c-0.3,0-0.7,0-0.7,0.3v2.4
				C109.2,163.5,109.5,163.8,109.9,163.8z"/>
			<path class="st7" d="M104.3,163.8h2.1c0.3,0,0.7-0.3,0.7-0.3V161c0-0.3-0.3-0.3-0.7-0.3h-2.1c-0.3,0-0.7,0-0.7,0.3v2.4
				C103.6,163.5,103.9,163.8,104.3,163.8z"/>
			<path class="st7" d="M99.1,163.8h2.1c0.3,0,0.3-0.3,0.3-0.3V161c0-0.3,0-0.3-0.3-0.3h-2.1c-0.3,0-0.7,0-0.7,0.3v2.4
				C98.4,163.5,98.7,163.8,99.1,163.8z"/>
			<path class="st7" d="M93.5,163.8h2.1c0.3,0,0.7-0.3,0.7-0.3V161c0-0.3-0.3-0.3-0.7-0.3h-2.1c-0.3,0-0.7,0-0.7,0.3v2.4
				C92.8,163.5,93.1,163.8,93.5,163.8z"/>
			<path class="st7" d="M88.3,163.8h2.1c0.3,0,0.3-0.3,0.3-0.3V161c0-0.3,0-0.3-0.3-0.3h-2.1c-0.3,0-0.7,0-0.7,0.3v2.4
				C87.6,163.5,87.9,163.8,88.3,163.8z"/>
			<path class="st7" d="M82.7,163.8h2.1c0.3,0,0.7-0.3,0.7-0.3V161c0-0.3-0.3-0.3-0.7-0.3h-2.1c-0.3,0-0.7,0-0.7,0.3v2.4
				C82,163.5,82.4,163.8,82.7,163.8z"/>
			<path class="st7" d="M77.5,163.8h2.1c0.3,0,0.3-0.3,0.3-0.3V161c0-0.3,0-0.3-0.3-0.3h-2.1c-0.3,0-0.7,0-0.7,0.3v2.4
				C76.8,163.5,77.1,163.8,77.5,163.8z"/>
			<path class="st7" d="M71.9,163.8H74c0.3,0,0.7-0.3,0.7-0.3V161c0-0.3-0.3-0.3-0.7-0.3h-2.1c-0.3,0-0.7,0-0.7,0.3v2.4
				C71.2,163.5,71.6,163.8,71.9,163.8z"/>
			<path class="st7" d="M125.9,169h2.1c0.3,0,0.7,0,0.7-0.3v-2.1c0-0.3-0.3-0.7-0.7-0.7h-2.1c-0.3,0-0.7,0.3-0.7,0.7v2.1
				C125.2,169,125.5,169,125.9,169z"/>
			<path class="st7" d="M120.3,169h2.4c0.3,0,0.3,0,0.3-0.3v-2.1c0-0.3,0-0.7-0.3-0.7h-2.4c0,0-0.3,0.3-0.3,0.7v2.1
				C120,169,120.3,169,120.3,169z"/>
			<path class="st7" d="M115.1,169h2.1c0.3,0,0.7,0,0.7-0.3v-2.1c0-0.3-0.3-0.7-0.7-0.7h-2.1c-0.3,0-0.7,0.3-0.7,0.7v2.1
				C114.4,169,114.7,169,115.1,169z"/>
			<path class="st7" d="M109.9,169h2.1c0.3,0,0.3,0,0.3-0.3v-2.1c0-0.3,0-0.7-0.3-0.7h-2.1c-0.3,0-0.7,0.3-0.7,0.7v2.1
				C109.2,169,109.5,169,109.9,169z"/>
			<path class="st7" d="M104.3,169h2.1c0.3,0,0.7,0,0.7-0.3v-2.1c0-0.3-0.3-0.7-0.7-0.7h-2.1c-0.3,0-0.7,0.3-0.7,0.7v2.1
				C103.6,169,103.9,169,104.3,169z"/>
			<path class="st7" d="M99.1,169h2.1c0.3,0,0.3,0,0.3-0.3v-2.1c0-0.3,0-0.7-0.3-0.7h-2.1c-0.3,0-0.7,0.3-0.7,0.7v2.1
				C98.4,169,98.7,169,99.1,169z"/>
			<path class="st7" d="M93.5,169h2.1c0.3,0,0.7,0,0.7-0.3v-2.1c0-0.3-0.3-0.7-0.7-0.7h-2.1c-0.3,0-0.7,0.3-0.7,0.7v2.1
				C92.8,169,93.1,169,93.5,169z"/>
			<path class="st7" d="M88.3,169h2.1c0.3,0,0.3,0,0.3-0.3v-2.1c0-0.3,0-0.7-0.3-0.7h-2.1c-0.3,0-0.7,0.3-0.7,0.7v2.1
				C87.6,169,87.9,169,88.3,169z"/>
			<path class="st7" d="M82.7,169h2.1c0.3,0,0.7,0,0.7-0.3v-2.1c0-0.3-0.3-0.7-0.7-0.7h-2.1c-0.3,0-0.7,0.3-0.7,0.7v2.1
				C82,169,82.4,169,82.7,169z"/>
			<path class="st7" d="M77.5,169h2.1c0.3,0,0.3,0,0.3-0.3v-2.1c0-0.3,0-0.7-0.3-0.7h-2.1c-0.3,0-0.7,0.3-0.7,0.7v2.1
				C76.8,169,77.1,169,77.5,169z"/>
			<path class="st7" d="M71.9,169H74c0.3,0,0.7,0,0.7-0.3v-2.1c0-0.3-0.3-0.7-0.7-0.7h-2.1c-0.3,0-0.7,0.3-0.7,0.7v2.1
				C71.2,169,71.6,169,71.9,169z"/>
			<path class="st7" d="M66.7,163.8h2.1c0.3,0,0.7-0.3,0.7-0.3V161c0-0.3-0.3-0.3-0.7-0.3h-2.1c-0.3,0-0.7,0-0.7,0.3v2.4
				C66,163.5,66.3,163.8,66.7,163.8z"/>
			<path class="st7" d="M66.7,169h2.1c0.3,0,0.7,0,0.7-0.3v-2.1c0-0.3-0.3-0.7-0.7-0.7h-2.1c-0.3,0-0.7,0.3-0.7,0.7v2.1
				C66,169,66.3,169,66.7,169z"/>
			<path class="st7" d="M123.4,174.6h2.1c0.3,0,0.7-0.3,0.7-0.7v-2.1c0-0.3-0.3-0.7-0.7-0.7h-2.1c-0.3,0-0.7,0.3-0.7,0.7v2.1
				C122.7,174.3,123.1,174.6,123.4,174.6z"/>
			<path class="st7" d="M117.9,174.6h2.1c0.3,0,0.7-0.3,0.7-0.7v-2.1c0-0.3-0.3-0.7-0.7-0.7h-2.1c-0.3,0-0.3,0.3-0.3,0.7v2.1
				C117.5,174.3,117.5,174.6,117.9,174.6z"/>
			<path class="st7" d="M112.6,174.6h2.1c0.3,0,0.7-0.3,0.7-0.7v-2.1c0-0.3-0.3-0.7-0.7-0.7h-2.1c-0.3,0-0.7,0.3-0.7,0.7v2.1
				C111.9,174.3,112.3,174.6,112.6,174.6z"/>
			<path class="st7" d="M96.3,174.6h13.2c0,0,0.3-0.3,0.3-0.7v-2.1c0-0.3-0.3-0.7-0.3-0.7H96.3c-0.3,0-0.7,0.3-0.7,0.7v2.1
				C95.6,174.3,95.9,174.6,96.3,174.6z"/>
			<path class="st7" d="M91.1,174.6h2.1c0.3,0,0.7-0.3,0.7-0.7v-2.1c0-0.3-0.3-0.7-0.7-0.7h-2.1c-0.3,0-0.7,0.3-0.7,0.7v2.1
				C90.4,174.3,90.7,174.6,91.1,174.6z"/>
			<path class="st7" d="M85.8,174.6h2.1c0.3,0,0.3-0.3,0.3-0.7v-2.1c0-0.3,0-0.7-0.3-0.7h-2.1c-0.3,0-0.7,0.3-0.7,0.7v2.1
				C85.1,174.3,85.5,174.6,85.8,174.6z"/>
			<path class="st7" d="M80.3,174.6h2.1c0.3,0,0.7-0.3,0.7-0.7v-2.1c0-0.3-0.3-0.7-0.7-0.7h-2.1c-0.3,0-0.7,0.3-0.7,0.7v2.1
				C79.6,174.3,79.9,174.6,80.3,174.6z"/>
			<path class="st7" d="M75,174.6h2.1c0.3,0,0.3-0.3,0.3-0.7v-2.1c0-0.3,0-0.7-0.3-0.7H75c-0.3,0-0.7,0.3-0.7,0.7v2.1
				C74.3,174.3,74.7,174.6,75,174.6z"/>
			<path class="st7" d="M69.5,174.6h2.1c0.3,0,0.7-0.3,0.7-0.7v-2.1c0-0.3-0.3-0.7-0.7-0.7h-2.1c-0.3,0-0.7,0.3-0.7,0.7v2.1
				C68.8,174.3,69.1,174.6,69.5,174.6z"/>
			<polygon class="st2" points="99.8,151.3 95.2,151.3 95.2,149.5 99.8,149.5 			"/>
			<path d="M33.3,162.8l0.7,8c0,3.1-2.4,5.6-5.6,5.6h-2.8c-2.8,0-5.2-2.4-5.2-5.6l0.3-8H33.3z"/>
			<path class="st8" d="M28.4,155.8c3.1,0,4.9,2.4,4.9,5.6v1.4H27v-7H28.4z"/>
			<path class="st8" d="M21.1,161.4c0-3.1,1.7-5.6,4.5-5.6H27v7h-6.3L21.1,161.4z"/>
			<path class="st5" d="M26.7,163.5h0.7c0.3,0,0.3-0.3,0.3-0.3v-4.5c0-0.3,0-0.3-0.3-0.3h-0.7c0,0-0.3,0-0.3,0.3v4.5L26.7,163.5z"/>
			<polygon class="st5" points="27.3,158.2 27,158.2 27,155.8 27.3,155.8 			"/>
			<path class="st2" d="M12,142.6h28.9c1.4,0,2.8-1.4,2.8-2.8V73.6c0-1.7-1.4-3.1-2.8-3.1H12c-1.7,0-3.1,1.4-3.1,3.1v66.1
				C8.9,141.2,10.3,142.6,12,142.6z"/>
			<path class="st8" d="M8.9,139.8V114c2.8-5.9,9.7-10.1,17.4-10.1c8,0,14.6,4.2,17.4,10.1v25.8c0,1.4-1.4,2.8-2.8,2.8H12
				C10.3,142.6,8.9,141.2,8.9,139.8z"/>
			<polygon class="st4" points="27,142.6 25.6,142.6 25.6,120.3 27,120.3 			"/>
			<path class="st9" d="M26.3,120.6c1.4,0,2.4-0.7,3.5-2.1l1.7-3.1c0.7-1.4,0.7-2.8,0.3-3.8c-0.7-1.4-2.1-1.7-3.8-1.7h-3.5
				c-1.7,0-2.8,0.3-3.5,1.7c-0.7,1-0.7,2.4,0,3.8l1.7,3.1C23.9,120,24.9,120.6,26.3,120.6z"/>
			<path class="st3" d="M29.8,114.4l-1.7,3.5c-1,1.4-2.4,1.4-3.5,0l-1.7-3.5c-1-1.4,0-2.8,1.7-2.8H28
				C30.1,111.6,30.8,113,29.8,114.4z"/>
			<polygon class="st8" points="41.6,83.4 11,83.4 11,75.4 41.6,75.4 			"/>
			<polygon class="st8" points="41.6,92.4 11,92.4 11,84.4 41.6,84.4 			"/>
			<polygon class="st10" points="38.1,97 33.6,97 33.6,94.9 38.1,94.9 			"/>
			<polygon class="st11" points="38.1,95.6 33.6,95.6 33.6,94.9 38.1,94.9 			"/>
			<polygon class="st10" points="31.2,97 26.7,97 26.7,94.9 31.2,94.9 			"/>
			<polygon class="st11" points="31.2,95.6 26.7,95.6 26.7,94.9 31.2,94.9 			"/>
			<path class="st8" d="M21.4,95.9c0,0.7,0.7,1,1,1s0.7-0.3,0.7-1c0-0.3-0.3-0.7-0.7-0.7S21.4,95.6,21.4,95.9z"/>
			<path class="st11" d="M22.5,96.6c0.3,0,0.7-0.3,0.7-0.7c0-0.3-0.3-0.7-0.7-0.7s-0.7,0.3-0.7,0.7C21.8,96.3,22.1,96.6,22.5,96.6z"
				/>
			<path class="st8" d="M18.3,95.9c0,0.7,0.3,1,0.7,1c0.7,0,1-0.3,1-1c0-0.3-0.3-0.7-1-0.7C18.6,95.2,18.3,95.6,18.3,95.9z"/>
			<path class="st11" d="M19,96.6c0.3,0,0.7-0.3,0.7-0.7c0-0.3-0.3-0.7-0.7-0.7c-0.3,0-0.7,0.3-0.7,0.7C18.3,96.3,18.6,96.6,19,96.6
				z"/>
			<path class="st12" d="M14.5,95.9c0,0.3,0.3,0.7,0.7,0.7s0.7-0.3,0.7-0.7c0-0.3-0.3-0.7-0.7-0.7S14.5,95.6,14.5,95.9z"/>
			<polygon class="st2" points="15.2,87.2 12.4,87.2 12.4,85.8 15.2,85.8 			"/>
			<polygon class="st2" points="15.2,78.2 12.4,78.2 12.4,76.8 15.2,76.8 			"/>
			<path d="M43.7,138.8v1c0,1.4-1.4,2.8-2.8,2.8H12c-1.7,0-3.1-1.4-3.1-2.8v-1H43.7z"/>
			<path d="M97,149.9l0.7-0.3c0,0-1.4-4.9-10.8-4.9c-2.1,0-4.9,0-7.3,0.3c-10.1,1-22.3,2.1-25.8-5.9c-0.3-1.4-1-3.1-1.4-4.5
				c-2.1-5.9-4.2-10.8-8.7-10.8v0.7c4.2,0,5.9,4.9,8,10.4c0.3,1.4,1,2.8,1.4,4.5c3.8,8.4,16.4,7.3,26.5,6.3c2.4,0,5.2-0.3,7.3-0.3
				C95.6,145.4,97,149.9,97,149.9z"/>
		</g>
		<g>
			<path class="st13" d="M187.1,124.1v52.2c0,2.4-74.2,2.4-74.2,0v-52.2H187.1z"/>
			<path class="st14" d="M187.1,124.1v34.1c0,2.8-74.2,2.8-74.2,0v-34.1H187.1z"/>
			<polygon class="st15" points="113,124.1 187.1,124.1 187.1,113.3 113,113.3 			"/>
			<path class="st16" d="M176,161.4h-51.9v-13.2c0-1.7,1.7-3.5,3.8-3.5h44.2c2.1,0,3.8,1.7,3.8,3.5V161.4z"/>
			<path class="st17" d="M169.4,157.6h-38.6v-4.9c0-2.4,1.7-4.2,4.2-4.2h30.3c2.4,0,4.2,1.7,4.2,4.2V157.6z"/>
			<path class="st18" d="M176.4,158.9v2.4c0,0.3,0,0.3-0.3,0.3c0,1-0.7,1.4-1.7,1.4h-48.4c-1,0-1.7-0.3-1.7-1.4c0,0,0,0,0-0.3v-2.4
				v-0.3c0-0.7,0.7-1.4,1.7-1.4h48.4c1,0,1.7,0.7,1.7,1.4L176.4,158.9z"/>
			<path class="st19" d="M176,158.6h-51.9c0-0.7,0.7-1.4,1.7-1.4h48.4C175.3,157.2,176,157.9,176,158.6z"/>
			<path class="st20" d="M176,161.7c0,1-0.7,1.4-1.7,1.4h-48.4c-1,0-1.7-0.3-1.7-1.4H176z"/>
			<path class="st21" d="M190.6,108.5v7.3c0,2.8-1.4,4.9-3.5,6.6c-1.4,1-3.5,1.7-5.6,1.7h-63c-2.1,0-4.2-0.7-5.6-1.7
				c-2.1-1.7-3.5-3.8-3.5-6.6v-7.3H190.6z"/>
			<path class="st22" d="M190.6,106v3.1h-44.9V97.7h38.6c1,0,2.1,0.7,2.4,1.4l1.4,2.4l1.7,2.8l0.3,0.7l0.3,0.3l0,0
				C190.6,105.7,190.6,105.7,190.6,106z"/>
			<path class="st23" d="M190.6,108.5v4.5c0,2.4-1.4,4.9-3.5,6.3c-1.4,1-3.5,1.7-5.6,1.7h-63c-2.1,0-4.2-0.7-5.6-1.7
				c-2.1-1.4-3.5-3.8-3.5-6.3v-4.5H190.6z"/>
			<polygon class="st16" points="130.7,119.6 155.1,119.6 155.1,109.9 130.7,109.9 			"/>
			<polygon class="st24" points="134.9,117.9 150.9,117.9 150.9,111.6 134.9,111.6 			"/>
			<path class="st25" d="M161.4,112.6h-2.1c-0.3,0-0.3,0-0.3-0.3v-1c0,0,0-0.3,0.3-0.3h2.1v0.3v1
				C161.4,112.6,161.4,112.6,161.4,112.6z"/>
			<path class="st25" d="M161.4,115.4h-2.1c-0.3,0-0.3,0-0.3,0V114c0,0,0,0,0.3,0h2.1l0,0V115.4L161.4,115.4z"/>
			<path class="st25" d="M161.4,118.6h-2.1c-0.3,0-0.3-0.3-0.3-0.3v-1c0-0.3,0-0.3,0.3-0.3h2.1c0,0,0,0,0,0.3v1V118.6z"/>
			<path class="st25" d="M165.2,112.6h-2.1c0,0,0,0,0-0.3v-1v-0.3h2.1c0.3,0,0.3,0.3,0.3,0.3v1C165.6,112.6,165.6,112.6,165.2,112.6
				z"/>
			<path class="st25" d="M165.2,115.4h-2.1l0,0V114l0,0h2.1c0.3,0,0.3,0,0.3,0v1.4C165.6,115.4,165.6,115.4,165.2,115.4z"/>
			<path class="st25" d="M165.2,118.6h-2.1v-0.3v-1c0-0.3,0-0.3,0-0.3h2.1c0.3,0,0.3,0,0.3,0.3v1
				C165.6,118.2,165.6,118.6,165.2,118.6z"/>
			<path class="st25" d="M169.4,112.6h-2.1c-0.3,0-0.3,0-0.3-0.3v-1c0,0,0-0.3,0.3-0.3h2.1l0.3,0.3v1
				C169.7,112.6,169.4,112.6,169.4,112.6z"/>
			<path class="st25" d="M169.4,115.4h-2.1c-0.3,0-0.3,0-0.3,0V114c0,0,0,0,0.3,0h2.1h0.3v1.4H169.4z"/>
			<path class="st25" d="M169.4,118.6h-2.1c-0.3,0-0.3-0.3-0.3-0.3v-1c0-0.3,0-0.3,0.3-0.3h2.1c0,0,0.3,0,0.3,0.3v1L169.4,118.6z"/>
			<path class="st26" d="M154.8,108.5h-45.3v-9.4c0-0.3,0-1,0-1.4c0.7-3.5,3.8-6.3,7.7-6.3h24.7c1,0,2.1,0.7,2.8,1.7l3.1,4.5
				L154.8,108.5z"/>
			<path class="st27" d="M190.6,106v2.4h-81.1V106c0-1,0.7-1.7,1.7-1.7h77.6c0.7,0,1,0.3,1.4,0.7l0.3,0.3l0,0
				C190.6,105.7,190.6,105.7,190.6,106z"/>
			<path class="st28" d="M159.6,98h-19.1v-5.2h14.6C157.6,92.8,159.6,94.9,159.6,98L159.6,98z"/>
			<path class="st29" d="M147.8,97.7h-38.3c0.7-3.5,3.8-6.3,7.7-6.3h24.7c1,0,2.1,0.7,2.8,1.7L147.8,97.7z"/>
			<path class="st30" d="M147.8,97.7v3.1h-30.3c-0.7,0-1-0.7-1-1v-1c0-0.3,0-0.3,0.3-0.3c0-0.3,0.3-0.7,0.7-0.7H147.8z"/>
			<path class="st31" d="M147.8,97.7v0.7h-31c0-0.3,0.3-0.7,0.7-0.7H147.8z"/>
			<path class="st31" d="M147.8,97.7v0.7l31-6.3l0,0c0-0.3-0.3-0.3-0.7-0.3L147.8,97.7z"/>
			<polygon class="st30" points="147.8,100.8 178.8,94.5 178.8,92.1 147.8,98.4 			"/>
			<polygon class="st26" points="189.9,104.3 147.8,104.3 147.8,101.5 188.2,101.5 			"/>
			<polygon class="st32" points="164.5,150.2 135.6,150.2 132.1,167 168,167 			"/>
		</g>
		<g>
			<path class="st33" d="M237.3,185.1h-68.9c-1.4,0-2.4-1-2.4-2.4v-0.7h73.5v0.7C239.4,184,238.3,185.1,237.3,185.1z"/>
			<path class="st34" d="M232.4,165.9h-59.2l59.2-24.7V165.9z M231.4,130.4h-57.4c-1,0-1.7,0.7-1.7,2.1v34.8c0,1,0.7,2.1,1.7,2.1
				h57.4c1,0,2.1-1,2.1-2.1v-34.8C233.4,131.1,232.4,130.4,231.4,130.4z"/>
			<path class="st35" d="M233.4,167.3c0,1-1,2.1-2.1,2.1h-57.4c-1,0-1.7-1-1.7-2.1v-34.8c0-1.4,0.7-2.1,1.7-2.1h57.4
				c1,0,2.1,0.7,2.1,2.1V167.3z M231.4,129.4h-57.4c-1.4,0-2.8,1.4-2.8,3.1v34.8c0,1.7,1.4,3.1,2.8,3.1h57.4c1.7,0,3.1-1.4,3.1-3.1
				v-34.8C234.5,130.7,233.1,129.4,231.4,129.4z"/>
			<polygon class="st36" points="232.4,141.2 232.4,165.9 173.2,165.9 			"/>
			<polygon class="st37" points="232.4,132.1 232.4,141.2 173.2,165.9 173.2,132.1 			"/>
			<path class="st38" d="M241.1,180.2L241.1,180.2c0,0.7-0.3,1.4-1.4,1.4h-74.2c-0.7,0-1-0.7-1-1.4v2.4l0,0c0,0.7,0.3,1.4,1,1.4
				h74.2c0.7,0,1.4-0.7,1.4-1.4l0,0V180.2z"/>
			<path class="st39" d="M165.6,181.6h74.2c1,0,1.4-0.7,1.4-1.4c0-0.3,0-0.3-0.3-0.7l-5.6-8c-0.3-0.7-1.4-1-2.1-1h-60.6
				c-1,0-1.7,0.3-2.4,1l-5.6,8c0,0.3,0,0.3,0,0.7C164.5,180.9,164.9,181.6,165.6,181.6z"/>
			<path class="st40" d="M232.1,175.7l-1.7-2.8c0-0.7-0.7-1-1-1h-52.9c-0.7,0-1,0.3-1.4,1l-1.4,2.8c-0.3,0.3,0,0.7,0.3,0.7h57.4
				C232.1,176.4,232.1,176,232.1,175.7z"/>
			<path class="st38" d="M209.8,179.8l-0.3-2.1c0-0.3-0.3-0.7-0.7-0.7h-11.8c-0.3,0-0.7,0.3-0.7,0.7l-0.7,2.1c0,0.3,0.3,0.7,0.7,0.7
				h13.2C209.8,180.5,209.8,180.2,209.8,179.8z"/>
			<path class="st41" d="M196.9,177.4c-0.3,0-0.7,0-0.7,0.3l-0.3,2.1v0.3l0.3,0.3h13.2c0,0,0-0.3,0.3-0.3v-0.3l-0.3-2.1
				c0-0.3-0.3-0.3-0.7-0.3H196.9z M209.4,180.5h-13.2c0,0-0.3,0-0.3-0.3c-0.3,0-0.3-0.3-0.3-0.3l0.7-2.1c0-0.3,0.3-0.7,0.7-0.7h11.8
				c0.3,0,0.7,0.3,0.7,0.7l0.3,2.1v0.3C209.8,180.5,209.4,180.5,209.4,180.5z"/>
			<polygon class="st37" points="232.4,132.1 232.4,141.2 173.2,165.9 173.2,132.1 			"/>
		</g>
		<g>
			<path class="st42" d="M101.2,175c0,1,1,1.7,1.7,1.7v-3.5C102.2,173.2,101.2,173.9,101.2,175z"/>
			<path class="st43" d="M104.6,175c0-1-0.7-1.7-1.7-1.7l0,0v3.5l0,0C103.9,176.7,104.6,176,104.6,175z"/>
			<path class="st43" d="M100.8,175c0-1,1-2.1,2.1-2.1v-1H87.2v-36.2h15.7v-0.7h-2.8l-0.3-0.3l0.3-0.3h2.8v-0.7c0,0-0.3,0-0.3-0.3
				l0.3-0.3v-0.7H87.6c-1,0-2.1,1-2.1,2.1V176c0,1.4,1,2.1,2.1,2.1h15.3v-1C101.8,177,100.8,176.4,100.8,175z"/>
			<path class="st42" d="M118.6,132.1h-15.7v0.7c0.3,0,0.3,0.3,0.3,0.3c0,0.3,0,0.3-0.3,0.3v0.7h3.1l0.3,0.3l-0.3,0.3h-3.1v0.7h16
				v36.2h-16v1l0,0c1.4,0,2.4,1,2.4,2.1c0,1.4-1,2.1-2.4,2.1l0,0v1h15.7c1,0,2.1-0.7,2.1-2.1v-41.8
				C120.6,133.2,119.6,132.1,118.6,132.1z"/>
			<polygon class="st44" points="102.9,171.8 118.9,171.8 118.9,135.6 102.9,135.6 			"/>
			<polygon class="st45" points="87.2,171.8 102.9,171.8 102.9,135.6 87.2,135.6 			"/>
			<path class="st7" d="M106,134.9l0.3-0.3l-0.3-0.3h-3.1v0.7H106z"/>
			<path class="st7" d="M99.8,134.6l0.3,0.3h2.8v-0.7h-2.8L99.8,134.6z"/>
			<path class="st46" d="M102.5,133.2c0,0.3,0.3,0.3,0.3,0.3v-0.7L102.5,133.2z"/>
			<path class="st46" d="M102.9,133.5c0.3,0,0.3,0,0.3-0.3c0,0,0-0.3-0.3-0.3V133.5z"/>
			<path class="st7" d="M100.8,175c0,1.4,1,2.1,2.1,2.1v-0.3c-0.7,0-1.7-0.7-1.7-1.7s1-1.7,1.7-1.7v-0.3
				C101.8,172.9,100.8,173.9,100.8,175z"/>
			<path class="st7" d="M102.9,173.2c1,0,1.7,0.7,1.7,1.7s-0.7,1.7-1.7,1.7l0,0v0.3l0,0c1.4,0,2.4-0.7,2.4-2.1c0-1-1-2.1-2.4-2.1
				l0,0V173.2L102.9,173.2z"/>
		</g>
		<g>
			<path class="st42" d="M131.8,148.2h-7.3v36.9h7.3c1.7,0,2.8-1.4,2.8-2.8v-31.3C134.6,149.2,133.5,148.2,131.8,148.2z"/>
			<path class="st43" d="M117.5,148.2c-1.7,0-2.8,1-2.8,2.8v31.3c0,1.4,1,2.8,2.8,2.8h7v-36.9H117.5z"/>
			<polygon class="st7" points="120.6,150.2 128.7,150.2 128.7,149.5 120.6,149.5 			"/>
			<path class="st7" d="M124.5,180.2c-0.7,0-1.4,0.7-1.4,1.7c0,0.7,0.7,1.4,1.4,1.4c1,0,1.7-0.7,1.7-1.4
				C126.2,180.9,125.5,180.2,124.5,180.2z M124.5,184c-1,0-2.1-1-2.1-2.1c0-1.4,1-2.4,2.1-2.4c1.4,0,2.4,1,2.4,2.4
				C126.9,183,125.9,184,124.5,184z"/>
			<polygon class="st45" points="115.8,178.1 124.8,178.1 124.8,152.3 115.8,152.3 			"/>
			<polygon class="st44" points="124.8,178.1 133.5,178.1 133.5,152.3 124.8,152.3 			"/>
		</g>
	</g>
</g>
</svg>
