<?xml version="1.0" encoding="utf-8"?>
<!-- Generator: Adobe Illustrator 24.2.1, SVG Export Plug-In . SVG Version: 6.00 Build 0)  -->
<svg version="1.1"
	 id="Layer_1" shape-rendering="geometricPrecision" image-rendering="optimizeQuality" text-rendering="geometricPrecision"
	 xmlns="http://www.w3.org/2000/svg" xmlns:xlink="http://www.w3.org/1999/xlink" x="0px" y="0px" viewBox="0 0 250 250"
	 style="enable-background:new 0 0 250 250;" xml:space="preserve">
<style type="text/css">
	.st0{fill:none;stroke:#FFFFFF;stroke-width:0.5002;stroke-miterlimit:10;}
	.st1{fill:#965D1C;}
	.st2{fill:#323234;}
	.st3{fill:none;stroke:#FFFFFF;stroke-width:0.5672;stroke-linecap:round;stroke-linejoin:round;stroke-miterlimit:10;}
	.st4{fill:#47474A;}
	.st5{fill:#201F20;}
	.st6{fill:none;stroke:#4E4E4F;stroke-width:0.5672;stroke-linecap:round;stroke-linejoin:round;stroke-miterlimit:10;}
	.st7{fill:#FFFFFF;}
	.st8{fill:#E5E6E7;}
	.st9{fill:#A73F43;}
	.st10{fill:#8E393C;}
	.st11{fill:#937F68;}
	.st12{fill:#BBAEB8;}
	.st13{fill:#7B3437;}
	.st14{fill:#DDDEDF;}
	.st15{fill:#FEFEFE;}
	.st16{fill:#D9DADB;}
	.st17{fill:#C5C6C8;}
	.st18{fill:#C14044;}
	.st19{fill:#B3A37E;}
	.st20{fill:#C1C2C4;}
	.st21{fill:#95373A;}
	.st22{fill:#3D241C;}
	.st23{fill:#231F1E;}
	.st24{fill:#2B1712;}
	.st25{fill:#51AD27;}
	.st26{fill:#94E063;}
	.st27{fill:#7E584C;}
	.st28{fill:#8CC055;}
	.st29{fill:#B8E784;}
	.st30{fill:#FF0303;}
	.st31{fill:#FFEBB8;}
	.st32{fill:#EA6C18;}
	.st33{fill:#D6681E;}
	.st34{fill:#FF7E27;}
	.st35{fill:#161616;}
	.st36{fill:#E80A0A;}
	.st37{fill:#1F470E;}
	.st38{fill:#FF0707;}
	.st39{fill:#CC0202;}
	.st40{fill:#B60101;}
	.st41{fill:#FF3636;}
	.st42{fill:#FFEFC7;}
	.st43{fill:#E2864C;}
	.st44{fill:#FF9853;}
	.st45{fill:#584545;}
	.st46{fill:#EE3C3C;}
	.st47{fill:#5F6C3F;}
	.st48{fill:#FF3939;}
	.st49{fill:#E40202;}
	.st50{fill:#E49E7C;}
	.st51{fill:#E4541A;}
	.st52{fill:#D00707;}
	.st53{fill:#E40505;}
	.st54{fill:#2F8E34;}
	.st55{fill:#DDDB94;}
	.st56{fill:#DBA171;}
	.st57{fill:#FF8C36;}
	.st58{fill:#FFA669;}
	.st59{fill:#197237;}
	.st60{fill:#FFCC3E;}
	.st61{fill:#267F2A;}
	.st62{fill:#B2C478;}
	.st63{fill:#B0905B;}
	.st64{fill:#CD7D2C;}
	.st65{fill:#CD9455;}
	.st66{fill:#14662C;}
	.st67{fill:#CDB632;}
	.st68{fill:#7C7684;}
	.st69{fill:#594540;}
	.st70{fill:#97F0FF;}
	.st71{fill:#35180E;}
	.st72{fill:#FF2A00;}
	.st73{fill:#1F6425;}
	.st74{fill:#919A69;}
	.st75{fill:#63A9B5;}
	.st76{fill:#23110A;}
	.st77{fill:#A71E00;}
	.st78{fill:#A7B4B5;}
	.st79{fill:#4F4843;}
	.st80{fill:#6F6B6A;}
	.st81{fill:#4C0D0C;}
	.st82{fill:#FF4F2A;}
	.st83{fill:#7A3734;}
	.st84{fill:#7F1CA0;}
	.st85{fill:#631384;}
	.st86{fill:#942BBF;}
	.st87{fill:#903F98;}
	.st88{fill:#A491C5;}
	.st89{fill:#BC95C4;}
	.st90{fill:#EEFF08;}
	.st91{fill:#2D1616;}
	.st92{fill:#5E1180;}
	.st93{fill:#490B69;}
	.st94{fill:#6B2779;}
	.st95{fill:#7A599D;}
	.st96{fill:#8C5B9C;}
	.st97{fill:#B19C06;}
	.st98{fill:#6D6072;}
	.st99{fill:#514756;}
	.st100{fill:#AB9CB1;}
	.st101{fill:#9741B2;}
	.st102{fill:#80399C;}
	.st103{fill:#A84ECC;}
	.st104{fill:#A45EAC;}
	.st105{fill:#B5A3D0;}
	.st106{fill:#C9A6CF;}
	.st107{fill:#F1FF37;}
	.st108{fill:#C2763C;}
	.st109{fill:#F5D35B;}
	.st110{fill:#F7DB71;}
	.st111{fill:#FAE48B;}
	.st112{fill:#FBE9A0;}
	.st113{fill:#8BAD51;}
	.st114{fill:#9FC559;}
	.st115{fill:#C4D663;}
	.st116{fill:#B6C75D;}
	.st117{fill:#933031;}
	.st118{fill:#B33337;}
	.st119{fill:#CF483A;}
	.st120{fill:#D78C46;}
	.st121{fill:#C58242;}
	.st122{fill:#DB9950;}
</style>
<g id="Layer_x0020_1">
	<rect x="-20" y="-20" class="st0" width="290" height="290"/>
	<g id="_2861441077072">
		<g>
			<path class="st1" d="M237.3,122.4c-3.1,19.5-6.3,39.3-9.7,58.8c-8,0.7-16,0.7-24.4,0c-3.1-19.5-6.3-39.3-9.4-58.8
				C208,124.5,223,124.5,237.3,122.4z"/>
			<path class="st2" d="M200,163.1c-1.4-9.7-3.1-19.1-4.5-28.9c13.2,2.1,26.8,2.1,40,0c-1.7,9.7-3.1,19.1-4.5,28.9
				C220.6,164.2,210.5,164.2,200,163.1z"/>
			<path class="st3" d="M195.8,136.7c12.9,1.7,26.1,1.7,39.3,0 M231.4,161c-10.4,0.7-21.2,0.7-31.7,0"/>
			<path class="st2" d="M189.9,120.6c0-1.7,11.5-2.8,25.8-2.8c13.9,0,25.4,1,25.4,2.8c0,0.7,0,2.1,0,2.8c0,1.7-11.5,2.8-25.4,2.8
				c-14.3,0-25.8-1-25.8-2.8C189.9,122.7,189.9,121.3,189.9,120.6z"/>
			<path class="st4" d="M189.9,120.6c0,1.4,11.5,2.8,25.8,2.8c13.9,0,25.4-1.4,25.4-2.8c0-1.7-11.5-2.8-25.4-2.8
				C201.4,117.9,189.9,118.9,189.9,120.6z"/>
			<path class="st2" d="M194.1,115.8c0-1.4,9.7-2.4,21.6-2.4c11.8,0,21.6,1,21.6,2.4c0,0.7,0.3,3.8,0.3,4.5c0,1.4-9.7,2.4-21.9,2.4
				c-12.2,0-22.3-1-22.3-2.4C193.4,119.6,194.1,116.5,194.1,115.8z"/>
			<path class="st4" d="M194.1,115.8c0,1.4,9.4,2.4,21.6,2.4c11.8,0,21.6-1,21.6-2.4c0-1.4-9.7-2.4-21.6-2.4
				C203.9,113.3,194.1,114.4,194.1,115.8z"/>
			<path class="st2" d="M197.6,112.3c0.3-1,8.4-1.7,18.1-1.7c9.4,0,17.4,0.7,17.8,1.7c0,0.3,1.7,2.8,1.7,3.1c0,1-8.7,2.1-19.5,2.1
				c-10.8,0-19.8-1-19.8-2.1C195.8,115.1,197.6,112.6,197.6,112.3z"/>
			<path class="st4" d="M197.6,112.3c0,1,8,1.7,18.1,1.7c10.1,0,18.1-0.7,17.8-1.7c-0.3-1-8.4-1.7-17.8-1.7
				C205.9,110.6,197.9,111.2,197.6,112.3z"/>
			<path class="st5" d="M199.7,112.3c0,0,1,0.3,2.8,0.3c1.4,0,2.8-0.3,2.8-0.3c0-0.3-1.4-0.3-2.8-0.3
				C200.7,111.9,199.7,111.9,199.7,112.3z"/>
			<path class="st6" d="M241.1,122.4c-10.1,2.8-44.2,3.1-51.2,0"/>
			<g>
				<path class="st7" d="M219.5,146.8c-3.1,1.4-3.8,2.8-4.2,3.8c-0.3,1.7-1.7,2.8-3.5,3.5l0,0c1.4,1,4.2,0.7,6.3-1.4
					C219.9,150.6,220.6,147.8,219.5,146.8z"/>
				<path class="st7" d="M214.6,150.2c0.3-1.4,1-2.4,4.5-4.2h-0.3c-1-1.4-3.8-0.7-5.9,1.4s-2.8,4.5-1.4,5.9
					C212.9,152.7,214.3,151.6,214.6,150.2z"/>
			</g>
			<g>
				<path class="st7" d="M222,149.9c-0.7,2.1-0.3,2.8,0.3,3.1c0.3,0.7,0.3,1.7,0.3,2.4l0,0c1,0,1.4-1.4,1.4-3.1
					C223.7,150.9,222.7,149.9,222,149.9z"/>
				<path class="st7" d="M221.6,153c-0.3-0.3-0.7-1-0.3-3.1l0,0c-1,0.3-1.4,1.7-1.4,3.1c0.3,1.7,1.4,2.8,2.4,2.8
					C222.3,154.8,222.3,153.7,221.6,153z"/>
			</g>
			<g>
				<path class="st7" d="M207.7,146.4c2.1,0,2.8-0.3,3.1-1c0.3-0.7,1.4-1,2.1-1l0,0c-0.3-1-1.7-1-3.1-0.3
					C208.4,144.3,207.3,145.7,207.7,146.4z"/>
				<path class="st7" d="M210.8,145.7c-0.3,0.7-1,1-2.8,1c0,0.3,0,0.3,0,0.3c0.3,0.7,1.7,1,3.1,0.3c1.4-0.7,2.4-1.7,2.1-2.8
					C212.2,144.7,211.2,145,210.8,145.7z"/>
			</g>
			<g>
				<path class="st7" d="M220.9,143.6c0.7,1.7,1.4,2.4,2.1,2.4c1,0.3,1.4,1,1.7,2.1l0,0c0.7-0.7,0.3-2.1-0.7-3.5
					C223.3,143.6,222,142.9,220.9,143.6z"/>
				<path class="st7" d="M222.7,146.4c-0.7-0.3-1-0.7-1.7-2.4c0,0,0,0-0.3,0c-0.7,0.7-0.3,2.1,0.7,3.1c1,1.4,2.4,1.7,3.1,1
					C224,147.5,223.7,146.8,222.7,146.4z"/>
			</g>
			<g>
				<path class="st7" d="M205.9,149.5c0.7,1.7,1.4,2.4,2.1,2.4c0.7,0.3,1.4,1,1.7,2.1l0,0c0.7-0.7,0.3-2.1-0.7-3.5
					C208,149.5,206.6,148.8,205.9,149.5z"/>
				<path class="st7" d="M207.7,152.3c-0.7-0.3-1.4-0.7-2.1-2.4l0,0c-0.7,0.7-0.3,2.1,0.7,3.1c1,1.4,2.4,1.7,3.1,1
					C209.1,153.4,208.7,152.7,207.7,152.3z"/>
			</g>
		</g>
		<g>
			<path class="st8" d="M58,146.8c0.7,8.4,1.4,15.7,1.4,16.4c0,2.8,5.2,4.5,11.5,4.5s11.1-1.7,11.1-4.5c0-0.7,0.7-8,1.4-16.4H58z"/>
			<path class="st9" d="M87.2,111.9c0-2.8-7.3-4.9-16.4-4.9s-16.7,2.1-16.7,4.9c0,2.1,3.8,46,3.8,48.4c0,2.4,5.9,4.9,12.9,4.9
				s12.5-2.4,12.5-4.9C83.4,157.9,87.2,114,87.2,111.9z"/>
			<path class="st10" d="M70.9,165.2L70.9,165.2L70.9,165.2z"/>
			<path class="st11" d="M83.4,160.3L83.4,160.3L83.4,160.3L83.4,160.3L83.4,160.3L83.4,160.3z M83.4,160.3c0-0.3,0-0.7,0-1.4l0,0
				C83.4,159.6,83.4,160,83.4,160.3z"/>
			<path class="st10" d="M70.9,165.2c3.5,0,6.3-0.7,8.7-1.4c-4.5-1-8.4-2.4-11.5-5.6c-6.3-5.9-8.7-15-9.4-23
				c-0.7-6.3-0.7-12.9,0.7-19.5c1.4,0.3,3.1,0.7,5.2,1c-0.3,2.8-0.7,5.6-0.7,8.4c0,8,1.7,17.8,6.6,24c3.1,3.8,7.7,8.4,12.9,9.7
				c0,0.7,0,1,0,1.4l0,0l0,0l0,0c0,0.3,0,0.7-0.3,0.7C82,163.5,76.8,165.2,70.9,165.2z"/>
			<path class="st12" d="M70.9,165.2L70.9,165.2L70.9,165.2z"/>
			<path class="st13" d="M70.9,165.2c-7,0-12.9-2.4-12.9-4.9c0-2.1-3.1-37.9-3.5-46.7c0.7,0.7,2.4,1.4,4.9,2.1
				c-1.4,6.6-1.4,13.2-0.7,19.5c0.7,8,3.1,17.1,9.4,23c3.1,3.1,7,4.5,11.5,5.6C77.1,164.5,74.3,165.2,70.9,165.2L70.9,165.2
				L70.9,165.2L70.9,165.2z"/>
			<path class="st14" d="M88.3,111.9c0,2.8-7.7,5.2-17.4,5.2s-17.8-2.4-17.8-5.2c0-0.7,0-4.9,0-4.9s10.1-0.3,17.8-0.3
				s17.4,0.3,17.4,0.3S88.3,111.2,88.3,111.9z"/>
			<path class="st15" d="M88.3,107.1c0,2.8-7.7,5.2-17.4,5.2s-17.8-2.4-17.8-5.2c0-3.1,8-5.2,17.8-5.2S88.3,103.9,88.3,107.1z"/>
			<path class="st16" d="M85.8,107.1h-0.7c0,0,0,0.3,0,0.7c-0.3,0.3-1,0.7-1.7,1c-1.4,0.7-3.1,1.4-5.2,1.7c-2.1,0.3-4.5,0.3-7.3,0.3
				c-4.2,0-8-0.3-10.4-1c-1.4-0.7-2.4-1-3.1-1.4c-0.3-0.3-0.7-0.7-0.7-0.7c-0.3-0.3-0.3-0.7-0.3-0.7c0-0.3,0-0.7,0.3-0.7
				c0.3-0.7,0.7-1,1.7-1.4c1-0.7,3.1-1,5.2-1.4c2.1-0.3,4.5-0.7,7.3-0.7c4.2,0,7.7,0.3,10.4,1.4c1.4,0.3,2.4,0.7,3.1,1.4
				c0.3,0,0.3,0.3,0.7,0.7c0,0,0,0.3,0,0.7h1c0-0.7-0.3-1-0.3-1.4c-0.7-0.3-1.4-1-2.1-1.4c-1.4-0.7-3.1-1.4-5.6-1.7
				c-2.1-0.3-4.5-0.3-7.3-0.3c-4.2,0-8,0.3-10.8,1c-1.4,0.7-2.4,1-3.1,1.7c-0.3,0.3-0.7,0.3-1,0.7c-0.3,0.3-0.3,0.7-0.3,1.4
				c0,0.3,0,0.7,0.3,1c0.3,0.7,1,1,2.1,1.4c1.4,0.7,3.1,1.4,5.2,1.7c2.4,0.3,4.9,0.7,7.7,0.7c4.2,0,8-0.7,10.4-1.4
				c1.4-0.3,2.8-1,3.5-1.7c0.3,0,0.7-0.3,1-0.7c0-0.3,0.3-0.7,0.3-1H85.8z"/>
			<path class="st16" d="M75.7,107.1c0,0.7-2.1,1.4-4.9,1.4c-2.8,0-4.9-0.7-4.9-1.4c0-1,2.1-1.7,4.9-1.7
				C73.6,105.3,75.7,106,75.7,107.1z"/>
			<path class="st17" d="M70.9,106.4c2.1,0,4.2,0.3,4.5,1c0.3-0.3,0.3-0.3,0.3-0.3c0-1-2.1-1.7-4.9-1.7c-2.8,0-4.9,0.7-4.9,1.7
				c0,0,0,0,0,0.3C66.7,106.7,68.4,106.4,70.9,106.4z"/>
			<path class="st15" d="M73,90c0-0.3-1-0.7-2.1-0.7c-1.4,0-2.1,0.3-2.1,0.7s0,16.4,0,17.1c0,0.3,0.7,0.7,2.1,0.7
				c1,0,2.1-0.3,2.1-0.7C73,106.4,73,90.4,73,90z"/>
			<path class="st18" d="M82.4,156.5c-2.8-2.4-6.3-4.2-8.7-7.3c-7.7-9.7-8.4-28.2-7-29.2c1-1,2.8-1,4.5-0.7c0.7,0,1.4,0,1.7,0
				c1,0,2.4,0,3.8,0c3.1,0,6.6,0,9.1-0.7C85.8,121.3,82.4,156.5,82.4,156.5z"/>
			<path class="st18" d="M69.1,89.7v17.8c0,0,0,0,0.3,0V89.3C69.1,89.7,69.1,89.7,69.1,89.7z"/>
			<path class="st18" d="M70.2,89.3v18.5h0.3V89.3H70.2z"/>
			<path class="st18" d="M72.3,89.3v18.1h0.3V89.7C72.6,89.7,72.3,89.7,72.3,89.3z"/>
			<path class="st18" d="M71.2,89.3v18.5h0.3V89.3H71.2z"/>
			<path class="st19" d="M68.8,90L68.8,90L68.8,90z M68.8,90L68.8,90L68.8,90z M68.8,90L68.8,90L68.8,90z M68.8,90L68.8,90L68.8,90z
				 M68.8,90L68.8,90L68.8,90z M68.8,90L68.8,90L68.8,90z M68.8,90L68.8,90L68.8,90z M68.8,90L68.8,90L68.8,90z M68.8,90L68.8,90
				L68.8,90z M68.8,90L68.8,90L68.8,90z M68.8,90L68.8,90L68.8,90z M68.8,90L68.8,90L68.8,90z M68.8,90L68.8,90L68.8,90z M68.8,90
				L68.8,90L68.8,90z M68.8,90L68.8,90L68.8,90z M68.8,90L68.8,90L68.8,90z M68.8,90L68.8,90L68.8,90z M68.8,90L68.8,90L68.8,90z
				 M68.8,90L68.8,90L68.8,90z M68.8,90L68.8,90L68.8,90z M68.8,90L68.8,90L68.8,90z"/>
			<path class="st20" d="M70.9,107.8c-1.4,0-2.1-0.3-2.1-0.7V90l0,0l0,0l0,0l0,0l0,0l0,0l0,0l0,0l0,0l0,0l0,0l0,0l0,0l0,0l0,0l0,0
				l0,0l0,0l0,0l0,0l0,0l0,0l0,0l0,0l0,0l0,0l0,0l0,0l0,0l0,0l0,0l0,0l0,0l0,0l0,0l0,0l0,0l0,0l0,0l0,0l0,0c0-0.3,0.7-0.7,1.7-0.7
				l0,0c-0.3,0-0.3,0-0.3,0v5.9c0,2.8-0.3,4.9,0,7.3c0,0.3,0,0.3,0,0.3v4.9h0.3v-3.8c0,0.3,0.3,0.7,0.7,1v2.8h0.3v-2.4
				c0,0.3,0.3,0.3,0.7,0.7v1.4h0.3V106c0,0.3,0.3,0.3,0.3,0.3c0,0.3,0,0.3,0,0.7C73,107.4,71.9,107.8,70.9,107.8z M69.5,89.3
				c-0.3,0.3-0.3,0.3-0.3,0.3v17.8c0,0,0,0,0.3,0V89.3z"/>
			<path class="st21" d="M69.5,107.4c-0.3,0-0.3,0-0.3,0V89.7c0,0,0,0,0.3-0.3V107.4z"/>
			<path class="st21" d="M70.5,107.8h-0.3v-4.9c0,0.3,0,0.7,0.3,1V107.8z M70.2,95.2v-5.9c0,0,0,0,0.3,0c-0.3,1.7-0.3,3.5-0.3,5.2
				C70.2,94.9,70.2,95.2,70.2,95.2z"/>
			<path class="st21" d="M72.3,107.4V106c0,0,0,0,0.3,0v1.4H72.3z"/>
			<path class="st21" d="M71.2,107.8V105l0.3,0.3v2.4H71.2z"/>
		</g>
		<g>
			<polygon class="st22" points="19.3,178.8 114,178.8 114,124.1 19.3,124.1 			"/>
			<polygon class="st23" points="14.8,178.8 19.3,178.8 19.3,124.1 14.8,124.1 			"/>
			<polygon class="st23" points="14.8,124.1 14.8,178.8 8.9,185.8 8.9,117.5 			"/>
			<polygon class="st23" points="114,178.8 118.6,178.8 118.6,124.1 114,124.1 			"/>
			<polygon class="st23" points="123.1,119.6 123.1,183.3 118.6,178.8 118.6,124.1 			"/>
			<path class="st24" d="M22.8,151.6c0,14.3-1.4,26.1-3.5,27.2v-54.7C21.4,125.5,22.8,137.4,22.8,151.6z"/>
			<path class="st24" d="M114,178.8c-1.7-2.1-3.1-13.6-3.1-27.2c0-13.9,1.4-25.4,3.1-27.2V178.8z"/>
			<path class="st25" d="M96.6,164.5H35.4c-3.8,0-7-3.1-7-7v-12.9c0-3.8,3.1-7,7-7h61.3c3.8,0,7,3.1,7,7v12.9
				C103.6,161.4,100.5,164.5,96.6,164.5z"/>
			<polygon class="st26" points="55.2,178.8 51,178.8 37.8,124.1 42,124.1 			"/>
			<polygon class="st26" points="69.1,178.8 65.3,178.8 52.1,124.1 56.2,124.1 			"/>
			<polygon class="st26" points="62.2,178.8 58,178.8 44.8,124.1 48.9,124.1 			"/>
			<path class="st27" d="M44.8,171.8C32.2,169,23.2,161,23.2,151.6c0-8.4,7-15.3,16.7-18.8l1.4,4.9h-5.9c-3.8,0-7,3.1-7,7v12.9
				c0,3.8,3.1,7,7,7h9.4V171.8z M45.5,137.7L45.5,137.7l-1.4-5.9c0.7-0.3,1.7-0.3,2.4-0.7l0.7,2.8c-0.7,0.3-1,1.4-1,2.1l0,0
				C45.8,136.7,45.8,137,45.5,137.7z"/>
			<path class="st28" d="M44.8,164.5h-9.4c-3.8,0-7-3.1-7-7v-12.9c0-3.8,3.1-7,7-7h5.9l3.5,15.3V164.5z M45.5,138.1v-0.3l0,0
				C45.5,137.7,45.5,137.7,45.5,138.1z"/>
			<path class="st29" d="M44.8,153l-3.5-15.3l-1.4-4.9c1.4-0.3,2.8-0.7,4.2-1l1.4,5.9v0.3c-0.3,1-0.7,2.4-0.7,3.5V153z"/>
			<path class="st27" d="M54.5,133.5h-3.1l-0.7-2.8c1,0,2.1,0,2.8-0.3L54.5,133.5z"/>
			<path class="st27" d="M76.8,165.9v-1.4h1.7C78.2,164.9,77.5,165.6,76.8,165.9z M77.1,137.7h-1c0-0.3-0.3-0.7-0.3-1
				C76.4,137,76.8,137.4,77.1,137.7z M70.2,133.5H58.3l-0.7-2.8C62.2,131.1,66.7,132.1,70.2,133.5z"/>
			<path class="st28" d="M78.5,164.5h-1.7v-23c0-1,0-2.1-0.3-3.1c0-0.3-0.3-0.3-0.3-0.7h1c4.2,3.1,7,7,7.7,11.5c0,1,0.3,1.7,0.3,2.8
				C84.8,156.9,82.7,161,78.5,164.5z"/>
			<path class="st29" d="M58.3,133.5h-3.8l-1-3.1c0.3,0,0.7,0,0.7,0c1.4,0,2.4,0.3,3.5,0.3L58.3,133.5z"/>
			<path class="st29" d="M47.2,133.9l-0.7-2.8c1.4,0,2.8-0.3,4.2-0.3l0.7,2.8h-2.8C47.9,133.5,47.5,133.9,47.2,133.9z"/>
			<path class="st30" d="M154.8,163.1c-0.7,4.9-1.7,9.7-2.8,14.6H89.3c-1-4.9-2.1-9.7-2.8-14.6c-2.4-14.6-2.4-28.9-0.3-43.2
				c0.7-5.6,2.1-11.5,3.5-17.1c0.7-0.3,1-0.3,1.7-0.7h58.5c0.7,0.3,1,0.3,1.7,0.7c1.4,5.6,2.8,11.5,3.5,17.1
				C157.2,134.2,157.2,148.5,154.8,163.1z"/>
			<path class="st31" d="M154.8,163.1H86.5c-2.4-14.6-2.4-28.9-0.3-43.2h68.9C157.2,134.2,157.2,148.5,154.8,163.1z"/>
			<polygon class="st32" points="114,165.2 109.2,166.6 97.3,112.6 102.2,111.2 			"/>
			<polygon class="st32" points="110.6,153.4 115.4,153.4 115.4,111.9 110.6,111.9 			"/>
			<polygon class="st32" points="116.1,165.9 121.7,168.7 139.8,124.8 133.9,122 			"/>
			<polygon class="st32" points="123.4,130.7 128,130.7 128,113 123.4,113 			"/>
			<path class="st30" d="M154.8,163.1c-0.7,4.9-1.7,9.7-2.8,14.6H89.3c-1-4.9-2.1-9.7-2.8-14.6c-2.4-14.6-2.4-28.9-0.3-43.2
				c0.7-5.6,2.1-11.5,3.5-17.1c0.7-0.3,1-0.3,1.7-0.7h58.5c0.7,0.3,1,0.3,1.7,0.7c1.4,5.6,2.8,11.5,3.5,17.1
				C157.2,134.2,157.2,148.5,154.8,163.1z"/>
			<path class="st31" d="M154.8,163.1H86.5c-2.4-14.6-2.4-28.9-0.3-43.2h68.9C157.2,134.2,157.2,148.5,154.8,163.1z"/>
			<path class="st33" d="M121,125.9l-16.4,5.6c-2.1,1-2.8,3.8-1,5.2l13.2,11.5c1.7,1.4,4.5,0.7,5.2-1.7l3.1-17.4
				C125.5,126.9,123.4,124.8,121,125.9z"/>
			<path class="st34" d="M113.3,114l-1.4,17.8c0,2.1,2.4,3.8,4.5,2.8l15.7-7.7c2.1-1,2.1-4.2,0.3-5.2l-14.6-9.7
				C116.1,110.6,113.3,111.9,113.3,114z"/>
			<path class="st34" d="M126.9,138.4l-1.4,17.4c0,2.4,2.4,3.8,4.5,2.8l15.7-7.7c2.1-1,2.1-3.8,0.3-5.2l-14.6-9.7
				C129.7,134.6,126.9,136,126.9,138.4z"/>
			<path class="st34" d="M95.9,141.2l-1,17.4c-0.3,2.4,2.1,3.8,4.2,2.8l15.7-7.7c2.1-1,2.4-3.8,0.3-5.2l-14.6-9.7
				C98.7,137.4,95.9,138.8,95.9,141.2z"/>
			<path class="st35" d="M117.5,118.9c0,0.7-0.3,1-1,1c-0.3,0-1-0.3-1-1c0-0.3,0.7-1,1-1C117.2,117.9,117.5,118.6,117.5,118.9z"/>
			<path class="st35" d="M123.8,125.5c0,0.7-0.3,1-0.7,1c-0.3,0-0.7-0.3-0.7-1c0-0.3,0.3-0.7,0.7-0.7
				C123.4,124.8,123.8,125.2,123.8,125.5z"/>
			<path class="st35" d="M117.2,128c0,0.3-0.3,0.7-0.7,0.7s-1-0.3-1-0.7c0-0.3,0.7-1,1-1S117.2,127.6,117.2,128z"/>
			<path class="st35" d="M102.9,128c0,0.3-0.3,0.7-0.7,0.7c-0.3,0-1-0.3-1-0.7c0-0.3,0.7-1,1-1C102.5,126.9,102.9,127.6,102.9,128z"
				/>
			<path class="st35" d="M99.1,152c0,0.7-0.3,1-1,1c-0.3,0-0.7-0.3-0.7-1c0-0.3,0.3-0.7,0.7-0.7C98.7,151.3,99.1,151.6,99.1,152z"/>
			<path class="st35" d="M109.2,153c0,0.7-0.7,1-1,1c-0.7,0-1-0.3-1-1c0-0.3,0.3-1,1-1C108.5,152,109.2,152.7,109.2,153z"/>
			<path class="st35" d="M120.6,160.7c0,0.3-0.3,0.7-1,0.7c-0.3,0-0.7-0.3-0.7-0.7s0.3-0.7,0.7-0.7
				C120.3,160,120.6,160.3,120.6,160.7z"/>
			<path class="st35" d="M118.9,143.6c0,0.3-0.3,0.7-0.7,0.7c-0.7,0-1-0.3-1-0.7c0-0.7,0.3-1,1-1
				C118.6,142.6,118.9,142.9,118.9,143.6z"/>
			<path class="st35" d="M130.4,144.3c0,0.7-0.7,1-1,1c-0.7,0-1-0.3-1-1c0-0.3,0.3-0.7,1-0.7C129.7,143.6,130.4,144,130.4,144.3z"/>
			<path class="st36" d="M105.3,161.7c0,0,2.4-4.2,8.4-4.2c5.9,0,2.1,2.8,11.5,1.4c5.2-3.1,7-8.4,5.9-11.5c-0.7-1.7-4.2-2.8-4.5-0.7
				c1,10.4-2.8,10.1-8,9.4C114,155.8,108.8,155.5,105.3,161.7z"/>
			<path class="st37" d="M128.3,139.8l1.4,1l-0.3,3.5c0,0,1.4,2.1,1.4,2.8c0.3,0.3,0,1.7-0.3,1.7c-0.7,0-0.3-1.7-0.7-1.4
				c-0.7,0.7-1.4,2.4-1.4,1.4s0.3-1.7,0-1.7c-0.3,0-1,1.4-1.4,0.7c-0.7-0.3-0.7-2.4,0.3-2.4s1.7-0.7,1.7-0.7
				C128.7,144.3,128.3,139.8,128.3,139.8z"/>
			<path class="st38" d="M127.6,155.8c0.7-2.1,1.4-4.2,1.7-6.3c0.3-0.3,0.3-0.3,0.7-0.3s0.3,0,0.3,0.3c0,0.7,0,4.2-2.1,5.9
				C128,155.5,128,155.5,127.6,155.8z"/>
			<path class="st36" d="M107.8,112.6c0,0-0.3,4.9-5.6,7.3c-2.4,1-3.1,1-4.2,1s-2.4,0-7,3.1c-3.5,4.9-2.4,10.4-0.3,12.5
				c1.7,1.4,5.2,0.7,4.5-1C84.8,118.9,107.4,128.3,107.8,112.6z"/>
			<path class="st37" d="M97,142.6l-2.1-0.3l-1-3.1c0,0-2.1-1.4-2.4-1.7c-0.7-0.7-0.7-1.7-0.3-2.1c0.3,0,0.3,0.3,0.7,0.7
				c0,0.3,0.3,0.7,0.3,0c0.3-0.7,0-2.4,0.7-1.7c0.3,1,0.3,1.7,0.7,1.7c0.3-0.3,0.3-1.7,1-1.4s1.4,2.1,0.7,2.4c-1,0.3-1.4,1.4-1,1.7
				L97,142.6z"/>
			<path class="st36" d="M136.7,141.9c0,0-2.4-4.5,0.7-9.4c3.1-5.2,3.5-0.7,7-9.4c0.3-6.3-3.5-10.1-6.6-10.8
				c-2.1-0.3-4.5,2.1-2.8,3.5C152.3,123.8,128.3,128.3,136.7,141.9z"/>
			<path class="st37" d="M129.7,110.6l1.4-0.7l3.1,2.1c0,0,2.1,0,2.8,0c0.7,0.3,1.7,1,1.4,1.4c0,0.3-0.3,0.3-0.7,0
				c-0.3,0-0.7-0.3-0.7,0.3c0,0.7,1.4,2.1,0.7,1.4c-1-0.3-1.4-1-1.7-0.7c0,0.3,0.3,1.4,0,1.7c-0.7,0-2.4-1-1.7-1.7
				c0.3-1,0-2.1,0-2.1C133.9,112.6,129.7,110.6,129.7,110.6z"/>
			<path class="st38" d="M140.5,116.8c-0.7-1-1.4-1.7-2.1-1.7l0,0c0,0,0-1.4,0.7-1.4l0,0c0,0,0.3,0.3,1,0.7
				C140.1,115.1,140.1,116.1,140.5,116.8z"/>
			<polygon class="st39" points="91.4,102.2 150.2,102.2 150.2,96.3 91.4,96.3 			"/>
			<path class="st40" d="M148.5,102.2h-24v-5.9h23.3c0,0.3,0,0.7,0,1.4c0,1,0,2.1,0.3,3.1C148.2,101.2,148.2,101.8,148.5,102.2z"/>
			<polygon class="st39" points="89.3,183.3 152,183.3 152,177.7 89.3,177.7 			"/>
			<path class="st40" d="M150.6,183.3h-44.9v-5.6h39C144.7,180.9,147.5,183.3,150.6,183.3z"/>
			<path class="st41" d="M109.5,172.2c-8,0-13.6-3.5-17.1-9.1h32c-3.5,5.2-8,8.7-12.9,9.1C110.9,172.2,110.2,172.2,109.5,172.2z
				 M113,120h-8.4c1.7-1.7,3.1-3.8,3.1-7.3c0,0-0.3,4.9-5.6,7.3h-8.7c4.9-8,12.2-12.9,18.1-12.9c5.2,0,9.7,3.5,13.2,9.4l-7-4.5
				c-0.3-0.3-1-0.7-1.7-0.7c-1.4,0-2.8,1.4-2.8,2.8L113,120z"/>
			<path class="st42" d="M124.5,163.1h-32c-3.5-5.9-4.5-14.3-4.5-23.3c0-2.8,0.3-5.9,1-8.7c0,2.4,0.7,4.5,1.7,5.6
				c0.3,0.3,0.3,0.3,0.3,0.3c0.3,0,0.3,0,0.3,0.3c0.3,0.3,2.4,1.7,2.4,1.7l1,3.1l1,0.3l-1,16c-0.3,1.7,1.4,3.1,2.8,3.1
				c0.7,0,1,0,1.4-0.3l15.7-7.7c2.1-1,2.4-3.8,0.3-5.2l-14.6-9.7c-0.3-0.3-1-0.7-1.4-0.7c-1.7,0-3.1,1.4-3.1,3.1
				c-0.7-1.4-1.7-2.4-1.7-2.4c-0.3-0.3,0-1.4,1-1.7c0.7-0.3,0.3-1.4-0.3-2.1c-7.3-12.2,4.2-9.4,9.7-15h8.4l-0.7,9.1l-7.7,2.4
				c-2.1,1-2.8,3.8-1,5.2l13.2,11.5c0.7,0.3,1.4,0.7,2.1,0.7c1.4,0,2.8-1,3.1-2.4l2.8-16l4.2-2.1c0.7,2.4,0.7,4.5,1,7.3
				c0,0,0,0-0.3,0c-1.4,0-2.8,1-2.8,2.8l-1,16.4c-1,1.4-2.4,1.7-4.2,1.7c-1,0-2.1-0.3-3.1-0.3c-1.4,0-2.4-0.3-3.5-0.3
				c-3.8,0-7.3,1-9.7,5.9c0,0,2.4-4.2,8-4.2c0.3,0,0.3,0,0.3,0c4.9,0,3.5,1.7,7.3,1.7c1,0,2.4,0,4.2-0.3c0.7-0.3,1-0.7,1.4-0.7l0,0
				C125.9,160,125.2,161.4,124.5,163.1z M119.6,160c-0.3,0-0.7,0.3-0.7,0.7s0.3,0.7,0.7,0.7c0.7,0,1-0.3,1-0.7S120.3,160,119.6,160z
				 M102.2,126.9c-0.3,0-1,0.7-1,1c0,0.3,0.7,0.7,1,0.7c0.3,0,0.7-0.3,0.7-0.7C102.9,127.6,102.5,126.9,102.2,126.9z M91.4,123.8
				c0.7-1.4,1.4-2.8,2.1-3.8h8.7l0,0c-1.7,1-2.8,1-3.5,1c-0.3,0-0.3,0-0.7,0c0,0-0.3,0-0.7,0C96.3,121,94.9,121.3,91.4,123.8z"/>
			<path class="st43" d="M118.9,148.8c-0.7,0-1.4-0.3-2.1-0.7l-13.2-11.5c-1.7-1.4-1-4.2,1-5.2l7.7-2.4l-0.3,2.8
				c0,1.7,1.4,3.1,3.1,3.1c0.3,0,1,0,1.4-0.3l8.4-4.2l-2.8,16C121.7,147.8,120.3,148.8,118.9,148.8z M118.2,142.6c-0.7,0-1,0.3-1,1
				c0,0.3,0.3,0.7,1,0.7c0.3,0,0.7-0.3,0.7-0.7C118.9,142.9,118.6,142.6,118.2,142.6z"/>
			<path class="st44" d="M115.1,134.9c-1.7,0-3.1-1.4-3.1-3.1l0.3-2.8l0.7-9.1l0.3-5.9c0-1.4,1.4-2.8,2.8-2.8c0.7,0,1.4,0.3,1.7,0.7
				l7,4.5c1.7,3.1,3.1,7.3,4.2,11.8l-4.2,2.1l-8.4,4.2C116.1,134.9,115.4,134.9,115.1,134.9z M116.5,126.9c-0.3,0-1,0.7-1,1
				c0,0.3,0.7,0.7,1,0.7s0.7-0.3,0.7-0.7C117.2,127.6,116.8,126.9,116.5,126.9z M123.1,124.8c-0.3,0-0.7,0.3-0.7,0.7
				c0,0.7,0.3,1,0.7,1c0.3,0,0.7-0.3,0.7-1C123.8,125.2,123.4,124.8,123.1,124.8z M116.5,117.9c-0.3,0-1,0.7-1,1c0,0.7,0.7,1,1,1
				c0.7,0,1-0.3,1-1C117.5,118.6,117.2,117.9,116.5,117.9z"/>
			<path class="st44" d="M126.6,158.2L126.6,158.2c0-0.3,0.3-0.3,0.3-0.3S126.9,158.2,126.6,158.2z M125.9,154.8l1-16.4
				c0-1.7,1.4-2.8,2.8-2.8c0.3,0,0.3,0,0.3,0c0,1,0,2.4,0,3.8c0,1.4,0,3.1,0,4.5c0-0.3-0.3-0.3-0.7-0.3l0.3-2.8l-1.4-1
				c0,0,0.3,2.4,0.3,3.8c0,0.3-0.3,0.3-0.3,0.7c0,0.3,0,0.7,0.3,0.7c-0.3,0.3-0.7,0.3-1,0.3h-0.3l0,0c-0.7,0-0.7,1.4-0.7,2.1
				C126.9,151.3,126.6,153.4,125.9,154.8z"/>
			<path class="st44" d="M97.7,161.7c-1.4,0-3.1-1.4-2.8-3.1l1-16h1l0,0c0,0-0.3-0.7-1-1.4c0-1.7,1.4-3.1,3.1-3.1
				c0.3,0,1,0.3,1.4,0.7l14.6,9.7c2.1,1.4,1.7,4.2-0.3,5.2l-15.7,7.7C98.7,161.7,98.4,161.7,97.7,161.7z M108.1,152
				c-0.7,0-1,0.7-1,1c0,0.7,0.3,1,1,1c0.3,0,1-0.3,1-1C109.2,152.7,108.5,152,108.1,152z M98,151.3c-0.3,0-0.7,0.3-0.7,0.7
				c0,0.7,0.3,1,0.7,1c0.7,0,1-0.3,1-1C99.1,151.6,98.7,151.3,98,151.3z"/>
			<path class="st45" d="M116.5,120c-0.3,0-1-0.3-1-1c0-0.3,0.7-1,1-1c0.7,0,1,0.7,1,1C117.5,119.6,117.2,120,116.5,120z"/>
			<path class="st45" d="M123.1,126.6c-0.3,0-0.7-0.3-0.7-1c0-0.3,0.3-0.7,0.7-0.7c0.3,0,0.7,0.3,0.7,0.7
				C123.8,126.2,123.4,126.6,123.1,126.6z"/>
			<path class="st45" d="M116.5,128.7c-0.3,0-1-0.3-1-0.7c0-0.3,0.7-1,1-1s0.7,0.7,0.7,1C117.2,128.3,116.8,128.7,116.5,128.7z"/>
			<path class="st45" d="M102.2,128.7c-0.3,0-1-0.3-1-0.7c0-0.3,0.7-1,1-1c0.3,0,0.7,0.7,0.7,1C102.9,128.3,102.5,128.7,102.2,128.7
				z"/>
			<path class="st45" d="M98,153c-0.3,0-0.7-0.3-0.7-1c0-0.3,0.3-0.7,0.7-0.7c0.7,0,1,0.3,1,0.7C99.1,152.7,98.7,153,98,153z"/>
			<path class="st45" d="M108.1,154.1c-0.7,0-1-0.3-1-1c0-0.3,0.3-1,1-1c0.3,0,1,0.7,1,1C109.2,153.7,108.5,154.1,108.1,154.1z"/>
			<path class="st45" d="M119.6,161.4c-0.3,0-0.7-0.3-0.7-0.7s0.3-0.7,0.7-0.7c0.7,0,1,0.3,1,0.7S120.3,161.4,119.6,161.4z"/>
			<path class="st45" d="M118.2,144.3c-0.7,0-1-0.3-1-0.7c0-0.7,0.3-1,1-1c0.3,0,0.7,0.3,0.7,1C118.9,144,118.6,144.3,118.2,144.3z"
				/>
			<path class="st45" d="M130,145c-0.3-0.3-0.7-0.7-0.7-0.7v-0.7c0.3,0,0.7,0,0.7,0.3S130,144.7,130,145z M128.7,145
				c-0.3,0-0.3-0.3-0.3-0.7c0-0.3,0.3-0.3,0.3-0.7c0.3,0.3,0.3,0.7,0.3,1C129,144.7,129,145,128.7,145z"/>
			<path class="st46" d="M105.3,161.7c2.4-4.9,5.9-5.9,9.7-5.9c1,0,2.1,0.3,3.5,0.3c1,0,2.1,0.3,3.1,0.3c1.7,0,3.1-0.3,4.2-1.7
				c0.7-1.4,1-3.5,0.7-7.3c0,0.3,0,0.3,0.3,0.3c0,0.3,0,0.3,0,0.3c0.7,0,1-1,1.4-1c0.3,0,0,0.7,0,1.7c0,0.3,0,0.3,0.3,0.3
				c0,0,0.3-1.4,1-1.7l0,0c0,0.7-0.3,1.4-0.3,2.1c-0.3,0-0.7,0-0.7,0c1.4,1.4-2.4,7-2.4,7s-0.3,0.3,0,0.3c0,0,0-0.3,1.4-1
				c0,0.7-0.3,1.4-0.7,2.1c0,0-0.3,0-0.3,0.3c-0.3,0-0.7,0.3-1.4,0.7c-1.7,0.3-3.1,0.3-4.2,0.3c-3.8,0-2.4-1.7-7.3-1.7
				c0,0,0,0-0.3,0C107.8,157.6,105.3,161.7,105.3,161.7z"/>
			<path class="st47" d="M128.7,149.2c-0.3,0-0.3,0-0.3-0.3c0-1,0.3-1.7,0-1.7c-0.3,0-0.7,1-1.4,1c0,0,0,0,0-0.3
				c-0.3,0-0.3,0-0.3-0.3c0-0.7,0-2.1,0.7-2.1l0,0h0.3c0.3,0,0.7,0,1-0.3c0.3,0,0.3-0.3,0.3-0.3c0-0.3,0-0.7-0.3-1
				c0-1.4-0.3-3.8-0.3-3.8l1.4,1l-0.3,2.8v0.7c0,0,0.3,0.3,0.7,0.7c-0.3,1-0.3,1.7-0.3,2.4l0,0C129,147.8,128.7,149.2,128.7,149.2z"
				/>
			<path class="st48" d="M126.2,156.9c-0.3,0,0-0.3,0-0.3s3.8-5.6,2.4-7c0,0,0.3,0,0.7,0c-0.3,2.1-1,4.2-1.7,6.3
				C126.2,156.5,126.2,156.9,126.2,156.9z"/>
			<path class="st46" d="M91.1,137c0,0,0,0-0.3-0.3c-1-1-1.7-3.1-1.7-5.6c0.7-2.4,1.4-5.2,2.4-7.3c3.5-2.4,4.9-2.8,5.9-2.8
				c0.3,0,0.7,0,0.7,0c0.3,0,0.3,0,0.7,0c0.7,0,1.7,0,3.5-1l0,0c5.2-2.4,5.6-7.3,5.6-7.3c0,3.5-1.4,5.6-3.1,7.3
				c-5.6,5.6-17.1,2.8-9.7,15c0-0.3-0.3-0.3-0.3-0.3l0,0c-0.7,0-0.7,1-1,1.4l0,0c-0.3,0-0.3-0.7-0.7-1.7c-0.3,0-0.3,0-0.3,0
				c-0.3,0,0,1.4-0.3,1.7c0,0.3,0,0.3,0,0.3l-0.3-0.3c-0.3-0.3-0.3-0.7-0.7-0.7l0,0C90.7,135.6,90.7,136.3,91.1,137z M91.4,126.2
				c0,0-0.3,0.3-1.4,2.4c-1.4,2.4,0.3,5.6,0.7,6.3l0,0c0.3,0,1.4-1,1.4-1c-1.7-0.3-0.7-7.3-0.7-7.3V126.2z"/>
			<path class="st47" d="M97,142.6h-1l-1-0.3l-1-3.1c0,0-2.1-1.4-2.4-1.7c0-0.3,0-0.3-0.3-0.3c-0.3-0.7-0.3-1.4,0-1.7l0,0
				c0.3,0,0.3,0.3,0.7,0.7l0.3,0.3c0,0,0,0,0-0.3c0.3-0.3,0-1.7,0.3-1.7c0,0,0,0,0.3,0c0.3,1,0.3,1.7,0.7,1.7l0,0
				c0.3-0.3,0.3-1.4,1-1.4l0,0c0,0,0.3,0,0.3,0.3c0.7,0.7,1,1.7,0.3,2.1c-1,0.3-1.4,1.4-1,1.7c0,0,1,1,1.7,2.4
				C96.6,141.9,97,142.6,97,142.6z"/>
			<path class="st48" d="M90.7,134.9L90.7,134.9c-0.3-0.7-2.1-3.8-0.7-6.3c1-2.1,1.4-2.4,1.4-2.4v0.3c0,0-1,7,0.7,7.3
				C92.1,133.9,91.1,134.9,90.7,134.9z"/>
			<path class="st49" d="M144.7,177.7h-7c1.4-4.9,2.4-9.7,3.1-14.6h3.8v14.3C144.7,177.7,144.7,177.7,144.7,177.7z M145,120h-0.7
				c-0.7-3.1-2.8-5.6-4.5-7c-0.7-3.5-1.4-6.6-2.4-10.1c-0.7-0.3-1-0.3-1.7-0.7h12.9c0,0.7,0.3,1,0.3,1.4c0,0.7,0.3,1,0.3,1.7
				c0.3,0.3,0.7,0.7,0.7,1.4c0.3,0.3,0.7,0.7,1,1c0,0.3,0,0.3,0,0.3c0,0.3,0,0.3,0.3,0.3c0,0.3,0,1,0,1.4c0,1,0,1.7,0,2.4
				c0,0.3,0,0.7-0.3,0.7c-0.3,1.4-1,2.4-2.4,3.1c-1.4,0.3-2.4,1.4-3.1,2.4C145.4,118.9,145,119.6,145,120z"/>
			<path class="st50" d="M144.7,163.1h-3.8c0.3-3.5,0.7-7,1-10.4l2.8-1.4V163.1z M144.7,145l-2.1-1.7c0-5.2-0.3-10.1-0.7-15.3
				c0.7-0.7,1.4-2.1,2.4-4.9c0.3-1,0-2.1,0-3.1h0.7c-0.3,0.3-0.3,1-0.3,1.4V145z"/>
			<path class="st51" d="M141.9,152.7c0.3-3.1,0.3-6.3,0.7-9.4l2.1,1.7v6.3L141.9,152.7z"/>
			<path class="st50" d="M141.2,123.1c0-1,0-2.1-0.3-2.8C141.5,121,141.5,122,141.2,123.1z"/>
			<path class="st52" d="M141.9,128c0-1.7-0.3-3.1-0.7-4.9c0.3-1,0.3-2.1-0.3-2.8c0-0.3,0-0.3,0-0.3c0-1-0.3-2.1-0.3-3.1
				c1.4,1.7,2.4,4.5,2.4,4.5l0,0c0,0,0-0.3,0-2.8c-0.3-2.1-1.7-3.5-2.8-4.2c-0.3-0.3-0.3-1-0.3-1.4c1.7,1.4,3.8,3.8,4.5,7
				c0,1,0.3,2.1,0,3.1C143.3,125.9,142.6,127.3,141.9,128z"/>
			<path class="st53" d="M142.9,121.3L142.9,121.3c0,0-1-2.8-2.4-4.5c-0.3-0.7-0.3-1.7-0.3-2.4c1,0.7,2.4,2.1,2.8,4.2
				C142.9,121,142.9,121.3,142.9,121.3z"/>
			<polygon class="st54" points="180.9,183 214.6,183 214.6,91.1 180.9,91.1 			"/>
			<polygon class="st55" points="210.1,96.6 208.4,96.6 185.8,114.4 185.8,170.4 210.1,151.6 			"/>
			<polygon class="st55" points="196.9,96.6 185.8,105.3 185.8,108.5 200.7,96.6 			"/>
			<polygon class="st55" points="210.1,169.7 210.1,167 198.6,175.7 202.5,175.7 			"/>
			<polygon class="st55" points="189.2,96.6 185.8,96.6 185.8,99.4 			"/>
			<polygon class="st55" points="210.1,157.6 186.8,175.7 191,175.7 210.1,161 			"/>
			<path class="st56" d="M195.5,138.1c-2.1-0.3-3.8,1.4-4.2,3.8c-0.3,2.4,1,4.5,2.8,4.9l0.7-3.1c1.4,0.7,3.5,1.4,4.2,1.4
				c1,0,2.1-0.7,2.1-1.7c0.3-1-0.3-1.7-1.4-2.1c-0.7,0-3.1,0-4.9,0.3L195.5,138.1z"/>
			<path class="st56" d="M205.6,115.8c1.7-1.4,1.7-3.8,0.3-5.9c-1-2.1-3.5-2.8-5.2-1.7l1.7,2.8c-1.4,0.3-3.8,1.4-4.2,1.7
				c-1,0.3-1,1.7-0.7,2.4c0.7,1,1.7,1,2.8,0.7c0.3-0.3,2.1-2.1,3.1-3.1L205.6,115.8z"/>
			<path class="st57" d="M206.3,123.8c0,2.8-2.1,5.2-4.5,6.3c-1.4,0.7-2.8,1-4.2,1c-4.9,0-9.1-3.5-9.1-7.3c0-1,0.3-1.7,0.7-2.4
				c1-2.8,4.5-4.9,8.4-4.9C202.1,116.5,206.3,119.6,206.3,123.8z"/>
			<path class="st58" d="M201.8,130c-1.4,0.7-2.8,1-4.2,1c-4.9,0-9.1-3.5-9.1-7.3c0-1,0.3-1.7,0.7-2.4c1.7,0.3,4.9,1.4,6.3,2.8
				C196.9,125.9,197.6,129,201.8,130z"/>
			<path class="st58" d="M208.4,141.9c0,3.5-2.8,6.6-5.9,6.6c-3.5,0-5.9-3.1-5.9-6.6s2.4-6.3,5.9-6.3
				C205.6,135.6,208.4,138.4,208.4,141.9z"/>
			<polygon class="st59" points="196.5,121 199,121 199,119.3 196.5,119.3 			"/>
			<polygon class="st59" points="200,140.1 201.1,140.1 201.1,139.1 200,139.1 			"/>
			<polygon class="st59" points="199,144.7 200,144.7 200,143.6 199,143.6 			"/>
			<polygon class="st59" points="203.2,144.3 204.5,144.3 204.5,143.3 203.2,143.3 			"/>
			<polygon class="st59" points="197.9,124.8 199.3,124.8 199.3,123.4 197.9,123.4 			"/>
			<polygon class="st59" points="191.7,121.7 193.4,121.7 193.4,121 191.7,121 			"/>
			<polygon class="st59" points="200.4,128.7 201.8,128.7 201.8,127.6 200.4,127.6 			"/>
			<polygon class="st59" points="201.8,123.4 202.8,123.4 202.8,122.4 201.8,122.4 			"/>
			<polygon class="st59" points="190.3,136.7 191.3,136.7 191.3,135.6 190.3,135.6 			"/>
			<polygon class="st59" points="200.4,133.5 200.7,133.5 200.7,133.2 200.4,133.2 			"/>
			<polygon class="st59" points="194.5,114.4 195.8,114.4 195.8,113 194.5,113 			"/>
			<path class="st60" d="M198.3,125.5c-1-1.7-3.5-2.1-5.6-0.7c-2.1,1.4-2.8,3.8-2.1,5.6l3.1-2.1c0.3,1.7,1.4,3.8,1.7,4.5
				c0.3,0.7,1.7,1,2.4,0.3c1-0.3,1-1.7,0.7-2.4c-0.3-0.7-2.1-2.4-3.1-3.5L198.3,125.5z"/>
			<polygon class="st61" points="214.6,181.2 202.8,181.2 202.8,175.7 210.1,169.7 210.1,167 202.8,172.5 202.8,166.6 210.1,161 
				210.1,157.6 202.8,163.1 202.8,157.2 210.1,151.6 210.1,96.6 208.4,96.6 202.8,101.2 202.8,92.8 214.6,92.8 			"/>
			<path class="st62" d="M202.8,157.2v-8.7c3.1-0.3,5.6-3.1,5.6-6.6c0-3.1-2.4-5.9-5.6-6.3v-5.9c2.1-1.4,3.5-3.5,3.5-5.9
				c0-2.4-1.4-4.5-3.5-5.9v-4.2c0.3-0.3,0.7-0.7,0.7-1l2.1,3.1c1.7-1.4,1.7-3.8,0.3-5.9c-0.7-1.4-2.1-2.1-3.1-2.1v-6.6l5.6-4.5h1.7
				v55L202.8,157.2z"/>
			<polygon class="st62" points="202.8,175.7 202.8,172.5 210.1,167 210.1,169.7 			"/>
			<polygon class="st62" points="202.8,166.6 202.8,163.1 210.1,157.6 210.1,161 			"/>
			<path class="st63" d="M205.6,115.8l-2.1-3.1c0,0.3-0.3,0.7-0.7,1v-5.9c1,0,2.4,0.7,3.1,2.1C207.3,111.9,207.3,114.4,205.6,115.8z
				"/>
			<path class="st64" d="M202.8,129.7v-11.8c2.1,1.4,3.5,3.5,3.5,5.9C206.3,126.2,204.9,128.3,202.8,129.7z"/>
			<path class="st65" d="M202.8,148.5v-12.9c3.1,0.3,5.6,3.1,5.6,6.3C208.4,145.4,205.9,148.2,202.8,148.5z M203.2,143.3v1h1.4v-1
				H203.2z"/>
			<polygon class="st66" points="203.2,144.3 204.5,144.3 204.5,143.3 203.2,143.3 			"/>
			<path class="st61" d="M200.7,181.2h-5.9v-8.4l5.9-4.5v5.9l-2.1,1.4h2.1V181.2z M194.8,169.4v-5.9l5.9-4.5v5.9L194.8,169.4z"/>
			<path class="st62" d="M194.8,163.5v-19.8c0.7,0.3,1.4,0.3,2.1,0.7c0.7,1.7,2.1,3.1,3.8,3.8v10.8L194.8,163.5z M194.8,141.5
				l0.7-3.5c-0.3,0-0.3,0-0.3,0h-0.3v-6.3c0.3,0.3,0.7,0.7,0.7,1c0.3,0.3,1,0.7,1.4,0.7c0.3,0,0.7,0,1-0.3c0.7-0.3,1-1.4,0.7-2.1
				c0.7-0.3,1.4-0.3,2.1-0.7v2.8h-0.3v0.3h0.3v2.4c-2.4,0.7-4.2,2.8-4.2,5.2C195.8,141.2,195.5,141.5,194.8,141.5z"/>
			<polygon class="st61" points="194.8,107.4 194.8,101.5 200.7,97 200.7,102.9 			"/>
			<path class="st62" d="M200.7,116.8c-1-0.3-2.1-0.3-3.1-0.3s-1.7,0-2.8,0.3v-2.4h1V113h-1v-5.6l5.9-4.5v8.7c-1,0.3-2.1,0.7-2.4,1
				c-1,0.3-1,1.7-0.7,2.4c0.3,0.7,1,1,1.7,1c0.3,0,0.7-0.3,1-0.3c0,0,0-0.3,0.3-0.3V116.8z"/>
			<polygon class="st61" points="194.8,98.4 194.8,92.8 200.7,92.8 200.7,96.6 196.9,96.6 			"/>
			<polygon class="st62" points="194.8,101.5 194.8,98.4 196.9,96.6 200.7,96.6 200.7,97 			"/>
			<polygon class="st62" points="200.7,175.7 198.6,175.7 200.7,174.3 			"/>
			<polygon class="st62" points="194.8,172.9 194.8,169.4 200.7,164.9 200.7,168.3 			"/>
			<path class="st63" d="M196.9,144.3c-0.7-0.3-1.4-0.3-2.1-0.7v-5.6h0.3c0,0,0,0,0.3,0l-0.7,3.5c0.7,0,1-0.3,1.7-0.3
				c0,0.3,0,0.7,0,0.7C196.5,142.9,196.5,143.6,196.9,144.3z"/>
			<path class="st63" d="M199.3,116.1c-0.7,0-1.4-0.3-1.7-1c-0.3-0.7-0.3-2.1,0.7-2.4c0.3-0.3,1.4-0.7,2.4-1v3.8
				c-0.3,0-0.3,0.3-0.3,0.3C200,115.8,199.7,116.1,199.3,116.1z"/>
			<path class="st64" d="M200.7,129.7c-2.1-0.7-3.1-2.1-3.8-3.5l1.4-0.7c-0.3-1-1.4-1.4-2.8-1.4c0,0,0,0-0.3,0c0-0.3,0-0.3-0.3-0.3
				v-7c1-0.3,1.7-0.3,2.8-0.3s2.1,0,3.1,0.3v10.8h-0.3v1h0.3V129.7z M197.9,123.4v1.4h1.4v-1.4H197.9z M196.5,119.3v1.7h2.4v-1.7
				H196.5z"/>
			<path class="st65" d="M198.6,131.1c0-0.3,0-0.3,0-0.3c-0.3-0.7-2.1-2.4-3.1-3.5l1.4-1c0.7,1.4,1.7,2.8,3.8,3.5v0.7
				C200,130.7,199.3,130.7,198.6,131.1z M194.8,124.1v-0.3c0.3,0,0.3,0,0.3,0.3C195.2,124.1,195.2,124.1,194.8,124.1z"/>
			<path class="st65" d="M200.7,148.2c-1.7-0.7-3.1-2.1-3.8-3.8c-0.3-0.7-0.3-1.4-0.3-2.4c0,0,0-0.3,0-0.7c0-2.4,1.7-4.5,4.2-5.2
				v3.1H200v1h0.7V148.2z M199,143.6v1h1v-1H199z"/>
			<polygon class="st66" points="196.5,121 199,121 199,119.3 196.5,119.3 			"/>
			<polygon class="st66" points="200,140.1 200.7,140.1 200.7,139.1 200,139.1 			"/>
			<polygon class="st66" points="199,144.7 200,144.7 200,143.6 199,143.6 			"/>
			<polygon class="st66" points="197.9,124.8 199.3,124.8 199.3,123.4 197.9,123.4 			"/>
			<polygon class="st66" points="200.4,128.7 200.7,128.7 200.7,127.6 200.4,127.6 			"/>
			<polygon class="st66" points="200.4,133.5 200.7,133.5 200.7,133.2 200.4,133.2 			"/>
			<polygon class="st66" points="194.8,114.4 195.8,114.4 195.8,113 194.8,113 			"/>
			<path class="st67" d="M196.9,133.5c-0.3,0-1-0.3-1.4-0.7c0-0.3-0.3-0.7-0.7-1v-7.7c0.3,0,0.3,0,0.3,0c0.3,0,0.3,0,0.3,0
				c1.4,0,2.4,0.3,2.8,1.4l-1.4,0.7l-1.4,1c1,1,2.8,2.8,3.1,3.5c0,0,0,0,0,0.3c0.3,0.7,0,1.7-0.7,2.1
				C197.6,133.5,197.2,133.5,196.9,133.5z"/>
			<polygon class="st68" points="176.7,92.8 218.8,92.8 218.8,89 176.7,89 			"/>
			<polygon class="st68" points="179.1,183 216.4,183 216.4,181.2 179.1,181.2 			"/>
			<path class="st69" d="M169,95.2c0,0.3-0.3,0.7-0.7,0.7c-0.7,0-1-0.3-1-0.7c0-0.7,0.3-1,1-1C168.7,94.2,169,94.5,169,95.2z"/>
			<path class="st69" d="M152.7,142.9c0,0.3-0.3,0.7-0.7,0.7c-0.7,0-1-0.3-1-0.7s0.3-0.7,1-0.7C152.3,142.2,152.7,142.6,152.7,142.9
				z"/>
			<path class="st69" d="M149.9,155.5c0,0.3-0.7,1-1,1s-0.7-0.7-0.7-1s0.3-0.7,0.7-0.7S149.9,155.1,149.9,155.5z"/>
			<path class="st69" d="M156.5,159.3c0,0.7-0.3,1.4-1,1.4c-0.7,0-1.4-0.7-1.4-1.4c0-0.3,0.7-1,1.4-1
				C156.2,158.2,156.5,158.9,156.5,159.3z"/>
			<path class="st69" d="M157.9,155.5c0,0.3-0.3,0.7-0.7,0.7s-0.7-0.3-0.7-0.7s0.3-0.7,0.7-0.7S157.9,155.1,157.9,155.5z"/>
			<path class="st70" d="M181.2,112.3c-0.3-1.4-0.3-3.1,0.3-4.2c0.3-1,1-1.7,1.4-2.8c1.4-3.5,1.7-7,1.7-10.4
				c-0.3-4.5-2.8-8.4-6.6-11.1c-2.1-1.7-3.8-4.2-4.2-7l-1-11.1h-13.2l-1.4,11.1c0,1.7-1.7,3.8-3.5,5.2c-4.9,4.9-8,11.8-6.6,18.8
				c0.3,1.4,0.7,2.8,1,4.5c0.7,1,1,1.7,1.7,2.8s0.3,2.8,0.3,4.2c-0.3,1.7-1.4,3.1-2.8,3.8c-2.1,0.7-3.8,2.8-3.8,5.2v56.1
				c0,3.5,2.8,5.9,5.9,5.9h31.3c3.1,0,5.6-2.4,5.6-5.9v-56.1c0-2.4-1.4-4.5-3.5-5.2C182.6,115.4,181.6,114,181.2,112.3z"/>
			<path class="st70" d="M181.2,112.3c-0.3-1.4-0.3-3.1,0.3-4.2c0.3-1,1-1.7,1.4-2.8c1.4-3.5,1.7-7,1.7-10.4
				c-0.3-4.5-2.8-8.4-6.6-11.1c-2.1-1.7-3.8-4.2-4.2-7l-1-11.1h-13.2l-1.4,11.1c0,1.7-1.7,3.8-3.5,5.2c-4.9,4.9-8,11.8-6.6,18.8
				c0.3,1.4,0.7,2.8,1,4.5c0.7,1,1,1.7,1.7,2.8s0.3,2.8,0.3,4.2c-0.3,1.7-1.4,3.1-2.8,3.8c-2.1,0.7-3.8,2.8-3.8,5.2v56.1
				c0,3.5,2.8,5.9,5.9,5.9h31.3c3.1,0,5.6-2.4,5.6-5.9v-56.1c0-2.4-1.4-4.5-3.5-5.2C182.6,115.4,181.6,114,181.2,112.3z"/>
			<path class="st71" d="M187.5,121.3v56.1c0,3.5-2.4,5.9-5.6,5.9h-31.3c-3.1,0-5.9-2.4-5.9-5.9v-56.1c0-2.4,1.7-4.5,3.8-5.2
				c1.4-0.7,2.4-2.1,2.8-3.8c0-1.4,0.3-3.1-0.3-4.2s-1-1.7-1.7-2.8c-0.3-1.7-0.7-3.1-1-4.5c-1-7,1.4-13.6,6.3-18.5h22.3
				c0.3,0.7,1,1,1.4,1.4c3.8,2.8,6.3,6.6,6.6,11.1c0,3.5-0.3,7-1.7,10.4c-0.3,1-1,1.7-1.4,2.8c-0.7,1-0.7,2.8-0.3,4.2
				c0.3,1.7,1.4,3.1,2.8,3.8C186.1,116.8,187.5,118.9,187.5,121.3z"/>
			<path class="st69" d="M156.5,87.6c0,0.7-0.7,1.4-1.4,1.4c-1,0-1.7-0.7-1.7-1.4c0-1,0.7-1.7,1.7-1.7
				C155.8,85.8,156.5,86.5,156.5,87.6z"/>
			<path class="st69" d="M157.9,93.1c0,0.3-0.3,0.7-0.7,0.7s-0.7-0.3-0.7-0.7s0.3-0.7,0.7-0.7S157.9,92.8,157.9,93.1z"/>
			<path class="st69" d="M164.2,89.3c0,0.3-0.3,0.7-0.7,0.7s-1-0.3-1-0.7c0-0.7,0.7-1,1-1S164.2,88.6,164.2,89.3z"/>
			<polygon class="st72" points="144.7,165.6 187.5,165.6 187.5,123.8 144.7,123.8 			"/>
			<polygon class="st7" points="148.2,129.7 184.7,129.7 184.7,126.2 148.2,126.2 			"/>
			<polygon class="st7" points="148.2,162.4 184.7,162.4 184.7,159.3 148.2,159.3 			"/>
			<path class="st73" d="M185.8,117.2c-0.3-0.3-0.7-0.7-1.4-1C185.1,116.5,185.4,116.8,185.8,117.2L185.8,117.2z"/>
			<path class="st74" d="M187.5,169v-47.7c0-1.4-0.7-3.1-1.7-4.2l0,0c1,1,1.7,2.8,1.7,4.2V169z"/>
			<path class="st75" d="M184.7,182.6c1.7-1,2.8-2.8,2.8-5.2v-56.1c0-2.4-1.4-4.5-3.5-5.2c-0.7-0.3-1.4-1-2.1-1.7
				c0.7,0.7,1.4,1.4,2.1,1.7h0.3c2.1,1,3.1,3.1,3.1,5.2v56.1C187.5,179.8,186.4,181.6,184.7,182.6z M181.2,111.2
				c-0.3-1-0.3-2.4,0.3-3.1c0.3-1,1-1.7,1.4-2.8c0.3-0.7,0.7-1.4,0.7-2.1c0,0.7-0.3,1.4-0.7,2.1c-0.3,1-1,1.7-1.4,2.8
				c-0.3,0.7-0.7,1.4-0.7,2.1C180.9,110.6,181.2,110.9,181.2,111.2z M181.2,86.5c-1-1-2.1-2.1-3.1-2.8l-0.3-0.3l0.3,0.3
				C179.1,84.4,180.2,85.5,181.2,86.5z M176.7,82.4h-7c-1.4-1.4-2.4-3.5-2.8-5.6l-1-9.1h7l1,9.1C174.3,78.9,175.3,81,176.7,82.4z"/>
			<path class="st76" d="M181.9,183.3h-7c3.1,0,5.6-2.4,5.6-5.9v-11.8h7v11.8c0,2.4-1,4.2-2.8,5.2l0,0
				C184,183,183,183.3,181.9,183.3z M187.5,123.8h-7v-2.4c0-2.4-1.4-4.5-3.5-5.2c-1.4-0.7-2.4-2.1-2.8-3.8c-0.3-1.4-0.3-3.1,0-4.2
				c0.7-1,1.4-1.7,1.7-2.8c1.4-3.5,1.7-7,1.7-10.4c-0.3-4.5-2.8-8.4-6.6-11.1c-0.3-0.3-1-0.7-1.4-1.4h7c0.3,0.3,0.7,0.7,1,1l0.3,0.3
				c1,0.7,2.1,1.7,3.1,2.8c1.7,2.4,3.1,5.2,3.5,8.4c0,2.8-0.3,5.6-1,8.4l0,0c0,0.7-0.3,1.4-0.7,2.1c-0.3,1-1,1.7-1.4,2.8
				c-0.7,0.7-0.7,2.1-0.3,3.1c0,0.3,0,0.7,0,1c0,1,0.3,1.7,0.7,2.1c0.7,0.7,1.4,1.4,2.1,1.7c2.1,0.7,3.5,2.8,3.5,5.2V123.8z"/>
			<polygon class="st77" points="187.5,165.6 180.5,165.6 180.5,162.4 184.7,162.4 184.7,159.3 180.5,159.3 180.5,129.7 
				184.7,129.7 184.7,126.2 180.5,126.2 180.5,123.8 187.5,123.8 			"/>
			<polygon class="st78" points="180.5,129.7 184.7,129.7 184.7,126.2 180.5,126.2 			"/>
			<polygon class="st78" points="180.5,162.4 184.7,162.4 184.7,159.3 180.5,159.3 			"/>
			<path class="st79" d="M160.7,103.2c-4.9,0-8.7-3.5-8.7-7.7c0-4.5,3.8-8,8.7-8c5.2,0,9.1,3.5,9.1,8
				C169.7,99.8,165.9,103.2,160.7,103.2z M157.2,92.4c-0.3,0-0.7,0.3-0.7,0.7s0.3,0.7,0.7,0.7s0.7-0.3,0.7-0.7
				S157.6,92.4,157.2,92.4z M163.5,88.3c-0.3,0-1,0.3-1,1c0,0.3,0.7,0.7,1,0.7s0.7-0.3,0.7-0.7C164.2,88.6,163.8,88.3,163.5,88.3z"
				/>
			<path class="st80" d="M157.2,93.8c-0.3,0-0.7-0.3-0.7-0.7s0.3-0.7,0.7-0.7s0.7,0.3,0.7,0.7S157.6,93.8,157.2,93.8z"/>
			<path class="st80" d="M163.5,90c-0.3,0-1-0.3-1-0.7c0-0.7,0.7-1,1-1s0.7,0.3,0.7,1C164.2,89.7,163.8,90,163.5,90z"/>
			<path class="st72" d="M175,58v7.7h-17.8V58c0-0.3,0.3-1,1-1h15.7C174.3,56.9,175,57.6,175,58z"/>
			<path class="st78" d="M175,65.6L175,65.6V58c0-0.3-0.7-1-1-1h-8l0,0h8c0.3,0,1,0.7,1,1V65.6z"/>
			<path class="st77" d="M175,65.6h-9.1v-8.7h8c0.3,0,1,0.7,1,1V65.6z"/>
			<polygon class="st81" points="157.2,67.7 175,67.7 175,65.6 157.2,65.6 			"/>
			<path class="st82" d="M164.5,65.6h-6.3c0-0.7,0-1,0-1.4c0-3.5,1.4-6.3,3.1-6.3s3.5,2.8,3.5,6.3C164.9,64.6,164.5,64.9,164.5,65.6
				z"/>
			<path class="st83" d="M164.5,65.6h-6.3l0,0H164.5L164.5,65.6z"/>
			<path class="st84" d="M46.1,136c-0.7,1.7-1.4,3.8-1.4,5.6v40.7c0,2.4,2.1,4.5,4.5,4.5h23c2.4,0,4.5-2.1,4.5-4.5v-40.7
				c0-1.7-0.3-3.8-1.4-5.6H46.1z"/>
			<path class="st84" d="M46.1,136c-0.7,1.7-1.4,3.8-1.4,5.6v40.7c0,2.4,2.1,4.5,4.5,4.5h23c2.4,0,4.5-2.1,4.5-4.5v-40.7
				c0-1.7-0.3-3.8-1.4-5.6H46.1z"/>
			<path class="st84" d="M76.8,141.5v40.7c0,2.4-2.1,4.5-4.5,4.5h-23c-2.4,0-4.5-2.1-4.5-4.5v-40.7c0-1.7,0.7-3.8,1.4-5.6h29.2
				C76.4,137.7,76.8,139.8,76.8,141.5z"/>
			<path class="st85" d="M75.4,136H60.8c0.7,1.7,1,3.8,1,5.6v40.7c0,2.4-1.7,4.5-4.2,4.5h14.6c2.4,0,4.5-2.1,4.5-4.5v-40.7
				C76.8,139.8,76.4,137.7,75.4,136z"/>
			<path class="st86" d="M51,182.3v-40.7c0-1.7,0.3-3.8,1-5.6h-5.9c-0.7,1.7-1.4,3.8-1.4,5.6v40.7c0,2.4,2.1,4.5,4.5,4.5h6.3
				C53.1,186.8,51,184.7,51,182.3z"/>
			<polygon class="st87" points="70.2,155.8 67.7,160 72.6,162.1 67.7,164.5 70.5,168.7 64.9,168 64.2,172.9 60.4,169.4 56.2,172.9 
				55.5,168 50,169 52.4,164.5 47.5,162.4 52.4,160.3 49.6,156.2 55.2,156.9 55.9,152 60.1,155.5 63.9,152 64.6,156.5 			"/>
			<path class="st88" d="M53.1,160l0.3,0.7c0,0-3.1,1-4.5,1.7c1.4,0.7,4.5,1.7,4.5,1.7s-1.4,2.8-2.1,4.2c1.4-0.3,4.5-1,4.5-1
				s0.7,3.1,1,4.2c1-0.7,3.1-3.1,3.1-3.1s2.4,2.1,3.8,3.1c0-1.4,0.3-4.2,0.3-4.2s3.5,0.3,4.9,0.7c-0.7-1.4-2.1-3.8-2.1-3.8
				s2.8-1.4,4.2-2.1c-1.4-0.3-4.5-1.7-4.5-1.7s1.7-2.8,2.4-3.8c-1.7,0.3-4.9,0.7-4.9,0.7s-0.7-2.8-0.7-4.2c-1.4,1-3.5,3.1-3.5,3.1
				s-2.4-2.1-3.5-3.1c-0.3,1.4-0.7,4.5-0.7,4.5s-3.5-0.7-4.9-0.7C51.7,157.9,53.1,160,53.1,160z"/>
			<polygon class="st89" points="67,153.4 66.3,157.9 71.9,158.6 68.1,162.1 72.3,165.6 66.7,166.3 67.7,171.1 62.9,169 60.4,173.2 
				58,169 53.1,171.5 53.8,166.6 48.2,165.9 52.1,162.4 47.9,159.3 53.5,158.2 52.4,153.7 57.3,155.8 59.7,151.3 62.5,155.5 			"/>
			<path class="st90" d="M52.4,162.1l0.7,0.3c0,0-2.4,2.1-3.5,3.1c1.4,0.3,4.9,0.7,4.9,0.7s-0.3,2.8-0.7,4.2
				c1.4-0.7,4.2-2.1,4.2-2.1s1.7,2.4,2.4,3.8c0.7-1.4,2.1-4.2,2.1-4.2s3.1,1.4,4.5,2.1c-0.3-1.4-1-4.2-1-4.2s3.1-0.7,4.9-0.7
				c-1-1-3.8-3.1-3.8-3.1s2.4-2.1,3.5-3.1c-1.4,0-4.9-0.3-4.9-0.3s0.7-2.8,0.7-4.2c-1.4,0.7-4.2,2.1-4.2,2.1s-1.7-2.8-2.4-3.8
				c-0.7,1-2.1,3.8-2.1,3.8s-2.8-1.4-4.2-1.7c0,1,0.7,4.2,0.7,4.2s-3.1,0.3-4.9,0.7C50.7,160.7,52.4,162.1,52.4,162.1z"/>
			<path class="st90" d="M60.1,142.2c-4.5,0-12.9,2.4-13.2,3.8c0.3,1.4,8.7,3.8,13.2,3.8c4.9,0,12.9-2.4,13.2-3.8
				C73,144.7,64.9,142.2,60.1,142.2z"/>
			<polygon class="st90" points="44.8,179.1 76.8,179.1 76.8,174.3 44.8,174.3 			"/>
			<path class="st91" d="M76.8,178.8v-12.9V178.8z"/>
			<path class="st92" d="M72.3,186.8h-9.4c0,0,0,0,0.3,0H72.3c2.4,0,4.5-2.1,4.5-4.5v-3.1l0,0v3.1C76.8,184.7,74.7,186.8,72.3,186.8
				z M76.8,174.3L76.8,174.3v-32.7c0-1,0-2.1-0.3-3.1c0.3,1,0.3,2.1,0.3,3.1V174.3z"/>
			<path class="st93" d="M72.3,186.8h-9.1c2.1,0,4.2-2.1,4.2-4.5v-3.1h9.4v3.1C76.8,184.7,74.7,186.8,72.3,186.8z M76.8,174.3h-9.4
				v-3.5l0.3,0.3l-0.3-2.1v-0.7l3.1,0.3l-1.7-2.8l3.5-0.3l-2.4-2.1l2.8-1.4l-3.1-1.4l2.4-2.1l-3.1-0.3l1.4-2.4l-2.8,0.3v-7.3
				c3.1-1,5.9-2.1,5.9-2.8s-2.8-1.7-5.9-2.4v-2.1c0-1.7-0.3-3.8-1.4-5.6h9.4c0.3,0.7,0.7,1.7,1,2.4c0.3,1,0.3,2.1,0.3,3.1V174.3z"/>
			<path class="st94" d="M70.5,168.7l-3.1-0.3v-0.7c0.7,0,1.4,0,1.7,0.3l0,0c-0.3-0.7-0.7-1.4-1-2.1h0.7L70.5,168.7z M69.8,163.5
				l-0.7-0.3c1-0.3,1.7-0.7,2.1-1c-0.3,0-1.4-0.3-2.1-0.7l0.3-0.7l3.1,1.4L69.8,163.5z M68.8,158.2h-0.7c0.3-0.7,0.7-1.4,1-1.7
				c-0.7,0-1,0-1.7,0.3v-0.7l2.8-0.3L68.8,158.2z"/>
			<path class="st95" d="M69.1,168c-0.3-0.3-1-0.3-1.7-0.3v-1.4l0.7-0.3C68.4,166.6,68.8,167.3,69.1,168z M69.1,163.1l-1-1l1-0.7
				c0.7,0.3,1.7,0.7,2.1,0.7C70.9,162.4,70.2,162.8,69.1,163.1z M68.1,158.2h-0.7v-1.4c0.7-0.3,1-0.3,1.7-0.3
				C68.8,156.9,68.4,157.6,68.1,158.2z"/>
			<path class="st96" d="M67.7,171.1l-0.3-0.3V169L67.7,171.1z M67.4,166.3v-0.7c1,0,2.4-0.3,3.5-0.3c-1-1-2.8-2.4-3.5-2.8v-0.3
				c0.7-0.7,2.4-2.1,3.1-3.1c-0.7,0-2.1,0-3.1-0.3v-0.3h0.7h0.7l3.1,0.3l-2.4,2.1l-0.3,0.7l-1,0.7l1,1l0.7,0.3l2.4,2.1l-3.5,0.3
				h-0.7L67.4,166.3z"/>
			<path class="st97" d="M67.4,165.6v-3.1c0.7,0.3,2.4,1.7,3.5,2.8C69.8,165.2,68.4,165.6,67.4,165.6z M67.4,162.1v-3.5
				c1,0.3,2.4,0.3,3.1,0.3C69.8,160,68.1,161.4,67.4,162.1z"/>
			<path class="st97" d="M67.4,148.8v-5.2c3.1,0.7,5.9,1.7,5.9,2.4S70.5,147.8,67.4,148.8z"/>
			<polygon class="st97" points="76.8,179.1 67.4,179.1 67.4,174.3 76.8,174.3 			"/>
			<path class="st98" d="M75.4,136H46.1c0-1.4,1-2.4,2.4-2.4h24.7C74.3,133.5,75.4,134.6,75.4,136z"/>
			<path class="st99" d="M59,133.5h-9.7v-0.3c0-1,0.7-1.7,1.7-1.7h5.9C58,131.4,59,132.1,59,133.5L59,133.5z"/>
			<path class="st100" d="M52.8,135.6c-2.8,0-5.2-0.3-5.2-0.7c0-0.3,2.4-0.3,5.2-0.3c3.1,0,5.2,0,5.2,0.3
				C58,135.3,55.9,135.6,52.8,135.6z"/>
			<path class="st101" d="M55.9,185.4c-1.7,0-3.5-1-4.9-2.8v-0.3v-3.1h10.8v1.7C60.1,183.7,58,185.4,55.9,185.4z"/>
			<path class="st102" d="M61.8,180.9v-1.7h1C62.5,179.8,62.2,180.2,61.8,180.9z"/>
			<path class="st103" d="M51,182.6c-0.7-1-1.4-2.1-2.1-3.5H51v3.1V182.6z"/>
			<path class="st101" d="M61.8,174.3H51v-5.6l2.4-0.3l-0.3,3.1l2.8-1.4l0.3,2.8l2.4-2.1l1.7,2.4l1.4-2.4l0,0V174.3z M51,167.3v-1
				h0.3L51,167.3z M51,158.9v-1l0.3,0.7L51,158.9z M53.1,156.5l-2.1-0.3v-8c2.8,1,6.6,1.7,9.1,1.7c0.7,0,1.4,0,1.7,0v3.8l-0.3,0.3
				l-1.7-2.8l-1.4,2.8l-2.4-2.1l-0.3,3.1l-3.1-1.4L53.1,156.5z"/>
			<path class="st102" d="M64.6,174.3h-2.8v-3.5l2.4,2.1l0.3-3.1l0.7,0.3C65.3,171.5,64.9,172.9,64.6,174.3z M64.2,154.8l-0.3-2.8
				l-2.1,1.7v-3.8c1-0.3,1.7-0.3,2.8-0.7c0.3,1.7,0.7,3.1,0.7,4.9L64.2,154.8z"/>
			<path class="st103" d="M51,174.3h-3.8c-1-3.5-1.4-7.7-1.4-12.2c0-5.9,0.7-11.1,2.1-15c0.7,0.3,1.7,0.7,3.1,1v8h-1.4l1.4,1.7v1
				l-3.1,0.3l2.4,1.7l-2.8,1.4l3.1,1.4l-2.4,2.1l2.8,0.3v1l-1,1.7l1-0.3V174.3z"/>
			<path class="st104" d="M56.2,172.9l-0.3-2.8l0.7-0.3c0,0.7,0,1.4,0.3,1.7c0.3-0.3,1-0.7,1.4-1.4l0.3,0.7L56.2,172.9z M64.2,172.9
				l-2.4-2.1l0,0l0.3-0.7c0.7,0.7,1,1,1.7,1.4c0-0.3,0-1.4,0-2.1l0.7,0.3L64.2,172.9z M50,169l1-1.7l0.3-1l0.7,0.3
				c-0.3,0.3-0.7,1-0.7,1.7c0.3-0.3,1.4-0.3,2.1-0.7v0.7l-2.4,0.3L50,169z M50.7,163.8l-3.1-1.4l2.8-1.4l0.7,0.7
				c-0.7,0.3-1.4,0.7-2.1,0.7c0.7,0.3,1.4,0.7,2.1,1L50.7,163.8z M51.4,158.6l-0.3-0.7l-1.4-1.7H51l2.1,0.3v0.7
				c-0.7-0.3-1.4-0.3-2.1-0.3c0.3,0.3,0.7,1,1,1.7H51.4z M56.2,155.1h-0.7l0.3-3.1l2.4,2.1l-0.3,0.3c-0.3-0.3-1-1-1.4-1.4
				C56.2,153.7,56.2,154.4,56.2,155.1z M63.9,155.1c-0.3-0.7-0.3-1.4-0.3-2.1c-0.7,0.3-1,1-1.7,1.4l-0.3-0.3l0.3-0.3l2.1-1.7
				l0.3,2.8L63.9,155.1z"/>
			<path class="st105" d="M56.9,171.5c-0.3-0.3-0.3-1-0.3-1.7L58,169l0.3,1C58,170.8,57.3,171.1,56.9,171.5z M63.9,171.5
				c-0.7-0.3-1-0.7-1.7-1.4l0.7-1l1,0.3C63.9,170.1,63.9,171.1,63.9,171.5z M51.4,168.3c0-0.7,0.3-1.4,0.7-1.7h1.7l-0.3,1
				C52.8,168,51.7,168,51.4,168.3z M51,163.5c-0.7-0.3-1.4-0.7-2.1-1c0.7,0,1.4-0.3,2.1-0.7l1,0.7L51,163.5z M52.1,158.6
				c-0.3-0.7-0.7-1.4-1-1.7c0.7,0,1.4,0,2.1,0.3l0.3,1L52.1,158.6z M57.3,155.8l-1-0.7c0-0.7,0-1.4,0.3-2.1c0.3,0.3,1,1,1.4,1.4
				L57.3,155.8z M62.5,155.5l-0.7-1c0.7-0.3,1-1,1.7-1.4c0,0.7,0,1.4,0.3,2.1L62.5,155.5z"/>
			<path class="st106" d="M60.4,173.2l-1.7-2.4l-0.3-0.7l-0.3-1l-1.4,0.7l-0.7,0.3l-2.8,1.4l0.3-3.1v-0.7l0.3-1h-1.7l-0.7-0.3H51
				l-2.8-0.3l2.4-2.1l0.3-0.3l1-1l-1-0.7l-0.7-0.7l-2.4-1.7l3.1-0.3l0.3-0.3h0.7l1.4-0.3l-0.3-1v-0.7l-0.7-2.8l3.1,1.4h0.7l1,0.7
				l0.7-1.4l0.3-0.3l1.4-2.8l1.7,2.8l0.3,0.3l0.7,1l1.4-0.3l0.3-0.3l1-0.7c0.3,0.3,0.3,0.3,0.3,0.7c-1.4,0.7-3.5,1.7-3.5,1.7
				s-1.7-2.8-2.4-3.8c-0.7,1-2.1,3.8-2.1,3.8s-2.8-1.4-4.2-1.7c0,1,0.7,4.2,0.7,4.2s-3.1,0.3-4.9,0.7c1.4,1,3.1,2.4,3.1,2.4l0.7,0.3
				c0,0-2.4,2.1-3.5,3.1c1.4,0.3,4.9,0.7,4.9,0.7s-0.3,2.8-0.7,4.2c1.4-0.7,4.2-2.1,4.2-2.1s1.7,2.4,2.4,3.8
				c0.7-1.4,2.1-4.2,2.1-4.2s1.7,0.7,3.1,1.4c0,0.3,0,0.3-0.3,0.7l-0.7-0.3l-0.7-0.3l-1-0.3l-0.7,1l-0.3,0.7L60.4,173.2z M66,158.6
				h-0.3c0,0,0-0.3,0.3-1C66,157.9,66,158.2,66,158.6z"/>
			<path class="st101" d="M51,144v-2.4l0,0c1.4-1.7,3.1-2.8,4.9-2.8c2.1,0,3.8,1.4,5.6,3.5c-0.3,0-1,0-1.4,0
				C57.6,142.2,53.8,143.3,51,144z"/>
			<path class="st103" d="M48.9,144.7c0.7-1.4,1.4-2.4,2.1-3.1l0,0v2.4C50.3,144.3,49.6,144.3,48.9,144.7z"/>
			<path class="st107" d="M60.4,172.2c-0.7-1.4-2.4-3.8-2.4-3.8s-2.8,1.4-4.2,2.1c0.3-1.4,0.7-4.2,0.7-4.2s-3.5-0.3-4.9-0.7
				c1-1,3.5-3.1,3.5-3.1l-0.7-0.3c0,0-1.7-1.4-3.1-2.4c1.7-0.3,4.9-0.7,4.9-0.7s-0.7-3.1-0.7-4.2c1.4,0.3,4.2,1.7,4.2,1.7
				s1.4-2.8,2.1-3.8c0.7,1,2.4,3.8,2.4,3.8s2.1-1,3.5-1.7c0,1,0,1.7,0.3,2.8c-0.3,0.7-0.3,1-0.3,1H66c0,1,0,2.1,0,3.5
				c0,2.4,0,4.9-0.3,7.3c-1.4-0.7-3.1-1.4-3.1-1.4S61.1,170.8,60.4,172.2z"/>
			<path class="st107" d="M60.1,149.9c-2.4,0-6.3-0.7-9.1-1.7c-1.4-0.3-2.4-0.7-3.1-1c0.3-1,0.7-1.7,1-2.4c0.7-0.3,1.4-0.3,2.1-0.7
				c2.8-0.7,6.6-1.7,9.1-1.7c0.3,0,1,0,1.4,0c1,2.1,2.1,4.2,3.1,7c-1,0.3-1.7,0.3-2.8,0.7C61.5,149.9,60.8,149.9,60.1,149.9z"/>
			<path class="st107" d="M62.9,179.1H48.9c-0.7-1.4-1.4-3.1-1.7-4.9h17.4C63.9,176,63.6,177.7,62.9,179.1z"/>
		</g>
		<g>
			<path class="st108" d="M133.5,168.3c0.7,3.1-34.8,23.3-50.8,24.7c-3.8,0.3-11.1-8.7-11.1-11.5c0-3.8,1.7-26.8,25.4-31.3
				C119.6,146.1,132.8,164.5,133.5,168.3z"/>
			<path class="st109" d="M124.8,165.9c0,0,11.1-7.7,9.4-9.1c-1.7-1-9.1-1.7-16-4.2c-7-2.1-16-5.9-17.4-5.9
				c-1,0.3-5.6,18.1-5.6,18.1L124.8,165.9z"/>
			<path class="st110" d="M124.8,165.9c0,0,8.7-6.3,7-7.3c-1.7-1.4-6.6-1.7-13.6-4.2c-7-2.1-14.6-5.9-16-5.9
				c-1.4,0.3-4.9,16.4-4.9,16.4L124.8,165.9z"/>
			<path class="st111" d="M132.8,158.2L132.8,158.2c0-0.3-0.3-0.3-0.3-0.3s-0.3,0-0.3-0.3h-0.3c-0.7-0.3-1-0.3-1.4-0.7
				c-0.7,0-1,0-1.7-0.3c-0.3,0-0.3,0-0.7-0.3c-0.3,0-0.7,0-0.7,0c-0.3,0-0.3-0.3-0.7-0.3c0,0,0,0-0.3,0c0,0-0.3,0-0.3-0.3
				c-1,0-1.4-0.3-1.4-0.3s0.3,0,1.4,0c0.3,0,1,0.3,1.4,0.3c0.3,0,0.7,0,0.7,0.3c0.3,0,0.7,0,1,0c0,0,0.3,0.3,0.7,0.3
				c0.3,0,0.7,0.3,0.7,0.3c0.3,0,0.7,0,0.7,0.3c0.3,0,0.7,0,0.7,0.3c0.3,0,0.3,0,0.3,0.3c0.3,0,0.3,0,0.3,0.3
				C132.8,157.9,132.8,157.9,132.8,158.2L132.8,158.2z"/>
			<path class="st112" d="M130.4,159.3L130.4,159.3c0,0,0,0-0.3-0.3h-0.3c-0.3-0.3-0.7-0.3-1.4-0.7l0,0c0.7,0,1,0.3,1.4,0.3
				c0.3,0.3,0.3,0.3,0.7,0.3C130.4,159.3,130.4,159.3,130.4,159.3L130.4,159.3L130.4,159.3z M111.6,153.4c-1-0.3-1.7-0.7-2.1-1
				c-0.3,0-0.7-0.3-0.7-0.3l-0.3-0.3l0.3,0.3c0,0,0.3,0,0.7,0.3c0.3,0,1.4,0.3,2.4,0.7C111.6,153,111.6,153.4,111.6,153.4z"/>
			<path class="st109" d="M81,172.2c0,0-13.2-3.1-11.8-4.9c1-1.7,7.3-4.9,13.2-9.4c5.6-4.9,12.9-11.5,13.9-11.8
				c1.4-0.3,11.8,15,11.8,15L81,172.2z"/>
			<path class="st110" d="M81,172.2c0,0-10.4-2.4-9.1-4.2c1-1.7,5.6-4.2,11.1-8.7c5.9-4.5,11.5-10.8,12.9-11.1
				c1.4-0.3,10.4,13.6,10.4,13.6L81,172.2z"/>
			<path class="st111" d="M89,153c0,0,0.7-0.7,1.7-1.7c0.7-0.7,1-1.4,2.1-1.7c0.3-0.3,0.7-0.7,1-1c0.3-0.3,0.7-0.7,1.4-1
				c0,0,0.3-0.3,0.7-0.3l0,0c0,0,0,0,0.3,0l0,0l0,0c0.3,0,0.3,0,0.7,0c0.3,0.3,0.7,0.7,1,1c0.3,0.3,0.7,0.7,1,1
				c0.3,0.3,0.7,0.7,0.7,1c1,1.4,1.4,2.4,1.4,2.4s-0.7-1-1.7-2.1c-0.3-0.7-1-1.4-1.7-1.7c-0.3-0.3-0.7-0.7-1-1c-0.3,0-0.3,0-0.3,0
				l0,0h-0.3l0,0c0,0-0.3,0-0.3,0.3c-0.7,0.3-1,0.3-1.4,0.7c-0.3,0.3-0.7,0.7-1,1c-0.7,0.7-1.4,1-2.1,1.7C89.7,152.7,89,153,89,153z
				"/>
			<path class="st111" d="M70.2,168L70.2,168c0,0,0,0,0-0.3l0.3-0.3c0-0.3,0-0.3,0.3-0.7l0.3-0.3c0.3-0.3,0.3-0.3,0.7-0.7l0.3-0.3
				c0.3-0.3,0.7-0.3,0.7-0.7c0.3,0,0.7-0.3,0.7-0.3c0.3-0.3,0.7-0.3,0.7-0.7c0.3,0,1-0.3,1.4-0.7c0.7-0.3,1-0.7,1-0.7s-0.3,0.7-1,1
				c0,0.3-0.7,0.7-1,1c0,0-0.3,0.3-0.7,0.3c0,0.3-0.3,0.3-0.3,0.7c-0.7,0.3-1,0.7-1.4,1c-0.3,0.3-1,0.7-1,0.7
				c-0.3,0.3-0.3,0.3-0.7,0.3c0,0.3,0,0.3,0,0.3C70.2,168,70.2,168,70.2,168L70.2,168z"/>
			<path class="st112" d="M73,168.3L73,168.3V168c0,0,0.3-0.3,0.3-0.7c0.3-0.3,1-1,2.1-1.7c0.3-0.3,1-0.7,1.4-1.4c0,0.3,0,0.7,0,0.7
				c-0.3,0.3-0.7,0.7-1.4,1c-0.7,0.7-1.4,1.4-2.1,1.7L73,168V168.3L73,168.3z M77.8,163.5c0.3,0,0.3,0,0.3,0c0.7-0.7,1-1,1.7-1.4
				c0.3-0.3,0.3-0.3,0.7-0.7c-0.3,0.3-0.3,1-0.7,1.4s-0.7,0.3-1,0.7c0,0,0,0-0.3,0l0,0C78.2,163.5,78.2,163.5,77.8,163.5z M81,161
				c0.3,0,0.3,0,0.7-0.3l-0.3,0.3l0,0H81z M83.7,160c-0.3,0-0.3-0.3-0.7-0.3c0,0,0,0-0.3,0l0,0c1-0.3,1.7-1,2.4-1.4
				c1-0.7,2.1-1.7,2.8-2.4c0.7-0.7,1.4-1,2.1-1.4c0-0.3,0.3-0.7,0.3-0.7v-0.3v0.3c0,0,0,0.3-0.3,0.7c-0.3,0.3-1,1-1.7,1.7
				c-1,0.7-1.7,1.7-2.8,2.4C84.8,159.3,84.4,159.6,83.7,160z"/>
			<path class="st113" d="M79.9,175.3c-1.7,0-3.1-0.3-4.5-0.3c-1.4-0.3-3.1,0-4.2-1s-1-3.1,0.7-3.5c0.3-0.3,0.7-0.3,1.4-0.3h0.3
				c1.4,0,1-0.3,1-1.4c0-0.7,0.3-0.7,0.7-0.7c0.3,0,0.3,0,0.7,0c1,0,1-0.3,1-1.4c-0.3-1.7-1-3.1,1.4-3.1c1,0,1.7,0.3,2.4-0.3
				c0.7-0.3,0.3-1,0.3-1.7c0.3-0.7,0.7-1.4,1.4-1.7c0.7,0,0.7,0.3,1,0.3c0.3,0.3,0.7,0.3,1.4,0.3c1-0.3,0.3-1,1-1.7
				c0.3-0.7,1-0.7,1.7-0.7c1,0,1.7,0.3,2.4,0c0.3-0.7,0.3-1.7,0.3-2.1c0.7-1.7,2.1-2.8,3.8-2.8c1.4,0,2.8,1.7,4.2,2.1
				c1.7,0.3,3.8,0,5.2-0.7c1.4-1,3.1-2.4,4.2-0.7c0.7,0.7,0.7,0.7,1.7,0.7s1,0,1.7-0.7c1-1,2.4-2.1,3.8-1c0.3,0.3,1,1.4,1.4,1.7
				c1,0,1.7-0.3,2.4-1c0.3-0.3,1-1.4,2.1-1.4c0.7,0,1.4,0.7,1.7,1.4c0.3,0.7,0.3,1.4,0.7,2.1c0.3,0.3,1.4,0.3,2.1,0.3
				c1-0.3,1.7,0.3,2.4,1c1,1,0.3,1.4,0.7,2.4c0.3,2.1,2.4,1.7,3.8,2.1c1,0.3,1.4,1,1.4,2.4c0,1-0.7,1.7-1.7,2.1
				c-1,0.7-1.7,0.3-2.8,0.3c-1.7,0-3.5-0.3-4.9,0c-2.1,0.3-3.5,1.4-5.2,2.8c-2.1,1.4-4.5,1.7-7,2.1c-1.7,0.3-3.1,0.7-4.5,0.7
				c-1.4,0.3-3.1-0.3-4.5-0.7c-2.8-0.7-4.9-2.8-8-1.7c-2.8,0.3-5.2,2.4-7.7,3.5c-1.4,1-3.5,1.7-5.2,1L79.9,175.3z"/>
			<path class="st114" d="M128,169.4c1.4-0.3,2.8-1,4.2-1.7c1.4-0.7,2.8-1,3.5-2.4c0.7-1.4,0-3.1-1.7-3.1c-0.7,0-1,0.3-1.7,0.7
				c-1.4,0.3-1,0-1.4-1c-0.7-1-0.7-0.3-1.4-0.3c-1,0.3-1,0-1.4-1c-0.7-1.7-0.3-3.1-2.8-2.4c-0.7,0.3-1.4,1-2.1,0.7
				c-0.7-0.3-0.7-1-1-1.7c-0.3-0.7-1-1-1.7-1c-1,0.3-1,1-2.1,1c-1,0.3-0.7-0.7-1.4-1c-0.7-0.3-1.7-0.3-2.1,0c-0.7,0-1.4,1-2.1,0.7
				c-0.7-0.3-1-1.4-1.4-1.7c-1-1.4-2.8-2.1-4.2-1.7c-1.7,0.7-2.1,2.8-3.5,3.5c-1.4,1-3.5,1.4-4.9,1c-1.7-0.3-3.8-1-4.5,1
				c-0.3,0.7-0.3,0.7-1.4,1c-0.7,0.3-1,0.3-1.7,0c-1.4-0.7-2.8-1.4-3.8,0.3c-0.3,0.3-0.7,1.4-1,1.7c-0.7,0.7-1.7,0.3-2.4,0
				c-0.7-0.3-1.7-0.7-2.4-0.7c-1,0.3-1,1-1.4,1.7c0,1,0.3,1.4,0,2.4c0,0.7-1,0.7-1.7,1c-1,0-1.4,0.7-2.1,2.1c-0.3,1,0,1,0.3,2.1
				c0.3,2.1-1.7,2.4-3.1,3.5c-0.7,0.3-0.7,1.4-0.3,2.4c0.3,1,1,1.4,2.1,1.7c1,0,1.7-0.3,2.8-0.7c1.7-0.7,3.1-1.4,4.9-1.7
				c2.1-0.3,3.8,0.3,5.6,1c2.4,0.7,4.9,0.3,7.7-0.3c1.4,0,2.8-0.3,4.2-0.7c1.4-0.3,2.8-1.4,4.2-2.1c2.4-1.7,3.8-4.2,7-4.5
				c2.8-0.3,5.9,0.3,8.4,1c1.7,0.3,3.8,0.3,5.2-1L128,169.4z"/>
			<path class="st115" d="M74,176.7c-0.3,0-0.3-0.3-0.3-0.3c-0.7-0.3-0.3-1.4,0-2.1c0.7-0.7,2.4-1.7,3.5-2.1c0,0,0,0,0-0.3
				c-0.3,0.7-0.3,1.4,0,1.7c-1,0.3-2.1,1-2.4,1.7C74.7,175.7,74.3,176.7,74,176.7z M84.1,171.5c-0.7-0.3-1.7-0.3-2.4-0.7
				c-0.7,0-1-0.3-1.7-0.3c-0.3,0-0.3,0.3-0.7,0.3c-0.3,0-0.7,0-1-0.3c-1,0-1.4-1.7-1-2.8c0.3-0.7,1.4-0.7,2.1-0.7c0.3,0,0.7,0,1,0
				c1.4,0,2.4,1,3.8,1.4l0.7,1.7C84.8,170.4,84.4,171.1,84.1,171.5z"/>
			<path class="st115" d="M80.6,164.9l-0.3-0.3c0-0.7,0-2.8,1-3.1l0.3-0.3c1,0,2.4,1,3.5,1l0,0c1.7,0,1.7-1.4,2.8-2.1
				c0.3-0.3,0.7-0.7,1-0.7c1,0,2.1,0.7,0.7,1.7c-1,0.7-2.4,1.7-1.7,3.5c-1-0.3-1.4-1.4-2.4-1.7c-0.3,0-1,0-1.4-0.3
				c-0.7,0-1-0.3-1.4-0.3l0,0c0,1,0.7,1.4,0.7,2.4c-0.7,0-1.7-2.1-2.8-2.1l0,0C80.3,163.1,80.3,164.2,80.6,164.9z"/>
			<path class="st115" d="M104.6,161c0,0,0,0-0.3-0.3c-0.3,0-1.4-1.7-1.4-2.4c-1,0.3-5.6,1.4-5.6,2.1c-0.3-0.3-0.7-0.3-1-0.3
				c0,0-0.3,0-0.7,0.3c-0.3,0-1,0.3-1.4,0.3c-0.3,0-0.3,0-0.3,0c-1.4-0.3-0.3-0.7,0-1.4c0.7-0.3,1-0.7,1.4-1c0.3-0.3,1-0.3,1.4-0.3
				c0.7,0,1.7,0.3,2.4,0.3h0.3c1,0,2.4-0.3,3.5-0.7c0,0.3,0.3,0.7,0.3,1c0.7-0.7,1-2.1,1.7-3.1s2.1-1.7,3.5-2.1v0.3
				c0,0.3,0,0.7-0.3,1.4c-0.3,0.3-1,0.3-1.4,0.7c-0.7,0.7-1,2.1-1,2.8C105.3,159.3,105.3,161,104.6,161z"/>
			<path class="st116" d="M117.5,156.9c-0.3,0-0.3,0-0.7,0c0.3,0,0.3,0,0.3,0S117.2,156.9,117.5,156.9z"/>
			<path class="st115" d="M126.9,160.7c-0.3,0-1-0.7-1.7-0.7l0,0c-0.7,0-1.4,0.7-2.1,0.7l0,0c-2.1,0-2.4-1.4-3.5-2.4
				c-0.3-0.3-0.7-0.3-0.7-0.3c-0.3,0-0.3,0-0.7,0h-0.3h-0.3c-0.7,0-1-0.7-1.4-1c-0.3,0-0.3,0-0.3,0c-0.7,0-1,0.3-1.4,0.3
				c-0.7,0-1,0.3-1.4,0.3c-0.3,0-0.7-0.3-1-0.7c-0.3,0-0.3-0.3-0.3-0.3l0,0l0,0l0.3,0.3c0.3,0,0.3,0,0.3,0c0.3,0,0.7,0,1,0
				c0.7-0.3,1.4-0.3,2.1-0.7c0.3,0,0.3,0,0.3,0c0.7,0,0.7,0.3,1,0.7c0.3,0,0.3,0,0.7,0c0.3,0.3,0.7,0.3,1,0.3s0.3,0,0.7,0
				c0.7-0.3,1-0.7,1.4-0.7c0,0,0.3,0,0.3,0.3c0.7,0.3,0.7,1,1,1.7c0.7,0.3,1,0.3,1.4,0.3s0.7,0,1,0s0.7-0.3,1-0.3c0,0,0.3,0,0.3,0.3
				C126.6,158.9,126.9,160,126.9,160.7z"/>
			<path class="st115" d="M129,168c-0.7-1,3.5-2.1,3.5-2.8c-0.3,0.3-0.7,0.3-1,0.3c-0.3,0-0.3,0-0.7-0.3c0.3,0,0.3-0.3,0.7-0.7
				c-0.3,0-0.7,0.3-1,0.3c-0.3,0-0.3,0-0.3,0c-0.7-0.3-0.3-0.7-0.3-1c-0.3-0.7-1.7-1-1.7-1.7c0,0,0.3-0.3,0.7-0.3c0.3,0,1,0.3,1,0.7
				c0.7,0.7,0.3,1,1,1c0.3,0,0.3,0,0.7,0c0,0.3,0,0.7,0,1.4c0.7-0.3,1.4-1.4,2.1-1.4l0,0c0.3,0.7-0.7,0.7-0.3,1.4
				c0.3,0,1-0.3,1.7-0.3c0.3,1.7-3.8,2.4-4.5,3.1L129,168z"/>
			<path class="st113" d="M80.3,188.5c0.3,0.3,0.3,0.3,0,1c-0.7,1.4,0.7,1.4,2.1,1.4c0.7,0,1,0.3,1.7,0.7c3.5-1.4,7.3-1.4,11.1-2.4
				c2.8-0.3,5.6-1.4,8.4-1.7c-0.3-0.7-1.4-1-2.1-1c-2.1-0.3-4.2-0.3-5.6-1c-1.7-0.7-1-2.8-1.4-4.5c-0.3-1-0.7-1.7-1.4-2.4
				c-0.3-0.3-1-1-1.7-1.4c-1.4-0.7-2.4-1.7-4.2-1.4c-1.7,0-3.1,0-3.8-0.7c-1-0.7-1.4-1.4-2.1-2.1c-0.3-0.3-0.3-1-1-1
				c-0.7,0-1.4,0-2.1,0.7c-1,0.7-1.4,1.4-1.4,2.1c0.3,0.7,1.4,1.4,0,2.8c-0.7,0.7-1,0.7-1.4,1.7c-0.3,0.7-0.7,1.4,0,1.7
				c0.3,0.3,0.7,0.7,0.3,1c-0.3,0.7-1,1-1,1.7c-0.3,0.3-0.7,1-0.3,1.4c0.3,0.3,1,0,1.7,0c0.7,0,1.4,0,1.4,0.3c0,0.3-0.3,1.4-0.3,1.7
				c-0.3,1.4,0.7,1.4,1.7,1C79.6,187.8,79.9,188.2,80.3,188.5z"/>
			<path class="st114" d="M78.9,183.3c0.7,0.3,0,0.7-0.3,1.4c0,0.7,0.3,0.7,0.7,1c0.7,0,1.4,0,1.4,0.3c0,0.3-0.7,1-0.7,1.7
				c-0.7,1-0.7,2.4,0.3,2.4c0.3,0.3,1.4,0,2.1,0c0.3-0.3,1-0.3,1.7-0.3c1,0,1.7,0.3,2.1,1c3.1-0.7,5.9-1,9.1-1.7
				c3.5-0.7,6.6-1.4,10.1-2.1l0,0c-1-0.7-1.4-2.1-1.4-3.1c-0.3-1.4-1.7-2.4-2.8-3.1c-0.7-0.3-1.4-1-2.1-1.4c-1-0.3-2.1-0.3-3.1-0.3
				c-2.1,0-4.5,1-5.9,0c-1-1-1.7-2.8-2.1-4.2c-0.3-1-1.4-2.1-2.4-1.7l-1-1.7c-1,0-1.7-0.3-2.8-0.7c-1,0-1.7-0.3-3.1,0
				c-1,0.7-2.1,2.1-1.4,2.8c0,0.3,0.7,0.3,1,0.3c0.7,0.3,0.3,0.7-0.3,1.4s0,0.3,0.3,0.7c0.7,0,0.3,0.3-0.3,1c-1,1.4-2.1,2.4-0.7,2.8
				c0.3,0,1,0,1,0.7c0.3,0.3-0.3,0.7-0.7,1.4c-0.3,0.3-0.3,1,0,1.4c0.3,0,0.3,0,0.7,0C78.5,183.3,78.9,183.3,78.9,183.3z"/>
			<path class="st115" d="M86.9,191c0,0,0,0,0-0.3c-0.3-0.3-1.4-0.7-1.7-1c0-0.3,0.3-0.7,0.3-1c-0.7,0.3-2.1,1-2.8,1.4
				c-0.3,0-0.7,0-1,0c-0.7,0-1.4,0-1.7-0.3h0.3c0-0.3,0.3-0.7,1-0.7l0,0c0.3,0,0.3,0,0.3,0c0.3,0,0.3,0,0.3,0h0.3
				c0.7,0,1.7-0.7,2.4-1c0.3-0.3,1.4-1.4,1.7-1.4v0.3c0.3,0.3-0.7,1.7-1,2.1c0.3,0.3,2.1,1.4,3.1,1.4l0,0c0.3,0,0.3,0,0.3,0.3
				C88.3,190.6,87.6,190.6,86.9,191z"/>
			<path class="st116" d="M79.2,183.7L79.2,183.7c0,0,0,0,0-0.3C79.2,183.7,79.2,183.7,79.2,183.7z"/>
			<path class="st115" d="M80.6,186.4c0,0,0.3-0.3,0.3-0.7s-0.3-0.3-0.7-0.3c-0.3-0.3-0.7-0.3-1-0.7c-0.3-0.3,0-0.3,0-1
				c0,0,0,0,0-0.3c0-0.3-0.3-0.7-0.7-0.7c-0.3,0-1,0-1-0.7c0.3-0.3,0.7-0.7,1-1.4c0.3-1.4-1-1-1.4-1.7c0-0.3,0.7-1.4,1-1.7
				c0.3,0.3,0,1,0.3,1.4c0.3,0,0.7,0,1,0.3c0.7,0.7,0,1.7-0.3,3.1c-0.3,0.7,0.3,0.7,0.3,1c0.3,0.3,0,0.7,0,1c0,1,2.1,0.3,1.4,1.7
				c0,0.3,0,0.3,0,0.7H80.6L80.6,186.4z"/>
			<path class="st115" d="M78.9,176c-0.3,0-0.3-0.7-0.3-1c0.3-0.7,1-1,0-1.4c0.3-0.3,0.7-0.3,1-0.7h-0.3h-0.3h-0.3
				c-0.3,0-0.7,0-0.7-0.3c0.3-0.3,1,0,1.4-0.3c-0.3-0.3-0.7-0.3-1-0.7c0.3-0.3,0.7-0.3,1.4-0.3c0.3,0,1,0,1.4,0c0.3,0.3,1,0.3,1,0.3
				h0.3l0.3,0.3c0,0.3-0.3,0.3-1,0.3c-0.3,0-0.7,0-1,0c-0.3,0-0.7,0-0.7,0h-0.3c0.3,0,0.7,0.3,0.7,0.7c-0.3,0-0.3,0-0.7,0
				c0,0.3,0.7,0.3,0.7,0.7c0,0.3-0.3,0.3-0.7,0.7c-0.3,0.3,0,1-0.7,1.4C78.9,176,78.9,176,78.9,176z"/>
			<path class="st117" d="M79.6,172.5c-0.7,1.4-1,2.4-1,2.4s1.4,1.7,1.4,2.1c2.1,2.1,7,1,11.1-2.8c4.5-3.5,6.3-8.4,4.5-10.4
				c0-0.3-1.7-2.1-1.7-2.1s-1,0.3-2.8,0.7L79.6,172.5z"/>
			<path class="st118" d="M77.8,173.9c0,0.3,0.3,0.7,0.7,1c1.7,2.1,6.6,1,11.1-2.8c4.2-3.5,5.9-8.4,4.2-10.4
				c-0.3-0.3-0.3-0.3-0.7-0.7L77.8,173.9z"/>
			<path class="st119" d="M82,170.4l-3.5,2.8l0,0C78.9,173.2,80.6,171.8,82,170.4z"/>
			<path class="st119" d="M92.1,161.7l-8.4,7.3c-1,1-4.9,4.9-4.5,5.2c0,0.7,2.8,1.4,3.1,0.7c0.7-0.7,2.1-6.3,2.1-6.3
				c0.3-0.3-1.7,5.6-1,5.9c0.7,0.7,2.8-0.3,3.1-1.4c0.3-0.7-1-4.9-0.7-4.9c0,0,0.7,4.5,1.4,4.5c0.7,0.3,1.4-0.3,2.1-1
				c0.7-0.7,1.7-1.7,1.7-2.1c-0.3-0.7-4.2-2.1-4.2-2.1s4.9,1,5.6,0.3s1.4-2.8,1-3.5c-0.7-0.3-7,2.8-7,2.4c0,0,6.6-2.4,7-3.1
				c0-0.7-0.3-1.4-0.7-1.4C92.4,162.1,92.4,161.7,92.1,161.7z"/>
			<path class="st117" d="M82,178.4c-1.7,0.7-2.8,1.4-2.8,1.4s0.3,2.1,0.3,2.4c0.3,2.8,4.9,4.9,10.4,4.5c5.6-0.7,10.1-3.5,9.7-6.3
				c0-0.3-0.3-2.4-0.3-2.4s-1-0.7-2.4-1L82,178.4z"/>
			<path class="st118" d="M79.6,178.8c-0.3,0.3-0.3,0.7-0.3,1c0.3,2.8,5.2,4.5,10.8,4.2c5.6-0.3,9.7-3.1,9.4-5.9c0-0.3,0-1,0-1
				L79.6,178.8z"/>
			<path class="st119" d="M84.8,178.1l-4.5,0.3l0,0C80.6,178.8,82.7,178.4,84.8,178.1z"/>
			<path class="st119" d="M98,177l-10.8,1c-1.4,0.3-7,1-7,1.4c-0.3,0.7,1.4,2.8,2.4,2.4c0.7,0,5.2-3.8,5.2-3.8
				c0.3,0-4.9,3.5-4.5,4.5c0.3,0.7,2.8,1,3.5,0.7c0.7-0.7,2.1-4.9,2.4-4.5c0,0-2.1,3.8-1.7,4.5c0.7,0.7,1.4,0.3,2.4,0.3
				c1-0.3,2.4-0.3,2.8-1c0-0.3-2.4-3.8-2.4-3.8s3.5,3.5,4.5,3.5c0.7,0,2.8-1.7,2.4-2.1c0-0.7-7-2.1-6.6-2.1c0,0,6.6,1.7,7.3,1.4
				c0.3-0.3,0.3-1.4,0.3-1.7C98.4,177.4,98.4,177,98,177z"/>
			<path class="st117" d="M98,157.9c-1.4,0.7-2.4,1-2.4,1s0,2.4,0,2.8c0,2.8,4.5,5.2,10.1,4.9c5.6,0,10.1-2.4,10.1-5.2
				c0-0.3,0-2.4,0-2.4s-1-0.7-2.4-1H98z"/>
			<path class="st118" d="M95.6,157.9c0,0.3,0,0.7,0,1c0,3.1,4.5,5.2,10.1,5.2c5.6,0,10.1-2.4,10.1-5.2c0-0.3,0-1-0.3-1.4
				L95.6,157.9z"/>
			<path class="st119" d="M101.2,157.9h-4.5l0,0C97,158.2,99.1,157.9,101.2,157.9z"/>
			<path class="st119" d="M114.4,157.9h-10.8c-1.7,0.3-7,0.7-7.3,1c-0.3,0.7,1.4,2.8,2.1,2.8c1-0.3,5.9-3.8,5.9-3.5
				c0.3,0-5.2,3.1-4.9,3.8c0.3,1,2.4,1.4,3.5,1c0.7-0.3,2.4-4.5,2.8-4.5c0,0-2.4,4.2-2.1,4.5c0.3,0.7,1.4,0.7,2.1,0.7
				c1,0,2.8-0.3,2.8-0.7c0.3-0.7-1.7-4.2-1.7-4.2s3.1,3.8,3.8,3.8c1,0,3.1-1.4,3.1-2.1c-0.3-0.7-7-2.4-7-2.4c0.3,0,7,2.1,7.3,1.7
				c0.7,0,0.7-1,0.7-1.4S114.4,157.9,114.4,157.9z"/>
			<path class="st117" d="M116.8,168.7c-1,1.4-1.7,2.4-1.7,2.4s1.4,1.7,1.4,2.1c1.7,2.4,6.6,2.1,11.5-1s7.3-7.3,5.9-9.7
				c-0.3-0.3-1.4-2.4-1.4-2.4s-1.4,0.3-2.8,0.7L116.8,168.7z"/>
			<path class="st118" d="M114.7,170.1c0,0.3,0.3,0.7,0.3,1c1.7,2.4,6.6,1.7,11.5-1c4.9-3.1,7.3-7.7,5.9-10.1
				c-0.3-0.3-0.7-0.3-1-0.7L114.7,170.1z"/>
			<path class="st119" d="M119.3,167.3l-3.8,2.1l0,0C115.8,169.4,117.9,168.3,119.3,167.3z"/>
			<path class="st119" d="M130.7,160l-9.4,5.9c-1,1-5.6,4.2-5.2,4.5c0,0.7,2.4,1.7,3.1,1c0.3-0.3,2.8-5.9,2.8-5.9
				c0.3,0-2.4,5.2-1.7,5.9c0.7,0.7,2.8,0,3.1-0.7c0.3-0.7,0-5.2,0-5.2c0.3,0,0.3,4.5,1,4.9c0.7,0,1-0.3,1.7-0.7
				c1-0.7,2.4-1.7,2.1-2.1c0-0.7-3.8-2.8-3.8-2.8s4.5,1.7,5.6,1c0.7-0.3,1.7-2.4,1.4-3.1c-0.3-0.3-7,1.7-7,1.4c0,0,6.6-1.4,7-2.1
				c0.3-0.3,0-1.4-0.3-1.7L130.7,160z"/>
			<path class="st120" d="M143.3,179.1c1,3.8-60.9,17.1-61.6,13.2c-1-3.8,1.7-26.8,25.4-31.3C129.4,156.9,142.6,175.3,143.3,179.1z"
				/>
			<path class="st121" d="M128.7,164.2c-1.7,6.3-6.3,12.5-10.4,15.3c-10.1,7-24.4,9.7-36.6,7.3c-0.3,2.8-0.3,4.5,0,5.6
				c0.7,3.8,62.7-9.4,61.6-13.2C142.9,176.7,137.7,169,128.7,164.2z"/>
			<path class="st122" d="M125.9,165.2c0,2.4-4.9,13.2-17.4,17.8c-8.7,3.5-22.3,4.2-22.3,2.1c0-2.4,0.7-13.9,13.6-20.9
				C106,160.7,125.9,162.8,125.9,165.2z"/>
		</g>
	</g>
</g>
</svg>
