<?xml version="1.0" encoding="UTF-8"?>
<!DOCTYPE svg PUBLIC "-//W3C//DTD SVG 1.0//EN" "http://www.w3.org/TR/2001/REC-SVG-20010904/DTD/svg10.dtd">
<!-- Creator: CorelDRAW X7 -->
<svg xmlns="http://www.w3.org/2000/svg" xml:space="preserve" width="0.833331in" height="0.399992in" version="1.0" shape-rendering="geometricPrecision" text-rendering="geometricPrecision" image-rendering="optimizeQuality" fill-rule="evenodd" clip-rule="evenodd"
viewBox="0 0 833 400"
 xmlns:xlink="http://www.w3.org/1999/xlink">
 <g id="Layer_x0020_1">
  <metadata id="CorelCorpID_0Corel-Layer"/>
  <g id="_2432180069792">
   <g>
    <path fill="#FEFEFE" fill-rule="nonzero" d="M250 300c0,-8 -6,-14 -14,-14l-222 0c-8,0 -14,6 -14,14l0 59 250 0 0 -59z"/>
    <path fill="#E9E9E9" fill-rule="nonzero" d="M0 359l0 7c0,6 2,12 8,15 3,2 6,3 12,3 1,0 1,0 1,0l208 0c0,0 0,0 1,0 5,0 9,-1 12,-3 6,-3 8,-9 8,-15l0 -7 -250 0z"/>
    <path fill="#CFCECF" fill-rule="nonzero" d="M244 349c0,-2 -2,-5 -5,-5l-228 0c-3,0 -5,3 -5,5l0 10 238 0 0 -10z"/>
    <path fill="#BBBBBC" fill-rule="nonzero" d="M10 378c1,1 2,1 4,1 0,0 0,0 0,0l221 0c1,0 1,0 1,0 2,0 3,0 4,-1 2,-1 3,-3 3,-5l1 -14 -238 0 1 14c0,2 1,4 3,5z"/>
    <path fill="#8C8A8A" fill-rule="nonzero" d="M242 363c0,1 0,1 -1,1l-232 0c-1,0 -1,0 -1,-1l0 0c0,0 0,-1 1,-1l232 0c1,0 1,1 1,1l0 0z"/>
    <path fill="#8C8A8A" fill-rule="nonzero" d="M241 367c0,1 -1,1 -1,1l-230 0c0,0 -1,0 -1,-1l0 0c0,0 1,-1 1,-1l230 0c0,0 1,1 1,1l0 0z"/>
    <path fill="#8C8A8A" fill-rule="nonzero" d="M240 371c0,1 -1,1 -1,1l-228 0c0,0 -1,0 -1,-1l0 0c0,0 1,-1 1,-1l228 0c0,0 1,1 1,1l0 0z"/>
    <path fill="#8C8A8A" fill-rule="nonzero" d="M239 376c0,0 0,1 -1,1l-226 0c-1,0 -1,-1 -1,-1l0 0c0,-1 0,-1 1,-1l226 0c1,0 1,0 1,1l0 0z"/>
    <path fill="#CFCECF" fill-rule="nonzero" d="M159 337c0,2 -1,3 -3,3l-62 0c-2,0 -3,-1 -3,-3l0 0c0,-2 1,-3 3,-3l62 0c2,0 3,1 3,3l0 0z"/>
    <path fill="#90B2C0" fill-rule="nonzero" d="M239 312l-2 -1 1 0c0,0 1,-1 1,-1 -1,0 -1,0 -1,0 0,0 0,0 0,0l-1 1 -1 -1 2 0c0,0 0,-1 0,-1 0,0 0,0 -1,0 0,0 0,0 0,0l-2 1 -3 -2 2 0c0,0 0,-1 0,-1 0,0 0,0 0,0l-3 0 4 -2 2 1c0,0 0,0 0,0 0,0 0,0 0,-1l0 0c0,0 0,0 0,0 0,0 0,0 0,0l-2 0 1 -1 2 1c0,0 0,0 0,0l0 0c0,0 0,-1 0,-1 0,0 0,0 0,0 0,0 0,0 0,0l-1 0 1 -1c0,0 0,0 0,0l0 0c0,-1 0,-1 0,-1 0,0 0,0 0,0l-2 1 1 -1c0,0 0,0 -1,0 0,0 0,0 0,0 0,0 0,0 0,0l0 2 -1 0 0 -1c0,-1 0,-1 0,-1 0,0 0,0 0,0 0,0 0,0 0,0l-1 3 -3 2 1 -2c0,-1 0,-1 0,-1 0,0 0,0 0,0 0,0 0,0 0,0 0,0 0,0 0,0l-1 3 0 -5 1 -1c0,0 0,0 0,0 0,0 0,0 0,0 0,0 0,0 0,0l-1 1 0 -1 1 -1c0,0 0,0 0,-1 0,0 0,0 0,0 0,0 0,0 0,0 0,0 0,0 0,0l-1 1 0 -2c0,0 0,0 -1,0l0 0c0,0 0,0 0,0l0 2 -1 -1c0,0 0,0 0,0 0,0 0,0 0,0 0,0 0,1 0,1l1 1 0 1 -1 -1c0,-1 0,-1 0,-1 0,0 0,0 0,1 -1,0 -1,0 0,0l1 2 0 4 -1 -3c0,0 0,0 0,0 0,0 0,0 0,0l0 0c0,0 0,0 0,0 0,1 0,1 0,1l1 2 -3 -2 -1 -2c0,0 0,0 0,0 0,0 0,0 0,0 0,0 0,0 0,0l0 2 -1 -1 0 -1c0,0 0,0 0,0 0,0 0,0 0,0 -1,0 -1,0 -1,0 0,0 0,0 0,0l1 1 -2 -1c0,0 0,0 0,0 0,0 0,0 0,0 0,0 0,0 0,0 0,0 0,0 0,0l1 1 -1 1c0,0 0,0 0,0 0,0 0,0 0,0l0 0c0,0 0,0 0,0l0 0 2 0 1 0 -2 1c0,0 0,0 0,0 0,0 0,0 0,0l0 0c0,0 0,0 0,0l2 -1 4 2 -3 0c0,0 0,1 0,1 0,0 0,0 0,0l0 0 3 0 -4 2 -2 0c0,0 0,0 0,0 0,0 0,0 0,0 0,0 0,0 0,0l2 0 -1 1 -2 0c0,0 0,0 0,0 0,0 0,0 0,0 0,0 0,0 0,0 0,0 0,0 0,0l1 0 -1 1c0,0 0,1 0,1 0,0 0,0 0,0 0,0 0,0 0,0l1 -1 0 1c0,0 0,0 0,0 0,0 0,0 0,0 0,0 0,0 0,0 1,0 1,0 1,0l0 -2 1 0 0 2c0,0 0,0 0,0 0,0 0,0 0,0l0 0c0,0 0,0 0,0 0,0 0,0 0,0l0 -2 4 -3 -1 3c0,0 0,0 0,0 0,0 0,0 0,0l0 0c0,0 0,0 0,0l0 0c0,0 0,0 0,0l1 -3 0 4 -1 2c0,0 0,0 0,0 0,0 0,0 0,0 0,0 0,0 0,0l1 -1 0 1 -1 1c0,0 0,0 0,0 0,0 0,1 0,1 1,0 1,-1 1,-1l0 0 0 1c0,1 1,1 1,1l0 0c0,0 0,0 0,-1l0 -1 1 0c0,1 0,1 0,1l0 0c0,0 0,0 0,-1 0,0 0,0 0,0 0,0 0,0 0,0l-1 -1 0 -1 1 1c0,0 0,0 0,0l0 0c0,0 1,0 1,0 0,0 0,0 0,0 0,0 0,0 0,0l-2 -2 0 -4 1 3c0,0 0,0 0,0 1,0 1,0 1,0 0,0 0,-1 0,-1l-2 -2 4 2 0 2c0,0 1,1 1,1l0 0c0,0 0,0 0,0l0 0c0,-1 0,-1 0,-1 0,0 0,0 0,0l0 -1 0 0 1 2c0,0 0,0 0,0l0 0c0,0 0,0 0,0l0 0c0,0 0,0 0,0 0,0 0,-1 0,-1l0 -1 1 1c1,0 1,0 1,0l0 0c0,0 0,0 0,0 0,0 0,0 0,0 0,0 0,0 0,0z"/>
    <path fill="#BBD6E3" fill-rule="nonzero" d="M44 313c0,1 -1,3 -3,3l-25 0c-2,0 -4,-2 -4,-3l0 -10c0,-2 2,-3 4,-3l25 0c2,0 3,1 3,3l0 10z"/>
    <path fill="#8C8A8A" fill-rule="nonzero" d="M44 303c0,-2 -1,-3 -3,-3l-25 0c-2,0 -3,1 -3,3l0 10c0,1 1,2 3,2l25 0c2,0 3,-1 3,-2l0 -10zm-3 13l-25 0c-1,0 -1,0 -2,0 0,0 -1,0 -1,-1 0,0 -1,0 -1,-1 0,0 0,-1 0,-1l0 -10c0,-1 0,-1 0,-2 0,0 1,0 1,-1 0,0 1,0 1,0 1,-1 1,-1 2,-1l25 0c0,0 1,0 1,1 1,0 1,0 2,0 0,1 0,1 0,1 1,1 1,1 1,2l0 10c0,0 0,1 -1,1 0,1 0,1 0,1 -1,1 -1,1 -2,1 0,0 -1,0 -1,0z"/>
    <path fill="#FEFEFE" fill-rule="nonzero" d="M16 309l0 -1 0 -2 0 -1 0 4zm0 -4l0 0 0 -2 0 -1 0 3z"/>
    <path fill="#FEFEFE" fill-rule="nonzero" d="M22 308l0 0 -1 0 0 -2 1 -1 0 3zm0 -3l-1 0 0 -2 1 -1 0 1 0 2zm0 -3l-1 1 -2 0 -1 -1 1 0 2 0 1 0zm0 3l-1 1 -2 0 -1 -1 1 0 2 0 1 0zm0 3l-1 1 -3 0 1 -1 2 0 1 0zm-3 -3l-1 0 0 -2 0 -1 1 1 0 2z"/>
    <path fill="#FEFEFE" fill-rule="nonzero" d="M26 309l-1 0 -1 -1 1 0 1 0 0 1zm0 -4l0 1 -1 0 -1 -1 1 0 1 0zm-1 3l-1 0 0 0 0 -1 1 0 0 1zm0 -1l-1 0 0 -1 0 -1 1 1 0 1z"/>
    <path fill="#FEFEFE" fill-rule="nonzero" d="M24 304c-1,0 -1,1 -1,1 0,0 0,0 1,0 0,0 0,0 0,0 0,0 0,-1 0,-1zm0 1c-1,0 -1,0 -1,0 0,-1 0,-1 1,-1 0,0 0,0 0,1 0,0 0,0 0,0z"/>
    <path fill="#FEFEFE" fill-rule="nonzero" d="M43 310c0,0 0,0 0,0l-29 0c0,0 -1,0 -1,0l0 0c0,-1 1,-1 1,-1l29 0c0,0 0,0 0,1l0 0z"/>
    <path fill="#FEFEFE" fill-rule="nonzero" d="M37 305c0,0 0,0 0,0 0,0 0,0 0,0 0,0 1,0 1,0 0,0 0,0 0,0 1,-1 1,-1 0,-1 0,0 0,0 0,0 -1,0 -1,0 -1,1 0,0 0,0 0,0 0,0 0,0 0,0 0,0 0,-1 0,-1 0,0 0,0 0,0 0,0 -1,0 -1,0 0,0 0,0 0,1 0,0 1,0 1,0 0,0 0,0 0,0 0,0 0,0 0,0 0,0 0,0 0,0 0,0 -1,0 -1,0 0,0 0,0 0,1 0,0 0,0 1,0 0,0 0,-1 0,-1 0,0 0,0 0,0 0,0 0,0 0,0 0,0 1,0 0,0 0,0 0,1 1,1 0,0 0,0 0,0 0,0 0,-1 0,-1 0,0 0,0 -1,0z"/>
    <polygon fill="#FEFEFE" fill-rule="nonzero" points="37,309 38,309 38,307 37,307 "/>
    <polygon fill="#FEFEFE" fill-rule="nonzero" points="38,309 38,309 38,306 38,306 "/>
    <polygon fill="#FEFEFE" fill-rule="nonzero" points="39,309 39,309 39,306 39,306 "/>
    <polygon fill="#FEFEFE" fill-rule="nonzero" points="40,309 40,309 40,305 40,305 "/>
    <polygon fill="#FEFEFE" fill-rule="nonzero" points="41,309 41,309 41,304 41,304 "/>
    <path fill="#FEFEFE" fill-rule="nonzero" d="M30 309l-2 0 0 0 0 -1 1 0 1 1zm0 -3l-1 1 -1 0 0 0 0 -1 2 0zm-2 2l0 1 0 -1 0 0 0 0 0 0zm0 -1l0 1 0 -1 0 0 0 0 0 0z"/>
    <path fill="#FEFEFE" fill-rule="nonzero" d="M32 308l0 1 -1 -1 0 0 1 0 0 0zm0 0l-1 -1 0 0 1 0 0 0 0 1zm-1 1l0 0 -1 0 0 0 0 -1 1 0 0 1zm0 -2l0 0 -1 0 0 0 0 -1 1 0 0 1zm-1 1l0 1 0 -1 0 0 0 0 0 0zm0 -1l0 1 0 -1 0 0 0 0 0 0z"/>
    <path fill="#FEFEFE" fill-rule="nonzero" d="M34 308l0 1 0 -1 0 0 0 0 0 0zm0 0l0 -1 0 0 0 0 0 0 0 1zm0 1l-1 0 0 0 -1 0 1 -1 0 0 1 1zm0 -2l-1 0 0 0 -1 0 1 -1 0 0 1 1zm-2 1l0 1 0 -1 0 0 0 0 0 0zm0 -1l0 1 0 -1 0 0 0 0 0 0z"/>
    <path fill="#FEFEFE" fill-rule="nonzero" d="M36 309l-2 0 1 -1 1 0 0 1zm-1 -1l-1 1 0 -1 1 0 0 0zm0 -1l-1 1 0 -2 1 1 0 0z"/>
    <polygon fill="#FEFEFE" fill-rule="nonzero" points="27,310 27,310 27,301 27,301 "/>
    <path fill="#FEFEFE" fill-rule="nonzero" d="M33 314l0 0 0 -1 0 0 0 1zm0 -1l0 -1 0 0 0 -1 0 2z"/>
    <path fill="#FEFEFE" fill-rule="nonzero" d="M36 314l0 0 0 0 0 -1 0 0 0 1zm0 -1l0 -1 0 0 0 -1 0 1 0 1zm0 -2l0 1 -1 0 0 -1 0 0 1 0 0 0zm0 2l0 0 -1 0 -1 0 1 -1 1 0 0 1zm0 1l0 0 -2 0 1 0 1 0 0 0zm-1 -2l-1 1 0 -1 1 -1 0 1 0 0z"/>
    <path fill="#FEFEFE" fill-rule="nonzero" d="M37 314l-1 0 0 -1 1 0 0 1zm0 -1l-1 0 0 -1 1 0 0 1z"/>
    <path fill="#FEFEFE" fill-rule="nonzero" d="M39 314l0 0 -1 0 0 -1 1 0 0 1zm0 -1l-1 -1 0 0 1 -1 0 1 0 1zm0 0l-1 0 -1 0 0 0 0 -1 1 0 1 1zm0 1l-1 0 -1 0 0 0 1 0 1 0zm0 -3l-1 1 -1 0 0 -1 1 0 1 0z"/>
    <path fill="#FEFEFE" fill-rule="nonzero" d="M41 314l0 0 0 0 0 -1 0 0 0 1zm0 0l0 0 -1 0 0 0 0 0 1 0 0 0zm0 -3l0 1 -1 0 0 -1 0 0 1 0zm0 2l0 0 -1 0 -1 0 1 -1 1 0 0 1zm-1 1l0 0 -1 0 0 -1 1 0 0 1zm0 -2l-1 1 0 -1 1 -1 0 1 0 0z"/>
    <path fill="#FEFEFE" fill-rule="nonzero" d="M18 312c0,0 -1,0 -1,0 0,0 -1,0 -1,0 0,-1 1,-2 1,-2 0,0 1,1 1,2z"/>
    <path fill="#FEFEFE" fill-rule="nonzero" d="M16 313l0 0c0,0 0,-1 1,0 0,0 0,0 0,0 1,0 1,0 2,0l0 0c0,0 -1,0 -1,0 0,0 0,0 -1,0 0,0 0,0 0,0 -1,0 -1,0 -1,0z"/>
    <path fill="#FEFEFE" fill-rule="nonzero" d="M16 314l0 0c0,0 0,-1 1,-1 0,0 0,0 0,1 1,0 1,0 2,0l0 0c0,0 -1,0 -1,0 0,0 0,0 -1,0 0,0 0,0 0,0 -1,-1 -1,0 -1,0z"/>
    <path fill="#FEFEFE" fill-rule="nonzero" d="M16 315l0 0c0,0 0,-1 1,-1 0,0 0,0 0,0 1,0 1,1 2,0l0 1c0,0 -1,0 -1,0 0,0 0,0 -1,0 0,-1 0,-1 0,-1 -1,0 -1,1 -1,1z"/>
    <path fill="#FEFEFE" fill-rule="nonzero" d="M22 313l0 0 0 -1 0 0 0 0 0 1zm0 1l-1 0 -1 0 1 0 1 0 0 0zm0 -1l-1 0 0 0 -1 0 1 0 0 0 1 0zm-2 1l0 0 0 0 0 -1 0 0 0 1zm2 -2l-1 0 -1 0 1 0 0 0 1 0z"/>
    <path fill="#FEFEFE" fill-rule="nonzero" d="M24 314l0 0 0 0 0 -1 0 0 0 1zm0 -1l0 0 0 -1 0 0 0 0 0 1zm0 1l0 0 -1 0 0 0 0 0 1 0 0 0zm0 -2l0 0 -1 0 0 0 0 0 1 0 0 0zm0 1l0 0 -1 0 -1 0 1 0 1 0 0 0zm-1 1l-1 0 0 0 0 -1 1 0 0 1zm0 -1l-1 0 0 -1 0 0 1 0 0 1z"/>
    <path fill="#FEFEFE" fill-rule="nonzero" d="M255 258c0,5 -4,10 -10,10l-160 0c-5,0 -10,-5 -10,-10l0 -106c0,-5 5,-9 10,-9l160 0c6,0 10,4 10,9l0 106z"/>
    <path fill="#2F2F2F" fill-rule="nonzero" d="M93 205c0,27 21,49 48,49 27,0 49,-22 49,-49 0,-27 -22,-48 -49,-48 -27,0 -48,21 -48,48z"/>
    <path fill="#616262" fill-rule="nonzero" d="M138 204c0,0 -4,-7 -8,-14 -4,-7 -10,-23 1,-24 11,-2 27,2 32,12 6,10 -8,24 -16,27 -9,3 -9,-1 -9,-1z"/>
    <path fill="#616262" fill-rule="nonzero" d="M143 209c0,0 8,-3 15,-6 8,-2 24,-6 24,6 0,11 -6,26 -17,29 -11,4 -22,-12 -24,-21 -2,-9 2,-8 2,-8z"/>
    <path fill="#616262" fill-rule="nonzero" d="M138 211c0,0 -5,7 -9,13 -5,7 -16,19 -22,10 -7,-9 -11,-24 -4,-34 7,-9 25,-3 32,3 7,6 3,8 3,8z"/>
    <path fill="#616262" fill-rule="nonzero" d="M146 208c0,3 -3,5 -6,5 -3,0 -5,-2 -5,-5 0,-3 2,-6 5,-6 3,0 6,3 6,6z"/>
    <path fill="#454545" fill-rule="nonzero" d="M143 208c0,1 -1,3 -3,3 -2,0 -3,-2 -3,-3 0,-2 1,-3 3,-3 2,0 3,1 3,3z"/>
    <path fill="#DFE0DF" fill-rule="nonzero" d="M86 149c-2,0 -3,1 -3,3l0 107c0,2 1,3 3,3l109 0c1,0 2,-1 2,-3l0 -107c0,-2 -1,-3 -2,-3l-109 0zm109 114l-109 0c-2,0 -4,-2 -4,-4l0 -107c0,-1 1,-2 1,-3 1,0 2,-1 3,-1l109 0c2,0 3,2 3,4l0 107c0,1 0,2 -1,3 0,0 -1,1 -2,1z"/>
    <polygon fill="#FEFEFE" fill-rule="nonzero" points="105,244 106,244 106,163 105,163 "/>
    <polygon fill="#FEFEFE" fill-rule="nonzero" points="128,256 130,256 130,155 128,155 "/>
    <polygon fill="#FEFEFE" fill-rule="nonzero" points="152,256 154,256 154,155 152,155 "/>
    <polygon fill="#FEFEFE" fill-rule="nonzero" points="175,246 177,246 177,165 175,165 "/>
    <polygon fill="#FEFEFE" fill-rule="nonzero" points="103,161 178,161 178,160 103,160 "/>
    <polygon fill="#FEFEFE" fill-rule="nonzero" points="103,164 178,164 178,164 103,164 "/>
    <polygon fill="#FEFEFE" fill-rule="nonzero" points="103,168 178,168 178,167 103,167 "/>
    <polygon fill="#FEFEFE" fill-rule="nonzero" points="103,172 178,172 178,171 103,171 "/>
    <polygon fill="#FEFEFE" fill-rule="nonzero" points="95,176 186,176 186,175 95,175 "/>
    <polygon fill="#FEFEFE" fill-rule="nonzero" points="95,179 186,179 186,179 95,179 "/>
    <polygon fill="#FEFEFE" fill-rule="nonzero" points="88,183 193,183 193,182 88,182 "/>
    <polygon fill="#FEFEFE" fill-rule="nonzero" points="88,187 193,187 193,186 88,186 "/>
    <polygon fill="#FEFEFE" fill-rule="nonzero" points="88,190 193,190 193,190 88,190 "/>
    <polygon fill="#FEFEFE" fill-rule="nonzero" points="88,194 193,194 193,193 88,193 "/>
    <polygon fill="#FEFEFE" fill-rule="nonzero" points="102,250 177,250 177,249 102,249 "/>
    <polygon fill="#FEFEFE" fill-rule="nonzero" points="102,246 177,246 177,246 102,246 "/>
    <polygon fill="#FEFEFE" fill-rule="nonzero" points="102,243 177,243 177,242 102,242 "/>
    <polygon fill="#FEFEFE" fill-rule="nonzero" points="102,239 177,239 177,238 102,238 "/>
    <polygon fill="#FEFEFE" fill-rule="nonzero" points="94,235 185,235 185,235 94,235 "/>
    <polygon fill="#FEFEFE" fill-rule="nonzero" points="94,232 185,232 185,231 94,231 "/>
    <polygon fill="#FEFEFE" fill-rule="nonzero" points="87,228 192,228 192,227 87,227 "/>
    <polygon fill="#FEFEFE" fill-rule="nonzero" points="87,224 192,224 192,223 87,223 "/>
    <polygon fill="#FEFEFE" fill-rule="nonzero" points="87,221 192,221 192,220 87,220 "/>
    <polygon fill="#FEFEFE" fill-rule="nonzero" points="87,217 192,217 192,216 87,216 "/>
    <polygon fill="#FEFEFE" fill-rule="nonzero" points="89,206 194,206 194,205 89,205 "/>
    <polygon fill="#FEFEFE" fill-rule="nonzero" points="89,210 194,210 194,209 89,209 "/>
    <polygon fill="#FEFEFE" fill-rule="nonzero" points="89,213 194,213 194,213 89,213 "/>
    <polygon fill="#FEFEFE" fill-rule="nonzero" points="87,198 192,198 192,197 87,197 "/>
    <polygon fill="#FEFEFE" fill-rule="nonzero" points="87,202 192,202 192,201 87,201 "/>
    <polygon fill="#FEFEFE" fill-rule="nonzero" points="93,273 118,273 118,265 93,265 "/>
    <polygon fill="#FEFEFE" fill-rule="nonzero" points="212,273 238,273 238,265 212,265 "/>
    <path fill="#DFE0DF" fill-rule="nonzero" d="M247 173c0,1 -1,2 -2,2l-38 0c-2,0 -2,-1 -2,-2l0 0c0,-2 0,-3 2,-3l38 0c1,0 2,1 2,3l0 0z"/>
    <path fill="#DFE0DF" fill-rule="nonzero" d="M247 193c0,1 -1,2 -2,2l-38 0c-2,0 -2,-1 -2,-2l0 0c0,-1 0,-2 2,-2l38 0c1,0 2,1 2,2l0 0z"/>
    <path fill="#DFE0DF" fill-rule="nonzero" d="M247 214c0,1 -1,2 -2,2l-38 0c-2,0 -2,-1 -2,-2l0 0c0,-1 0,-2 2,-2l38 0c1,0 2,1 2,2l0 0z"/>
    <path fill="#DFE0DF" fill-rule="nonzero" d="M247 235c0,1 -1,2 -2,2l-38 0c-2,0 -2,-1 -2,-2l0 0c0,-1 0,-2 2,-2l38 0c1,0 2,1 2,2l0 0z"/>
    <path fill="#DFE0DF" fill-rule="nonzero" d="M247 256c0,1 -1,2 -2,2l-38 0c-2,0 -2,-1 -2,-2l0 0c0,-1 0,-2 2,-2l38 0c1,0 2,1 2,2l0 0z"/>
    <path fill="#FEFEFE" fill-rule="nonzero" d="M45 258c0,3 -3,6 -7,6l-30 0c-4,0 -7,-3 -7,-6l0 -98c0,-3 3,-6 7,-6l30 0c4,0 7,3 7,6l0 98z"/>
    <polygon fill="#BBD6E3" fill-rule="nonzero" points="7,198 39,198 39,163 7,163 "/>
    <path fill="#8C8A8A" fill-rule="nonzero" d="M40 161l-34 0 0 39 34 0 0 -39zm-1 2l0 35 -32 0 0 -35 32 0z"/>
    <path fill="#C8CCD1" fill-rule="nonzero" d="M19 209c0,1 -2,3 -3,3l-8 0c-1,0 -2,-2 -2,-3l0 0c0,-2 1,-3 2,-3l8 0c1,0 3,1 3,3l0 0z"/>
    <path fill="#C8CCD1" fill-rule="nonzero" d="M40 209c0,2 -1,3 -2,3l-8 0c-1,0 -3,-1 -3,-3l0 0c0,-2 2,-3 3,-3l8 0c1,0 2,1 2,3l0 0z"/>
    <path fill="#C8CCD1" fill-rule="nonzero" d="M10 221c0,3 5,5 11,5l0 -10c-6,0 -11,2 -11,5z"/>
    <path fill="#C8CCD1" fill-rule="nonzero" d="M25 216l0 10c6,0 11,-2 11,-5 0,-3 -5,-5 -11,-5z"/>
    <path fill="#C8CCD1" fill-rule="nonzero" d="M17 232c0,1 -1,2 -2,2l-7 0c-1,0 -2,-1 -2,-2l0 0c0,-2 1,-3 2,-3l7 0c1,0 2,1 2,3l0 0z"/>
    <path fill="#C8CCD1" fill-rule="nonzero" d="M40 232c0,1 -1,2 -2,2l-7 0c-1,0 -2,-1 -2,-2l0 0c0,-2 1,-3 2,-3l7 0c1,0 2,1 2,3l0 0z"/>
    <path fill="#C8CCD1" fill-rule="nonzero" d="M17 239c0,2 -1,3 -2,3l-7 0c-1,0 -2,-1 -2,-3l0 0c0,-1 1,-2 2,-2l7 0c1,0 2,1 2,2l0 0z"/>
    <path fill="#C8CCD1" fill-rule="nonzero" d="M40 239c0,2 -1,3 -2,3l-7 0c-1,0 -2,-1 -2,-3l0 0c0,-1 1,-2 2,-2l7 0c1,0 2,1 2,2l0 0z"/>
    <path fill="#C8CCD1" fill-rule="nonzero" d="M14 249c0,0 -1,1 -1,1l-7 0c0,0 0,-1 0,-1l0 -2c0,-1 0,-1 0,-1l7 0c0,0 1,0 1,1l0 2z"/>
    <path fill="#C8CCD1" fill-rule="nonzero" d="M40 249c0,0 0,1 0,1l-7 0c0,0 -1,-1 -1,-1l0 -2c0,-1 1,-1 1,-1l7 0c0,0 0,0 0,1l0 2z"/>
    <path fill="#C8CCD1" fill-rule="nonzero" d="M27 249c0,0 0,1 0,1l-7 0c-1,0 -1,-1 -1,-1l0 -2c0,-1 0,-1 1,-1l7 0c0,0 0,0 0,1l0 2z"/>
    <path fill="#C8CCD1" fill-rule="nonzero" d="M14 258c0,0 -1,0 -1,0l-7 0c0,0 0,0 0,0l0 -3c0,0 0,0 0,0l7 0c0,0 1,0 1,0l0 3z"/>
    <path fill="#C8CCD1" fill-rule="nonzero" d="M40 258c0,0 0,0 0,0l-7 0c0,0 -1,0 -1,0l0 -3c0,0 1,0 1,0l7 0c0,0 0,0 0,0l0 3z"/>
    <path fill="#C8CCD1" fill-rule="nonzero" d="M27 258c0,0 0,0 0,0l-7 0c-1,0 -1,0 -1,0l0 -3c0,0 0,0 1,0l7 0c0,0 0,0 0,0l0 3z"/>
    <path fill="#FEFEFE" fill-rule="nonzero" d="M8 209c0,0 0,0 0,0 1,0 1,0 1,0 0,-1 0,-1 -1,-1 0,0 0,0 0,1zm1 0c0,0 0,1 -1,1 0,0 -1,-1 -1,-1 0,-1 1,-1 1,-1 1,0 1,0 1,1z"/>
    <path fill="#FEFEFE" fill-rule="nonzero" d="M9 210l0 -2 1 0 0 1c0,0 1,0 1,0l0 0c0,0 0,0 0,-1l0 0 0 0 0 2 0 0 -1 -1c0,0 0,0 0,-1l0 0c0,1 0,1 0,1l0 1 -1 0z"/>
    <polygon fill="#FEFEFE" fill-rule="nonzero" points="11,210 12,208 12,208 11,210 "/>
    <path fill="#FEFEFE" fill-rule="nonzero" d="M13 209c0,0 0,0 0,0 0,0 0,0 0,0 0,-1 0,-1 0,-1 0,0 0,0 0,1zm1 0c0,0 0,1 -1,1 -1,0 -1,-1 -1,-1 0,-1 0,-1 1,-1 1,0 1,0 1,1z"/>
    <polygon fill="#FEFEFE" fill-rule="nonzero" points="14,208 15,208 15,208 15,208 15,209 15,209 15,209 15,209 15,210 14,210 "/>
    <polygon fill="#FEFEFE" fill-rule="nonzero" points="16,208 17,208 17,208 16,208 16,209 17,209 17,209 16,209 16,210 16,210 "/>
    <path fill="#FEFEFE" fill-rule="nonzero" d="M32 209c0,0 0,0 0,-1l0 0c0,1 0,1 -1,1l0 1 0 0 0 -1c0,0 0,0 0,-1l0 0c0,1 0,1 0,1l0 1 -1 0 0 -2 1 0 0 1c0,0 0,0 0,0l0 0c0,0 0,0 0,0l0 -1 1 0 0 2 0 0 0 -1z"/>
    <path fill="#FEFEFE" fill-rule="nonzero" d="M33 209c0,0 0,0 0,0 1,0 1,0 1,0 0,0 0,-1 -1,-1 0,0 0,1 0,1zm1 0c0,0 0,1 -1,1 0,0 -1,-1 -1,-1 0,-1 1,-1 1,-1 1,0 1,0 1,1z"/>
    <path fill="#FEFEFE" fill-rule="nonzero" d="M35 209c0,0 0,0 0,0 0,0 1,0 1,0 0,-1 -1,-1 -1,-1 0,0 0,0 0,0l0 1zm-1 -1c1,0 1,0 1,0 0,0 1,0 1,0 0,0 0,0 0,1 0,0 0,0 0,1 0,0 -1,0 -1,0 0,0 0,0 -1,0l0 -2z"/>
    <polygon fill="#FEFEFE" fill-rule="nonzero" points="37,209 37,209 37,209 37,209 37,210 36,210 36,208 37,208 37,208 37,208 37,209 37,209 "/>
    <polygon fill="#FEFEFE" fill-rule="nonzero" points="18,221 18,223 16,222 14,221 16,220 18,219 "/>
    <polygon fill="#FEFEFE" fill-rule="nonzero" points="28,221 28,223 30,222 32,221 30,220 28,219 "/>
    <polygon fill="#FEFEFE" fill-rule="nonzero" points="9,231 10,231 10,231 9,231 9,231 10,231 10,232 9,232 9,233 9,233 "/>
    <path fill="#FEFEFE" fill-rule="nonzero" d="M11 232l0 -1c0,0 0,0 0,0l0 0c0,0 0,0 0,0l0 1 0 0zm-1 0l0 1 0 0 0 -2 1 0 1 2 -1 0 0 -1 -1 0z"/>
    <path fill="#FEFEFE" fill-rule="nonzero" d="M12 233l0 -2 0 0 1 0c0,1 0,1 0,1l0 0c0,0 0,-1 0,-1l0 0 0 0 0 2 0 0 0 -1c-1,0 -1,-1 -1,-1l0 0c0,0 0,1 0,1l0 1 0 0z"/>
    <path fill="#FEFEFE" fill-rule="nonzero" d="M8 240c0,0 0,0 1,0 0,0 0,0 0,0 0,0 0,0 0,0 -1,-1 -1,-1 -1,-1 0,0 0,0 1,0 0,0 0,0 0,0l0 0c0,0 0,0 0,0 0,0 -1,0 -1,0 0,0 1,0 1,0 0,0 0,1 0,1 0,0 0,0 0,0 -1,0 -1,0 -1,0l0 0z"/>
    <path fill="#FEFEFE" fill-rule="nonzero" d="M10 240l0 -1c0,0 0,0 0,0l0 0c0,0 0,0 0,0l0 1 0 0zm0 0l0 0 -1 0 1 -1 1 0 0 1 0 0 0 0 -1 0z"/>
    <path fill="#FEFEFE" fill-rule="nonzero" d="M12 240l-1 -1 0 0 1 0c0,1 0,1 0,1l0 0c0,0 0,0 0,-1l0 0 1 0 -1 1 0 0z"/>
    <polygon fill="#FEFEFE" fill-rule="nonzero" points="14,240 13,240 13,240 14,240 14,240 13,240 13,239 14,239 14,239 13,239 13,239 14,239 "/>
    <path fill="#FEFEFE" fill-rule="nonzero" d="M8 249l-1 0c0,-1 0,-1 0,-1l0 0c0,0 0,0 0,1l0 0 0 0 0 -1 0 -1 0 0 0 1c0,0 0,0 0,0l0 0c0,0 0,0 0,0l1 -1 0 0 -1 1 1 1 0 0z"/>
    <polygon fill="#FEFEFE" fill-rule="nonzero" points="8,248 9,248 9,248 8,248 "/>
    <polygon fill="#FEFEFE" fill-rule="nonzero" points="9,247 10,247 10,248 9,248 9,248 10,248 10,248 9,248 9,249 9,249 "/>
    <path fill="#FEFEFE" fill-rule="nonzero" d="M11 248l0 0c0,0 0,0 0,-1l0 0c0,1 0,1 0,1l-1 0 1 0zm-1 0l0 1 0 0 0 -2 1 0 0 2 0 0 0 -1 -1 0z"/>
    <path fill="#FEFEFE" fill-rule="nonzero" d="M12 249l0 -2 0 0 0 1c0,0 1,0 1,0l0 0c0,0 0,0 0,0l0 -1 0 0 0 2 0 0 -1 -1c0,0 0,0 0,0l0 0c0,0 0,0 0,0l0 1 0 0z"/>
    <polygon fill="#FEFEFE" fill-rule="nonzero" points="6,256 6,256 6,256 7,256 7,256 7,256 7,257 6,257 "/>
    <path fill="#FEFEFE" fill-rule="nonzero" d="M8 256l0 1c0,0 0,0 0,0 0,0 0,0 0,0l0 -1 1 0 0 1c0,0 -1,0 -1,0 -1,0 -1,0 -1,0l0 -1 1 0z"/>
    <path fill="#FEFEFE" fill-rule="nonzero" d="M9 256l0 0c1,0 1,0 1,0 0,0 0,0 -1,0 0,0 0,0 0,0l0 0zm0 0c0,0 0,0 0,0 1,0 1,0 1,0 0,0 0,0 0,0 0,0 0,1 0,1l0 0c0,0 0,0 0,0 0,0 0,0 0,0l0 0c0,0 0,0 0,0 0,0 0,0 -1,0l0 0 0 0 0 0 0 -1z"/>
    <path fill="#FEFEFE" fill-rule="nonzero" d="M11 257c0,0 0,0 0,0 0,0 0,0 0,0 0,0 0,0 0,0l0 0 0 0zm0 -1l0 0c0,0 0,0 0,0 0,0 0,0 0,0 0,0 0,0 0,0l0 0zm-1 0c0,0 1,0 1,0 0,0 0,0 0,0 0,0 1,0 1,0 0,0 -1,0 -1,0l0 0c0,1 1,1 1,1 0,0 0,0 -1,0 0,0 0,0 0,0 0,0 -1,0 -1,0l0 -1z"/>
    <path fill="#FEFEFE" fill-rule="nonzero" d="M12 257c0,0 0,0 1,0 0,0 0,0 0,0 0,-1 0,-1 0,-1 -1,0 -1,0 -1,1zm1 0c0,0 0,0 0,0 -1,0 -1,0 -1,0 0,-1 0,-1 1,-1 0,0 0,0 0,1z"/>
    <path fill="#FEFEFE" fill-rule="nonzero" d="M20 257c0,0 0,0 0,0 1,0 1,0 1,0 0,0 0,0 -1,0 0,0 0,-1 0,-1 0,0 0,0 1,0 0,0 0,0 0,0l0 0c0,0 0,0 0,0 -1,0 -1,0 -1,0 0,0 0,0 1,0 0,0 0,1 0,1 0,0 0,0 -1,0 0,0 0,0 0,0l0 0z"/>
    <polygon fill="#FEFEFE" fill-rule="nonzero" points="21,256 22,256 22,257 22,257 22,257 21,257 "/>
    <polygon fill="#FEFEFE" fill-rule="nonzero" points="23,257 23,257 23,257 24,257 24,257 23,257 23,256 24,256 24,256 23,256 23,256 23,256 "/>
    <polygon fill="#FEFEFE" fill-rule="nonzero" points="25,257 24,257 24,257 25,257 25,257 24,257 24,256 25,256 25,256 24,256 24,256 25,256 "/>
    <path fill="#FEFEFE" fill-rule="nonzero" d="M25 256c1,0 1,0 1,0 0,0 0,0 0,0 0,0 0,0 0,0 0,0 0,0 -1,0l0 0zm0 0c0,0 0,0 1,0 0,0 0,0 0,0 0,0 0,0 0,0 0,0 0,1 0,1 0,0 0,0 0,0 0,0 0,0 -1,0l0 0 0 0 0 -1z"/>
    <polygon fill="#FEFEFE" fill-rule="nonzero" points="21,248 20,248 20,247 21,247 21,248 21,248 21,249 21,249 "/>
    <polygon fill="#FEFEFE" fill-rule="nonzero" points="23,248 22,248 22,249 23,249 23,249 22,249 22,247 23,247 23,248 22,248 22,248 23,248 "/>
    <path fill="#FEFEFE" fill-rule="nonzero" d="M24 248c0,0 0,0 0,0l0 0c0,0 0,0 0,0l0 1 0 0 -1 -1c0,0 0,0 0,0l0 0c0,0 0,0 0,0l0 1 0 0 0 -2 0 0 1 1c0,0 0,0 0,0l0 0c0,0 0,0 0,0l0 -1 1 0 0 2 -1 0 0 -1z"/>
    <path fill="#FEFEFE" fill-rule="nonzero" d="M25 248c0,0 0,0 0,0 1,0 1,0 1,0 0,0 0,-1 -1,-1 0,0 0,0 0,0l0 1zm0 -1c0,0 0,0 0,0 1,0 1,0 1,0 0,0 0,1 0,1 0,0 0,0 0,0 0,0 0,0 -1,0 0,0 0,0 0,0l0 1 0 0 0 -2z"/>
    <polygon fill="#FEFEFE" fill-rule="nonzero" points="33,248 33,248 33,247 34,247 34,248 34,248 34,249 33,249 "/>
    <polygon fill="#FEFEFE" fill-rule="nonzero" points="34,249 35,249 35,247 34,247 "/>
    <path fill="#FEFEFE" fill-rule="nonzero" d="M37 248c0,0 -1,0 -1,0l0 0c0,0 0,0 0,0l0 1 0 0 0 -1c0,0 0,0 -1,0l0 0c0,0 0,0 0,0l0 1 0 0 0 -2 1 0 0 1c0,0 0,0 0,0l0 0c0,0 0,0 0,0l0 -1 1 0 0 2 0 0 0 -1z"/>
    <polygon fill="#FEFEFE" fill-rule="nonzero" points="38,248 38,248 38,249 38,249 38,249 37,249 37,247 38,247 38,248 38,248 38,248 38,248 "/>
    <path fill="#FEFEFE" fill-rule="nonzero" d="M39 248l0 0c0,0 0,0 0,0 0,0 0,-1 0,-1 0,0 0,0 0,0l0 1zm-1 -1c1,0 1,0 1,0 0,0 0,0 1,0 0,0 0,1 0,1 0,0 0,0 -1,0l0 0c0,0 1,0 1,0 0,1 0,1 0,1l-1 0c0,0 0,0 0,-1 0,0 0,0 0,0l0 0 0 1 -1 0 0 -2z"/>
    <polygon fill="#FEFEFE" fill-rule="nonzero" points="33,256 34,256 34,257 34,257 34,257 33,257 "/>
    <polygon fill="#FEFEFE" fill-rule="nonzero" points="35,257 35,257 35,256 35,256 "/>
    <path fill="#FEFEFE" fill-rule="nonzero" d="M37 257c0,0 -1,0 -1,0 0,0 0,0 0,0 -1,0 -1,0 -1,0 0,-1 1,-1 1,-1 0,0 1,0 1,0l0 0c0,0 -1,0 -1,0 0,0 0,0 0,1 0,0 0,0 0,0 0,0 0,0 0,0l0 0 0 0 0 -1 1 0 0 1z"/>
    <polygon fill="#FEFEFE" fill-rule="nonzero" points="37,256 37,256 38,256 38,256 38,256 38,257 38,257 38,257 37,257 37,257 37,257 37,256 "/>
    <polygon fill="#FEFEFE" fill-rule="nonzero" points="39,256 39,256 39,256 40,256 40,256 39,256 39,257 39,257 "/>
    <polygon fill="#FEFEFE" fill-rule="nonzero" points="35,231 35,232 36,232 36,232 35,232 35,233 35,233 35,232 34,232 34,232 35,232 35,231 "/>
    <polygon fill="#FEFEFE" fill-rule="nonzero" points="34,240 36,240 36,239 34,239 "/>
    <path fill="#FEFEFE" fill-rule="nonzero" d="M11 174l-1 -1 0 -3 1 0 0 4zm0 -5l-1 0 0 -3 1 -1 0 4z"/>
    <path fill="#FEFEFE" fill-rule="nonzero" d="M19 173l-1 0 0 0 0 -3 1 0 0 3zm0 -4l-1 0 0 -3 0 -1 1 1 0 3zm-1 -4l0 1 -4 0 0 -1 0 0 4 0 0 0zm1 4l-1 1 -4 0 -1 -1 1 0 4 0 1 0zm-1 5l0 0 -5 0 1 -1 4 0 0 1zm-4 -5l-1 0 0 -3 0 -1 1 1 0 3z"/>
    <path fill="#FEFEFE" fill-rule="nonzero" d="M25 174l-3 0 0 0 0 0 2 0 1 0zm0 -5l-1 1 -2 0 0 0 0 -1 3 0zm-3 4l0 1 0 -1 0 -1 0 0 0 1zm0 -2l0 1 0 -2 0 0 0 0 0 1z"/>
    <path fill="#FEFEFE" fill-rule="nonzero" d="M21 168c0,0 -1,1 -1,1 0,0 1,0 1,0 0,0 0,0 0,0 0,0 0,-1 0,-1zm0 1c-1,0 -1,0 -1,0 0,-1 0,-1 1,-1 0,0 1,0 1,1 0,0 -1,0 -1,0z"/>
    <path fill="#FEFEFE" fill-rule="nonzero" d="M39 175c0,0 -1,1 -1,1l-31 0c0,0 0,-1 0,-1l0 0c0,0 0,0 0,0l31 0c0,0 1,0 1,0l0 0z"/>
    <path fill="#FEFEFE" fill-rule="nonzero" d="M33 165c0,0 0,0 0,0 0,0 0,0 0,0 0,0 0,0 0,0 0,0 1,0 1,0 0,-1 0,-1 0,-1 0,0 0,-1 -1,0 0,0 0,0 0,1 0,0 0,0 0,0 -1,0 -1,0 -1,0 0,0 0,0 0,-1 0,0 0,0 0,0 0,-1 -1,-1 -1,0 0,0 0,0 0,1 0,0 1,0 1,0 0,0 0,0 0,0 0,0 0,0 0,0 0,0 0,0 0,0 0,0 -1,0 -1,0 0,1 0,1 0,1 0,0 0,1 1,0 0,0 0,0 0,-1 0,0 0,0 1,0 0,0 0,0 0,0 0,0 0,0 0,1 0,0 0,0 0,0 0,1 1,1 1,0 0,0 0,0 0,-1 0,0 -1,0 -1,0z"/>
    <polygon fill="#FEFEFE" fill-rule="nonzero" points="32,170 33,170 33,168 32,168 "/>
    <polygon fill="#FEFEFE" fill-rule="nonzero" points="33,170 34,170 34,167 33,167 "/>
    <polygon fill="#FEFEFE" fill-rule="nonzero" points="35,170 35,170 35,166 35,166 "/>
    <polygon fill="#FEFEFE" fill-rule="nonzero" points="36,170 37,170 37,165 36,165 "/>
    <polygon fill="#FEFEFE" fill-rule="nonzero" points="37,170 38,170 38,164 37,164 "/>
    <path fill="#FEFEFE" fill-rule="nonzero" d="M29 174l-2 0 0 0 0 0 2 0 0 0zm0 -3l0 0 -2 0 0 0 0 0 2 0zm-2 3l0 0 0 0 0 -1 0 0 0 1zm0 -2l0 1 0 -2 0 0 0 0 0 1z"/>
    <path fill="#FEFEFE" fill-rule="nonzero" d="M32 174l0 0 -1 0 0 -1 1 0 0 1zm0 -1l-1 -1 0 -1 1 0 0 0 0 2zm0 1l-1 0 -1 0 0 0 0 0 1 0 1 0zm0 -3l-1 0 -1 0 0 0 0 0 1 0 1 0zm-2 3l0 0 -1 0 0 -1 1 0 0 1zm0 -2l-1 1 0 -2 1 0 0 0 0 1z"/>
    <path fill="#FEFEFE" fill-rule="nonzero" d="M35 174l0 0 0 0 0 -1 0 0 0 1zm0 -1l0 -1 0 -1 0 0 0 0 0 2zm0 1l-1 0 -1 0 0 0 0 0 1 0 1 0zm0 -3l-1 0 -1 0 0 0 0 0 1 0 1 0zm-2 3l0 0 0 0 0 -1 0 0 0 1zm0 -2l0 1 0 -2 0 0 0 0 0 1z"/>
    <path fill="#FEFEFE" fill-rule="nonzero" d="M38 174l-2 0 0 0 2 0 0 0zm-2 0l0 0 0 -1 0 0 0 1zm0 -2l0 1 0 -2 0 0 0 1z"/>
    <polygon fill="#FEFEFE" fill-rule="nonzero" points="26,175 26,175 26,163 26,163 "/>
    <path fill="#FEFEFE" fill-rule="nonzero" d="M26 182l0 0 0 -1 0 -1 0 2zm0 -2l0 0 0 -1 0 0 0 1z"/>
    <path fill="#FEFEFE" fill-rule="nonzero" d="M30 182l0 0 0 0 0 -1 0 -1 0 2zm0 -2l0 0 0 -1 0 0 0 0 0 1zm0 -1l0 0 -1 0 -1 0 1 0 1 0 0 0zm0 1l0 1 -1 0 -1 -1 1 0 1 0 0 0zm0 2l0 0 -2 0 1 0 1 0 0 0zm-2 -2l0 0 0 -1 0 0 0 0 0 1z"/>
    <path fill="#FEFEFE" fill-rule="nonzero" d="M31 182l0 0 0 -1 0 0 0 1zm0 -1l0 0 0 -1 0 0 0 1z"/>
    <path fill="#FEFEFE" fill-rule="nonzero" d="M34 182l0 0 0 0 0 -1 0 -1 0 2zm0 -2l0 0 0 -1 0 0 0 0 0 1zm0 0l-1 1 -1 0 0 -1 0 0 1 0 1 0zm0 2l-1 0 -1 0 0 0 1 0 1 0zm0 -3l-1 0 -1 0 0 0 1 0 1 0z"/>
    <path fill="#FEFEFE" fill-rule="nonzero" d="M37 182l0 0 0 0 0 -1 0 -1 0 2zm0 0l0 0 -2 0 0 0 0 0 2 0 0 0zm0 -3l0 0 -2 0 0 0 0 0 2 0zm0 1l0 1 -2 0 0 -1 0 0 2 0 0 0zm-2 2l0 0 0 0 0 -2 0 1 0 1zm0 -2l0 0 0 -1 0 0 0 0 0 1z"/>
    <path fill="#FEFEFE" fill-rule="nonzero" d="M15 179c0,1 -1,2 -2,2 -1,0 -1,-1 -1,-2 0,-1 1,-2 1,-2 0,0 2,1 2,2z"/>
    <path fill="#FEFEFE" fill-rule="nonzero" d="M10 183l0 0c0,0 1,-2 3,-1 0,0 1,0 1,0 1,0 2,1 4,0l0 1c-1,0 -1,0 -2,0 -1,0 -1,0 -2,0 0,0 -1,-1 -1,-1 -1,0 -3,1 -3,1z"/>
    <path fill="#FEFEFE" fill-rule="nonzero" d="M10 185l0 0c0,0 1,-2 3,-2 0,1 1,1 1,1 1,0 2,1 4,0l0 0c-1,1 -1,1 -2,1 -1,0 -1,0 -2,-1 0,0 -1,0 -1,0 -1,0 -3,1 -3,1z"/>
    <path fill="#FEFEFE" fill-rule="nonzero" d="M10 187l0 -1c0,0 1,-1 3,-1 0,0 1,0 1,1 1,0 2,0 4,0l0 0c-1,1 -1,1 -2,1 -1,0 -1,-1 -2,-1 0,0 -1,0 -1,0 -1,0 -3,1 -3,1z"/>
    <path fill="#FEFEFE" fill-rule="nonzero" d="M14 193l-1 0 0 -2 0 0 1 0 0 2zm0 4l-3 0 -1 -1 1 0 2 0 1 1zm0 -4l-1 1 -2 0 -1 -1 1 0 2 0 1 0zm-3 3l-1 0 0 0 0 -2 1 0 0 2zm2 -5l0 0 -3 0 1 -1 2 0 0 1z"/>
    <path fill="#FEFEFE" fill-rule="nonzero" d="M19 196l0 0 -1 0 0 -2 1 0 0 2zm0 -3l-1 0 0 -2 1 0 0 0 0 2zm-1 3l0 1 -2 0 -1 -1 1 0 2 0 0 0zm0 -5l0 0 -2 0 -1 0 1 -1 2 0 0 1zm1 2l-1 1 -2 0 -1 -1 1 0 2 0 1 0zm-3 3l-1 0 0 0 0 -2 1 0 0 2zm0 -3l-1 0 0 -2 0 0 1 0 0 2z"/>
    <path fill="#FEFEFE" fill-rule="nonzero" d="M36 192l-1 -1 0 0c0,0 0,0 0,0 0,0 0,0 0,0 0,0 0,0 0,0l0 0 -1 0 1 0c0,0 0,0 0,0 0,-1 0,-1 0,-1 0,0 0,0 0,0l-1 1 -2 -1 1 0c0,0 0,0 0,0 0,-1 0,-1 0,-1l-1 1 2 -2 1 1c0,0 0,0 0,0 0,0 0,0 0,0l0 0c0,0 0,0 0,0 0,0 0,0 0,0l-1 -1 0 0 1 0c0,0 0,0 0,0l0 0c0,0 0,0 0,0 0,0 0,0 0,0 0,0 0,0 0,0l-1 0 1 -1c0,0 0,0 0,0l0 0c0,0 0,0 0,0 0,0 0,0 0,0l-1 1 0 -1c0,0 0,0 0,0 0,0 0,0 0,0 0,0 0,0 0,0l0 1 0 0 0 -1c0,0 0,0 0,0 0,0 0,0 0,0 0,0 0,0 0,0l-1 1 -1 1 0 -1c0,0 0,0 0,0 0,0 0,0 0,0 0,0 0,0 0,0 0,0 0,0 0,0l0 1 0 -2 0 -1c0,0 0,0 0,0 0,0 0,0 0,0 0,0 0,0 0,0l0 1 0 -1 0 0c0,0 0,0 0,0 0,0 0,0 0,0 0,0 0,0 0,0 0,0 0,0 0,0l0 0 0 -1c0,0 -1,0 -1,0l0 0c0,0 0,0 0,0l0 1 0 0c0,0 0,0 0,0 0,0 0,0 0,0 0,0 0,0 0,0l0 0 0 1 0 -1c0,0 0,0 0,0 0,0 0,0 0,0 -1,0 -1,0 0,0l0 1 0 2 0 -1c0,0 0,0 0,0 0,0 0,0 0,0l0 0c0,0 -1,0 -1,0 0,0 0,0 0,0l1 1 -1 -1 -1 -1c0,0 0,0 0,0 0,0 0,0 0,0 0,0 0,0 0,0l0 1 0 0 0 -1c0,0 0,0 0,0 0,0 0,0 0,0 -1,0 -1,0 -1,0 0,0 0,0 0,0l1 1 -1 -1c0,0 0,0 0,0 0,0 0,0 0,0 0,1 0,1 0,1 0,0 0,0 0,0l0 0 0 0c0,0 0,0 0,0 0,0 0,0 0,0l0 0c0,0 0,0 0,0l0 0 1 0 0 0 -1 1c0,0 0,0 0,0 0,0 0,0 0,0l0 0c0,0 0,0 0,0l1 0 2 1 -1 0c0,0 0,0 0,0 0,0 0,0 0,0l0 0 1 0 -2 1 -1 0c0,0 0,0 0,0 0,0 0,0 0,0 0,0 0,0 0,0l1 0 0 0 -1 0c0,0 0,0 0,0 0,0 0,0 0,0 0,0 0,0 0,0 0,0 0,0 0,0l0 1 0 0c0,0 0,0 0,0 0,0 0,0 0,0 0,0 0,0 0,0l0 0 0 0c0,0 0,0 0,0 0,0 0,0 0,0 0,1 0,1 0,1 1,-1 1,-1 1,-1l0 0 0 -1 0 1c0,0 0,0 0,0 0,0 0,0 0,0l0 0c0,0 0,0 0,0 0,0 0,0 0,0l0 -1 2 -1 0 1c0,0 0,0 0,0 0,0 0,0 0,0l0 0c0,0 0,0 0,0l0 0c0,0 0,0 0,0l0 -1 0 2 0 1c0,0 0,0 0,0 0,0 0,0 0,0 0,0 0,0 0,0l0 -1 0 1 0 0c0,0 0,1 0,1 0,0 0,0 0,0 0,0 0,0 0,0l0 -1 0 1c0,0 0,0 1,0l0 0c0,0 0,0 0,0l0 -1 0 1c0,0 0,0 0,0l0 0c0,0 0,0 0,0 0,0 0,0 0,0 0,-1 0,-1 0,-1l0 0 0 -1 0 1c0,0 0,0 0,0l0 0c0,0 0,0 0,0 1,0 1,0 1,0 0,0 0,0 -1,0l0 -1 0 -2 0 1c0,0 0,0 0,0 0,0 0,0 1,0 0,0 0,0 0,0l-1 -1 2 1 0 1c0,0 0,0 0,0l0 0c0,0 0,0 0,0l0 0c0,0 0,0 0,0 0,0 0,0 0,0l0 -1 0 0 1 1c0,0 0,0 0,0l0 0c0,0 0,0 0,0l0 0c0,0 0,0 0,0 0,0 0,0 0,0l0 0 0 0c0,0 0,0 0,0l0 0c1,0 1,0 1,0 0,0 0,0 0,0 0,0 0,0 0,0z"/>
   </g>
   <g>
    <polygon fill="#7997C4" fill-rule="nonzero" points="698,334 667,334 667,174 698,174 "/>
    <path fill="#7997C4" fill-rule="nonzero" d="M708 317l-50 0c-9,0 -15,7 -15,15l0 2 80 0 0 -2c0,-8 -7,-15 -15,-15z"/>
    <polygon fill="#2F2F52" fill-rule="nonzero" points="689,334 658,334 658,174 689,174 "/>
    <path fill="#2F2F52" fill-rule="nonzero" d="M699 317l-50 0c-9,0 -15,7 -15,15l0 2 80 0 0 -2c0,-8 -7,-15 -15,-15z"/>
    <polygon fill="#ACACAC" fill-rule="nonzero" points="658,174 658,194 698,181 698,174 "/>
    <polygon fill="#7997C4" fill-rule="nonzero" points="369,334 338,334 338,174 369,174 "/>
    <path fill="#7997C4" fill-rule="nonzero" d="M379 317l-50 0c-8,0 -15,7 -15,15l0 2 80 0 0 -2c0,-8 -7,-15 -15,-15z"/>
    <polygon fill="#2F2F52" fill-rule="nonzero" points="360,334 329,334 329,174 360,174 "/>
    <path fill="#2F2F52" fill-rule="nonzero" d="M370 317l-50 0c-8,0 -15,7 -15,15l0 2 80 0 0 -2c0,-8 -7,-15 -15,-15z"/>
    <polygon fill="#ACACAC" fill-rule="nonzero" points="329,174 329,194 369,181 369,174 "/>
    <path fill="#2F2F52" fill-rule="nonzero" d="M635 46l82 0c6,0 12,3 16,9l23 43c3,5 0,12 -6,12l-87 0 -28 -64z"/>
    <polygon fill="#ACACAC" fill-rule="nonzero" points="675,46 711,110 682,110 647,46 "/>
    <polygon fill="#7997C4" fill-rule="nonzero" points="693,62 697,69 718,69 714,62 "/>
    <polygon fill="#F2E2D8" fill-rule="nonzero" points="698,71 699,73 721,73 720,71 "/>
    <polygon fill="#F2E2D8" fill-rule="nonzero" points="700,75 702,77 723,77 722,75 "/>
    <polygon fill="#F2E2D8" fill-rule="nonzero" points="702,79 703,81 725,81 724,79 "/>
    <polygon fill="#F2E2D8" fill-rule="nonzero" points="708,88 709,90 730,90 729,88 "/>
    <polygon fill="#F2E2D8" fill-rule="nonzero" points="710,92 711,94 732,94 731,92 "/>
    <polygon fill="#7997C4" fill-rule="nonzero" points="704,83 706,86 739,86 737,83 "/>
    <polygon fill="#7997C4" fill-rule="nonzero" points="718,62 729,80 737,80 726,62 "/>
    <polygon fill="#7997C4" fill-rule="nonzero" points="732,88 736,94 743,94 740,88 "/>
    <path fill="#7997C4" fill-rule="nonzero" d="M330 174l384 0 0 -25c0,-9 -3,-17 -7,-25l-36 -67c-3,-7 -11,-11 -18,-11l-323 0 0 128z"/>
    <path fill="#2F2F52" fill-rule="nonzero" d="M300 174l93 0 0 -25c0,-9 -2,-17 -6,-25l-36 -67c-4,-7 -11,-11 -18,-11l-33 0 0 128z"/>
    <polyline fill="none" fill-rule="nonzero" stroke="#2F2F52" stroke-width="14.7441" points="435,106 413,68 618,68 646,114 "/>
    <line fill="none" fill-rule="nonzero" stroke="#2F2F52" stroke-width="29.4921" x1="423" y1="85" x2="629" y2= "85" />
    <polygon fill="#2F2F52" fill-rule="nonzero" points="431,99 637,99 646,114 435,106 "/>
    <polygon fill="#7997C4" fill-rule="nonzero" points="421,46 411,46 411,1 421,1 "/>
    <polygon fill="#2F2F52" fill-rule="nonzero" points="411,46 386,46 386,1 411,1 "/>
    <polygon fill="#7997C4" fill-rule="nonzero" points="404,46 394,46 394,1 404,1 "/>
    <polygon fill="#2F2F52" fill-rule="nonzero" points="394,46 369,46 369,1 394,1 "/>
    <polygon fill="#7997C4" fill-rule="nonzero" points="386,46 376,46 376,1 386,1 "/>
    <polygon fill="#2F2F52" fill-rule="nonzero" points="376,46 352,46 352,1 376,1 "/>
    <polygon fill="#7997C4" fill-rule="nonzero" points="368,46 358,46 358,1 368,1 "/>
    <polygon fill="#2F2F52" fill-rule="nonzero" points="358,46 333,46 333,1 358,1 "/>
    <path fill="#FDFFFF" fill-rule="nonzero" d="M366 8c0,1 -2,2 -3,2 -1,0 -3,-1 -3,-2 0,-2 2,-3 3,-3 1,0 3,1 3,3z"/>
    <path fill="#FDFFFF" fill-rule="nonzero" d="M384 8c0,1 -1,2 -3,2 -1,0 -2,-1 -2,-2 0,-2 1,-3 2,-3 2,0 3,1 3,3z"/>
    <path fill="#FDFFFF" fill-rule="nonzero" d="M401 8c0,1 -1,2 -2,2 -2,0 -3,-1 -3,-2 0,-2 1,-3 3,-3 1,0 2,1 2,3z"/>
    <path fill="#FDFFFF" fill-rule="nonzero" d="M418 8c0,1 -1,2 -2,2 -2,0 -3,-1 -3,-2 0,-2 1,-3 3,-3 1,0 2,1 2,3z"/>
    <polygon fill="#ACACAC" fill-rule="nonzero" points="421,39 333,39 333,46 421,46 "/>
    <path fill="white" fill-rule="nonzero" d="M453 266l0 0c0,21 18,38 39,38l84 0 0 -38 -123 0z"/>
    <path fill="#FDFFFF" fill-rule="nonzero" d="M435 106l195 0c0,0 28,2 28,37 0,35 0,123 0,123l-205 0 0 -121c0,-12 -4,-23 -11,-31l-7 -8z"/>
    <path fill="#60AAEB" fill-rule="nonzero" d="M594 175c0,19 -15,33 -33,33 -18,0 -33,-14 -33,-33 0,-18 15,-32 33,-32 18,0 33,14 33,32z"/>
    <path fill="#C80787" fill-rule="nonzero" d="M572 212c0,18 -14,33 -32,33 -18,0 -33,-15 -33,-33 0,-18 15,-33 33,-33 18,0 32,15 32,33z"/>
    <path fill="#F7EF38" fill-rule="nonzero" d="M619 212c0,18 -15,33 -33,33 -18,0 -33,-15 -33,-33 0,-18 15,-33 33,-33 18,0 33,15 33,33z"/>
    <path fill="#5E70A1" fill-rule="nonzero" d="M562 266c0,0 -18,-2 -18,18 0,19 -16,20 -16,20l48 0 0 -38 -14 0z"/>
    <path fill="#9ABCE6" fill-rule="nonzero" d="M562 266l205 0c0,0 19,1 19,22l0 25 -210 0 0 -26c0,0 0,-21 -14,-21z"/>
    <path fill="white" fill-rule="nonzero" d="M833 313c0,0 3,16 -22,20l-200 0 24 -20 0 -21 198 0 0 21z"/>
    <path fill="#9ABCE6" fill-rule="nonzero" d="M576 313c0,11 9,20 20,20l19 0c11,0 20,-9 20,-20l-59 0z"/>
   </g>
   <g>
    <path fill="#666666" d="M470 333c0,5 -5,9 -10,9l-217 0c-5,0 -9,-4 -9,-9l0 -128c0,-5 4,-9 9,-9l217 0c5,0 10,4 10,9l0 128z"/>
    <polygon fill="#CFCECF" points="234,335 198,393 505,393 470,335 "/>
    <path fill="#666666" d="M505 393c0,4 -3,6 -7,6l-292 0c-5,0 -8,-2 -8,-6l307 0z"/>
    <polygon fill="#72B0B8" points="457,324 247,324 247,207 457,207 "/>
    <polygon fill="#0F0F0F" fill-rule="nonzero" fill-opacity="0.149020" points="250,352 242,352 246,345 253,345 "/>
    <polygon fill="#0F0F0F" fill-rule="nonzero" fill-opacity="0.149020" points="255,361 238,361 242,354 258,354 "/>
    <polygon fill="#0F0F0F" fill-rule="nonzero" fill-opacity="0.149020" points="252,371 234,371 238,364 255,364 "/>
    <polygon fill="#0F0F0F" fill-rule="nonzero" fill-opacity="0.149020" points="258,352 251,352 254,345 261,345 "/>
    <polygon fill="#0F0F0F" fill-rule="nonzero" fill-opacity="0.149020" points="267,352 260,352 262,345 269,345 "/>
    <polygon fill="#0F0F0F" fill-rule="nonzero" fill-opacity="0.149020" points="276,352 268,352 271,345 278,345 "/>
    <polygon fill="#0F0F0F" fill-rule="nonzero" fill-opacity="0.149020" points="284,352 277,352 279,345 286,345 "/>
    <polygon fill="#0F0F0F" fill-rule="nonzero" fill-opacity="0.149020" points="293,352 286,352 287,345 294,345 "/>
    <polygon fill="#0F0F0F" fill-rule="nonzero" fill-opacity="0.149020" points="301,352 294,352 296,345 303,345 "/>
    <polygon fill="#0F0F0F" fill-rule="nonzero" fill-opacity="0.149020" points="310,352 303,352 304,345 311,345 "/>
    <polygon fill="#0F0F0F" fill-rule="nonzero" fill-opacity="0.149020" points="319,352 312,352 313,345 319,345 "/>
    <polygon fill="#0F0F0F" fill-rule="nonzero" fill-opacity="0.149020" points="327,352 320,352 321,345 328,345 "/>
    <polygon fill="#0F0F0F" fill-rule="nonzero" fill-opacity="0.149020" points="336,352 329,352 329,345 336,345 "/>
    <polygon fill="#0F0F0F" fill-rule="nonzero" fill-opacity="0.149020" points="345,352 337,352 338,345 345,345 "/>
    <polygon fill="#0F0F0F" fill-rule="nonzero" fill-opacity="0.149020" points="353,352 346,352 346,345 353,345 "/>
    <polygon fill="#0F0F0F" fill-rule="nonzero" fill-opacity="0.149020" points="362,352 355,352 354,345 361,345 "/>
    <polygon fill="#0F0F0F" fill-rule="nonzero" fill-opacity="0.149020" points="371,352 363,352 363,345 370,345 "/>
    <polygon fill="#0F0F0F" fill-rule="nonzero" fill-opacity="0.149020" points="379,352 372,352 371,345 378,345 "/>
    <polygon fill="#0F0F0F" fill-rule="nonzero" fill-opacity="0.149020" points="388,352 381,352 379,345 386,345 "/>
    <polygon fill="#0F0F0F" fill-rule="nonzero" fill-opacity="0.149020" points="396,352 389,352 388,345 395,345 "/>
    <polygon fill="#0F0F0F" fill-rule="nonzero" fill-opacity="0.149020" points="405,352 398,352 396,345 403,345 "/>
    <polygon fill="#0F0F0F" fill-rule="nonzero" fill-opacity="0.149020" points="414,352 406,352 404,345 411,345 "/>
    <polygon fill="#0F0F0F" fill-rule="nonzero" fill-opacity="0.149020" points="422,352 415,352 413,345 420,345 "/>
    <polygon fill="#0F0F0F" fill-rule="nonzero" fill-opacity="0.149020" points="431,352 424,352 421,345 428,345 "/>
    <polygon fill="#0F0F0F" fill-rule="nonzero" fill-opacity="0.149020" points="440,352 432,352 429,345 436,345 "/>
    <polygon fill="#0F0F0F" fill-rule="nonzero" fill-opacity="0.149020" points="448,352 441,352 438,345 445,345 "/>
    <polygon fill="#0F0F0F" fill-rule="nonzero" fill-opacity="0.149020" points="457,352 450,352 446,345 453,345 "/>
    <polygon fill="#0F0F0F" fill-rule="nonzero" fill-opacity="0.149020" points="238,381 230,381 233,373 241,373 "/>
    <polygon fill="#0F0F0F" fill-rule="nonzero" fill-opacity="0.149020" points="248,381 239,381 242,373 250,373 "/>
    <polygon fill="#0F0F0F" fill-rule="nonzero" fill-opacity="0.149020" points="257,381 249,381 252,373 260,373 "/>
    <polygon fill="#0F0F0F" fill-rule="nonzero" fill-opacity="0.149020" points="267,381 259,381 261,373 269,373 "/>
    <polygon fill="#0F0F0F" fill-rule="nonzero" fill-opacity="0.149020" points="277,381 269,381 271,373 279,373 "/>
    <polygon fill="#0F0F0F" fill-rule="nonzero" fill-opacity="0.149020" points="287,381 278,381 280,373 288,373 "/>
    <polygon fill="#0F0F0F" fill-rule="nonzero" fill-opacity="0.149020" points="413,381 289,381 290,373 411,373 "/>
    <polygon fill="#0F0F0F" fill-rule="nonzero" fill-opacity="0.149020" points="423,381 415,381 413,373 421,373 "/>
    <polygon fill="#0F0F0F" fill-rule="nonzero" fill-opacity="0.149020" points="433,381 425,381 422,373 430,373 "/>
    <polygon fill="#0F0F0F" fill-rule="nonzero" fill-opacity="0.149020" points="442,381 434,381 432,373 440,373 "/>
    <polygon fill="#0F0F0F" fill-rule="nonzero" fill-opacity="0.149020" points="452,381 444,381 441,373 449,373 "/>
    <polygon fill="#0F0F0F" fill-rule="nonzero" fill-opacity="0.149020" points="462,381 454,381 451,373 458,373 "/>
    <polygon fill="#0F0F0F" fill-rule="nonzero" fill-opacity="0.149020" points="472,381 464,381 460,373 468,373 "/>
    <polygon fill="#0F0F0F" fill-rule="nonzero" fill-opacity="0.149020" points="264,361 256,361 259,354 266,354 "/>
    <polygon fill="#0F0F0F" fill-rule="nonzero" fill-opacity="0.149020" points="273,361 265,361 268,354 275,354 "/>
    <polygon fill="#0F0F0F" fill-rule="nonzero" fill-opacity="0.149020" points="282,361 274,361 276,354 284,354 "/>
    <polygon fill="#0F0F0F" fill-rule="nonzero" fill-opacity="0.149020" points="291,361 283,361 285,354 292,354 "/>
    <polygon fill="#0F0F0F" fill-rule="nonzero" fill-opacity="0.149020" points="300,361 292,361 294,354 301,354 "/>
    <polygon fill="#0F0F0F" fill-rule="nonzero" fill-opacity="0.149020" points="309,361 301,361 303,354 310,354 "/>
    <polygon fill="#0F0F0F" fill-rule="nonzero" fill-opacity="0.149020" points="318,361 310,361 311,354 319,354 "/>
    <polygon fill="#0F0F0F" fill-rule="nonzero" fill-opacity="0.149020" points="327,361 319,361 320,354 327,354 "/>
    <polygon fill="#0F0F0F" fill-rule="nonzero" fill-opacity="0.149020" points="336,361 328,361 329,354 336,354 "/>
    <polygon fill="#0F0F0F" fill-rule="nonzero" fill-opacity="0.149020" points="345,361 337,361 337,354 345,354 "/>
    <polygon fill="#0F0F0F" fill-rule="nonzero" fill-opacity="0.149020" points="354,361 346,361 346,354 353,354 "/>
    <polygon fill="#0F0F0F" fill-rule="nonzero" fill-opacity="0.149020" points="363,361 355,361 355,354 362,354 "/>
    <polygon fill="#0F0F0F" fill-rule="nonzero" fill-opacity="0.149020" points="372,361 364,361 364,354 371,354 "/>
    <polygon fill="#0F0F0F" fill-rule="nonzero" fill-opacity="0.149020" points="381,361 373,361 372,354 379,354 "/>
    <polygon fill="#0F0F0F" fill-rule="nonzero" fill-opacity="0.149020" points="390,361 382,361 381,354 388,354 "/>
    <polygon fill="#0F0F0F" fill-rule="nonzero" fill-opacity="0.149020" points="399,361 391,361 390,354 397,354 "/>
    <polygon fill="#0F0F0F" fill-rule="nonzero" fill-opacity="0.149020" points="408,361 400,361 398,354 406,354 "/>
    <polygon fill="#0F0F0F" fill-rule="nonzero" fill-opacity="0.149020" points="417,361 409,361 407,354 414,354 "/>
    <polygon fill="#0F0F0F" fill-rule="nonzero" fill-opacity="0.149020" points="426,361 418,361 416,354 423,354 "/>
    <polygon fill="#0F0F0F" fill-rule="nonzero" fill-opacity="0.149020" points="435,361 427,361 424,354 432,354 "/>
    <polygon fill="#0F0F0F" fill-rule="nonzero" fill-opacity="0.149020" points="444,361 436,361 433,354 440,354 "/>
    <polygon fill="#0F0F0F" fill-rule="nonzero" fill-opacity="0.149020" points="453,361 445,361 442,354 449,354 "/>
    <polygon fill="#0F0F0F" fill-rule="nonzero" fill-opacity="0.149020" points="467,371 459,371 451,354 458,354 "/>
    <polygon fill="#0F0F0F" fill-rule="nonzero" fill-opacity="0.149020" points="260,371 253,371 255,364 263,364 "/>
    <polygon fill="#0F0F0F" fill-rule="nonzero" fill-opacity="0.149020" points="270,371 262,371 264,364 272,364 "/>
    <polygon fill="#0F0F0F" fill-rule="nonzero" fill-opacity="0.149020" points="279,371 271,371 274,364 281,364 "/>
    <polygon fill="#0F0F0F" fill-rule="nonzero" fill-opacity="0.149020" points="289,371 281,371 283,364 290,364 "/>
    <polygon fill="#0F0F0F" fill-rule="nonzero" fill-opacity="0.149020" points="298,371 290,371 292,364 299,364 "/>
    <polygon fill="#0F0F0F" fill-rule="nonzero" fill-opacity="0.149020" points="307,371 300,371 301,364 308,364 "/>
    <polygon fill="#0F0F0F" fill-rule="nonzero" fill-opacity="0.149020" points="317,371 309,371 310,364 317,364 "/>
    <polygon fill="#0F0F0F" fill-rule="nonzero" fill-opacity="0.149020" points="326,371 318,371 319,364 327,364 "/>
    <polygon fill="#0F0F0F" fill-rule="nonzero" fill-opacity="0.149020" points="335,371 328,371 328,364 336,364 "/>
    <polygon fill="#0F0F0F" fill-rule="nonzero" fill-opacity="0.149020" points="345,371 337,371 337,364 345,364 "/>
    <polygon fill="#0F0F0F" fill-rule="nonzero" fill-opacity="0.149020" points="354,371 346,371 346,364 354,364 "/>
    <polygon fill="#0F0F0F" fill-rule="nonzero" fill-opacity="0.149020" points="364,371 356,371 355,364 363,364 "/>
    <polygon fill="#0F0F0F" fill-rule="nonzero" fill-opacity="0.149020" points="373,371 365,371 364,364 372,364 "/>
    <polygon fill="#0F0F0F" fill-rule="nonzero" fill-opacity="0.149020" points="382,371 375,371 374,364 381,364 "/>
    <polygon fill="#0F0F0F" fill-rule="nonzero" fill-opacity="0.149020" points="392,371 384,371 383,364 390,364 "/>
    <polygon fill="#0F0F0F" fill-rule="nonzero" fill-opacity="0.149020" points="401,371 393,371 392,364 399,364 "/>
    <polygon fill="#0F0F0F" fill-rule="nonzero" fill-opacity="0.149020" points="411,371 403,371 401,364 408,364 "/>
    <polygon fill="#0F0F0F" fill-rule="nonzero" fill-opacity="0.149020" points="420,371 412,371 410,364 418,364 "/>
    <polygon fill="#0F0F0F" fill-rule="nonzero" fill-opacity="0.149020" points="429,371 421,371 419,364 427,364 "/>
    <polygon fill="#0F0F0F" fill-rule="nonzero" fill-opacity="0.149020" points="439,371 431,371 428,364 436,364 "/>
    <polygon fill="#0F0F0F" fill-rule="nonzero" fill-opacity="0.149020" points="448,371 440,371 437,364 445,364 "/>
    <polygon fill="#0F0F0F" fill-rule="nonzero" fill-opacity="0.149020" points="457,371 450,371 446,364 454,364 "/>
    <polygon fill="#716F6F" fill-rule="nonzero" points="250,352 242,352 246,344 253,344 "/>
    <polygon fill="#716F6F" fill-rule="nonzero" points="255,361 238,361 242,353 258,353 "/>
    <polygon fill="#716F6F" fill-rule="nonzero" points="252,371 234,371 238,364 255,364 "/>
    <polygon fill="#716F6F" fill-rule="nonzero" points="258,352 251,352 254,344 261,344 "/>
    <polygon fill="#716F6F" fill-rule="nonzero" points="267,352 260,352 262,344 269,344 "/>
    <polygon fill="#716F6F" fill-rule="nonzero" points="276,352 268,352 271,344 278,344 "/>
    <polygon fill="#716F6F" fill-rule="nonzero" points="284,352 277,352 279,344 286,344 "/>
    <polygon fill="#716F6F" fill-rule="nonzero" points="293,352 286,352 287,344 294,344 "/>
    <polygon fill="#716F6F" fill-rule="nonzero" points="301,352 294,352 296,344 303,344 "/>
    <polygon fill="#716F6F" fill-rule="nonzero" points="310,352 303,352 304,344 311,344 "/>
    <polygon fill="#716F6F" fill-rule="nonzero" points="319,352 312,352 313,344 319,344 "/>
    <polygon fill="#716F6F" fill-rule="nonzero" points="327,352 320,352 321,344 328,344 "/>
    <polygon fill="#716F6F" fill-rule="nonzero" points="336,352 329,352 329,344 336,344 "/>
    <polygon fill="#716F6F" fill-rule="nonzero" points="345,352 337,352 338,344 345,344 "/>
    <polygon fill="#716F6F" fill-rule="nonzero" points="353,352 346,352 346,344 353,344 "/>
    <polygon fill="#716F6F" fill-rule="nonzero" points="362,352 355,352 354,344 361,344 "/>
    <polygon fill="#716F6F" fill-rule="nonzero" points="371,352 363,352 363,344 370,344 "/>
    <polygon fill="#716F6F" fill-rule="nonzero" points="379,352 372,352 371,344 378,344 "/>
    <polygon fill="#716F6F" fill-rule="nonzero" points="388,352 381,352 379,344 386,344 "/>
    <polygon fill="#716F6F" fill-rule="nonzero" points="396,352 389,352 388,344 395,344 "/>
    <polygon fill="#716F6F" fill-rule="nonzero" points="405,352 398,352 396,344 403,344 "/>
    <polygon fill="#716F6F" fill-rule="nonzero" points="414,352 406,352 404,344 411,344 "/>
    <polygon fill="#716F6F" fill-rule="nonzero" points="422,352 415,352 413,344 420,344 "/>
    <polygon fill="#716F6F" fill-rule="nonzero" points="431,352 424,352 421,344 428,344 "/>
    <polygon fill="#716F6F" fill-rule="nonzero" points="440,352 432,352 429,344 436,344 "/>
    <polygon fill="#716F6F" fill-rule="nonzero" points="448,352 441,352 438,344 445,344 "/>
    <polygon fill="#716F6F" fill-rule="nonzero" points="457,352 450,352 446,344 453,344 "/>
    <polygon fill="#716F6F" fill-rule="nonzero" points="238,380 230,380 233,373 241,373 "/>
    <polygon fill="#716F6F" fill-rule="nonzero" points="248,380 239,380 242,373 250,373 "/>
    <polygon fill="#716F6F" fill-rule="nonzero" points="257,380 249,380 252,373 260,373 "/>
    <polygon fill="#716F6F" fill-rule="nonzero" points="267,380 259,380 261,373 269,373 "/>
    <polygon fill="#716F6F" fill-rule="nonzero" points="277,380 269,380 271,373 279,373 "/>
    <polygon fill="#716F6F" fill-rule="nonzero" points="287,380 278,380 280,373 288,373 "/>
    <polygon fill="#716F6F" fill-rule="nonzero" points="413,380 289,380 290,373 411,373 "/>
    <polygon fill="#716F6F" fill-rule="nonzero" points="423,380 415,380 413,373 421,373 "/>
    <polygon fill="#716F6F" fill-rule="nonzero" points="433,380 425,380 422,373 430,373 "/>
    <polygon fill="#716F6F" fill-rule="nonzero" points="442,380 434,380 432,373 440,373 "/>
    <polygon fill="#716F6F" fill-rule="nonzero" points="452,380 444,380 441,373 449,373 "/>
    <polygon fill="#716F6F" fill-rule="nonzero" points="462,380 454,380 451,373 458,373 "/>
    <polygon fill="#716F6F" fill-rule="nonzero" points="472,380 464,380 460,373 468,373 "/>
    <polygon fill="#716F6F" fill-rule="nonzero" points="264,361 256,361 259,353 266,353 "/>
    <polygon fill="#716F6F" fill-rule="nonzero" points="273,361 265,361 268,353 275,353 "/>
    <polygon fill="#716F6F" fill-rule="nonzero" points="282,361 274,361 276,353 284,353 "/>
    <polygon fill="#716F6F" fill-rule="nonzero" points="291,361 283,361 285,353 292,353 "/>
    <polygon fill="#716F6F" fill-rule="nonzero" points="300,361 292,361 294,353 301,353 "/>
    <polygon fill="#716F6F" fill-rule="nonzero" points="309,361 301,361 303,353 310,353 "/>
    <polygon fill="#716F6F" fill-rule="nonzero" points="318,361 310,361 311,353 319,353 "/>
    <polygon fill="#716F6F" fill-rule="nonzero" points="327,361 319,361 320,353 327,353 "/>
    <polygon fill="#716F6F" fill-rule="nonzero" points="336,361 328,361 329,353 336,353 "/>
    <polygon fill="#716F6F" fill-rule="nonzero" points="345,361 337,361 337,353 345,353 "/>
    <polygon fill="#716F6F" fill-rule="nonzero" points="354,361 346,361 346,353 353,353 "/>
    <polygon fill="#716F6F" fill-rule="nonzero" points="363,361 355,361 355,353 362,353 "/>
    <polygon fill="#716F6F" fill-rule="nonzero" points="372,361 364,361 364,353 371,353 "/>
    <polygon fill="#716F6F" fill-rule="nonzero" points="381,361 373,361 372,353 379,353 "/>
    <polygon fill="#716F6F" fill-rule="nonzero" points="390,361 382,361 381,353 388,353 "/>
    <polygon fill="#716F6F" fill-rule="nonzero" points="399,361 391,361 390,353 397,353 "/>
    <polygon fill="#716F6F" fill-rule="nonzero" points="408,361 400,361 398,353 406,353 "/>
    <polygon fill="#716F6F" fill-rule="nonzero" points="417,361 409,361 407,353 414,353 "/>
    <polygon fill="#716F6F" fill-rule="nonzero" points="426,361 418,361 416,353 423,353 "/>
    <polygon fill="#716F6F" fill-rule="nonzero" points="435,361 427,361 424,353 432,353 "/>
    <polygon fill="#716F6F" fill-rule="nonzero" points="444,361 436,361 433,353 440,353 "/>
    <polygon fill="#716F6F" fill-rule="nonzero" points="453,361 445,361 442,353 449,353 "/>
    <polygon fill="#716F6F" fill-rule="nonzero" points="467,370 459,370 451,353 458,353 "/>
    <polygon fill="#716F6F" fill-rule="nonzero" points="260,371 253,371 255,364 263,364 "/>
    <polygon fill="#716F6F" fill-rule="nonzero" points="270,371 262,371 264,364 272,364 "/>
    <polygon fill="#716F6F" fill-rule="nonzero" points="279,371 271,371 274,364 281,364 "/>
    <polygon fill="#716F6F" fill-rule="nonzero" points="289,371 281,371 283,364 290,364 "/>
    <polygon fill="#716F6F" fill-rule="nonzero" points="298,371 290,371 292,364 299,364 "/>
    <polygon fill="#716F6F" fill-rule="nonzero" points="307,371 300,371 301,364 308,364 "/>
    <polygon fill="#716F6F" fill-rule="nonzero" points="317,371 309,371 310,364 317,364 "/>
    <polygon fill="#716F6F" fill-rule="nonzero" points="326,371 318,371 319,364 327,364 "/>
    <polygon fill="#716F6F" fill-rule="nonzero" points="335,371 328,371 328,364 336,364 "/>
    <polygon fill="#716F6F" fill-rule="nonzero" points="345,371 337,371 337,364 345,364 "/>
    <polygon fill="#716F6F" fill-rule="nonzero" points="354,371 346,371 346,364 354,364 "/>
    <polygon fill="#716F6F" fill-rule="nonzero" points="364,371 356,371 355,364 363,364 "/>
    <polygon fill="#716F6F" fill-rule="nonzero" points="373,371 365,371 364,364 372,364 "/>
    <polygon fill="#716F6F" fill-rule="nonzero" points="382,371 375,371 374,364 381,364 "/>
    <polygon fill="#716F6F" fill-rule="nonzero" points="392,371 384,371 383,364 390,364 "/>
    <polygon fill="#716F6F" fill-rule="nonzero" points="401,371 393,371 392,364 399,364 "/>
    <polygon fill="#716F6F" fill-rule="nonzero" points="411,371 403,371 401,364 408,364 "/>
    <polygon fill="#716F6F" fill-rule="nonzero" points="420,371 412,371 410,364 418,364 "/>
    <polygon fill="#716F6F" fill-rule="nonzero" points="429,371 421,371 419,364 427,364 "/>
    <polygon fill="#716F6F" fill-rule="nonzero" points="439,371 431,371 428,364 436,364 "/>
    <polygon fill="#716F6F" fill-rule="nonzero" points="448,371 440,371 437,364 445,364 "/>
    <polygon fill="#716F6F" fill-rule="nonzero" points="457,371 450,371 446,364 454,364 "/>
    <path fill="#EDEDED" fill-rule="nonzero" d="M393 224c0,0 0,1 1,1 0,0 0,0 1,0 1,1 2,2 4,4 0,0 1,1 2,2 1,1 2,3 3,4 1,1 1,3 2,4 1,2 2,3 2,5 1,2 1,4 2,6 0,2 0,4 1,7 0,2 0,4 -1,7 0,2 0,4 -1,7 -1,4 -3,9 -5,14 -2,2 -3,4 -5,6 -1,2 -3,4 -5,6 -3,4 -8,7 -12,9 -5,3 -9,5 -14,6 -5,1 -9,2 -14,2 -4,0 -9,0 -12,-2 -2,0 -4,-1 -6,-2 -1,-1 -3,-2 -4,-3 -1,-1 -2,-3 -2,-4 -1,-1 -1,-3 -1,-4 0,-1 0,-2 0,-3 0,0 0,-1 0,-1 0,0 0,-1 0,-1 0,-1 0,-1 1,-1 0,-1 0,-1 0,-1l0 0c0,0 0,1 0,1 0,0 0,1 0,1 0,1 0,3 0,5 0,1 0,2 1,3 1,1 1,3 3,4 2,2 5,3 8,4 4,1 8,1 12,1 4,0 9,-1 13,-3 4,-1 9,-3 13,-5 4,-3 8,-5 11,-9 4,-3 7,-7 9,-11 2,-5 4,-9 5,-13 2,-5 2,-9 2,-13 0,-5 0,-8 -1,-12 -1,-4 -3,-7 -4,-9 -1,-3 -3,-5 -4,-6 -2,-2 -3,-3 -4,-4 0,0 -1,-1 -1,-1 0,0 0,0 0,0l0 -1z"/>
    <polygon fill="#CB5640" points="372,192 393,193 395,196 380,204 "/>
    <polygon fill="#CB5640" points="360,203 358,223 361,226 371,212 "/>
    <path fill="#B5A69D" fill-rule="nonzero" d="M349 169l-5 4 -4 4c0,0 -1,7 9,19 11,11 24,20 24,20l5 -5 5 -4c0,0 -7,-14 -17,-26 -10,-12 -17,-12 -17,-12z"/>
    <path fill="#B5D5D7" fill-rule="nonzero" d="M357 187c2,-1 2,-4 0,-6 -1,-2 -4,-2 -6,0 -2,1 -2,4 0,6 1,2 4,2 6,0z"/>
    <path fill="#907872" fill-rule="nonzero" d="M358 188c2,-2 2,-5 0,-8 -2,-2 -5,-2 -8,0 -2,2 -2,5 0,8 2,2 5,2 8,0zm-7 -7l0 0c2,-1 4,-1 6,0 1,2 1,4 -1,6 -1,1 -4,1 -5,0 -1,-2 -1,-5 0,-6z"/>
    <path fill="#B5D5D7" fill-rule="nonzero" d="M365 196c0,-1 1,-2 0,-3 -1,-1 -2,-1 -3,0 -1,0 -1,2 -1,3 1,1 3,1 4,0z"/>
    <path fill="#907872" fill-rule="nonzero" d="M365 196c1,-1 1,-2 0,-3 -1,-2 -3,-2 -4,-1 -1,1 -1,3 0,4 1,1 3,1 4,0zm-3 -3l0 0c1,-1 2,-1 3,0 0,1 0,2 -1,3 0,0 -2,0 -2,0 -1,-1 -1,-2 0,-3z"/>
    <path fill="#B5D5D7" fill-rule="nonzero" d="M371 203c1,0 1,-2 0,-3 0,-1 -2,-1 -3,0 -1,1 -1,2 0,3 1,1 2,1 3,0z"/>
    <path fill="#907872" fill-rule="nonzero" d="M372 204c1,-1 1,-3 0,-4 -1,-1 -3,-1 -4,0 -1,1 -1,2 0,4 1,1 2,1 4,0zm-3 -4l0 0c0,0 2,0 2,1 1,0 1,2 0,2 -1,1 -2,1 -3,0 0,-1 0,-2 1,-3z"/>
    <path fill="#E4AB46" d="M375 215l8 -6c0,0 5,3 8,10 0,0 -1,0 -3,-1 0,0 2,2 2,6 0,0 -8,3 -15,-9z"/>
    <path fill="#EBD776" d="M376 215l6 -6c0,0 4,3 6,8 0,0 -1,0 -2,-1 0,0 1,3 1,6 0,0 -5,2 -11,-7z"/>
    <path fill="#B73D2A" fill-rule="nonzero" d="M385 206c0,1 0,1 -1,2l-11 10c0,0 -1,0 -1,-1 0,0 0,0 0,-1l11 -10c1,0 1,0 2,0z"/>
    <polygon fill="#CB5640" fill-rule="nonzero" points="339,178 335,163 350,169 "/>
    <path fill="#B73D2A" fill-rule="nonzero" d="M351 169c0,0 0,1 0,1l-11 9c0,1 0,0 -1,0 0,0 0,0 0,-1l11 -9c0,0 1,0 1,0z"/>
    <polygon fill="#EDD384" points="369,292 367,292 367,293 366,291 365,291 366,290 366,289 367,290 367,289 368,290 369,290 368,291 "/>
    <polygon fill="#EDD384" points="355,295 353,295 352,296 352,294 350,294 351,293 351,291 352,292 353,291 354,292 356,293 354,294 "/>
    <polygon fill="#EDD384" points="359,281 358,281 358,281 358,280 357,280 357,280 357,279 358,279 358,278 359,279 359,279 359,280 "/>
    <polygon fill="#EDD384" points="389,234 388,236 390,236 388,237 388,238 387,237 386,238 387,236 386,236 387,235 387,234 388,235 "/>
    <polygon fill="#EDD384" points="393,248 393,249 394,250 392,251 392,253 391,251 390,252 390,250 389,249 390,249 390,247 392,248 "/>
    <polygon fill="#EDD384" points="378,245 378,245 379,246 378,246 378,247 377,246 377,247 377,246 376,246 377,245 377,244 378,245 "/>
    <polygon fill="#EDD384" points="329,247 328,246 327,247 327,245 325,245 327,244 326,243 328,244 329,243 328,244 330,245 328,245 "/>
    <polygon fill="#EDD384" points="315,246 313,245 312,246 312,244 310,243 312,243 312,241 313,242 315,241 314,242 316,243 314,244 "/>
    <polygon fill="#EDD384" points="323,233 322,233 321,233 322,232 321,232 322,232 321,231 322,231 323,231 323,232 324,232 323,232 "/>
    <path fill="#DA7D25" fill-rule="nonzero" d="M353 231c0,0 0,0 0,-1 0,-1 0,-3 0,-4 0,0 0,-1 0,-2 0,0 0,-1 0,-1 0,-1 0,-2 0,-2l0 0c0,0 0,1 1,2 0,0 0,1 0,1 0,1 0,2 0,2 -1,1 -1,3 -1,4 0,1 0,1 0,1l0 0z"/>
    <path fill="#DA7D25" fill-rule="nonzero" d="M368 237c0,0 1,0 1,-1 1,0 1,-1 2,-2 1,0 1,-1 1,-1 1,0 1,-1 1,-1 1,0 2,-1 2,-1l0 1c0,0 0,0 -1,1 0,0 -1,0 -1,1 0,0 -1,0 -1,1 -1,1 -2,1 -3,2 0,0 -1,1 -1,1l0 -1z"/>
    <path fill="#DA7D25" fill-rule="nonzero" d="M339 238c0,0 0,-1 -1,-1 0,-1 -1,-1 -2,-2 0,-1 -1,-1 -1,-1 -1,-1 -1,-1 -1,-1 -1,-1 -1,-1 -1,-1l0 -1c0,0 1,1 1,1 1,0 1,1 1,1 1,0 1,1 1,1 1,1 2,2 3,2 0,1 1,1 1,1l-1 1z"/>
    <path fill="#E2E2E2" fill-rule="nonzero" d="M345 232c0,0 -1,-1 -2,-3 0,0 0,-1 0,-1 0,0 -1,-1 -1,-1 0,0 0,-1 0,-1l0 0c0,0 1,0 1,1 0,0 0,0 1,1 0,0 0,0 0,1 0,1 1,3 1,3l0 0z"/>
    <path fill="#E2E2E2" fill-rule="nonzero" d="M362 232c0,0 1,-2 1,-3 0,-1 0,-1 1,-1 0,-1 0,-1 0,-1 0,-1 1,-1 1,-1l0 0c0,0 0,1 0,1 0,0 0,1 -1,1 0,0 0,1 0,1 -1,2 -2,3 -2,3l0 0z"/>
    <path fill="#DA7D25" fill-rule="nonzero" d="M317 274c0,0 -1,0 -2,0 -1,1 -2,1 -3,2 -1,0 -1,0 -2,0 0,1 -1,1 -1,1 -1,0 -2,0 -2,0l0 0c0,0 0,-1 1,-1 1,0 1,0 2,-1 0,0 1,0 2,0 1,0 2,-1 3,-1 1,0 2,0 2,0l0 0z"/>
    <path fill="#DA7D25" fill-rule="nonzero" d="M318 257c0,0 -1,0 -2,0 0,0 -1,-1 -2,-1 -1,-1 -1,-1 -2,-1 0,0 -1,-1 -1,-1 -1,0 -1,-1 -1,-1l0 0c0,0 0,0 1,0 1,1 1,1 2,1 0,0 0,1 1,1 1,0 2,1 3,2 0,0 1,0 1,0l0 0z"/>
    <path fill="#DA7D25" fill-rule="nonzero" d="M327 285c0,0 0,0 -1,1 0,1 0,2 -1,3 0,0 0,1 0,1 0,1 -1,1 -1,2 0,0 -1,1 -1,1l0 0c0,0 0,-1 0,-2 0,0 1,-1 1,-1 0,-1 0,-1 1,-1 0,-1 1,-2 1,-3 0,-1 1,-1 1,-1l0 0z"/>
    <path fill="#E2E2E2" fill-rule="nonzero" d="M320 281c0,0 -1,2 -2,3 -1,0 -1,0 -1,1 0,0 -1,0 -1,0 -1,0 -1,1 -1,1l0 -1c0,0 0,0 0,0 1,-1 1,-1 1,-1 0,0 1,-1 1,-1 1,-1 3,-2 3,-2l0 0z"/>
    <path fill="#E2E2E2" fill-rule="nonzero" d="M314 265c0,0 -1,0 -3,0 0,0 -1,0 -1,0 -1,0 -1,0 -1,0 -1,0 -1,-1 -1,-1l0 0c0,0 0,0 1,0 0,0 1,0 1,0 0,0 1,0 1,0 2,0 3,1 3,1l0 0z"/>
    <path fill="#DA7D25" fill-rule="nonzero" d="M391 273c0,0 1,0 2,0 0,0 1,1 2,1 1,0 2,0 2,0 1,0 1,0 1,0 1,1 2,1 2,1l0 0c0,0 -1,0 -2,0 0,0 -1,0 -1,0 -1,0 -1,0 -2,-1 -1,0 -2,0 -2,0 -1,-1 -2,-1 -2,-1l0 0z"/>
    <path fill="#DA7D25" fill-rule="nonzero" d="M383 284c0,0 1,1 1,1 1,1 1,2 2,3 0,0 0,0 0,1 1,0 1,0 1,1 0,0 0,1 0,1l0 0c0,0 0,0 -1,-1 0,0 0,-1 0,-1 -1,0 -1,-1 -1,-1 0,-1 -1,-2 -1,-2 0,-1 -1,-2 -1,-2l0 0z"/>
    <path fill="#DA7D25" fill-rule="nonzero" d="M389 261c0,0 0,0 0,-1 1,0 2,-1 2,-2 1,0 1,0 2,0 0,-1 0,-1 1,-1 0,0 1,0 1,0l0 0c0,0 -1,0 -1,1 0,0 -1,0 -1,0 0,1 -1,1 -1,1 -1,0 -2,1 -2,1 -1,1 -1,1 -1,1l0 0z"/>
    <path fill="#E2E2E2" fill-rule="nonzero" d="M392 266c0,0 1,0 1,0 1,0 1,0 2,-1 0,0 0,0 1,0 0,0 0,0 1,0 0,0 0,0 0,0l0 0c0,0 0,1 0,1 -1,0 -1,0 -1,0 0,0 -1,0 -1,0 -1,0 -1,0 -2,0 0,0 -1,0 -1,0l0 0z"/>
    <path fill="#E2E2E2" fill-rule="nonzero" d="M389 281c0,0 0,0 1,0 0,0 1,1 1,1 1,0 1,0 1,0 1,1 1,1 1,1 0,0 0,1 0,1l0 0c0,0 0,0 0,-1 -1,0 -1,0 -1,0 0,0 -1,0 -1,-1 0,0 -1,0 -1,-1 -1,0 -1,0 -1,0l0 0z"/>
    <path fill="#432514" fill-rule="nonzero" fill-opacity="0.149020" d="M368 246l-3 -3c0,-1 -1,-1 -1,0l-2 1c-1,-1 -1,-1 -2,-1l0 -2c0,-1 -1,-1 -1,-1l-5 -1c0,0 -1,1 -1,1l0 2c-1,0 -2,1 -3,1l-1 -1c-1,0 -1,0 -2,0l-3 3c0,1 0,1 0,2l1 1c-1,1 -1,2 -2,3l-1 0c0,0 -1,0 -1,1l0 4c0,1 0,1 1,1l1 0c0,2 0,3 1,4l0 1c-1,0 -1,1 -1,1l4 3c0,1 1,1 1,0l1 0c1,1 2,1 3,1l0 1c0,1 0,1 1,1l4 0c1,0 1,0 1,-1l1 0c1,-1 2,-1 3,-2l1 1c0,0 1,0 1,0l4 -3c0,-1 0,-1 0,-2l-1 -1c0,-1 1,-2 1,-3l2 0c0,0 1,0 1,-1l0 -4c0,-1 -1,-1 -1,-1l-2 0c0,-1 -1,-2 -1,-3l1 -2c1,0 1,-1 0,-1zm-8 5l0 0c2,2 2,6 -1,8 -2,2 -5,2 -7,0 -2,-2 -2,-6 0,-8 2,-2 6,-2 8,0z"/>
    <path fill="#432514" fill-rule="nonzero" fill-opacity="0.149020" d="M350 260l-3 -3c0,-1 -1,-1 -1,0l-2 1c0,-1 -1,-2 -2,-2l0 -2c0,0 0,-1 -1,-1l-4 -1c-1,0 -1,1 -1,1l0 2c-2,0 -3,0 -4,1l-1 -2c0,0 -1,0 -1,0l-4 3c0,0 0,1 0,1l1 1c-1,1 -2,2 -2,3l-1 0c-1,0 -2,0 -2,1l0 4c0,1 0,1 0,1l1 0c0,2 1,3 1,4l0 1c-1,0 -1,1 -1,1l3 4c0,0 1,1 1,0l1 0c1,1 2,1 3,2l0 0c0,1 0,2 1,2l4 0c1,1 1,0 2,0l0 -1c1,0 2,-1 4,-1l0 0c1,1 1,1 2,1l3 -3c1,0 1,-1 1,-1l-1 -1c0,-1 1,-2 1,-3l2 0c0,0 1,0 1,-1l1 -4c0,-1 -1,-1 -1,-2l-2 0c0,-1 0,-2 -1,-3l2 -1c0,-1 0,-1 0,-2zm-8 4l0 0c2,3 2,7 -1,9 -4,3 -8,2 -10,-1 -3,-3 -2,-8 1,-10 3,-2 8,-1 10,2z"/>
    <path fill="#432514" fill-rule="nonzero" fill-opacity="0.149020" d="M389 272l-1 -3c0,0 0,0 0,0l-1 0c-1,0 -1,-1 -1,-1l0 -1c0,0 0,0 0,0l-2 -2c0,0 -1,0 -1,1l0 0c-1,0 -2,0 -2,0l0 -1c-1,0 -1,0 -1,0l-2 1c-1,0 -1,0 -1,1l0 0c0,1 0,1 -1,1l0 0c-1,0 -1,0 -1,0l-1 2c0,1 0,1 0,1l0 0c0,1 0,2 0,3l0 0c-1,0 -1,0 -1,0l1 3c0,0 1,0 1,0l0 0c1,0 1,1 2,1l-1 1c0,0 0,0 1,0l2 2c0,0 0,0 0,-1l1 0c0,0 1,0 2,0l0 0c0,1 0,1 1,1l2 -1c0,0 0,0 0,-1l0 0c1,-1 1,-1 1,-1l1 0c0,0 1,0 1,0l1 -2c0,-1 0,-1 0,-1l-1 -1c0,0 0,-1 0,-1l1 -1c0,0 0,0 0,0zm-4 0l0 0c0,2 -1,4 -3,5 -2,0 -4,-1 -4,-3 -1,-2 0,-4 2,-4 2,-1 4,0 5,2z"/>
    <path fill="#B3C7C7" fill-rule="nonzero" d="M368 244l-3 -3c-1,0 -1,0 -2,0l-1 1c-1,0 -2,-1 -3,-1l0 -2c0,0 0,-1 -1,-1l-4 0c-1,0 -1,0 -1,1l0 2c-2,0 -3,0 -4,1l-1 -1c0,-1 -1,-1 -1,0l-4 3c0,0 0,1 0,1l1 1c0,1 -1,2 -1,3l-1 0c-1,0 -1,0 -1,1l-1 4c0,1 1,1 1,2l1 0c0,1 1,2 2,3l-1 1c0,0 0,1 0,2l3 3c0,0 1,0 1,0l1 -1c1,1 2,2 3,2l0 1c0,0 1,1 1,1l5 0c0,0 1,-1 1,-1l0 -1c1,0 3,-1 4,-1l0 0c1,1 2,1 2,0l3 -3c1,0 1,-1 0,-1l-1 -1c1,-1 1,-2 2,-3l1 0c1,0 1,-1 1,-1l0 -5c0,0 0,-1 -1,-1l-1 0c-1,-1 -1,-2 -2,-3l2 -1c0,-1 0,-1 0,-2zm-9 6l0 0c2,2 2,5 0,7 -2,2 -6,2 -8,0 -2,-2 -2,-6 0,-8 2,-2 6,-2 8,1z"/>
    <path fill="#E3EFEF" fill-rule="nonzero" d="M349 259l-2 -4c0,0 -1,0 -2,0l-1 1c-1,-1 -2,-1 -3,-2l1 -1c0,-1 -1,-1 -1,-2l-5 0c0,0 -1,0 -1,1l0 1c-1,0 -2,1 -3,1l-1 -1c-1,-1 -1,-1 -2,-1l-3 3c-1,0 -1,1 -1,1l1 2c-1,0 -1,1 -2,2l-1 0c-1,0 -1,0 -1,1l-1 4c0,1 0,1 1,2l1 0c0,1 0,2 1,4l-1 0c0,1 -1,1 0,2l2 3c1,1 1,1 2,1l0 -1c1,1 3,2 4,2l0 1c-1,0 0,1 0,1l5 1c0,0 1,0 1,-1l0 -1c2,0 3,0 4,-1l1 1c0,0 1,0 1,0l4 -3c0,0 0,-1 0,-1l-1 -1c1,-1 2,-2 2,-3l1 0c1,0 1,0 1,-1l1 -4c0,-1 0,-1 -1,-1l-1 0c0,-2 -1,-3 -1,-4l1 -1c1,0 1,-1 0,-1zm-8 3l0 0c3,3 2,8 -1,10 -3,2 -8,1 -10,-2 -2,-3 -1,-7 2,-9 3,-3 7,-2 9,1z"/>
    <path fill="#E3EFEF" fill-rule="nonzero" d="M389 270l-1 -2c0,-1 -1,-1 -1,-1l-1 1c0,-1 0,-1 -1,-1l1 -1c0,-1 0,-1 -1,-1l-2 -1c0,0 0,0 0,0l-1 1c-1,0 -1,0 -2,0l0 -1c0,0 0,-1 -1,0l-2 0c0,0 0,1 0,1l0 1c-1,0 -1,0 -1,1l-1 -1c0,0 -1,0 -1,1l-1 2c0,0 0,0 0,1l1 0c0,0 0,1 0,2l-1 0c0,0 0,0 0,1l1 2c0,0 0,0 0,0l1 0c0,1 0,1 1,2l0 0c0,0 0,1 0,1l2 1c0,0 1,0 1,0l0 -1c1,0 2,0 2,0l0 1c1,0 1,0 1,0l2 -1c1,0 1,0 1,0l-1 -1c1,0 1,-1 2,-1l0 0c1,0 1,0 1,0l1 -2c0,0 0,-1 0,-1l-1 0c0,-1 0,-1 0,-2l1 0c0,0 1,-1 1,-1zm-5 0l0 0c1,2 0,4 -2,5 -2,1 -4,0 -5,-2 -1,-2 0,-4 2,-5 2,-1 4,0 5,2z"/>
    <path fill="#E3EFEF" fill-rule="nonzero" d="M350 254c0,-3 2,-5 5,-5 3,0 5,2 5,5 0,3 -2,5 -5,5 -3,0 -5,-2 -5,-5z"/>
    <path fill="#72B0B8" d="M352 253c0,-1 1,-2 3,-2 2,0 3,1 3,2 0,2 -1,3 -3,3 -2,0 -3,-1 -3,-3z"/>
    <path fill="#62888B" fill-rule="nonzero" d="M336 274c-2,0 -5,-2 -6,-3 -1,-2 -2,-4 -1,-6 0,-2 1,-4 3,-5l17 -11c3,-1 5,-2 6,-2 2,0 4,1 5,3 1,1 1,3 1,5 -1,2 -2,3 -4,5l-16 12c-1,1 -3,2 -5,2zm19 -26l0 0c-1,0 -3,1 -5,2l-17 11c-2,1 -3,2 -3,4 0,2 0,3 1,5 1,2 3,2 5,2 2,0 3,0 5,-1l15 -12c2,-1 3,-3 4,-4 0,-2 0,-3 -1,-5 -1,-1 -2,-2 -4,-2z"/>
    <path fill="#62888B" fill-rule="nonzero" d="M381 276c-2,0 -3,-1 -5,-2l-24 -16c-4,-2 -3,-6 -2,-8l0 0c1,-2 3,-3 5,-3 1,0 3,1 4,2l22 17c3,2 5,5 3,8l0 0 0 0c-1,1 -2,2 -3,2zm-30 -26l0 0 0 0c-1,2 -1,5 1,7l25 16c1,1 3,2 4,2 1,0 2,-1 2,-1l0 -1c1,-2 0,-4 -2,-6l-23 -17c-1,-1 -2,-1 -3,-1 -2,0 -3,0 -4,1z"/>
   </g>
  </g>
 </g>
</svg>
