<?xml version="1.0" encoding="utf-8"?>
<!-- Generator: Adobe Illustrator 24.2.1, SVG Export Plug-In . SVG Version: 6.00 Build 0)  -->
<svg version="1.1"
	 id="Layer_1" shape-rendering="geometricPrecision" image-rendering="optimizeQuality" text-rendering="geometricPrecision"
	 xmlns="http://www.w3.org/2000/svg" xmlns:xlink="http://www.w3.org/1999/xlink" x="0px" y="0px" viewBox="0 0 250 250"
	 style="enable-background:new 0 0 250 250;" xml:space="preserve">
<style type="text/css">
	.st0{fill:none;stroke:#FFFFFF;stroke-width:0.5002;stroke-miterlimit:10;}
	.st1{fill:#A3A3A3;}
	.st2{fill:#BFC1C1;}
	.st3{fill:#D1D3D3;}
	.st4{fill:#868989;}
	.st5{fill:#B3B3B3;}
	.st6{fill:#E5E5E5;}
	.st7{fill:#F2F1ED;}
	.st8{fill:#666666;}
	.st9{fill:#D3D1C5;}
	.st10{fill:#070707;}
	.st11{fill:#2B2B2A;}
	.st12{fill:#C6C6C6;}
	.st13{fill:#DCDCDE;}
	.st14{fill:#282F89;}
	.st15{fill:#4551A3;}
	.st16{fill:#B8BCD9;}
	.st17{fill:#274C25;}
	.st18{fill:#3A6D3B;}
	.st19{fill:#C7D8D6;}
	.st20{fill:#871906;}
	.st21{fill:#AF3225;}
	.st22{fill:#DAB490;}
	.st23{fill:#AF1010;}
	.st24{fill:#DF3433;}
	.st25{fill:#BF1F1F;}
	.st26{fill:#F5F4D7;}
	.st27{fill:#B7B67D;}
	.st28{fill:#A79E74;}
	.st29{fill:#EFA5AC;}
	.st30{fill:#123875;}
	.st31{fill:#4467CF;}
	.st32{fill:#3F488F;}
	.st33{fill:#9CBBFF;}
	.st34{fill:#CCAA14;}
	.st35{fill:#E6CD75;}
	.st36{fill:#D9BA21;}
	.st37{fill:#FFF1B5;}
	.st38{fill:#81827E;}
	.st39{fill:#D9DAD4;}
	.st40{fill:#272A2C;}
	.st41{fill:#6A6F72;}
	.st42{fill:#0A0A0A;}
	.st43{fill:#505456;}
	.st44{fill:#838384;}
	.st45{fill:#576472;}
	.st46{fill:#141517;}
	.st47{fill:#666F75;}
	.st48{fill:#74818C;}
	.st49{fill:#55595E;}
	.st50{fill:#817D79;}
	.st51{fill:#B6C4B0;}
	.st52{fill:#6B7A87;}
	.st53{fill:#72130E;}
	.st54{fill:#A53128;}
	.st55{fill:#D1CBCB;}
	.st56{fill:#F9F2F2;}
	.st57{fill:#49525C;}
	.st58{fill:#7C8F9C;}
	.st59{fill:#E8C560;}
	.st60{fill:#EFDCB1;}
	.st61{fill:#201B18;}
	.st62{fill:#3A322D;}
	.st63{fill:#D6BA6B;}
	.st64{fill:#A3998E;}
	.st65{fill:#765C3B;}
	.st66{fill:#424242;}
	.st67{fill:#020A07;}
	.st68{fill:#5E5E5E;}
	.st69{fill:#2F3030;}
	.st70{fill:#C22F3D;}
	.st71{fill:#D35357;}
	.st72{fill:#C53139;}
	.st73{fill:#CC3D46;}
	.st74{fill:#515151;}
	.st75{fill:#C04736;}
	.st76{fill:#E06E65;}
	.st77{fill:#3C65AB;}
	.st78{fill:#6399D3;}
	.st79{fill:#2866A1;}
	.st80{fill:#4E8BCC;}
	.st81{fill:#3679C0;}
	.st82{fill:#84ACE0;}
	.st83{fill:#739BC0;}
	.st84{fill:#B2D2EA;}
	.st85{fill:#302D39;}
	.st86{fill:#525B6D;}
	.st87{fill:#272525;}
	.st88{fill:#E7B851;}
	.st89{fill:#E0A446;}
	.st90{fill:#E4B253;}
	.st91{fill:#E1A429;}
	.st92{fill:#D6D4CE;}
	.st93{fill:#EFC36C;}
	.st94{fill:#474446;}
	.st95{fill:#FFFFFF;}
	.st96{fill:#231D1B;}
	.st97{fill:#E5DFBA;}
	.st98{fill:#CBCCCA;}
	.st99{fill:#E4E5E3;}
	.st100{fill:#D0B190;}
	.st101{fill:#2B2A2A;}
	.st102{fill:#000200;}
	.st103{fill:#CCCCCC;}
	.st104{fill:#191717;}
	.st105{fill:#4E4C4D;}
	.st106{fill:#6B6A6B;}
	.st107{fill:#DBD8D7;}
	.st108{fill:#A3A0A0;}
	.st109{fill:#010101;}
	.st110{fill:#5E5B5D;}
	.st111{fill:#242120;}
	.st112{fill:#F5F3EE;}
	.st113{fill:#E4DFD7;}
	.st114{fill:#C7C7C9;}
	.st115{fill:#434142;}
	.st116{fill:#66686D;}
	.st117{fill:#E4E3E1;}
	.st118{fill:#969696;}
	.st119{fill:#949289;}
	.st120{fill:#ED908E;}
	.st121{fill:#E55C55;}
	.st122{fill:#C53D2C;}
	.st123{fill:#E45243;}
	.st124{fill:#A2362A;}
	.st125{fill:#646568;}
	.st126{fill:#E2E1E6;}
	.st127{fill:#ECC163;}
	.st128{fill:#E8AF50;}
	.st129{fill:#E8D2A7;}
	.st130{fill:#171817;}
	.st131{fill:#444A4B;}
	.st132{fill:#FBF5E0;}
	.st133{fill:#7C7661;}
	.st134{fill:#EDE7D3;}
	.st135{fill:#F2D792;}
	.st136{fill:#F0CE89;}
	.st137{fill:#292D35;}
	.st138{fill:#37393F;}
	.st139{fill:#222227;}
	.st140{fill:#D0CDCA;}
	.st141{fill:#817C75;}
	.st142{fill:#21211F;}
	.st143{fill:#F5D340;}
	.st144{fill:#F4E08C;}
	.st145{fill:#686863;}
	.st146{fill:#978B74;}
	.st147{fill:#B29046;}
	.st148{fill:#5C5D61;}
	.st149{fill:#76777C;}
	.st150{fill:#7F7C6E;}
	.st151{fill:#D7D7D5;}
	.st152{fill:#7E7F7A;}
	.st153{fill:#1E247C;}
	.st154{fill:#3F4AA0;}
	.st155{fill:#124089;}
	.st156{fill:#2F57A6;}
	.st157{fill:#C2CFDE;}
	.st158{fill:#EBF0ED;}
	.st159{fill:#000203;}
	.st160{fill:#C5CED6;}
	.st161{fill:#696E70;}
	.st162{fill:#2D3133;}
</style>
<g id="Layer_x0020_1">
	<rect x="-20" y="-20" class="st0" width="290" height="290"/>
	<g id="_2861470039312">
		<g>
			<path class="st1" d="M52.8,167.6L52.8,167.6c-1.4,1.7-8.4,3.1-16.4,3.1s-14.6-1.4-16-3.1H20l0,0l0.3,2.1c0,2.4,7.3,4.5,16,4.5
				c9.1,0,16-2.1,16-4.5l0.7-2.1C52.8,167.6,52.8,167.6,52.8,167.6L52.8,167.6z"/>
			<polygon class="st2" points="32.2,128.3 33.6,128.7 33.6,128.7 			"/>
			<path class="st2" d="M12.7,124.5L12.7,124.5L12.7,124.5z"/>
			<path class="st2" d="M13.8,124.8c0,0,0,0,0.3,0.3l0,0l0,0C14.1,124.8,13.8,124.8,13.8,124.8z"/>
			<polygon class="st2" points="60.1,124.8 60.1,124.5 60.1,124.5 			"/>
			<polygon class="st2" points="14.1,125.2 14.1,125.2 14.1,125.2 14.1,125.2 			"/>
			<path class="st2" d="M58.7,125.2L58.7,125.2L58.7,125.2z"/>
			<path class="st2" d="M13.4,124.8L13.4,124.8L13.4,124.8z"/>
			<polygon class="st2" points="37.1,128.7 37.1,128.7 37.1,127.6 37.1,127.6 			"/>
			<path class="st2" d="M13.1,124.8L13.1,124.8z"/>
			<path class="st1" d="M10.3,121.7L10.3,121.7L10.3,121.7z"/>
			<path class="st1" d="M10.3,121.7c0.3,0,0.3,0,0.3-0.3C10.6,121.7,10.6,121.7,10.3,121.7z"/>
			<path class="st1" d="M9.9,122L9.9,122L9.9,122z"/>
			<path class="st1" d="M10.6,121.3c0.3,0,0.7,0,0.7-0.3C11.3,121.3,11,121.3,10.6,121.3z"/>
			<path class="st1" d="M9.2,122.7L9.2,122.7z"/>
			<path class="st1" d="M8.9,123.4L8.9,123.4L8.9,123.4z"/>
			<path class="st1" d="M9.2,123.1L9.2,123.1L9.2,123.1z"/>
			<path class="st1" d="M8.9,123.4l0.3-0.3L8.9,123.4z"/>
			<path class="st1" d="M9.6,122.4c0-0.3,0.3-0.3,0.3-0.3S9.6,122,9.6,122.4z"/>
			<path class="st1" d="M9.6,122.4L9.6,122.4z"/>
			<path class="st1" d="M9.2,122.7l0.3-0.3L9.2,122.7z"/>
			<path class="st1" d="M62.9,121.7c0,0.3,0,0.3,0,0.3S62.9,122,62.9,121.7z"/>
			<path class="st1" d="M61.8,121.3c0,0,0,0,0.3,0C61.8,121.3,61.8,121.3,61.8,121.3z"/>
			<path class="st1" d="M63.2,122v0.3V122z"/>
			<polygon class="st1" points="60.8,124.5 60.8,124.1 60.8,124.1 			"/>
			<path class="st1" d="M62.2,121.3c0,0,0,0,0,0.3C62.2,121.3,62.2,121.3,62.2,121.3z"/>
			<path class="st1" d="M62.2,121.7c0.3,0,0.3,0,0.7,0C62.5,121.7,62.5,121.7,62.2,121.7z"/>
			<path class="st1" d="M63.6,122.4L63.6,122.4z"/>
			<path class="st1" d="M63.2,122L63.2,122z"/>
			<path class="st1" d="M63.6,122.4v0.3V122.4z"/>
			<path class="st1" d="M63.9,122.7v0.3V122.7z"/>
			<path class="st1" d="M63.9,123.1L63.9,123.1z"/>
			<path class="st1" d="M63.6,122.7h0.3H63.6z"/>
			<path class="st1" d="M61.8,121.3c-0.3-0.3-0.3-0.3-0.7-0.3l0,0C61.5,121,61.5,121,61.8,121.3z"/>
			<path class="st1" d="M63.9,123.1v0.3V123.1z"/>
			<path class="st1" d="M63.9,123.4L63.9,123.4z"/>
			<path class="st1" d="M12.4,124.5c0,0,0,0,0.3,0C12.4,124.5,12.4,124.5,12.4,124.5z"/>
			<path class="st1" d="M63.9,124.1L63.9,124.1l-0.3,0.3c-0.7,0.7-1.7,1.4-3.5,2.1c-4.5,1.7-12.9,2.8-22.3,2.8c-0.3,0-0.7,0-1.4,0
				c-1,0-2.1,0-3.1,0l0,0c-7.7-0.3-14.3-1-18.8-2.4c-2.4-0.7-4.2-1.4-4.9-2.4c-0.3,0-0.3-0.3-0.3-0.3l0,0l0,0
				c-0.3-0.3-0.3-0.3-0.3-0.7v1c0,0.3,0.3,0.7,0.3,1c0.7,0.3,1.4,1,2.4,1.4c0.7,0.3,1.7,0.7,2.8,1c3.8,1,8.7,1.7,14.3,2.1l0,0
				c2.4,0.3,5.2,0.3,7.7,0.3c2.1,0,4.2,0,6.3,0c7.3-0.7,13.6-1.4,17.1-2.8c0.7-0.3,1-0.3,1.4-0.7c1.4-0.3,2.1-1,2.4-1.4
				c0.3-0.3,0.3-0.7,0.3-1v-1C63.9,123.8,63.9,123.8,63.9,124.1L63.9,124.1z"/>
			<path class="st1" d="M13.1,120.3c-0.3,0.3-1,0.7-1.7,0.7C12,121,12.7,120.6,13.1,120.3L13.1,120.3z"/>
			<path class="st1" d="M60.4,124.5L60.4,124.5L60.4,124.5z"/>
			<path class="st1" d="M12.7,124.5L12.7,124.5L12.7,124.5z"/>
			<path class="st1" d="M37.1,128.7L37.1,128.7L37.1,128.7z"/>
			<path class="st1" d="M11.7,124.1c0.3-0.3,0.7-0.3,1-0.7c0.3,0,0.7,0,1-0.3l-0.3-1c-1.4,0.7-2.1,1-2.4,1.4
				C11,123.8,11.3,123.8,11.7,124.1H12l0.3,0.3l0,0C12,124.1,11.7,124.1,11.7,124.1z"/>
			<path class="st1" d="M61.5,124.1c-0.3,0-0.3,0-0.3,0S61.1,124.1,61.5,124.1c0.3-0.3,0.3-0.3,0.7-0.7c-0.3,0-0.7-0.3-1.4-0.7v1
				C60.8,123.8,61.1,123.8,61.5,124.1z"/>
			<path class="st3" d="M32.2,128.3l1.4,0.3l0,0L32.2,128.3z M63.9,123.4v-0.3l0,0l0,0l0,0v-0.3l0,0h-0.3l0,0v-0.3l0,0l0,0h-0.3V122
				l0,0l0,0h-0.3c0,0,0,0,0-0.3l0,0c-0.3,0-0.3,0-0.7,0l0,0c0-0.3,0-0.3,0-0.3l0,0c-0.3,0-0.3,0-0.3,0l0,0c-0.3-0.3-0.3-0.3-0.7-0.3
				l-0.3,1.7c0.7,0.3,1,0.7,1.4,0.7c-0.3,0.3-0.3,0.3-0.7,0.7c-0.3,0-0.3,0-0.3,0h-0.3l0,0v0.3l0,0h-0.3l0,0l0,0c-0.3,0-0.3,0-0.3,0
				l0,0v0.3c-0.3,0-0.7,0-0.7,0c-0.3,0-0.3,0-0.3,0.3h-0.3l0,0l0,0l0,0l0,0c0,0,0,0-0.3,0c0,0,0,0-0.3,0c0,0,0,0.3-0.3,0.3l0,0h-0.3
				c-0.3,0-0.3,0-0.3,0c-0.3,0-0.3,0-0.3,0v0.3h-0.3l0,0c-0.3,0-0.3,0-0.3,0l0,0h-0.3c0,0,0,0-0.3,0c-0.3,0-0.3,0.3-0.7,0.3
				s-0.7,0-1,0h-0.3c-0.3,0.3-0.7,0.3-0.7,0.3h-0.3l0,0c-0.3,0-0.3,0-0.7,0l0,0H51c0,0,0,0-0.3,0c0,0,0,0,0,0.3h-0.3c0,0,0,0-0.3,0
				l0,0c-0.3,0-0.3,0-0.3,0l0,0c-0.3,0-0.3,0-0.3,0h-0.3l0,0c-0.3,0-0.3,0-0.7,0l0,0c-0.3,0-0.3,0-0.3,0c-0.3,0-0.3,0.3-0.7,0.3l0,0
				c-0.3,0-0.3,0-0.3,0l0,0c-0.3,0-0.3,0-0.7,0h-0.3c-0.3,0-0.3,0-0.7,0l0,0h-0.3h-0.3l0,0c-0.3,0-0.3,0-0.7,0c0,0,0,0-0.3,0l0,0H43
				c0,0,0,0-0.3,0l0,0c0,0.3-0.3,0.3-0.3,0.3H42l0,0c-0.3,0-0.7,0-1,0l0,0c0,0,0,0-0.3,0c0,0-0.3,0-0.7,0c0,0,0,0-0.3,0l0,0
				c-0.3,0-0.7,0-1,0l0,0h-0.3c-0.3,0-0.7,0-1,0l0,0v1l0,0l0,0v-1l0,0c-0.3,0-0.3,0-0.7,0c-1.4,0-2.8,0-3.8,0c-0.3,0-0.3,0-0.3,0
				h-0.3c-2.4-0.3-4.9-0.3-7.3-0.7l0,0l0,0c-0.3,0-0.3,0-0.3,0h-0.3c-0.3,0-0.7,0-1,0l0,0c0,0,0,0-0.3,0l-0.3-0.3l0,0l0,0
				c-0.3,0-0.7,0-0.7,0l0,0h-0.3l0,0c-0.3,0-0.7,0-1,0v-0.3c-0.3,0-0.7,0-1,0l0,0c-0.3,0-0.3,0-0.7,0l-0.3-0.3c-0.3,0-0.3,0-0.3,0
				c-0.3,0-0.3,0-0.7,0l0,0c-0.3,0-0.3,0-0.3,0l0,0c0-0.3-0.3-0.3-0.3-0.3l0,0h-0.3l0,0l0,0c-0.3,0-0.3,0-0.3,0h-0.3l0,0l0,0l0,0
				v-0.3c-0.3,0-0.3,0-0.3,0l0,0c-0.3,0-0.3,0-0.3,0l0,0h-0.3l0,0l0,0l0,0c-0.3-0.3-0.3-0.3-0.3-0.3h-0.3l0,0l0,0c0,0,0,0-0.3,0l0,0
				c0-0.3-0.3-0.3-0.3-0.3l0,0l0,0l0,0c-0.3,0-0.3,0-0.3,0l0,0l0,0l-0.3-0.3h-0.3c-0.3-0.3-0.7-0.3-0.7-0.7c0.3-0.3,1-0.7,2.4-1.4
				l-0.3-1.7c-0.3,0.3-1,0.7-1.7,0.7l0,0c0,0.3-0.3,0.3-0.7,0.3l0,0c0,0.3,0,0.3-0.3,0.3l0,0l0,0L9.9,122l0,0l0,0c0,0-0.3,0-0.3,0.3
				l0,0l0,0l0,0l-0.3,0.3l0,0l0,0v0.3l0,0l0,0l-0.3,0.3l0,0l0,0c0,0.3,0,0.3,0.3,0.7l0,0l0,0c0,0,0,0.3,0.3,0.3
				c0.7,1,2.4,1.7,4.9,2.4c4.5,1.4,11.1,2.1,18.8,2.4l0,0c1,0,2.1,0,3.1,0c0.7,0,1,0,1.4,0c9.4,0,17.8-1,22.3-2.8
				c1.7-0.7,2.8-1.4,3.5-2.1l0.3-0.3l0,0l0,0C63.9,123.8,63.9,123.8,63.9,123.4L63.9,123.4L63.9,123.4z"/>
			<polygon class="st4" points="14.5,125.2 14.5,125.2 14.1,125.2 			"/>
			<path class="st4" d="M44.8,127.3h0.3l0,0c-0.3,0-0.3,0-0.7,0H44.8z"/>
			<polygon class="st4" points="21.4,126.6 21.4,126.6 21.1,126.6 			"/>
			<path class="st4" d="M49.3,126.9c0,0,0,0,0.3,0l0,0c-0.3,0-0.3,0-0.7,0H49.3z"/>
			<path class="st4" d="M16.9,125.9c0.3,0,0.3,0,0.3,0S17.3,125.9,16.9,125.9z"/>
			<path class="st4" d="M24.6,126.9L24.6,126.9L24.6,126.9c0,0,0,0-0.3,0H24.6z"/>
			<path class="st4" d="M43.4,127.3c0.3,0,0.3,0,0.3,0H43.4L43.4,127.3z"/>
			<path class="st4" d="M16.6,125.5v0.3l0,0l0,0C16.6,125.9,16.6,125.9,16.6,125.5z"/>
			<path class="st4" d="M15.9,125.5L15.9,125.5L15.9,125.5h0.3C15.9,125.5,15.9,125.5,15.9,125.5z"/>
			<path class="st4" d="M40.9,127.6L40.9,127.6L40.9,127.6L40.9,127.6z"/>
			<path class="st4" d="M42.3,127.6c0,0,0.3,0,0.3-0.3l0,0c0,0-0.3,0.3-0.7,0.3H42.3z"/>
			<path class="st4" d="M38.5,127.6L38.5,127.6L38.5,127.6z"/>
			<path class="st4" d="M39.5,127.6c0.3,0,0.3,0,0.3,0H39.5L39.5,127.6z"/>
			<path class="st4" d="M15.2,125.5L15.2,125.5h0.3C15.2,125.5,15.2,125.5,15.2,125.5L15.2,125.5z"/>
			<path class="st4" d="M48.2,126.9L48.2,126.9h-0.3C47.9,126.9,47.9,126.9,48.2,126.9z"/>
			<path class="st4" d="M58.3,125.2c0.3,0,0.3,0,0.3,0l0,0l0,0l0,0l0,0C58.7,125.2,58.7,125.2,58.3,125.2z"/>
			<path class="st4" d="M32.2,127.6c0,0,0,0,0.3,0c-0.3,0-0.3,0-0.7,0H32.2z"/>
			<path class="st4" d="M46.1,127.3h-0.3H46.1z"/>
			<path class="st4" d="M46.8,127.3c0,0,0,0,0.3,0l0,0H46.8L46.8,127.3z"/>
			<path class="st4" d="M50.3,126.9h0.3c-0.3,0-0.3,0-0.7,0C50.3,126.9,50.3,126.9,50.3,126.9z"/>
			<path class="st4" d="M55.9,125.9L55.9,125.9L55.9,125.9c0,0,0,0,0.3,0C55.9,125.9,55.9,125.9,55.9,125.9z"/>
			<path class="st4" d="M56.2,125.9L56.2,125.9h0.3v-0.3C56.6,125.5,56.6,125.9,56.2,125.9z"/>
			<path class="st4" d="M51.4,126.6L51.4,126.6L51.4,126.6z"/>
			<path class="st4" d="M60.1,124.5c0,0,0,0,0.3,0c-0.3,0-0.3,0-0.3,0.3V124.5z"/>
			<path class="st4" d="M13.8,123.1c-0.3,0.3-0.7,0.3-1,0.3c-0.3,0.3-0.7,0.3-1,0.7c0,0,0.3,0,0.7,0.3l0,0c0,0,0,0,0.3,0l0,0l0,0
				l0,0c0,0,0.3,0,0.3,0.3l0,0c0.3,0,0.3,0,0.3,0l0,0h0.3c0,0,0.3,0,0.3,0.3L13.8,123.1z"/>
			<path class="st4" d="M61.5,124.1c-0.3-0.3-0.7-0.3-0.7-0.3l-0.3,0.7l0,0h0.3v-0.3h0.3C61.1,124.1,61.1,124.1,61.5,124.1z"/>
			<path class="st5" d="M13.4,122l0.3,1l0.3,2.1l0,0l0,0l0,0h0.3c0,0,0,0,0.3,0l0,0c0,0,0,0,0.3,0v0.3c0,0,0,0,0.3,0c0,0,0,0,0.3,0
				c0,0,0,0,0.3,0l0,0l0,0h0.3c0,0.3,0,0.3,0,0.3h0.3l0,0l0,0c0.3,0,0.3,0,0.3,0h0.3c0,0,0,0,0.3,0l0.3,0.3c0.3,0,0.3,0,0.7,0
				c0.3,0,0.7,0,1,0v0.3c0.3,0,0.7,0,1,0l0,0h0.3c0,0,0.3,0,0.7,0l0,0l0.3,0.3c0.3,0,0.3,0,0.3,0c0.3,0,0.7,0,1,0c0.3,0,0.3,0,0.3,0
				c0.3,0,0.3,0,0.3,0c2.4,0.3,4.9,0.3,7.3,0.7c0.3,0,0.3,0,0.7,0l1.4-8l0.3-1.7l0.3-3.1l-1.4-8.7c0,0-0.7-2.4-5.2-3.1
				c4.5,0.7,5.2,3.1,5.2,3.1c-2.4-3.1-7.3,0.3-7.3,0.3c0-4.2-6.6-3.8-7-3.8l0,0l0,0l-8.7,1.4l2.8,16.4l0,0L13.4,122z"/>
			<path class="st6" d="M26,106.4c0,0,4.9-3.5,7.3-0.3c0,0-0.7-2.4-5.2-3.1c-2.1-0.7-4.9-0.7-9.1-0.3l0,0
				C19.3,102.5,26,102.2,26,106.4z"/>
			<path class="st2" d="M53.1,167c0-0.3-0.3-0.7-0.7-1C52.8,166.3,53.1,166.6,53.1,167L53.1,167z M20,167L20,167c0-0.3,0-0.7,0.7-1
				C20,166.3,20,166.6,20,167z M20,167.3L20,167.3L20,167.3z M42.7,130.4c-2.1,0-4.2,0-6.3,0c-2.4,0-5.2,0-7.7-0.3l0,0
				c-5.6-0.3-10.4-1-14.3-2.1c-1-0.3-2.1-0.7-2.8-1l8.4,40.7l0,0l0,0h0.3l0,0c1.4,1.7,8,3.1,16,3.1s15-1.4,16.4-3.1l0.3-0.3
				l-0.3,0.3l0,0c0,0,0,0,0.3,0l8-40.7c-0.3,0.3-0.7,0.3-1.4,0.7C56.2,129,50,129.7,42.7,130.4z"/>
			<path class="st7" d="M37.4,100.5L37.4,100.5z"/>
			<path class="st7" d="M47.2,96.3L47.2,96.3L47.2,96.3L47.2,96.3z"/>
			<path class="st7" d="M47.9,96.3L47.9,96.3z"/>
			<path class="st7" d="M48.6,96.3h-0.3C48.6,96.3,48.6,96.3,48.6,96.3L48.6,96.3z"/>
			<path class="st7" d="M46.8,96.3L46.8,96.3L46.8,96.3L46.8,96.3z"/>
			<path class="st7" d="M50.7,96.3L50.7,96.3H51C51,96.3,51,96.3,50.7,96.3z"/>
			<path class="st7" d="M52.1,96.3h0.3H52.1z"/>
			<path class="st7" d="M52.8,96.3h-0.3c0.3,0,0.3,0,0.7,0C52.8,96.3,52.8,96.3,52.8,96.3z"/>
			<path class="st7" d="M51.4,96.3L51.4,96.3c0,0,0,0,0.3,0H51.4z"/>
			<path class="st7" d="M45.8,96.3L45.8,96.3L45.8,96.3z"/>
			<path class="st7" d="M48.9,96.3L48.9,96.3c0,0,0,0,0.3,0H48.9z"/>
			<path class="st7" d="M45.1,96.3L45.1,96.3z"/>
			<path class="st7" d="M44.1,96.6L44.1,96.6z"/>
			<path class="st7" d="M38.1,99.4L38.1,99.4L38.1,99.4z"/>
			<path class="st7" d="M42.7,97L42.7,97L42.7,97z"/>
			<path class="st7" d="M43,97L43,97L43,97z"/>
			<path class="st7" d="M44.8,96.6L44.8,96.6L44.8,96.6z"/>
			<path class="st8" d="M34,119.6l-1.4,8c1,0,2.4,0,3.8,0c0.3,0,0.3,0,0.7,0c0.3,0,0.7,0,1,0h0.3l0,0c0.3,0,0.7,0,1,0l0,0h0.3
				c0.3,0,0.7,0,0.7,0h0.3l0,0c0.3,0,0.7,0,1,0l0,0c0.3,0,0.7-0.3,0.7-0.3c0.3,0,0.3,0,0.3,0h0.3h0.3c0.3,0,0.3,0,0.7,0l0,0
				c0.3,0,0.3,0,0.7,0s0.3,0,0.7,0h0.3c0.3,0,0.3,0,0.7,0h0.3c0.3,0,0.3-0.3,0.7-0.3l0,0h0.3c0.3,0,0.3,0,0.7,0l0,0
				c0.3,0,0.3,0,0.7,0c0,0,0,0,0.3,0l0,0c0.3,0,0.3,0,0.7,0c0-0.3,0-0.3,0-0.3c0.3,0,0.3,0,0.7,0l0,0c0.3,0,0.3,0,0.7,0
				c0,0,0,0,0.3,0c0,0,0.3,0,0.7-0.3h0.3c0.3,0,0.7,0,1,0s0.3-0.3,0.7-0.3c0.3,0,0.3,0,0.3,0h0.3c0,0,0,0,0.3,0l0,0
				c0.3,0,0.3-0.3,0.3-0.3h0.3c0,0,0,0,0.3,0h0.3l0,0c0.3,0,0.3-0.3,0.3-0.3c0.3,0,0.3,0,0.3,0c0.3,0,0.3,0,0.3,0H59
				c0-0.3,0-0.3,0.3-0.3c0,0,0.3,0,0.7,0l0,0c0-0.3,0-0.3,0.3-0.3l0,0l0,0l0.3-0.7v-1l0.3-1.7l0,0l4.2-22.6l-10.8-2.1l0,0l0,0
				c-0.3,0-8.7-0.3-8.4,5.2c0,0-6.3-4.9-8.7-1l0,0l-2.8,14.3l-0.3,3.1L34,119.6z"/>
			<path class="st9" d="M46.1,101.5c-0.3-5.6,8-5.2,8.4-5.2l0,0c-0.3,0-1,0-1.4,0c-0.3,0-0.3,0-0.7,0l0,0h-0.3c-0.3,0-0.3,0-0.3,0
				c-0.3,0-0.3,0-0.3,0c-0.3,0-0.3,0-0.3,0h-0.3c-0.7,0-1,0-1.4,0s-0.3,0-0.3,0h-0.3c0,0,0,0-0.3,0c0,0,0,0-0.3,0l0,0
				c-0.3,0-0.3,0-0.7,0l0,0h-0.3l0,0c-0.3,0-0.7,0-1,0l0,0c0,0-0.3,0-0.7,0l0,0c0,0-0.3,0-0.3,0.3l0,0c-0.3,0-0.3,0-0.7,0l0,0
				c-0.3,0-0.7,0-1,0.3l0,0h-0.3l0,0c-2.4,0.7-3.8,1.7-4.5,2.4l0,0c-0.3,0.3-0.7,0.7-0.7,1l0,0l0,0l0,0
				C39.9,96.6,46.1,101.5,46.1,101.5z"/>
		</g>
		<g>
			<polygon class="st10" points="106,174.3 108.5,174.3 108.5,60.1 106,60.1 			"/>
			<polygon class="st10" points="126.6,174.3 129,174.3 129,60.1 126.6,60.1 			"/>
			<polygon class="st11" points="108.5,174.3 126.6,174.3 126.6,60.1 108.5,60.1 			"/>
			<path class="st12" d="M123.4,147.8c0,3.1-2.8,5.6-5.9,5.6s-5.6-2.4-5.6-5.6s2.4-5.9,5.6-5.9S123.4,144.7,123.4,147.8z"/>
			<path class="st10" d="M121.7,147.8c0,2.1-2.1,3.8-4.2,3.8s-3.8-1.7-3.8-3.8c0-2.4,1.7-4.2,3.8-4.2S121.7,145.4,121.7,147.8z"/>
			<polygon class="st13" points="110.6,132.8 124.8,132.8 124.8,78.2 110.6,78.2 			"/>
			<polygon class="st10" points="110.6,78.2 124.8,78.2 124.8,68.4 110.6,68.4 			"/>
			<polygon class="st14" points="83.4,174.3 85.8,174.3 85.8,60.1 83.4,60.1 			"/>
			<polygon class="st14" points="103.9,174.3 106.4,174.3 106.4,60.1 103.9,60.1 			"/>
			<polygon class="st15" points="85.8,174.3 103.9,174.3 103.9,60.1 85.8,60.1 			"/>
			<path class="st12" d="M100.8,147.8c0,3.1-2.8,5.6-5.9,5.6s-5.6-2.4-5.6-5.6s2.4-5.9,5.6-5.9S100.8,144.7,100.8,147.8z"/>
			<path class="st10" d="M98.7,147.8c0,2.1-1.7,3.8-3.8,3.8s-3.8-1.7-3.8-3.8c0-2.4,1.7-4.2,3.8-4.2S98.7,145.4,98.7,147.8z"/>
			<polygon class="st16" points="87.9,132.8 101.8,132.8 101.8,78.2 87.9,78.2 			"/>
			<polygon class="st10" points="87.9,78.2 101.8,78.2 101.8,68.4 87.9,68.4 			"/>
			<polygon class="st17" points="60.8,174.3 63.2,174.3 63.2,60.1 60.8,60.1 			"/>
			<polygon class="st17" points="81.3,174.3 83.7,174.3 83.7,60.1 81.3,60.1 			"/>
			<polygon class="st18" points="63.2,174.3 81.3,174.3 81.3,60.1 63.2,60.1 			"/>
			<path class="st12" d="M77.8,147.8c0,3.1-2.4,5.6-5.6,5.6s-5.9-2.4-5.9-5.6s2.8-5.9,5.9-5.9S77.8,144.7,77.8,147.8z"/>
			<path class="st10" d="M76.1,147.8c0,2.1-1.7,3.8-3.8,3.8s-3.8-1.7-3.8-3.8c0-2.4,1.7-4.2,3.8-4.2S76.1,145.4,76.1,147.8z"/>
			<polygon class="st19" points="64.9,132.8 79.2,132.8 79.2,78.2 64.9,78.2 			"/>
			<polygon class="st10" points="64.9,78.2 79.2,78.2 79.2,68.4 64.9,68.4 			"/>
			<polygon class="st20" points="38.1,174.3 40.2,174.3 40.2,60.1 38.1,60.1 			"/>
			<polygon class="st20" points="58.7,174.3 61.1,174.3 61.1,60.1 58.7,60.1 			"/>
			<polygon class="st21" points="40.2,174.3 58.7,174.3 58.7,60.1 40.2,60.1 			"/>
			<path class="st12" d="M55.2,147.8c0,3.1-2.4,5.6-5.6,5.6s-5.9-2.4-5.9-5.6s2.8-5.9,5.9-5.9S55.2,144.7,55.2,147.8z"/>
			<path class="st10" d="M53.5,147.8c0,2.1-1.7,3.8-3.8,3.8s-4.2-1.7-4.2-3.8c0-2.4,2.1-4.2,4.2-4.2S53.5,145.4,53.5,147.8z"/>
			<polygon class="st22" points="42.3,132.8 56.6,132.8 56.6,78.2 42.3,78.2 			"/>
			<polygon class="st10" points="42.3,78.2 56.6,78.2 56.6,68.4 42.3,68.4 			"/>
		</g>
		<g>
			<path class="st23" d="M77.5,187.5c0,0.3-1.4,0.7-3.1,0.7c-0.3,0-0.3,0-0.3,0c-1.7,0-2.8-0.3-2.8-0.7l0,0l0,0c0-0.7,1.4-1,3.1-1
				c1,0,1.7,0,2.4,0.3C77.1,186.8,77.5,187.1,77.5,187.5z"/>
			<path class="st24" d="M76.8,186.8c-0.7-0.3-1.4-0.3-2.4-0.3c-1.7,0-3.1,0.3-3.1,1c0-1.4,0.7-2.1,1.7-2.4v-0.3l0,0l0,0l0,0
				c0.3,0,0.3,0,0.3,0l0,0l0,0l0,0l0,0l0,0h0.3l0,0l0,0l0,0H74l0,0l0,0l0,0l0,0h0.3c0,0,0,0,0.3,0l0,0l0,0H75l0,0l0,0v0.3
				c0.3,0,0.3,0,0.7,0C76.1,185.8,76.4,186.1,76.8,186.8z"/>
			<path class="st24" d="M73.3,180.9c0,0,0,0-0.3,0l0,0h1.4C74,180.9,73.6,180.9,73.3,180.9z"/>
			<path class="st24" d="M75,180.9L75,180.9L75,180.9L75,180.9L75,180.9h-0.3l0,0l0,0l0,0l0,0h-0.3l0,0l0,0l0,0H75L75,180.9z"/>
			<path class="st24" d="M75.7,186.1H73v-1v-0.3l0,0l0,0l0,0c0.3,0,0.3,0,0.3,0l0,0l0,0l0,0l0,0l0,0h0.3l0,0l0,0l0,0H74l0,0l0,0l0,0
				l0,0h0.3c0,0,0,0,0.3,0l0,0l0,0H75l0,0l0,0v0.3c0.3,0,0.3,0,0.7,0V186.1z"/>
			<path class="st25" d="M77.5,187.5L77.5,187.5c0-0.3-0.3-0.7-0.7-0.7c-0.3-0.7-0.7-1-1-1.7c-0.3,0-0.3,0-0.7,0v-0.3l0,0v-2.1
				l-0.3-1.7l0,0l0,0c0.3,0,0.3,0,0.3,0l0,0l0,0l0,0c0.3-0.3,0.7-1,0.7-1.4s-0.7-0.7-1.7-0.7c0,0,0,0,0.3,0c1,0,2.1,0.3,2.1,0.7
				c0,0.7-0.3,1-1,1.4l0,0l0,0l0,0v1.7l0.3,2.4C76.8,185.4,77.5,186.1,77.5,187.5z"/>
			<path class="st24" d="M75.4,180.9L75.4,180.9L75.4,180.9z"/>
			<path class="st24" d="M75.7,179.5c0,0.3-0.3,1-0.7,1.4l0,0l0,0l0,0l0,0l0,0h-0.3l0,0l0,0l0,0l0,0h-0.3l0,0l0,0l0,0H74l0,0l0,0
				l0,0c-0.3,0-0.3,0-0.3,0l0,0l0,0c-0.3,0-0.3,0-0.3,0s0,0-0.3,0l0,0l0,0c-0.3-0.3-0.7-0.7-0.7-1.4c0-0.3,0.3-0.3,1-0.7
				c0.3,0,0.3,0,0.7,0C75,178.8,75.7,179.1,75.7,179.5z"/>
			<path class="st24" d="M75,184.7L75,184.7L75,184.7h-0.3l0,0l0,0c-0.3,0-0.3,0-0.3,0l0,0H74l0,0l0,0l0,0l0,0h-0.3l0,0l0,0l0,0l0,0
				h-0.3l0,0l0,0l0,0l0,0l0,0c0,0,0,0-0.3,0l0,0l0,0l0,0v0.3v-2.4v-1.7l0,0c0.3,0,0.3,0,0.3,0s0,0,0.3,0l0,0l0,0c0,0,0,0,0.3,0l0,0
				l0,0l0,0h0.3l0,0l0,0c0.3,0,0.3,0,0.3,0l0,0l0,0l0,0H75l0,0l0,0l0,0l0,0c0,0,0,0-0.3,0l0,0l0,0l0.3,1.7V184.7z"/>
			<path class="st24" d="M73,180.9L73,180.9L73,180.9z"/>
			<path class="st24" d="M75.4,180.9L75.4,180.9L75.4,180.9z"/>
			<path class="st26" d="M74.7,187.5v3.5l0,0l-0.3,1.7v0.3l0,0L74,191l0,0v-3.5c0,0,0,0,0.3,0l0,0H74.7z"/>
			<path class="st27" d="M74.7,187.5v3.5l0,0l-0.3,1.7v0.3l0,0v-5.6l0,0H74.7z"/>
			<path class="st28" d="M74.7,187.5v3.5l0,0l-0.3,1.7v-5.2H74.7z"/>
			<path class="st29" d="M74.3,180.9v3.8H74l0,0l0,0l0,0l0,0h-0.3l0,0v-3.8H74.3z"/>
			<path class="st30" d="M84.8,187.5c0,0.3-1.4,0.7-3.1,0.7l0,0c-1.7,0-3.1-0.3-3.1-0.7l0,0l0,0c0.3-0.7,1.7-1,3.1-1
				c1,0,2.1,0,2.8,0.3C84.8,186.8,84.8,187.1,84.8,187.5z"/>
			<path class="st31" d="M84.4,186.8c-0.7-0.3-1.7-0.3-2.8-0.3c-1.4,0-2.8,0.3-3.1,1c0-1.4,1-2.1,2.1-2.4v-0.3l0,0l0,0l0,0l0,0l0,0
				H81l0,0l0,0l0,0l0,0c0.3,0,0.3,0,0.3,0l0,0l0,0l0,0h0.3l0,0l0,0l0,0l0,0c0.3,0,0.3,0,0.3,0c0.3,0,0.3,0,0.3,0l0,0l0,0l0,0h0.3
				v0.3H83C83.7,185.8,84.1,186.1,84.4,186.8z"/>
			<path class="st31" d="M81,180.9h-0.3l0,0h1C81.7,180.9,81.3,180.9,81,180.9z"/>
			<path class="st31" d="M82.4,180.9L82.4,180.9L82.4,180.9L82.4,180.9L82.4,180.9L82.4,180.9L82.4,180.9L82.4,180.9c0,0,0,0-0.3,0
				l0,0l0,0l0,0l0,0c0,0,0,0-0.3,0h1H82.4z"/>
			<path class="st31" d="M83,186.1h-2.8l0.3-1v-0.3l0,0l0,0l0,0l0,0l0,0H81l0,0l0,0l0,0l0,0c0.3,0,0.3,0,0.3,0l0,0l0,0l0,0h0.3l0,0
				l0,0l0,0l0,0c0.3,0,0.3,0,0.3,0c0.3,0,0.3,0,0.3,0l0,0l0,0l0,0h0.3v0.3H83V186.1z"/>
			<path class="st32" d="M84.8,187.5L84.8,187.5c0-0.3,0-0.7-0.3-0.7c-0.3-0.7-0.7-1-1.4-1.7h-0.3v-0.3l0,0l-0.3-2.1v-1.7l0,0l0,0
				l0,0l0,0l0,0h0.3c0.3-0.3,0.7-1,0.7-1.4s-1-0.7-1.7-0.7l0,0c1.4,0,2.1,0.3,2.1,0.7c0,0.7-0.3,1-0.7,1.4l0,0l0,0l0,0v1.7v2.4
				C84.1,185.4,84.8,186.1,84.8,187.5z"/>
			<path class="st31" d="M83,180.9L83,180.9L83,180.9z"/>
			<path class="st31" d="M83.4,179.5c0,0.3-0.3,1-0.7,1.4h-0.3l0,0l0,0l0,0l0,0l0,0l0,0l0,0c0,0,0,0-0.3,0l0,0l0,0l0,0l0,0
				c0,0,0,0-0.3,0l0,0l0,0l0,0c-0.3,0-0.3,0-0.3,0l0,0l0,0H81l0,0h-0.3l0,0l0,0c-0.3-0.3-0.7-0.7-0.7-1.4c0-0.3,0.3-0.3,1-0.7
				c0,0,0.3,0,0.7,0C82.4,178.8,83.4,179.1,83.4,179.5z"/>
			<path class="st31" d="M82.7,184.7h-0.3l0,0l0,0l0,0c0,0,0,0-0.3,0c0,0,0,0-0.3,0l0,0l0,0l0,0l0,0l0,0h-0.3l0,0l0,0l0,0l0,0
				c0,0,0,0-0.3,0l0,0l0,0l0,0l0,0h-0.3l0,0l0,0l0,0l0,0l0,0v0.3v-2.4v-1.7l0,0H81l0,0h0.3l0,0l0,0c0,0,0,0,0.3,0l0,0l0,0l0,0
				c0.3,0,0.3,0,0.3,0l0,0l0,0h0.3l0,0l0,0l0,0l0,0l0,0l0,0l0,0l0,0l0,0l0,0v1.7L82.7,184.7z"/>
			<path class="st31" d="M80.6,180.9L80.6,180.9L80.6,180.9z"/>
			<path class="st31" d="M83,180.9L83,180.9L83,180.9z"/>
			<path class="st26" d="M82,187.5v3.5l0,0v1.7v0.3h-0.3V191l0,0v-3.5l0,0C82,187.5,82,187.5,82,187.5L82,187.5z"/>
			<path class="st27" d="M82,187.5v3.5l0,0v1.7v0.3h-0.3v-5.6C82,187.5,82,187.5,82,187.5L82,187.5z"/>
			<path class="st28" d="M82,187.5v3.5l0,0v1.7V187.5L82,187.5z"/>
			<path class="st33" d="M81.7,180.9v3.8l0,0l0,0l0,0l0,0h-0.3l0,0l0,0v-3.8H81.7z"/>
			<path class="st34" d="M92.8,187.5c0,0.3-1.4,0.7-3.1,0.7c0,0,0,0-0.3,0c-1.4,0-2.8-0.3-2.8-0.7v-0.3l0,0c0-0.3,1.4-0.7,3.1-0.7
				c1,0,2.1,0,2.4,0.3C92.8,186.8,92.8,187.1,92.8,187.5z"/>
			<path class="st35" d="M92.1,186.8c-0.3-0.3-1.4-0.3-2.4-0.3c-1.7,0-3.1,0.3-3.1,0.7c0-1,0.7-1.7,1.7-2.1c0.3-0.3,0.3-0.3,0.3-0.3
				l0,0l0,0l0,0l0,0l0,0H89l0,0l0,0l0,0l0,0h0.3l0,0l0,0l0,0l0,0l0,0l0,0c0.3,0,0.3,0,0.3,0l0,0c0.3,0,0.3,0,0.3,0h0.3l0,0l0,0l0,0
				h0.3v0.3h0.3C91.8,185.8,92.1,186.1,92.1,186.8z"/>
			<path class="st35" d="M89,180.9h-0.3l0,0h1C89.3,180.9,89.3,180.9,89,180.9z"/>
			<path class="st35" d="M90.4,180.9L90.4,180.9L90.4,180.9L90.4,180.9L90.4,180.9L90.4,180.9L90.4,180.9L90.4,180.9H90l0,0l0,0l0,0
				l0,0h-0.3h1H90.4z"/>
			<path class="st35" d="M91.1,186.1h-2.8v-1c0.3-0.3,0.3-0.3,0.3-0.3l0,0l0,0l0,0l0,0l0,0H89l0,0l0,0l0,0l0,0h0.3l0,0l0,0l0,0l0,0
				l0,0l0,0c0.3,0,0.3,0,0.3,0l0,0c0.3,0,0.3,0,0.3,0h0.3l0,0l0,0l0,0h0.3v0.3h0.3V186.1z"/>
			<path class="st36" d="M92.8,187.5L92.8,187.5c0-0.3,0-0.7-0.7-0.7c0-0.7-0.3-1-1-1.7h-0.3v-0.3l0,0l-0.3-2.1v-1.7l0,0l0,0l0,0
				l0,0l0,0h0.3c0.3-0.3,0.3-1,0.3-1.4s-0.7-0.7-1.7-0.7c0.3,0,0.3,0,0.3,0c1.4,0,2.1,0.3,2.1,0.7c0,0.7-0.3,1-0.7,1.4l0,0l0,0l0,0
				v1.7v2.4C92.1,185.4,92.8,186.1,92.8,187.5z"/>
			<path class="st35" d="M91.1,180.9L91.1,180.9L91.1,180.9z"/>
			<path class="st35" d="M91.1,179.5c0,0.3,0,1-0.3,1.4h-0.3l0,0l0,0l0,0l0,0l0,0l0,0l0,0H90l0,0l0,0l0,0l0,0h-0.3l0,0
				c0,0,0,0-0.3,0l0,0l0,0l0,0l0,0c-0.3,0-0.3,0-0.3,0l0,0h-0.3l0,0l0,0c-0.7-0.3-0.7-0.7-0.7-1.4c0-0.3,0.3-0.3,1-0.7h0.3
				C90.4,178.8,91.1,179.1,91.1,179.5z"/>
			<path class="st35" d="M90.7,184.7h-0.3l0,0l0,0l0,0c-0.3,0-0.3,0-0.3,0s0,0-0.3,0l0,0l0,0c0,0,0,0-0.3,0l0,0l0,0l0,0l0,0l0,0l0,0
				l0,0H89l0,0l0,0l0,0l0,0h-0.3l0,0l0,0l0,0l0,0l0,0c0,0,0,0-0.3,0.3l0.3-2.4v-1.7l0,0H89l0,0c0,0,0,0,0.3,0l0,0l0,0l0,0l0,0
				c0.3,0,0.3,0,0.3,0l0,0H90l0,0l0,0h0.3l0,0l0,0l0,0l0,0l0,0l0,0l0,0l0,0l0,0l0,0v1.7L90.7,184.7z"/>
			<path class="st35" d="M88.6,180.9L88.6,180.9L88.6,180.9z"/>
			<path class="st35" d="M91.1,180.9L91.1,180.9L91.1,180.9z"/>
			<path class="st26" d="M90,187.5v3.5l0,0v1.7l-0.3,0.3l0,0l-0.3-2.1l0,0v-3.5h0.3H90L90,187.5z"/>
			<path class="st27" d="M90,187.5v3.5l0,0v1.7l-0.3,0.3l0,0v-5.6H90L90,187.5z"/>
			<path class="st28" d="M90,187.5v3.5l0,0v1.7V187.5L90,187.5z"/>
			<path class="st37" d="M89.7,180.9v3.8l0,0c0,0,0,0-0.3,0l0,0l0,0l0,0l0,0l0,0v-3.8H89.7z"/>
		</g>
		<g>
			<path class="st38" d="M106,188.2L106,188.2L106,188.2v-0.3l0,0l-1-4.5l0,0V183l-0.3-2.8l0.3-2.4l0,0c-0.3-0.7-1-1-2.1-1l0,0
				c-1,0.3-2.1,0.7-2.1,1.4l0,0l1,2.4v2.4v0.3v0.3v4.2v0.3l0,0v0.3v0.3l0,0h0.3v-0.3l0,0l0,0l0,0v-0.3l0,0l0,0v-0.3v-4.2v-0.3V183
				v-2.4v-0.3l-1-2.1c0-0.3,0.7-0.7,1.7-1l0,0l0,0c0.7,0,1.4,0.3,1.7,0.7l-0.3,2.4l0.3,2.8v0.3l0,0l1,4.9l0,0l0,0l0,0h-1l-1,0.3l0,0
				h-0.3h-0.7l0.3,0.3l0,0h1l1-0.3h0.3h0.7l0,0V188.2z M105,183.3h-0.3l1,4.9l0,0c0,0,0,0,0-0.3l0,0L105,183.3z"/>
			<path class="st39" d="M106,188.2L106,188.2L106,188.2v-0.3l0,0l-0.7-4.5l0,0V183l-0.7-2.8l0.3-2.4l0,0c0-0.7-1-1-2.1-1l0,0
				c-1,0.3-2.1,0.7-2.1,1.4l0,0l1,2.4v2.4v0.3v0.3l0.3,4.2v0.3l0,0v0.3v0.3v-0.3l0,0h0.3l0,0v-0.3l0,0l-0.3-4.5v-0.3V183v-2.4v-0.3
				l-1-2.1c0-0.3,0.7-0.7,1.7-1l0,0l0,0c1,0,1.7,0.3,1.7,0.7l-0.3,2.4l0.7,2.8v0.3l0,0l0.7,4.5l0,0v0.3l0,0l0,0l0,0l0,0l0,0h-1l0,0
				l-1,0.3l0,0h-0.3l0,0h-0.7l0.3,0.3l0,0h1l1-0.3h0.3h0.7l0,0h0.3L106,188.2z"/>
			<polygon class="st40" points="107.1,193.1 107.1,193.4 99.4,193.4 99.4,193.1 			"/>
			<polygon class="st40" points="99.4,193.1 100.1,188.2 107.8,188.2 107.1,193.1 			"/>
			<polygon class="st41" points="107.1,193.1 107.1,193.1 99.4,193.1 99.4,193.1 			"/>
			<polygon class="st42" points="107.1,193.4 107.1,193.1 107.1,193.1 107.1,193.1 107.1,193.1 107.8,188.2 108.8,191.7 			"/>
			<polygon class="st42" points="106.4,188.2 106,188.2 106,188.2 106,187.8 105.7,187.8 105.7,187.8 105.3,187.8 105,187.5 
				105,187.5 102.9,187.5 102.9,187.5 102.2,187.8 102.2,187.8 102.2,187.8 102.2,187.8 102.2,187.8 101.8,187.8 101.8,188.2 
				101.8,188.2 101.8,188.2 			"/>
			<polygon class="st43" points="105,187.5 102.9,187.5 102.9,187.5 103.2,187.8 103.2,187.8 103.2,187.8 103.2,188.2 103.2,188.2 
				103.2,188.2 103.6,188.2 104.6,188.2 104.6,188.2 104.6,188.2 104.6,188.2 104.6,187.8 104.6,187.8 104.6,187.8 105,187.8 			"/>
			<polygon class="st42" points="104.6,187.8 103.2,187.8 103.2,188.2 103.6,188.2 104.6,188.2 104.6,188.2 			"/>
			<polygon class="st44" points="104.6,188.2 103.2,188.2 103.6,188.2 			"/>
			<path class="st42" d="M108.1,188.2c0-0.3,0-0.3,0-0.3s0-0.3-0.3-0.3H106c-0.3,0-0.3,0.3-0.3,0.7l0,0v0.3h0.3h1.7
				C108.1,188.5,108.1,188.5,108.1,188.2L108.1,188.2z"/>
			<path class="st41" d="M108.1,188.2h-2.4l0,0H108.1L108.1,188.2z"/>
			<path class="st42" d="M102.2,188.2L102.2,188.2v-0.3l0,0l0,0l0,0c0,0,0,0-0.3-0.3l0,0h-1.7c-0.3,0-0.3,0.3-0.3,0.7l0,0v0.3h0.3
				h1.7l0,0c0.3,0,0.3,0,0.3,0S102.2,188.5,102.2,188.2L102.2,188.2L102.2,188.2z"/>
			<path class="st41" d="M102.2,188.2h-2.4l0,0H102.2L102.2,188.2z"/>
		</g>
		<g>
			<path class="st38" d="M99.4,186.4h-0.3l-0.3-0.3h-0.3h-1l-0.7-0.3l0,0l-0.3,0.3H97h0.3l0,0l1,0.3h0.7l0,0l0,0l0,0l-1,3.8v0.3
				h-0.3l-0.7,2.4l0.3,2.1c0,0.3-0.7,0.3-1.4,0.3l0,0l0,0c-1-0.3-1.4-0.7-1.4-1l1-1.7l0,0v-2.1v-0.3l0,0l0.7-3.8l0,0v-0.3l0,0l0,0
				l0,0l0,0l0,0c0,0,0-0.3-0.3-0.3l0,0l0,0v0.3l0,0v0.3l0,0l-0.3,3.8l0,0v0.3l-0.3,2.1l-1,1.7l0,0c0,0.7,0.7,1,1.4,1.4h0.3
				c0.7,0,1.4,0,1.7-0.7l0,0l-0.3-2.1l0.7-2.4l0,0l0,0l1-3.8l0,0L99.4,186.4L99.4,186.4L99.4,186.4L99.4,186.4z M99.1,186.8
				L99.1,186.8L99.1,186.8c0,0,0,0,0-0.3l0,0l-1,3.8v0.3L99.1,186.8z"/>
			<path class="st39" d="M99.4,186.4L99.4,186.4h-0.3l-0.3-0.3h-0.3h-1l-0.7-0.3l0,0l-0.3,0.3H97l0,0h0.3l0,0l1,0.3l0,0h0.7l0,0l0,0
				l0,0l0,0l0,0v0.3l0,0l-1,3.8l0,0l0,0l-0.7,2.4v2.1c0,0.3-0.7,0.3-1.4,0.3l0,0l0,0c-0.7-0.3-1.4-0.7-1.4-0.7l1-2.1l0,0l0.3-2.1
				v-0.3l0,0l0.3-3.8l0,0v-0.3l0,0l0,0l0,0c0,0,0-0.3-0.3-0.3v0.3l0,0v0.3l0,0l-0.3,3.8l0,0v0.3l-0.3,2.1l-0.7,1.7l0,0
				c-0.3,0.7,0.3,1,1.4,1.4l0,0c0.7,0,1.7,0,1.7-0.7l0,0v-2.1l0.7-2.4l0,0l0,0l1-3.8l0,0l0,0V186.4L99.4,186.4L99.4,186.4z"/>
			<polygon class="st40" points="100.1,182.3 100.1,182.3 93.8,182.3 93.8,182.6 100.1,182.6 			"/>
			<polygon class="st40" points="93.8,182.6 94.5,186.4 100.8,186.4 100.1,182.6 			"/>
			<polygon class="st41" points="100.1,182.6 100.1,182.6 93.8,182.6 93.8,182.6 			"/>
			<polygon class="st42" points="100.1,182.3 100.1,182.3 100.1,182.3 100.1,182.6 100.1,182.6 100.8,186.4 101.5,183.3 			"/>
			<path class="st38" d="M99.4,186.8v-0.3l0,0l0,0v-0.3l-0.7-3.5l0,0v-0.3l-0.7-2.4l0.3-2.1l0,0c0-0.3-0.7-0.7-1.4-0.7h-0.3
				c-0.7,0-1.4,0.3-1.4,1l0,0l0.7,2.1v2.1v0.3l0,0v3.5v0.3l0,0l0,0v0.3l0,0l0,0c0.3,0,0.3,0,0.3,0l0,0l0,0l0,0v-0.3l0,0l0,0l0,0
				v-3.8l0,0v-0.3v-2.1v-0.3l-0.7-1.7c0-0.3,0.3-0.7,1.4-0.7l0,0l0,0c0.7,0,1,0,1.4,0.3l-0.3,2.1l0.3,2.4v0.3l0,0l0.7,3.8l0,0l0,0
				l0,0h-0.7l-1,0.3l0,0H97h-0.7l0.3,0.3l0,0h0.7l1-0.3h0.3h0.3H99.4L99.4,186.8z M98.4,182.6L98.4,182.6l0.7,3.8l0,0l0,0l0,0l0,0
				L98.4,182.6z"/>
			<path class="st39" d="M99.4,186.4L99.4,186.4L99.4,186.4L99.4,186.4v-0.3l-0.7-3.5l0,0v-0.3l-0.3-2.4l0.3-2.1l0,0
				c0-0.7-1-0.7-1.7-0.7l0,0c-1,0-1.7,0.3-1.7,1l0,0l0.7,2.1v2.1v0.3l0,0v3.5v0.3l0,0v0.3l0,0c0.3,0,0.3,0,0.3,0l0,0l0,0l0,0v-0.3
				l0,0v-3.8l0,0v-0.3v-2.4l0,0l-0.7-1.7c0-0.3,0.7-0.7,1.4-0.7l0,0l0,0c0.7,0,1.4,0,1.4,0.3l-0.3,2.1l0.3,2.4v0.3l0,0l0.7,3.8l0,0
				l0,0l0,0l0,0l0,0l0,0l0,0h-0.7l0,0l-1,0.3l0,0H97l0,0h-0.7l0.3,0.3l0,0h0.7l1-0.3h0.3h0.3h0.3l0,0V186.4z"/>
			<polygon class="st42" points="99.4,186.4 99.4,186.4 99.4,186.4 99.4,186.8 99.1,186.8 99.1,186.8 98.7,186.8 98.7,187.1 
				98.7,187.1 96.6,187.1 96.6,187.1 96.3,186.8 96.3,186.8 96.3,186.8 96.3,186.8 96.3,186.8 95.9,186.8 95.9,186.4 95.9,186.4 
				95.9,186.4 			"/>
			<polygon class="st43" points="98.7,187.1 96.6,187.1 96.6,187.1 97,186.8 97,186.8 97,186.8 97,186.4 97,186.4 97,186.4 
				97.3,186.4 98,186.4 98,186.4 98.4,186.4 98.4,186.4 98.4,186.4 98.4,186.4 98.4,186.8 98.4,186.8 			"/>
			<polygon class="st42" points="98.4,186.8 97,186.8 97,186.4 97.3,186.4 98,186.4 98,186.4 			"/>
			<polygon class="st44" points="98,186.4 97,186.4 97.3,186.4 			"/>
			<path class="st42" d="M101.2,186.4c0,0.3,0,0.3,0,0.3h-0.3h-1.4c-0.3,0-0.3,0-0.3-0.3l0,0l0,0c0-0.3,0.3-0.3,0.3-0.3h1.4
				C100.8,186.1,101.2,186.1,101.2,186.4L101.2,186.4z"/>
			<path class="st41" d="M101.2,186.4h-2.1l0,0H101.2L101.2,186.4z"/>
			<path class="st42" d="M96.3,186.4L96.3,186.4v0.3l0,0l0,0l0,0c0,0,0,0-0.3,0l0,0h-1.4c-0.3,0-0.3,0-0.3-0.3l0,0l0,0
				c0-0.3,0.3-0.3,0.3-0.3h1.4l0,0C95.9,186.1,96.3,186.1,96.3,186.4L96.3,186.4L96.3,186.4L96.3,186.4z"/>
			<path class="st41" d="M96.3,186.4h-2.1l0,0H96.3L96.3,186.4z"/>
		</g>
		<g>
			<path class="st45" d="M89,108.8v59.5c0,1-0.7,2.1-1.7,2.4c0,0-0.3,0-0.7,0H49.3c-0.3,0-0.3,0-0.7,0c-1-0.3-1.7-1.4-1.7-2.4v-59.5
				c0-1,0.7-1.7,1.4-2.1c0.3-0.3,0.7-0.3,1-0.3h37.3c0.3,0,0.7,0,1,0.3C88.6,107.1,89,107.8,89,108.8z"/>
			<path class="st46" d="M89,108.8v62c0,1.4-1,2.4-2.4,2.4H49.3c-1.4,0-2.4-1-2.4-2.4v-62c0-1,0.7-1.7,1.4-2.1
				c0.3-0.3,0.7-0.3,1-0.3h37.3c0.3,0,0.7,0,1,0.3C88.6,107.1,89,107.8,89,108.8z"/>
			<path class="st47" d="M89,106.4v2.4c0-1-0.3-1.7-1.4-2.1c-0.3-0.3-0.7-0.3-1-0.3H49.3c-0.3,0-0.7,0-1,0.3c-0.7,0.3-1.4,1-1.4,2.1
				v-2.4c0-1,0.7-1.7,1.4-2.1c0.3-0.3,0.7-0.3,1-0.3h37.3c0.3,0,0.7,0,1,0.3C88.6,104.6,89,105.3,89,106.4z"/>
			<path class="st48" d="M87.6,104.3v8.7H48.2v-8.7c0.3-0.3,0.7-0.3,1-0.3h37.3C86.9,103.9,87.2,103.9,87.6,104.3z"/>
			<path class="st49" d="M87.6,106.7v62.7c0,0.3,0,0.7-0.3,1.4c-0.3,0.7-1,1-2.1,1H50.7c-0.7,0-1.7-0.3-2.1-1
				c-0.3-0.3-0.3-1-0.3-1.4v-62.7c0.3-0.3,0.7-0.3,1-0.3h37.3C86.9,106.4,87.2,106.4,87.6,106.7z"/>
			<path class="st50" d="M85.1,113.3H74c-0.7,0-1-0.7-1-1.4v-1.4c0-0.7,0.3-1.4,1-1.4h11.1c0.7,0,1,0.7,1,1.4v1.4
				C86.2,112.6,85.8,113.3,85.1,113.3z"/>
			<path class="st51" d="M84.8,116.1H51.4c-0.3,0-0.7,0.3-0.7,1v8.4c0,0.7,0.3,1,0.7,1h33.4c0.3,0,1-0.3,1-1v-8.4
				C85.8,116.5,85.1,116.1,84.8,116.1z"/>
			<path class="st52" d="M85.8,125.5c0,0.7-0.7,1-1,1H51.4c-0.3,0-0.7-0.3-0.7-1v-8.4c0-0.7,0.3-1,0.7-1h33.4c0.3,0,1,0.3,1,1V125.5
				z M84.8,115.8H51.4c-0.7,0-1.4,0.3-1.4,1.4v8.4c0,1,0.7,1.4,1.4,1.4h33.4c0.7,0,1.4-0.3,1.4-1.4v-8.4
				C86.2,116.1,85.5,115.8,84.8,115.8z"/>
			<path class="st53" d="M54.8,136H51c-0.7,0-1-0.3-1-1v-2.1c0-0.7,0.3-1,1-1h3.8c0.7,0,1,0.3,1,1v2.1C55.9,135.6,55.5,136,54.8,136
				z"/>
			<path class="st54" d="M54.8,135.3H51c-0.7,0-1-0.3-1-1v-2.4c0-0.3,0.3-0.7,1-0.7h3.8c0.7,0,1,0.3,1,0.7v2.4
				C55.9,134.9,55.5,135.3,54.8,135.3z"/>
			<path class="st55" d="M54.8,143.3H51c-0.7,0-1-0.3-1-0.7v-2.4c0-0.3,0.3-0.7,1-0.7h3.8c0.7,0,1,0.3,1,0.7v2.4
				C55.9,142.9,55.5,143.3,54.8,143.3z"/>
			<path class="st56" d="M54.8,142.6H51c-0.7,0-1-0.3-1-0.7v-2.4c0-0.3,0.3-1,1-1h3.8c0.7,0,1,0.7,1,1v2.4
				C55.9,142.2,55.5,142.6,54.8,142.6z"/>
			<path class="st55" d="M55.2,150.9h-4.5c-0.3,0-0.7-0.3-0.7-0.3v-3.1c0-0.3,0.3-0.3,0.7-0.3h4.5c0.3,0,0.7,0,0.7,0.3v3.1
				C55.9,150.6,55.5,150.9,55.2,150.9z"/>
			<path class="st56" d="M55.2,150.2h-4.5c-0.3,0-0.7-0.3-0.7-0.7v-2.8c0-0.3,0.3-0.7,0.7-0.7h4.5c0.3,0,0.7,0.3,0.7,0.7v2.8
				C55.9,149.9,55.5,150.2,55.2,150.2z"/>
			<path class="st55" d="M55.2,158.6h-4.5c-0.3,0-0.7-0.3-0.7-0.7v-2.8c0-0.3,0.3-0.3,0.7-0.3h4.5c0.3,0,0.7,0,0.7,0.3v2.8
				C55.9,158.2,55.5,158.6,55.2,158.6z"/>
			<path class="st56" d="M55.2,157.9h-4.5c-0.3,0-0.7-0.3-0.7-0.7v-2.8c0-0.3,0.3-0.7,0.7-0.7h4.5c0.3,0,0.7,0.3,0.7,0.7v2.8
				C55.9,157.6,55.5,157.9,55.2,157.9z"/>
			<path class="st55" d="M54.8,166.3H51c-0.7,0-1-0.3-1-0.7v-2.4c0-0.3,0.3-0.7,1-0.7h3.8c0.7,0,1,0.3,1,0.7v2.4
				C55.9,165.9,55.5,166.3,54.8,166.3z"/>
			<path class="st56" d="M54.8,165.6H51c-0.7,0-1-0.3-1-0.7v-2.4c0-0.7,0.3-1,1-1h3.8c0.7,0,1,0.3,1,1v2.4
				C55.9,165.2,55.5,165.6,54.8,165.6z"/>
			<path class="st55" d="M62.5,143.3h-4.2c-0.3,0-0.7-0.3-0.7-0.7v-2.4c0-0.3,0.3-0.7,0.7-0.7h4.2c0.7,0,1,0.3,1,0.7v2.4
				C63.6,142.9,63.2,143.3,62.5,143.3z"/>
			<path class="st56" d="M62.5,142.6h-4.2c-0.3,0-0.7-0.3-0.7-0.7v-2.4c0-0.3,0.3-1,0.7-1h4.2c0.7,0,1,0.7,1,1v2.4
				C63.6,142.2,63.2,142.6,62.5,142.6z"/>
			<path class="st55" d="M62.9,150.9h-4.5c-0.3,0-0.7-0.3-0.7-0.3v-3.1c0-0.3,0.3-0.3,0.7-0.3h4.5c0.3,0,0.7,0,0.7,0.3v3.1
				C63.6,150.6,63.2,150.9,62.9,150.9z"/>
			<path class="st56" d="M62.9,150.2h-4.5c-0.3,0-0.7-0.3-0.7-0.7v-2.8c0-0.3,0.3-0.7,0.7-0.7h4.5c0.3,0,0.7,0.3,0.7,0.7v2.8
				C63.6,149.9,63.2,150.2,62.9,150.2z"/>
			<path class="st55" d="M62.9,158.6h-4.5c-0.3,0-0.7-0.3-0.7-0.7v-2.8c0-0.3,0.3-0.3,0.7-0.3h4.5c0.3,0,0.7,0,0.7,0.3v2.8
				C63.6,158.2,63.2,158.6,62.9,158.6z"/>
			<path class="st56" d="M62.9,157.9h-4.5c-0.3,0-0.7-0.3-0.7-0.7v-2.8c0-0.3,0.3-0.7,0.7-0.7h4.5c0.3,0,0.7,0.3,0.7,0.7v2.8
				C63.6,157.6,63.2,157.9,62.9,157.9z"/>
			<path class="st55" d="M62.5,166.3h-4.2c-0.3,0-0.7-0.3-0.7-0.7v-2.4c0-0.3,0.3-0.7,0.7-0.7h4.2c0.7,0,1,0.3,1,0.7v2.4
				C63.6,165.9,63.2,166.3,62.5,166.3z"/>
			<path class="st56" d="M62.5,165.6h-4.2c-0.3,0-0.7-0.3-0.7-0.7v-2.4c0-0.7,0.3-1,0.7-1h4.2c0.7,0,1,0.3,1,1v2.4
				C63.6,165.2,63.2,165.6,62.5,165.6z"/>
			<path class="st55" d="M70.2,143.3H66c-0.3,0-0.7-0.3-0.7-0.7v-2.4c0-0.3,0.3-0.7,0.7-0.7h4.2c0.3,0,1,0.3,1,0.7v2.4
				C71.2,142.9,70.5,143.3,70.2,143.3z"/>
			<path class="st56" d="M70.2,142.6H66c-0.3,0-0.7-0.3-0.7-0.7v-2.4c0-0.3,0.3-1,0.7-1h4.2c0.3,0,1,0.7,1,1v2.4
				C71.2,142.2,70.5,142.6,70.2,142.6z"/>
			<path class="st55" d="M70.5,150.9H66c-0.3,0-0.7-0.3-0.7-0.3v-3.1c0-0.3,0.3-0.3,0.7-0.3h4.5c0.3,0,0.7,0,0.7,0.3v3.1
				C71.2,150.6,70.9,150.9,70.5,150.9z"/>
			<path class="st56" d="M70.5,150.2H66c-0.3,0-0.7-0.3-0.7-0.7v-2.8c0-0.3,0.3-0.7,0.7-0.7h4.5c0.3,0,0.7,0.3,0.7,0.7v2.8
				C71.2,149.9,70.9,150.2,70.5,150.2z"/>
			<path class="st55" d="M70.5,158.6H66c-0.3,0-0.7-0.3-0.7-0.7v-2.8c0-0.3,0.3-0.3,0.7-0.3h4.5c0.3,0,0.7,0,0.7,0.3v2.8
				C71.2,158.2,70.9,158.6,70.5,158.6z"/>
			<path class="st56" d="M70.5,157.9H66c-0.3,0-0.7-0.3-0.7-0.7v-2.8c0-0.3,0.3-0.7,0.7-0.7h4.5c0.3,0,0.7,0.3,0.7,0.7v2.8
				C71.2,157.6,70.9,157.9,70.5,157.9z"/>
			<path class="st55" d="M70.2,166.3H66c-0.3,0-0.7-0.3-0.7-0.7v-2.4c0-0.3,0.3-0.7,0.7-0.7h4.2c0.3,0,1,0.3,1,0.7v2.4
				C71.2,165.9,70.5,166.3,70.2,166.3z"/>
			<path class="st56" d="M70.2,165.6H66c-0.3,0-0.7-0.3-0.7-0.7v-2.4c0-0.7,0.3-1,0.7-1h4.2c0.3,0,1,0.3,1,1v2.4
				C71.2,165.2,70.5,165.6,70.2,165.6z"/>
			<path class="st57" d="M77.8,143.3h-4.2c-0.3,0-0.7-0.3-0.7-0.7v-2.4c0-0.3,0.3-0.7,0.7-0.7h4.2c0.3,0,0.7,0.3,0.7,0.7v2.4
				C78.5,142.9,78.2,143.3,77.8,143.3z"/>
			<path class="st58" d="M77.8,142.6h-4.2c-0.3,0-0.7-0.3-0.7-0.7v-2.4c0-0.3,0.3-1,0.7-1h4.2c0.3,0,0.7,0.7,0.7,1v2.4
				C78.5,142.2,78.2,142.6,77.8,142.6z"/>
			<path class="st57" d="M78.2,150.9h-4.9l-0.3-0.3v-3.1c0-0.3,0.3-0.3,0.3-0.3h4.9c0.3,0,0.3,0,0.3,0.3v3.1
				C78.5,150.6,78.5,150.9,78.2,150.9z"/>
			<path class="st58" d="M78.2,150.2h-4.9c0,0-0.3-0.3-0.3-0.7v-2.8c0-0.3,0.3-0.7,0.3-0.7h4.9c0.3,0,0.3,0.3,0.3,0.7v2.8
				C78.5,149.9,78.5,150.2,78.2,150.2z"/>
			<path class="st57" d="M85.5,143.3h-4.2c-0.3,0-0.7-0.3-0.7-0.7v-2.4c0-0.3,0.3-0.7,0.7-0.7h4.2c0.3,0,0.7,0.3,0.7,0.7v2.4
				C86.2,142.9,85.8,143.3,85.5,143.3z"/>
			<path class="st58" d="M85.5,142.6h-4.2c-0.3,0-0.7-0.3-0.7-0.7v-2.4c0-0.3,0.3-1,0.7-1h4.2c0.3,0,0.7,0.7,0.7,1v2.4
				C86.2,142.2,85.8,142.6,85.5,142.6z"/>
			<path class="st57" d="M85.8,150.9H81c-0.3,0-0.3-0.3-0.3-0.3v-3.1c0-0.3,0-0.3,0.3-0.3h4.9c0.3,0,0.3,0,0.3,0.3v3.1
				C86.2,150.6,86.2,150.9,85.8,150.9z"/>
			<path class="st58" d="M85.8,150.2H81c-0.3,0-0.3-0.3-0.3-0.7v-2.8c0-0.3,0-0.7,0.3-0.7h4.9c0.3,0,0.3,0.3,0.3,0.7v2.8
				C86.2,149.9,86.2,150.2,85.8,150.2z"/>
			<path class="st57" d="M85.8,158.6H81c-0.3,0-0.3-0.3-0.3-0.7v-2.8c0-0.3,0-0.3,0.3-0.3h4.9c0.3,0,0.3,0,0.3,0.3v2.8
				C86.2,158.2,86.2,158.6,85.8,158.6z"/>
			<path class="st58" d="M85.8,157.9H81c-0.3,0-0.3-0.3-0.3-0.7v-2.8c0-0.3,0-0.7,0.3-0.7h4.9c0.3,0,0.3,0.3,0.3,0.7v2.8
				C86.2,157.6,86.2,157.9,85.8,157.9z"/>
			<path class="st57" d="M85.5,166.3h-4.2c-0.3,0-0.7-0.3-0.7-0.7v-2.4c0-0.3,0.3-0.7,0.7-0.7h4.2c0.3,0,0.7,0.3,0.7,0.7v2.4
				C86.2,165.9,85.8,166.3,85.5,166.3z"/>
			<path class="st58" d="M85.5,165.6h-4.2c-0.3,0-0.7-0.3-0.7-0.7v-2.4c0-0.7,0.3-1,0.7-1h4.2c0.3,0,0.7,0.3,0.7,1v2.4
				C86.2,165.2,85.8,165.6,85.5,165.6z"/>
			<path class="st53" d="M62.9,136h-4.5c-0.3,0-0.7-0.3-0.7-0.7v-2.8c0-0.3,0.3-0.7,0.7-0.7h4.5c0.3,0,0.7,0.3,0.7,0.7v2.8
				C63.6,135.6,63.2,136,62.9,136z"/>
			<path class="st54" d="M62.9,135.3h-4.5c-0.3,0-0.7-0.3-0.7-0.7v-2.8c0-0.3,0.3-0.7,0.7-0.7h4.5c0.3,0,0.7,0.3,0.7,0.7v2.8
				C63.6,134.9,63.2,135.3,62.9,135.3z"/>
			<path class="st57" d="M70.5,136H66c-0.3,0-0.7,0-0.7-0.3v-3.1c0-0.3,0.3-0.3,0.7-0.3h4.5c0.3,0,0.7,0,0.7,0.3v3.1
				C71.2,136,70.9,136,70.5,136z"/>
			<path class="st58" d="M70.5,135.3H66c-0.3,0-0.7-0.3-0.7-0.3v-3.1c0-0.3,0.3-0.3,0.7-0.3h4.5c0.3,0,0.7,0,0.7,0.3v3.1
				C71.2,134.9,70.9,135.3,70.5,135.3z"/>
			<path class="st57" d="M78.2,135.6h-4.9c0,0-0.3,0-0.3-0.3v-3.1c0-0.3,0.3-0.3,0.3-0.3h4.9c0.3,0,0.3,0,0.3,0.3v3.1
				C78.5,135.6,78.5,135.6,78.2,135.6z"/>
			<path class="st58" d="M78.2,134.9h-4.9c0,0-0.3-0.3-0.3-0.7v-2.8c0-0.3,0.3-0.3,0.3-0.3h4.9c0.3,0,0.3,0,0.3,0.3v2.8
				C78.5,134.6,78.5,134.9,78.2,134.9z"/>
			<path class="st57" d="M85.8,135.6H81c-0.3,0-0.3,0-0.3-0.3v-3.1c0-0.3,0-0.3,0.3-0.3h4.9c0.3,0,0.3,0,0.3,0.3v3.1
				C86.2,135.6,86.2,135.6,85.8,135.6z"/>
			<path class="st58" d="M85.8,134.9H81c-0.3,0-0.3-0.3-0.3-0.7v-2.8c0-0.3,0-0.3,0.3-0.3h4.9c0.3,0,0.3,0,0.3,0.3v2.8
				C86.2,134.6,86.2,134.9,85.8,134.9z"/>
			<path class="st57" d="M76.8,166.6h-2.1c-1,0-1.7-1-1.7-2.1v-8c0-1,0.7-1.7,1.7-1.7h2.1c1,0,1.7,0.7,1.7,1.7v8
				C78.5,165.6,77.8,166.6,76.8,166.6z"/>
			<path class="st58" d="M76.8,165.6h-2.1c-1,0-1.7-0.7-1.7-1.7v-8c0-1,0.7-2.1,1.7-2.1h2.1c1,0,1.7,1,1.7,2.1v8
				C78.5,164.9,77.8,165.6,76.8,165.6z"/>
		</g>
		<g>
			<polygon class="st8" points="43,192 43,192 43,191.7 43,191.7 			"/>
			<path class="st8" d="M45.1,179.5c-1.4,0-2.1,0.7-2.1,2.1v0.3c0-1.4,0.7-2.1,2.1-2.1c1,0,2.1,0.7,2.1,2.1v-0.3
				C47.2,180.2,46.1,179.5,45.1,179.5z"/>
			<polygon class="st8" points="47.2,192 47.5,192 47.5,191.7 47.2,191.7 			"/>
			<path class="st8" d="M45.1,183.7c-0.7,0-1.4,0.7-1.4,1.4v0.3c0-0.7,0.7-1.4,1.4-1.4s1,0.7,1,1.4v-0.3
				C46.1,184.4,45.8,183.7,45.1,183.7z"/>
			<polygon class="st8" points="46.1,192 46.1,192 46.1,191.7 46.1,191.7 			"/>
			<polygon class="st8" points="43.4,192 43.7,192 43.7,191.7 43.4,191.7 			"/>
			<path class="st8" d="M44.8,196.9c-1.4,0-2.4-0.7-2.4-2.1v0.3c0,1.4,1,2.1,2.4,2.1c1,0,2.1-0.7,2.1-2.1v-0.3
				C46.8,196.2,45.8,196.9,44.8,196.9z"/>
			<path class="st8" d="M45.1,178.8c-1.4,0-2.8,1-2.8,2.8v13.2c0,1.4,1,2.1,2.4,2.1c1,0,2.1-0.7,2.1-2.1v-9.7c0-1-0.7-1.7-1.7-1.7
				s-1.7,0.7-1.7,1.7v6.6h0.3v-6.6c0-0.7,0.7-1.4,1.4-1.4s1,0.7,1,1.4v6.6l0,0v3.1c0,1-0.7,1.7-1.4,1.7c-1,0-1.7-0.7-1.7-1.7v-3.1
				l0,0v-10.1c0-1.4,0.7-2.1,2.1-2.1c1,0,2.1,0.7,2.1,2.1v10.1h0.3v-10.1C47.5,179.8,46.5,178.8,45.1,178.8z"/>
			<polygon class="st8" points="50.3,192 50.3,192 50.3,191.7 50.3,191.7 			"/>
			<path class="st8" d="M52.4,179.5c-1,0-2.1,0.7-2.1,2.1v0.3c0-1.4,1-2.1,2.1-2.1s2.1,0.7,2.1,2.1v-0.3
				C54.5,180.2,53.5,179.5,52.4,179.5z"/>
			<polygon class="st8" points="54.5,192 55.2,192 55.2,191.7 54.5,191.7 			"/>
			<path class="st8" d="M52.4,183.7c-0.7,0-1,0.7-1,1.4v0.3c0-0.7,0.3-1.4,1-1.4s1.4,0.7,1.4,1.4v-0.3
				C53.8,184.4,53.1,183.7,52.4,183.7z"/>
			<polygon class="st8" points="53.8,192 53.8,192 53.8,191.7 53.8,191.7 			"/>
			<polygon class="st8" points="50.7,192 51.4,192 51.4,191.7 50.7,191.7 			"/>
			<path class="st8" d="M52.1,196.9c-1.4,0-2.4-0.7-2.4-2.1v0.3c0,1.4,1,2.1,2.4,2.1c1,0,2.1-0.7,2.1-2.1v-0.3
				C54.2,196.2,53.1,196.9,52.1,196.9z"/>
			<path class="st8" d="M52.4,178.8c-1.4,0-2.8,1-2.8,2.8v13.2c0,1.4,1,2.1,2.4,2.1c1,0,2.1-0.7,2.1-2.1v-9.7c0-1-0.7-1.7-1.7-1.7
				s-1.7,0.7-1.7,1.7v6.6h0.7v-6.6c0-0.7,0.3-1.4,1-1.4s1.4,0.7,1.4,1.4v6.6l0,0v3.1c0,1-1,1.7-1.7,1.7c-1,0-1.7-0.7-1.7-1.7v-3.1
				l0,0v-10.1c0-1.4,1-2.1,2.1-2.1s2.1,0.7,2.1,2.1v10.1h0.7v-10.1C55.2,179.8,53.8,178.8,52.4,178.8z"/>
			<polygon class="st8" points="57.3,192 57.3,192 57.3,191.7 57.3,191.7 			"/>
			<path class="st8" d="M59.4,179.5c-1,0-2.1,0.7-2.1,2.1v0.3c0-1.4,1-2.1,2.1-2.1c1.4,0,2.1,0.7,2.1,2.1v-0.3
				C61.5,180.2,60.8,179.5,59.4,179.5z"/>
			<polygon class="st8" points="61.5,192 62.2,192 62.2,191.7 61.5,191.7 			"/>
			<path class="st8" d="M59.4,183.7c-0.7,0-1,0.7-1,1.4v0.3c0-0.7,0.3-1.4,1-1.4c0.7,0,1.4,0.7,1.4,1.4v-0.3
				C60.8,184.4,60.1,183.7,59.4,183.7z"/>
			<polygon class="st8" points="60.8,192 60.8,192 60.8,191.7 60.8,191.7 			"/>
			<polygon class="st8" points="57.6,192 58.3,192 58.3,191.7 57.6,191.7 			"/>
			<path class="st8" d="M59,196.9c-1.4,0-2.1-0.7-2.1-2.1v0.3c0,1.4,0.7,2.1,2.1,2.1c1,0,2.1-0.7,2.1-2.1v-0.3
				C61.1,196.2,60.1,196.9,59,196.9z"/>
			<path class="st8" d="M59.4,178.8c-1.4,0-2.4,1-2.4,2.8v13.2c0,1.4,0.7,2.1,2.1,2.1c1,0,2.1-0.7,2.1-2.1v-9.7c0-1-0.7-1.7-1.7-1.7
				c-0.7,0-1.7,0.7-1.7,1.7v6.6h0.7v-6.6c0-0.7,0.3-1.4,1-1.4c0.7,0,1.4,0.7,1.4,1.4v6.6l0,0v3.1c0,1-0.7,1.7-1.7,1.7
				s-1.7-0.7-1.7-1.7v-3.1l0,0v-10.1c0-1.4,1-2.1,2.1-2.1c1.4,0,2.1,0.7,2.1,2.1v10.1h0.7v-10.1C62.2,179.8,60.8,178.8,59.4,178.8z"
				/>
			<polygon class="st8" points="65.3,192 65.3,192 65.3,191.7 65.3,191.7 			"/>
			<path class="st8" d="M67.4,179.5c-1.4,0-2.1,0.7-2.1,2.1v0.3c0-1.4,0.7-2.1,2.1-2.1c1,0,2.1,0.7,2.1,2.1v-0.3
				C69.5,180.2,68.4,179.5,67.4,179.5z"/>
			<polygon class="st8" points="69.5,192 69.8,192 69.8,191.7 69.5,191.7 			"/>
			<path class="st8" d="M67.4,183.7c-0.7,0-1.4,0.7-1.4,1.4v0.3c0-0.7,0.7-1.4,1.4-1.4s1,0.7,1,1.4v-0.3
				C68.4,184.4,68.1,183.7,67.4,183.7z"/>
			<polygon class="st8" points="68.4,192 68.4,192 68.4,191.7 68.4,191.7 			"/>
			<polygon class="st8" points="65.6,192 66,192 66,191.7 65.6,191.7 			"/>
			<path class="st8" d="M66.7,196.9c-1,0-2.1-0.7-2.1-2.1v0.3c0,1.4,1,2.1,2.1,2.1c1.4,0,2.4-0.7,2.4-2.1v-0.3
				C69.1,196.2,68.1,196.9,66.7,196.9z"/>
			<path class="st8" d="M67.4,178.8c-1.4,0-2.8,1-2.8,2.8v13.2c0,1.4,1,2.1,2.1,2.1c1.4,0,2.4-0.7,2.4-2.1v-9.7c0-1-0.7-1.7-1.7-1.7
				s-1.7,0.7-1.7,1.7v6.6H66v-6.6c0-0.7,0.7-1.4,1.4-1.4s1,0.7,1,1.4v6.6l0,0v3.1c0,1-0.7,1.7-1.7,1.7c-0.7,0-1.4-0.7-1.4-1.7v-3.1
				l0,0v-10.1c0-1.4,0.7-2.1,2.1-2.1c1,0,2.1,0.7,2.1,2.1v10.1h0.3v-10.1C69.8,179.8,68.8,178.8,67.4,178.8z"/>
		</g>
		<g>
			<path class="st59" d="M149.2,186.8h0.7v0.3c0,0.7,0.3,1,1,1h9.7c0.3,0,0.7,0,0.7,0.3c0.3,0,0.3,0.3,0.3,0.7l0,0h-10.8
				c-1,0-1.7-0.7-1.7-1.7V186.8z"/>
			<path class="st60" d="M149.2,186.8h0.7v0.3c0,0.7,0.3,1,1,1h9.7c0.3,0,0.7,0,0.7,0.3h-10.4C149.9,188.5,149.2,187.8,149.2,186.8
				L149.2,186.8z"/>
			<path class="st61" d="M188.5,186.8v-1l0,0V186.8L188.5,186.8z"/>
			<path class="st61" d="M168,184.7c5.9,0,11.1,0.3,15,0.3v2.4c-3.8,0.3-9.1,0.3-15,0.3c-0.3,0-0.7,0-1,0c0,0,0,0-0.3,0
				c0,0,0,0-0.3,0c0,0-0.3,0-0.7,0c0,0,0,0-0.3,0h-0.3c-5.2,0-10.1-0.3-13.2-0.7c-0.3,0-0.3,0-0.3,0c-0.7,0-1,0-1.4,0s-0.3,0-0.7,0
				l0,0c-0.3,0-0.7-0.3-1-0.3v-0.3c0-0.3,0-0.7,0-0.7c0.3,0,0.7-0.3,1-0.3c0.3,0,0.3,0,0.7,0s1,0,1.7,0c3.1-0.3,8-0.7,13.2-0.7h0.3
				c0.3,0,0.3,0,0.3,0c0.3,0,0.7,0,0.7,0c0.3,0,0.3,0,0.3,0c0.3,0,0.3,0,0.3,0C167.3,184.7,167.6,184.7,168,184.7z"/>
			<path class="st61" d="M149.9,185.1h0.3l0,0c0.3,0,1,0,1.4,0.3l0.3,0.3c0,0.3,0.3,0.3,0.3,0.7c0,0.3-0.3,0.7-0.7,0.7l0,0
				c-0.3,0.3-1,0.3-1.4,0.7l0,0c-0.3,0-0.3,0-0.3,0l0,0c-0.3,0-0.3-0.3-0.7-0.3c-0.3,0-0.7-0.3-1-0.7v-0.3c0-0.3,0-0.7,0-0.7
				c0.3-0.3,0.7-0.7,1-0.7C149.5,185.1,149.5,185.1,149.9,185.1L149.9,185.1z"/>
			<polygon class="st61" points="167,184.4 167,188.2 166.6,188.2 166.3,188.2 165.6,188.2 165.2,188.2 164.9,188.2 150.2,187.8 
				150.2,187.8 149.9,187.8 149.9,185.1 150.2,185.1 150.2,185.1 164.9,184.7 165.2,184.7 165.6,184.7 166.3,184.4 166.6,184.4 			
				"/>
			<polygon class="st62" points="183,187.1 183,185.8 149.9,185.8 149.9,187.1 			"/>
			<path class="st59" d="M149.9,185.1v2.8c-0.3,0-0.3-0.3-0.7-0.3v-2.4C149.5,185.1,149.5,185.1,149.9,185.1z"/>
			<polygon class="st59" points="167,184.4 167,188.2 166.6,188.2 166.3,188.2 165.6,188.2 165.2,188.2 164.9,188.2 164.9,184.7 
				165.2,184.7 165.6,184.7 166.3,184.4 166.6,184.4 			"/>
			<polygon class="st61" points="166.6,184.4 166.6,188.2 166.3,188.2 165.6,188.2 165.2,188.2 165.2,184.7 165.6,184.7 
				166.3,184.4 			"/>
			<polygon class="st59" points="166.3,184.4 166.3,188.2 165.6,188.2 165.6,184.7 			"/>
			<path class="st63" d="M183,185.1c2.4,0.3,4.5,0.3,5.6,0.7v1c-1,0.3-3.1,0.3-5.6,0.7V185.1z"/>
			<path class="st59" d="M188.5,185.8L188.5,185.8v1l0,0V185.8z"/>
			<path class="st64" d="M188.5,186.1c0.7,0,1,0,1,0.3c0,0-0.3,0-1,0.3V186.1z"/>
			<path class="st65" d="M188.5,185.8L188.5,185.8v1l0,0V185.8z"/>
		</g>
		<g>
			<polygon class="st66" points="205.2,180.2 203.9,181.9 202.1,181.2 201.4,179.1 202.1,177 203.9,176.4 205.2,177.7 			"/>
			<polygon class="st67" points="203.9,181.9 203.9,176.4 187.8,176.4 187.8,181.9 			"/>
			<polygon class="st68" points="203.9,180.9 203.9,177 187.8,177 187.8,180.9 			"/>
			<polygon class="st69" points="203.9,180.9 203.9,177.4 187.8,177.4 187.8,180.9 			"/>
			<path class="st70" d="M180.9,176.4h7v5.6h-7c-0.3,0-0.3-0.3-0.7-1l0,0c0-1,0-2.4,0-3.5V177C180.5,176.7,180.5,176.4,180.9,176.4z
				"/>
			<path class="st71" d="M180.2,177h7.7v3.8h-7.7l0,0c0-1,0-2.4,0-3.5V177z"/>
			<path class="st72" d="M180.2,177.4h7.7v3.5h-7.7C180.2,179.8,180.2,178.4,180.2,177.4z"/>
			<path class="st73" d="M179.8,177.7h10.1c1,0,1,2.8,0,2.8h-10.1C179.5,180.5,179.5,177.7,179.8,177.7z"/>
			<path class="st72" d="M189.6,177.7h0.3c1,0,1,2.8,0,2.8h-0.3V177.7z"/>
			<polygon class="st74" points="208,178.1 208,179.8 205.2,180.2 205.2,177.7 			"/>
			<polygon class="st75" points="208,178.4 209.1,178.4 209.8,179.5 209.4,179.5 208,179.5 			"/>
			<polygon class="st76" points="209.1,178.4 209.1,178.4 209.8,179.5 209.4,179.5 209.1,179.5 			"/>
		</g>
		<g>
			<polygon class="st66" points="173.2,180.2 171.8,181.9 170.1,181.2 169.4,179.1 170.1,177 171.8,176.4 173.2,177.7 			"/>
			<polygon class="st67" points="171.8,181.9 171.8,176.4 155.8,176.4 155.8,181.9 			"/>
			<polygon class="st68" points="171.8,180.9 171.8,177 155.8,177 155.8,180.9 			"/>
			<polygon class="st69" points="171.8,180.9 171.8,177.4 155.8,177.4 155.8,180.9 			"/>
			<path class="st77" d="M148.8,176.4h7v5.6h-7c-0.3,0-0.7-0.3-0.7-1l0,0c-0.3-1-0.3-2.4,0-3.5V177
				C148.2,176.7,148.5,176.4,148.8,176.4z"/>
			<path class="st78" d="M148.2,177h7.7v3.8h-7.7l0,0c-0.3-1-0.3-2.4,0-3.5V177z"/>
			<path class="st79" d="M148.2,177.4h7.7v3.5h-7.7C147.8,179.8,147.8,178.4,148.2,177.4z"/>
			<path class="st80" d="M147.8,177.7h10.1c0.7,0,0.7,2.8,0,2.8h-10.1C147.5,180.5,147.5,177.7,147.8,177.7z"/>
			<path class="st79" d="M157.6,177.7h0.3c0.7,0,0.7,2.8,0,2.8h-0.3V177.7z"/>
			<polygon class="st74" points="176,178.1 176,179.8 173.2,180.2 173.2,177.7 			"/>
			<polygon class="st81" points="176,178.4 177,178.4 177.7,179.5 177.4,179.5 176,179.5 			"/>
			<polygon class="st82" points="177,178.4 177,178.4 177.7,179.5 177.4,179.5 177,179.5 			"/>
		</g>
		<g>
			<polygon class="st83" points="238.3,174.3 176,174.3 176,84.1 238.3,84.1 			"/>
			<polygon class="st84" points="238.3,174.3 229.6,174.3 229.6,84.1 238.3,84.1 			"/>
			<polygon class="st85" points="237.3,87.9 235.9,87.9 235.9,85.8 237.3,85.8 			"/>
			<polygon class="st86" points="237.6,87.9 237.3,87.9 237.3,85.8 237.6,85.8 			"/>
			<path class="st87" d="M238.7,87.2c1,0,2.4,0,2.4-0.7c0-0.3-1.4-0.3-2.4-0.3c-0.7,0-2.1,0-2.1,0.3C236.6,87.2,238,87.2,238.7,87.2
				z M238.7,86.5c1.4,0,2.1,0,2.1,0c0,0.3-0.7,0.3-2.1,0.3c-1,0-2.1,0-2.1-0.3C236.6,86.5,237.6,86.5,238.7,86.5z"/>
			<path class="st87" d="M238.7,87.9c1,0,2.4-0.3,2.4-0.7c0-0.3-1.4-0.7-2.4-0.7c-0.7,0-2.1,0.3-2.1,0.7
				C236.6,87.6,238,87.9,238.7,87.9z M238.7,86.9c1.4,0,2.1,0.3,2.1,0.3s-0.7,0.3-2.1,0.3c-1,0-2.1-0.3-2.1-0.3
				S237.6,86.9,238.7,86.9z"/>
			<polygon class="st85" points="237.3,93.1 235.9,93.1 235.9,91.1 237.3,91.1 			"/>
			<polygon class="st86" points="237.6,93.1 237.3,93.1 237.3,91.1 237.6,91.1 			"/>
			<path class="st87" d="M238.7,92.4c1,0,2.4,0,2.4-0.7c0-0.3-1.4-0.3-2.4-0.3c-0.7,0-2.1,0-2.1,0.3C236.6,92.4,238,92.4,238.7,92.4
				z M238.7,91.4c1.4,0,2.1,0.3,2.1,0.3c0,0.3-0.7,0.3-2.1,0.3c-1,0-2.1,0-2.1-0.3C236.6,91.8,237.6,91.4,238.7,91.4z"/>
			<path class="st87" d="M238.7,92.8c1,0,2.4,0,2.4-0.3c0-0.3-1.4-0.7-2.4-0.7c-0.7,0-2.1,0.3-2.1,0.7
				C236.6,92.8,238,92.8,238.7,92.8z M238.7,92.1c1.4,0,2.1,0.3,2.1,0.3s-0.7,0.3-2.1,0.3c-1,0-2.1-0.3-2.1-0.3
				S237.6,92.1,238.7,92.1z"/>
			<polygon class="st85" points="237.3,98.4 235.9,98.4 235.9,96.3 237.3,96.3 			"/>
			<polygon class="st86" points="237.6,98.4 237.3,98.4 237.3,96.3 237.6,96.3 			"/>
			<path class="st87" d="M238.7,97.7c1,0,2.4-0.3,2.4-0.7c0-0.3-1.4-0.3-2.4-0.3c-0.7,0-2.1,0-2.1,0.3
				C236.6,97.3,238,97.7,238.7,97.7z M238.7,96.6c1.4,0,2.1,0.3,2.1,0.3c0,0.3-0.7,0.3-2.1,0.3c-1,0-2.1,0-2.1-0.3
				C236.6,97,237.6,96.6,238.7,96.6z"/>
			<path class="st87" d="M238.7,98c1,0,2.4,0,2.4-0.3c0-0.3-1.4-0.7-2.4-0.7c-0.7,0-2.1,0.3-2.1,0.7C236.6,98,238,98,238.7,98z
				 M238.7,97.3c1.4,0,2.1,0,2.1,0.3c0,0-0.7,0.3-2.1,0.3c-1,0-2.1-0.3-2.1-0.3C236.6,97.3,237.6,97.3,238.7,97.3z"/>
			<polygon class="st85" points="237.3,103.6 235.9,103.6 235.9,101.5 237.3,101.5 			"/>
			<polygon class="st86" points="237.6,103.6 237.3,103.6 237.3,101.5 237.6,101.5 			"/>
			<path class="st87" d="M238.7,102.9c1,0,2.4-0.3,2.4-0.7c0-0.3-1.4-0.3-2.4-0.3c-0.7,0-2.1,0-2.1,0.3
				C236.6,102.5,238,102.9,238.7,102.9z M238.7,101.8c1.4,0,2.1,0.3,2.1,0.3s-0.7,0.3-2.1,0.3c-1,0-2.1-0.3-2.1-0.3
				S237.6,101.8,238.7,101.8z"/>
			<path class="st87" d="M238.7,103.2c1,0,2.4,0,2.4-0.3c0-0.7-1.4-0.7-2.4-0.7c-0.7,0-2.1,0-2.1,0.7
				C236.6,103.2,238,103.2,238.7,103.2z M238.7,102.5c1.4,0,2.1,0,2.1,0.3c0,0-0.7,0.3-2.1,0.3c-1,0-2.1-0.3-2.1-0.3
				C236.6,102.5,237.6,102.5,238.7,102.5z"/>
			<polygon class="st85" points="237.3,108.8 235.9,108.8 235.9,106.7 237.3,106.7 			"/>
			<polygon class="st86" points="237.6,108.8 237.3,108.8 237.3,106.7 237.6,106.7 			"/>
			<path class="st87" d="M238.7,108.1c1,0,2.4-0.3,2.4-0.7c0-0.3-1.4-0.7-2.4-0.7c-0.7,0-2.1,0.3-2.1,0.7
				C236.6,107.8,238,108.1,238.7,108.1z M238.7,107.1c1.4,0,2.1,0.3,2.1,0.3s-0.7,0.3-2.1,0.3c-1,0-2.1-0.3-2.1-0.3
				S237.6,107.1,238.7,107.1z"/>
			<path class="st87" d="M238.7,108.5c1,0,2.4,0,2.4-0.3c0-0.7-1.4-0.7-2.4-0.7c-0.7,0-2.1,0-2.1,0.7
				C236.6,108.5,238,108.5,238.7,108.5z M238.7,107.8c1.4,0,2.1,0,2.1,0.3c0,0-0.7,0-2.1,0c-1,0-2.1,0-2.1,0
				C236.6,107.8,237.6,107.8,238.7,107.8z"/>
			<polygon class="st85" points="237.3,114 235.9,114 235.9,111.9 237.3,111.9 			"/>
			<polygon class="st86" points="237.6,114 237.3,114 237.3,111.9 237.6,111.9 			"/>
			<path class="st87" d="M238.7,113c1,0,2.4,0,2.4-0.3c0-0.3-1.4-0.7-2.4-0.7c-0.7,0-2.1,0.3-2.1,0.7C236.6,113,238,113,238.7,113z
				 M238.7,112.3c1.4,0,2.1,0.3,2.1,0.3s-0.7,0.3-2.1,0.3c-1,0-2.1-0.3-2.1-0.3S237.6,112.3,238.7,112.3z"/>
			<path class="st87" d="M238.7,113.7c1,0,2.4,0,2.4-0.7c0-0.3-1.4-0.3-2.4-0.3c-0.7,0-2.1,0-2.1,0.3
				C236.6,113.7,238,113.7,238.7,113.7z M238.7,113c1.4,0,2.1,0,2.1,0c0,0.3-0.7,0.3-2.1,0.3c-1,0-2.1,0-2.1-0.3
				C236.6,113,237.6,113,238.7,113z"/>
			<polygon class="st85" points="237.3,118.9 235.9,118.9 235.9,117.2 237.3,117.2 			"/>
			<polygon class="st86" points="237.6,118.9 237.3,118.9 237.3,117.2 237.6,117.2 			"/>
			<path class="st87" d="M238.7,118.2c1,0,2.4,0,2.4-0.3c0-0.3-1.4-0.7-2.4-0.7c-0.7,0-2.1,0.3-2.1,0.7
				C236.6,118.2,238,118.2,238.7,118.2z M238.7,117.5c1.4,0,2.1,0,2.1,0.3c0,0-0.7,0.3-2.1,0.3c-1,0-2.1-0.3-2.1-0.3
				C236.6,117.5,237.6,117.5,238.7,117.5z"/>
			<path class="st87" d="M238.7,118.9c1,0,2.4,0,2.4-0.7c0-0.3-1.4-0.3-2.4-0.3c-0.7,0-2.1,0-2.1,0.3
				C236.6,118.9,238,118.9,238.7,118.9z M238.7,117.9c1.4,0,2.1,0.3,2.1,0.3c0,0.3-0.7,0.3-2.1,0.3c-1,0-2.1,0-2.1-0.3
				C236.6,118.2,237.6,117.9,238.7,117.9z"/>
			<polygon class="st85" points="237.3,124.1 235.9,124.1 235.9,122.4 237.3,122.4 			"/>
			<polygon class="st86" points="237.6,124.1 237.3,124.1 237.3,122.4 237.6,122.4 			"/>
			<path class="st87" d="M238.7,123.4c1,0,2.4,0,2.4-0.3c0-0.7-1.4-0.7-2.4-0.7c-0.7,0-2.1,0-2.1,0.7
				C236.6,123.4,238,123.4,238.7,123.4z M238.7,122.7c1.4,0,2.1,0,2.1,0.3c0,0-0.7,0.3-2.1,0.3c-1,0-2.1-0.3-2.1-0.3
				C236.6,122.7,237.6,122.7,238.7,122.7z"/>
			<path class="st87" d="M238.7,124.1c1,0,2.4-0.3,2.4-0.7s-1.4-0.3-2.4-0.3c-0.7,0-2.1,0-2.1,0.3S238,124.1,238.7,124.1z
				 M238.7,123.1c1.4,0,2.1,0.3,2.1,0.3c0,0.3-0.7,0.3-2.1,0.3c-1,0-2.1,0-2.1-0.3C236.6,123.4,237.6,123.1,238.7,123.1z"/>
			<polygon class="st85" points="237.3,129.4 235.9,129.4 235.9,127.3 237.3,127.3 			"/>
			<polygon class="st86" points="237.6,129.4 237.3,129.4 237.3,127.3 237.6,127.3 			"/>
			<path class="st87" d="M238.7,128.7c1,0,2.4,0,2.4-0.3c0-0.7-1.4-0.7-2.4-0.7c-0.7,0-2.1,0-2.1,0.7
				C236.6,128.7,238,128.7,238.7,128.7z M238.7,128c1.4,0,2.1,0,2.1,0.3c0,0-0.7,0-2.1,0c-1,0-2.1,0-2.1,0
				C236.6,128,237.6,128,238.7,128z"/>
			<path class="st87" d="M238.7,129.4c1,0,2.4-0.3,2.4-0.7c0-0.3-1.4-0.3-2.4-0.3c-0.7,0-2.1,0-2.1,0.3
				C236.6,129,238,129.4,238.7,129.4z M238.7,128.3c1.4,0,2.1,0.3,2.1,0.3s-0.7,0.3-2.1,0.3c-1,0-2.1-0.3-2.1-0.3
				S237.6,128.3,238.7,128.3z"/>
			<polygon class="st85" points="237.3,134.6 235.9,134.6 235.9,132.5 237.3,132.5 			"/>
			<polygon class="st86" points="237.6,134.6 237.3,134.6 237.3,132.5 237.6,132.5 			"/>
			<path class="st87" d="M238.7,133.9c1,0,2.4,0,2.4-0.7c0-0.3-1.4-0.3-2.4-0.3c-0.7,0-2.1,0-2.1,0.3
				C236.6,133.9,238,133.9,238.7,133.9z M238.7,132.8c1.4,0,2.1,0.3,2.1,0.3c0,0.3-0.7,0.3-2.1,0.3c-1,0-2.1,0-2.1-0.3
				C236.6,133.2,237.6,132.8,238.7,132.8z"/>
			<path class="st87" d="M238.7,134.6c1,0,2.4-0.3,2.4-0.7c0-0.3-1.4-0.7-2.4-0.7c-0.7,0-2.1,0.3-2.1,0.7
				C236.6,134.2,238,134.6,238.7,134.6z M238.7,133.5c1.4,0,2.1,0.3,2.1,0.3s-0.7,0.3-2.1,0.3c-1,0-2.1-0.3-2.1-0.3
				S237.6,133.5,238.7,133.5z"/>
			<polygon class="st85" points="237.3,139.8 235.9,139.8 235.9,137.7 237.3,137.7 			"/>
			<polygon class="st86" points="237.6,139.8 237.3,139.8 237.3,137.7 237.6,137.7 			"/>
			<path class="st87" d="M238.7,139.1c1,0,2.4,0,2.4-0.7c0-0.3-1.4-0.3-2.4-0.3c-0.7,0-2.1,0-2.1,0.3
				C236.6,139.1,238,139.1,238.7,139.1z M238.7,138.1c1.4,0,2.1,0.3,2.1,0.3c0,0.3-0.7,0.3-2.1,0.3c-1,0-2.1,0-2.1-0.3
				C236.6,138.4,237.6,138.1,238.7,138.1z"/>
			<path class="st87" d="M238.7,139.4c1,0,2.4,0,2.4-0.3c0-0.3-1.4-0.7-2.4-0.7c-0.7,0-2.1,0.3-2.1,0.7
				C236.6,139.4,238,139.4,238.7,139.4z M238.7,138.8c1.4,0,2.1,0.3,2.1,0.3s-0.7,0.3-2.1,0.3c-1,0-2.1-0.3-2.1-0.3
				S237.6,138.8,238.7,138.8z"/>
			<polygon class="st85" points="237.3,145 235.9,145 235.9,142.9 237.3,142.9 			"/>
			<polygon class="st86" points="237.6,145 237.3,145 237.3,142.9 237.6,142.9 			"/>
			<path class="st87" d="M238.7,144.3c1,0,2.4-0.3,2.4-0.7c0-0.3-1.4-0.3-2.4-0.3c-0.7,0-2.1,0-2.1,0.3
				C236.6,144,238,144.3,238.7,144.3z M238.7,143.3c1.4,0,2.1,0.3,2.1,0.3s-0.7,0.3-2.1,0.3c-1,0-2.1-0.3-2.1-0.3
				S237.6,143.3,238.7,143.3z"/>
			<path class="st87" d="M238.7,144.7c1,0,2.4,0,2.4-0.3c0-0.3-1.4-0.7-2.4-0.7c-0.7,0-2.1,0.3-2.1,0.7
				C236.6,144.7,238,144.7,238.7,144.7z M238.7,144c1.4,0,2.1,0,2.1,0.3c0,0-0.7,0.3-2.1,0.3c-1,0-2.1-0.3-2.1-0.3
				C236.6,144,237.6,144,238.7,144z"/>
			<polygon class="st85" points="237.3,150.2 235.9,150.2 235.9,148.2 237.3,148.2 			"/>
			<polygon class="st86" points="237.6,150.2 237.3,150.2 237.3,148.2 237.6,148.2 			"/>
			<path class="st87" d="M238.7,149.5c1,0,2.4-0.3,2.4-0.7c0-0.3-1.4-0.7-2.4-0.7c-0.7,0-2.1,0.3-2.1,0.7
				C236.6,149.2,238,149.5,238.7,149.5z M238.7,148.5c1.4,0,2.1,0.3,2.1,0.3s-0.7,0.3-2.1,0.3c-1,0-2.1-0.3-2.1-0.3
				S237.6,148.5,238.7,148.5z"/>
			<path class="st87" d="M238.7,149.9c1,0,2.4,0,2.4-0.3c0-0.7-1.4-0.7-2.4-0.7c-0.7,0-2.1,0-2.1,0.7
				C236.6,149.9,238,149.9,238.7,149.9z M238.7,149.2c1.4,0,2.1,0,2.1,0.3c0,0-0.7,0.3-2.1,0.3c-1,0-2.1-0.3-2.1-0.3
				C236.6,149.2,237.6,149.2,238.7,149.2z"/>
			<polygon class="st85" points="237.3,155.5 235.9,155.5 235.9,153.4 237.3,153.4 			"/>
			<polygon class="st86" points="237.6,155.5 237.3,155.5 237.3,153.4 237.6,153.4 			"/>
			<path class="st87" d="M238.7,154.8c1,0,2.4-0.3,2.4-0.7c0-0.3-1.4-0.7-2.4-0.7c-0.7,0-2.1,0.3-2.1,0.7
				C236.6,154.4,238,154.8,238.7,154.8z M238.7,153.7c1.4,0,2.1,0.3,2.1,0.3s-0.7,0.3-2.1,0.3c-1,0-2.1-0.3-2.1-0.3
				S237.6,153.7,238.7,153.7z"/>
			<path class="st87" d="M238.7,155.1c1,0,2.4,0,2.4-0.3c0-0.7-1.4-0.7-2.4-0.7c-0.7,0-2.1,0-2.1,0.7
				C236.6,155.1,238,155.1,238.7,155.1z M238.7,154.4c1.4,0,2.1,0,2.1,0.3c0,0-0.7,0-2.1,0c-1,0-2.1,0-2.1,0
				C236.6,154.4,237.6,154.4,238.7,154.4z"/>
			<polygon class="st85" points="237.3,160.7 235.9,160.7 235.9,158.6 237.3,158.6 			"/>
			<polygon class="st86" points="237.6,160.7 237.3,160.7 237.3,158.6 237.6,158.6 			"/>
			<path class="st87" d="M238.7,159.6c1,0,2.4,0,2.4-0.3c0-0.3-1.4-0.7-2.4-0.7c-0.7,0-2.1,0.3-2.1,0.7
				C236.6,159.6,238,159.6,238.7,159.6z M238.7,158.9c1.4,0,2.1,0.3,2.1,0.3s-0.7,0.3-2.1,0.3c-1,0-2.1-0.3-2.1-0.3
				S237.6,158.9,238.7,158.9z"/>
			<path class="st87" d="M238.7,160.3c1,0,2.4,0,2.4-0.7c0-0.3-1.4-0.3-2.4-0.3c-0.7,0-2.1,0-2.1,0.3
				C236.6,160.3,238,160.3,238.7,160.3z M238.7,159.3c1.4,0,2.1,0.3,2.1,0.3c0,0.3-0.7,0.3-2.1,0.3c-1,0-2.1,0-2.1-0.3
				C236.6,159.6,237.6,159.3,238.7,159.3z"/>
			<polygon class="st85" points="237.3,165.6 235.9,165.6 235.9,163.8 237.3,163.8 			"/>
			<polygon class="st86" points="237.6,165.6 237.3,165.6 237.3,163.8 237.6,163.8 			"/>
			<path class="st87" d="M238.7,164.9c1,0,2.4,0,2.4-0.3c0-0.7-1.4-0.7-2.4-0.7c-0.7,0-2.1,0-2.1,0.7
				C236.6,164.9,238,164.9,238.7,164.9z M238.7,164.2c1.4,0,2.1,0,2.1,0.3c0,0-0.7,0.3-2.1,0.3c-1,0-2.1-0.3-2.1-0.3
				C236.6,164.2,237.6,164.2,238.7,164.2z"/>
			<path class="st87" d="M238.7,165.6c1,0,2.4,0,2.4-0.7c0-0.3-1.4-0.3-2.4-0.3c-0.7,0-2.1,0-2.1,0.3
				C236.6,165.6,238,165.6,238.7,165.6z M238.7,164.5c1.4,0,2.1,0.3,2.1,0.3c0,0.3-0.7,0.3-2.1,0.3c-1,0-2.1,0-2.1-0.3
				C236.6,164.9,237.6,164.5,238.7,164.5z"/>
			<polygon class="st85" points="237.3,170.8 235.9,170.8 235.9,168.7 237.3,168.7 			"/>
			<polygon class="st86" points="237.6,170.8 237.3,170.8 237.3,168.7 237.6,168.7 			"/>
			<path class="st87" d="M238.7,170.1c1,0,2.4,0,2.4-0.3c0-0.7-1.4-0.7-2.4-0.7c-0.7,0-2.1,0-2.1,0.7
				C236.6,170.1,238,170.1,238.7,170.1z M238.7,169.4c1.4,0,2.1,0,2.1,0.3c0,0-0.7,0.3-2.1,0.3c-1,0-2.1-0.3-2.1-0.3
				C236.6,169.4,237.6,169.4,238.7,169.4z"/>
			<path class="st87" d="M238.7,170.8c1,0,2.4-0.3,2.4-0.7s-1.4-0.3-2.4-0.3c-0.7,0-2.1,0-2.1,0.3S238,170.8,238.7,170.8z
				 M238.7,169.7c1.4,0,2.1,0.3,2.1,0.3s-0.7,0.3-2.1,0.3c-1,0-2.1-0.3-2.1-0.3S237.6,169.7,238.7,169.7z"/>
		</g>
		<g>
			<polygon class="st88" points="210.5,65.3 210.5,173.9 127.6,173.9 127.6,65.3 169,70.5 			"/>
			<polygon class="st89" points="210.5,65.3 169,70.5 127.6,65.3 			"/>
			<path class="st90" d="M171.1,59.7c-0.3,1-1,1.7-2.1,1.7s-1.7-0.7-1.7-1.7S168,58,169,58S170.8,58.7,171.1,59.7z M206.3,55.5
				c-0.7-1.7-2.4-2.8-4.5-2.8h-65.5c-2.1,0-3.8,1-4.5,2.8l-4.2,9.7h82.9L206.3,55.5z"/>
			<path class="st91" d="M169,61.5c-1,0-1.7-0.7-1.7-1.7S168,58,169,58s1.7,0.7,2.1,1.7C170.8,60.8,170.1,61.5,169,61.5z
				 M165.2,56.2v6.6h7.7v-6.6H165.2z"/>
			<path class="st92" d="M171.1,59.4v0.3c-0.3-1-1-1.7-2.1-1.7s-1.7,0.7-1.7,1.7c-0.3,0-0.3-0.3-0.3-0.3c0-1,1-1.7,2.1-1.7
				S171.1,58.3,171.1,59.4z"/>
			<polygon class="st91" points="140.1,60.4 162.8,60.4 162.8,52.8 140.1,52.8 			"/>
			<polygon class="st91" points="175.3,60.4 198.3,60.4 198.3,52.8 175.3,52.8 			"/>
			<path class="st93" d="M206.3,164.5c-0.7-1.7-2.4-3.1-4.5-3.1h-65.5c-2.1,0-3.8,1.4-4.5,3.1l-4.2,9.7h82.9L206.3,164.5z"/>
		</g>
		<g>
			<polygon class="st94" points="201.4,158.6 204.9,158.6 204.9,97.3 201.4,97.3 			"/>
			<polygon class="st95" points="202.5,158.6 204.2,158.6 204.2,97.3 202.5,97.3 			"/>
			<polygon class="st96" points="202.8,158.6 203.9,158.6 203.9,97.3 202.8,97.3 			"/>
			<path class="st97" d="M201.4,167.3c0,0.7,3.5,0.7,3.5,0v-8.7h-3.5V167.3z"/>
			<polygon class="st98" points="201.4,165.6 204.9,165.6 204.9,158.6 201.4,158.6 			"/>
			<polygon class="st95" points="201.4,163.1 204.9,163.1 204.9,161.7 201.4,161.7 			"/>
			<polygon class="st99" points="201.4,164.2 204.9,164.2 204.9,163.8 201.4,163.8 			"/>
			<polygon class="st99" points="201.4,159.6 204.9,159.6 204.9,159.3 201.4,159.3 			"/>
			<polygon class="st100" points="201.4,97.3 202.8,93.5 203.2,92.1 203.5,92.1 203.9,93.1 204.9,97.3 204.9,97.3 204.2,99.1 
				203.9,97.3 203.2,98.4 202.8,98 202.5,99.8 			"/>
			<polygon class="st101" points="202.8,93.5 203.2,92.1 203.5,92.1 203.9,93.1 203.5,93.8 203.2,93.5 203.2,93.8 			"/>
			<polygon class="st94" points="207.3,158.6 210.8,158.6 210.8,97.3 207.3,97.3 			"/>
			<polygon class="st95" points="208,158.6 210.1,158.6 210.1,97.3 208,97.3 			"/>
			<polygon class="st96" points="208.7,158.6 209.4,158.6 209.4,97.3 208.7,97.3 			"/>
			<path class="st97" d="M207.3,167.3c0,0.7,3.5,0.7,3.5,0v-8.7h-3.5V167.3z"/>
			<polygon class="st98" points="207.3,165.6 210.8,165.6 210.8,158.6 207.3,158.6 			"/>
			<polygon class="st95" points="207.3,163.1 210.8,163.1 210.8,161.7 207.3,161.7 			"/>
			<polygon class="st99" points="207.3,164.2 210.8,164.2 210.8,163.8 207.3,163.8 			"/>
			<polygon class="st99" points="207.3,159.6 210.8,159.6 210.8,159.3 207.3,159.3 			"/>
			<polygon class="st100" points="207.3,97.3 208.4,93.5 209.1,92.1 209.1,92.1 209.4,93.1 210.8,97.3 210.8,97.3 210.1,99.1 
				209.4,97.3 209.1,98.4 208.4,98 208,99.8 			"/>
			<polygon class="st101" points="208.4,93.5 209.1,92.1 209.1,92.1 209.4,93.1 209.4,93.8 209.1,93.5 208.7,93.8 			"/>
			<polygon class="st94" points="213.3,158.6 216.4,158.6 216.4,97.3 213.3,97.3 			"/>
			<polygon class="st95" points="213.9,158.6 215.7,158.6 215.7,97.3 213.9,97.3 			"/>
			<polygon class="st96" points="214.3,158.6 215.3,158.6 215.3,97.3 214.3,97.3 			"/>
			<path class="st97" d="M213.3,167.3c0,0.7,3.1,0.7,3.1,0v-8.7h-3.1V167.3z"/>
			<polygon class="st98" points="213.3,165.6 216.4,165.6 216.4,158.6 213.3,158.6 			"/>
			<polygon class="st95" points="213.3,163.1 216.4,163.1 216.4,161.7 213.3,161.7 			"/>
			<polygon class="st99" points="213.3,164.2 216.4,164.2 216.4,163.8 213.3,163.8 			"/>
			<polygon class="st99" points="213.3,159.6 216.4,159.6 216.4,159.3 213.3,159.3 			"/>
			<polygon class="st100" points="213.3,97.3 214.3,93.5 214.6,92.1 215,92.1 215.3,93.1 216.4,97.3 216.4,97.3 215.7,99.1 
				215.3,97.3 215,98.4 214.3,98 213.9,99.8 			"/>
			<polygon class="st101" points="214.3,93.5 214.6,92.1 215,92.1 215.3,93.1 215,93.8 215,93.5 214.6,93.8 			"/>
			<polygon class="st94" points="218.8,158.6 222.3,158.6 222.3,97.3 218.8,97.3 			"/>
			<polygon class="st95" points="219.5,158.6 221.6,158.6 221.6,97.3 219.5,97.3 			"/>
			<polygon class="st96" points="220.2,158.6 221.3,158.6 221.3,97.3 220.2,97.3 			"/>
			<path class="st97" d="M218.8,167.3c0,0.7,3.5,0.7,3.5,0v-8.7h-3.5V167.3z"/>
			<polygon class="st98" points="218.8,165.6 222.3,165.6 222.3,158.6 218.8,158.6 			"/>
			<polygon class="st95" points="218.8,163.1 222.3,163.1 222.3,161.7 218.8,161.7 			"/>
			<polygon class="st99" points="218.8,164.2 222.3,164.2 222.3,163.8 218.8,163.8 			"/>
			<polygon class="st99" points="218.8,159.6 222.3,159.6 222.3,159.3 218.8,159.3 			"/>
			<polygon class="st100" points="218.8,97.3 220.2,93.5 220.6,92.1 220.9,92.1 220.9,93.1 222.3,97.3 222.3,97.3 221.6,99.1 
				221.3,97.3 220.6,98.4 220.2,98 219.5,99.8 			"/>
			<polygon class="st101" points="220.2,93.5 220.6,92.1 220.9,92.1 220.9,93.1 220.9,93.8 220.6,93.5 220.2,93.8 			"/>
			<polygon class="st94" points="224.7,158.6 228.2,158.6 228.2,97.3 224.7,97.3 			"/>
			<polygon class="st95" points="225.4,158.6 227.5,158.6 227.5,97.3 225.4,97.3 			"/>
			<polygon class="st96" points="225.8,158.6 226.8,158.6 226.8,97.3 225.8,97.3 			"/>
			<path class="st97" d="M224.7,167.3c0,0.7,3.5,0.7,3.5,0v-8.7h-3.5V167.3z"/>
			<polygon class="st98" points="224.7,165.6 228.2,165.6 228.2,158.6 224.7,158.6 			"/>
			<polygon class="st95" points="224.7,163.1 228.2,163.1 228.2,161.7 224.7,161.7 			"/>
			<polygon class="st99" points="224.7,164.2 228.2,164.2 228.2,163.8 224.7,163.8 			"/>
			<polygon class="st99" points="224.7,159.6 228.2,159.6 228.2,159.3 224.7,159.3 			"/>
			<polygon class="st100" points="224.7,97.3 225.8,93.5 226.1,92.1 226.5,92.1 226.8,93.1 228.2,97.3 228.2,97.3 227.5,99.1 
				226.8,97.3 226.5,98.4 225.8,98 225.4,99.8 			"/>
			<polygon class="st101" points="225.8,93.5 226.1,92.1 226.5,92.1 226.8,93.1 226.8,93.8 226.5,93.5 226.1,93.8 			"/>
			<path d="M228.9,167.6h-28.2v-39h28.2V167.6z M200,128v40.4h29.6V128H200z"/>
			<path class="st102" d="M231.4,127.3L231.4,127.3c0,0.7-0.3,1-1,1h-31c-0.7,0-1-0.3-1-1l0,0c0-0.7,0.3-1,1-1h31
				C231,126.2,231.4,126.6,231.4,127.3z"/>
			<path class="st102" d="M230.3,169.7h-31c-0.7,0-1-0.7-1-1.4l0,0c0-0.3,0.3-1,1-1h31c0.7,0,1,0.7,1,1l0,0
				C231.4,169,231,169.7,230.3,169.7z"/>
			<path d="M200,168.3h29.6V128H200V168.3z M230,168.7h-30.3v-41.1H230V168.7z"/>
			<polygon points="200,165.2 229.6,165.2 229.6,164.5 200,164.5 			"/>
			<polygon points="200,161.4 229.6,161.4 229.6,161 200,161 			"/>
			<polygon points="200,157.6 229.6,157.6 229.6,157.2 200,157.2 			"/>
			<polygon points="200,154.1 229.6,154.1 229.6,153.4 200,153.4 			"/>
			<polygon points="200,150.2 229.6,150.2 229.6,149.9 200,149.9 			"/>
			<polygon points="200,146.4 229.6,146.4 229.6,146.1 200,146.1 			"/>
			<polygon points="200,142.9 229.6,142.9 229.6,142.6 200,142.6 			"/>
			<polygon points="200,139.1 229.6,139.1 229.6,138.8 200,138.8 			"/>
			<polygon points="200,135.6 229.6,135.6 229.6,134.9 200,134.9 			"/>
			<polygon points="200,131.8 229.6,131.8 229.6,131.4 200,131.4 			"/>
			<polygon points="226.8,168.3 227.2,168.3 227.2,128 226.8,128 			"/>
			<polygon points="224,168.3 224.4,168.3 224.4,128 224,128 			"/>
			<polygon points="221.3,168.3 222,168.3 222,128 221.3,128 			"/>
			<polygon points="218.8,168.3 219.2,168.3 219.2,128 218.8,128 			"/>
			<polygon points="216,168.3 216.4,168.3 216.4,128 216,128 			"/>
			<polygon points="213.3,168.3 213.6,168.3 213.6,128 213.3,128 			"/>
			<polygon points="210.5,168.3 211.2,168.3 211.2,128 210.5,128 			"/>
			<polygon points="207.7,168.3 208.4,168.3 208.4,128 207.7,128 			"/>
			<polygon points="205.2,168.3 205.6,168.3 205.6,128 205.2,128 			"/>
			<polygon points="202.5,168.3 202.8,168.3 202.8,128 202.5,128 			"/>
			<path class="st103" d="M231.4,127.3L231.4,127.3h-33.1l0,0c0-0.7,0.3-1,1-1h31C231,126.2,231.4,126.6,231.4,127.3z"/>
			<path class="st103" d="M231.4,168.3L231.4,168.3h-33.1l0,0c0-0.3,0.3-1,1-1h31C231,167.3,231.4,168,231.4,168.3z"/>
		</g>
		<path class="st104" d="M176.4,97v71.7c0,3.1-2.4,5.6-5.6,5.6h-86c-3.1,0-5.6-2.4-5.6-5.6V97c0,0,0,0,0-0.3c0-1.4,1.4-2.8,3.1-2.8
			h90.9c1.4,0,2.8,1.4,3.1,2.8C176.4,97,176.4,97,176.4,97z"/>
		<path class="st105" d="M176.4,97v32.7c0,3.5-2.8,6.6-6.6,6.6H85.5c-3.5,0-6.3-3.1-6.3-6.6V97c0,0,0,0,0-0.3c0-1.4,1.4-2.8,3.1-2.8
			h90.9c1.4,0,2.8,1.4,3.1,2.8C176.4,97,176.4,97,176.4,97z"/>
		<path class="st106" d="M176.4,96.6H79.2c0-1.4,1.4-2.8,3.1-2.8h90.9C174.6,93.8,176,95.2,176.4,96.6z"/>
		<polygon class="st105" points="105.7,96.3 117.2,96.3 117.2,94.9 105.7,94.9 		"/>
		<polygon class="st107" points="112.3,95.6 114.4,95.6 114.4,88.3 112.3,88.3 		"/>
		<polygon class="st108" points="112.3,95.6 114.4,95.6 114.4,93.5 112.3,93.5 		"/>
		<polygon class="st109" points="108.8,95.6 112.3,95.6 112.3,94.2 108.8,94.2 		"/>
		<polygon class="st110" points="111.9,95.6 112.3,95.6 112.3,88.3 111.9,88.3 		"/>
		<polygon class="st105" points="138.1,96.3 149.5,96.3 149.5,94.9 138.1,94.9 		"/>
		<polygon class="st107" points="141.2,95.6 143.3,95.6 143.3,88.3 141.2,88.3 		"/>
		<polygon class="st108" points="141.2,95.6 143.3,95.6 143.3,93.5 141.2,93.5 		"/>
		<polygon class="st109" points="143.3,95.6 146.8,95.6 146.8,94.2 143.3,94.2 		"/>
		<polygon class="st110" points="143.3,95.6 143.6,95.6 143.6,88.3 143.3,88.3 		"/>
		<path class="st111" d="M146.1,87.2v1.4c0,0.7-0.7,1-1.4,1h-33.8c-0.7,0-1.4-0.3-1.4-1v-1.4c0-0.7,0.7-1.4,1.4-1.4h33.4
			C145.4,85.8,146.1,86.5,146.1,87.2z"/>
		<path class="st106" d="M146.1,87.2h-36.6c0-0.7,0.7-1.4,1.4-1.4h33.4C145.4,85.8,146.1,86.5,146.1,87.2z"/>
		<polygon class="st111" points="86.9,174.3 168.7,174.3 168.7,136.3 86.9,136.3 		"/>
		<path class="st109" d="M134.6,130.7v11.5H121v-11.5c0-1,1-2.1,2.1-2.1h9.4C133.5,128.7,134.6,129.7,134.6,130.7z"/>
		<polygon class="st112" points="121,142.2 134.6,142.2 134.6,133.2 121,133.2 		"/>
		<path class="st113" d="M134.6,142.2c0,2.1-13.6,2.1-13.6,0V136h13.6V142.2z"/>
		<g>
			<path class="st114" d="M219.5,160.3v9.4c0,0.3,0,0.3,0,0.3V168c0-1-1-2.1-2.1-2.1h-61.6c-1,0-1.7,0.7-1.7,1.7v-7.3
				c0-1,0.7-1.7,1.7-1.7h61.6C218.5,158.6,219.5,159.3,219.5,160.3z"/>
			<path class="st115" d="M219.5,168v2.1c-0.3,1-1,1.7-1.7,1.7h-62c-1,0-1.7-1-1.7-2.1v-2.1c0-1,0.7-1.7,1.7-1.7h61.6
				C218.5,165.9,219.5,167,219.5,168z"/>
			<polygon class="st116" points="155.8,171.5 217.8,171.5 217.8,166.3 155.8,166.3 			"/>
			<polygon class="st117" points="157.6,171.5 215.7,171.5 215.7,160.7 157.6,160.7 			"/>
			<path class="st116" d="M216.4,170.1h-59.5c-0.3,0-1-0.3-1-0.7c0,0,0,0,0,0.3v3.1c0,0.7,0.3,1.4,1,1.4h59.5c0.7,0,1.4-0.7,1.4-1.4
				v-3.1c0-0.3,0-0.3-0.3-0.3C217.4,169.7,217.1,170.1,216.4,170.1z"/>
			<path class="st118" d="M217.8,165.6c0-0.7-0.7-1-1.4-1h-0.7v2.8c0,0.7-0.3,1-1,1h-56.1c-0.7,0-1-0.3-1-1v-2.8h-0.7
				c-0.7,0-1,0.3-1,1v3.5v0.3c0,0.3,0.7,0.7,1,0.7h59.5c0.7,0,1-0.3,1-0.7c0.3,0,0.3-0.3,0.3-0.3V165.6z"/>
			<polygon class="st119" points="161.7,163.8 171.8,163.8 171.8,159.6 161.7,159.6 			"/>
			<polygon class="st119" points="201.4,163.8 211.5,163.8 211.5,159.6 201.4,159.6 			"/>
			<path class="st120" d="M210.5,124.8v18.1c0,1-1,1.7-2.1,1.7h-12.2c0.3-0.7,0.7-1.4,0.7-2.1V136c0-1-1-2.1-2.1-2.1h-16
				c-1.4,0-2.4,1-2.4,2.1v6.6c0,0.7,0.3,1.4,0.7,2.1h-12.2c-1,0-1.7-0.7-1.7-1.7v-18.1c0-0.7,0.3-1.4,1.4-1.4h44.6
				C209.8,123.4,210.5,124.1,210.5,124.8z"/>
			<path class="st121" d="M208.4,123.4v18.8h-11.5V136c0-1-1-2.1-2.1-2.1h-16c-1.4,0-2.4,1-2.4,2.1v6.3h-11.5v-18.8H208.4z"/>
			<path class="st122" d="M213.9,139.8v20.5c0,1-1,1.7-1.7,1.7h-50.8c-1,0-1.7-0.7-1.7-1.7v-20.5c0-1,1-2.1,2.1-2.1h14.6v4.9
				c0,0.7,0.3,1.4,0.7,2.1c0.7,0.7,1.7,1.4,3.1,1.4h13.2c1,0,2.1-0.7,2.8-1.4c0.3-0.7,0.7-1.4,0.7-2.1v-4.9h14.6
				C212.9,137.7,213.9,138.8,213.9,139.8z"/>
			<path class="st123" d="M193.4,146.1h-13.2c-1.4,0-2.4-0.7-3.1-1.4c-0.3-0.7-0.7-1.4-0.7-2.1V136c0-1,1-2.1,2.4-2.1h16
				c1,0,2.1,1,2.1,2.1v6.6c0,0.7-0.3,1.4-0.7,2.1C195.5,145.4,194.5,146.1,193.4,146.1z M211.5,132.8h-49.8c-1,0-2.1,1-2.1,2.1v20.5
				c0,1,0.7,1.7,1.7,1.7h50.8c0.7,0,1.7-0.7,1.7-1.7v-20.5C213.9,133.9,212.9,132.8,211.5,132.8z"/>
			<path class="st124" d="M196.9,136v1c0-1.4-1-2.1-2.1-2.1c0,1.4-16,1.4-16,0c-1.4,0-2.4,0.7-2.4,2.1v-1c0-1,1-2.1,2.4-2.1h16
				C195.8,133.9,196.9,134.9,196.9,136z"/>
		</g>
		<g>
			<path d="M94.5,149.5V169c0,1-1,2.1-1.7,2.1H39.5v-23.3h4.2l0.7,1l0.7,1.7l2.1,5.2c2.1,4.9,7.3,7.3,11.8,5.2c0.3-0.3,1-0.7,1.4-1
				l2.8-2.1l0.7-0.3l3.5-2.8l3.5-2.4l3.5-2.4l0.7-0.7l2.1-1.4h15.7C93.5,147.8,94.5,148.5,94.5,149.5z"/>
			<path class="st125" d="M94.5,149.5v8.4H77.1v-10.1h15.7C93.5,147.8,94.5,148.5,94.5,149.5z"/>
			<polygon points="77.1,150.6 87.2,150.6 87.2,148.8 77.1,148.8 			"/>
			<polygon class="st126" points="39.5,150.9 43.7,150.9 43.7,148.5 39.5,148.5 			"/>
			<path class="st127" d="M84.8,157.2L84.8,157.2c0-0.3,0-0.3,0-0.7V157.2z"/>
			<path class="st127" d="M58.3,157.2v-0.7C58.3,156.9,58.3,156.9,58.3,157.2L58.3,157.2z"/>
			<path class="st127" d="M71.6,141.9c7.3,0,13.2,5.9,13.2,13.2v1.4c0-7.3-5.9-13.2-13.2-13.2s-13.2,5.9-13.2,13.2v-1.4
				C58.3,147.8,64.2,141.9,71.6,141.9z"/>
			<path class="st128" d="M71.6,143.3c7.3,0,13.2,5.9,13.2,13.2c0,0.3,0,0.3,0,0.7c0,7-5.9,12.9-13.2,12.9s-12.9-5.9-13.2-12.9
				c0-0.3,0-0.3,0-0.7C58.3,149.2,64.2,143.3,71.6,143.3z"/>
			<path class="st129" d="M63.2,157.2c0,4.5,3.5,8.4,8.4,8.4s8.7-3.8,8.7-8.4c0-4.9-3.8-8.7-8.7-8.7S63.2,152.3,63.2,157.2z"/>
			<path class="st130" d="M63.9,157.2c0,4.2,3.5,7.7,7.7,7.7s7.7-3.5,7.7-7.7c0-4.5-3.5-7.7-7.7-7.7S63.9,152.7,63.9,157.2z"/>
			<path class="st131" d="M67,157.2c0,2.4,2.1,4.5,4.5,4.5c2.8,0,4.9-2.1,4.9-4.5c0-2.8-2.1-4.9-4.9-4.9
				C69.1,152.3,67,154.4,67,157.2z"/>
			<path class="st130" d="M67.7,157.2c0,2.1,1.7,3.8,3.8,3.8s4.2-1.7,4.2-3.8c0-2.4-2.1-4.2-4.2-4.2S67.7,154.8,67.7,157.2z"/>
			<path class="st132" d="M59,150.6H45.1l-0.7-1.7l0,0h15.3l0,0C59.7,149.2,59.4,149.9,59,150.6z"/>
			<polygon class="st133" points="45.1,150.6 43.7,150.6 43.7,148.8 44.4,148.8 44.4,148.8 			"/>
			<polygon class="st134" points="39.5,150.6 43.7,150.6 43.7,148.8 39.5,148.8 			"/>
			<path class="st135" d="M59.7,150.6H59c0.3-0.7,0.7-1.4,0.7-1.7V150.6L59.7,150.6z"/>
			<path class="st136" d="M59.7,150.6L59.7,150.6L59.7,150.6L59.7,150.6z"/>
			<path class="st125" d="M94.5,150.6v20.2l-0.7,1l-1,1.7H41.6l-0.7-1.7l-0.7-0.7l-0.7-1.4v-19.5h4.5v0.3l3.1,7.7
				c2.1,5.2,7.7,7.3,12.5,4.9c0.3-0.3,0.7-0.3,1-0.7l2.8-2.1l0.7-0.3l2.4-2.1l0.7-0.3l5.6-4.2l0.7-0.3l2.4-2.1l0.7-0.3l0,0l0,0l0,0
				l0.7-0.3h15.7C93.8,150.2,94.2,150.2,94.5,150.6z"/>
			<path class="st137" d="M94.5,153.7v17.8l-1.4,2.1l-0.7,1.4H41.6l-0.7-1.4l-1.4-2.1v-19.8h4.2l3.5,8c2.1,5.6,8.7,7.7,13.2,4.2l0,0
				l3.8-2.4l0.7-0.7l2.4-1.7l0.3-0.3l6.3-4.5l0.7-0.7l2.4-1.7l0,0l0,0h15.7C93.5,151.6,94.5,152.7,94.5,153.7z"/>
			<polygon class="st125" points="39.5,151.6 43.7,151.6 43.7,147.8 39.5,147.8 			"/>
			<polygon class="st126" points="39.5,150.9 43.7,150.9 43.7,147.8 39.5,147.8 			"/>
			<polygon class="st125" points="77.1,151.6 90.7,151.6 90.7,150.6 77.1,150.6 			"/>
			<polygon class="st138" points="94.5,168.3 94.5,171.5 93.1,173.6 40.9,173.6 39.5,171.5 39.5,168.3 			"/>
			<polygon class="st139" points="94.5,171.5 93.1,173.6 92.4,175 91.4,177 42.7,177 41.6,175 40.9,173.6 39.5,171.5 			"/>
		</g>
		<g>
			<g>
				<polygon class="st140" points="137.4,178.4 142.6,178.4 142.6,178.8 141.5,180.9 137.4,180.9 				"/>
				<polygon class="st141" points="137.4,178.4 142.6,178.4 142.6,178.8 137.4,178.8 				"/>
				<path class="st142" d="M114.4,177c-0.7,0.3-1,1-1,2.1c0,1.7,1.4,2.8,3.1,2.8h1.7v-0.7h-2.4v-3.1h2.4v-1c0,0.3,0,0.7-0.3,0.7
					c-0.3,0-0.7-0.3-0.7-0.7c0,0,0.3-0.3,0.7-0.3c0.3,0,0.3,0.3,0.3,0.3v-1h-1.4h-0.3C115.8,176,114.7,176.4,114.4,177z"/>
				<path class="st143" d="M118.2,177c0,0.3,0,0.7-0.3,0.7c-0.3,0-0.7-0.3-0.7-0.7c0,0,0.3-0.3,0.7-0.3
					C118.2,176.7,118.2,177,118.2,177z M116.8,178.1h18.8v3.1h-18.8v0.7h20.5c0.3,0,0.3,0,0.7-0.3l0.7-1.4c0.3-0.3,0.3-0.7,0-0.7
					l-0.7-1.7c-0.3,0-0.3-0.3-0.7-0.3l-19.1-1.4h-1.4V178.1z"/>
				<polygon class="st144" points="135.6,181.2 135.6,180.5 116.8,180.5 116.8,181.2 				"/>
				<polygon class="st144" points="135.6,178.8 135.6,178.1 116.8,178.1 116.8,178.8 				"/>
				<polygon class="st145" points="115.8,178.1 116.8,178.1 116.8,178.8 116.1,178.8 116.1,180.5 116.8,180.5 116.8,181.2 
					115.8,181.2 				"/>
				<polygon class="st142" points="116.8,180.5 116.8,178.8 116.1,178.8 116.1,180.5 				"/>
				<path class="st146" d="M125.5,178.8h10.1v1.7h-10.1c0,0,0,0,0-0.3l0,0c0.3,0,0.7-0.3,0.7-0.3c0-0.3-0.3-0.7-0.7-0.7l0,0
					C125.5,178.8,125.5,178.8,125.5,178.8z"/>
				<path class="st140" d="M125.5,178.8h10.1v1.4h-10.1l0,0v-0.3c0,0,0.3,0,0.3-0.3l-0.3-0.3l0,0
					C125.5,178.8,125.5,178.8,125.5,178.8z"/>
				<path class="st147" d="M116.8,178.8h8.7c0,0,0,0,0,0.3l0,0c0.3,0,0.7,0.3,0.7,0.7c0,0-0.3,0.3-0.7,0.3l0,0c0,0.3,0,0.3,0,0.3
					h-8.7V178.8z"/>
				<polygon class="st142" points="125.2,180.5 125.2,180.2 119.3,180.2 119.3,180.5 				"/>
				<polygon class="st142" points="125.2,179.1 125.2,178.8 119.3,178.8 119.3,179.1 				"/>
				<path class="st148" d="M122.7,178.4h1v2.4h-1c-0.3,0-0.7-0.3-0.7-0.7v-1C122,178.8,122.4,178.4,122.7,178.4z"/>
				<path class="st149" d="M122.7,178.4h1v2.4h-1c0,0-0.3-0.3-0.3-0.7v-1C122.4,178.8,122.7,178.4,122.7,178.4z"/>
				<path class="st142" d="M123.8,178.4h1.4c0,0,0.3,0,0.3,0.3c0,0,0,0,0,0.3v1c0,0.3,0,0.3,0,0.3c0,0.3-0.3,0.3-0.3,0.3h-1.4V178.4
					z"/>
				<path class="st142" d="M125.5,179.1c0.3,0,0.7,0.3,0.7,0.7c0,0-0.3,0.3-0.7,0.3l-0.3-0.3C125.2,179.5,125.5,179.1,125.5,179.1z"
					/>
				<path class="st149" d="M118.9,178.4h1.7c0.3,0,0.3,0.3,0.3,0.7v1c0,0.3,0,0.7-0.3,0.7h-1.7c0,0-0.3-0.3-0.3-0.7v-1
					C118.6,178.8,118.9,178.4,118.9,178.4z"/>
				<path class="st142" d="M119.3,178.4h1.4c0.3,0,0.3,0.3,0.3,0.7v1c0,0.3,0,0.7-0.3,0.7h-1.4V178.4z"/>
				<path class="st147" d="M117.9,176.7L117.9,176.7c-0.3,0-0.7,0.3-0.7,0.3c0,0.3,0.3,0.7,0.7,0.7l0,0c-0.3,0-0.7-0.3-0.7-0.7
					C117.2,177,117.5,176.7,117.9,176.7z"/>
			</g>
			<g>
				<path class="st150" d="M137,188.2c0,0.3,0,0.3,0,0.3l0,0C137,188.5,137,188.5,137,188.2L137,188.2z"/>
				<path class="st150" d="M127.6,187.1l-1,1.4l-0.7,0.3v0.7h1.7l10.8-0.3h0.3c0.3,0,0.7-0.3,0.7-0.7l-8.7-1.4H127.6z"/>
				<path class="st151" d="M125.9,187.1v0.7l0.7,0.7l1,1l0,0l10.8-0.3h0.3c0.3,0,0.7-0.3,0.7-0.7l0,0l0,0l0,0l-8.7-1.4h-3.1H125.9z"
					/>
				<path class="st150" d="M130.7,187.1l8.7,1.4l0,0v-0.3c0-0.3-0.3-0.7-0.7-0.7h-0.3L130.7,187.1z"/>
				<path class="st152" d="M129,187.8c-0.3,0-0.7,0.3-0.7,0.7c0,0,0.3,0.3,0.7,0.3s0.7-0.3,0.7-0.3
					C129.7,188.2,129.4,187.8,129,187.8z"/>
				<path class="st153" d="M116.8,189.6c1.7,0,2.8,0.7,2.8,1.7c0,0.7-1,1.4-2.8,1.4c-1.4,0-2.1-0.7-2.1-1.4
					C114.7,190.3,115.4,189.6,116.8,189.6z M125.5,188.5h-8.4l0,0c-2.4,0-3.8,1.4-3.8,2.8c0,1.4,1.4,2.4,3.8,2.4
					c1.7,0,2.8-0.3,3.8-1v-0.3l0,0l0,0c1.7-1.7,5.9-2.4,5.9-2.4L125.5,188.5z"/>
				<path class="st154" d="M116.8,189.6c1.7,0,2.8,0.7,2.8,1.7c0,0.7-1,1.4-2.8,1.4c-1.4,0-2.1-0.7-2.1-1.4
					C114.7,190.3,115.4,189.6,116.8,189.6z M117.2,189.2c-2.1,0-3.1,0.7-3.1,2.1c0,1,1,2.1,3.1,2.1c1.7,0,3.1-1,3.1-2.1
					C120.3,189.9,118.9,189.2,117.2,189.2z"/>
				<path class="st153" d="M114.7,185.4c0-0.7,0.7-1.4,2.1-1.4c1.7,0,2.8,0.7,2.8,1.4c0,1-1,1.7-2.8,1.7
					C115.4,187.1,114.7,186.4,114.7,185.4z M126.9,186.8c0,0-4.2-0.7-5.9-2.4l0,0l0,0V184c-1-0.7-2.1-1-3.8-1c-2.4,0-3.8,1-3.8,2.4
					c0,1.4,1.4,2.8,3.8,2.8l0,0h8.4L126.9,186.8z"/>
				<path class="st154" d="M114.7,185.4c0-0.7,0.7-1.4,2.1-1.4c1.7,0,2.8,0.7,2.8,1.4c0,1-1,1.7-2.8,1.7
					C115.4,187.1,114.7,186.4,114.7,185.4z M120.3,185.4c0-1-1.4-2.1-3.1-2.1c-2.1,0-3.1,1-3.1,2.1c0,1.4,1,2.1,3.1,2.1
					C118.9,187.5,120.3,186.8,120.3,185.4z"/>
			</g>
		</g>
		<g>
			<path class="st155" d="M107.4,157.2v12.2H97v-12.2c0,0,0.3-0.3,0.7-0.3c1.7-0.7,7.3-0.7,9.1,0
				C107.1,156.9,107.4,157.2,107.4,157.2z"/>
			<path class="st156" d="M107.4,171.1H97v-12.2c0-1.4,10.4-1.4,10.4,0V171.1z"/>
			<path d="M106.7,156.9v0.7c0,0,0,0-0.3-0.3c-1.7-0.3-6.6-0.3-8.4,0c-0.3,0.3-0.3,0.3-0.3,0.3v-0.7c0-0.3,0.3-0.3,0.3-0.3
				c2.1-0.3,6.3-0.3,8.4,0C106.4,156.5,106.7,156.5,106.7,156.9z"/>
			<path class="st157" d="M98,156.5v0.7c-0.3,0.3-0.3,0.3-0.3,0.3v-0.7C97.7,156.5,98,156.5,98,156.5z"/>
			<path class="st157" d="M106.7,156.9v0.7c0,0,0,0-0.3-0.3v-0.7C106.4,156.5,106.7,156.5,106.7,156.9z"/>
			<path class="st158" d="M106.7,175.3h-9.1v-10.8c0-0.3,0.3-0.7,0.7-0.7h7.7c0.3,0,0.7,0.3,0.7,0.7V175.3z"/>
			<polygon class="st159" points="97.7,166.3 106.7,166.3 106.7,165.2 97.7,165.2 			"/>
			<path class="st159" d="M106.4,168v5.9c0,0.3,0,0.3-0.3,0.7h-0.3h-7h-0.3c-0.3-0.3-0.3-0.3-0.3-0.7V168c0-0.3,0.3-0.7,0.7-0.7h7
				C106,167.3,106.4,167.6,106.4,168z"/>
			<path class="st160" d="M107.1,176h-9.7c-0.3,0-0.3,0-0.3-0.3l0,0c0,0,0-0.3,0.3-0.3h9.7c0.3,0,0.3,0.3,0.3,0.3l0,0
				C107.4,176,107.4,176,107.1,176z"/>
			<path class="st160" d="M106,174.6h-0.3h-7h-0.3l1.4-2.4h4.9L106,174.6z"/>
			<polygon class="st161" points="99.8,172.2 104.6,172.2 104.6,167.3 99.8,167.3 			"/>
			<path class="st162" d="M104.6,170.8h-4.9c-0.3,0-0.7-0.3-0.7-0.7l0,0c0-0.3,0.3-0.7,0.7-0.7h4.9c0.3,0,0.7,0.3,0.7,0.7l0,0
				C105.3,170.4,105,170.8,104.6,170.8z"/>
			<path class="st95" d="M99.8,171.5L99.8,171.5L99.8,171.5v-2.8l0,0l0,0c0.3,0,0.3,0,0.3,0v2.8C100.1,171.5,100.1,171.5,99.8,171.5
				z"/>
			<path class="st95" d="M101.5,171.5L101.5,171.5h-0.3v-2.8h0.3l0,0l0,0V171.5L101.5,171.5z"/>
			<path class="st95" d="M102.9,171.5L102.9,171.5L102.9,171.5v-2.8l0,0l0,0h0.3v2.8H102.9z"/>
			<path class="st95" d="M104.6,171.5L104.6,171.5c-0.3,0-0.3,0-0.3,0v-2.8c0,0,0,0,0.3,0l0,0l0,0V171.5L104.6,171.5z"/>
		</g>
	</g>
</g>
</svg>
