<svg xmlns="http://www.w3.org/2000/svg" xmlns:xlink="http://www.w3.org/1999/xlink" width="431.687" height="894.809" viewBox="0 0 431.687 894.809"><defs><style>.a,.e,.p{fill:#699;}.b,.h,.l,.n{fill:none;}.c{opacity:0.3;}.d{clip-path:url(#a);}.e{stroke:#e50019;}.e,.h{stroke-linecap:round;stroke-linejoin:round;stroke-width:1.552px;}.f{opacity:0.2;}.g{clip-path:url(#b);}.h{stroke:#516671;}.i{fill:#db042d;}.j{fill:#fff;}.k{fill:#0491db;}.l{stroke:#699;stroke-width:3px;stroke-dasharray:6 3;}.l,.n{stroke-miterlimit:2.613;}.m{fill:#323133;font-size:8px;font-family:Helvetica;}.n{stroke:#323133;stroke-width:0.5px;}.o{clip-path:url(#d);}.p{font-size:118px;font-family:SofiaProRegular, Sofia Pro;}</style><clipPath id="a"><rect class="a" width="91.976" height="33.799"/></clipPath><clipPath id="b"><rect class="b" width="426.413" height="894.809"/></clipPath><clipPath id="d"><rect class="a" width="50.099" height="64.626"/></clipPath></defs><g transform="translate(0 -2898)"><g class="c" transform="translate(189.856 3337.319)"><g class="d"><path class="a" d="M259.831,1778.24s18.307-40.1,31.474-32.944c10.034,5.457,36.645,15.559,60.5,32.942Z" transform="translate(-259.831 -1744.44)"/><path class="e" d="M259.831,1778.24s18.307-40.1,31.474-32.944c10.034,5.457,36.645,15.559,60.5,32.942Z" transform="translate(-259.831 -1744.44)"/></g></g><g transform="translate(0 2898)"><g class="f" transform="translate(0 0)"><g class="g"><path class="h" d="M124.736,1808.889l0-.014,0-.014,0-.014,0-.014,0-.014m-.038.18,0-.015,0-.013,0-.014m-.024.11,0-.014,0-.014m-.021.1,0-.014,0-.014m-.039.18,0-.014m-3.036,10.833.01-.031m-.031.092.01-.031m-.042.124.01-.031m-.042.124.01-.031.01-.031m-.05.148.008-.023.01-.031m-.062.186.01-.031.01-.031.01-.031m-.095.279.01-.03.01-.031.01-.031.01-.031.01-.031m-.092.273.008-.025.01-.031.012-.031m-.15.435.012-.031.01-.031.01-.031.01-.031.012-.031.01-.031.01-.03.01-.031.012-.031.01-.031.01-.031m-.182.528.012-.031.01-.031m-.075.218.01-.031m-.087.249.01-.031m75.3-179.418-47.667-41.618-7.113-6.21M326.41,1762.381l1.731-4.985L208.8,1653.2m117.168,110.26.007-.017.007-.017q.211-.512.419-1.008l.008-.016m-.469,1.129.013-.032m-.433,1.078c.133-.337.266-.669.4-.994l.006-.016m-.448,1.115.007-.018m-.434,1.115.006-.017m-.047.124.007-.019m-.439,1.163.007-.018m-.077.208.006-.017m-.373,1.014c.121-.33.24-.657.361-.98m-.373,1.014.006-.016m-.476,1.324.006-.017.006-.016.006-.017.346-.964.006-.016.006-.016m-.388,1.082.007-.019m-.1.278.013-.033m-.3.863.262-.745m-.292.83.006-.017m-.165.478.006-.017m-.053.154.006-.017m-.423,1.242.006-.016m-15.145,7.083c4.335.42,8.506.831,12.484,1.229m-32.855-3.139q5.485.5,10.739.993m-15.963-1.463.042,0m-32.759-2.749h0c6.724.526,13.359,1.07,19.848,1.623q6.48.545,12.742,1.111m-42.681-3.084c.376,0,.752,0,1.127,0m-47.933,6.082a263.918,263.918,0,0,1,29.7-5.074m-77.209-114.658c.273,6.514.5,12.524.677,17.77.1,2.977.179,5.708.236,8.144.423,17.832,3.248,46,5.839,74.76.9,9.98,1.771,20.03,2.5,29.744,9.005-2.942,18.481-5.768,28.1-8.234m-40.522-188.2c.48,9.25.977,19.009,1.452,28.7m-19.82,152.452-.051-.381.04.3Zm.354,2.614-.051-.368,0,.015Zm.15,1.095-.05-.363.008.06Zm.15,1.076-.05-.356.014.1Zm.3,2.1-.05-.344.027.183Zm.288,2.019-.048-.33.037.256Zm.727,4.938-.044-.288.017.112Zm.49,3.21-.038-.249.033.219Zm.416,5.469v0Zm-.055,1.612.007-.127-.007.126Zm-7.1,29.557-.642-.31h0q.408-.995.8-1.987h0Zm186.012,10.86v0l0,.016v0l0-.016Zm0-.015,0,.015Zm.12-.557-.012.054-.022.1-.013.057.013-.057.022-.1Zm0-.022,0,.022Zm.266-1.228-.029.133-.039.18-.008.038.008-.038.039-.18Zm.008-.033-.008.033Zm3.083-13.6-.111.474-.04.171.04-.171Zm.008-.035-.008.035Zm.074-.316-.05.212-.008.031-.016.073.016-.073.008-.031Zm.611-2.6h0m6.893-27.232-.01.042m-8.538-14.96c4.335.42,8.506.831,12.484,1.229m-32.855-3.139q5.485.5,10.739.993M47.983,1795.08,34.5,1788.565m290-21.351.006-.017m-.384,1.046c.125-.342.248-.678.373-1.013m-.843,2.322.006-.017.006-.016.006-.017.346-.964.006-.016.006-.016m-.388,1.082.007-.019m-.414,1.175.007-.017.017-.051m-.042.119.006-.016m2.773-7.395c.135-.329.269-.653.4-.97m-.882,2.159c.133-.337.266-.668.4-.994l.006-.016.015-.036.031-.075.007-.017.007-.017m-.06.146-.006.016m.033-.084-.013.032m.469-1.129-.008.016q-.209.495-.419,1.008l-.007.017-.007.017m.682-1.643,0,.012-.029.07,0,.008-.03.073m.164-.4-.006.014-.027.066-.006.014-.027.068m.16-.4-.008.02-.024.061-.007.018-.024.063m.157-.4-.009.023-.022.057-.009.022-.022.059m.123-.321-.01.026-.021.053m.268-.717-.014.038-.015.041-.014.037-.016.043-.013.036-.016.044-.013.035-.016.046-.013.032-.017.047-.012.031-.018.048m.233-.638-.015.042-.013.038m.084-.237-.016.044-.012.036m.137-.4-.017.05-.01.03m.108-.316-.018.054-.009.024m.33-1.022-.022.072,0,.007m-7.864,22.323c18.23,1.826,32.432,3.385,39.934,4.23L328.147,1757.4m-5.539,15.166-.345,1.027m.762-2.253-.006.017-.26.758m.313-.911-.006.017m1.511-4.215-.007.018m.433-1.144.007-.019Zm-.426,1.126-.007.018Zm.433-1.144-.007.019m.475-1.222-.007.018m.448-1.115-.006.016m.033-.084-.013.032m.469-1.129-.008.016q-.209.495-.419,1.008l-.007.017-.007.017m113.175,173.322,8.805-14.91-8.805,14.91ZM310.3,1905.738l-10.773,26.5-.145.359-4.973,12.23,4.973-12.23.145-.359Zm-21.369-855.721c-1.566,3.541-3.645,8.192-6.2,13.79-14.159,31.071-42.867,91.339-79.271,153.419m181.515,249.908,0-.019,0,.017Zm-.015.078,0-.02,0,.017Zm0,.02,0-.02,0,.017Zm-.007.04,0-.021,0,.017Zm0,.02,0-.02,0,.016Zm0,.02,0-.02,0,.017Zm0,.02,0-.02,0,.017Zm0,.02,0-.02,0,.017Zm0,.02,0-.02,0,.017Zm-.018.1.01-.059-.01.057Zm-292-328.5-.149.088.061-.036Zm1.491-.878-.149.088.027-.015Zm-71.656-88.079.057.067c3.155,3.712,6.914,8.1,11.127,12.942l-5.921-6.209-5.211-6.733-.052-.067.074.068Zm425.19,350.344-25.519-25.026Zm0,0-25.519-25.026Zm0,0-25.519-25.026Zm0,155.553-2.227.205-10.571.975,10.571-.975Zm0,15.429-2.224-15.206,0-.017-.843-5.765.843,5.765,0,.017ZM34.26,1885.759l-1.153,2.235m14.88-92.913,26.457,12.779,13.708-26.572m354.354-87.1q2.8-.677,5.44-1.31v.073ZM304.953,1840.141l-.008.039,0,.01,0-.01Zm.01-.05-.01.05Zm.046-.212.007-.033Zm.092-.426-.027.122-.008.036.008-.036Zm.028-.131-.028.131Zm.1-.46.028-.128Zm.16-.734-.044.2,0,.023,0-.023Zm.046-.209-.046.209Zm.459-2.083v0Zm-.023.1.023-.1Zm.129-.579-.066.294-.039.173.039-.173Zm.067-.3-.067.3Zm.4-1.767.027-.12Zm.126-.559-.08.354-.02.086.02-.086Zm.082-.362-.082.362Zm.724-3.183.014-.061Zm.388-1.682-.1.439-.1.435-.1.428-.074.318.074-.318.1-.428.1-.435Zm.1-.445-.1.445Zm.331-1.427.057-.242Zm.433-1.849-.113.483-.03.128.03-.128Zm.115-.489-.115.489ZM434.1,1873.616l13.845-3.5v-43.46l-8.277,28.074-.008.03-5.56,18.856,13.845-3.5v12.422l-13.441-8.661ZM323.038,1771.307l-.007.016Zm.006-.017-.006.017Zm.006-.017-.006.017Zm.006-.017-.006.017Zm.006-.016-.006.016Zm.006-.017-.006.017Zm.012-.035-.006.017-.006.017.006-.017Zm.006-.017-.006.017Zm.616-1.752.316-.881m1.984-5.17.053-.127c.114-.279.23-.555.343-.826h0l.007-.016.006-.016-.006.016-.007.016C326.264,1762.725,326.133,1763.043,326,1763.366Zm-.037.09h0l0,0,0-.013,0,0,0-.013,0,0-.007.017-.007.017Zm-.044.106h0l.014-.036Zm-.4,1.01h0l.059-.148Zm-.457,1.168q.2-.521.4-1.027h0l.007-.018-.007.018Q325.257,1765.22,325.058,1765.741Zm-.013.033h0l.006-.016Zm-.035.088h0l0-.013m-.431,1.138h0q.211-.56.419-1.106c-.138.363-.279.733-.419,1.107.14-.374.28-.744.419-1.107m-.987,2.655,0-.015m-.321.9.315-.88m-.363,1.013.006-.015v0l.007-.019.006-.016.006-.015.006-.016.006-.016-.006.016-.006.016-.006.015-.006.016.006-.016.006-.015.006-.016.006-.016.332-.929.006-.015-.006.016c-.123.34-.247.683-.369,1.031l-.006.016Zm-.4,1.126h0l.006-.017Zm-.231.665h0l0-.017Zm-.006.017h0l0-.016Zm-.26.758h0l.035-.1Zm-7.743,26.145.081-.306h0l-.081.307-.1.36-.176.667-.176.667-.052.2-.012.045-.112.423-.174.664-.173.663-.172.662-.172.661-.113.437-.058.223-.17.658-.039.156-.3,1.155-.166.652-.166.65-.164.647-.157.624-.006.022-.161.642-.16.64-.159.637-.158.635-.131.528-.025.1-.156.629-.155.624-.042.168-.111.453-.152.617-.106.433-.044.181-.149.609-.148.607-.021.083-.125.518-.145.6-.143.593-.141.587-.141.584v0l-.137.574-.137.573-.06.253-.075.316-.134.563-.116.49-.016.067m5.98-23.845h0l-.081.306Zm7.7-25.943-.035.1h0l.26-.758-.26.758-.14.413.093-.275-.093.275.14-.413Zm.235-.689,0,.017h0l-.006.017h0l0-.016Zm.231-.664-.006.017h0Zm.315-.9-.017.051-.013.033-.029.084-.006.016.006-.016h0l-.279.8-.006.017h0l-.006.017-.006.017-.006.016-.006.017h0l-.119.341-.006.016.006-.016.107-.307-.107.307.119-.341h0l.006-.017.006-.016.006-.017.006-.017h0l.006-.017.279-.8h0l-.006.016.006-.016.029-.084.007-.017-.007.017h0l.007-.017-.007.017.013-.033.017-.051.029-.083.027-.073.007-.02.007-.019-.007.019-.007.02-.027.073Zm.082-.232v0l-.006.015Zm.362-1.009,0,.015,0-.016c-.111.307-.221.617-.332.929l.006-.016.006-.015.315-.88m.045-.125-.033.092-.006.015.006-.014h0l-.006.015.006-.014h0l.033-.092.017-.046Zm.944-2.532q-.208.545-.419,1.106h0l-.007.019-.007.018h0l-.024.065-.04.107-.006.017.006-.016h0l-.006.017-.006.016c-.12.323-.241.651-.361.98l-.006.017-.006.015h0l-.007.016-.013.035-.025.072.025-.072.013-.035.007-.016h0l.006-.015.006-.017c.12-.33.241-.657.361-.98-.125.333-.248.671-.373,1.013.125-.342.248-.679.373-1.013l.006-.016-.006.016c-.125.333-.248.671-.373,1.013.125-.342.248-.679.373-1.013m.521-1.38,0,.013h0m.04-.1-.006.016h0Zm.414-1.061-.007.018h0q-.2.505-.4,1.027.2-.521.4-1.027h0Zm.108-.271-.059.148h0Zm.346-.863h0l-.006.015h0c-.1.251-.205.507-.308.765.1-.257.205-.513.308-.765h0l.006-.015Zm.015-.036-.014.036h0Zm.045-.11,0,0,0,.013-.007.017,0,0h0l0,0,0-.013,0,0Zm.418-1h0c-.113.271-.228.547-.343.826l-.053.127C326.133,1763.043,326.264,1762.725,326.4,1762.414Zm1.646-4.639-.023.078-.022.078-.023.077-.023.078h0l-.023.076h0l-.023.078-.023.078-.024.078-.023.077-.024.078-.024.078-.025.078-.024.078-.024.078-.025.078-.025.078-.025.078-.027.08-.025.078-.027.078-.025.08-.028.078-.027.08-.027.078-.028.08-.043.126-.012.032-.028.08-.028.079-.029.078-.028.079-.029.081-.029.078-.03.079-.029.079-.029.081-.03.079-.03.08-.03.08-.03.081-.031.079-.03.081-.031.079-.031.081-.031.08-.032.081-.031.08h0l-.032.081-.032.08-.032.082-.033.079-.032.082-.033.081-.033.081-.033.081-.033.081-.035.081-.035.082,1.762-5.072-.022.077,0,.014-.017.063-.043.156-.022.077Zm80.063-212.645,39.838-13.138v13.148Zm10.681,32.86,11.036-2.107.134-.027,17.987-3.435-17.987,3.435-.134.027Zm-6.215-71.374,14.133,4.887,21.239,7.344-21.239-7.344Zm20.942-21.258,11.145-11.574,3.285-1.155-3.285,1.155Zm-33.093,30.973,2.415-1.932,11.789-9.426,17.9-18.584.542.39,14.88,7.736v-.931l-24.165-13.5,8.743,6.3-30.082,28.059ZM34.5,1788.144l0,.176,0,.152m279.415,13.99,22.963,9.592,14.639,6.116h0l-14.639-6.116Zm108.542,113.98,15.817-22.852,8.273-11.953-8.273,11.953Zm-20.57-128.425.073-1.08Zm-49.228,106.574,3.285-7.112,8.523-18.451,11.8-25.55-6.29,28.6-2.957,13.441-1.237,5.622h0l1.237-5.622,2.957-13.441,6.29-28.6,2.347-5.081,12.182-26.37,5.212-11.285,5.877-12.723-.917,13.693-.558,8.328-.658,9.814-2.049,30.592-2.009,29.983-.2,2.947h0l.2-2.947,2.009-29.983,2.049-30.592.658-9.814.558-8.328.917-13.693m0,0-34.646,3.426-3.857.382-.272.026m-7.393,72.651-2.384,23.439-.676,6.65h0l.676-6.65,2.384-23.439,3.878-38.109,3.269-32.133.168-1.65.077-.759-.077.759-.168,1.65-3.269,32.133Zm41.867,26.291h0l-.318.555-12.13,21.166-3.6,6.286-8.143,14.209,8.143-14.209,3.6-6.286,12.13-21.166.318-.555Zm-48.553,54.033-4.12-17.986-2.827-12.342L331.8,1931.512l-8.051,13.315,8.051-13.315,10.287-17.013-2.982-13.017-.677-2.958-.04-.175.04.175.677,2.958,2.982,13.017,2.827,12.342Zm-81.71-27.958-.072-.032.063.029ZM227,1862.437l-10.8,24.94-.057.13-1.423,3.285,1.423-3.285.057-.13Zm-44.643,4.188,1.087-1.591,12.954-18.966-12.954,18.966Zm-11.874-110.9-.3.086-.226.065-.832.241-.484.139-.347.1-.834.24-.367.106-.468.135-.018.006-1.063.307-.589.17-.837.241-.128.037-.711.205-.839.242h-.007l-.833.24-.726.21-.115.032-.841.242-.606.174-.235.068-.841.243-.486.14-.356.1-.842.242-.363.1-.479.137-.842.243-.243.069-.6.173-.842.242-.121.035-.721.208-.841.242h0l-.1.031m72.024-20.451,22.21-6.306,17.493-4.967c-6.392,1.31-12.462,2.676-17.985,4.091-4.432,1.136-8.51,2.306-12.123,3.5l-.308.1-.315.1-.054.017-.013,0-.582.19-.111.037-.221.072-.339.111-.174.055-.171.055-.352.113-.239.077-.118.038-.362.115-.31.1-.059.018-.374.12-.379.12h0l-.382.121-.391.122-.07.023-.326.1-.4.126-.14.044-.268.084-.413.128-.213.067-.2.063-.423.132-.291.091-.138.042-.805.249-.067.021-.444.136-.167.052-.281.086-.007,0-.446.137-.459.141-.085.026-.848.26-.166.051-.307.093-.479.146-.25.076-.232.071-.488.148-.339.1-.153.047-.5.15-.429.13-.071.022-.506.152-.51.155-.013,0-.5.151-.519.157-.1.03-.422.127-.72.216-.339.1-.536.161-.285.085-.255.076-.544.163-.382.114-.166.05-.553.165-.481.143-.075.022-.559.167-.564.167-.02.006-.548.163-.572.171-.115.033-.459.136-.579.172-.215.063-.367.11-.586.173-.317.093-.272.081-.593.175-.421.124-.175.052-.6.176-.527.156-.076.023-.606.179-.637.187-.076.022-.716.211-.54.159-.181.053-.726.212-.441.13-.288.084-.734.215-.339.1-.4.118-.741.217-.236.068-.509.15-.749.218-.13.038-.623.182-.756.221-.022.006-.738.216-.675.2-.088.027-.766.222-.571.166-.2.059-.773.225-.464.135-.313.091-.779.226-.354.1-.428.125-.786.228-.243.071-.544.158-.791.23-.132.038-.662.193-.8.231-.017.006-.376.108m.043.14,19.465-5.526,20.42-5.8M123.23,1769.352l.423-.122.424-.123.424-.122.427-.123.427-.124.427-.124.429-.124.429-.123.429-.125h0l.431-.125.43-.125.433-.125.433-.126.433-.125.435-.126.434-.126.436-.126.436-.126.436-.126h0l.437-.126.437-.127h0l.438-.127.438-.126.439-.127h0l.441-.127.441-.128.441-.127h0l.441-.127h0l.442-.128h0l.442-.127h0l.443-.128.444-.128h0l.444-.128.443-.128h0l.444-.128.445-.128h0l.445-.129h0l.445-.128h0l.446-.129h0l.446-.128h0l.448-.129h0l.448-.129h0l.448-.129h0l.449-.129.448-.129h0l.449-.129.449-.129h0l.449-.129h0l.449-.129.45-.13.45-.129h0l.45-.131h0l.451-.129h0l.451-.13h0l.45-.129h0l.451-.13.451-.13h0l.452-.129h0l.451-.13h0l.451-.13h0l.452-.13h0l.452-.13h0l.452-.13h0l.452-.13h0l19.014-5.4m-81.708,23.668.028-.009.129-.038.025-.008.131-.039.023-.007.134-.04m-2.154.65.048-.014.1-.031.046-.015.1-.031.045-.014.3-.09.112-.035.039-.012.114-.035.037-.012.117-.034.036-.01.119-.036.032-.01.122-.037m-2.117.642.058-.018.09-.028.057-.016.092-.029.053-.016.1-.029m-2.031.62.075-.023.067-.02.074-.023.068-.021.072-.022.07-.021.07-.023.073-.021.069-.022.075-.023.067-.021.077-.023.066-.02.078-.024m-1.975.6.087-.026.051-.015.084-.026.054-.016.083-.025.055-.017.081-.025.058-.017.081-.024.059-.018.078-.024.062-.018m-1.241.38.09-.028.045-.014.09-.028.046-.014m-.94.291.1-.03.036-.012.1-.03.037-.01.095-.03.039-.012.093-.03.042-.011m-1.059.328.1-.032.028-.008.1-.032.029-.009m-.647.2.106-.034.022-.007.1-.032.024-.008m-.89.278.112-.036.014,0,.111-.035.015,0,.11-.034.017,0,.108-.035.018-.006m-.877.275.114-.036.009,0m-.611.191.119-.037h0l.118-.038h0M35.022,1750.9l52.4-10.5,24.33-4.876.03-.006,7.166-1.436h0L108.377,1744.5l-2.442,2.4-.1.1-41.514,40.882m-39.278,18.854-.834-15.833m.333,16.106.036-.02.025-.014m-.367.2.055-.03.006,0m-.3.165.013-.007.047-.027m-.3.164.028-.014.032-.018.023-.013.037-.02.02-.011.04-.022m-.3.164.033-.018.027-.015m-.993.546.035-.018.023-.013.031-.017.027-.014.027-.016.031-.016.024-.014.033-.017.021-.011.037-.021.017-.009.04-.023m-.46.254.042-.023.015-.008m-.227.126.051-.029.006,0m-.45.249.022-.013.033-.018.02-.01.037-.021m-.553.307.047-.026.007,0,.045-.024.01-.006.042-.023.013-.007m6.38,56.817h0l-.538-1.788L21.53,1860.7l6.061,2.872-6.061-20.164,5.3-2.629m7.472-38.707h0v.02l-.04,2.925-.046,3.275-.4,29.026,8.826-4.375L67.98,1820.39l.26-.129,12.4-6.145,2.442-1.211h0l-.991,2-11.61,23.408L52.34,1875.3l19.576,9.274h0L102.363,1899l11.441,5.42.322.152,5.67,2.686,2.832,1.341,3.453,11.456h0c0,.032,1.865,16.245,26.268,12.644,18.077-2.668,31.327,6.946,36.995,12.125l-31.613-16.041,6.812-13.847,21.509-43.725.555-1.129.58-1.178-.58,1.178-.555,1.129-21.509,43.725-6.812,13.847-28.436-14.43-14.634-7.425-.67-.34-.324-.165-42.349-21.49h0l-18.979-9.629-13.155,26.826h0l-4.8-15.979-.119-.395-.486-1.617-.586-1.949m15.765-87.568h0l-.036.016-.036.017-.037.016-.036.017-.073.035-.036.016-.554.26-.024.012-.036.017-.036.017-.036.017-.032.014h0l-1.117.528-.035.017-.036.016-.036.017-.036.017-.036.016-.036.017M151.5,1761.2l-28.268,8.155-.216.074-.215,3.15q-.19-1.457-.379-2.948m-75.767,26.082c-4.366,2.078-8.524,4.155-12.342,6.124m14.642-7.209.156-.073.224-.1ZM442.5,1694.19l5.44-1.222-.514.115Zm5.44-1.222-5.44,1.222,4.925-1.106ZM34.31,1801.833h0m119.834,54.14,0-.013h0Zm-1.741,6.744.024-.082.008-.029Zm38.387-22.488L227,1862.437h0Zm76.635,2.3-.053-.022-.5,1.14.5-1.14Zm-47.436-19.144,2.36-21.738,2.376-21.882.532-4.9h0l-.409-7.584-.225-4.163-1.205-22.334-.033-.623h0l-.027.64-.931,22.81-.129,3.172-.331,8.122-.012.284v0l-.212,5.216-.874,21.407Zm48.156,19.435,12.776,5.156-13.22-5.336-.06-.024-.216-.087.216.088.06.023,13.22,5.336-12.776-5.156-.444-.18m-.329-.133h0l.093-.214,5.457-12.5h0l-5.457,12.5-.093.214Zm-7.364,16.866-18.326,41.974-1.15,2.635-.572,1.309h0l-.215.491.215-.491h0l.572-1.309,1.15-2.635Zm25.53,9.687.421-1.486m-51.569-21.347,25.618,13.146.118.061,1.543.791M202.578,1829.9l31.511,16.17L227,1862.437l7.09-16.369m51.87,21.5,4.41,1.334h0l-4.41-1.334-7.524-2.276-.123-.038-16.642-5.035,16.642,5.035.123.038Zm-83.593-37.783.212.11-.212-.11-34.485,23.867-.122.084-.293.2-.142.1-5.7,3.943-9.852,6.818h0l-36.68,25.385-.336.233-12.36,8.554-.036.025.023-.031,12.951-17.018.343-.451,18.25-23.98,13.6-7.173,8.11-4.277h0l.392-.064,34.761-5.774Zm-31.473-74.181-.205.06.1-.029Zm1.027-.3-.2.06.007,0Zm.616-.178-.205.06.112-.032Zm4.887-1.413-.2.059.15-.043Zm.807-.233-.2.058.156-.045Zm1.61-.466-.2.058.167-.049Zm.8-.233-.2.058.174-.05Zm.2-.058-.2.058.188-.054Zm1.4-.4-.2.057.185-.053Zm.2-.058-.2.058.083-.024Zm.6-.173-.2.058.19-.055ZM156.4,1723.01l11.27,12.078,15.763,16.891h0l.043.14.012.038.014.043,2.323,7.443,3.554,11.389,2.878,9.223v0l1.265,6.194,3.669,17.975.083.4,5.095,24.957-9.047-21.013-1.611-3.743-7.17-16.656-2.441-5.668v0l-3.94-9.153-7.245-16.825-.354-.826-.036-.082-.009-.022-.031-.073Zm43.076-13.291,1.645,10.193h0l1.841,11.405,2.3,14.28-2.3-14.28-1.841-11.405h0l18.869-2.859h0l-18.869,2.859Zm105.5,130.313-.014.059.014-.059.015-.072.017-.081h0l-.017.081Zm.183-.852-.031.142.031-.142.033-.152.035-.16v0l-.035.16Zm.323-1.478-.047.217.047-.217.05-.225.051-.235-.051.235Zm.155-.7-.054.244.054-.244.055-.253Zm.113-.512-.058.259.058-.259.06-.269.061-.278-.061.278Zm.386-1.737-.069.31.069-.31.07-.317Zm.143-.642-.073.325.073-.325.075-.333.076-.34.032-.142-.032.142-.076.34Zm.474-2.105-.083.369.083-.369.085-.376Zm.173-.759-.088.383.088-.383.089-.389.09-.4-.09.4Zm.27-1.188-.091.4.091-.4.093-.41.1-.415.009-.042-.009.042-.1.415Zm.794-3.447-.1.452.1-.452.106-.457.107-.462.013-.055-.013.055-.107.462Zm.89-3.806-.117.494Zm-27.141-45.543c-1.119,5.448-2.234,10.751-3.3,15.732l-.538,2.51c-3.742,17.424-6.718,30.3-6.718,30.3l10.18,4.885,42.35,20.32-14.6-29.206-.236,1,.236-1-7.992-15.986-6.1-12.207-7.932-15.867-4.088-.368-.084-.007-.337-.03-.084-.008-.589-.053ZM374.306,1639.7l44.846-5.314,7.811-.925.156-.018,10.5-1.244h0l-10.5,1.244-.156.018-7.811.925Zm.822-27.111,30.935-4.494,13.988-2.032.129-.02,7.872-1.143h0l-7.872,1.143-.129.02-13.988,2.032Zm1.849-51.978,5.342-.212,25.952-1.028.089,0,4.152-.164h0l-4.152.164-.089,0-25.952,1.028Zm1.044-9.386-.243.052-.385.083h0l-36.644,7.844,36.644-7.844h0l.385-.083ZM34.43,1793.287l-.12,8.546h0Zm.021-1.52-.021,1.52.016-1.141Zm.03-2.12-.03,2.12.012-.8ZM21.53,1740.005l.386.313L35.022,1750.9l29.29,36.987.009,0,.193-.077.059-.024.251-.1.186-.075.066-.027.251-.1.18-.073.072-.029.251-.1.174-.069.077-.031.251-.1.167-.067.084-.034.251-.1.163-.063.089-.036.251-.1.157-.061.1-.037.251-.1.15-.059.1-.039.251-.1.144-.057.107-.042.251-.1.138-.052L69.1,1786l.251-.1.131-.05.12-.045.251-.1.126-.047.126-.047.251-.095.12-.046.132-.048.251-.094.114-.043.137-.051.251-.094.107-.039.144-.053.25-.093.1-.037.15-.055.347-.126.155-.056.251-.091.09-.032.16-.059.251-.09.083-.03.167-.06.25-.089.078-.028.172-.062.25-.088.072-.025.179-.064.25-.088.066-.023.185-.065.249-.086.06-.021.19-.066.249-.085.054-.02.195-.067.25-.085.047-.016.2-.068.291-.1.206-.07.249-.083.036-.012.457-.152h0l.029-.01.219-.073.248-.081.023-.008.225-.073.248-.081.017-.006.23-.075.248-.08.012,0,.234-.075.247-.079h.007l.487-.155.121-.037.121-.039.122-.038.123-.038.123-.039.123-.038.125-.039.126-.039.126-.039.127-.039.127-.04.128-.039.128-.04.129-.041.129-.039.13-.04.13-.042.131-.041.133-.04.133-.042.133-.04.134-.042.135-.042.135-.043.135-.042.136-.042.137-.043.137-.042.138-.042.138-.043.138-.043.14-.043.141-.043.141-.044.142-.043.142-.044.142-.043.143-.044.144-.045.144-.044.144-.044.292-.089.06-.018.087-.027.146-.044.148-.046.149-.045.149-.045.3-.091.15-.045.151-.046.456-.138.153-.046.153-.046.155-.046.155-.047.031-.009.123-.038.156-.046.157-.047.157-.047.157-.047c8.97-2.7,20.483-6.071,33.14-9.736l.316-.092.284-.082.215-.062-.495.168-.2.068-.115.039-34.129,11.612-.142.048-.018.006L52.1,1793.556l-2.961,1.007-.181.061h0l-.008,0-.8.375-.161.076h0l-1.118.527-.215.1-4.549,2.347-.525.27-7.273,3.751,0,.165,0,.175-.749,53.62.036-2.592.226-16.122-.359,25.621-.269,19.248-.082,5.8-.794,56.832L30.289,1906.4l-2.16-41.03h0l-1.294-24.58v-.01l-1.786-33.92h0l-3.519,1.816.055-.03.054-.031.055-.03.054-.03.055-.031.055-.03.055-.031.055-.031.055-.03.055-.031.057-.031.057-.031.055-.031.057-.031.057-.03h0l.053-.03h0l.057-.033.057-.031.058-.031.057-.031.058-.032.058-.031.058-.031.058-.032.058-.031.058-.032.058-.032.059-.032.058-.031.059-.032h0l.055-.031h0l.059-.032.059-.032.059-.032.06-.032.059-.032.059-.032.06-.033.059-.032.06-.032.06-.032.06-.033.06-.032.06-.034.06-.033.061-.032h0l.057-.031h0l.061-.032.061-.034.061-.033.061-.033.061-.033.061-.033.061-.033.061-.034.062-.033.022-.012.039-.022.062-.035.062-.033.062-.034.007,0v-.008l-.834-15.825-.4-7.635Zm354.435-153.231h0l19.146-.669,19.726-.688.113,0,6.289-.219h0l-6.289.219-.113,0-19.726.688-19.146.669h0Zm-20.859-82.56-.072.136-.316.607-8.518,16.312,8.518-16.313Zm-245.72,78.621-11.595,8.14-9.92,6.963,9.92-6.963ZM99.834,1571.4l-11.253,5.93-17.919,9.441,17.919-9.441Zm-10.2-12.2-9.882,5.052-10.628,5.433,10.628-5.433ZM69.207,1724.141l-.083-24.092ZM85.665,1680l.96.648,40.576,27.429m-67.893-45.42-.3-.2h0L39.8,1649.823l19.212,12.642-13.674,19.164,4.734,5.589,8.94-24.752ZM224.75,1707.27l1.759,11.794.862,5.78-.862-5.78-1.759-11.794,2.8-5.028,5.138-9.212,0-.007-10.034.242.051.345ZM99.836,1604.9l4.967-3.539,12.57-8.957c5.466,6.55,10.944,13.123,16.38,19.653l1.57-23.009-5.95-5.194.158-.113,6.505-4.636,4.556-3.246-.264-4.933-3.889,2.195-11.581,6.538-.176.1L92.89,1552l-2.788-2.435L75.848,1537.12,58.3,1521.8c4.7,5.6,9.63,11.483,14.74,17.583q4.713,5.625,9.615,11.48l1.809,2.161c9.072,10.84,18.53,22.152,28.077,33.59l-12.811,7.231-78.2,44.137m0,0H32.219l6.015,10.814-1.534,1.151-15.17.671,15.17-.671h0l-.021.015-15.15,11.376,15.15-11.376.021-.015,2.225-.1,82.706-3.654-21.8-41.291-20.454,14.574h0v0l-41.145,29.318,1.543,1.016.021.013-.021-.013-.852.037,82.706-3.654,4.755,9.008H102.371l-4.884-7.2.9,7.2-.9-7.2.9,7.2,1.448,11.613L98.386,1655.2l1.448,11.613-13.254,12.337L85.665,1648l.915,31.153-.915.852L21.53,1706.717l37.482-21.8L85.665,1680l-26.357-17.342L85.665,1680l.141.095.819.554,1.247,42.448-1.247-42.448,40.576,27.429.148.1,16.385,11.075,3.826,2.586-3.042-4.486-16.181-23.863-.128-.188-9.658-14.244.153,0,10.5-.3.127,0h.028l16.067-.459,4.991-.143,37.182-1.065,3.2-.093,19.891-.57.15-.017,2.091-.243,7.06-.821-9.09-17.983-2.1-4.162-.178-.349-30.782-60.9-15.84-31.336,14.134,33.617.007.017-.023.006-8.053,1.9-19.158,4.516-.18.043-.033.008-6.482,1.528-.228.054.228-.054,6.482-1.528.033-.008.18-.043,19.158-4.516,8.053-1.9.023-.006,20.084,47.767.135.322.392.931,6.789,16.147,7.151,17.01-19.891.57-3.2.093-37.182,1.065-4.991.143-16.067.459h-.028l-.127,0-10.5.3-.153,0-8.822-13.009,20.447-1.573.114-.008.95-.074-.839-1.589-.1-.189-3.917-7.419H102.371l7.358,10.852,20.447-1.573.114-.008.95-.074.027.026,8.739,8.562,5.417,5.306-4.391-7.069-10.1-16.26-.095-.153-.117-.187-.471-8.809,1.2-.053.1,0,6.261-.278,6.261-.276-6.261.276-6.261.278-.1,0-1.2.053h0L99.835,1604.9h0m-49.7-81.409-28.6,23.885,28.6-23.885h0m139.267-93.28h0l-6.758,5.594-4.767,3.946,4.767-3.946,6.758-5.594ZM53.466,1329.977l11.086-12.518-28.046-26.142m16.038,39.7-2.038,2.3Zm13.6-72.555,25.41,28.51-26.927,30.4-.072.081h0l21.592,20.127-21.592-20.127-11.086,12.518m-31.936-215.1,24.388-15.55Zm95.818,43.416-5.9,5.884-.182.182-8.683,8.659,14.765,14.9,6.727-7.008.174-.182,8.262-8.607Zm8.695,29.621,1.547,1.961,15.359,19.482,3.312.21.321.021,32.187,2.041-46.945-21.114-.479-.216-4.292-1.93Zm16.905-20.563h0l-.277.336.689.564-.411-.9h0Zm-76.806,91.113-29.47,32.668-.166.184m-14.975,16.6L63.322,1255.3l-22.6-25.361,26.08,21.1h0l32.96-29.841-29.467,32.666h0l29.469,23.841,39.617,24.381.571.351,5.713,3.516.006,0-.006,0-5.713-3.516-.571-.351-39.617-24.381,23.205,21.542-7.354,14.723-24.059-27-26.927,30.4-.072.081h0l-28.046-26.142Zm35.2,25.572,0,0h0l-1.429-1.537-1.832-1.97-8.13-8.742-23.806-8.507,31.013,18.29,1.96,1.156,2.219,1.309h0Zm7.405.85-.783.7L56.34,1341.3l7.012-6.257ZM37.57,1408.529l16.38-15.859,21.94-21.242L53.95,1392.67Zm75.091-61.475-.08.091-.015.017m16.079,147.473-4.239,3.411-7.83,6.3-1.831,1.473m0,0,1.831-1.473,7.83-6.3,4.239-3.411m-14.4,11.588.1.125,10.157,12.139,5.742,6.863-6.452-8.13-8.947-11.272-.1-.13M28.776,1397.484,42.955,1415.3l15.253-15.033,53.32-52.551-.25.131-.288.15-.1.054-.588.306-.119.062-.227.118-.6.309-.081.041-.072.037-.037.018-.037.02-.037.018-.037.02-.037.019-.037.02-.037.018-.037.02-.074.038-.037.019-.038.02-.037.02-.037.018-.037.02-.038.018-.037.02-.037.02-.022.01-.016.008-.037.02-.037.018-.038.02-.037.02-.038.018-.037.02-.038.019-.038.02-.037.02-.038.02-.037.019-.038.02-.038.02-.037.02-.038.018-.038.02-.037.02-.038.02-.038.018-.038.02-.038.02-.038.02-.01,0-.028.014-.038.02-.038.02-.038.02-.038.02-.038.019-.038.02-.038.018-.038.02-.038.019-.038.02-.038.02-.039.02-.038.02-.038.02-.038.02-.077.039-.038.02-.039.02-.038.02-.039.02-.038.02-.33.167-.554.28-.173.088-.737.371-.745.375-.152.076-.6.3-.322.161-1.572.782-.088.044-.224.111-.106.053-.787.389-.067.033-.728.359-.243.12-.557.273-.424.208-.385.189-.607.3-.209.1-.794.388-.029.014-.828.4-.155.076-1.022.495-.5.242-.529.256-.318.153-.721.347-.132.063-.858.413-.058.028-.806.386-.248.12-.621.3-.442.212-.431.205-.638.3-.24.114-.836.4-.046.022-.886.422-.15.07-.741.352-.347.164-.548.26-.546.258-.352.166-.746.352-.155.073-.9.426-.045.021-1.107.521-.664.313-.446.209-.466.218-.648.3-.265.123-.852.4-.063.03-.918.428-.138.065-.781.364-.341.158-.58.27-.544.254-.377.175-.749.347-.174.081-.953.442-.9.415-.232.107-.692.32-.436.2-.488.226-.64.294-.284.131-.843.389-1,.462-.122.056-.8.368-.325.149-1.123.517-.392.18-.729.335-.19.087-.917.42-.013.006-.9.413-.213.1-.7.319-.414.189-.5.227-.2.091-.2.091-.2.091-.012.006-.188.085-.2.091-.2.091-.2.091-.2.091-.12.054-.08.036-.2.091-.2.091-.2.09-.2.09-.2.091-.028.013-.171.077-.2.09-.2.09-.2.09-.2.09-.135.061-.063.029-.2.09-.2.089-.2.09-.2.089-.2.09-.044.02-.153.069-.2.089-.2.089-.2.089-.2.089-.148.068-.047.021-.195.089-.195.089-.195.088-.195.089-.195.088-.058.026-.136.063-.194.088-.195.088-.193.088-.194.088-.163.073-.031.015-.193.086-.193.088-.193.087-.193.088-.191.087-.074.033-.119.053-.191.087-.191.088-.191.085-.19.086-.175.079-.016.007-.19.087-.19.085-.189.085-.19.087-.189.085-.088.039-.1.046-.189.085-.189.084-.188.085-.188.085-.188.084-.309.14-.309.14-.3.133-.013.006-.307.138-.136.061-.17.076-.306.138-.306.137-.122.055-.181.081-.269.121-.035.015-.3.136-.111.051-.19.086-.256.114-.045.021-.3.135-.1.045-.2.089-.241.109-.057.024-.3.134-.087.039-.209.093-.23.1-.066.03-.3.132-.293.131-.216.1-.077.033-.291.13-.065.029-.226.1-.291.129-.288.129-.052.023-.235.106-.19.085-.1.043-.285.128-.04.018-.245.108-.178.08-.106.047-.283.127-.281.126-.28.126-.279.125-.018.009-.26.115-.152.068-.125.055-.551.247-.14.063-.134.06-.271.121h0l-.272.121-.128.057-.142.063-.257.115-.012,0-.269.12-.266.119-.265.117-.264.119-.106.047-.157.069-.263.118-.26.115-.095.042-.165.073-.218.1-.04.017-.257.114-.083.038-.172.076-.205.091-.05.022-.253.112-.073.034-.179.078-.194.086-.057.025-.249.111-.248.109-.246.11-.245.11-.053.023-.191.086-.168.075-.073.032-.116.052-.115.051-.115.051-.115.052-.114.051-.114.051-.114.051-.114.051-.068.03-.045.02-.113.051-.113.05-.077.035-.035.015-.224.1-.085.038-.027.012-.111.05-.111.048-.111.05-.11.048-.11.048-.11.049-.11.048-.108.049-.107.048h0l-.107.047-.108.047-.107.048-.106.047-.107.047-.1.047-.106.046-.106.047-.1.046-.023.01-.082.036-.1.046-.1.046-.031.014-.073.032-.1.046-.1.045-.039.017-.063.028-.1.046-.1.045-.047.021-.055.024-.1.044-.1.045-.054.024-.046.02-.1.045-.1.044-.061.026-.038.017-.1.044-.1.044-.067.03-.031.013-.1.044-.1.042-.1.043-.092.042m0,0,.089.111,6.4,8.034,18.455-16.8,5.432-4.945-5.432,4.945-18.455,16.8M56.34,1341.3,45.4,1333.364l-.06-.044.04.044,8.962,9.718-18.791,16.772L21.53,1372.367l14.018-12.512,18.791-16.772m363.533,84.829-41.775,9.148-.133.029m0,0,.11-.1,16-15.241,11.735,11.508,10.612-11.508.185.119,7.817,5.052m-30.349-40.478-24.5,22.093Zm-61.517,164.792,15.641-29.959Zm-11.274-21.158,11.273,21.157h0l45.406,35.546-30.8,6.706h0l.127.369-.149-.365h0l-30.375,6.613,2.818-24.023-15.09,28.9L286,1636.566l-16.973-48.6L234.655,1552.9l-14.665,4.192-4.23-15.869-1.066-4-1.713-6.429-7.136-7.279q2.4-.654,4.843-1.326h0c10.372-2.849,21.413-5.936,32.725-9.147.006.018,2.6,7.677,6.755,19.876l.224.659.227.668.231.675.233.684.235.692.239.7.242.708.243.716.248.724.249.732.253.74.255.746.257.756.261.761.262.769.265.776.268.783.27.79.272.8.1.288h0l.176.516.277.81.279.817.281.824.284.829.285.835.288.841.29.848.292.853.294.859.3.864.3.871.3.875.3.88.3.887.306.89.307.9.309.9.31.906.311.911.314.915.316.919.316.924.318.928.321.932.321.936.323.94.324.945.325.947.328.952.328.955.33.957.33.962.332.964.332.968.334.97.335.974.337.976.337.979.338.981.339.984.339.986.34.989.341.991.343.992c7.611,22.066,15.774,45.534,22.761,65.172,6.416,18.032,11.84,32.833,14.934,40.345,11.595,28.158,27.017,43.287,21.447,63.829l-36.381-104.173L286,1636.566l16.492-31.587,15.09-28.9h0l-30.864-47.589-15.249-23.512h0l28.051,21.96,27.148,21.252Zm-30.106-73.837,12.046,39.941h0l29.332,55.052-4.916-27.464-5.945-33.206,5.945,33.206,4.916,27.464-24.6-56.479-.956.288-15.822-38.8,16.778,38.515Zm-30.313-2.518,6.57-20.464m0,0-5.421,5.276-9.239,8.991,6.055,12.533m-65.764-110.179-24.719-21.707-22.5-19.756,22.5,19.756Zm95.652,100.075,17.362,16.385,30.489-8.459h0l-30.489,8.459m-43.092-40.667,15.372,14.507.023.022m-13.359-37.333-.345.444m17.244-21.219-.059.071-12.815,15.508m26.94-35.623-10.747,16.027m-11.184-98.761,16.252,14.948,18.615,17.12.1-.112,1.655-1.821h0l-1.655,1.821-.1.112,19.64,18.063-.081.081-18.277,18.292-14.219,14.23m-45.221-104.154-9.5-8.741-21.94-20.179-1.149-1.057-.927-.852-11.4-10.484,11.4,10.484.927.852,1.149,1.057,21.94,20.179Zm99.891,91.872-22.084-20.311.129-.133.561-.577-.569.57-.13.13-19.64-18.063-.144.158-14.29,15.724-14.935,16.432,14.935-16.432,14.29-15.724.144-.158-18.615-17.12-16.252-14.948m19.974,85.65,16.4-16.857L326.5,1329.53l.078-.082,22.084,20.311m-67.573,26.455,9.436-9.7m-27.032,27.79,14.04-14.434m-53.577,57.886-2.927,2.09-6,4.287,5.548-5.7,2.3-2.366m51.689,6.414-8.845-8.949-.276-.278-4.667-4.722m41.15,38.4L289.739,1456.7l-.559-.471-6.044-5.075m19.278,15.636h0l1.666-.462.078.075,10.187,9.614-2.911-11.729,2.911,11.729h0l.421,1.7-.421-1.7.437.413,12.48,11.778m0,0-25.344-21.281h0m25.344,21.282h0Zm-40.331-61.22-9.1-9.182-14.813-14.95m40.891,41.271h0m-36.865-46.466,11.186,14.1m-12.927-43.221,12.221,11.325.108.1,2.285,2.117.076.071.107.1.074.068.16.149,24.23,22.452m-91.3-86.615L192.433,1299.9l-26.217-23.169h0l25.659,23.775,20.627,19.114m93.7,83.265-22.962-24.81-2.038-1.754-.119-.1L265.728,1363m63.622,64.89h0m15.941,54.608Zm-10.723-24.622-5.024-11.536-.264-.608-5.434-12.478,5.434,12.478.264.608,5.024,11.536,10.723,24.622Zm18.089,22.213h0l-1.932-6.387-.125-.412-15.443-51.057,15.443,51.057.125.412,1.932,6.387ZM198.084,1276.157l-.806-.686-19.4-16.488,19.4,16.489.536.456Zm105.83-76.007,2.716,1.43h0l1.127.594,23.146,12.194-23.146-12.194-1.127-.594h0Zm113.958,227.761,0,.007,4.944,9.161m-35.464-65.716.472.875,14.34,26.571-14.759,4.7-16.882,14.853,21.55-2.639,12.5-12.448,7.733-7.7m10.513,41.5-1.237-31.582-24.822-27.789-4.038-9.01-.8-1.788m30.9,70.179v-.01h0Zm-67.307-67.85-.008-.022,0,.006Zm.007.026-.007-.026ZM319.2,1321.235l8.064-13.86-18.581-11.793Zm10.15-91.3-46.108,55.769Zm-53.9-17.354,1.7-.6-1.044.369Zm-11.974,55.757.351.3-.128-.111Zm-13.266-11.464q3.564,3.064,7.017,6.049Q253.774,1259.946,250.208,1256.878Zm-7.581,130.544-4.883,5.276,3.142-3.4m10,29.224-5.471-5.537-.051-.051-13.507-13.666-.1-.1h0l-16.093-16.282-13.141-13.3-.035-.035m60.883,24.631.121.114.084.078,3.475,3.284-4.026,5.2-.288-.292-.057.736-.084,1.126L261,1425.493l-.013.172-.217,2.864m-36.818,9.226-1.073-1.676-.01-.016-33.283-51.985-1.824-1.526-14.483-12.108,13.118-15.172,4.669-5.4.159-.183,8.908-10.3-22.856-23.068-22.618-22.829L178.491,1315l23.993,21.662m35.114,2.122Zm-24.329-20.479,2.851,2.4,21.477,18.077Zm45.6,135.4-.027.337-.413,5.461-.5,6.6-3.308,43.737m-30.668-72.09.205-.146.078-.056,26.647-19.025Zm16.272,27.912-1.658-5.084-14.614-22.828,26.931-19.228h0l9.886,10h0m-6.15,81.317-10.906-33.465m-11.96-77.209-12.809,13.844-6.4,6.92,6.4-6.92Zm22.866,110.674Zm-198.85,8.939.322-.483,9.578-14.409h0l3.453-5.046-3.8,4.935h0l-.047.061-10.21,13.251-.343.444Zm13.48-20.122-.126.182h0l-25.035-18.784-18.432,2.386-.366.047h0l.366-.047,18.432-2.386L21.53,1463.135l22.559,16.926h0l.149-.02,41.426-5.363Zm-.126.182.126-.182,16.415-23.985-41.426,5.363-.149.02h0ZM51.657,1522.22l-.183.152h0ZM21.53,1560.613l30.559-37.33.176-.217,3.263-3.985.039-.047.2-.247-6.189-7.377-5.946-2.722-2.027-.927-3.373-1.543h0l-16.7-7.645,15.71,9.275-15.71,25.761,15.71-25.761,7.359,4.345,9.386,5.541.4.239-.052.067-2.931,3.805-.155.2-1.118,1.45h0l-28.6,37.12,32.359-34.661.181-.194,3.976-4.259.112-.121.286-.306,13.985-14.98h0l21.993-23.558h0l-8.757-7.855,1.241-1.128-13.118-15.677L52.2,1426.914l-5.926-7.447,9.2-6.3,6.048-6.989,51.066-59h0l.01-.013,3.007-3.473-.03.03-2.337,2.3-1,.982h0l-.6.589-53.515,24.987L45.891,1378.3,22.28,1389.323l-.75-.941.749.942-.749.349.093-.042.093-.042.095-.042.007,0,.088-.038.095-.042.095-.043.015-.006.081-.036.1-.043h0l.088.112,20.543,25.88L21.53,1436.412l24.7-16.912,10.27,12.94,1.129,1.421-1.722-1.634,1.722,1.634h0l34.981,33.231L57.63,1433.861l30.57,38.513.083-.075,6.839-6.211,2.125-1.93-7.037-6.832L50.07,1418.365l30.685,22.1,23.743,17.1h0l1.38,1.805,25.363,33.171.141.183,13.524,17.687-16.1-15.628-.16-.155,2.6-2.088-2.6,2.088-23.881-23.181-4.143,4.439-5.14,5.505-.065.069,19.33,24.352-.286.231-.216.173-12.023,9.674h0l-5.792,4.66-20.413,16.425-.171.137-2.247,1.809-.563.453h0l.563-.453,2.247-1.809.171-.137,20.413-16.425,5.792-4.66h0l12.023-9.674-19.822-23.69L72.43,1506.092h0l-13.985,14.98-.286.306-.112.121-3.976,4.259-.181.194ZM318.016,1388.1h0l-.441.28.441-.28Zm84.615-105.878-34.052-27.049-.217-.172.217.172Zm0,0h0Zm-9.141,21.6-3.631-2.425,1.375.917-3.037-2.028.1-.133,14.329-17.929h0l.138-.173,4.255-5.324-3.11,6.226-.1.209-10.23,20.476-.091.183Zm-12.122,5.008,6.829-8.544L362.8,1283.328l-.253-.168.253.168,25.395,16.957-2.252,11.893,1.463,1.007m-.143,27.565,9.242-5.6-10.994-15.359m10.994,15.359h0m0,0h0l-8.652,5.82m42.117-56.85,12.182,9.308,2.82,2.155.555-.55,2.415-2.393-2.415,2.393-.555.55h0l2.969,7.241v81.47h0L417,1353.388l30.945,30.907v10.1l-36.79-35.5,9.138-9.079-.676-.549-3.782-3.072-10.481-11.335-.292.289.292-.289-9.9-10.711,1.059,11h0m20.316-60.63.175-.311,1.2.915M417,1268.9h0Zm-22.5,45.4,19.284-34.36M303.914,1444.132l13.422-4.538,3.984-3.881.119-.118,7.912-7.709-5.048-5.453-2.38-2.57m0,0-10.49-11.334-.475.363-1.153.883-5.239,4.01h0l-.137.106m-29.871,28.586.543-.681,1.281-1.6.091-.113.01-.014,10.449-13.073.018-.024,1.679-2.1.028-.035,12.313-15.408.113-.141,3.485-4.36.016-.022.118-.145.976-1.223.525-.656,5.23,5.65-.475.363-1.153.883-5.239,4.01h0l-.137.106-15.076,11.538m14.561,18.7h0l-17,5.75-.1.032-.1.033-2.061.7-1.519.513m-19.861,6.715h0l11.365-3.843,8.493-2.872h0l-1.882-1.9m0,0-6.7-6.775-12.682,15.869,1.4-.474m-35.68,29.606.112.177m-4.161-6.516.067.1m-.765-1.192.1.15m4.889,7.652,15.88-11.475-3.49-10.712m-29.259,11.144-.276-.608h0l7.619-3.125.018-.007h0l.355.547.038.06.095.144.153.238.155.237.153.236.152.235.153.235.151.234.3.467.151.233,1.193,1.844.148.228.146.227.1.152.047.074.051.08.1.146,0,.006.1.151.045.069.145.225.006.01.044.067.053.084.042.063.057.088.088.136.009.015.1.15.038.059.059.091.084.132.013.018.087.135.009.015.035.054.061.1.082.126.015.023.1.15.031.049.142.22.017.028.1.149.028.043.006.008.061.1.074.115.21.326.072.11.023.038.093.146.022.033.053.083.087.134.962,1.5.081.128.054.084.009.015.126.2.084.133.051.078.13.2,0,.006.265.418h0l.089.14.044.069.045.071.088.136,0,0,.089.139.042.065.047.075.083.13.006.008.088.14.038.059.051.08.081.126.007.012.088.138.035.054.053.083.077.121.01.016.087.137.032.051.055.087.074.115.013.021.087.136.029.045.058.091.07.111.015.024.043.067.069.11.127.2-8.749,6.323-.157.113Zm202.817-196.874-.315-.15-6.442-3.064-38.149-23-.224-.135h0l-31.789-19.165-2.212,2.764-44.086,55.086h0l-.719.632-1.535,1.347-.183.161-.05.043-4.862,4.27,4.862-4.27.05-.043.183-.161,1.535-1.347.719-.632h0l44.086-55.086,2.212-2.764-7.244-4.366-.269-.123h0l-19.042-8.617-.271-.124-14.813-6.7-.281-.127-.423-.191-10.21-4.622-.133-.059h0l-3.49-1.579,3.49,1.579h0l.133.059,10.21,4.622.423.191.281.127,14.813,6.7.271.124,19.042,8.617h0l.269.123,7.883,3.568,32.258,14.6h0l.211.161,37.054,28.336L417,1268.9m-.385,12.388.121.058,25.419,12.085h0l-25.54-12.142-2.832-1.346M417,1268.9l-.175,5.621m-60.669,96.737.189.6-.189-.6Zm-.188-.594.047.148h0Zm-1.784-5.59.012.035.014.043.008.026.012.035,0,.017.007.017.01.036.008.024,0,.01.012.035.01.033v0l.01.035.046.141.012.035.067.212.012.035,0,.014.076.235v0l.012.032.035.107.006.02,0,.016.012.036.009.029,0,.007.012.036.01.036h0l.012.036.035.107.006.018.018.054.008.026,0,.009.012.037.023.071.012.037,0,.008.009.028.016.053.007.021.012.036.008.025.015.047.012.033v0l.012.036.012.037v.006l.01.031.012.037,0,.014.007.022.013.037.007.024,0,.013.012.037m-4.438-13.291c.92,2.546,2.1,6.048,3.5,10.362l.068.212.016.048.053.166.07.216M336.4,1409.4l-18.708-20.894.1-.128.224-.28h0l21-26.278.161-.2,11.3-7.555m9.728,30.209.048.157-.039-.125Zm-.717-2.329.047.153-.015-.05Zm-.237-.764.047.152-.007-.026Zm-5.071-16.113ZM394.5,1314.3l-1.008-10.478-3.631-2.425,1.375.917,2.256,1.508L394.5,1314.3h0l.042.434.517,5.365v.008l.39,4.04-3.842-4.154-6.093-.2,7.977-15.968.384,4Zm2.008,20.85.1.145.007.009-.007-.009-.1-.145h0Zm45.49-2.055,5.947-4.3Zm-79.8,57.668,25.633-18.523.059-.043.371-.267,4.465-3.228,0,0,26.889-19.432.18-.129,4.325-3.126-4.325,3.126-.18.129L392.727,1368.7l0,0-4.465,3.228-.371.267-.059.043-25.633,18.523,1.2,3.947-21.445,20.9-5.555-6.2Zm-118.48,85.619,14.214-10.272.271-.195,2.949-2.133,3.249-2.348,13.157,41.763L264.4,1461.433h0l.279-.2,9.966-7.2,6-4.335.611-.442,2.823-2.04,13.349-9.646.813-.588,15.568-11.249,7.622-5.509.495-.358-.495.358-7.622,5.509-15.568,11.249-.813.588-13.349,9.646-2.823,2.04-.611.442-6,4.335-9.966,7.2-.279.2h0l-1.122-3.56,1.122,3.56-3.249,2.348-2.949,2.133-.271.195Zm18.161-18.033-3.147,1.064-.3.1-17.8,6.02-.4.136.4-.136,17.8-6.02.3-.1Zm70.491-53.445,7.08-6.45,19.62-17.874h0l-19.62,17.874Zm113.162-109.87.22.1,2.2,1.044-2.2-1.044-.22-.1-3.375-1.6Zm-9.17-137.149.205-.067-.15.049Zm-.614.2.2-.067-.02.007Zm-.407.131.2-.066-.095.03Zm-.407.132.2-.066-.17.054Zm-.608.2.2-.065-.04.013Zm-.4.13.2-.064-.114.037Zm-.4.13.2-.065-.187.06Zm-.6.194.2-.065-.06.02Zm-.4.129.2-.063-.134.043Zm-.6.194.2-.065-.007,0Zm-2.759.888.2-.063-.047.016Zm-2.7.869.574-.185-.015,0-.452.146Zm-1.7.547.376-.12-.359.115Zm23.195,38.28V1164l-7.028-4.294.059-.182,1.095-3.447.015-.048h0l5.86-18.443v-29.727m0,0L433.7,1133.1l-8.953,28.519h0l.163.268,8.266,13.552-1.185,12.353,7.246-22.811h0l7.379,29.6m-40.143-124.241,3.876-18.779.32-1.542-.32,1.542Zm-5.056,24.493,5.056-24.493Zm-51.691,250.449,7.8-37.814,2.154-10.431m41.732-202.2v0Zm-15.568,75.429,15.043-72.884-3.021,14.634Zm-26.164,126.768-9.958,48.245-.873,4.232h0l.5-.623,4.8-6.007,3.507-4.387,3.651-4.568,16.711,12.427,1.966-8.3,2.893,1.07,4.385,1.622.589.218,4.969-3.343,3.683-2.478-3.683,2.478-4.969,3.343-.589-.218-4.385-1.622-2.893-1.07-1.966,8.3v7.71l12.786,10.351,1.118,2.493-1.118-2.493-34.934,5.948,8.525-.806,9.66-10.988-18.177-6.345-6.742-2.353-.051-.017-.285-.1v0l-.112-.039h0l.089.156.023-.113h0l-.023.113.018.032.017.034,0,.008.014.028.018.036.009.017.009.02.02.038.014.026.006.013.02.041.018.038v0l.021.043.021.044,0,.006.018.038.021.046.008.016.014.031.014.03c.36.791.836,2.015,1.411,3.607h0l-.048.032-11.253,7.523h0l-13.5,9.027-5.8,3.88,5.8-3.88,13.5-9.027,9.479-11.862h0l.034-.043h0l.11-.137.053-.066m15.543-75.307,2.66-12.888-2.19,10.611-.469,2.277-25.55-10.651L301.92,1302.76h0l36.928-39.206,25.55,10.651-1.848,8.954m-12.822,62.121,9.958-48.245-2.154,10.431Zm88-146.8,3.418-8.043Zm-56.781,28.726-6.832.968-.226.032.188.148,47.273,37.124L417,1268.9l-.035,1.128-.141,4.493-1.332,2.375h0l-1.1,1.953-.613,1.091h0l2.85.736-.018.61.018-.61,13.34,3.444,17.972,4.64v-.563L418.2,1275.12l-1.122-.494-.25-.11.141-4.493L417,1268.9l.273.166,30.672,18.615v-.634l-26.59-21.565,26.59-17.426v-12.035m-116.362-43.172.11-.038.144-.051Zm30.4,10.192,21.763-27.193,1-1.25h0l.281-.352-.281.352h0l-1,1.25Zm-2.551,3.189-.734-.529-2.247-1.047L331.469,1193l-.141-.066h0l-1.978-.922,6.849-16.876,11.268,12.193.008.009,12.517,13.544,1.991,2.155m13.981,15.129-16.533-11.939-21.931,27.4,21.931-27.4.158-.2,2.393-2.992,13.981,15.127,8.318-40.3.665-3.22.025-.122h0l.877-4.252,12.022-58.25,3.021-14.634-15.043,72.884-.877,4.252h0l-.025.122-.665,3.22-8.318,40.3m0,0h0l-6.2,30.062-1.108,5.365-1.594,7.726-2.66,12.888h0l.469-2.277,2.19-10.611,1.594-7.726,1.108-5.365,6.2-30.062h0Zm4.986,9.04-2.814-.37-3.645-.479-.211-.029.238-.1,47.129-20.685,7.143-18.669-7.143,18.669h0m26.3-5.638h0v36.115l-24.69-3.247-.089-.013-11.323-1.488-.036-.006,3.409-8.91,3.818-9.978,2.616-6.836.278-.123,15.8-6.937h0l.392-.173,8.493-3.727,1.327,5.322m-14.259-149.885,1.174,1.982,12.131,20.48.954,1.609v-17.628l-7.488,4.985,7.488-4.985v-1.7l-8.034-2.675ZM369.5,1091.431l8.767-22.581,6.887-17.741.424-1.091-.424,1.091-6.887,17.741Zm-37.13-8.691-22.956,4.736-74.077,139.384h0l-.022.042-6.275,11.807-.031.059.037-.055,8.3-12.529.036-.053ZM205.688,1285.532l-.18.2-.01.011-.148.16-.872.945L192.433,1299.9h0l-.531.577-.027.029L178.491,1315l-1.061,1.149-.152.165-10.853,11.762-.078.085-1,1.085,1-1.085.078-.085,10.853-11.762.152-.165,1.061-1.149,13.384-14.5.027-.029.531-.577h0l12.044-13.051.872-.945.148-.16.01-.011.18-.2-1.336-1.275-.408-.39-.638-.609-25.431-24.276,19.4,16.488.806.686L224.73,1298.8l23.773-40.465.2-.339.065-.109.877-1.494h0l.008-.015,25.709-43.647.085-.145,1.9-3.229,24.569-50.524-24.569,50.524,24.569-50.524-24.569,50.524-.2,2.625-2.429,32.105,20.219-29.719-20.219,29.719-1.73,22.871,37.044-45.76L272.7,1270.886l-.391,5.163h0l-.013.163-.234,3.1-.036.478v.017l-.423,5.584-.121,1.609-3.662,48.415h0l9.741,8.278,16.433,18.352h0l-1.956,2.916-1.225,1.827-.158-.15-.128-.122L267.149,1344.2l-.644,8.518L265.728,1363l-.04.536-.3,4.011-.061.806-.015.194-1.94,25.645-14.211-13.426-.2-.187-6.334,6.846h0l-1.739,1.88-9.038,9.766-.1.1.1-.1,9.038-9.766,1.739-1.88-8.177-10.338-16.583-20.968-.5.443-8.9,7.818-5.939,5.216-.469.412-14.288,12.547-18.441,19.754h0l-9.2,9.852-2.073-3.223h0l9.672-8.785h0l20.04-17.6L202.05,1370l.469-.412,5.939-5.216,8.9-7.818.5-.443-15.383-19.449,10.018-17.052.037-.062.73-1.242,7.408-12.611.053-.089.061-.1.483-.822,1.608-2.737Zm124.758-199.349-74.28,133.248h0l-.048.088-15.943,28.6-.061.109h0l-.849.919-.135.146-.243.264-18.016,19.523h0l18.016-19.523.243-.264.135-.146.849-.919h0l.061-.109,15.943-28.6.048-.088h0Zm15.038-26.975-4.283,7.684-3.224,5.782,3.224-5.782Zm-37.559.626,5.33-9.818Zm-.069.128.069-.128-.069.128-6.8-3.885Zm-2.728,5.025,2.728-5.025,9.964,5.7,14.547,8.315-14.547-8.315-9.964-5.7Zm-34.51,63.571,34.51-63.571Zm-159.259,13.883.431-.1c2.727-.66,17.717-4.329,25.817-7.117,2.937-1.01,4.969-1.668,6.763-2.122,3.661-.927,6.33-1.015,13.681-1.558,5.379-.4,10.509-1.007,15.74-3.451,5.421-2.534,10.947-7.041,16.966-15.341-6.019,8.3-11.545,12.807-16.966,15.341-5.231,2.444-10.362,3.052-15.74,3.451,5.379-.4,10.509-1.007,15.74-3.451,5.421-2.534,10.947-7.041,16.966-15.341-6.019,8.3-11.545,12.807-16.966,15.341-5.231,2.444-10.362,3.052-15.74,3.451l-46.257,10.8Zm-37.57-35.67h0l-2.987,4.862-.083.134-.07.115-12.08,19.656,11.142,21.252h0l-11.142-21.252-32.214,11.633,32.214-11.633,12.08-19.656.07-.115.083-.134,2.987-4.862h0Zm112.438-56.756,5.762,9,1.4,2.179,8.626,13.472.129.2.347.542-.347-.542-.129-.2-8.626-13.472-1.4-2.179Zm-92.466,9.044,4.552,3.225,26.171,18.546,34.236-19.24,7.05-3.962,13.55-7.614-52.553,5.555ZM64.5,1096.985l1.631-.194,6.622-.787,36.379,33.458.036.032-.036-.032L72.755,1096l9.074-1.077,25.241-26.433L69.9,1093.374l-47.068-43.289L69.9,1093.374l-4.285,2.869Zm31.249,40.324-.15.088.141-.082Zm119.5,89.751.93.854m-73.23-60.56c-7-5.638-13.265-10.616-18.52-14.707l-1.483-1.15c-1.811-1.4-3.492-2.69-5.024-3.849-4.974-3.757-10.33-8.269-15.9-13.284l-.487-.438h0q3.85-2.246,7.632-4.428c9.54-5.5,18.638-10.631,26.646-14.956,25.3-13.662,62.61-36.475,90.26-53.723m-9.9,167.1h0q-4.223-3.562-8.458-7.119l-4.251-3.567h0l-.013-.01q-4.557-3.818-9.08-7.594l-.115-.1,86.552-145.82,8.124-13.688-8.124,13.688-86.552,145.82c-18.649-15.561-36.6-30.323-51.309-42.172m106.7,89.04q-4.685-4.026-9.532-8.167c-6.245-5.335-12.656-10.782-19.129-16.255l0,0-4.8-4.058-.93-.854m133.445,122.656c-5.49-9.809-25.032-21.4-37.493-37.425-.576-.739-1.425-1.7-2.518-2.848-1.687-1.78-3.971-4.031-6.762-6.682-3.166-3.009-6.992-6.536-11.356-10.484-5.351-4.84-11.51-10.309-18.259-16.227m76.475,73.823-.088-.156M248.5,1258.336l-9.618-8.779-31.432-28.692-3.808-3.474-.18-.165.383-.65,4.421,4.066,9.053,8.327m109.16,100.552-19.7-17.986-18.7-17.073L272.021,1279.8m76.636,69.956L326.5,1329.53m31.037-22.063-8.677,42.046m61.5-297.953-25.2-.451-60.988-1.091a67.054,67.054,0,0,0,8.692,16.436c10.477,14.483,30.582,29.786,68.563,28.385M434.859,1052l-24.509-.44m37.593,3.2v-2.531l-8.034-.144m-38.492,42.749a161.769,161.769,0,0,0,23.33-2.669c7.38-1.36,15.148-2.823,23.2-4.364v-13.718m-99.089,275.425,8.677-42.046m-3.557,56.961c-2.282-7.051-3.994-11.978-4.921-14m27.02,86.554c-4.455-15-8.8-29.514-12.676-42.275m84.546,298.171V1675.1l-11.917-5.722-9.063-35.919-6.913-27.4-5.209-20.648-6.571-26.044-4.241-16.812.108.139,25.685,33.182,18.121,23.407v62.058c-2.4-6.733-6.108-17.176-10.327-29.147-3.024-8.58-6.311-17.948-9.565-27.3-2.322-6.676-4.628-13.342-6.809-19.709-3.325-9.7-6.363-18.71-8.732-25.987-.73-2.245-1.4-4.324-1.99-6.21-2.231-7.1-6.347-20.91-11.441-38.141-4.118-13.925-8.874-30.081-13.79-46.734l-.3-1-.007-.027v0c-2.945-9.972-5.943-20.107-8.892-30.036m71.847,389.6v-133.7M316,1794.61l.01-.042m-1.091,4.052.178-.667m-34.177,50.019c-2.618-5.9-5.3-12-8-18.182-4.669-10.7-9.387-21.653-13.91-32.2-3.437-8.014-6.759-15.8-9.863-23.064h0c6.724.526,13.359,1.07,19.848,1.623q6.48.545,12.742,1.111m.017,72.6-.837-1.882m153.582,25.9-44.116,11.317c2.436,1.789,4.842,3.655,7.2,5.6a129.616,129.616,0,0,1,13.212,12.491l.064.069c11.8,12.933,21.333,24.532,28.28,33.425h0c2.351,3.01,4.406,5.711,6.153,8.048-1.746-2.337-3.8-5.037-6.153-8.048h0c-6.947-8.893-16.478-20.492-28.28-33.425l-13.594-12.005-6.948-6.137-51.892,13.312-25.358,6.506a4.278,4.278,0,0,1-2.764.708c-2.443-.486-10.165-15.618-19.934-36.832q-1.45-3.149-2.956-6.467m-1.874,6.619,24.765,36.681,2.826-.744c2.756-1.549,6.432-5.257,10.357-9.886,11.062-13.045,24.1-33.4,24.1-33.4s-13.041,20.359-24.1,33.4c-3.925,4.629-7.6,8.337-10.357,9.886l39.527-10.4,13.126-3.454,24.061-6.333.009,0,5.644-1.427,38.6-9.759m-162.8-25.644,8.169,12.1M267.7,1842.637l1.075,1.594m-44.051-64.469.458-.1,13.613,20.162,28.669,42.465.235.347m-74.182-56.185,28.224-6.051m-66.1,65.668c.656-9.81.37-22.672-.431-37-.257-4.6-.568-9.356-.917-14.208l30.248-6.485m82.276,128.268c-7.106-3.141-13.937-6-20.041-8.41l-6.24-4.256-24.338-16.6-32.752-22.343-16.118-10.994m104.148,64.685c9.382,4.237,19.067,8.874,28.058,13.512,8.337,4.3,16.079,8.6,22.432,12.589-6.353-3.984-14.1-8.288-22.432-12.589-8.99-4.638-18.676-9.274-28.058-13.512m-104.006-64.783c4.773,4.205,11.4,9.917,19.142,16.14,15.3,12.3,34.969,26.588,53.353,35.2q3.441,1.614,6.812,2.947c6.1,2.405,12.935,5.269,20.041,8.41m-112.67-60.672,0-.014m-.017.08,0-.014,0-.013,0-.013m-.091.407,0-.013,0-.014,0-.013,0-.013m-.033.144,0-.013m-.021.092,0-.014m-1.036,4.13.126-.469.11-.413.112-.427.133-.516.048-.194.156-.625.059-.241c.057-.236.114-.473.17-.708m-1.012,3.953.084-.308m-.525,1.86.09-.313M129.3,1914.355c8.712-15.694,17.55-33.679,22.481-49.554m-38.109,41.624-2.621,38.4c3.978-6.2,9.372-14.874,15.035-24.769m-11.322-29.637-.955,14m-41.887-19.844c12.411-7.464,23.217-15.288,28.106-22.138a171.117,171.117,0,0,0,18.242-33.357l.66.28-3.588,52.589m-76.155,20.182c10.093-4.934,21.657-10.931,32.135-17.2m-39.005,59.891.554-39.649h0c2.019-.96,4.133-1.978,6.315-3.045m-11.054-36.768,1.542,29.29-8.141,15.782c2.534-1.147,5.5-2.506,8.759-4.041m-5.24-99.541,1.786,33.93m-3.027-57.511q-1.189-.509-2.278-.97l2.285,1.1,1.228,23.336M34.5,1788.32l.006-.367h0m14.449,6.672c-5.023-2.4-9.936-4.654-14.448-6.672l-.006.367M105.835,1747l-16.693,32.36m29.81-45.279c-.245-4.722-.315-8.922-.138-12.244l-7.059,13.686m10.661,34.06c-1.5-11.8-2.918-24.955-3.464-35.5m8.248-26-4.185,61.333M130.3,1662.62l-.127,1.859-.975,14.278-.993,14.548M104.8,1601.362l26.956,39.925-.306,4.473-.617,9.049M52.089,1523.282l1.8,2.669,18.048,26.73,1.16,1.72,6.654,9.856,8.829,13.076,9.21,13.642,1.937,2.869M44.6,1512.19l6.651,9.852m14.072-18.263c-11.32-3.678-21.788-7.048-30.376-9.8h0c-3.583-4.264-6.822-8.117-9.654-11.486l-3.761-4.472,10.047,14.88c-3.844-1.23-7.23-2.309-10.047-3.205l19.2,16.763.877,1.3M234.655,1552.9l34.375,35.063c-33.291-16.922-71.02-35.936-93.932-45.938-2.9-1.266-5.576-2.393-7.963-3.348-2.282-.914-4.9-1.921-7.808-3.007-14.233-5.318-35.319-12.528-57.1-19.774-9.982-3.32-20.109-6.648-29.794-9.806l-6.758-2.2m192.97,53.837h0l-.3-.875m1.517,4.429h0l-.307-.9m2.183,6.372h0l-.316-.924m.955,2.784h0l-.321-.931m2.6,7.563h0l-.33-.957h0l-.328-.954h0l-.328-.952m1.979,5.758h0l-.332-.968m1,2.911h0l-.335-.974m55.338-143.4,8.224,10.624,21.18,27.361,4.33,5.592,24.726,31.943q-.227,2.966-.439,6.016c-.753,10.776-1.392,22.283-1.947,34.112-.546,11.62-1.01,23.554-1.425,35.412-.639,18.319-1.158,36.461-1.666,53-19.287-9.238-36.231-17.335-44.953-21.46-6.138-2.9-15.535-7.606-26.855-13.339-9.967-5.048-21.426-10.893-33.465-17.014h0l-.343-.992h0l-.341-.99h0l-.34-.989h0l-.339-.986h0l-.339-.984h0l-.338-.981m12.874-199.884,21.108,27.269m-97.666-126.167,2.044,2.64,15.327,19.8m-74.417-96.133,27.226,35.171,7.39,9.546,16.4,21.187h0m-73.2-94.566,7.27,9.393M28.017,1056.817l42.628,55.068L92.024,1139.5c-27.918,16.458-56.341,33.936-70.494,42.7l70.579-42.588.354.458,18.8,24.289m114.811-103.543c6.332-3.951,12.159-7.609,17.218-10.8-5.059,3.189-10.885,6.848-17.218,10.8l-23.939,14.053-93,54.594-7.6,4.461h0c-8.952-8.1-18.436-17.479-27.75-27.15-14.606-15.167-28.793-31.039-39.849-43.748m193.9,424.829c9.855,15.526,15.581,25.187,15.581,25.187h0m-18.206-29.311.135.212m-1.791-2.8.135.212.42.654m-.7-1.094.141.219m-.568-.882.143.221m-.862-1.339.05.077.095.148.144.224m-.872-1.352.146.226.146.226.145.226m-52.795-76.608c7.022,9.489,13.747,18.865,20.079,27.906,10.983,15.68,20.786,30.349,28.93,42.859M112.592,1347.177a113.639,113.639,0,0,1,39.331,32.224c5.4,6.912,10.674,13.855,15.8,20.75M56.727,1333.485c16.876.743,36.6,4.17,55.518,13.52M45.4,1333.364c3.59-.08,7.381-.052,11.328.121m-35.194,2.032a174.817,174.817,0,0,1,23.847-2.153m171.947-104.4-9.87-8.1m27.879,5.995c-8.977,3.209-14.327,5.131-14.327,5.131l-.024-.02m54.466-19.385c-6.858,2.429-13.341,4.731-19.282,6.846-7.148,2.543-13.509,4.812-18.789,6.7m93.951-33.2c-8.246,2.873-16.549,5.781-24.7,8.646-7.681,2.7-15.223,5.359-22.454,7.916l-7.025,2.486m107.822-37.463-.225.075c-11.287,3.788-24.022,8.148-37.281,12.735m77.282-25.708c-5.485,1.76-10.565,3.379-15.122,4.817-6.838,2.161-15.243,4.923-24.654,8.081m62.971-20.394-5.86,1.9" transform="translate(-21.53 -1050.016)"/></g></g><g class="c" transform="translate(274.87 800.989)"><g class="d"><path class="a" d="M259.831,1778.24s18.307-40.1,31.474-32.944c10.034,5.457,36.645,15.559,60.5,32.942Z" transform="translate(-259.831 -1744.44)"/><path class="e" d="M259.831,1778.24s18.307-40.1,31.474-32.944c10.034,5.457,36.645,15.559,60.5,32.942Z" transform="translate(-259.831 -1744.44)"/></g></g><path class="i" d="M150.812,1140.958c0,8.8-9.231,25.964-17.139,39.075-5.516,9.146-10.4,16.258-10.4,16.258s-27.535-40.126-27.535-55.333a27.535,27.535,0,1,1,55.071,0" transform="translate(-10.142 -1040.286)"/><path class="j" d="M134.278,1137.965a12.943,12.943,0,1,1-12.943-12.944,12.943,12.943,0,0,1,12.943,12.944" transform="translate(-8.201 -1038.506)"/><path class="j" d="M100.069,1142.927a23.92,23.92,0,0,1,42.881-14.581,23.921,23.921,0,1,0-39.7,26.5,23.814,23.814,0,0,1-3.179-11.923" transform="translate(-9.751 -1039.837)"/><path class="i" d="M113.983,1182.411c3.752,6.286,6.494,10.532,6.494,10.532s27.535-40.126,27.535-55.333c0-.8-.042-1.587-.108-2.368a66.82,66.82,0,0,1-4.509,12.264c-5.211,10.849-12.92,17.8-21.129,26.6-2.646,2.838-5.4,5.644-8.283,8.3" transform="translate(-7.343 -1036.938)"/><path class="k" d="M244.4,1405.512c0,15.207-27.535,55.334-27.535,55.334s-27.535-40.127-27.535-55.334a27.535,27.535,0,1,1,55.071,0" transform="translate(4.22 -999.688)"/><path class="j" d="M227.865,1402.519a12.943,12.943,0,1,1-12.943-12.943,12.942,12.942,0,0,1,12.943,12.943" transform="translate(6.161 -997.908)"/><path class="j" d="M193.656,1407.482a23.92,23.92,0,0,1,42.882-14.582,23.922,23.922,0,1,0-39.7,26.5,23.808,23.808,0,0,1-3.179-11.922" transform="translate(4.611 -999.239)"/><path class="k" d="M207.571,1446.967c3.751,6.285,6.493,10.531,6.493,10.531s27.535-40.127,27.535-55.334c0-.8-.042-1.586-.108-2.368a66.863,66.863,0,0,1-4.509,12.265c-5.211,10.848-12.919,17.8-21.129,26.6-2.646,2.838-5.4,5.643-8.282,8.3" transform="translate(7.019 -996.34)"/><path class="l" d="M126.153,1180.822l33.938,43.843L99.2,1327.1c30.241,13.609,66.768,62.831,105.736,125.894l25.085,39.972,55.94,161.218c20.865,37.124,35.93,69.384,28.817,83.05l-23.238,82.92,16.425,30.513" transform="translate(-9.612 -1029.943)"/><text class="m" transform="translate(428.687 488.485)"><tspan x="0" y="0"> </tspan></text><line class="n" y2="32.808" transform="translate(415.811 444.297)"/><path class="a" d="M321.974,1719.79c0,15.207-27.535,55.334-27.535,55.334S266.9,1735,266.9,1719.79a27.535,27.535,0,1,1,55.071,0" transform="translate(16.124 -951.459)"/><path class="j" d="M305.44,1716.8a12.943,12.943,0,1,1-12.943-12.943A12.943,12.943,0,0,1,305.44,1716.8" transform="translate(18.066 -949.68)"/><path class="j" d="M271.231,1721.76a23.92,23.92,0,0,1,42.882-14.582,23.922,23.922,0,1,0-39.7,26.5,23.811,23.811,0,0,1-3.179-11.922" transform="translate(16.515 -951.01)"/><path class="a" d="M285.146,1761.244c3.751,6.286,6.493,10.532,6.493,10.532s27.535-40.126,27.535-55.334c0-.8-.042-1.587-.108-2.368a66.818,66.818,0,0,1-4.509,12.264c-5.211,10.849-12.919,17.8-21.129,26.6-2.646,2.838-5.4,5.644-8.282,8.3" transform="translate(18.924 -948.111)"/><g class="c" transform="translate(89.554 117.671)"><g class="o"><path class="a" d="M129.281,1152.032,114.594,1169.9,99.17,1188.655l25.045,28,15.9-13.776,9.154-7.931-19.3-42.354Z" transform="translate(-99.17 -1152.032)"/><path class="e" d="M129.281,1152.032,114.594,1169.9,99.17,1188.655l25.045,28,15.9-13.776,9.154-7.931-1.076-2.361-.143-.314-18.082-39.68Z" transform="translate(-99.17 -1152.032)"/></g></g></g><text class="p" transform="translate(148 3018)"><tspan x="0" y="0">1</tspan></text><text class="p" transform="translate(122 3310)"><tspan x="0" y="0">2</tspan></text><text class="p" transform="translate(332 3645)"><tspan x="0" y="0">3</tspan></text></g></svg>