<?xml version="1.0" encoding="utf-8"?>
<!-- Generator: Adobe Illustrator 24.2.0, SVG Export Plug-In . SVG Version: 6.00 Build 0)  -->
<svg version="1.1" id="Layer_1" xmlns="http://www.w3.org/2000/svg" xmlns:xlink="http://www.w3.org/1999/xlink" x="0px" y="0px"
	 viewBox="0 0 512 512" style="enable-background:new 0 0 512 512;" xml:space="preserve">
<g id="outline">
	<path d="M198.8,190.9c12.6,0,22.9-10.2,22.9-22.9c0-12.6-10.2-22.9-22.9-22.9c-12.6,0-22.9,10.2-22.9,22.9
		C176,180.7,186.2,190.9,198.8,190.9z M198.8,156.6c6.3,0,11.4,5.1,11.4,11.4c0,6.3-5.1,11.4-11.4,11.4c-6.3,0-11.4-5.1-11.4-11.4
		C187.4,161.8,192.5,156.6,198.8,156.6z"/>
	<path d="M198.8,248.1c12.6,0,22.9-10.2,22.9-22.9c0-12.6-10.2-22.9-22.9-22.9c-12.6,0-22.9,10.2-22.9,22.9
		C176,237.9,186.2,248.1,198.8,248.1z M198.8,213.8c6.3,0,11.4,5.1,11.4,11.4c0,6.3-5.1,11.4-11.4,11.4c-6.3,0-11.4-5.1-11.4-11.4
		C187.4,218.9,192.5,213.8,198.8,213.8z"/>
	<path d="M198.8,362.4c12.6,0,22.9-10.2,22.9-22.9c0-12.6-10.2-22.9-22.9-22.9c-12.6,0-22.9,10.2-22.9,22.9
		C176,352.2,186.2,362.4,198.8,362.4z M198.8,328.1c6.3,0,11.4,5.1,11.4,11.4c0,6.3-5.1,11.4-11.4,11.4c-6.3,0-11.4-5.1-11.4-11.4
		C187.4,333.2,192.5,328.1,198.8,328.1z"/>
	<path d="M358.9,99.5h-57.2V82.3c0-3.2-2.6-5.7-5.7-5.7h-80c-3.2,0-5.7,2.6-5.7,5.7v17.1h-57.2c-12.6,0-22.9,10.2-22.9,22.9v274.4
		c0,12.6,10.2,22.9,22.9,22.9h205.8c12.6,0,22.9-10.2,22.9-22.9V122.3C381.8,109.7,371.5,99.5,358.9,99.5z M221.7,88h68.6v34.3
		h-68.6V88z M347.5,133.8v251.5H164.5V133.8H347.5z M370.3,396.7c0,6.3-5.1,11.4-11.4,11.4H153.1c-6.3,0-11.4-5.1-11.4-11.4V122.3
		c0-6.3,5.1-11.4,11.4-11.4h57.2v11.4h-51.4c-3.2,0-5.7,2.6-5.7,5.7V391c0,3.2,2.6,5.7,5.7,5.7h194.3c3.2,0,5.7-2.6,5.7-5.7V128.1
		c0-3.2-2.6-5.7-5.7-5.7h-51.4v-11.4h57.2c6.3,0,11.4,5.1,11.4,11.4V396.7z"/>
	<path d="M244.6,99.5h22.9v11.4h-22.9V99.5z"/>
	<path d="M233.1,168.1h11.4v11.4h-11.4V168.1z"/>
	<path d="M256,168.1h11.4v11.4H256V168.1z"/>
	<path d="M278.9,168.1h11.4v11.4h-11.4V168.1z"/>
	<path d="M301.7,168.1h11.4v11.4h-11.4V168.1z"/>
	<path d="M233.1,225.2h11.4v11.4h-11.4V225.2z"/>
	<path d="M256,225.2h11.4v11.4H256V225.2z"/>
	<path d="M278.9,225.2h11.4v11.4h-11.4V225.2z"/>
	<path d="M301.7,225.2h11.4v11.4h-11.4V225.2z"/>
	<path d="M233.1,282.4h11.4v11.4h-11.4V282.4z"/>
	<path d="M256,282.4h11.4v11.4H256V282.4z"/>
	<path d="M278.9,282.4h11.4v11.4h-11.4V282.4z"/>
	<path d="M301.7,282.4h11.4v11.4h-11.4V282.4z"/>
	<path d="M233.1,339.5h11.4V351h-11.4V339.5z"/>
	<path d="M256,339.5h11.4V351H256V339.5z"/>
	<path d="M278.9,339.5h11.4V351h-11.4V339.5z"/>
	<path d="M301.7,339.5h11.4V351h-11.4V339.5z"/>
	<path d="M192.7,291l-6.9-6.9l-8.1,8.1l11.4,11.4c1.1,1.1,2.5,1.7,4,1.7h0.3c1.6-0.1,3.1-0.9,4.1-2.1l22.9-28.6l-8.9-7.1L192.7,291z
		"/>
</g>
</svg>
