<?xml version="1.0" encoding="utf-8"?>
<!-- Generator: Adobe Illustrator 24.2.0, SVG Export Plug-In . SVG Version: 6.00 Build 0)  -->
<svg version="1.1" id="Layer_1" xmlns="http://www.w3.org/2000/svg" xmlns:xlink="http://www.w3.org/1999/xlink" x="0px" y="0px"
	 viewBox="0 0 512 512" style="enable-background:new 0 0 512 512;" xml:space="preserve">
<style type="text/css">
	.st0{fill:#FFFFFF;}
</style>
<g>
	<path class="st0" d="M125.8,294.7h8.9v8.9h-8.9V294.7z"/>
	<path class="st0" d="M103.6,312.5h8.9v8.9h-8.9V312.5z"/>
	<path class="st0" d="M121.4,183.4h53.4v8.9h-53.4V183.4z"/>
	<path class="st0" d="M103.6,183.4h8.9v8.9h-8.9V183.4z"/>
	<path class="st0" d="M130.3,201.2h8.9v8.9h-8.9V201.2z"/>
	<path class="st0" d="M342.3,246.6c12.7,16.5,19.4,36.2,19.4,57c0,51.5-41.9,93.5-93.5,93.5c-46.5,0-86.3-34.7-92.6-80.7
		c-0.3-2.2-2.2-3.9-4.4-3.9h-49.9v8.9h46.1c8.5,48.5,51.2,84.6,100.8,84.6c56.5,0,102.4-45.9,102.4-102.4c0-22.8-7.4-44.4-21.3-62.5
		L342.3,246.6z"/>
	<path class="st0" d="M188.1,303.6c0,44.2,35.9,80.1,80.1,80.1s80.1-35.9,80.1-80.1c0-33.1-20.2-61.6-49-73.8l16.5-16.5
		c0.8-0.8,1.3-2,1.3-3.1v-66.8h0c0-0.6-0.1-1.2-0.3-1.7c-0.7-1.7-2.3-2.7-4.1-2.7h-89c-1.2,0-2.3,0.5-3.1,1.3L202.8,158
		c-0.8,0.8-1.3,1.9-1.3,3.2v40.1h-53.4v8.9h53.4V226c-20.2,17.4-32.9,42.1-35.2,68.7h-22.6v8.9h26.8c2.4,0,4.3-1.9,4.4-4.3
		c1.2-25.9,13.1-50.2,32.9-67h24C205.9,245.7,188.1,272.6,188.1,303.6L188.1,303.6z M299.4,217.2V163l8.9-8.9v54.2L299.4,217.2z
		 M293.1,156.7h-31.9l8.9-8.9H302L293.1,156.7z M225.6,147.8h31.9l-8.9,8.9h-31.9L225.6,147.8z M210.4,223.5v-57.9H246v22.3h8.9
		v-22.3h35.6v57.9H210.4z M228.9,244.3l8.8,15.2l7.7-4.5l-8.8-15.2c8.3-4.1,17.5-6.7,27.2-7.3v17.6h8.9v-17.6
		c9.7,0.6,18.9,3.2,27.2,7.3l-8.8,15.2l7.7,4.5l8.8-15.3c7.9,5.3,14.7,12,19.9,19.9l-15.3,8.8l4.5,7.7l15.2-8.8
		c4.1,8.3,6.7,17.5,7.3,27.2h-17.6v8.9h17.6c-0.6,9.7-3.2,18.9-7.3,27.2l-15.2-8.8l-4.5,7.7l15.3,8.8c-5.3,7.9-12,14.7-19.9,19.9
		l-8.8-15.3l-7.7,4.5l8.8,15.2c-8.3,4.1-17.5,6.7-27.2,7.3V357h-8.9v17.6c-9.7-0.6-18.9-3.2-27.2-7.3l8.8-15.2l-7.7-4.5l-8.8,15.2
		c-7.9-5.3-14.7-12-19.9-19.9l15.3-8.8l-4.5-7.7l-15.2,8.8c-4.1-8.3-6.7-17.5-7.3-27.2h17.6v-8.9h-17.6c0.6-9.7,3.2-18.9,7.3-27.2
		l15.2,8.8l4.5-7.7l-15.3-8.8C214.2,256.3,221,249.6,228.9,244.3L228.9,244.3z"/>
	<path class="st0" d="M268.3,321.4c9.8,0,17.8-8,17.8-17.8c0-3.3-1-6.3-2.5-9l19-19l-6.3-6.3l-19,19c-2.7-1.6-5.7-2.5-9-2.5
		c-9.8,0-17.8,8-17.8,17.8S258.4,321.4,268.3,321.4z M268.3,294.7c4.9,0,8.9,4,8.9,8.9s-4,8.9-8.9,8.9s-8.9-4-8.9-8.9
		S263.4,294.7,268.3,294.7z"/>
	<path class="st0" d="M327.4,231.1l6.3-6.3l8.9,8.9l-6.3,6.3L327.4,231.1z"/>
</g>
</svg>
