<?xml version="1.0" encoding="utf-8"?>
<!-- Generator: Adobe Illustrator 24.2.0, SVG Export Plug-In . SVG Version: 6.00 Build 0)  -->
<svg version="1.1" id="Layer_1" xmlns="http://www.w3.org/2000/svg" xmlns:xlink="http://www.w3.org/1999/xlink" x="0px" y="0px"
	 viewBox="0 0 512 512" style="enable-background:new 0 0 512 512;" xml:space="preserve">
<path d="M118.3,287.2h10v10h-10V287.2z"/>
<path d="M93.5,307.1h10v10h-10V307.1z"/>
<path d="M113.4,162.8h59.7v10h-59.7V162.8z"/>
<path d="M93.5,162.8h10v10h-10V162.8z"/>
<path d="M123.3,182.7h10v10h-10V182.7z"/>
<path d="M360.3,233.4c14.2,18.4,21.7,40.5,21.7,63.7c0,57.6-46.9,104.5-104.5,104.5c-52,0-96.5-38.8-103.5-90.2
	c-0.3-2.5-2.4-4.3-4.9-4.3h-55.7v10h51.5c9.5,54.2,57.2,94.5,112.7,94.5c63.1,0,114.4-51.3,114.4-114.4c0-25.5-8.2-49.7-23.8-69.8
	L360.3,233.4z"/>
<path d="M188,297.1c0,49.4,40.2,89.6,89.6,89.6s89.6-40.2,89.6-89.6c0-37-22.6-68.9-54.7-82.5l18.5-18.5c0.9-0.9,1.5-2.2,1.5-3.5
	V118h0c0-0.6-0.1-1.3-0.3-1.9c-0.8-1.9-2.6-3.1-4.6-3.1h-99.5c-1.3,0-2.6,0.5-3.5,1.5l-19.9,19.9c-0.9,0.9-1.5,2.1-1.5,3.5v44.8
	h-59.7v10h59.7v17.8c-22.6,19.5-36.8,47.1-39.4,76.8h-25.3v10h30c2.7,0,4.9-2.1,5-4.8c1.3-28.9,14.7-56.1,36.8-74.9h26.8
	C207.8,232.4,188,262.5,188,297.1L188,297.1z M312.4,200.5V140l10-10v60.6L312.4,200.5z M305.4,132.9h-35.7l10-10h35.7L305.4,132.9z
	 M229.9,123h35.7l-10,10h-35.7L229.9,123z M212.9,207.6v-64.7h39.8v24.9h10v-24.9h39.8v64.7H212.9z M233.5,230.9l9.8,17l8.6-5
	l-9.8-17c9.3-4.6,19.5-7.5,30.4-8.1v19.7h10v-19.6c10.9,0.7,21.1,3.5,30.4,8.1l-9.8,17l8.6,5l9.8-17c8.8,5.9,16.4,13.4,22.3,22.3
	l-17.1,9.8l5,8.6l17-9.8c4.6,9.3,7.5,19.5,8.1,30.4h-19.6v10h19.6c-0.7,10.9-3.5,21.1-8.1,30.4l-17-9.8l-5,8.6l17.1,9.8
	c-5.9,8.8-13.4,16.4-22.3,22.3l-9.8-17l-8.6,5l9.8,17c-9.3,4.6-19.5,7.5-30.4,8.1v-19.6h-10v19.6c-10.9-0.7-21.1-3.5-30.4-8.1
	l9.8-17l-8.6-5l-9.8,17c-8.8-5.9-16.4-13.4-22.3-22.3l17.1-9.8l-5-8.6l-17,9.8c-4.6-9.3-7.5-19.5-8.1-30.4h19.6v-10h-19.6
	c0.7-10.9,3.5-21.1,8.1-30.4l17,9.8l5-8.6l-17.1-9.8C217.2,244.3,224.7,236.7,233.5,230.9L233.5,230.9z"/>
<path d="M277.6,317c11,0,19.9-8.9,19.9-19.9c0-3.7-1.1-7.1-2.8-10l21.3-21.3l-7-7l-21.3,21.3c-3-1.8-6.4-2.8-10.1-2.8
	c-11,0-19.9,8.9-19.9,19.9S266.6,317,277.6,317z M277.6,287.2c5.5,0,10,4.5,10,10s-4.5,10-10,10s-10-4.5-10-10
	S272.1,287.2,277.6,287.2z"/>
<path d="M343.7,216.1l7-7l9.9,9.9l-7,7L343.7,216.1z"/>
</svg>
