<?xml version="1.0" encoding="utf-8"?>
<!-- Generator: Adobe Illustrator 24.2.1, SVG Export Plug-In . SVG Version: 6.00 Build 0)  -->
<svg version="1.1" id="Capa_1" xmlns="http://www.w3.org/2000/svg" xmlns:xlink="http://www.w3.org/1999/xlink" x="0px" y="0px"
	 viewBox="0 0 512 512" style="enable-background:new 0 0 512 512;" xml:space="preserve">
<style type="text/css">
	.st0{fill-rule:evenodd;clip-rule:evenodd;fill:#EAB000;}
	.st1{fill-rule:evenodd;clip-rule:evenodd;fill:#FFCC00;}
	.st2{fill-rule:evenodd;clip-rule:evenodd;fill:#FFDF56;}
	.st3{fill-rule:evenodd;clip-rule:evenodd;fill:#303030;}
</style>
<g>
	<path class="st0" d="M464,309.9v17.9c0,10.7-3.6,19.3-8.1,19.3h-25.4c-4.5,0-8.1-8.6-8.1-19.3v-17.9c0-10.7,3.6-19.3,8.1-19.3h25.4
		C460.3,290.6,464,299.2,464,309.9"/>
	<path class="st0" d="M464,381.6v68.6c0,8.6-6.2,15.6-13.9,15.6h-13.9c-7.7,0-13.9-7-13.9-15.6v-68.6c0-7.5,5.4-13.6,12.1-13.6h17.5
		C458.6,368,464,374.1,464,381.6"/>
	<path class="st0" d="M398.6,81.5h-48.2c-8.2,0-14.8-6.6-14.8-14.8V15.3c4.2,2,8.1,4.9,11.4,8.4l20.6,22l23.6,24.7
		C394.3,73.6,396.8,77.4,398.6,81.5"/>
	<path class="st0" d="M225.1,477.7c0,5.2-2.1,9.9-5.5,13.3c-3.4,3.4-8.1,5.5-13.3,5.5H90.8c-10.4,0-18.8-8.5-18.8-18.8
		c0-5.2,2.1-9.9,5.5-13.3c3.4-3.4,8.1-5.5,13.3-5.5h115.4C216.6,458.8,225.1,467.3,225.1,477.7"/>
	<path class="st0" d="M225.1,440c0,5.2-2.1,9.9-5.5,13.3c-3.4,3.4-8.1,5.5-13.3,5.5H90.8c-10.4,0-18.8-8.5-18.8-18.8
		c0-5.2,2.1-9.9,5.5-13.3c3.4-3.4,8.1-5.5,13.3-5.5h115.4C216.6,421.2,225.1,429.6,225.1,440"/>
	<path class="st1" d="M225.1,402.3c0,5.2-2.1,9.9-5.5,13.3c-3.4,3.4-8.1,5.5-13.3,5.5H90.8c-10.4,0-18.8-8.5-18.8-18.8
		c0-5.2,2.1-9.9,5.5-13.3c3.4-3.4,8.1-5.5,13.3-5.5h115.4C216.6,383.5,225.1,392,225.1,402.3"/>
	<path class="st1" d="M225.1,364.6c0,5.2-2.1,9.9-5.5,13.3c-3.4,3.4-8.1,5.5-13.3,5.5H90.8c-10.4,0-18.8-8.5-18.8-18.8
		c0-3.7,1.1-7.1,2.9-10.1c0.7-1.2,1.6-2.3,2.6-3.2c3.4-3.4,8.1-5.5,13.3-5.5h115.4C216.6,345.8,225.1,354.3,225.1,364.6"/>
	<path class="st2" d="M206.3,345.8H90.8c-10.4,0-18.8-8.5-18.8-18.8c0-10.4,8.5-18.8,18.8-18.8h115.4c10.4,0,18.8,8.5,18.8,18.8
		C225.1,337.3,216.6,345.8,206.3,345.8"/>
	<path class="st0" d="M158.8,434.7c-1.2-28.1-21.1-51-47.3-57.1c-5.3-1.2-10.9-1.8-16.6-1.6h-24c-54.5,2.4-79.8,70.2-38.1,107.2
		c11.5,10.2,26.8,16.2,43.4,15.5h18.8v0c1.7,0.1,3.4,0.1,5.2,0c3.9-0.2,7.7-0.7,11.4-1.6c26.6-6.2,46.3-29.7,47.3-57.5v-0.1
		C158.9,437.9,158.9,436.3,158.8,434.7"/>
	<path class="st1" d="M158.8,439.5L158.8,439.5c-1,27.9-20.7,51.4-47.3,57.6c-26.1-6.1-46-29-47.3-57.1c0-0.1,0-0.3,0-0.4v-0.1
		c-1-29.8,19.3-55.4,47.3-61.9c26.1,6.1,46.1,29,47.3,57.1C158.9,436.3,158.9,437.9,158.8,439.5"/>
	<path class="st3" d="M493.1,446.7c0,25.9-21.1,46.9-46.9,46.9H304.9c-25.9,0-46.9-21.1-46.9-46.9V230.4c0-25.9,21.1-46.9,46.9-46.9
		h141.3c25.9,0,46.9,21.1,46.9,46.9V446.7z M243.1,425.5h-14.3c-1-1.6-2.2-3-3.5-4.3c10.4-10.5,10.4-27.2,0-37.7
		c4.8-4.8,7.8-11.5,7.8-18.8c0-7.3-3-14-7.8-18.8c16.7-16.8,4.8-45.6-19-45.6h-89.8V49.9c0-16.8,13.7-30.5,30.5-30.5h180.6v62.1
		c0,4.4,3.6,7.9,7.9,7.9h57.4c1.7,6.4,0.6,4.3,0.9,79.1h-89c-34.1,0-61.8,27.7-61.8,61.8V425.5z M217.1,441.3
		c-0.7,5.4-5.3,9.6-10.8,9.6h-41.5c1.4-6.9,1.8-14.3,1-21.8h40.5C213,429.1,217.9,435.1,217.1,441.3z M206.3,488.6h-64
		c7.1-6,12.9-13.4,17-21.8h47c6,0,10.9,4.9,10.9,10.9C217.2,483.7,212.3,488.6,206.3,488.6z M100.9,489.6
		c-29,1.3-53.6-21.2-54.8-50.3c-2-46.3,53.3-73,88.2-41C168.6,429.8,147.7,487.7,100.9,489.6z M33.3,473.2c4.9,0,7.7,0,8.4,0
		c3,4.7,6.5,9,10.7,12.9C45.1,483.2,38.7,478.9,33.3,473.2z M23.4,458.3c-1.8-4-3-8.2-3.7-12.6h12.1c2.2,12.3,2.3,10.2,2.8,12.6
		H23.4z M22.1,419h11.6c-0.3,1.1-1.6,5.4-2.2,11.9H19.3C19.7,426.8,20.7,422.8,22.1,419z M52.3,388.1c-4.8,4.6-9.1,10-12.5,16h-9.2
		C36.6,396.6,44.1,391.3,52.3,388.1z M217.2,402.3c0,6-4.9,10.9-10.9,10.9h-44.4c-3-8-7.6-15.4-13.5-21.8h57.9
		C212.3,391.4,217.2,396.3,217.2,402.3z M90.8,353.7h115.4c6,0,10.9,4.9,10.9,10.9c0,6-4.9,10.9-10.9,10.9h-79.7
		c-3.2-1.5-6.6-2.7-10-3.6c-5.1-1.4-10.5-2.2-15.9-2.3c-1.6,0-3.1,0-4.7,0H81.2c-0.8-1.5-1.2-3.2-1.2-5
		C79.9,358.6,84.8,353.7,90.8,353.7z M90.8,316h115.4c6,0,10.9,4.9,10.9,10.9c0,6-4.9,10.9-10.9,10.9l-115.4,0
		c-6,0-10.9-4.9-10.9-10.9C79.9,320.9,84.8,316,90.8,316z M343.5,31.6c31.2,32.9,38.2,40.4,39.5,41.8c0,0,0,0,0,0c0,0,0,0,0,0
		c0,0,0,0,0,0l0,0c0,0,0,0.1,0.1,0.1c0,0,0,0,0,0c0,0,0,0,0,0c0,0,0,0,0,0c0,0,0,0,0,0h-39.8V31.6z M446.1,168.6h-36.4V96.9
		c0-12.3-4.9-23.7-12.9-32.1l-23.5-24.6c-20-20.6-22.5-26.4-34.4-32.1c-5.5-2.8-12.8-4.6-20.1-4.6H147c-25.6,0-46.4,20.8-46.4,46.4
		v250.3h-9.8c-14.8,0-26.8,12-26.8,26.8c0,7.3,3,14,7.8,18.8c-4.8,4.8-7.8,11.5-7.8,18.8c0,2.8,0.4,4.4,0.5,5.3
		c-58.1,5.9-81.2,77.8-38.7,116.9c12.8,11.8,29.9,18.5,48.4,17.7c6.1,0,131.9-0.1,132-0.1c14.8,0,26.8-12,26.8-26.8
		c0-7.3-3-14-7.8-18.8c4.5-4.6,7.4-10.7,7.7-17.5h10v5.4c0,34.1,27.7,61.8,61.8,61.8h141.3c34.1,0,61.8-27.7,61.8-61.8V230.4
		C508,196.3,480.2,168.6,446.1,168.6z"/>
	<path class="st3" d="M332.4,262.6h-27c-5.6,0-10.1-4.5-10.1-10.1v-27.2c0-5.6,4.5-10.1,10.1-10.1h140.2c5.6,0,10.1,4.5,10.1,10.1
		v27.2c0,5.6-4.5,10.1-10.1,10.1h-81.2c-4.1,0-7.4,3.3-7.4,7.4c0,4.1,3.3,7.4,7.4,7.4h81.2c13.8,0,25-11.2,25-25v-27.2
		c0-13.8-11.2-25-25-25H305.4c-13.8,0-25,11.2-25,25v27.2c0,13.8,11.2,25,25,25l27,0c4.1,0,7.4-3.3,7.4-7.4
		C339.8,265.9,336.5,262.6,332.4,262.6"/>
	<path class="st3" d="M295.3,372.6c0-0.4,0.3-0.7,0.7-0.7h25.4c0.4,0,0.7,0.3,0.7,0.7V398c0,0.4-0.3,0.7-0.7,0.7H296
		c-0.4,0-0.7-0.3-0.7-0.7V372.6z M296,413.6h25.4c8.6,0,15.6-7,15.6-15.6v-25.4c0-8.6-7-15.6-15.6-15.6H296c-8.6,0-15.6,7-15.6,15.6
		V398C280.4,406.6,287.4,413.6,296,413.6z"/>
	<path class="st3" d="M456.5,331.6c0,0.4-0.3,0.7-0.7,0.7h-25.4c-0.4,0-0.7-0.3-0.7-0.7c0.3-25.1-0.6-26.1,0.7-26.1h25.4
		c0.4,0,0.7,0.3,0.7,0.7V331.6z M455.8,290.6h-25.4c-8.6,0-15.6,7-15.6,15.6v25.4c0,8.6,7,15.6,15.6,15.6h25.4
		c8.6,0,15.6-7,15.6-15.6v-25.4C471.4,297.6,464.4,290.6,455.8,290.6z"/>
	<path class="st3" d="M295.3,306.2c0-0.4,0.3-0.7,0.7-0.7h25.4c0.4,0,0.7,0.3,0.7,0.7v25.4c0,0.4-0.3,0.7-0.7,0.7H296
		c-0.4,0-0.7-0.3-0.7-0.7V306.2z M296,347.1h25.4c8.6,0,15.6-7,15.6-15.6v-25.4c0-8.6-7-15.6-15.6-15.6H296c-8.6,0-15.6,7-15.6,15.6
		v25.4C280.4,340.2,287.4,347.1,296,347.1z"/>
	<path class="st3" d="M321.4,461.9c-25.1-0.3-26.1,0.6-26.1-0.7c0-26.9-0.3-26.1,0.7-26.1h25.4c1.2,0,0.5,1.7,0.7,6.2
		C322.1,441.3,322.7,461.9,321.4,461.9 M333.1,425.5c-2.9-3.2-7-5.2-11.7-5.2H296c-4.6,0-8.8,2-11.6,5.3c-5.4,6.1-3.6,12.7-3.9,15.9
		v19.9c0,8.6,7,15.6,15.6,15.6h25.4c8.6,0,15.6-7,15.6-15.6v-19.9C336.6,438.2,338.4,431.5,333.1,425.5z"/>
	<path class="st3" d="M456.5,455.4c0,3.6-2.9,6.4-6.4,6.4h-13.9c-3.5,0-6.4-2.9-6.4-6.4v-78.9c0-2.6,2.1-4.6,4.6-4.6h17.5
		c2.6,0,4.6,2.1,4.6,4.6V455.4z M451.9,357h-17.5c-10.8,0-19.5,8.8-19.5,19.5v78.9c0,11.8,9.6,21.3,21.3,21.3h13.9
		c11.8,0,21.3-9.6,21.3-21.3v-78.9C471.4,365.8,462.7,357,451.9,357z"/>
	<path class="st3" d="M388.2,461.9c-25.1-0.3-26.1,0.6-26.1-0.7v-25.4c0-0.4,0.3-0.7,0.7-0.7h25.4c0.4,0,0.7,0.3,0.7,0.7
		C388.6,460.9,389.5,461.9,388.2,461.9 M388.2,420.2h-25.4c-4.6,0-8.8,2-11.6,5.3c-5.4,6.1-3.6,12.7-3.9,15.9v19.9
		c0,8.6,7,15.6,15.6,15.6h25.4c8.6,0,15.6-7,15.6-15.6v-25.4c0-4.4-1.8-8.4-4.8-11.2C396.2,421.9,392.4,420.2,388.2,420.2z"/>
	<path class="st3" d="M388.9,331.6c0,0.4-0.3,0.7-0.7,0.7h-25.4c-0.4,0-0.7-0.3-0.7-0.7v-25.4c0-1.3,0.9-0.4,26.1-0.7
		c0.4,0,0.7,0.3,0.7,0.7V331.6z M388.2,290.6h-25.4c-8.6,0-15.6,7-15.6,15.6v25.4c0,8.6,7,15.6,15.6,15.6h25.4c2,0,3.9-0.4,5.7-1.1
		c5.8-2.3,9.9-7.9,9.9-14.5v-25.4C403.8,297.5,396.8,290.6,388.2,290.6z"/>
	<path class="st3" d="M388.9,398c0,0.4-0.3,0.7-0.7,0.7h-25.4c-0.4,0-0.7-0.3-0.7-0.7v-25.4c0-0.4,0.3-0.7,0.7-0.7h25.4
		c0.4,0,0.7,0.3,0.7,0.7V398z M393.9,358.1c-1.8-0.7-3.7-1.1-5.7-1.1h-25.4c-8.6,0-15.6,7-15.6,15.6V398c0,8.6,7,15.6,15.6,15.6
		h25.4c8.6,0,15.6-7,15.6-15.6v-25.4C403.8,366,399.7,360.4,393.9,358.1z"/>
	<path class="st3" d="M326.6,120h18.7c4.1,0,7.4-3.3,7.4-7.4c0-4.1-3.3-7.4-7.4-7.4h-18.7c-4.1,0-7.4,3.3-7.4,7.4
		C319.2,116.7,322.5,120,326.6,120"/>
	<path class="st3" d="M165,120h131.9c4.1,0,7.4-3.3,7.4-7.4c0-4.1-3.3-7.4-7.4-7.4H165c-4.1,0-7.4,3.3-7.4,7.4
		C157.5,116.7,160.9,120,165,120"/>
	<path class="st3" d="M188.6,156.9c4.1,0,7.4-3.3,7.4-7.4c0-4.1-3.3-7.4-7.4-7.4H165c-4.1,0-7.4,3.3-7.4,7.4c0,4.1,3.3,7.4,7.4,7.4
		H188.6z"/>
	<path class="st3" d="M352.7,149.5c0-4.1-3.3-7.4-7.4-7.4H218.4c-4.1,0-7.4,3.3-7.4,7.4c0,4.1,3.3,7.4,7.4,7.4h126.9
		C349.4,156.9,352.7,153.6,352.7,149.5"/>
	<path class="st3" d="M163.4,182.2c-0.4,0.7-1,1.5-1.4,2.2c-0.6,0.9-4.3,6.2-4.4,6.7c1.1-0.3,2.6-0.1,3.9-0.1c0.8,0,1.1-0.1,1.8-0.1
		l10,0.4c2.5,0.3,4.9,0.6,7.1,1.3c2.3,0.7,4.6,1.7,6.2,3.1c2.1,1.8,2,2.3,3.3,4.1c-4.5,0-8.7-0.1-13.2-0.1c-1.2,0-2.1-0.1-3.2-0.1
		l-10-0.1c-0.1,0.5-1,1.8-1.3,2.3l-2.7,4.6c-0.3,0.4-0.4,0.7-0.7,1.1c-0.2,0.4-0.5,0.7-0.6,1.2c11.2,0,21.9,0.1,33.1,0.1
		c-0.7,2.8-1.2,4.7-2.5,6.9c-1.2,2-2.6,3.6-4.5,4.8c-5.4,3.7-11.9,3.8-18.4,3.8l-3.9-0.1c-0.5,0-0.6-0.1-1.3-0.1l-0.1,7.6
		c-0.1,0.9-0.2,0.5,0.7,1.8c0.7,1,1.5,1.9,2.3,2.9l11.5,14.5c0.4,0.5,0.7,0.9,1.1,1.4c0.4,0.5,0.8,1,1.2,1.5l13.8,17.3
		c0.5,0.7,2,2.4,2.3,3h14.7c-0.1-0.5-17.2-22.3-20.6-26.6l-6.9-8.9c-1.2-1.5-2.2-2.9-3.4-4.4c-0.6-0.8-1.1-1.4-1.7-2.2
		c-0.6-0.7-0.4-0.6,0.5-0.7c5.8-0.7,13.9-3.3,18.6-7.2c0.4-0.3,0.7-0.6,1.1-0.9l1.5-1.4c1.3-1.4,2-2,3.1-3.9c1.5-2.5,2.2-4.2,2.9-7
		c0.1-0.5,0.2-1.2,0.3-1.8l8-0.1c1.1,0,1.6-0.1,2.6-0.1c1-1.4,1.8-2.8,2.8-4.3c0.5-0.8,2.6-4,2.7-4.4l-11.3,0.1
		c-1.3,0-2.3,0.1-3.7,0.1c-2.3,0,0.1,0.2-2.7-4.9c-1.4-2.6-2.7-3.5-3.3-4.4h15.4c0.2-0.4,0.4-0.7,0.7-1.1l2.1-3.3
		c0.5-0.7,0.9-1.4,1.4-2.2c0.3-0.5,1.3-1.8,1.4-2.3c-9.4,0-18.8,0-28.1,0C182,182.1,172.9,182.2,163.4,182.2"/>
	<path class="st3" d="M86.3,413c-0.2,0.4-0.5,0.8-0.8,1.2c-0.3,0.5-2.3,3.3-2.3,3.6c0.6-0.1,1.4-0.1,2.1-0.1c0.4,0,0.6-0.1,1-0.1
		l5.3,0.2c1.3,0.1,2.6,0.3,3.8,0.7c1.2,0.4,2.4,0.9,3.3,1.6c1.1,1,1.1,1.2,1.7,2.2c-2.4,0-4.6-0.1-7-0.1c-0.6,0-1.1-0.1-1.7-0.1
		l-5.3-0.1c-0.1,0.2-0.5,0.9-0.7,1.2l-1.4,2.4c-0.1,0.2-0.2,0.4-0.4,0.6c-0.1,0.2-0.3,0.4-0.3,0.7c5.9,0,11.7,0.1,17.6,0.1
		c-0.3,1.5-0.6,2.5-1.3,3.6c-0.6,1.1-1.4,1.9-2.4,2.6c-2.9,2-6.3,2-9.8,2l-2.1-0.1c-0.2,0-0.3-0.1-0.7-0.1l-0.1,4
		c-0.1,0.5-0.1,0.3,0.4,0.9c0.4,0.5,0.8,1,1.2,1.5l6.1,7.7c0.2,0.3,0.4,0.5,0.6,0.8c0.2,0.3,0.4,0.5,0.6,0.8l7.3,9.2
		c0.3,0.4,1,1.2,1.2,1.6h7.8c-0.1-0.3-9.2-11.8-11-14.1l-3.7-4.7c-0.6-0.8-1.2-1.6-1.8-2.3c-0.3-0.4-0.6-0.8-0.9-1.2
		c-0.3-0.4-0.2-0.3,0.3-0.4c3.1-0.4,7.4-1.8,9.9-3.8c0.2-0.2,0.4-0.3,0.6-0.5l0.8-0.8c0.7-0.7,1.1-1.1,1.7-2.1
		c0.8-1.3,1.2-2.2,1.5-3.7c0.1-0.3,0.1-0.6,0.2-0.9l4.3-0.1c0.6,0,0.9-0.1,1.4-0.1c0.5-0.8,1-1.5,1.5-2.3c0.3-0.4,1.4-2.1,1.4-2.3
		l-6,0.1c-0.7,0-1.2,0.1-2,0.1c-1.2,0,0,0.1-1.4-2.6c-0.8-1.4-1.4-1.9-1.8-2.3h8.2c0.1-0.2,0.2-0.3,0.4-0.6l1.1-1.8
		c0.2-0.4,0.5-0.8,0.7-1.2c0.2-0.3,0.7-1,0.7-1.2c-5,0-10,0-15,0C96.2,412.9,91.3,413,86.3,413"/>
</g>
</svg>
