<?xml version="1.0" encoding="utf-8"?>
<!-- Generator: Adobe Illustrator 24.2.1, SVG Export Plug-In . SVG Version: 6.00 Build 0)  -->
<svg version="1.1" id="Capa_1" xmlns="http://www.w3.org/2000/svg" xmlns:xlink="http://www.w3.org/1999/xlink" x="0px" y="0px"
	 viewBox="0 0 512 512" style="enable-background:new 0 0 512 512;" xml:space="preserve">
<style type="text/css">
	.st0{fill-rule:evenodd;clip-rule:evenodd;fill:#EAB000;}
	.st1{fill-rule:evenodd;clip-rule:evenodd;fill:#FFCC00;}
	.st2{fill-rule:evenodd;clip-rule:evenodd;fill:#303030;}
</style>
<g>
	<path class="st0" d="M114.7,84H81.6c-3.3,0-6,2.7-6,6v29.7h39.1l2.6-2.7v-31L114.7,84z"/>
	<path class="st1" d="M277.4,316.9v-73.1c0-1.2-1-2.2-2.2-2.2H251c-1.2,0-2.2,1-2.2,2.2v73.1H277.4z"/>
	<path class="st1" d="M334.5,316.9v-99.6c0-1.2-1-2.1-2.2-2.1h-24.2c-1.2,0-2.2,1-2.2,2.1v99.6H334.5z"/>
	<path class="st1" d="M391.5,316.9V190.9c0-1.2-1-2.2-2.2-2.2h-24.2c-1.2,0-2.2,1-2.2,2.2v126.1H391.5z"/>
	<path class="st0" d="M263.1,241.7h-12.6c-0.9,0-1.7,1-1.7,2.1v73.1h12.6v-73.1C261.5,242.6,262.2,241.7,263.1,241.7"/>
	<path class="st0" d="M324.1,215.2h-16c-1.2,0-2.1,1-2.1,2.1v99.6h16v-99.6C322,216.1,322.9,215.2,324.1,215.2z"/>
	<path class="st0" d="M379.2,188.7h-14.3c-1.1,0-1.9,1-1.9,2.2v126.1h14.3V190.9C377.3,189.7,378.2,188.7,379.2,188.7"/>
	<path class="st2" d="M82.2,88.6h24.7v24.1H82.2V88.6z M429.8,129v236.2H82.2V129H429.8z M121.3,88.6h308.5v24.1H121.3V88.6z
		 M81,381.6h350c7.3,0,13.2-6.7,13.2-15c0-8.6,0-265.5,0-279.4c0-8.3-5.9-15-13.2-15c-4.4,0-343.1,0-350,0c-7.3,0-13.2,6.7-13.2,15
		c0,18.7,0,271.7,0,279.4C67.8,374.9,73.7,381.6,81,381.6z"/>
	<path class="st2" d="M488,435.8c0,11.9-8.4,21.6-18.8,21.6H42.8c-10.4,0-18.8-9.7-18.8-21.6v-20.3h155v6.6
		c0,11.8,8.4,21.4,18.8,21.4h41.4c4,0,7.2-3.7,7.2-8.2c0-4.5-3.2-8.2-7.2-8.2l-41.4,0c-2.4,0-4.3-2.3-4.3-5v-6.6h125.1v6.6
		c0,2.7-2,5-4.3,5l-41.4,0c-4,0-7.2,3.7-7.2,8.2c0,4.5,3.2,8.2,7.2,8.2l41.4,0c10.4,0,18.8-9.6,18.8-21.4v-6.6h155V435.8z
		 M489.6,399.1h-24.7c5.9-8.1,9.4-18.4,9.4-29.4v-104c0-4.5-3.2-8.2-7.2-8.2c-4,0-7.2,3.7-7.2,8.2v104c0,14.3-9.3,26.8-21.7,29.4
		c-10.7,0-347.9,0-364.6,0c-12.4-2.5-21.7-15.1-21.7-29.4V84.5c0-16.5,11.8-29.8,26.3-29.8h355.2c14.5,0,26.3,13.4,26.3,29.8v143.1
		c0,4.5,3.2,8.2,7.2,8.2c4,0,7.2-3.7,7.2-8.2V84.5c0-25.5-18.3-46.2-40.8-46.2H78.4c-22.5,0-40.8,20.7-40.8,46.2v285.3
		c0,11,3.5,21.3,9.4,29.4H22.4c-7.1,0-12.8,6.5-12.8,14.6v22.1c0,20.9,14.9,37.9,33.2,37.9h426.5c18.3,0,33.2-17,33.2-37.9v-22.1
		C502.5,405.7,496.7,399.1,489.6,399.1z"/>
	<path class="st2" d="M121.3,177.8h68.4v138.8H177v-21c0-5.9-4.2-10.6-9.4-10.6h-24.2c-5.2,0-9.4,4.8-9.4,10.6v21h-12.7V177.8z
		 M162.6,316.5h-14.1v-15.2h14.1V316.5z M107.1,332.9h97c4,0,7.2-3.7,7.2-8.2c0-4.5-3.2-8.2-7.2-8.2h0V176.7c0-8.4-6-15.3-13.5-15.3
		h-70.3c-7.4,0-13.5,6.8-13.5,15.3v139.9c-3.9,0.2-7,3.7-7,8.2C99.9,329.2,103.1,332.9,107.1,332.9z"/>
	<path class="st2" d="M256.1,247.6h14.1v69h-14.1V247.6z M313.2,217.6h14.1v99h-14.1V217.6z M370.3,187.6h14.1v129h-14.1V187.6z
		 M241.7,332.9h157.2c4,0,7.2-3.7,7.2-8.2c0-4.5-3.2-8.2-7.2-8.2h0V181.8c0-5.9-4.2-10.6-9.4-10.6h-24.2c-5.2,0-9.4,4.8-9.4,10.6
		v134.7h-14.1V211.8c0-5.9-4.2-10.6-9.4-10.6h-24.2c-5.2,0-9.4,4.8-9.4,10.6v104.7h-14.1v-74.7c0-5.9-4.2-10.6-9.4-10.6h-24.2
		c-5.2,0-9.4,4.8-9.4,10.6v74.7h0c-4,0-7.2,3.7-7.2,8.2C234.5,329.2,237.7,332.9,241.7,332.9z"/>
	<path class="st2" d="M139.5,269.3h32.1c4,0,7.2-3.2,7.2-7.2c0-4-3.2-7.2-7.2-7.2h-32.1c-4,0-7.2,3.2-7.2,7.2
		C132.2,266,135.5,269.3,139.5,269.3z"/>
	<path class="st2" d="M139.5,242.8h32.1c4,0,7.2-3.2,7.2-7.2c0-4-3.2-7.2-7.2-7.2h-32.1c-4,0-7.2,3.2-7.2,7.2
		C132.2,239.5,135.5,242.8,139.5,242.8z"/>
	<path class="st2" d="M139.5,216.3h32.1c4,0,7.2-3.2,7.2-7.2c0-4-3.2-7.2-7.2-7.2h-32.1c-4,0-7.2,3.2-7.2,7.2
		C132.2,213.1,135.5,216.3,139.5,216.3"/>
</g>
</svg>
