<?xml version="1.0" encoding="utf-8"?>
<!-- Generator: Adobe Illustrator 24.2.1, SVG Export Plug-In . SVG Version: 6.00 Build 0)  -->
<svg version="1.1" id="Capa_1" xmlns="http://www.w3.org/2000/svg" xmlns:xlink="http://www.w3.org/1999/xlink" x="0px" y="0px"
	 viewBox="0 0 512 512" style="enable-background:new 0 0 512 512;" xml:space="preserve">
<style type="text/css">
	.st0{fill-rule:evenodd;clip-rule:evenodd;fill:#303030;}
	.st1{fill-rule:evenodd;clip-rule:evenodd;fill:#FFCC00;}
</style>
<g>
	<path class="st0" d="M149.9,425c0-5.3-4.3-9.7-9.6-9.7c-5.3,0-9.6,4.3-9.6,9.7c0,5.3,4.3,9.6,9.6,9.6
		C145.6,434.6,149.9,430.3,149.9,425"/>
	<path class="st0" d="M83.3,190.3c4.9,0,9.1-3.8,9.6-8.8c0.8-9.3,2.5-18.5,4.9-27.5c1.4-5.1-1.7-10.4-6.8-11.8
		c-5.1-1.4-10.4,1.7-11.8,6.8c-2.7,10-4.5,20.4-5.4,30.7c-0.5,5.3,3.4,10,8.7,10.5C82.7,190.3,83,190.3,83.3,190.3z"/>
	<path class="st0" d="M410.7,144.1c1.4,4,5.1,6.6,9.1,6.6c1,0,2-0.2,3.1-0.5c5-1.7,7.7-7.2,6-12.2c-3.3-9.8-7.5-19.5-12.4-28.6
		c-2.5-4.7-8.4-6.4-13-3.9c-4.7,2.5-6.4,8.4-3.9,13.1C404,126.7,407.7,135.3,410.7,144.1"/>
	<path class="st0" d="M97.3,237c-1.3-5.2-6.6-8.3-11.7-7c-5.1,1.3-8.2,6.6-6.9,11.7c2.6,10.1,6,20,10.3,29.5
		c1.6,3.6,5.1,5.7,8.8,5.7c1.3,0,2.7-0.3,3.9-0.9c4.8-2.2,7-7.9,4.8-12.8C102.7,254.9,99.6,246,97.3,237z"/>
	<path class="st0" d="M264.4,32.6c9.3,0.5,18.5,1.8,27.6,3.8c0.7,0.2,1.4,0.2,2.1,0.2c4.4,0,8.4-3,9.4-7.5
		c1.2-5.2-2.1-10.4-7.2-11.6c-10.1-2.3-20.4-3.7-30.8-4.3c-5.3-0.3-9.8,3.8-10.1,9.1C255,27.7,259.1,32.3,264.4,32.6z"/>
	<path class="st0" d="M179.2,50.2c1.4,0,2.9-0.3,4.3-1c8.3-4.1,17-7.6,25.9-10.2c5.1-1.5,8-6.9,6.5-12c-1.5-5.1-6.9-8-12-6.5
		c-9.9,2.9-19.7,6.8-29,11.4c-4.8,2.4-6.7,8.2-4.3,12.9C172.2,48.3,175.6,50.2,179.2,50.2z"/>
	<path class="st0" d="M428.9,189.6c-0.1,0-0.1,0-0.2,0c-5.2,0-9.5,4.2-9.6,9.5c-0.1,9.3-1.1,18.7-2.8,27.8c-1,5.2,2.4,10.3,7.7,11.3
		c0.6,0.1,1.2,0.2,1.8,0.2c4.5,0,8.6-3.2,9.4-7.9c1.9-10.2,3-20.6,3.1-31C438.4,194.1,434.2,189.7,428.9,189.6"/>
	<path class="st0" d="M378.2,60.5c-7.7-7-16-13.3-24.7-18.9c-4.5-2.9-10.4-1.5-13.3,3c-2.8,4.5-1.5,10.5,3,13.3
		c7.8,5,15.3,10.7,22.2,16.9c1.8,1.7,4.1,2.5,6.5,2.5c2.6,0,5.2-1.1,7.1-3.2C382.4,70.1,382.1,64,378.2,60.5"/>
	<path class="st0" d="M410,275.5c-4.6-2.7-10.5-1.1-13.2,3.4c-4.7,8-10.1,15.7-16.1,22.8c-3.4,4.1-2.9,10.2,1.2,13.6
		c1.8,1.5,4,2.3,6.2,2.3c2.7,0,5.5-1.2,7.4-3.4c6.7-8,12.7-16.5,17.9-25.5C416.1,284.1,414.6,278.2,410,275.5z"/>
	<path class="st0" d="M120.9,103.6c5.3-7.7,11.2-14.9,17.7-21.6c3.7-3.8,3.6-9.9-0.2-13.6c-3.8-3.7-9.9-3.6-13.6,0.2
		c-7.2,7.5-13.9,15.6-19.7,24.1c-3,4.4-1.9,10.4,2.5,13.4c1.7,1.1,3.6,1.7,5.4,1.7C116.1,107.7,119.1,106.3,120.9,103.6z"/>
	<path class="st0" d="M255.7,169.3c-21.2,0-38.5,17.3-38.5,38.6v55.3c-23.5-13.6-38.5-39-38.5-66.8c0-42.6,34.5-77.2,76.9-77.2
		c42.4,0,76.9,34.6,76.9,77.2c0,27.9-15,53.2-38.5,66.8v-55.3C294.1,186.6,276.9,169.3,255.7,169.3 M236.4,280.6v-72.7
		c0-10.6,8.6-19.3,19.2-19.3c10.6,0,19.2,8.7,19.2,19.3v73c39.7-8.3,69.5-42.6,69.5-83.7c0-47.3-39.4-85.6-88-85.6
		c-48.6,0-88,38.3-88,85.6C168.4,237.8,197.5,271.8,236.4,280.6z"/>
	<path class="st1" d="M256.4,111.6c48.6,0,88,38.3,88,85.6c0,40.8-21.7,74.3-60.9,82.9c-3.8,0.8-0.1-52.7-5.6-81
		c-3.5-17.8-24-14.8-26.6-14.8c-2.5,0-19.8,6.4-21.4,22.8c-2.8,28.6,4.9,74,0.8,73.1c-38.9-8.9-62.3-42.6-62.3-83.1
		C168.4,149.9,207.8,111.6,256.4,111.6"/>
	<path class="st0" d="M255.7,169.3c-21.2,0-38.5,17.3-38.5,38.6v55.3c-23.5-13.6-38.5-39-38.5-66.8c0-42.6,34.5-77.2,76.9-77.2
		c42.4,0,76.9,34.6,76.9,77.2c0,27.9-15,53.2-38.5,66.8v-55.3C294.1,186.6,276.9,169.3,255.7,169.3 M351.8,196.3
		c0-53.2-43.1-96.5-96.2-96.5c-53,0-96.2,43.3-96.2,96.5c0,38.5,22.9,73.2,57.7,88.4v4l-86.3,43.3c-17.7,8.9-25.9,30.4-18.5,48.9
		l2.9,7.3c1.5,3.8,5.1,6.1,8.9,6.1c1.2,0,2.4-0.2,3.6-0.7c4.9-2,7.3-7.6,5.4-12.5l-2.9-7.3c-3.7-9.2,0.4-20,9.3-24.4l91.7-46
		c3.3-1.6,5.3-5,5.3-8.6v-86.8c0-10.6,8.6-19.3,19.2-19.3c10.6,0,19.2,8.7,19.2,19.3v173.7c0,5.3,4.3,9.7,9.6,9.7
		c5.3,0,9.6-4.3,9.6-9.7v-46.1l29.3,37.7c4.5,5.8,5.3,13.9,2,20.5l-46.9,94.1H175.6l-10.4-26c-2-4.9-7.6-7.3-12.5-5.4
		c-4.9,2-7.3,7.6-5.4,12.5l12.8,32c1.5,3.7,5,6.1,8.9,6.1h115.4c3.6,0,7-2.1,8.6-5.3l49.6-99.4c6.6-13.2,5-29.3-4.1-41l-44.5-57.2
		v-19.3C328.9,269.6,351.8,234.8,351.8,196.3z"/>
</g>
</svg>
