<?xml version="1.0" encoding="utf-8"?>
<!-- Generator: Adobe Illustrator 24.2.1, SVG Export Plug-In . SVG Version: 6.00 Build 0)  -->
<svg version="1.1" id="Layer_1_1_" xmlns="http://www.w3.org/2000/svg" xmlns:xlink="http://www.w3.org/1999/xlink" x="0px" y="0px"
	 viewBox="0 0 512 512" style="enable-background:new 0 0 512 512;" xml:space="preserve">
<style type="text/css">
	.st0{fill:#50B6CF;}
	.st1{fill:#DED8D0;}
	.st2{fill:#C9C4BD;}
	.st3{fill:#E34E4B;}
	.st4{fill:#F5A947;}
	.st5{fill:#0D0F23;}
	.st6{fill-rule:evenodd;clip-rule:evenodd;fill:#303030;}
	.st7{fill-rule:evenodd;clip-rule:evenodd;fill:#EAB000;}
	.st8{fill-rule:evenodd;clip-rule:evenodd;fill:#808080;}
</style>
<g>
	<path class="st0" d="M-1011.4-630.9h464v48h-464V-630.9z"/>
	<path class="st1" d="M-987.4-582.9h416v352h-416V-582.9z"/>
	<path class="st2" d="M-571.4-454.9c-88.4,89.5-211.2,155.5-416,174.4v49.6h416V-454.9z"/>
	<path class="st0" d="M-1011.4-230.9h464v32h-464V-230.9z"/>
	<circle class="st3" cx="-811.4" cy="-278.9" r="16"/>
	<circle class="st3" cx="-747.4" cy="-334.9" r="16"/>
	<circle class="st3" cx="-683.4" cy="-286.9" r="16"/>
	<circle class="st3" cx="-619.4" cy="-342.9" r="16"/>
	<circle class="st4" cx="-875.4" cy="-470.9" r="48"/>
	<path class="st0" d="M-841.5-504.8c-8.7-8.7-20.7-14.1-33.9-14.1v48L-841.5-504.8z"/>
	<path class="st4" d="M-755.4-454.9h32v48h-32V-454.9z"/>
	<path class="st4" d="M-723.4-502.9h32v96h-32V-502.9z"/>
	<path class="st4" d="M-691.4-478.9h32v72h-32V-478.9z"/>
	<path class="st4" d="M-659.4-542.9h32v136h-32V-542.9z"/>
	<g>
		<path class="st5" d="M-547.4-638.9h-464c-4.4,0-8,3.6-8,8v48c0,4.4,3.6,8,8,8h16v336h-16c-4.4,0-8,3.6-8,8v32c0,4.4,3.6,8,8,8h192
			v8c0,13.2,10.8,24,24,24h32c13.2,0,24-10.8,24-24v-8h192c4.4,0,8-3.6,8-8v-32c0-4.4-3.6-8-8-8h-16v-336h16c4.4,0,8-3.6,8-8v-48
			C-539.4-635.3-543-638.9-547.4-638.9z M-755.4-182.9c0,4.4-3.6,8-8,8h-32c-4.4,0-8-3.6-8-8v-8h48V-182.9z M-555.4-206.9h-448v-16
			h16h416h16V-206.9z M-579.4-238.9h-400v-336h400V-238.9z M-555.4-590.9h-16h-416h-16v-32h448V-590.9z"/>
		<path class="st5" d="M-643.4-342.9c0,3.1,0.6,6.1,1.7,8.8l-30.1,26.3c-3.5-2-7.4-3.2-11.7-3.2c-4.9,0-9.5,1.5-13.3,4l-27.9-20.9
			c0.7-2.3,1.2-4.6,1.2-7.1c0-13.2-10.8-24-24-24c-13.2,0-24,10.8-24,24c0,3.1,0.6,6.1,1.7,8.8l-30.1,26.3c-3.5-2-7.4-3.2-11.7-3.2
			c-10.4,0-19.2,6.7-22.5,16h-65.5v16h65.5c3.3,9.3,12.1,16,22.5,16c13.2,0,24-10.8,24-24c0-3.1-0.6-6.1-1.7-8.8l30.1-26.3
			c3.5,2,7.4,3.2,11.7,3.2c4.9,0,9.5-1.5,13.3-4l27.9,20.9c-0.7,2.3-1.2,4.6-1.2,7.1c0,13.2,10.8,24,24,24c13.2,0,24-10.8,24-24
			c0-3.1-0.6-6.1-1.7-8.8l30.1-26.3c3.5,2,7.4,3.2,11.7,3.2c13.2,0,24-10.8,24-24s-10.8-24-24-24
			C-632.7-366.9-643.4-356.1-643.4-342.9z M-811.4-270.9c-4.4,0-8-3.6-8-8s3.6-8,8-8s8,3.6,8,8S-807-270.9-811.4-270.9z
			 M-747.4-326.9c-4.4,0-8-3.6-8-8s3.6-8,8-8s8,3.6,8,8S-743-326.9-747.4-326.9z M-683.4-278.9c-4.4,0-8-3.6-8-8s3.6-8,8-8
			s8,3.6,8,8S-679-278.9-683.4-278.9z M-611.4-342.9c0,4.4-3.6,8-8,8s-8-3.6-8-8s3.6-8,8-8S-611.4-347.3-611.4-342.9z"/>
		<path class="st5" d="M-875.4-414.9c30.9,0,56-25.1,56-56s-25.1-56-56-56c-30.9,0-56,25.1-56,56S-906.3-414.9-875.4-414.9z
			 M-867.4-510c5.1,1,9.8,3.1,14,5.9l-14,14V-510z M-883.4-510v39.2c0,3.2,1.9,6.2,4.9,7.4c1,0.4,2,0.6,3.1,0.6
			c2.1,0,4.1-0.8,5.7-2.3l27.7-27.7c4.2,6.3,6.7,13.9,6.7,22c0,22.1-17.9,40-40,40c-22.1,0-40-17.9-40-40
			C-915.4-490.2-901.7-506.3-883.4-510L-883.4-510z"/>
		<path class="st5" d="M-875.4-382.9c48.5,0,88-39.5,88-88s-39.5-88-88-88v16c39.7,0,72,32.3,72,72s-32.3,72-72,72
			c-39.7,0-72-32.3-72-72h-16C-963.4-422.3-924-382.9-875.4-382.9z"/>
		<path class="st5" d="M-723.4-398.9h32h32h32h24v-16h-16v-128c0-4.4-3.6-8-8-8h-32c-4.4,0-8,3.6-8,8v56h-16v-16c0-4.4-3.6-8-8-8
			h-32c-4.4,0-8,3.6-8,8v40h-24c-4.4,0-8,3.6-8,8v40h-16v16h24H-723.4z M-651.4-534.9h16v120h-16v-64V-534.9z M-667.4-470.9v56h-16
			v-56H-667.4z M-715.4-494.9h16v16v64h-16v-40V-494.9z M-747.4-446.9h16v32h-16V-446.9z"/>
		<path class="st5" d="M-931.4-286.9h16v16h-16V-286.9z"/>
		<path class="st5" d="M-963.4-286.9h16v16h-16V-286.9z"/>
	</g>
</g>
<g>
	<path class="st6" d="M7.8,17.7v49.6c0,10.8,12.4,8.3,24.8,8.3V423c-29.5,0-24.8-4.7-24.8,41.4c0,5,3.3,8.3,8.3,8.3h198.5V483
		c0,11.4,11.4,22.7,22.8,22.7h37.2c11.4,0,22.7-11.4,22.7-22.7v-10.3h198.5c5,0,8.3-3.3,8.3-8.3v-33.1c0-10.8-12.4-8.3-24.8-8.3
		V75.6c30.7,0,24.8,6.8,24.8-57.9c0-5-3.3-8.3-8.3-8.3H16C11,9.4,7.8,12.7,7.8,17.7 M24.3,26h4.1h459.1v33.1H24.3V26z M49.1,379.2
		l0-303.6h413.6l0,132.8l0,214.6H49.1L49.1,379.2z M24.3,439.5h463.2v16.6H24.3L24.3,439.5z M231.1,479.9v-7.2h49.6
		c0,20.2-2.8,16.5-40.3,16.5C235.3,489.2,231.1,485,231.1,479.9z"/>
	<path class="st6" d="M403.5,257.6l34.4,0V241l-11.7,0l-4.8,0c0-42.7,0.2-85.5,0-128.3c-0.1-13.9-7.3-12.4-19.7-12.4
		c-37.1,0.1-30-7.8-30,66.2h-16.5c0-28.7,2.7-25-37.3-24.9c-13.5,0-12.4,6.6-12.4,18.6c0,10.3,0,20.7,0,31c-11.1,0-31.6-4.1-33,8.3
		c-1.2,10.9-0.1,29.6-0.1,41.4h-16.5l0,16.5L403.5,257.6z M289,207.9h16.5V241H289V207.9z M322.1,158.3h16.5V241h-16.5V158.3z
		 M355.2,183.1h16.5V241h-16.5V183.1z M388.3,116.9h16.5l0,124.1h-16.6L388.3,116.9z"/>
	<path class="st6" d="M311.3,312.4c-3.1-4.8-5.9-8.5-12.1-11.3c-6.3-2.8-13.3-2.9-19.7-0.3c-11.5,4.8-17.3,15.1-14.1,31.3
		c-0.1,3.1-27.1,23.6-29.8,27.8c-8.9-2.6-13.9-5.3-23.7-0.5c-9.1,4.5-10.1,12-14,13.9h-66.2v16.5H198c2.4,0.6,12.1,23,33.5,14.9
		c11.8-4.4,19.2-16.4,14.5-32.2l30.2-27.2c17.3,5.1,12.2,3.3,27.3-0.8c7.9,7,18.6,14.3,27.6,20.9c0.5,11.2-2.4,13.8,4.6,23.3
		c14.2,19.3,52.2,7.3,42.7-24.5l30.2-27.2c7,2,10.8,4.5,19.2,2.3c19.2-5.1,23-27.8,12.3-40.6c-15.2-18.1-50.9-4.8-41.8,25.6
		L368,351.7c-17.1-5-12.3-3.3-27.3,0.9c-7.9-7.1-18.6-14.3-27.6-20.9C312.7,322.1,314.9,322.8,311.3,312.4 M418.5,308.1
		c9.3-4.5,15.8,10.6,6.1,14.9C415.7,326.8,407.2,313.5,418.5,308.1z M286.2,316.3c9.3-4.5,15.8,10.6,6.1,14.9
		C283.3,335.1,274.9,321.7,286.2,316.3z M352.3,366c9.3-4.5,15.8,10.6,6.1,14.9C349.5,384.7,341.1,371.4,352.3,366z M220,374.2
		c9.3-4.5,15.8,10.6,6.1,14.9C217.1,393,208.7,379.6,220,374.2z"/>
	<path class="st6" d="M156.6,108.7c72,2,95.6,84.4,52.7,127.2c-43.1,43.1-125.6,18.8-127.2-52.7l-16.5,0
		c1.6,82.4,98.4,120.8,155.2,64.2c56.5-56.3,18.7-153.1-64.2-155.2V108.7z"/>
	<path class="st6" d="M150.1,125.6c-29.9,3.7-54.8,30.1-50.9,64.3c3.4,29.6,30.6,54.5,64.2,50.6c29.7-3.4,54.7-30.6,50.6-64.5
		C210.6,146.9,183.8,121.5,150.1,125.6"/>
	<path class="st6" d="M164.9,142.7c5.1,0.9,10.9,2.9,14.1,6.1c-2.7,3.7-10.2,11.5-14.1,13.8V142.7z"/>
	<path class="st6" d="M190.9,160.8c9.2,8.8,10.6,33.2-3.1,49.3c-26.4,31.1-77.9,8-72-32.9c2.4-16.9,16-31.7,32.6-34.4
		c0,10.4,0,20.7,0,31.1C148.2,216.3,176.7,171.2,190.9,160.8"/>
	<path class="st7" d="M190.9,160.8c-14.3,10.4-42.7,55.5-42.6,13c0-10.4,0-20.7,0-31.1c-16.6,2.8-30.2,17.5-32.6,34.4
		c-5.9,40.9,45.6,64.1,72,32.9C201.5,194,200.1,169.6,190.9,160.8"/>
	<polygon class="st7" points="388.2,241 404.8,241 404.8,116.9 388.3,116.9 	"/>
	<rect x="322.1" y="158.3" class="st7" width="16.5" height="82.7"/>
	<rect x="355.2" y="183.1" class="st7" width="16.5" height="57.9"/>
	<rect x="289" y="207.9" class="st7" width="16.5" height="33.1"/>
	<polygon class="st6" points="100.8,373.4 98.7,373.3 98.7,389.9 115.3,389.9 115.3,373.4 	"/>
	<polygon class="st6" points="65.7,377.5 65.7,389.9 82.2,389.9 82.2,375.4 82.2,373.4 65.7,373.4 	"/>
	<path class="st8" d="M418.5,308.1c-11.3,5.4-2.8,18.7,6.1,14.9C434.3,318.7,427.8,303.6,418.5,308.1"/>
	<path class="st8" d="M286.2,316.3c-11.2,5.4-2.8,18.7,6.1,14.9C302,326.9,295.4,311.9,286.2,316.3"/>
	<path class="st8" d="M352.3,366c-11.3,5.4-2.8,18.7,6.1,14.9C368.2,376.6,361.6,361.5,352.3,366"/>
	<path class="st8" d="M220,374.2c-11.3,5.4-2.8,18.7,6.1,14.9C235.8,384.9,229.3,369.8,220,374.2"/>
	<path class="st8" d="M164.9,162.7c3.9-2.3,11.4-10.1,14.1-13.8c-3.1-3.2-9-5.2-14.1-6.1V162.7z"/>
</g>
</svg>
