<?xml version="1.0" encoding="utf-8"?>
<!-- Generator: Adobe Illustrator 24.2.1, SVG Export Plug-In . SVG Version: 6.00 Build 0)  -->
<svg version="1.1" id="Layer_5" xmlns="http://www.w3.org/2000/svg" xmlns:xlink="http://www.w3.org/1999/xlink" x="0px" y="0px"
	 viewBox="0 0 512 512" style="enable-background:new 0 0 512 512;" xml:space="preserve">
<style type="text/css">
	.st0{fill-rule:evenodd;clip-rule:evenodd;fill:#303030;}
	.st1{fill-rule:evenodd;clip-rule:evenodd;fill:#EAB000;}
	.st2{fill-rule:evenodd;clip-rule:evenodd;fill:#4C4C4C;}
	.st3{fill-rule:evenodd;clip-rule:evenodd;fill:#999999;}
	.st4{fill-rule:evenodd;clip-rule:evenodd;fill:#E6E6E6;}
</style>
<g>
	<path class="st0" d="M464.9,56.7c-7.2,1.7-15.3,1.3-23.6,2.1L274.5,72.6v31.7H34.6c-10.9,0-21.8,10.9-21.8,21.8v337.1
		c0,5.8,4,12.7,7.2,15.6c4.4,3.9,9.5,6.3,17.5,6.2l326.2,0c3.4,14.7,29.1,25.4,42.2,3.6c4.1-6.8,7.6-12.2,11.7-19l23.4-38.1V247.1
		c18.3,0,31.7-15.2,31.7-28.7c0-17.4-2.7-12.1-5-21.8c5.5-1.5,9.4-6.9,11.5-12.3c3.1-7.6,1.3-104.3,1.3-119.6
		c0-43.7-3.2-39.7,23.8-39.7V9.2c-16,0-30.4-2.8-38,14.5C463,31.7,464.9,46.4,464.9,56.7 M322.1,85.2v66.7
		c-28.8,0-31.8,3.8-31.7-16.9c0.1-13.5-1.3-34.7,0.3-47.2L322.1,85.2z M369.7,81.3v70.6H338l0.3-68.1L369.7,81.3z M417.3,77.3v74.6
		h-31.7l0.3-72L417.3,77.3z M464.9,73.3v78.6h-31.7l0.3-76L464.9,73.3z M455.9,183.6h-46.6v-15.9h55.5v6.9
		C464.9,179.6,460.8,183.6,455.9,183.6z M28.7,199.5c0-13.6,0-27.1,0-40.6c0-9.1-2.4-33,3.5-37.1c4.8-3.3,68.6-1.5,79.8-1.5
		c54.2,0,108.4,0,162.6,0c0,33.8-3,47.6,35.7,47.6c27.8,0,55.5,0,83.3,0v15.9c-25.8,0-51.5,0-77.3,0c-27.5,0-47.9-4.8-60.7,15.9
		L28.7,199.5z M250.8,215.4c1.8,36.9,47.4,41.4,60.3,13.8c5.5-11.6,3-19-1.1-29.7h20v220.1c0,15.8-0.6,11.2,9.5,27.2
		c4.1,6.5,10.2,15.3,13.6,22.4c-96.6,0.1-193.2,0-289.7,0c-41.4,0-34.7,4.1-34.7-37.7l0-216.1H250.8z M393.5,199.5l20,0
		c-7.8,20.1-3.6,33.2,11.5,42.8l-0.2,172.1l-15.6-10.1l-15.6,10.1l-0.2-3.7V199.5z M278.5,200.2c19.3-5.8,28.2,24.8,8.2,30.4
		C267.4,236.1,257.4,206.5,278.5,200.2z M437.1,200.2c19.3-5.8,28.2,24.8,8.2,30.4C426,236.1,416,206.5,437.1,200.2z M345.9,199.5
		h31.7l0.1,211.2l-0.4,3.7l-15.6-10l-15.6,10l-0.2-3.7V199.5z M362,423.2l23.7,15.7l23.8-15.7l12.6,8.2l-26,42.3
		c-9.8,15.1-11.2,15.5-21.5-0.6l-25.5-41.5L362,423.2z"/>
	<path class="st0" d="M139.7,380.9c0-5.9,3.1-6.9,9.5-13.3c4-4.1,7.4-7.3,11.7-11.7l-11.2-10.8c-2.8,2.8-4.8,4.7-7.5,7.5
		c-3.2,3.3-3.7,5.5-9.4,5.5H44.5v95.2h95.2V380.9z M60.4,374c14.1,0,48.1-0.6,60,0.4l-28.6,27.9l-9.8-9.7l-10.8,11.2l21.1,20.8
		l31.5-30.9l0,43.8H60.4V374z"/>
	<path class="st0" d="M139.7,269.9c0-5.1,1.3-5.3,4-7.9l17.1-17.1l-11.2-10.8c-2.8,2.8-4.8,4.7-7.5,7.5c-3.2,3.3-3.7,5.5-8.9,5.5
		H44.5v95.2h95.2V269.9z M60.4,262.9c14.1,0,48.1-0.6,60,0.4l-28.6,27.9l-9.8-9.7l-10.8,11.2l21.1,20.8l31.5-30.9l0,43.8H60.4V262.9
		z"/>
	<path class="st1" d="M60.4,437.4h63.4l0-43.8l-31.5,30.9l-21.1-20.8L82,392.5l9.8,9.7l28.6-27.9c-11.9-1-45.9-0.4-60-0.4V437.4z"/>
	<path class="st1" d="M60.4,326.4h63.4l0-43.8l-31.5,30.9l-21.1-20.8L82,281.5l9.8,9.7l28.6-27.9c-11.9-1-45.9-0.4-60-0.4V326.4z"/>
	<polygon class="st0" points="171.4,278.8 314.2,278.8 314.2,263 170.9,263 	"/>
	<path class="st2" d="M349.1,431.6l25.5,41.5c10.3,16.1,11.7,15.7,21.5,0.6l26-42.3l-12.6-8.2l-23.8,15.7L362,423.2L349.1,431.6z"/>
	<polygon class="st0" points="171.9,342.3 314.2,342.3 314.2,326.4 171.4,326.4 	"/>
	<polygon class="st0" points="171.4,374 314.2,374 313.7,358.1 171.4,358.1 	"/>
	<polygon class="st0" points="202.6,437.4 314.2,437.4 314.2,421.6 203.1,421.6 	"/>
	<polygon class="st0" points="171.4,405.7 282.4,405.7 282.4,389.8 171.4,389.8 	"/>
	<polygon class="st0" points="203.1,310.5 314.2,310.5 313.9,294.7 203.1,294.7 	"/>
	<path class="st0" d="M45.1,164.8c6.2,29.9,52.4,21.6,46.6-9.5c-2.1-11.4-13.2-21.4-27.8-18.8C52.1,138.6,42,150.1,45.1,164.8
		 M65.6,152.7c8.9-4.3,15.2,10.2,5.8,14.3C62.9,170.7,54.8,157.9,65.6,152.7z"/>
	<path class="st0" d="M108.5,164.8c6.2,29.9,52.4,21.6,46.6-9.5c-2.1-11.4-13.2-21.4-27.8-18.8C115.5,138.6,105.5,150.1,108.5,164.8
		 M129,152.7c8.9-4.3,15.2,10.2,5.8,14.3C126.3,170.7,118.3,157.9,129,152.7z"/>
	<path class="st0" d="M172,164.8c6.2,29.9,52.4,21.6,46.5-9.5c-2.1-11.4-13.2-21.4-27.8-18.8C179,138.6,168.9,150.1,172,164.8
		 M192.5,152.7c8.9-4.3,15.2,10.2,5.8,14.3C189.8,170.7,181.7,157.9,192.5,152.7z"/>
	<path class="st3" d="M278.5,200.2c-21.2,6.3-11.2,35.9,8.2,30.4C306.8,224.9,297.9,194.4,278.5,200.2"/>
	<path class="st3" d="M437.1,200.2c-21.2,6.3-11.2,35.9,8.2,30.4C465.4,224.9,456.5,194.4,437.1,200.2"/>
	<polygon class="st0" points="171.3,310.5 187.3,310.5 187.3,294.7 171.4,294.7 	"/>
	<rect x="171.4" y="421.6" class="st0" width="15.9" height="15.9"/>
	<polygon class="st0" points="298.4,405.7 314.2,405.7 314.2,389.8 298.3,389.8 	"/>
	<path class="st4" d="M65.6,152.7c-10.8,5.2-2.7,18,5.8,14.3C80.8,162.9,74.5,148.5,65.6,152.7"/>
	<path class="st4" d="M129,152.7c-10.8,5.2-2.7,18,5.8,14.3C144.2,162.9,137.9,148.5,129,152.7"/>
	<path class="st4" d="M192.5,152.7c-10.8,5.2-2.7,18,5.8,14.3C207.7,162.9,201.4,148.5,192.5,152.7"/>
</g>
</svg>
