<?xml version="1.0" encoding="utf-8"?>
<!-- Generator: Adobe Illustrator 24.2.1, SVG Export Plug-In . SVG Version: 6.00 Build 0)  -->
<svg version="1.1" id="Filled_expand" xmlns="http://www.w3.org/2000/svg" xmlns:xlink="http://www.w3.org/1999/xlink" x="0px"
	 y="0px" viewBox="0 0 512 512" style="enable-background:new 0 0 512 512;" xml:space="preserve">
<style type="text/css">
	.st0{fill:#DDF5FA;}
	.st1{fill:#24AFD6;}
	.st2{fill:#57CEE6;}
	.st3{fill:#FFFDFA;}
	.st4{fill:#FA5D3F;}
	.st5{fill:#FAC850;}
	.st6{fill:#C85AED;}
	.st7{fill-rule:evenodd;clip-rule:evenodd;fill:#303030;}
	.st8{fill-rule:evenodd;clip-rule:evenodd;fill:#FFCC00;}
	.st9{fill-rule:evenodd;clip-rule:evenodd;fill:#EAB000;}
	.st10{fill-rule:evenodd;clip-rule:evenodd;fill:#FFFBF8;}
	.st11{fill-rule:evenodd;clip-rule:evenodd;fill:#FFDF56;}
</style>
<g>
	<g>
		<path class="st0" d="M1028.6-682.3h416l0,0v254c0,5.5-4.5,10-10,10h-396c-5.5,0-10-4.5-10-10V-682.3L1028.6-682.3z"/>
		<path class="st1" d="M1324.6-338.3h-176v-7.1c0-9.8,7.1-18.1,16.7-19.7l6.2-1c14.5-2.4,25.1-14.9,25.1-29.6v-22.6h80v22.6
			c0,14.7,10.6,27.2,25.1,29.6l6.2,1c9.6,1.6,16.7,10,16.7,19.7V-338.3z"/>
		<path class="st2" d="M1028.6-466.3h416l0,0v38c0,5.5-4.5,10-10,10h-396c-5.5,0-10-4.5-10-10V-466.3L1028.6-466.3z"/>
		<path d="M1436.6-602.3v128h-400v-32h-16v78c0,9.9,8.1,18,18,18h30v-16h-30c-1.1,0-2-0.9-2-2v-30h400v30c0,1.1-0.9,2-2,2h-350v16
			h104v14.6c0,10.8-7.8,20-18.4,21.7l-6.2,1c-13.5,2.2-23.4,13.9-23.4,27.6v7.1c0,4.4,3.6,8,8,8h176c4.4,0,8-3.6,8-8v-7.1
			c0-13.7-9.9-25.4-23.4-27.6l-6.2-1c-10.6-1.7-18.4-10.9-18.4-21.7v-14.6h150c9.9,0,18-8.1,18-18v-174H1436.6z M1300.3-358.2l6.2,1
			c5.4,0.9,9.6,5.4,10,10.9h-159.9c0.4-5.5,4.5-10,10-10.9l6.2-1c18.3-3,31.8-18.9,31.8-37.5v-14.6h64v14.6
			C1268.5-377.1,1282-361.2,1300.3-358.2z"/>
	</g>
	<path class="st3" d="M1060.6-802.3h352v304h-352V-802.3z"/>
	<path d="M1412.6-490.3h-352c-4.4,0-8-3.6-8-8v-8h352v-96h16v104C1420.6-493.9,1417-490.3,1412.6-490.3z"/>
	<path class="st4" d="M1060.6-802.3h352v48h-352V-802.3z"/>
	<path d="M1412.6-810.3h-40v16h32v32h-336v-32h288v-16h-296c-4.4,0-8,3.6-8,8v112h-14c-9.9,0-18,8.1-18,18v22h16v-22
		c0-1.1,0.9-2,2-2h14v24h16v-96h344c4.4,0,8-3.6,8-8v-48C1420.6-806.7,1417-810.3,1412.6-810.3z"/>
	<path class="st5" d="M1236.6-706.3v40c22.1,0,40,17.9,40,40s-17.9,40-40,40v40c44.2,0,80-35.8,80-80S1280.8-706.3,1236.6-706.3z"/>
	<g>
		<path class="st6" d="M1236.6-546.3v-40c-22.1,0-40-17.9-40-40h-40C1156.6-582.1,1192.4-546.3,1236.6-546.3z"/>
		<path class="st4" d="M1236.6-666.3v-40c-44.2,0-80,35.8-80,80h40C1196.6-648.4,1214.5-666.3,1236.6-666.3z"/>
		<path d="M1236.6-714.3c-48.6,0-88,39.4-88,88s39.4,88,88,88s88-39.4,88-88C1324.5-674.9,1285.1-714.2,1236.6-714.3z M1236.6-594.3
			c-17.7,0-32-14.3-32-32s14.3-32,32-32s32,14.3,32,32C1268.6-608.6,1254.2-594.3,1236.6-594.3z M1228.6-697.8v24.2
			c-20.1,3.4-35.9,19.2-39.3,39.3H1165C1168.8-667.7,1195.2-694.1,1228.6-697.8z M1165-618.3h24.2c3.4,20.1,19.2,35.9,39.3,39.3
			v24.2C1195.2-558.5,1168.8-584.9,1165-618.3L1165-618.3z M1244.6-554.7V-579c26.1-4.4,43.7-29.2,39.3-55.3
			c-3.4-20.1-19.2-35.9-39.3-39.3v-24.2c39.5,4.4,68,40,63.6,79.6C1304.4-584.9,1278-558.5,1244.6-554.7z"/>
	</g>
	<g>
		<path d="M1150.9-700.6l-13.7-13.7h-44.7v-16h48c2.1,0,4.2,0.8,5.7,2.3l16,16L1150.9-700.6z"/>
		<path d="M1092.6-698.3h40v16h-40V-698.3z"/>
	</g>
	<g>
		<path d="M1380.6-522.3h-48c-2.1,0-4.2-0.8-5.7-2.3l-16-16l11.3-11.3l13.7,13.7h44.7V-522.3z"/>
		<path d="M1340.6-570.3h40v16h-40V-570.3z"/>
	</g>
	<path d="M1084.6-786.3h16v16h-16V-786.3z"/>
	<path d="M1116.6-786.3h16v16h-16V-786.3z"/>
	<path d="M1148.6-786.3h16v16h-16V-786.3z"/>
	<path d="M1372.6-786.3h16v16h-16V-786.3z"/>
	<g>
		<path class="st6" d="M1116.6-530.3v-16l32-24l-32-12v-44h-112v96H1116.6z"/>
		<path d="M1116.6-522.3h-112c-4.4,0-8-3.6-8-8v-96c0-4.4,3.6-8,8-8h112c4.4,0,8,3.6,8,8v38.5l26.8,10.1c4.1,1.6,6.2,6.2,4.7,10.3
			c-0.5,1.4-1.5,2.7-2.7,3.6l-28.8,21.6v12C1124.6-525.9,1121-522.3,1116.6-522.3z M1012.6-538.3h96v-8c0-2.5,1.2-4.9,3.2-6.4
			l20.3-15.2l-18.3-6.9c-3.1-1.2-5.2-4.2-5.2-7.5v-36h-96V-538.3z"/>
		<path d="M1028.6-578.3h16v24h-16V-578.3z"/>
		<path d="M1052.6-602.3h16v48h-16V-602.3z"/>
		<path d="M1076.6-586.3h16v32h-16V-586.3z"/>
	</g>
	<g>
		<path class="st5" d="M1356.6-722.3v16l-32,24l32,12v44h112v-96H1356.6z"/>
		<path d="M1468.6-618.3h-112c-4.4,0-8-3.6-8-8v-38.5l-26.8-10.1c-4.1-1.6-6.2-6.2-4.7-10.3c0.5-1.4,1.5-2.7,2.7-3.6l28.8-21.6v-12
			c0-4.4,3.6-8,8-8h112c4.4,0,8,3.6,8,8v96C1476.6-621.9,1473-618.3,1468.6-618.3z M1364.6-634.3h96v-80h-96v8
			c0,2.5-1.2,4.9-3.2,6.4l-20.3,15.2l18.3,6.9c3.1,1.2,5.2,4.2,5.2,7.5V-634.3z"/>
		<path d="M1386.2-652.6l-11.3-11.3l24-24c3.1-3.1,8.2-3.1,11.3,0c0,0,0,0,0,0l9.5,9.5l18.5-24.6l12.8,9.6l-24,32
			c-2.7,3.5-7.7,4.3-11.2,1.6c-0.3-0.2-0.6-0.5-0.9-0.7l-10.3-10.3L1386.2-652.6z"/>
	</g>
</g>
<g>
	<path class="st7" d="M38.6,324.4h-8.4c0,25.1,0.1,50.2,0,75.3c0,6.8-0.4,12,2.5,16.3c8.8,13.4,26.2,8.8,47.7,8.8l0-8.4v-8.4
		c-41.7,0-33.5,8.3-33.5-33.5h418.3c0,8.2,2,26.5-0.9,32.6c-5.7,2.6-330.1,0.9-367.3,0.9v8.4v8.4H206c0,16.2,1.5,34.3-20.8,37.8
		c-16.1,2.5-29.3,11.3-29.5,29.1c-0.2,20.4,0,16.8,41.9,16.8l146.5,0c13.3,0.1,12.7-3.9,12.6-16.8c-0.1-8.7-4.2-16.1-8.9-20.4
		c-14.3-13.2-28.5-3.1-38.2-20.3c-3.9-6.9-3.1-15.6-3.1-26.2c10.1,0,157.3,1.1,163.4-0.8c5-1.6,10.3-6.9,11.7-12.3
		c2-7.5,0.6-165.6,0.6-187.7h-8.4h-8.4v133.9H47v-33.5H38.6z M222.7,424.8h66.9c0,23.5-0.1,32,13.6,45c16.5,15.8,33.1,3.5,36.5,21.8
		l-167.1,0.1c3.4-18.4,20.1-6.2,36.6-21.9C222.7,456.9,222.7,448.3,222.7,424.8z"/>
	<path class="st7" d="M38.6,173.8H47c0-7.1-1.7-18.6,0.8-24.2c3.7-1.7,10.9-0.9,15.9-0.9v25.1H72h8.4V73.4h2.1h357.7
		c11.1-0.9,8.4-11.3,8.4-23c0-46.8,3.5-44-18.8-43.9c-10.5,0-20.9,0-31.4,0v8.4v8.4h33.5v33.5H80.5V23.2h301.2v-8.4V6.5
		c-100.4,0-204.1,0.9-304.4,0C64.4,6.3,63.6,8.4,63.7,21.1C64,58,63.7,95,63.7,132c-16.1,0-22.3-2-30.1,7.6
		c-5.4,6.7-3.4,22.8-3.4,34.3H38.6z"/>
	<path class="st7" d="M248.4,107.2c-48.2,4.5-88.6,46-83.9,99.7c4.2,48,46.5,88.3,99.8,83.6c47.6-4.2,88.2-46.4,83.5-99.4
		C343.6,143.3,301.3,102.3,248.4,107.2 M181.4,190.5c4.5-35.7,30.7-61.9,66.4-66.4c0,28.1,1.6,24.2-3.7,26.1
		c-8.8,3.1-14.7,4.1-23.6,13c-2.5,2.5-6.9,8.4-9.1,12.8C202.5,193.4,216.5,190.5,181.4,190.5z M264.5,124.1
		c36.8,4.1,66.9,35,66.9,74.8c0,39.9-30.3,70.6-66.9,74.8c0-28.1-1.7-24.3,3.6-26.2c4.8-1.7,6.3-1.1,12.8-5
		c4.9-2.9,10-6.8,12.8-10.2c25.2-31.5,9.2-71.2-21.5-80.9c-4.8-1.5-6.3-0.8-7.7-3.8V124.1z M222.8,202c-3.6-45.3,63.2-48.8,66.6-6.2
		c1.5,19.3-12.8,34.8-30.3,36.3C240.1,233.9,224.2,219.3,222.8,202z M181.4,207.3c29.1,0,24.4-1.9,27,6.9c0.8,2.7,1.8,5.2,3,7.5
		c6,11.6,16.1,20.7,28.6,24.7c10.2,3.3,7.7-3.6,7.7,27.3C212.1,269.2,185.9,243,181.4,207.3z"/>
	<path class="st7" d="M72,324.4h-8.3c0,21,3,16.7,48.1,16.7l324.3,0c14.1-0.1,12.5-7.4,12.5-19.9V224l-8.3,0h-8.4v100.4L72,324.4z"
		/>
	<path class="st7" d="M38.6,307.7H72c14.7,0,29.3,0,44,0c22.3,0,23,1.5,23-21.3c4.1-2.3,30.5-21.8,32.2-25
		c8.6-15.6-27.9-15.5-32.2-23.8c0-9.4,0-18.8,0-28.2c0.1-25.9-3.8-18.8-67-18.8l-33.4,0c-40.8,0-33.5-9.3-33.5,58.6
		c0,15.4,0.1,30.7,0,46.1C5,311.2,11.4,307.7,38.6,307.7 M21.9,207.3h100.4c0,46.1-5.8,43.1,24.1,52.3c-2.8,3.7-9.6,8-13.9,11.2
		c-9.7,7.2-10.2,6.7-10.2,20.1H21.9L21.9,207.3z"/>
	<path class="st7" d="M440.2,207.3h33.4c6,0,22.2,0.8,27-0.2c8.4-1.7,6.5-10.6,6.5-20.7l0-81.6c0.1-11.9-0.3-14.8-12.5-14.7
		c-18.1,0.1-36.3,0-54.4,0.1c-14.6,0-29.3,0-43.9,0c-22.4,0-23-1.6-23,21.3c-4.1,2.3-30.5,21.8-32.2,24.9
		c-8.7,15.5,28,15.5,32.2,23.8c0,9.4,0,18.8,0,28.2c0,9.6-1,18.1,9.4,18.8C400,208.5,422.3,207.3,440.2,207.3 M390,106.9h100.4
		l0.1,83.7H390V156c0-7.8-2.1-9.8-8.7-12.2c-5.1-1.9-10.3-4.1-15.4-5.6c7.9-10.3,24.1-12.2,24.1-26.1V106.9z"/>
	<path class="st8" d="M390,112.1c0,14-16.2,15.9-24.1,26.1c5.1,1.5,10.4,3.7,15.4,5.6c6.6,2.5,8.7,4.4,8.7,12.2v34.5h100.5
		l-0.1-83.7H390V112.1z M431.9,152.7c-6.9,4.2-13.1,15.1-20.4,18.4c-1.9-2.7-6.6-8.8-10.4-10.4c2.4-5.2,16.7-17.8,21.3-22.5
		c13.7-13.8,15.3-0.8,25.1,5.5c0.2-0.2,0.5-0.7,0.6-0.6l9.3-11.8c2.4-3.2,6.7-9.6,9.7-12.5c3.3,1.6,10.5,7.3,12.8,9.9l-20.4,27.6
		C445.1,175.8,442.7,158.9,431.9,152.7z"/>
	<path class="st9" d="M21.9,290.9h100.4c0-13.5,0.5-12.9,10.2-20.1c4.3-3.2,11.1-7.5,13.9-11.2c-29.9-9.2-24.1-6.2-24.1-52.3H21.9
		L21.9,290.9z M38.6,249.1h16.7l0,25.1H38.6V249.1z M63.7,224h16.7l0.3,50.2h-17L63.7,224z M88.8,240.7h16.7l0,33.4H88.8V240.7z"/>
	<path class="st8" d="M264.5,147.7c1.5,3,2.9,2.2,7.7,3.8c30.6,9.7,46.7,49.4,21.5,80.9c-2.7,3.4-7.9,7.4-12.8,10.2
		c-6.5,3.8-8,3.2-12.8,5c-5.3,1.9-3.6-1.9-3.6,26.2c36.7-4.2,66.9-34.9,66.9-74.8c0-39.8-30.1-70.7-66.9-74.8V147.7z"/>
	<path class="st10" d="M222.8,202c1.4,17.3,17.3,31.8,36.4,30.1c17.4-1.5,31.8-17,30.3-36.3C286.1,153.2,219.3,156.8,222.8,202"/>
	<path class="st9" d="M211.4,221.7c-1.2-2.2-2.2-4.8-3-7.5c-2.7-8.8,2.1-6.9-27-6.9c4.5,35.7,30.7,61.9,66.4,66.4
		c0-30.9,2.4-24-7.7-27.3C227.5,242.4,217.4,233.3,211.4,221.7"/>
	<path class="st11" d="M181.4,190.5c35.1,0,21.1,2.8,30-14.4c2.3-4.4,6.7-10.4,9.1-12.8c8.9-8.9,14.8-9.9,23.6-13
		c5.3-1.9,3.7,2,3.7-26.1C212.1,128.6,185.9,154.8,181.4,190.5"/>
	<path class="st7" d="M431.9,152.7c10.8,6.3,13.3,23.1,27.6,3.8l20.4-27.6c-2.3-2.6-9.5-8.3-12.8-9.9c-2.9,2.8-7.2,9.3-9.7,12.5
		l-9.3,11.8c-0.1-0.2-0.4,0.4-0.6,0.6c-9.9-6.3-11.5-19.4-25.1-5.5c-4.6,4.7-18.9,17.3-21.3,22.5c3.8,1.6,8.5,7.7,10.4,10.4
		C418.7,167.8,424.9,156.9,431.9,152.7"/>
	<path class="st7" d="M105.6,106.9h42.3c6.6,0,7,2.3,10.4,5.8c3.1,3.2,4.9,6.1,9.4,8.2l10.1-10.5c-2-4.8-7-8.3-10.6-11.9
		c-3.9-4-6.1-8.3-14.7-8.3h-47.1V106.9z"/>
	<path class="st7" d="M334.3,288.6c9.4,9.4,16,19.1,25.4,19.1h47.1l-0.1-16.7h-42.9c-6,0-6.5-2.4-9.9-5.8c-2.9-2.9-5-5-7.9-7.9
		L334.3,288.6z"/>
	<polygon class="st7" points="63.7,274.2 80.7,274.2 80.4,224 63.7,224 	"/>
	<polygon class="st7" points="105.6,140.3 147.4,140.3 147.4,123.6 105.6,123.6 	"/>
	<polygon class="st7" points="364.9,274.2 406.7,274.2 406.7,257.5 364.9,257.5 	"/>
	<polygon class="st7" points="88.8,274.2 105.6,274.2 105.5,240.7 88.8,240.7 	"/>
	<polygon class="st7" points="38.6,274.2 55.4,274.2 55.3,249.1 38.6,249.1 	"/>
	<rect x="97.2" y="31.6" class="st7" width="16.7" height="16.7"/>
	<rect x="130.7" y="31.6" class="st7" width="16.7" height="16.7"/>
	<rect x="164.1" y="31.6" class="st7" width="16.7" height="16.7"/>
	<rect x="398.4" y="31.6" class="st7" width="16.7" height="16.7"/>
</g>
</svg>
