<?xml version="1.0" encoding="utf-8"?>
<!-- Generator: Adobe Illustrator 24.2.1, SVG Export Plug-In . SVG Version: 6.00 Build 0)  -->
<svg version="1.1" id="Capa_1" xmlns="http://www.w3.org/2000/svg" xmlns:xlink="http://www.w3.org/1999/xlink" x="0px" y="0px"
	 viewBox="0 0 512 512" style="enable-background:new 0 0 512 512;" xml:space="preserve">
<style type="text/css">
	.st0{fill-rule:evenodd;clip-rule:evenodd;fill:#303030;}
	.st1{fill-rule:evenodd;clip-rule:evenodd;fill:#FFDF56;}
	.st2{fill-rule:evenodd;clip-rule:evenodd;fill:#EAB000;}
	.st3{fill-rule:evenodd;clip-rule:evenodd;fill:#FFCC00;}
	.st4{fill-rule:evenodd;clip-rule:evenodd;fill:#999999;}
	.st5{fill-rule:evenodd;clip-rule:evenodd;fill:#808080;}
</style>
<g>
	<path class="st0" d="M299.9,389.5h-87.9V362h87.9V389.5z M303.3,347.4h-94.7c-6.2,0-11.3,5-11.3,11.3v34.3
		c0,6.2,5.1,11.3,11.3,11.3h94.7c6.2,0,11.3-5,11.3-11.3v-34.3C314.6,352.4,309.5,347.4,303.3,347.4z"/>
	<path class="st0" d="M168.9,202.5V100.1c0-4.1-3.3-7.3-7.3-7.3c-4,0-7.3,3.3-7.3,7.3v102.4c0,4,3.3,7.3,7.3,7.3
		C165.6,209.8,168.9,206.5,168.9,202.5"/>
	<path class="st0" d="M233.3,293.8h45.4c4.1,0,7.3-3.3,7.3-7.3c0-4-3.3-7.3-7.3-7.3h-45.4c-4.1,0-7.3,3.3-7.3,7.3
		C226,290.6,229.3,293.8,233.3,293.8"/>
	<path class="st0" d="M292.4,209.8c4,0,7.3-3.3,7.3-7.3V100.1c0-4.1-3.3-7.3-7.3-7.3c-4,0-7.3,3.3-7.3,7.3v102.4
		C285.1,206.5,288.3,209.8,292.4,209.8"/>
	<path class="st1" d="M186.5,280.5h-49.9c-5.9,0-10.6-4.8-10.6-10.6V73.4c0-5.9,4.7-10.6,10.6-10.6h49.9c5.9,0,10.6,4.8,10.6,10.6
		v196.4C197.1,275.7,192.3,280.5,186.5,280.5z"/>
	<path class="st2" d="M186.5,62.8h-15.2c5.9,0,10.6,4.7,10.6,10.6v196.4c0,5.9-4.8,10.6-10.6,10.6h15.2c5.9,0,10.6-4.8,10.6-10.6
		V73.4C197.1,67.6,192.3,62.8,186.5,62.8"/>
	<path class="st3" d="M375.4,280.5h-37.7c-5.9,0-10.6-4.8-10.6-10.6V73.4c0-5.9,4.8-10.6,10.6-10.6h37.7c5.9,0,10.6,4.8,10.6,10.6
		v196.4C386,275.7,381.2,280.5,375.4,280.5z"/>
	<path class="st2" d="M375.4,62.8h-15.2c5.9,0,10.6,4.7,10.6,10.6v196.4c0,5.9-4.8,10.6-10.6,10.6h15.2c5.9,0,10.6-4.8,10.6-10.6
		V73.4C386,67.6,381.2,62.8,375.4,62.8"/>
	<path class="st1" d="M316.5,280.5h-49.9c-5.9,0-10.6-4.8-10.6-10.6V73.4c0-5.9,4.7-10.6,10.6-10.6h49.9c5.9,0,10.6,4.8,10.6,10.6
		v196.4C327.1,275.7,322.3,280.5,316.5,280.5z"/>
	<path class="st2" d="M316.5,62.8h-15.2c5.9,0,10.6,4.7,10.6,10.6v196.4c0,5.9-4.8,10.6-10.6,10.6h15.2c5.9,0,10.6-4.8,10.6-10.6
		V73.4C327.1,67.6,322.3,62.8,316.5,62.8"/>
	<path class="st3" d="M245.4,280.5h-37.7c-5.9,0-10.6-4.8-10.6-10.6V97.8c0-5.9,4.7-10.6,10.6-10.6h37.7c5.9,0,10.6,4.8,10.6,10.6
		v172.1C256,275.7,251.3,280.5,245.4,280.5"/>
	<path class="st2" d="M245.4,87.1h-15.2c5.9,0,10.6,4.8,10.6,10.6v172.1c0,5.9-4.8,10.6-10.6,10.6h15.2c5.9,0,10.6-4.8,10.6-10.6
		V97.8C256,91.9,251.3,87.1,245.4,87.1"/>
	<path class="st4" d="M292.5,234.3l-1.3,7.6c-1.6,8.9-9.3,15.4-18.3,15.4h-33.7c-9,0-16.8-6.5-18.3-15.4l-1.3-7.6
		c-0.6-3.3-3.5-5.8-6.8-5.8H109.6c-2.6,0-4.6,2.1-4.6,4.6v61.4c0,10.9,8.9,19.8,19.8,19.8h262.6c10.9,0,19.8-8.9,19.8-19.8v-61.4
		c0-2.6-2.1-4.6-4.6-4.6H299.4C296,228.5,293.1,231,292.5,234.3z"/>
	<path class="st5" d="M198.2,234.3l1.3,7.6c1.6,8.9,9.3,15.4,18.3,15.4h21.3c-9,0-16.8-6.5-18.3-15.4l-1.3-7.6
		c-0.6-3.3-3.5-5.8-6.8-5.8h-21.3C194.7,228.5,197.6,231,198.2,234.3z"/>
	<path class="st5" d="M402.4,228.5h-21.3c2.6,0,4.6,2.1,4.6,4.6v61.4c0,10.9-8.9,19.8-19.8,19.8h21.3c10.9,0,19.8-8.9,19.8-19.8
		v-61.4C407.1,230.6,405,228.5,402.4,228.5"/>
	<path class="st0" d="M450.6,415.2v-72.8c0-4-3.3-7.3-7.3-7.3c-4.1,0-7.3,3.3-7.3,7.3v72.8H76.1V181.8h42.6v39.4h-9.1
		c-6.6,0-12,5.4-12,12v61.4c0,14.9,12.2,27.1,27.1,27.1h262.6c14.9,0,27.1-12.2,27.1-27.1v-61.4c0-6.6-5.4-12-12-12h-9.1v-39.4h42.6
		v131.3c0,4,3.3,7.3,7.3,7.3c4,0,7.3-3.3,7.3-7.3V174.4c0-4-3.3-7.3-7.3-7.3h-49.9v-14.7h68.4c1.9,0,3.5,1.6,3.5,3.5v259.2
		L450.6,415.2z M291.5,442.9c0,0.1-0.1,0.1-0.1,0.1h-70.7c-0.1,0-0.1,0-0.2-0.1l-6.3-13.1h83.5L291.5,442.9z M46.8,156
		c0-1.9,1.6-3.5,3.5-3.5h68.4v14.7H68.8c-4,0-7.3,3.3-7.3,7.3v240.7l-14.7,0V156z M212.3,235.9l1.3,7.3
		c2.2,12.5,12.9,21.5,25.6,21.5h33.7c12.6,0,23.4-9,25.6-21.5l1.3-7.3h100.1v58.8c0,6.9-5.6,12.4-12.4,12.4H124.7
		c-6.9,0-12.4-5.6-12.4-12.4v-58.8H212.3z M204.4,97.8c0-1.8,1.5-3.3,3.3-3.3h37.7c1.8,0,3.3,1.5,3.3,3.3V250h-9.5
		c-5.5,0-10.2-3.9-11.1-9.4l-1.3-7.6c-1.2-6.8-7.1-11.8-14.1-11.8h-8.2L204.4,97.8L204.4,97.8z M263.3,73.4c0-1.8,1.5-3.3,3.3-3.3
		h49.9c1.8,0,3.3,1.5,3.3,3.3v147.8h-20.4c-7,0-12.9,5-14.1,11.8l-1.3,7.6c-0.9,5.4-5.6,9.4-11.1,9.4h-9.5V73.4z M334.4,73.4
		c0-1.8,1.5-3.3,3.3-3.3h37.7c1.8,0,3.3,1.5,3.3,3.3v147.8h-44.3V73.4z M485.7,415.2h-5.8V156c0-10-8.2-18.2-18.2-18.2h-68.4V73.4
		c0-9.9-8-17.9-17.9-17.9h-37.7c-4,0-7.6,1.3-10.6,3.5c-3-2.2-6.6-3.5-10.6-3.5h-49.9c-9.9,0-17.9,8-17.9,17.9v6.7
		c-1.1-0.2-2.2-0.3-3.3-0.3h-37.7c-1.1,0-2.2,0.1-3.3,0.3v-6.7c0-9.9-8-17.9-17.9-17.9h-49.9c-9.9,0-17.9,8-17.9,17.9v13
		c0,4.1,3.3,7.3,7.3,7.3c4,0,7.3-3.3,7.3-7.3v-13c0-1.8,1.5-3.3,3.3-3.3h49.9c1.8,0,3.3,1.5,3.3,3.3v147.8h-56.4V115.7
		c0-4-3.3-7.3-7.3-7.3c-4,0-7.3,3.3-7.3,7.3v22.1H50.3c-10,0-18.2,8.2-18.2,18.2v259.2h-5.8c-11.3,0-20.5,9.2-20.5,20.5v29.4
		c0,11.3,9.2,20.5,20.5,20.5l146.2,0c4,0,7.3-3.3,7.3-7.3c0-4-3.3-7.3-7.3-7.3H26.3c-3.2,0-5.8-2.6-5.8-5.8v-29.4
		c0-3.2,2.6-5.8,5.8-5.8H198l9.3,19.4c2.4,5.1,7.7,8.4,13.4,8.4h70.7c5.7,0,10.9-3.3,13.4-8.4l9.3-19.4h171.7c3.2,0,5.8,2.6,5.8,5.8
		v29.4c0,3.2-2.6,5.8-5.8,5.8H201.8c-4,0-7.3,3.3-7.3,7.3c0,4.1,3.3,7.3,7.3,7.3h283.8c11.3,0,20.5-9.2,20.5-20.5v-29.4
		C506.1,424.3,496.9,415.2,485.7,415.2L485.7,415.2z"/>
</g>
</svg>
