<?xml version="1.0" encoding="utf-8"?>
<!-- Generator: Adobe Illustrator 24.2.1, SVG Export Plug-In . SVG Version: 6.00 Build 0)  -->
<svg version="1.1" id="Capa_1" xmlns="http://www.w3.org/2000/svg" xmlns:xlink="http://www.w3.org/1999/xlink" x="0px" y="0px"
	 viewBox="0 0 512 512" style="enable-background:new 0 0 512 512;" xml:space="preserve">
<style type="text/css">
	.st0{fill-rule:evenodd;clip-rule:evenodd;fill:#FFCC00;}
	.st1{fill-rule:evenodd;clip-rule:evenodd;fill:#EAB000;}
	.st2{fill-rule:evenodd;clip-rule:evenodd;fill:#303030;}
</style>
<g>
	<path class="st0" d="M390.8,66.9l-7.4,15c-1.2,2.4-3.5,4.1-6.1,4.4l-16.6,2.4c-6.7,1-9.3,9.2-4.5,13.9l12,11.7
		c1.9,1.9,2.8,4.6,2.3,7.2l-2.8,16.5c-1.1,6.6,5.8,11.7,11.8,8.6l14.8-7.8c2.4-1.2,5.2-1.2,7.6,0l14.8,7.8c6,3.1,12.9-1.9,11.8-8.6
		l-2.8-16.5c-0.4-2.6,0.4-5.3,2.3-7.2l12-11.7c4.8-4.7,2.2-12.9-4.5-13.9L419,86.4c-2.6-0.4-4.9-2-6.1-4.4l-7.4-15
		C402.4,60.9,393.8,60.9,390.8,66.9L390.8,66.9z"/>
	<path class="st1" d="M428.1,135.6l-26.2-13.8c-2.4-1.2-5.2-1.2-7.6,0l-26.2,13.8l-0.4,2.6c-1.1,6.6,5.8,11.7,11.8,8.6l14.8-7.8
		c2.4-1.2,5.2-1.2,7.6,0l14.8,7.8c6,3.1,12.9-1.9,11.8-8.6L428.1,135.6z"/>
	<path class="st0" d="M248.7,66.9l-7.4,15c-1.2,2.4-3.5,4.1-6.1,4.4l-16.6,2.4c-6.7,1-9.3,9.2-4.5,13.9l12,11.7
		c1.9,1.9,2.8,4.6,2.3,7.2l-2.8,16.5c-1.1,6.6,5.8,11.7,11.8,8.6l14.8-7.8c2.4-1.2,5.2-1.2,7.6,0l14.9,7.8c6,3.1,12.9-1.9,11.8-8.6
		l-2.8-16.5c-0.4-2.6,0.4-5.3,2.3-7.2l12-11.7c4.8-4.7,2.2-12.9-4.5-13.9l-16.6-2.4c-2.6-0.4-4.9-2-6.1-4.4l-7.4-15
		C260.3,60.9,251.7,60.9,248.7,66.9z"/>
	<path class="st1" d="M286,135.6l-26.2-13.8c-2.4-1.2-5.2-1.2-7.6,0L226,135.6l-0.4,2.6c-1.1,6.6,5.8,11.7,11.8,8.6l14.8-7.8
		c2.4-1.2,5.2-1.2,7.6,0l14.9,7.8c6,3.1,12.9-1.9,11.8-8.6L286,135.6z"/>
	<path class="st0" d="M106.6,66.9l-7.4,15c-1.2,2.4-3.5,4.1-6.1,4.4l-16.6,2.4c-6.7,1-9.3,9.2-4.5,13.9l12,11.7
		c1.9,1.9,2.8,4.6,2.3,7.2l-2.8,16.5c-1.1,6.6,5.8,11.7,11.8,8.6l14.9-7.8c2.4-1.2,5.2-1.2,7.6,0l14.8,7.8c6,3.1,12.9-1.9,11.8-8.6
		l-2.8-16.5c-0.5-2.6,0.4-5.3,2.3-7.2l12-11.7c4.8-4.7,2.2-12.9-4.5-13.9l-16.6-2.4c-2.7-0.4-4.9-2-6.1-4.4l-7.4-15
		C118.2,60.9,109.6,60.9,106.6,66.9z"/>
	<path class="st1" d="M143.9,135.6l-26.2-13.8c-2.4-1.2-5.2-1.2-7.6,0l-26.2,13.8l-0.4,2.6c-1.1,6.6,5.8,11.7,11.8,8.6l14.9-7.8
		c2.4-1.2,5.2-1.2,7.6,0l14.8,7.8c6,3.1,12.9-1.9,11.8-8.6L143.9,135.6z"/>
	<path class="st2" d="M292.3,258.6c6.1,0,11,4.9,11,11V282c0,3.9,3.2,7.1,7.1,7.1c3.9,0,7.1-3.2,7.1-7.1c0-6.1,4.9-11,11-11
		c6.1,0,11,4.9,11,11v12.4c0,3.9,3.2,7.1,7.1,7.1c3.9,0,7.1-3.2,7.1-7.1c0-6,4.9-11,11-11c6,0,11,4.9,11,11v43.6
		c0,61.4-24.5,88.5-24.7,88.7c-1.3,1.3-2,3.1-2,4.9v18h-17.3c-3.9,0-7.1,3.2-7.1,7.1s3.2,7.1,7.1,7.1h27.7c1.1,0,2,0.9,2,2v23.8
		c0,1.1-0.9,2-2,2H247c-1.1,0-2-0.9-2-2v-23.8c0-1.1,0.9-2,2-2h56.3c3.9,0,7.1-3.2,7.1-7.1s-3.2-7.1-7.1-7.1H258v-18
		c0-2-0.8-3.8-2.2-5.2l-32.5-30.9c-9.6-9.1-17.7-19.7-24-31.3L170.7,312c-0.7-1.8,0-2.9,1.9-3.2c11.7,0,22.8,5,30.6,13.7l29.2,32.7
		c4.1,4.9,12.9,1.8,12.7-4.8v-162c0-6,4.9-11,11-11c6.1,0,11,4.9,11,11v81.1c0,3.9,3.2,7.1,7.1,7.1s7.1-3.2,7.1-7.1
		C281.4,263.5,286.3,258.6,292.3,258.6z M477.9,19.6h-94.8c-3.9,0-7.1,3.2-7.1,7.1c0,3.9,3.2,7.1,7.1,7.1h94.8
		c3.9,0,7.1,3.2,7.1,7.1v143.7c0,3.9-3.2,7.1-7.1,7.1H281.4v-3.4c0-13.9-11.3-25.3-25.3-25.3c-13.9,0-25.3,11.3-25.3,25.3v3.4h-72.8
		c-3.9,0-7.1,3.2-7.1,7.1c0,3.9,3.2,7.1,7.1,7.1h72.8V332l-17-19c-10.5-11.7-25.5-18.5-41.2-18.5c-5.9,0-11.1,3-14.1,8
		c-3,5-3.1,11.1-0.3,16.3l28.4,52.2c7,13,16,24.7,26.7,34.8l30.3,28.8v15.3c-7.4,1.5-13,8.1-13,16v23.8c0,9,7.3,16.3,16.3,16.3
		h112.6c9,0,16.3-7.3,16.3-16.3v-23.8c0-7.7-5.4-14.1-12.5-15.9v-15.9c6.5-8.2,26.7-38.3,26.7-96.2v-43.6
		c0-13.9-11.3-25.3-25.3-25.3c-4.6,0-9,1.3-12.8,3.5c-3.7-9.3-12.8-15.9-23.5-15.9c-4.7,0-9,1.3-12.8,3.5
		c-3.7-9.3-12.8-15.9-23.5-15.9c-3.9,0-7.7,0.9-11,2.5v-40.7h196.5c11.8,0,21.4-9.6,21.4-21.4V41C499.3,29.2,489.7,19.6,477.9,19.6z
		"/>
	<path class="st2" d="M129.5,191.9H34.1c-3.9,0-7.1-3.2-7.1-7.1V41c0-3.9,3.2-7.1,7.1-7.1l320.4,0c3.9,0,7.1-3.2,7.1-7.1
		c0-3.9-3.2-7.1-7.1-7.1H34.1c-11.8,0-21.4,9.6-21.4,21.4v143.7c0,11.8,9.6,21.4,21.4,21.4l95.4,0c3.9,0,7.1-3.2,7.1-7.1
		C136.7,195.1,133.5,191.9,129.5,191.9"/>
	<path class="st2" d="M281,109c-3.6,3.5-5.2,8.6-4.4,13.5l2.8,16.6c0,0.2,0.1,0.6-0.4,1c-0.5,0.4-0.9,0.2-1.1,0.1l-14.9-7.8
		c-2.2-1.2-4.7-1.8-7.1-1.8c-2.4,0-4.9,0.6-7.1,1.8l-14.9,7.8c-0.1,0.1-0.5,0.3-1-0.1c-0.5-0.4-0.4-0.8-0.4-1l2.8-16.6
		c0.8-5-0.8-10-4.4-13.5l-12-11.7c-0.1-0.1-0.5-0.4-0.3-1c0.2-0.6,0.6-0.7,0.8-0.7l16.6-2.4c5-0.7,9.3-3.8,11.5-8.4l7.4-15.1
		c0.1-0.2,0.3-0.6,0.9-0.6c0.6,0,0.8,0.4,0.9,0.6l7.4,15.1c2.2,4.5,6.5,7.6,11.5,8.4l16.6,2.4c0.2,0,0.6,0.1,0.8,0.7
		c0.2,0.6-0.1,0.9-0.3,1L281,109z M303,107.5c4.2-4.1,5.7-10.1,3.9-15.7c-1.8-5.6-6.5-9.6-12.3-10.4L277.9,79
		c-0.3-0.1-0.6-0.3-0.8-0.5l-7.4-15.1c-2.6-5.3-7.8-8.5-13.7-8.5c-5.9,0-11.1,3.3-13.7,8.5l-7.4,15.1c-0.1,0.3-0.4,0.5-0.8,0.5
		l-16.6,2.4c-5.8,0.8-10.5,4.8-12.3,10.4c-1.8,5.6-0.3,11.6,3.9,15.7l12,11.7c0.2,0.2,0.3,0.6,0.3,0.9l-2.8,16.6
		c-1,5.8,1.3,11.5,6.1,14.9c4.7,3.4,10.9,3.9,16.1,1.2l14.9-7.8c0.3-0.2,0.6-0.2,0.9,0l14.9,7.8c2.3,1.2,4.7,1.8,7.1,1.8
		c3.2,0,6.3-1,9-2.9c4.7-3.4,7.1-9.2,6.1-14.9l-2.8-16.6c-0.1-0.3,0.1-0.7,0.3-0.9L303,107.5z"/>
	<path class="st2" d="M138.6,109c-3.6,3.5-5.2,8.6-4.4,13.5l2.8,16.6c0,0.2,0.1,0.6-0.4,1c-0.5,0.4-0.9,0.2-1,0.1l-14.9-7.8
		c-2.2-1.2-4.7-1.8-7.1-1.8c-2.4,0-4.9,0.6-7.1,1.8l-14.9,7.8c-0.2,0.1-0.5,0.3-1.1-0.1c-0.5-0.4-0.4-0.8-0.4-1l2.8-16.6
		c0.9-5-0.8-10-4.4-13.5l-12-11.7c-0.1-0.1-0.4-0.4-0.3-1c0.2-0.6,0.6-0.7,0.8-0.7l16.6-2.4c5-0.7,9.3-3.8,11.5-8.4l7.4-15.1
		c0.1-0.2,0.3-0.6,0.9-0.6c0.6,0,0.8,0.4,0.9,0.6l7.4,15.1c2.2,4.5,6.5,7.6,11.5,8.4l16.6,2.4c0.2,0,0.6,0.1,0.8,0.7
		c0.2,0.6-0.1,0.9-0.3,1L138.6,109z M151.1,136.7l-2.8-16.6c-0.1-0.3,0.1-0.7,0.3-0.9l12-11.7c4.2-4.1,5.7-10.1,3.9-15.7
		c-1.8-5.6-6.5-9.6-12.3-10.4L135.5,79c-0.3-0.1-0.6-0.3-0.8-0.5l-7.4-15.1c-2.6-5.3-7.8-8.5-13.7-8.5c-5.9,0-11.1,3.3-13.7,8.5
		l-7.4,15.1C92.3,78.8,92,79,91.7,79l-16.6,2.4c-5.8,0.8-10.5,4.8-12.3,10.4c-1.8,5.6-0.3,11.6,3.9,15.7l12,11.7
		c0.2,0.2,0.3,0.6,0.3,0.9l-2.8,16.6c-1,5.8,1.3,11.5,6.1,14.9c4.7,3.4,10.9,3.9,16.1,1.2l14.9-7.8c0.3-0.2,0.6-0.2,0.9,0l14.9,7.8
		c2.3,1.2,4.7,1.8,7.1,1.8c3.2,0,6.3-1,9-2.9C149.8,148.2,152.1,142.5,151.1,136.7z"/>
	<path class="st2" d="M423.4,109c-3.6,3.5-5.2,8.6-4.4,13.5l2.8,16.6c0,0.2,0.1,0.6-0.4,1c-0.5,0.4-0.9,0.2-1.1,0.1l-14.9-7.8
		c-2.2-1.2-4.7-1.8-7.1-1.8c-2.4,0-4.9,0.6-7.1,1.8l-14.9,7.8c-0.2,0.1-0.5,0.3-1.1-0.1c-0.5-0.4-0.4-0.8-0.4-1l2.8-16.6
		c0.9-5-0.8-10-4.4-13.5l-12-11.7c-0.1-0.1-0.5-0.4-0.3-1c0.2-0.6,0.6-0.6,0.8-0.7l16.6-2.4c5-0.7,9.3-3.8,11.5-8.4l7.4-15.1
		c0.1-0.2,0.3-0.6,0.9-0.6c0.6,0,0.8,0.4,0.9,0.6l7.4,15.1c2.2,4.5,6.5,7.6,11.5,8.4l16.6,2.4c0.2,0,0.6,0.1,0.8,0.7
		c0.2,0.6-0.1,0.9-0.3,1L423.4,109z M445.4,107.5c4.2-4.1,5.7-10.1,3.9-15.7c-1.8-5.6-6.5-9.6-12.3-10.4L420.3,79
		c-0.3-0.1-0.6-0.3-0.8-0.5l-7.4-15.1c-2.6-5.3-7.8-8.5-13.7-8.5c-5.9,0-11.1,3.3-13.7,8.5l-7.4,15.1c-0.1,0.3-0.4,0.5-0.8,0.5
		l-16.6,2.4c-5.8,0.8-10.5,4.8-12.3,10.4c-1.8,5.6-0.3,11.6,3.9,15.7l12,11.7c0.2,0.2,0.3,0.6,0.3,0.9l-2.8,16.6
		c-1,5.8,1.3,11.5,6.1,14.9c4.7,3.4,10.9,3.9,16.1,1.2l14.9-7.8c0.3-0.2,0.6-0.2,0.9,0l14.9,7.8c2.3,1.2,4.7,1.8,7.1,1.8
		c3.2,0,6.3-1,9-2.9c4.7-3.4,7.1-9.2,6.1-14.9l-2.8-16.6c-0.1-0.3,0.1-0.7,0.3-0.9L445.4,107.5z"/>
</g>
</svg>
