<svg id="Layer_1" data-name="Layer 1" xmlns="http://www.w3.org/2000/svg" xmlns:xlink="http://www.w3.org/1999/xlink" viewBox="0 0 1036.85 792.49"><defs><style>.cls-1{fill:none;}.cls-10,.cls-11,.cls-12,.cls-13,.cls-14,.cls-15,.cls-16,.cls-17,.cls-18,.cls-19,.cls-2,.cls-20,.cls-21,.cls-22,.cls-23,.cls-24,.cls-25,.cls-26,.cls-27,.cls-28,.cls-29,.cls-3,.cls-30,.cls-4,.cls-5,.cls-55,.cls-56,.cls-57,.cls-58,.cls-59,.cls-6,.cls-60,.cls-61,.cls-62,.cls-63,.cls-64,.cls-7,.cls-8,.cls-9{fill-rule:evenodd;}.cls-2{fill:url(#radial-gradient);}.cls-3{fill:url(#radial-gradient-2);}.cls-4{fill:url(#radial-gradient-3);}.cls-5{fill:url(#radial-gradient-4);}.cls-6{fill:url(#radial-gradient-5);}.cls-7{fill:url(#radial-gradient-6);}.cls-31,.cls-32,.cls-55,.cls-8{fill:#818181;}.cls-32,.cls-8{stroke:#818181;stroke-miterlimit:10;stroke-width:0.22px;}.cls-9{fill:url(#radial-gradient-7);}.cls-10{fill:url(#radial-gradient-8);}.cls-11{fill:url(#radial-gradient-9);}.cls-12{fill:url(#radial-gradient-10);}.cls-13{fill:url(#radial-gradient-11);}.cls-14{fill:url(#radial-gradient-12);}.cls-15{fill:url(#radial-gradient-13);}.cls-16{fill:url(#radial-gradient-14);}.cls-17{fill:url(#radial-gradient-15);}.cls-18{fill:url(#radial-gradient-16);}.cls-19{fill:url(#radial-gradient-17);}.cls-20{fill:url(#radial-gradient-18);}.cls-21{fill:url(#radial-gradient-19);}.cls-22{fill:url(#radial-gradient-20);}.cls-23{fill:url(#radial-gradient-21);}.cls-24{fill:url(#radial-gradient-22);}.cls-25{fill:url(#radial-gradient-23);}.cls-26{fill:url(#radial-gradient-24);}.cls-27{fill:url(#radial-gradient-25);}.cls-28{fill:url(#radial-gradient-26);}.cls-29{fill:url(#radial-gradient-27);}.cls-30{fill:url(#radial-gradient-28);}.cls-33{fill:#464a56;}.cls-34{fill:#43444e;}.cls-35{fill:#b4b4b4;}.cls-36{fill:#989898;}.cls-37{fill:#404148;}.cls-38{fill:#f6f5f5;}.cls-39{fill:#59606b;}.cls-40{fill:#4a8db3;}.cls-41{fill:#676767;}.cls-42{fill:#e6e6e5;}.cls-43{fill:#a8a6a4;}.cls-44{fill:#d45e5f;}.cls-45{fill:#e4af4b;}.cls-46{fill:#adbe60;}.cls-47{fill:#d8dee5;}.cls-48{fill:#d8d6d4;}.cls-49{fill:#a4a7a9;}.cls-50{clip-path:url(#clip-path);}.cls-51{clip-path:url(#clip-path-2);}.cls-52{clip-path:url(#clip-path-3);}.cls-53{clip-path:url(#clip-path-4);}.cls-54{clip-path:url(#clip-path-5);}.cls-56{fill:url(#linear-gradient);}.cls-57{fill:url(#linear-gradient-2);}.cls-58{fill:url(#linear-gradient-3);}.cls-59{fill:url(#linear-gradient-4);}.cls-60{fill:url(#linear-gradient-5);}.cls-61{fill:url(#linear-gradient-6);}.cls-62{fill:url(#linear-gradient-7);}.cls-63{fill:url(#linear-gradient-8);}.cls-64{fill:url(#linear-gradient-9);}.cls-65{fill:#c99941;}.cls-66{fill:#bf4450;}.cls-67{fill:#99a64f;}.cls-68{fill:#c4cbd8;}.cls-69{fill:#24acc6;}.cls-70{fill:#3a7ea1;}.cls-71{fill:#3b6285;}.cls-72{fill:#853742;}.cls-73{fill:#a17440;}.cls-74{fill:#798c4e;}.cls-75{fill:#3c3d41;}</style><radialGradient id="radial-gradient" cx="8242.75" cy="-7109.61" r="3061.98" gradientTransform="matrix(0.07, 0, 0, -0.07, 0.93, 78.83)" gradientUnits="userSpaceOnUse"><stop offset="0" stop-color="#3a7ca1"/><stop offset="1" stop-color="#3b6a90"/></radialGradient><radialGradient id="radial-gradient-2" cx="8244.18" cy="-7109.78" r="2412.2" gradientTransform="matrix(0.07, 0, 0, -0.07, -22.95, -141.69)" xlink:href="#radial-gradient"/><radialGradient id="radial-gradient-3" cx="8240.31" cy="-7107.72" r="3065.29" gradientTransform="matrix(0.07, 0, 0, -0.07, -22.95, -141.69)" xlink:href="#radial-gradient"/><radialGradient id="radial-gradient-4" cx="8246.07" cy="-7107.37" r="2975.16" gradientTransform="matrix(0.07, 0, 0, -0.07, -22.95, -141.69)" xlink:href="#radial-gradient"/><radialGradient id="radial-gradient-5" cx="8240.11" cy="-7113.39" r="3178.83" gradientTransform="matrix(0.07, 0, 0, -0.07, -22.95, -141.69)" xlink:href="#radial-gradient"/><radialGradient id="radial-gradient-6" cx="8244.64" cy="-7113.21" r="3178.69" gradientTransform="matrix(0.07, 0, 0, -0.07, -22.95, -141.69)" xlink:href="#radial-gradient"/><radialGradient id="radial-gradient-7" cx="8244.18" cy="-7107.2" r="3178.95" gradientTransform="matrix(0.07, 0, 0, -0.07, -22.95, -141.69)" xlink:href="#radial-gradient"/><radialGradient id="radial-gradient-8" cx="8237.74" cy="-7107.2" r="3178.83" gradientTransform="matrix(0.07, 0, 0, -0.07, -22.95, -141.69)" xlink:href="#radial-gradient"/><radialGradient id="radial-gradient-9" cx="8244.18" cy="-7113.39" r="3179.91" gradientTransform="matrix(0.07, 0, 0, -0.07, -22.95, -141.69)" xlink:href="#radial-gradient"/><radialGradient id="radial-gradient-10" cx="8240.31" cy="-7109.95" r="1141.76" gradientTransform="matrix(0.07, 0, 0, -0.07, -22.95, -141.69)" xlink:href="#radial-gradient"/><radialGradient id="radial-gradient-11" cx="8244.92" cy="-7107.37" r="3179.78" gradientTransform="matrix(0.07, 0, 0, -0.07, -22.95, -141.69)" xlink:href="#radial-gradient"/><radialGradient id="radial-gradient-12" cx="8236.66" cy="-7108.23" r="3179.78" gradientTransform="matrix(0.07, 0, 0, -0.07, -22.95, -141.69)" xlink:href="#radial-gradient"/><radialGradient id="radial-gradient-13" cx="8241.74" cy="-7107.37" r="3178.83" gradientTransform="matrix(0.07, 0, 0, -0.07, -22.95, -141.69)" xlink:href="#radial-gradient"/><radialGradient id="radial-gradient-14" cx="8236.79" cy="-7107.55" r="3178.95" gradientTransform="matrix(0.07, 0, 0, -0.07, -22.95, -141.69)" xlink:href="#radial-gradient"/><radialGradient id="radial-gradient-15" cx="8240.25" cy="-7107.89" r="3179.91" xlink:href="#radial-gradient"/><radialGradient id="radial-gradient-16" cx="8246.67" cy="-7107.55" r="3178.62" gradientTransform="matrix(0.07, 0, 0, -0.07, -22.95, -141.69)" xlink:href="#radial-gradient"/><radialGradient id="radial-gradient-17" cx="8243.63" cy="-7108.58" r="3061.37" gradientTransform="matrix(0.07, 0, 0, -0.07, -22.95, -141.69)" xlink:href="#radial-gradient"/><radialGradient id="radial-gradient-18" cx="8236.54" cy="-7107.37" r="3178.95" gradientTransform="matrix(0.07, 0, 0, -0.07, -22.95, -141.69)" xlink:href="#radial-gradient"/><radialGradient id="radial-gradient-19" cx="8241.05" cy="-7107.37" r="3178.62" gradientTransform="matrix(0.07, 0, 0, -0.07, -22.95, -141.69)" xlink:href="#radial-gradient"/><radialGradient id="radial-gradient-20" cx="8246" cy="-7107.89" r="3061.91" gradientTransform="matrix(0.07, 0, 0, -0.07, -22.95, -141.69)" xlink:href="#radial-gradient"/><radialGradient id="radial-gradient-21" cx="8237.62" cy="-7108.92" r="3067.2" gradientTransform="matrix(0.07, 0, 0, -0.07, -22.95, -141.69)" xlink:href="#radial-gradient"/><radialGradient id="radial-gradient-22" cx="8243.77" cy="-7110.47" r="1228.38" gradientTransform="matrix(0.07, 0, 0, -0.07, -22.95, -141.69)" xlink:href="#radial-gradient"/><radialGradient id="radial-gradient-23" cx="8245.72" cy="-7107.72" r="3178.14" gradientTransform="matrix(0.07, 0, 0, -0.07, -22.95, -141.69)" xlink:href="#radial-gradient"/><radialGradient id="radial-gradient-24" cx="8243.63" cy="-7109.09" r="1437.99" gradientTransform="matrix(0.07, 0, 0, -0.07, -22.95, -141.69)" xlink:href="#radial-gradient"/><radialGradient id="radial-gradient-25" cx="8244.18" cy="-7111.84" r="3178.83" gradientTransform="matrix(0.07, 0, 0, -0.07, -22.95, -141.69)" xlink:href="#radial-gradient"/><radialGradient id="radial-gradient-26" cx="8243.22" cy="-7107.89" r="3178.69" gradientTransform="matrix(0.07, 0, 0, -0.07, -22.95, -141.69)" xlink:href="#radial-gradient"/><radialGradient id="radial-gradient-27" cx="8236.54" cy="-7108.58" r="3178.95" xlink:href="#radial-gradient"/><radialGradient id="radial-gradient-28" cx="8244.99" cy="-7108.58" r="3178.95" gradientTransform="matrix(0.07, 0, 0, -0.07, -22.95, -141.69)" xlink:href="#radial-gradient"/><clipPath id="clip-path" transform="translate(-23.88 -220.53)"><polygon class="cls-1" points="397.93 569.1 397.93 569.1 405.35 565.39 397.93 569.1 397.93 569.1"/></clipPath><clipPath id="clip-path-2" transform="translate(-23.88 -220.53)"><polygon class="cls-1" points="348.47 597.54 348.47 597.54 395.46 570.33 395.46 570.33 348.47 597.54 348.47 597.54"/></clipPath><clipPath id="clip-path-3" transform="translate(-23.88 -220.53)"><polygon class="cls-1" points="430.08 642.05 425.14 642.05 428.85 639.58 430.08 642.05 430.08 642.05"/></clipPath><clipPath id="clip-path-4" transform="translate(-23.88 -220.53)"><polygon class="cls-1" points="327.45 519.63 327.45 519.63 346 508.5 346 508.5 327.45 519.63 327.45 519.63"/></clipPath><clipPath id="clip-path-5" transform="translate(-23.88 -220.53)"><rect class="cls-1" x="410.04" y="558.59" width="1.75" transform="translate(-274.62 454.17) rotate(-45)"/></clipPath><linearGradient id="linear-gradient" x1="4947.22" y1="-7503.93" x2="4947.22" y2="-7772.54" gradientTransform="matrix(0.07, 0, 0, -0.07, 0.93, 78.83)" gradientUnits="userSpaceOnUse"><stop offset="0" stop-color="#9a9a9e"/><stop offset="1" stop-color="#43444e"/></linearGradient><linearGradient id="linear-gradient-2" x1="4492.1" y1="-7709" x2="4492.1" y2="-7800.53" gradientTransform="matrix(0.07, 0, 0, -0.07, 0.93, 78.83)" gradientUnits="userSpaceOnUse"><stop offset="0" stop-color="#979699"/><stop offset="1" stop-color="#404148"/></linearGradient><linearGradient id="linear-gradient-3" x1="4741.13" y1="-7069.42" x2="4741.13" y2="-7713.29" gradientTransform="matrix(0.07, 0, 0, -0.07, 0.93, 78.83)" gradientUnits="userSpaceOnUse"><stop offset="0" stop-color="#a3a4a8"/><stop offset="1" stop-color="#464a56"/></linearGradient><linearGradient id="linear-gradient-4" x1="4586.56" y1="-5850.72" x2="4586.56" y2="-5924.57" gradientTransform="matrix(0.07, 0, 0, -0.07, -22.95, -141.69)" gradientUnits="userSpaceOnUse"><stop offset="0" stop-color="#d3d4d3"/><stop offset="1" stop-color="#a4a7a9"/></linearGradient><linearGradient id="linear-gradient-5" x1="4569.38" y1="-5839.39" x2="4569.38" y2="-5847.29" gradientTransform="matrix(0.07, 0, 0, -0.07, 0.93, 78.83)" gradientUnits="userSpaceOnUse"><stop offset="0" stop-color="#e9ecf0"/><stop offset="1" stop-color="#d8dee5"/></linearGradient><linearGradient id="linear-gradient-6" x1="4564.35" y1="-7312.27" x2="4564.35" y2="-7580.7" xlink:href="#linear-gradient-5"/><linearGradient id="linear-gradient-7" x1="4492.1" y1="-7299.39" x2="4492.1" y2="-7496.38" xlink:href="#linear-gradient-5"/><linearGradient id="linear-gradient-8" x1="4435.55" y1="-7276.03" x2="4435.55" y2="-7416.86" xlink:href="#linear-gradient-5"/><linearGradient id="linear-gradient-9" x1="4367.11" y1="-7263.66" x2="4367.11" y2="-7316.22" xlink:href="#linear-gradient-5"/></defs><path class="cls-2" d="M320,523.34h0l7.42-3.71h0Zm26-14.84h0l49.46-28.44h1.24Z" transform="translate(-23.88 -220.53)"/><polygon class="cls-3" points="387.66 337.44 387.66 337.44 448.25 302.82 448.25 302.82 387.66 337.44"/><polygon class="cls-4" points="528.63 437.6 528.63 437.6 604.06 394.32 604.06 394.32 528.63 437.6"/><polygon class="cls-5" points="607.77 483.36 606.53 483.36 680.73 441.31 607.77 483.36"/><polygon class="cls-6" points="611.48 121.04 609 118.57 684.43 75.29 688.14 76.53 611.48 121.04"/><polygon class="cls-7" points="769.76 121.04 769.76 121.04 766.05 118.57 842.71 75.29 845.19 76.53 769.76 121.04"/><polygon class="cls-8" points="544.7 159.38 544.7 156.9 606.53 121.04 609 122.28 544.7 159.38"/><polygon class="cls-9" points="690.62 166.8 686.91 164.32 686.91 164.32 763.58 121.04 766.05 122.28 690.62 166.8"/><polygon class="cls-10" points="768.52 212.55 766.05 210.08 841.48 166.8 845.19 168.03 768.52 212.55"/><polygon class="cls-11" points="451.96 576.1 449.49 574.86 449.49 574.86 524.92 530.34 528.63 532.82 451.96 576.1"/><polygon class="cls-12" points="529.87 621.85 529.87 621.85 558.31 605.77 529.87 621.85"/><polygon class="cls-13" points="686.91 713.36 686.91 713.36 684.43 710.88 759.87 667.6 763.58 668.84 686.91 713.36"/><polygon class="cls-14" points="689.38 257.06 686.91 255.83 762.34 212.55 766.05 213.78 689.38 257.06"/><polygon class="cls-15" points="847.66 257.06 843.95 255.83 920.62 212.55 923.09 213.78 847.66 257.06"/><polygon class="cls-16" points="611.48 302.82 607.77 301.58 684.43 257.06 686.91 259.54 611.48 302.82"/><path class="cls-17" d="M792.4,523.34l-3.71-1.23,9.89-5-1.24,3.71Zm17.31-9.89L806,512.21l59.35-34.62,2.48,2.47Z" transform="translate(-23.88 -220.53)"/><polygon class="cls-18" points="925.56 302.82 923.09 301.58 998.52 257.06 1000.99 259.54 925.56 302.82"/><polygon class="cls-19" points="217.02 348.57 217.02 348.57 293.68 305.29 293.68 305.29 217.02 348.57"/><polygon class="cls-20" points="532.34 348.57 528.63 347.33 605.29 302.82 607.77 305.29 532.34 348.57"/><polygon class="cls-21" points="689.38 348.57 686.91 347.33 762.34 302.82 764.81 305.29 689.38 348.57"/><polygon class="cls-22" points="137.88 394.32 137.88 394.32 214.54 349.81 214.54 349.81 137.88 394.32"/><polygon class="cls-23" points="607.77 393.09 607.77 393.09 683.2 348.57 683.2 348.57 607.77 393.09"/><polygon class="cls-24" points="767.28 394.32 764.81 393.09 792.02 377.01 795.73 378.25 767.28 394.32"/><polygon class="cls-25" points="689.38 440.07 688.14 438.84 685.67 437.6 762.34 394.32 764.81 395.56 689.38 440.07"/><polygon class="cls-26" points="490.3 459.86 490.3 459.86 526.16 440.07 526.16 440.07 490.3 459.86"/><polygon class="cls-27" points="531.1 530.34 529.87 529.11 529.87 530.34 528.63 529.11 604.06 485.83 606.53 487.06 531.1 530.34"/><polygon class="cls-28" points="372.82 621.85 370.35 620.61 445.78 576.1 449.49 578.57 372.82 621.85"/><path class="cls-29" d="M475.84,888.13l-3.71-1.24,4.94-3.71,3.71,2.48Zm72.95-42h0l2.48-2.48v1.24Z" transform="translate(-23.88 -220.53)"/><polygon class="cls-30" points="607.77 759.11 605.29 756.63 681.96 713.36 684.43 714.59 607.77 759.11"/><polygon class="cls-31" points="764.81 395.56 683.2 348.57 685.67 347.33 843.95 255.83 845.19 258.3 689.38 348.57 766.05 393.09 764.81 395.56"/><polygon class="cls-31" points="529.87 349.81 528.63 347.33 764.81 210.08 766.05 213.78 529.87 349.81"/><polygon class="cls-31" points="292.45 395.56 291.21 393.09 450.73 301.58 451.96 304.05 292.45 395.56"/><polygon class="cls-31" points="93.36 420.29 92.12 417.82 369.11 257.06 293.68 213.78 214.54 259.54 135.4 213.78 136.64 210.08 214.54 255.83 293.68 210.08 375.3 257.06 93.36 420.29"/><polygon class="cls-31" points="450.73 487.06 449.49 484.59 685.67 347.33 686.91 349.81 450.73 487.06"/><polygon class="cls-31" points="683.2 531.58 604.06 485.83 683.2 440.07 607.77 395.56 609 393.09 689.38 440.07 610.24 485.83 684.43 529.11 683.2 531.58"/><polygon class="cls-31" points="920.62 577.33 685.67 441.31 686.91 438.84 921.85 574.86 920.62 577.33"/><polygon class="cls-31" points="684.43 714.59 683.2 712.12 759.87 667.6 681.96 621.85 841.48 529.11 842.71 531.58 688.14 621.85 766.05 667.6 684.43 714.59"/><polygon class="cls-32" points="370.35 623.09 369.11 623.09 256.59 557.55 259.06 555.08 370.35 620.61 606.53 484.59 607.77 487.06 370.35 623.09"/><polygon class="cls-31" points="487.82 646.58 485.35 644.11 604.06 576.1 528.63 531.58 529.87 529.11 609 576.1 487.82 646.58"/><path class="cls-33" d="M918.53,577.75h0c0-1.23,0-1.23-1.24-2.47L803.53,509.74h-3.71l105.1,138.5L907.4,647h0a1.21,1.21,0,0,0,1.23-1.24l11.13-65.53C919.76,579,919.76,579,918.53,577.75Z" transform="translate(-23.88 -220.53)"/><path class="cls-34" d="M903.69,648.24,789.92,581.46c-1.23,0-2.47-2.47-2.47-3.71l11.13-65.54c0-1.23,1.24-2.47,2.47-1.23l113.77,65.54c2.47,1.23,3.71,2.47,3.71,4.94l-12.37,64.3C906.16,648.24,904.92,648.24,903.69,648.24Z" transform="translate(-23.88 -220.53)"/><polygon class="cls-35" points="768.52 357.23 779.65 296.63 889.7 359.7 877.34 420.29 768.52 357.23"/><polygon class="cls-36" points="877.34 420.29 768.52 357.23 889.7 359.7 877.34 420.29"/><path class="cls-33" d="M860.41,546.84l-1.24-1.24h-1.24a4.29,4.29,0,0,0,1.24,2.47A1.21,1.21,0,0,0,860.41,546.84Z" transform="translate(-23.88 -220.53)"/><path class="cls-37" d="M720.68,618.56v4.94c0,1.24,0,1.24,1.23,1.24l113.77,66.78h4.94v-4.95Z" transform="translate(-23.88 -220.53)"/><path class="cls-34" d="M903.69,649.47v3.71h0v1.24l-63.07,37.1v-4.95Z" transform="translate(-23.88 -220.53)"/><path class="cls-33" d="M903.69,649.47v1.24l-9.9,4.95-53.17,30.91a3.75,3.75,0,0,1-4.94,0L738,630.92,721.91,621c-1.23-1.23-1.23-1.23-1.23-2.47l1.23-1.24,61.83-35.86c1.24-1.23,3.71-1.23,6.18,0L903.69,647C903.69,648.24,904.92,648.24,903.69,649.47Z" transform="translate(-23.88 -220.53)"/><path class="cls-38" d="M780,592.59l5,2.47c0,1.24,1.23,1.24,1.23,0l4.95-2.47v-1.24l-4.95-2.47H785l-5,2.47Z" transform="translate(-23.88 -220.53)"/><path class="cls-38" d="M757.77,605l7.42,4.94h1.24l4.94-2.47v-1.24L764,602.48c0-1.23-1.24-1.23-1.24,0l-5,2.48Z" transform="translate(-23.88 -220.53)"/><path class="cls-38" d="M765.19,601.25l9.89,6.18h1.24l4.95-3.71h0l-9.9-6.18h-1.23L765.19,600C764,600,764,601.25,765.19,601.25Z" transform="translate(-23.88 -220.53)"/><path class="cls-38" d="M772.61,597.54l11.13,6.18h2.47l3.71-2.47c1.24,0,1.24-1.24,0-1.24l-11.13-6.18c-1.23-1.24-1.23-1.24-2.47,0l-3.71,2.47C771.37,596.3,771.37,596.3,772.61,597.54Z" transform="translate(-23.88 -220.53)"/><path class="cls-38" d="M798.58,596.3l-5-2.47c0-1.24-1.23-1.24-1.23,0l-4.95,2.47v1.24L792.4,600h1.23l5-2.47Z" transform="translate(-23.88 -220.53)"/><path class="cls-38" d="M806,600l-5-2.47h-1.23l-5,2.47v1.24l5,2.47h1.23l5-2.47Z" transform="translate(-23.88 -220.53)"/><path class="cls-38" d="M772.61,607.43l-4.94,2.47v1.24l4.94,2.47h1.24l4.94-2.47V609.9l-4.94-2.47Z" transform="translate(-23.88 -220.53)"/><path class="cls-38" d="M781.27,605l-3.71,2.47c-1.24,0-1.24,0,0,1.24l3.71,2.47h2.47l3.71-2.47c1.24-1.24,1.24-1.24,0-1.24L783.74,605Z" transform="translate(-23.88 -220.53)"/><path class="cls-38" d="M797.34,605l-3.71-3.71h-2.47L787.45,605h0l3.71,3.71h2.47l3.71-3.71Z" transform="translate(-23.88 -220.53)"/><path class="cls-38" d="M813.42,605l-4.95-3.71h-1.23l-5,3.71h0l5,3.71h1.23l4.95-3.71Z" transform="translate(-23.88 -220.53)"/><path class="cls-38" d="M780,612.38l-4.95,2.47c-1.23,0-1.23,0,0,1.24l4.95,2.47h1.24l4.94-2.47v-1.24l-4.94-2.47C780,611.14,780,611.14,780,612.38Z" transform="translate(-23.88 -220.53)"/><path class="cls-38" d="M794.87,611.14l-3.71-2.47h-2.47L785,611.14c-1.24,1.24-1.24,1.24,0,1.24l3.71,2.47h2.47l3.71-2.47C796.11,612.38,796.11,612.38,794.87,611.14Z" transform="translate(-23.88 -220.53)"/><path class="cls-38" d="M804.76,608.67l-4.94-2.48h-1.24l-5,2.48v1.23l5,2.48h1.24l4.94-2.48C806,609.9,806,608.67,804.76,608.67Z" transform="translate(-23.88 -220.53)"/><path class="cls-38" d="M819.6,608.67l-3.71-2.48h-2.47l-3.71,2.48c-1.24,0-1.24,1.23,0,1.23l3.71,2.48h2.47l3.71-2.48C820.84,609.9,820.84,608.67,819.6,608.67Z" transform="translate(-23.88 -220.53)"/><path class="cls-38" d="M782.5,619.8l3.71,2.47h2.48l4.94-2.47v-1.24l-4.94-2.47h-2.48l-3.71,2.47C781.27,618.56,781.27,619.8,782.5,619.8Z" transform="translate(-23.88 -220.53)"/><path class="cls-38" d="M802.29,616.09l-4.95-2.48c0-1.23,0-1.23-1.23,0l-5,2.48v1.23l5,2.48h1.23l4.95-2.48C803.53,616.09,803.53,616.09,802.29,616.09Z" transform="translate(-23.88 -220.53)"/><path class="cls-38" d="M812.18,612.38l-4.94-2.48H806l-5,2.48v1.23l5,2.48c0,1.23,1.24,1.23,1.24,0l4.94-2.48Z" transform="translate(-23.88 -220.53)"/><path class="cls-38" d="M827,612.38l-3.71-2.48h-2.47l-3.71,2.48c-1.24,1.23-1.24,1.23,0,1.23l3.71,2.48c1.23,1.23,1.23,1.23,2.47,0l3.71-2.48C828.26,613.61,828.26,613.61,827,612.38Z" transform="translate(-23.88 -220.53)"/><path class="cls-38" d="M789.92,623.5l3.71,2.48c1.24,1.23,1.24,1.23,2.48,0l3.71-2.48h0l-3.71-3.7h-2.48l-3.71,3.7Z" transform="translate(-23.88 -220.53)"/><path class="cls-38" d="M809.71,619.8l-5-2.48h-1.23l-4.95,2.48V621l4.95,2.47h1.23l5-2.47Z" transform="translate(-23.88 -220.53)"/><path class="cls-38" d="M819.6,617.32l-5-2.47c0-1.24-1.23-1.24-1.23,0l-4.95,2.47v1.24l4.95,2.47h1.23l5-2.47Z" transform="translate(-23.88 -220.53)"/><path class="cls-38" d="M834.44,617.32l-5-2.47c0-1.24,0-1.24-1.23,0l-5,2.47v1.24l5,2.47h1.23l5-2.47C835.68,617.32,835.68,617.32,834.44,617.32Z" transform="translate(-23.88 -220.53)"/><path class="cls-38" d="M796.11,628.45l4.94,2.47h2.48l3.71-2.47c1.23,0,1.23-1.24,0-1.24l-3.71-2.47h-2.48l-4.94,2.47Z" transform="translate(-23.88 -220.53)"/><path class="cls-38" d="M817.13,624.74l-5-3.71h-1.24L806,624.74h0l4.94,2.47c0,1.24,1.24,1.24,1.24,0l5-2.47Z" transform="translate(-23.88 -220.53)"/><path class="cls-38" d="M827,621l-4.95-2.47h-1.23l-5,2.47v1.24l5,2.47h1.23l4.95-2.47Z" transform="translate(-23.88 -220.53)"/><path class="cls-38" d="M841.86,621l-5-2.47h-1.23L830.73,621v1.24l4.95,2.47h1.23l5-2.47Z" transform="translate(-23.88 -220.53)"/><path class="cls-38" d="M803.53,632.16l4.94,2.47c0,1.24,1.24,1.24,1.24,0l4.94-2.47c1.24,0,1.24,0,0-1.24l-4.94-2.47h-1.24l-4.94,2.47Z" transform="translate(-23.88 -220.53)"/><path class="cls-38" d="M824.55,628.45,819.6,626h-1.24l-4.94,2.47v1.24l4.94,2.47h1.24l4.95-2.47Z" transform="translate(-23.88 -220.53)"/><path class="cls-38" d="M834.44,626l-5-3.71h-1.23l-5,3.71h0l5,3.71h1.23l5-3.71Z" transform="translate(-23.88 -220.53)"/><path class="cls-38" d="M849.28,626l-4.95-3.71H843.1l-5,3.71h0l5,3.71h1.23l4.95-3.71Z" transform="translate(-23.88 -220.53)"/><path class="cls-38" d="M810.94,637.11l4.95,2.47h1.24l4.94-2.47v-1.24l-4.94-2.47c0-1.24-1.24-1.24-1.24,0l-4.95,2.47Z" transform="translate(-23.88 -220.53)"/><path class="cls-38" d="M832,632.16l-5-2.47h-1.24l-4.94,2.47v1.24l4.94,2.47H827l5-2.47Z" transform="translate(-23.88 -220.53)"/><path class="cls-38" d="M841.86,629.69l-5-2.48h-1.23l-4.95,2.48v1.23l4.95,2.48h1.23l5-2.48Z" transform="translate(-23.88 -220.53)"/><path class="cls-38" d="M859.17,630.92l-7.42-3.71h-1.24l-4.94,2.48v1.23l7.42,3.71h1.23l4.95-2.47Z" transform="translate(-23.88 -220.53)"/><path class="cls-38" d="M818.36,640.82l4.95,2.47h1.24l4.94-2.47v-1.24l-4.94-2.47h-1.24l-4.95,2.47Z" transform="translate(-23.88 -220.53)"/><path class="cls-38" d="M838.15,653.18l-3.71-2.47H832l-3.71,2.47c-1.24,1.24-1.24,1.24,0,1.24l3.71,2.47c1.23,1.24,1.23,1.24,2.47,0l3.71-2.47C839.39,654.42,839.39,654.42,838.15,653.18Z" transform="translate(-23.88 -220.53)"/><path class="cls-38" d="M845.57,658.13l-3.71-2.47c-1.24-1.24-1.24-1.24-2.47,0l-3.71,2.47c-1.24,0-1.24,0,0,1.24l3.71,2.47h2.47l3.71-2.47C846.81,658.13,846.81,658.13,845.57,658.13Z" transform="translate(-23.88 -220.53)"/><path class="cls-38" d="M853,661.84l-3.71-2.47h-2.47l-4.95,2.47v1.23l4.95,2.48h2.47l3.71-2.48C854.22,663.07,854.22,661.84,853,661.84Z" transform="translate(-23.88 -220.53)"/><path class="cls-38" d="M860.41,666.78l-4.95-3.71h-1.24l-4.94,3.71h0l4.94,3.71h1.24l4.95-3.71Z" transform="translate(-23.88 -220.53)"/><path class="cls-38" d="M835.68,650.71l3.71,2.47h2.47l3.71-2.47c1.24-1.24,1.24-1.24,0-1.24L841.86,647h-2.47l-3.71,2.47C834.44,649.47,834.44,649.47,835.68,650.71Z" transform="translate(-23.88 -220.53)"/><path class="cls-38" d="M843.1,654.42l3.71,2.47h2.47l3.71-2.47c1.23,0,1.23,0,0-1.24l-3.71-2.47h-2.47l-3.71,2.47C841.86,654.42,841.86,654.42,843.1,654.42Z" transform="translate(-23.88 -220.53)"/><path class="cls-38" d="M849.28,659.37l4.94,2.47h1.24l4.95-2.47c1.23-1.24,1.23-1.24,0-1.24l-4.95-2.47c0-1.24,0-1.24-1.24,0l-4.94,2.47Z" transform="translate(-23.88 -220.53)"/><path class="cls-38" d="M875.25,658.13l-5-2.47c0-1.24-1.24-1.24-1.24,0l-12.36,6.18v1.23l4.94,2.48h1.24l12.37-7.42Z" transform="translate(-23.88 -220.53)"/><path class="cls-38" d="M871.54,654.42l4.94,2.47h1.24l12.36-6.18v-1.24L885.14,647c0-1.24-1.24-1.24-1.24,0l-12.36,6.18Z" transform="translate(-23.88 -220.53)"/><path class="cls-38" d="M853,645.76l-3.71-3.71h-2.47l-3.71,3.71h0l3.71,2.48c1.23,1.23,1.23,1.23,2.47,0l3.71-2.48Z" transform="translate(-23.88 -220.53)"/><path class="cls-38" d="M849.28,650.71l4.94,2.47h2.48l3.71-2.47c1.23-1.24,1.23-1.24,0-1.24L856.7,647h-2.48l-4.94,2.47Z" transform="translate(-23.88 -220.53)"/><path class="cls-38" d="M862.88,656.89l5-2.47c1.23,0,1.23,0,0-1.24l-5-2.47h-1.24l-4.94,2.47v1.24l4.94,2.47Z" transform="translate(-23.88 -220.53)"/><path class="cls-38" d="M860.41,640.82l-3.71-2.48h-2.48l-3.71,2.48c-1.23,0-1.23,1.23,0,1.23l3.71,2.48h2.48l3.71-2.48C861.64,642.05,861.64,640.82,860.41,640.82Z" transform="translate(-23.88 -220.53)"/><path class="cls-38" d="M867.83,644.53l-5-2.48h-1.24l-4.94,2.48v1.23l4.94,2.48c1.24,1.23,1.24,1.23,1.24,0l5-2.48C869.06,645.76,869.06,645.76,867.83,644.53Z" transform="translate(-23.88 -220.53)"/><path class="cls-38" d="M870.3,653.18l5-2.47v-1.24l-5-2.47h-1.24l-4.94,2.47v1.24l4.94,2.47Z" transform="translate(-23.88 -220.53)"/><path class="cls-38" d="M856.7,637.11l4.94,3.71h2.48l3.71-3.71h0l-3.71-3.71h-2.48l-4.94,3.71Z" transform="translate(-23.88 -220.53)"/><path class="cls-38" d="M864.12,642.05l4.94,2.48h1.24l5-2.48c1.23,0,1.23-1.23,0-1.23l-5-2.48h-1.24l-4.94,2.48Z" transform="translate(-23.88 -220.53)"/><path class="cls-38" d="M871.54,645.76l4.94,2.48c0,1.23,1.24,1.23,1.24,0l4.95-2.48v-1.23l-4.95-2.48h-1.24l-4.94,2.48Z" transform="translate(-23.88 -220.53)"/><path class="cls-38" d="M825.78,644.53l5,3.71H832l4.94-3.71h0L832,640.82h-1.24l-5,3.71Z" transform="translate(-23.88 -220.53)"/><path class="cls-38" d="M844.33,639.58l-9.89-5c0-1.23-1.24-1.23-1.24,0l-4.94,2.48v1.23l9.89,4.95h1.24l4.94-2.47Z" transform="translate(-23.88 -220.53)"/><path class="cls-38" d="M851.75,635.87l-7.42-5H843.1l-5,2.48c-1.24,1.23-1.24,1.23,0,1.23l7.42,5h1.24l4.94-3.71Z" transform="translate(-23.88 -220.53)"/><path class="cls-38" d="M750.35,609.9l4.95,2.48h1.24l4.94-2.48v-1.23l-4.94-2.48H755.3l-4.95,2.48Z" transform="translate(-23.88 -220.53)"/><path class="cls-38" d="M757.77,613.61l5,2.48c0,1.23,0,1.23,1.24,0l4.94-2.48h0L764,609.9h-1.24l-5,3.71Z" transform="translate(-23.88 -220.53)"/><path class="cls-38" d="M765.19,618.56,768.9,621h2.47l3.71-2.47c1.24-1.24,1.24-1.24,0-1.24l-3.71-2.47H768.9l-3.71,2.47C764,617.32,764,617.32,765.19,618.56Z" transform="translate(-23.88 -220.53)"/><path class="cls-38" d="M772.61,622.27,806,642.05h1.24l4.94-2.47v-1.24l-33.39-19.78h-2.47L772.61,621C771.37,622.27,771.37,622.27,772.61,622.27Z" transform="translate(-23.88 -220.53)"/><path class="cls-38" d="M808.47,643.29l4.95,2.47h1.23l5-2.47v-1.24l-5-2.47h-1.23l-4.95,2.47Z" transform="translate(-23.88 -220.53)"/><path class="cls-38" d="M815.89,648.24l7.42,3.71h1.24l4.94-2.48v-1.23l-7.42-3.71c0-1.24-1.23-1.24-1.23,0l-5,2.47Z" transform="translate(-23.88 -220.53)"/><polygon class="cls-33" points="825.4 462.33 825.4 462.33 825.4 464.81 825.4 464.81 817.98 468.52 817.98 468.52 817.98 466.04 817.98 466.04 825.4 462.33"/><polygon class="cls-39" points="824.17 463.57 824.17 463.57 824.17 463.57 819.22 466.04 819.22 468.52 824.17 464.81 824.17 463.57"/><polygon class="cls-40" points="819.22 467.28 819.22 468.52 824.17 464.81 824.17 463.57 819.22 467.28"/><polygon class="cls-33" points="832.82 457.39 832.82 458.62 832.82 459.86 832.82 461.1 825.4 464.81 825.4 463.57 825.4 462.33 825.4 461.1 832.82 457.39"/><polygon class="cls-39" points="831.59 459.86 831.59 458.62 831.59 458.62 826.64 462.33 826.64 463.57 831.59 459.86"/><polygon class="cls-40" points="826.64 462.33 826.64 463.57 831.59 459.86 831.59 459.86 826.64 462.33"/><polygon class="cls-33" points="840.24 453.68 840.24 453.68 840.24 456.15 840.24 456.15 834.06 459.86 832.82 459.86 832.82 457.39 834.06 457.39 840.24 453.68"/><polygon class="cls-39" points="839 454.91 839 453.68 839 454.91 834.06 457.39 834.06 458.62 839 456.15 839 454.91"/><polygon class="cls-40" points="834.06 458.62 834.06 458.62 839 456.15 839 454.91 834.06 458.62"/><path class="cls-33" d="M900,653.18c1.23,0,1.23,1.24,0,2.48l-1.24,1.23v-2.47A1.21,1.21,0,0,1,900,653.18Z" transform="translate(-23.88 -220.53)"/><path class="cls-37" d="M900,653.18v2.48h-1.24v-1.24Z" transform="translate(-23.88 -220.53)"/><path class="cls-38" d="M810.94,649.47l-24.73-13.6c-1.23-1.24-2.47-1.24-2.47,0l-12.37,7.42c-1.23,0-1.23,0,0,1.24l24.74,13.6c1.23,1.24,2.47,1.24,2.47,0L810.94,652C812.18,650.71,812.18,650.71,810.94,649.47Z" transform="translate(-23.88 -220.53)"/><polygon class="cls-39" points="764.81 427.71 764.81 427.71 761.1 430.18 761.1 430.18 761.1 430.18 764.81 427.71"/><path class="cls-41" d="M974.17,425.66v128.6c6.18,1.23,11.13,1.23,17.31,1.23h0c16.08,0,30.92-2.47,44.52-9.89,16.07-8.65,24.73-19.78,24.73-32.15h0V460.28Z" transform="translate(-23.88 -220.53)"/><path class="cls-41" d="M599.49,274.8v54.4h0c0,6.19,2.48,11.13,7.42,17.32,2.48,3.71,7.42,7.42,12.37,9.89l325.21,188a84.4,84.4,0,0,0,29.68,9.89V425.66Z" transform="translate(-23.88 -220.53)"/><path class="cls-42" d="M1036,492.43c48.22-24.73,21-76.67-40.81-82.85,71.72-29.68-28.44-121.18-86.56-98.92,40.81-17.32-48.22-111.29-147.15-68-48.22-53.17-195.37,0-154.57,49.47,2.48,3.71,7.42,7.42,12.37,9.89L944.49,490C969.22,504.8,1008.79,504.8,1036,492.43Z" transform="translate(-23.88 -220.53)"/><path class="cls-33" d="M461,388.56l28.44-17.31h1.24L461,388.56Z" transform="translate(-23.88 -220.53)"/><polygon class="cls-33" points="437.12 168.03 466.8 150.72 511.32 176.69 481.64 194 437.12 168.03"/><path class="cls-37" d="M536.43,399.69v-2.48h-1.24l-29.68,17.32,2.48,4.94,28.44-16.07v-3.71Z" transform="translate(-23.88 -220.53)"/><path class="cls-34" d="M505.51,414.53A2.66,2.66,0,0,1,508,417v2.47l-48.23-27.2V389.8a1.21,1.21,0,0,1,1.24-1.24Z" transform="translate(-23.88 -220.53)"/><polygon class="cls-34" points="487.82 180.4 459.38 164.32 461.86 144.54 489.06 160.61 487.82 180.4"/><polygon class="cls-33" points="489.06 160.61 461.86 144.54 464.33 143.3 492.77 159.38 489.06 160.61"/><polygon class="cls-37" points="492.77 159.38 494 175.45 487.82 180.4 489.06 160.61 492.77 159.38"/><path class="cls-34" d="M571.05,328a14.75,14.75,0,0,0-6.18-11.13L432.56,240.17c-2.48-1.23-3.71-1.23-4.95,0h0l-2.47,1.24,139.73,82.85v8.65l6.18-2.47Z" transform="translate(-23.88 -220.53)"/><path class="cls-37" d="M564.87,332.91l1.24,85.33,2.47-1.24c1.24-1.24,2.47-2.47,2.47-4.95V330.44Z" transform="translate(-23.88 -220.53)"/><path class="cls-33" d="M568.58,330.44v84.09c0,3.71-3.71,4.94-7.42,3.71L428.85,341.57a14.75,14.75,0,0,1-6.18-11.13V246.35c0-4.94,2.47-6.18,6.18-3.71l132.31,75.44C564.87,320.55,568.58,325.49,568.58,330.44Z" transform="translate(-23.88 -220.53)"/><polygon class="cls-35" points="406.21 113.62 406.21 30.77 537.28 106.2 537.28 189.05 406.21 113.62"/><polygon class="cls-36" points="537.28 189.05 406.21 113.62 537.28 106.2 537.28 189.05"/><polygon class="cls-34" points="361.69 196.47 448.25 245.94 447.02 254.59 361.69 205.13 361.69 196.47"/><path class="cls-43" d="M415.25,438h0v1.24h0l-4.95-2.48v-1.23h0v-1.24Z" transform="translate(-23.88 -220.53)"/><path class="cls-44" d="M390.52,423.18l1.23,1.24a1.21,1.21,0,0,1-1.23,1.24c-1.24-1.24-1.24-1.24-1.24-2.48C389.28,423.18,389.28,422,390.52,423.18Z" transform="translate(-23.88 -220.53)"/><path class="cls-45" d="M396.7,425.66c0,1.23,1.23,1.23,1.23,2.47a1.21,1.21,0,0,1-1.23,1.24c-1.24-1.24-1.24-1.24-1.24-2.48S395.46,425.66,396.7,425.66Z" transform="translate(-23.88 -220.53)"/><path class="cls-43" d="M466,466.46l1.23,1.24v1.24H466l-47-27.21-1.24-1.24v-1.23H419Z" transform="translate(-23.88 -220.53)"/><path class="cls-46" d="M402.88,429.37v2.47h0a1.21,1.21,0,0,1-1.24-1.24C401.64,429.37,401.64,429.37,402.88,429.37Z" transform="translate(-23.88 -220.53)"/><polygon class="cls-33" points="361.69 196.47 411.16 166.8 496.48 217.5 448.25 245.94 361.69 196.47"/><polygon class="cls-37" points="448.25 245.94 496.48 217.5 496.48 226.15 447.02 254.59 448.25 245.94"/><path class="cls-33" d="M443.69,418.24h0v1.23h3.71a1.2,1.2,0,0,0,1.23-1.23h-4.94Z" transform="translate(-23.88 -220.53)"/><path class="cls-33" d="M457.29,424.42c1.24,1.24,1.24,2.47,0,2.47a3.76,3.76,0,0,1-5,0c-2.47,0-2.47-2.47,0-2.47A3.76,3.76,0,0,1,457.29,424.42Z" transform="translate(-23.88 -220.53)"/><polygon class="cls-34" points="518.74 326.31 526.16 326.31 526.16 270.67 518.74 270.67 518.74 326.31"/><path class="cls-37" d="M548.79,488.72h-4.94a2.32,2.32,0,0,0,0,3.71,3.75,3.75,0,0,0,4.94,0C551.27,491.19,551.27,490,548.79,488.72Z" transform="translate(-23.88 -220.53)"/><path class="cls-34" d="M542.61,486.25v2.47a1.21,1.21,0,0,0,1.24,1.24,3.77,3.77,0,0,0,4.94,0,1.21,1.21,0,0,0,1.24-1.24v-2.47Z" transform="translate(-23.88 -220.53)"/><path class="cls-37" d="M548.79,485a3.75,3.75,0,0,0-4.94,0c-1.24,0-1.24,1.24,0,2.47a3.75,3.75,0,0,0,4.94,0C551.27,486.25,551.27,485,548.79,485Z" transform="translate(-23.88 -220.53)"/><path class="cls-34" d="M542.61,481.3v2.47c0,1.24,0,1.24,1.24,2.48h4.94C550,485,550,485,550,483.77V481.3Z" transform="translate(-23.88 -220.53)"/><path class="cls-37" d="M548.79,480.06a3.77,3.77,0,0,0-4.94,0,2.32,2.32,0,0,0,0,3.71h4.94Q552.51,481.93,548.79,480.06Z" transform="translate(-23.88 -220.53)"/><path class="cls-34" d="M542.61,477.59v2.47a1.21,1.21,0,0,0,1.24,1.24,3.75,3.75,0,0,0,4.94,0,1.21,1.21,0,0,0,1.24-1.24v-2.47Z" transform="translate(-23.88 -220.53)"/><path class="cls-33" d="M550,476.35h0v-1.23h-6.18l-1.24,1.23h0c0,1.24,0,1.24,1.24,2.48a3.77,3.77,0,0,0,4.94,0C550,477.59,551.27,477.59,550,476.35Z" transform="translate(-23.88 -220.53)"/><path class="cls-33" d="M548.79,471.41h-4.94a2.32,2.32,0,0,0,0,3.71h4.94A2.32,2.32,0,0,0,548.79,471.41Z" transform="translate(-23.88 -220.53)"/><path class="cls-34" d="M550,472.64a1.21,1.21,0,0,0-1.24-1.23,3.75,3.75,0,0,0-4.94,0v4.94a3.75,3.75,0,0,0,4.94,0c1.24,0,1.24,0,1.24-1.23Z" transform="translate(-23.88 -220.53)"/><polygon class="cls-34" points="581.8 358.46 590.46 358.46 590.46 302.82 581.8 302.82 581.8 358.46"/><path class="cls-37" d="M613.1,522.11c-1.24-1.24-5-1.24-6.19,0s-1.23,2.47,0,2.47c1.24,1.24,5,1.24,6.19,0C614.33,524.58,614.33,523.34,613.1,522.11Z" transform="translate(-23.88 -220.53)"/><path class="cls-34" d="M605.68,518.4v3.71l1.23,1.23c1.24,1.24,5,1.24,6.19,0l1.23-1.23V518.4Z" transform="translate(-23.88 -220.53)"/><path class="cls-37" d="M613.1,517.16c-1.24-1.24-5-1.24-6.19,0a2.33,2.33,0,0,0,0,3.71h6.19A2.33,2.33,0,0,0,613.1,517.16Z" transform="translate(-23.88 -220.53)"/><path class="cls-34" d="M605.68,514.69v2.47l1.23,1.24c1.24,1.23,5,1.23,6.19,0l1.23-1.24v-2.47Z" transform="translate(-23.88 -220.53)"/><path class="cls-37" d="M613.1,512.21h-6.19a2.33,2.33,0,0,0,0,3.71c1.24,1.24,5,1.24,6.19,0A2.33,2.33,0,0,0,613.1,512.21Z" transform="translate(-23.88 -220.53)"/><path class="cls-34" d="M605.68,509.74v2.47c0,1.24,1.23,1.24,1.23,2.48h6.19c0-1.24,1.23-1.24,1.23-2.48v-2.47Z" transform="translate(-23.88 -220.53)"/><path class="cls-33" d="M613.1,508.5h-6.19v1.24h-1.23a1.21,1.21,0,0,0,1.23,1.24c1.24,1.23,5,1.23,6.19,0C614.33,511,614.33,509.74,613.1,508.5Z" transform="translate(-23.88 -220.53)"/><path class="cls-33" d="M611.86,504.8a2.32,2.32,0,0,0-3.71,0c-1.24,1.23-1.24,2.47,0,2.47a2.33,2.33,0,0,0,3.71,0C613.1,507.27,613.1,506,611.86,504.8Z" transform="translate(-23.88 -220.53)"/><path class="cls-34" d="M613.1,506c0-1.23,0-1.23-1.24-2.47a2.32,2.32,0,0,0-3.71,0c-1.24,1.24-1.24,1.24-1.24,2.47v2.47a1.21,1.21,0,0,0,1.24,1.24h3.71a1.21,1.21,0,0,0,1.24-1.24Z" transform="translate(-23.88 -220.53)"/><path class="cls-34" d="M568.58,612.38v12.36l50.7-29.68a2.66,2.66,0,0,0,2.47-2.47V579C621.75,580.23,568.58,612.38,568.58,612.38Z" transform="translate(-23.88 -220.53)"/><path class="cls-37" d="M469.65,560.44v12.37c0,1.23,1.24,2.47,2.48,3.71l84.08,48.22a11.25,11.25,0,0,0,12.37,0V612.38S469.65,561.68,469.65,560.44Z" transform="translate(-23.88 -220.53)"/><path class="cls-33" d="M619.28,575.28c3.71,2.47,3.71,6.18,0,7.42l-50.7,29.68a11.25,11.25,0,0,1-12.37,0l-84.08-48.23q-5.56-3.71,0-7.42l51.93-29.68c2.48-1.23,8.66-1.23,11.13,0Z" transform="translate(-23.88 -220.53)"/><path class="cls-38" d="M564.87,559.2c8.66,3.71,14.84,9.9,17.31,16.08,1.24,1.24,0,2.47-2.47,2.47-1.24,1.24-2.47,0-3.71,0a1.21,1.21,0,0,0-1.24-1.23c-2.47-4.95-8.65-11.13-14.84-14.84-7.42-3.71-16.07-7.42-26-8.66a432.28,432.28,0,0,0-2.48-2.47c0-1.24,2.48-2.48,4.95-1.24A64.8,64.8,0,0,1,564.87,559.2Z" transform="translate(-23.88 -220.53)"/><path class="cls-38" d="M553.74,565.39a22.13,22.13,0,0,1,12.37,11.13c1.23,1.23,0,2.47-2.48,3.71-1.23,0-2.47-1.24-3.71-1.24a1.21,1.21,0,0,0-1.23-1.24c-1.24-3.71-5-6.18-9.9-9.89-4.94-2.47-9.89-3.71-16.07-5a3.84,3.84,0,0,0-2.47-1.23c-1.24,0-1.24-1.24-1.24-2.48s3.71-1.23,6.18-1.23Q546.32,559.82,553.74,565.39Z" transform="translate(-23.88 -220.53)"/><path class="cls-38" d="M543.85,571.57A53.57,53.57,0,0,1,552.5,579c1.24,1.24,0,2.47-2.47,3.71a4.54,4.54,0,0,1-3.71-1.24c-1.24,0-1.24,0-1.24-1.23-1.23-2.48-3.7-3.71-7.41-6.19a87.72,87.72,0,0,0-9.9-3.71h-1.23l-2.48-2.47a5.45,5.45,0,0,1,6.19-1.24C535.19,567.86,540.14,569.1,543.85,571.57Z" transform="translate(-23.88 -220.53)"/><path class="cls-38" d="M532.72,577.75c2.47,1.24,3.71,1.24,4.95,2.48,0,1.23,0,3.71-1.24,3.71h-4.95l-1.23-1.24-2.48-2.47c-1.23,0-2.47-1.24-3.71-1.24h-1.23l-1.24-1.24c0-1.23,1.24-1.23,1.24-2.47a5.94,5.94,0,0,1,4.94,0A9.43,9.43,0,0,1,532.72,577.75Z" transform="translate(-23.88 -220.53)"/><path class="cls-34" d="M562.4,606.19l-4.95-2.47h-1.24l4.95,3.71h1.24Z" transform="translate(-23.88 -220.53)"/><path class="cls-34" d="M571.05,602.48l-6.18-3.71h-1.24V600l5,2.47Z" transform="translate(-23.88 -220.53)"/><path class="cls-34" d="M578.47,597.54l-4.94-3.71h-1.24c-1.24,0-1.24,1.23,0,1.23l5,2.48c0,1.23,1.23,1.23,1.23,0Z" transform="translate(-23.88 -220.53)"/><path class="cls-34" d="M587.13,592.59,581,588.88h-1.24v1.24l6.18,3.71h1.24Z" transform="translate(-23.88 -220.53)"/><path class="cls-34" d="M594.55,587.64l-4.95-2.47c0-1.23-1.24-1.23-1.24,0h0l4.95,3.71h1.24C595.78,588.88,595.78,587.64,594.55,587.64Z" transform="translate(-23.88 -220.53)"/><path class="cls-34" d="M603.2,582.7,597,580.23h-1.24l6.19,3.71h1.23Z" transform="translate(-23.88 -220.53)"/><path class="cls-34" d="M610.62,579l-4.94-3.71h-1.24v1.24l4.95,2.47Z" transform="translate(-23.88 -220.53)"/><path class="cls-34" d="M488.2,564.15l-4.94-3.71H482v1.24l5,3.71h1.23C489.44,564.15,489.44,564.15,488.2,564.15Z" transform="translate(-23.88 -220.53)"/><path class="cls-34" d="M496.86,559.2l-4.95-2.47c-1.23-1.24-1.23-1.24-2.47,0h0l6.18,3.71h1.24Z" transform="translate(-23.88 -220.53)"/><path class="cls-34" d="M504.28,554.26l-4.95-2.48H498.1l4.94,3.71h1.24C505.51,555.49,505.51,554.26,504.28,554.26Z" transform="translate(-23.88 -220.53)"/><path class="cls-34" d="M512.93,549.31,508,546.84h-1.24c-1.24,0-1.24,0,0,1.23l4.95,2.48h1.23Z" transform="translate(-23.88 -220.53)"/><path class="cls-34" d="M521.59,545.6l-6.18-3.71h-1.24v1.24l5,2.47c1.23,1.24,1.23,1.24,2.47,0Z" transform="translate(-23.88 -220.53)"/><path class="cls-34" d="M529,540.66l-5-3.71h-1.23c-1.24,1.23-1.24,1.23,0,1.23l4.94,3.71H529Z" transform="translate(-23.88 -220.53)"/><path class="cls-34" d="M537.67,535.71l-6.19-2.47c0-1.24,0-1.24-1.23,0h0l6.18,3.71h1.24Z" transform="translate(-23.88 -220.53)"/><path class="cls-45" d="M495.62,581.46a1.21,1.21,0,0,0-1.23,1.24c0,1.24,1.23,2.47,1.23,3.71,1.24,0,2.48,0,2.48-1.24S496.86,582.7,495.62,581.46Z" transform="translate(-23.88 -220.53)"/><path class="cls-44" d="M504.28,586.41c-1.24-1.24-2.47,0-2.47,1.23s1.23,2.48,2.47,3.71a1.2,1.2,0,0,0,1.23-1.23A12.47,12.47,0,0,0,504.28,586.41Z" transform="translate(-23.88 -220.53)"/><path class="cls-46" d="M511.7,591.35c-1.24-1.23-2.48-1.23-2.48,0s1.24,3.71,2.48,3.71c1.23,1.24,1.23,0,1.23-1.23S512.93,591.35,511.7,591.35Z" transform="translate(-23.88 -220.53)"/><path class="cls-46" d="M519.12,595.06c-1.24,0-2.48,0-2.48,1.24s1.24,2.47,2.48,3.71c1.23,0,1.23,0,1.23-1.24A4.57,4.57,0,0,0,519.12,595.06Z" transform="translate(-23.88 -220.53)"/><path class="cls-46" d="M526.54,600c-1.24-1.24-1.24,0-1.24,1.24s0,2.47,1.24,2.47c1.23,1.24,2.47,0,2.47-1.24A2.66,2.66,0,0,0,526.54,600Z" transform="translate(-23.88 -220.53)"/><path class="cls-46" d="M534,603.72c-1.24,0-1.24,0-1.24,1.24a4.55,4.55,0,0,0,1.24,3.71c1.23,0,2.47,0,2.47-1.24S535.19,605,534,603.72Z" transform="translate(-23.88 -220.53)"/><path class="cls-37" d="M571.05,613.61V621c1.24,0,1.24-1.23,1.24-4.94S572.29,613.61,571.05,613.61Z" transform="translate(-23.88 -220.53)"/><path class="cls-37" d="M577.24,609.9v7.42c1.23-1.23,1.23-1.23,1.23-4.94S578.47,608.67,577.24,609.9Z" transform="translate(-23.88 -220.53)"/><path class="cls-37" d="M584.65,606.19v7.42c0-1.23,1.24-1.23,1.24-4.94S584.65,605,584.65,606.19Z" transform="translate(-23.88 -220.53)"/><path class="cls-37" d="M590.84,601.25v8.65c1.23-1.23,1.23-1.23,1.23-4.94S592.07,601.25,590.84,601.25Z" transform="translate(-23.88 -220.53)"/><path class="cls-37" d="M598.26,597.54v0Z" transform="translate(-23.88 -220.53)"/><path class="cls-37" d="M604.44,593.83v7.42c1.24,0,1.24,0,1.24-3.71S605.68,593.83,604.44,593.83Z" transform="translate(-23.88 -220.53)"/><path class="cls-37" d="M611.86,590.12v0Z" transform="translate(-23.88 -220.53)"/><path class="cls-37" d="M618,586.41v7.42s1.24,0,1.24-3.71S618,586.41,618,586.41Z" transform="translate(-23.88 -220.53)"/><path class="cls-34" d="M339.82,639.58V647l30.91-17.31c2.47-2.48,3.71-3.71,3.71-6.19v-7.41Z" transform="translate(-23.88 -220.53)"/><path class="cls-37" d="M259.44,601.25v7.42c0,2.47,1.24,3.71,3.71,4.94L321.27,647c4.94,3.71,13.6,3.71,18.55,0v-7.42Z" transform="translate(-23.88 -220.53)"/><path class="cls-33" d="M370.73,611.14c4.95,2.47,4.95,7.42,0,9.89l-30.91,18.55c-4.95,2.47-13.61,2.47-18.55,0l-58.12-33.39q-7.42-5.57,0-11.13l32.15-17.31a14.85,14.85,0,0,1,17.31,0Z" transform="translate(-23.88 -220.53)"/><polygon class="cls-47" points="270.19 313.95 283.79 305.29 282.55 372.06 268.95 380.72 270.19 313.95"/><polygon class="cls-48" points="264 310.24 277.61 301.58 283.79 305.29 270.19 313.95 264 310.24"/><polygon class="cls-49" points="270.19 313.95 268.95 380.72 262.77 377.01 264 310.24 270.19 313.95"/><path class="cls-33" d="M307.67,525.82a6.81,6.81,0,0,0-3.71-6.19c-1.24-1.23-2.48-1.23-2.48,0l-14.84,7.42s7.42,9.9,6.19,9.9l13.6-7.42c1.24-1.24,1.24-1.24,1.24-2.48v-1.23Z" transform="translate(-23.88 -220.53)"/><polygon class="cls-49" points="310.99 274.38 324.6 266.96 283.79 306.53 270.19 313.95 310.99 274.38"/><polygon class="cls-47" points="306.05 266.96 310.99 274.38 270.19 313.95 265.24 306.53 306.05 266.96"/><path class="cls-37" d="M290.35,527.05c2.48,1.24,3.71,5,3.71,7.42s-1.23,3.71-3.71,2.48-3.71-5-3.71-7.42S287.88,525.82,290.35,527.05Z" transform="translate(-23.88 -220.53)"/><path class="cls-47" d="M334.87,618.56A47.1,47.1,0,0,0,346,607.43c1.24-1.24,0-2.47-1.24-2.47s-2.47,0-2.47,1.23h-1.24c-1.23,3.71-4.94,7.42-9.89,9.9s-9.89,4.94-16.08,6.18h-1.23a1.21,1.21,0,0,0-1.24,1.23,4.54,4.54,0,0,0,3.71,1.24A65.43,65.43,0,0,0,334.87,618.56Z" transform="translate(-23.88 -220.53)"/><path class="cls-47" d="M327.45,613.61c3.71-1.23,6.18-3.71,8.66-7.42a4.34,4.34,0,0,0-2.48-1.23c0-1.24-1.23,0-2.47,0h0q-1.86,3.7-7.42,7.42a86.76,86.76,0,0,1-9.89,3.71h-1.24a1.2,1.2,0,0,0-1.23,1.23c0,1.24,2.47,1.24,3.7,1.24C320,617.32,323.74,616.09,327.45,613.61Z" transform="translate(-23.88 -220.53)"/><path class="cls-47" d="M321.27,609.9a9.61,9.61,0,0,0,4.94-4.94c1.24-1.24,0-2.48-1.23-2.48s-1.24,0-2.48,1.24h-1.23c0,1.24-2.48,2.47-3.71,3.71-2.48,1.24-4.95,2.47-7.42,2.47a1.21,1.21,0,0,1-1.24,1.24s-1.23,0,0,1.24c0,1.23,1.24,1.23,3.71,1.23C315.08,612.38,318.79,611.14,321.27,609.9Z" transform="translate(-23.88 -220.53)"/><path class="cls-47" d="M313.85,606.19c1.23-1.23,2.47-1.23,2.47-2.47,1.24-1.24,0-1.24,0-1.24-1.24,0-1.24-1.23-2.47-1.23a1.21,1.21,0,0,0-1.24,1.23h0c-1.23,0-1.23,1.24-2.47,1.24a4.33,4.33,0,0,1-2.47,1.24h0a1.21,1.21,0,0,0-1.24,1.23l1.24,1.24h2.47C311.38,607.43,312.61,606.19,313.85,606.19Z" transform="translate(-23.88 -220.53)"/><polygon class="cls-55" points="324.6 377.01 320.89 375.77 369.11 348.57 371.59 347.33 386.42 338.68 387.66 337.44 388.9 341.15 381.48 344.86 374.06 348.57 371.59 349.81 371.59 349.81 324.6 377.01"/><polygon class="cls-55" points="303.57 299.11 303.57 295.4 319.65 286.74 322.12 287.98 303.57 299.11"/><path class="cls-56" d="M349.71,642.05h-9.89v-2.47h0L370.73,621a6.63,6.63,0,0,0,3.71-4.94h0v7.41c0,2.48-1.24,3.71-3.71,6.19l-13.6,7.42-2.48,1.23Z" transform="translate(-23.88 -220.53)"/><path class="cls-57" d="M339.82,642.05H311.38l-2.48-1.23,1.24-7.42,11.13,6.18a23.22,23.22,0,0,0,9.89,2.47,22.93,22.93,0,0,0,8.66-2.47Z" transform="translate(-23.88 -220.53)"/><path class="cls-58" d="M331.16,642.05a23.22,23.22,0,0,1-9.89-2.47l-11.13-6.18,2.47-14.84h2.47c4.95-1.24,8.66-2.47,12.37-4.95,3.71-1.23,6.18-3.71,8.66-7.42a4.34,4.34,0,0,0-2.48-1.23h-2.47q-1.86,3.7-7.42,7.42a86.76,86.76,0,0,1-9.89,3.71h-1.24l1.24-3.71c2.47,0,4.94-1.24,7.42-2.48a9.61,9.61,0,0,0,4.94-4.94c1.24-1.24,0-2.48-1.23-2.48h0c-1.24,0-2.48,0-2.48,1.24h-1.23c0,1.24-2.48,2.47-3.71,3.71s-2.48,1.24-3.71,2.47v-3.71c1.23-1.23,2.47-1.23,2.47-2.47,1.24-1.24,0-1.24,0-1.24a1.21,1.21,0,0,1-1.24-1.23l2.48-21,27.2,16.07,3.71,1.24h0l22.26,13.6c2.47,1.24,3.71,2.47,3.71,5a6.63,6.63,0,0,1-3.71,4.94l-30.91,18.55h0A22.93,22.93,0,0,1,331.16,642.05ZM343.53,605a1.21,1.21,0,0,0-1.24,1.23h-1.24c-1.23,3.71-4.94,7.42-9.89,9.9s-9.89,4.94-16.08,6.18h-1.23a1.21,1.21,0,0,0-1.24,1.23c0,1.24,1.24,1.24,2.47,1.24h1.24a65.43,65.43,0,0,0,18.55-6.18A47.1,47.1,0,0,0,346,607.43c1.24-1.24,0-2.47-1.24-2.47Z" transform="translate(-23.88 -220.53)"/><polygon class="cls-59" points="304.81 285.51 306.05 279.32 306.05 279.32 309.76 280.56 304.81 285.51"/><path class="cls-60" d="M329.92,499.85v0Z" transform="translate(-23.88 -220.53)"/><path class="cls-61" d="M315.08,624.74c-1.23,0-2.47,0-2.47-1.24a1.21,1.21,0,0,1,1.24-1.23h1.23c6.19-1.24,11.13-3.71,16.08-6.18s8.66-6.19,9.89-9.9h1.24a1.21,1.21,0,0,1,1.24-1.23h1.23c1.24,0,2.48,1.23,1.24,2.47a47.1,47.1,0,0,1-11.13,11.13,65.43,65.43,0,0,1-18.55,6.18Z" transform="translate(-23.88 -220.53)"/><path class="cls-62" d="M313.85,618.56h-1.24v-2.47h1.24a86.76,86.76,0,0,0,9.89-3.71q5.56-3.72,7.42-7.42h2.47a4.34,4.34,0,0,1,2.48,1.23c-2.48,3.71-4.95,6.19-8.66,7.42-3.71,2.48-7.42,3.71-12.37,4.95Z" transform="translate(-23.88 -220.53)"/><path class="cls-63" d="M313.85,612.38V609.9c1.23-1.23,2.47-1.23,3.71-2.47s3.71-2.47,3.71-3.71h1.23c0-1.24,1.24-1.24,2.48-1.24h0c1.23,0,2.47,1.24,1.23,2.48a9.61,9.61,0,0,1-4.94,4.94C318.79,611.14,316.32,612.38,313.85,612.38Z" transform="translate(-23.88 -220.53)"/><path class="cls-64" d="M313.85,606.19l1.23-4.94a1.21,1.21,0,0,0,1.24,1.23s1.24,0,0,1.24C316.32,605,315.08,605,313.85,606.19Z" transform="translate(-23.88 -220.53)"/><path class="cls-37" d="M322.5,493.67v7.42c0,2.47,1.24,4.94,4.95,7.41l61.83,34.63V537Z" transform="translate(-23.88 -220.53)"/><path class="cls-34" d="M420.19,529.53v6.18a8.35,8.35,0,0,1-4.94,7.42c-7.42,4.94-18.55,4.94-26,0V537c7.42,3.71,18.55,3.71,26,0C419,534.47,420.19,532,420.19,529.53Z" transform="translate(-23.88 -220.53)"/><path class="cls-34" d="M420.19,529.53v6.18a8.35,8.35,0,0,1-4.94,7.42c-7.42,4.94-18.55,4.94-26,0V537c7.42,3.71,18.55,3.71,26,0C419,534.47,420.19,532,420.19,529.53Z" transform="translate(-23.88 -220.53)"/><path class="cls-33" d="M415.25,522.11c6.18,3.71,6.18,11.13,0,14.84-7.42,3.71-18.55,3.71-26,0l-61.83-35.86c-7.42-3.71-7.42-9.9,0-14.84,7.42-3.71,18.55-3.71,26,0Z" transform="translate(-23.88 -220.53)"/><path class="cls-34" d="M180.3,656.89,121,692.75v3.71l58.11-34.62a1.21,1.21,0,0,0,1.24-1.24Z" transform="translate(-23.88 -220.53)"/><path class="cls-37" d="M121,692.75,24.49,639.58v3.71a1.21,1.21,0,0,0,1.24,1.24l89,51.93H121Z" transform="translate(-23.88 -220.53)"/><path class="cls-33" d="M179.06,654.42c2.48,1.24,2.48,3.71,0,5L121,692.75c-1.24,1.24-5,1.24-6.19,0l-89-51.93q-3.7-1.86,0-3.71l58.12-33.39c1.24-1.24,4.94-1.24,7.42,0Z" transform="translate(-23.88 -220.53)"/><path class="cls-37" d="M72.72,613.61h0L43,630.92H41.81v-1.23l29.67-16.08C71.48,612.38,72.72,612.38,72.72,613.61Z" transform="translate(-23.88 -220.53)"/><path class="cls-37" d="M163,665.55v1.23l-28.44,16.08h-2.48v-1.24l29.68-16.07Z" transform="translate(-23.88 -220.53)"/><path class="cls-37" d="M133.31,629.69v1.23h-1.24c-1.23,0-1.23,0,0-1.23Z" transform="translate(-23.88 -220.53)"/><path class="cls-37" d="M138.26,633.4v1.23H137V633.4Z" transform="translate(-23.88 -220.53)"/><polygon class="cls-36" points="149 436.37 93.36 468.52 8.04 419.05 63.68 386.9 149 436.37"/><polygon class="cls-35" points="93.36 468.52 8.04 419.05 149 436.37 93.36 468.52"/><path class="cls-33" d="M525.3,687.81l-73,58.11-40.8-24.73c8.65-7.42,22.25-19.78,37.09-32.15h0c12.37-9.89,26-19.78,35.86-24.73l11.13,6.18h0Z" transform="translate(-23.88 -220.53)"/><path class="cls-34" d="M491.91,663.07l40.81,24.74c-1.24-1.24-5-1.24-7.42,0l-29.68-17.32-11.13-6.18a5.84,5.84,0,0,1,7.42-1.24Z" transform="translate(-23.88 -220.53)"/><path class="cls-65" d="M454.82,736V734.8l-12.37-2.48v1.24h0c0,1.24,0,1.24,1.24,1.24l4.94,2.47a3.78,3.78,0,0,0,4.95,0h0l1.24-1.24Z" transform="translate(-23.88 -220.53)"/><path class="cls-45" d="M443.69,733.56l4.94,2.47a3.76,3.76,0,0,0,4.95,0h0c1.24-1.23,1.24-2.47,0-2.47l-4.95-2.47a3.75,3.75,0,0,0-4.94,0h0C442.45,731.09,442.45,732.32,443.69,733.56Z" transform="translate(-23.88 -220.53)"/><path class="cls-66" d="M442.45,729.85v-2.47l-12.37-2.48v2.48h0a1.21,1.21,0,0,0,1.24,1.23l4.95,2.48c1.23,1.23,3.71,0,4.94,0h0a1.21,1.21,0,0,1,1.24-1.24Z" transform="translate(-23.88 -220.53)"/><path class="cls-44" d="M431.32,727.38l4.95,2.47h4.94a2.32,2.32,0,0,0,0-3.71l-4.94-2.47h-4.95A2.32,2.32,0,0,0,431.32,727.38Z" transform="translate(-23.88 -220.53)"/><path class="cls-67" d="M430.08,722.43v-1.24L419,718.72V720h0v2.47l4.94,2.47c1.24,0,3.71,0,5-1.23h0c1.23,0,1.23,0,1.23-1.24Z" transform="translate(-23.88 -220.53)"/><path class="cls-46" d="M419,720l4.94,2.47a3.76,3.76,0,0,0,5,0h0c1.23,0,1.23-1.24,0-2.47l-5-2.48a3.77,3.77,0,0,0-4.94,0h0C417.72,718.72,417.72,720,419,720Z" transform="translate(-23.88 -220.53)"/><path class="cls-49" d="M461,729.85v-1.24l-11.13-2.47v1.24h0a1.21,1.21,0,0,0,1.24,1.23l3.71,2.48a3.77,3.77,0,0,0,4.94,0h0a1.21,1.21,0,0,0,1.24-1.24Z" transform="translate(-23.88 -220.53)"/><path class="cls-47" d="M451.11,727.38l3.71,2.47a3.75,3.75,0,0,0,4.94,0h0c2.48-1.24,2.48-2.47,0-2.47l-3.71-2.48c-2.47-1.23-3.71-1.23-6.18,0h0C448.63,724.9,448.63,726.14,451.11,727.38Z" transform="translate(-23.88 -220.53)"/><path class="cls-49" d="M448.63,723.67v-2.48l-11.13-2.47v2.47h0l1.24,1.24,3.71,2.47h6.18v-1.23Z" transform="translate(-23.88 -220.53)"/><path class="cls-47" d="M438.74,721.19l3.71,2.48h6.18c1.24-1.24,1.24-2.48-1.23-3.71l-3.71-2.48h-4.95Q435,719.34,438.74,721.19Z" transform="translate(-23.88 -220.53)"/><path class="cls-49" d="M437.5,716.25V715l-12.36-2.47v1.23h0c0,1.24,1.24,1.24,1.24,2.48l4.94,2.47c1.24,0,3.71,0,4.95-1.24h0c1.23,0,1.23,0,1.23-1.23Z" transform="translate(-23.88 -220.53)"/><path class="cls-47" d="M426.38,713.77l4.94,2.48a3.78,3.78,0,0,0,4.95,0h0c1.23,0,1.23-1.24,0-2.48l-4.95-2.47a3.75,3.75,0,0,0-4.94,0h0C425.14,712.54,425.14,713.77,426.38,713.77Z" transform="translate(-23.88 -220.53)"/><path class="cls-49" d="M468.42,723.67v-1.24L456.05,720v1.23h0l1.24,1.24,4.95,2.47a3.75,3.75,0,0,0,4.94,0h0a1.21,1.21,0,0,0,1.24-1.23Z" transform="translate(-23.88 -220.53)"/><path class="cls-47" d="M457.29,721.19l4.95,2.48a3.77,3.77,0,0,0,4.94,0h0c1.24-1.24,1.24-2.48,0-2.48l-4.94-2.47a3.76,3.76,0,0,0-4.95,0h0C456.05,718.72,456.05,720,457.29,721.19Z" transform="translate(-23.88 -220.53)"/><path class="cls-49" d="M456.05,716.25V715l-12.36-2.47V715h0a1.21,1.21,0,0,1,1.23,1.24l4.95,2.47h4.95c1.23-1.24,1.23-1.24,1.23-2.47Z" transform="translate(-23.88 -220.53)"/><path class="cls-47" d="M444.92,715l4.95,2.47h4.95a2.33,2.33,0,0,0,0-3.71l-4.95-2.47c-1.24-1.24-3.71,0-4.95,0h0A2.33,2.33,0,0,0,444.92,715Z" transform="translate(-23.88 -220.53)"/><path class="cls-49" d="M443.69,710.06v-1.23l-11.13-2.48v1.24h0c0,1.24,0,1.24,1.23,1.24l3.71,3.71a11.15,11.15,0,0,0,6.19-1.24h0v-1.24Z" transform="translate(-23.88 -220.53)"/><path class="cls-47" d="M433.79,707.59l3.71,2.47c2.48,1.24,3.71,1.24,6.19,0h0c1.23,0,1.23-1.23,0-2.47l-4.95-2.47a3.76,3.76,0,0,0-4.95,0h0C432.56,706.35,432.56,707.59,433.79,707.59Z" transform="translate(-23.88 -220.53)"/><path class="cls-49" d="M475.84,718.72v-2.47l-11.13-2.48v2.48h0a1.21,1.21,0,0,0,1.24,1.23l3.7,2.48c1.24,1.23,3.71,0,5,0h0l1.24-1.24Z" transform="translate(-23.88 -220.53)"/><path class="cls-47" d="M464.71,716.25l4.94,2.47h5a2.32,2.32,0,0,0,0-3.71l-3.71-2.47h-6.18A2.32,2.32,0,0,0,464.71,716.25Z" transform="translate(-23.88 -220.53)"/><path class="cls-49" d="M463.47,711.3v-1.24l-11.13-2.47v1.24h0c0,1.23,0,1.23,1.24,1.23l3.71,2.48c2.47,1.23,3.71,1.23,4.95,0h0c1.23,0,1.23,0,1.23-1.24Z" transform="translate(-23.88 -220.53)"/><path class="cls-47" d="M453.58,708.83l3.71,2.47a3.76,3.76,0,0,0,4.95,0h0c2.47-1.24,2.47-2.47,0-2.47l-3.71-2.48a3.78,3.78,0,0,0-4.95,0h0C451.11,707.59,451.11,708.83,453.58,708.83Z" transform="translate(-23.88 -220.53)"/><path class="cls-49" d="M452.34,705.12v-1.24L440,701.41v1.23h0a1.21,1.21,0,0,0,1.23,1.24l5,2.47a3.76,3.76,0,0,0,4.95,0h0l1.23-1.23Z" transform="translate(-23.88 -220.53)"/><path class="cls-47" d="M441.21,702.64l5,2.48a3.78,3.78,0,0,0,4.95,0h0c1.23-1.24,1.23-2.48,0-2.48l-4.95-3.71c-1.24,0-3.71,0-5,1.24h0C440,700.17,440,701.41,441.21,702.64Z" transform="translate(-23.88 -220.53)"/><path class="cls-49" d="M483.26,712.54V711.3l-11.13-2.47v1.23h0c0,1.24,0,1.24,1.23,1.24l4.95,3.71c1.24,0,3.71,0,4.95-1.24h0s1.23,0,0-1.23Z" transform="translate(-23.88 -220.53)"/><path class="cls-47" d="M473.36,710.06l4.95,2.48a3.78,3.78,0,0,0,4.95,0h0c1.23,0,1.23-2.48,0-2.48l-4.95-2.47a3.76,3.76,0,0,0-4.95,0h0C472.13,708.83,472.13,710.06,473.36,710.06Z" transform="translate(-23.88 -220.53)"/><path class="cls-49" d="M472.13,706.35v-1.23l-12.37-2.48v1.24h0a1.21,1.21,0,0,0,1.24,1.24l4.95,2.47a3.75,3.75,0,0,0,4.94,0h0l1.24-1.24Z" transform="translate(-23.88 -220.53)"/><path class="cls-47" d="M461,703.88l4.95,2.47c1.23,1.24,3.7,0,4.94,0h0a2.32,2.32,0,0,0,0-3.71L466,700.17H461A2.32,2.32,0,0,0,461,703.88Z" transform="translate(-23.88 -220.53)"/><path class="cls-49" d="M459.76,698.93V697.7l-12.36-2.47v2.47h0a1.2,1.2,0,0,1,1.23,1.23l4.95,2.48h4.95c1.23-1.24,1.23-1.24,1.23-2.48Z" transform="translate(-23.88 -220.53)"/><path class="cls-47" d="M448.63,697.7l4.95,2.47h4.95a2.33,2.33,0,0,0,0-3.71L453.58,694a3.76,3.76,0,0,0-4.95,0h0A2.33,2.33,0,0,0,448.63,697.7Z" transform="translate(-23.88 -220.53)"/><path class="cls-34" d="M452.34,745.92l-2.47,11.13-40.81-24.73c-1.23,0-1.23-1.23-1.23-2.47-1.24-1.24,0-3.71,1.23-6.18,1.24,0,1.24-1.24,2.48-2.48l7.42,4.95Z" transform="translate(-23.88 -220.53)"/><path class="cls-37" d="M515.41,690.28a256.66,256.66,0,0,0-24.73,18.55H487l-19.79-12.37-8.65-4.94c-2.48-1.24-2.48-3.71-1.24-3.71q14.83-11.13,26-18.55h2.47l8.66,4.94,21,12.37C516.64,686.57,516.64,689,515.41,690.28Z" transform="translate(-23.88 -220.53)"/><path class="cls-35" d="M461,689c9.89-6.18,17.31-12.36,23.49-16.07l27.21,14.84a224.45,224.45,0,0,0-23.5,17.31Z" transform="translate(-23.88 -220.53)"/><path class="cls-36" d="M488.2,705.12,461,689l50.7-1.23A224.45,224.45,0,0,0,488.2,705.12Z" transform="translate(-23.88 -220.53)"/><path class="cls-37" d="M537.67,695.23V694a3.81,3.81,0,0,0-1.24-2.47c0-1.24-1.24-2.48-2.47-3.71h0a10.55,10.55,0,0,0-8.66,0,353,353,0,0,0-35.86,26h0c-14.84,12.37-30.91,26-38.33,34.63-2.48,1.23-2.48,3.71-2.48,6.18s3.71,3.71,4.95,1.24l51.93-34.63c3.71-1.23,6.19-2.47,9.9-2.47,7.42,1.24,22.26-9.89,22.26-22.26Z" transform="translate(-23.88 -220.53)"/><path class="cls-33" d="M534,696.46a23.61,23.61,0,0,1-8.66,17.31c-6.18,2.48-9.89,0-9.89-6.18s3.71-13.6,9.89-16.07C530.25,687.81,534,690.28,534,696.46Z" transform="translate(-23.88 -220.53)"/><path class="cls-34" d="M516.64,707.59c0-6.18,3.71-12.36,8.66-14.84,2.47-1.23,5-1.23,6.18,0,1.24,0,1.24,2.48,1.24,5,0,4.94-3.71,11.13-7.42,13.6-2.47,1.24-3.71,2.47-6.18,1.24C517.88,711.3,516.64,710.06,516.64,707.59Z" transform="translate(-23.88 -220.53)"/><path class="cls-37" d="M519.12,712.54c-1.24-1.24-1.24-2.48-1.24-4.95,0-5,3.71-12.36,7.42-14.84,2.47-1.23,5-1.23,6.18,0,1.24,0,1.24,2.48,1.24,5,0,4.94-3.71,11.13-7.42,13.6C522.83,712.54,521.59,713.77,519.12,712.54Z" transform="translate(-23.88 -220.53)"/><path class="cls-47" d="M530.25,698.93c-3.71,0-6.19,1.24-8.66,5h-1.24v-1.24c3.71-3.71,7.42-4.94,9.9-4.94h0Z" transform="translate(-23.88 -220.53)"/><path class="cls-47" d="M527.77,701.41a6.6,6.6,0,0,0-4.94,3.71h-1.24a1.21,1.21,0,0,1,1.24-1.24,6.8,6.8,0,0,1,6.18-3.71v1.24Z" transform="translate(-23.88 -220.53)"/><path class="cls-47" d="M527.77,703.88c-1.23,1.24-2.47,1.24-3.71,2.47h-1.23v-1.23c2.47-1.24,3.71-2.48,4.94-2.48v1.24Z" transform="translate(-23.88 -220.53)"/><path class="cls-47" d="M526.54,707.59h-2.48c1.24-1.24,1.24-1.24,2.48-1.24h0Z" transform="translate(-23.88 -220.53)"/><path class="cls-37" d="M653.9,742.21v6.19h0c0,1.23,1.24,2.47,2.48,3.71l68,39.57a21.16,21.16,0,0,0,12.36,0h0v-9.9Z" transform="translate(-23.88 -220.53)"/><path class="cls-34" d="M778.79,758.29l-42,23.49v9.9l39.57-23.5c1.24-1.23,2.47-2.47,2.47-3.71h0Z" transform="translate(-23.88 -220.53)"/><path class="cls-33" d="M759,776.84l-7.42,3.71h0v-2.48h0l7.42-3.7h0v2.47Z" transform="translate(-23.88 -220.53)"/><polygon class="cls-37" points="733.9 556.31 728.95 558.78 727.72 558.78 727.72 557.55 735.13 553.84 735.13 555.08 733.9 556.31"/><polygon class="cls-34" points="733.9 556.31 728.95 558.78 728.95 557.55 733.9 555.08 733.9 556.31"/><path class="cls-33" d="M771.37,765.71a2.32,2.32,0,0,1,0,3.71c-1.23,1.24-1.23,1.24-2.47,1.24s-1.23-2.48,0-3.71S770.14,765.71,771.37,765.71Z" transform="translate(-23.88 -220.53)"/><path class="cls-37" d="M771.37,767v1.23c-1.23,1.24-1.23,1.24-2.47,1.24v-1.24C770.14,767,770.14,767,771.37,767Z" transform="translate(-23.88 -220.53)"/><path class="cls-33" d="M776.32,760.76l-39.57,23.5a11.23,11.23,0,0,1-12.36,0l-68-39.57a3.51,3.51,0,0,1,0-6.19L697.18,715c2.47-1.24,7.42-1.24,11.13,0l68,39.57C780,755.82,780,759.53,776.32,760.76Z" transform="translate(-23.88 -220.53)"/><polygon class="cls-35" points="705.46 514.27 665.89 536.53 639.92 521.69 679.49 499.43 705.46 514.27"/><polygon class="cls-36" points="665.89 536.53 639.92 521.69 705.46 514.27 665.89 536.53"/><path class="cls-38" d="M742.93,765.71c-4.94,2.47-14.83,2.47-21,0-4.94-3.71-4.94-8.66,0-12.37,6.19-3.71,16.08-3.71,21,0C749.12,757.05,749.12,762,742.93,765.71ZM714.49,748.4c-9.89,6.18-9.89,16.07,0,21,9.9,6.18,26,6.18,37.1,0,9.89-4.95,9.89-14.84,0-21C740.46,743.45,724.39,743.45,714.49,748.4Z" transform="translate(-23.88 -220.53)"/><path class="cls-38" d="M736.75,755.82l-11.13,1.23c-2.47,0-2.47,1.24-1.23,2.48l8.65,4.94a4.56,4.56,0,0,0,3.71-1.23l2.47-6.19C740.46,755.82,739.22,754.58,736.75,755.82Z" transform="translate(-23.88 -220.53)"/><polygon class="cls-37" points="725.24 529.11 722.77 529.11 722.77 530.34 724 530.34 725.24 530.34 725.24 529.11"/><polygon class="cls-37" points="722.77 530.34 720.29 531.58 720.29 531.58 721.53 532.82 722.77 531.58 722.77 530.34"/><polygon class="cls-37" points="727.72 529.11 726.48 529.11 725.24 529.11 725.24 527.87 725.24 527.87 727.72 529.11"/><polygon class="cls-37" points="693.09 547.66 693.09 546.42 694.33 546.42 695.56 547.66 695.56 547.66 693.09 547.66"/><polygon class="cls-37" points="695.56 546.42 695.56 545.18 696.8 545.18 698.04 546.42 698.04 546.42 695.56 546.42"/><polygon class="cls-37" points="693.09 548.89 693.09 548.89 691.85 547.66 690.62 547.66 690.62 547.66 693.09 548.89"/><polygon class="cls-37" points="698.04 530.34 696.8 530.34 694.33 529.11 694.33 529.11 694.33 529.11 698.04 530.34"/><polygon class="cls-37" points="695.56 531.58 694.33 531.58 691.85 530.34 691.85 530.34 691.85 530.34 695.56 531.58"/><polygon class="cls-37" points="722.77 545.18 722.77 545.18 720.29 546.42 720.29 546.42 720.29 547.66 720.29 547.66 720.29 547.66 722.77 548.89 722.77 548.89 724 548.89 726.48 547.66 726.48 546.42 724 545.18 722.77 545.18"/><path class="cls-34" d="M151.86,461.52v6.18L228.53,422a2.67,2.67,0,0,0,2.47-2.48v-6.18Z" transform="translate(-23.88 -220.53)"/><path class="cls-37" d="M103.63,438v6.18c0,1.24,1.24,2.48,2.48,3.71l34.62,19.79a10.55,10.55,0,0,0,8.66,0h2.47v-6.18C150.62,461.52,103.63,438,103.63,438Z" transform="translate(-23.88 -220.53)"/><path class="cls-33" d="M203.79,434.31h0v-1.24l7.42-3.7h0v1.23l-7.42,3.71Z" transform="translate(-23.88 -220.53)"/><path class="cls-33" d="M193.9,439.26h0V438l7.42-3.71v2.47l-7.42,3.71Z" transform="translate(-23.88 -220.53)"/><path class="cls-33" d="M216.16,426.89h0v-1.23l5-2.48h0v1.24l-5,2.47Z" transform="translate(-23.88 -220.53)"/><path class="cls-33" d="M228.53,409.58c3.71,2.47,3.71,4.95,0,6.18l-76.67,45.76c-3.71,1.23-8.66,1.23-11.13,0l-34.62-19.79a3.5,3.5,0,0,1,0-6.18L184,389.8c2.47-1.24,7.42-1.24,11.13,0Z" transform="translate(-23.88 -220.53)"/><path class="cls-34" d="M137,450.39c1.24,0,1.24,1.23,0,1.23l-2.47,1.24h-2.48L121,446.68c-1.24,0-1.24-1.24,0-1.24l2.47-1.24c1.24-1.23,2.47-1.23,2.47,0Z" transform="translate(-23.88 -220.53)"/><polygon class="cls-35" points="195.99 197.71 129.22 236.04 90.89 213.78 157.66 174.22 195.99 197.71"/><path class="cls-34" d="M214.92,407.11h0c-1.23,1.23-1.23,1.23-2.47,0l-13.6-7.42v-1.24h2.47Z" transform="translate(-23.88 -220.53)"/><polygon class="cls-36" points="129.22 236.04 90.89 213.78 147.77 205.13 195.99 197.71 129.22 236.04"/><path class="cls-37" d="M900,760.76l-9.9-6.18v30.91c0,1.24,1.24,2.48,2.48,3.71l7.42,3.71c1.23,1.24,4.94,1.24,7.42,0l4.94-2.47v-37.1Z" transform="translate(-23.88 -220.53)"/><path class="cls-34" d="M974.17,778.07v35.86l9.89-6.18a1.21,1.21,0,0,0,1.24-1.23v-37.1Z" transform="translate(-23.88 -220.53)"/><path class="cls-37" d="M974.17,778.07v35.86a13.36,13.36,0,0,1-13.6,0c-1.24,0-39.57-22.25-42-23.49-1.24-1.24-4.95-1.24-6.19,0v-37.1c1.24-1.23,6.19-2.47,6.19-2.47Z" transform="translate(-23.88 -220.53)"/><path class="cls-33" d="M984.06,771.89l-9.89,6.18a25.33,25.33,0,0,1-13.6,0c-1.24-1.23-39.57-23.49-42-24.73-1.24-1.23-4.95-1.23-6.19,0l-16.07-9.89,19.78-11.13a7.92,7.92,0,0,1,7.42,0l12.37,7.42L984.06,767C986.54,768.18,986.54,770.66,984.06,771.89Z" transform="translate(-23.88 -220.53)"/><path class="cls-34" d="M912.34,753.34s-8.65,6.19-12.36,7.42-9.9-1.23-9.9-6.18c1.24-5,4.95-8.66,6.19-11.13Z" transform="translate(-23.88 -220.53)"/><path class="cls-37" d="M902.45,749.63c1.24,1.24,1.24,5-1.24,6.19-2.47,2.47-4.94,2.47-6.18,1.23-2.47-1.23-1.24-4.94,1.24-7.42C897.5,748.4,901.21,748.4,902.45,749.63Z" transform="translate(-23.88 -220.53)"/><path class="cls-33" d="M901.21,749.63c1.24,1.24,1.24,3.71-1.23,5-1.24,2.47-3.71,2.47-5,1.24s-1.24-3.71,1.24-5C897.5,748.4,900,748.4,901.21,749.63Z" transform="translate(-23.88 -220.53)"/><path class="cls-37" d="M909.87,742.21h0v1.24h-3.71v-1.24h0v1.24h3.71Z" transform="translate(-23.88 -220.53)"/><path class="cls-37" d="M909.87,742.21h0v1.24h-3.71v-1.24h0v1.24h3.71Z" transform="translate(-23.88 -220.53)"/><path class="cls-34" d="M909.87,741v2.47h-3.71V741Z" transform="translate(-23.88 -220.53)"/><path class="cls-37" d="M913.58,744.69h0v1.23h-3.71v-1.23h0a2.33,2.33,0,0,0,3.71,0Z" transform="translate(-23.88 -220.53)"/><path class="cls-37" d="M913.58,744.69h0v1.23h-3.71v-1.23h0a2.33,2.33,0,0,0,3.71,0Z" transform="translate(-23.88 -220.53)"/><path class="cls-34" d="M913.58,743.45v1.24a2.33,2.33,0,0,1-3.71,0v-1.24Z" transform="translate(-23.88 -220.53)"/><path class="cls-37" d="M917.29,745.92v2.48h-2.47l-1.24-1.24v-1.24c0,1.24,0,1.24,1.24,1.24h2.47Z" transform="translate(-23.88 -220.53)"/><path class="cls-37" d="M917.29,745.92Zm0,0v1.24h0v1.24h-2.47l-1.24-1.24v-1.24h0c0,1.24,0,1.24,1.24,1.24h2.47v-1.24Z" transform="translate(-23.88 -220.53)"/><path class="cls-34" d="M917.29,745.92v1.24h-2.47a1.21,1.21,0,0,1-1.24-1.24A2.33,2.33,0,0,1,917.29,745.92Z" transform="translate(-23.88 -220.53)"/><path class="cls-37" d="M921,748.4v1.23h0c-1.24,1.24-2.47,1.24-2.47,0h-1.24V748.4a1.21,1.21,0,0,0,1.24,1.23H921Z" transform="translate(-23.88 -220.53)"/><path class="cls-37" d="M921,748.4v1.23h0c-1.24,1.24-2.47,1.24-2.47,0h-1.24V748.4a1.21,1.21,0,0,0,1.24,1.23H921Z" transform="translate(-23.88 -220.53)"/><path class="cls-34" d="M921,748.4v1.23h-2.47c-1.24,0-1.24-1.23,0-1.23C918.53,747.16,919.76,747.16,921,748.4Z" transform="translate(-23.88 -220.53)"/><path class="cls-36" d="M933.36,742.21l-14.83-8.65h-1.24l-6.18,3.71c-1.24,0-1.24,1.23,0,1.23l14.83,8.66h1.24l6.18-3.71C934.6,743.45,934.6,742.21,933.36,742.21Z" transform="translate(-23.88 -220.53)"/><path class="cls-34" d="M918.53,733.56h-1.24l-7.42,3.71v1.23h0l16.07,8.66h1.24l7.42-3.71v-1.24h0l-16.07-8.65Zm0,0h0l14.83,8.65c1.24,0,1.24,1.24,0,1.24l-6.18,3.71h-1.24l-14.83-8.66c-1.24,0-1.24-1.23,0-1.23l6.18-3.71Z" transform="translate(-23.88 -220.53)"/><path class="cls-35" d="M925.94,747.16h0l-14.83-8.66h0l14.83,8.66Zm0,0h1.24l6.18-3.71a1.21,1.21,0,0,0,1.24-1.24,1.21,1.21,0,0,1-1.24,1.24l-6.18,3.71Z" transform="translate(-23.88 -220.53)"/><path class="cls-33" d="M970.46,765.71c1.24,0,1.24,1.24,0,2.47a3.76,3.76,0,0,1-5,0c-1.23-1.23-1.23-2.47,0-2.47A3.76,3.76,0,0,1,970.46,765.71Z" transform="translate(-23.88 -220.53)"/><path class="cls-37" d="M974.17,767v3.71a3.83,3.83,0,0,1-1.24,2.47,13.61,13.61,0,0,1-9.89,0,3.83,3.83,0,0,1-1.24-2.47V767c0,1.23,0,2.47,1.24,2.47a13.61,13.61,0,0,0,9.89,0C974.17,769.42,974.17,768.18,974.17,767Z" transform="translate(-23.88 -220.53)"/><path class="cls-37" d="M974.17,767v3.71a3.83,3.83,0,0,1-1.24,2.47,13.61,13.61,0,0,1-9.89,0h0v-1.24H961.8v-1.23h0V767c0,1.23,0,2.47,1.24,2.47a13.61,13.61,0,0,0,9.89,0C974.17,769.42,974.17,768.18,974.17,767Z" transform="translate(-23.88 -220.53)"/><path class="cls-34" d="M965.51,768.18a3.76,3.76,0,0,0,5,0c1.24-1.23,1.24-2.47,0-2.47a3.76,3.76,0,0,0-5,0C964.28,765.71,964.28,767,965.51,768.18Zm7.42-3.71c2.48,1.24,2.48,3.71,0,4.95a13.61,13.61,0,0,1-9.89,0c-2.47-1.24-2.47-3.71,0-4.95A13.71,13.71,0,0,1,972.93,764.47Z" transform="translate(-23.88 -220.53)"/><path class="cls-33" d="M954.39,795.39A20.92,20.92,0,0,0,950.68,783a18,18,0,0,0-7.42-11.13c-1.24-2.47-3.71-3.71-5-4.94-4.95-2.48-8.66-2.48-12.37-1.24L888.85,788l23.49,40.8,37.1-22.25c3.71-1.24,4.95-4.95,4.95-11.13Z" transform="translate(-23.88 -220.53)"/><path class="cls-37" d="M900,789.2c9.89,4.95,17.31,17.32,17.31,28.44s-7.42,14.84-17.31,9.9c-8.66-6.19-16.08-18.55-16.08-29.68C883.9,788,891.32,783,900,789.2Z" transform="translate(-23.88 -220.53)"/><path class="cls-37" d="M907.4,827.54a13.45,13.45,0,0,1-6.19-1.24c-8.65-6.18-16.07-17.31-16.07-28.44,0-6.18,3.71-9.89,7.42-9.89,2.47,0,4.94,1.23,7.42,2.47,8.65,4.95,16.07,17.31,16.07,27.2C916.05,823.83,912.34,827.54,907.4,827.54Z" transform="translate(-23.88 -220.53)"/><path class="cls-36" d="M907.4,826.3c-2.48,0-3.71-1.24-6.19-2.47-8.65-3.71-14.84-16.08-14.84-24.73,0-6.19,2.48-9.9,7.42-9.9,1.24,0,3.71,1.24,6.19,2.48,7.42,4.94,14.84,16.07,14.84,24.73C914.82,822.59,911.11,826.3,907.4,826.3Z" transform="translate(-23.88 -220.53)"/><path class="cls-35" d="M907.4,826.3c-2.48,0-3.71-1.24-6.19-2.47-8.65-3.71-14.84-14.84-14.84-24.73h0c3.71,14.83,11.13,22.25,18.55,22.25,3.71,0,6.19-1.23,9.9-4.94C914.82,822.59,911.11,826.3,907.4,826.3Z" transform="translate(-23.88 -220.53)"/><path class="cls-34" d="M968,743.45v14.84l-22.26,12.37V753.34S961.8,747.16,968,743.45Z" transform="translate(-23.88 -220.53)"/><path class="cls-37" d="M925.94,750.87v9.89h0c0,3.71,17.32,12.37,19.79,9.9V762Z" transform="translate(-23.88 -220.53)"/><path class="cls-33" d="M968,743.45c-6.19,3.71-18.55,12.37-22.26,18.55h0c-3.71,2.47-23.49-8.66-19.79-12.37,4.95-7.42,11.13-13.6,22.26-17.31Z" transform="translate(-23.88 -220.53)"/><polygon class="cls-43" points="672.07 771.47 669.6 771.47 637.45 788.78 637.45 792.5 637.45 791.26 672.07 771.47"/><path class="cls-49" d="M658.85,1010.55,603.2,979.63v1.24c0,1.24,0,1.24,1.24,2.47l50.7,28.44c1.24,1.24,4.94,1.24,6.18,1.24v-3.71Z" transform="translate(-23.88 -220.53)"/><path class="cls-38" d="M604.44,982.11l50.7,29.67h6.18L695.94,992l-56.88-33.39L604.44,978.4A2.32,2.32,0,0,0,604.44,982.11Z" transform="translate(-23.88 -220.53)"/><path class="cls-38" d="M687.29,869.58c-1.24-1.24-1.24-1.24-2.47,0h0c-34.63,13.6-60.6,30.91-60.6,42l86.56,49.47c0-1.24,1.24-3.71,3.71-6.19,18.55-14.84,59.36-33.38,59.36-33.38s2.47-1.24,2.47,0Z" transform="translate(-23.88 -220.53)"/><path class="cls-33" d="M712,1000.66,695.94,992l-56.88-33.39L625.46,950c-1.24,0-1.24-1.24-1.24-2.48V911.62l14.84,8.66,71.72,40.81v37.09h0v1.24h0l1.24,1.24Z" transform="translate(-23.88 -220.53)"/><path class="cls-68" d="M777.56,959.85a6.81,6.81,0,0,1-3.71,6.18l-59.36,34.63H712l-1.24-1.24h0v-1.24h0V961.09c0-1.24,1.24-3.71,3.71-6.19,18.55-14.84,38.34-27.2,59.36-33.38,2.47-1.24,3.71,0,3.71,1.23Z" transform="translate(-23.88 -220.53)"/><path class="cls-47" d="M714.49,995.71V961.09c0-1.24,1.24-2.48,2.48-3.71a148.88,148.88,0,0,1,55.64-32.15h1.24v34.62a9.31,9.31,0,0,1-2.48,4.94L715.73,997C714.49,997,714.49,997,714.49,995.71Z" transform="translate(-23.88 -220.53)"/><path class="cls-43" d="M745.41,919c-12.37,6.19-28.44,16.08-37.1,23.5-2.47,2.47-7.42,2.47-11.13,1.23l-54.41-32.15c-2.47-1.23-2.47-3.71-1.23-6.18,4.94-6.18,21-17.31,39.57-24.73a7.87,7.87,0,0,1,7.42,0l58.11,33.39C747.88,915.33,747.88,917.81,745.41,919Z" transform="translate(-23.88 -220.53)"/><path class="cls-49" d="M712,1000.66h0l-1.24-1.24h0v-1.24h0V961.09l-86.56-49.47v35.86c0,1.24,0,2.48,1.24,2.48l13.6,8.65V950c0-1.24,1.24-1.24,2.48-1.24l51.93,30.91c1.24,0,2.47,1.24,2.47,3.71V992Z" transform="translate(-23.88 -220.53)"/><path class="cls-43" d="M746.64,926.46l-2.47-1.23c-2.47-1.24-4.95-1.24-6.18,0l-13.6,7.41a2.32,2.32,0,0,0,0,3.71l2.47,1.24c1.24,1.24,3.71,1.24,6.18,0l13.6-7.42A2.32,2.32,0,0,0,746.64,926.46Z" transform="translate(-23.88 -220.53)"/><path class="cls-69" d="M731.81,935.12c2.47,0,3.7-1.24,3.7-2.48s-1.23-1.23-3.7-1.23c-1.24,0-3.71,0-3.71,1.23S730.57,935.12,731.81,935.12Z" transform="translate(-23.88 -220.53)"/><path class="cls-38" d="M731.81,935.12a1.21,1.21,0,0,0,1.23-1.24c1.24,0,1.24-1.24,0-1.24,0-1.23-1.23-1.23-2.47,0h-1.24a1.21,1.21,0,0,0,1.24,1.24v-1.24H733v1.24h-1.23Z" transform="translate(-23.88 -220.53)"/><polygon class="cls-38" points="707.93 712.12 707.93 712.12 706.69 713.36 706.69 713.36 706.69 713.36 707.93 713.36 707.93 712.12"/><path class="cls-46" d="M745.41,928.93l-4.95-3.7H738v1.23l4.94,2.47c0,1.24,1.24,1.24,2.48,0Z" transform="translate(-23.88 -220.53)"/><path class="cls-44" d="M741.7,930.17l-5-2.47h-2.47v1.23l4.94,2.48c0,1.23,1.24,1.23,2.48,0Z" transform="translate(-23.88 -220.53)"/><path class="cls-38" d="M697.18,984.58h-1.24c-13.6,7.42-13.6,12.37-13.6,14.84l1.24,1.24Z" transform="translate(-23.88 -220.53)"/><path class="cls-43" d="M697.18,984.58c-13.6,7.42-13.6,13.6-13.6,16.08l13.6-8.66Z" transform="translate(-23.88 -220.53)"/><path class="cls-38" d="M639.06,951.19h0c-13.6,7.42-13.6,13.6-13.6,14.84v1.24Z" transform="translate(-23.88 -220.53)"/><path class="cls-43" d="M639.06,951.19c-13.6,7.42-13.6,13.6-13.6,16.08l13.6-8.66Z" transform="translate(-23.88 -220.53)"/><path class="cls-33" d="M741.7,914.1l-53.17-30.92c-1.24-1.23-3.71-1.23-4.95-1.23s-1.24,0-2.47,1.23c-16.08,7.42-29.68,17.31-35.86,23.5v2.47l89,13.6c2.47-2.47,4.94-2.47,7.42-3.71S744.17,915.33,741.7,914.1Z" transform="translate(-23.88 -220.53)"/><path class="cls-47" d="M734.28,922.75a174.75,174.75,0,0,0-27.21,17.31c-2.47,2.48-7.42,2.48-9.89,1.24l-50.7-29.68c-1.23,0-1.23-1.23-1.23-2.47l33.38-14.84c3.71-1.24,6.19-1.24,8.66,0Z" transform="translate(-23.88 -220.53)"/><path class="cls-43" d="M717,919l-22.26,13.6h-1.24c-1.23,0-1.23-1.23,0-1.23L715.73,919Z" transform="translate(-23.88 -220.53)"/><path class="cls-43" d="M707.07,914.1l-23.49,12.36h-1.24v-1.23l23.5-12.37h1.23C708.31,912.86,708.31,912.86,707.07,914.1Z" transform="translate(-23.88 -220.53)"/><path class="cls-43" d="M697.18,907.91l-23.49,12.37h-1.24l23.49-13.6h1.24C698.42,906.68,698.42,907.91,697.18,907.91Z" transform="translate(-23.88 -220.53)"/><path class="cls-43" d="M687.29,901.73l-23.5,12.37c-1.23,1.23-1.23,1.23-2.47,0h0l24.73-12.37c0-1.24,1.24-1.24,1.24,0Z" transform="translate(-23.88 -220.53)"/><path class="cls-47" d="M279.22,757.05c-3.7-7.42-7.41-14.84-7.41-22.25,1.23-3.71,2.47-7.42,6.18-8.66-6.18,2.47-21,9.89-22.26,11.13a14.2,14.2,0,0,0-4.95,14.84c0,7.42,3.71,13.6,7.42,18.55A52.85,52.85,0,0,0,273,784.26c4.95,3.71,12.37,6.18,18.55,4.94,2.47,0,17.31-9.89,23.49-13.6h0c-6.18,2.47-13.6,0-18.54-2.47C295.3,771.89,284.17,763.24,279.22,757.05Z" transform="translate(-23.88 -220.53)"/><path class="cls-38" d="M296.54,728.61s-11.13-6.18-16.08-6.18a4.54,4.54,0,0,1-3.71,1.24L254.49,736c4.95-2.47,12.37,0,21,3.71,32.15,24.73,24.73,44.52,18.54,49.46h0l22.26-12.36c3.71-2.47,4.95-6.18,4.95-11.13v-2.47c0-7.42-3.71-14.84-8.66-21C308.9,736,296.54,728.61,296.54,728.61Z" transform="translate(-23.88 -220.53)"/><path class="cls-49" d="M274.28,785.49c13.6,7.42,24.73,3.71,24.73-8.65S287.88,748.4,275.52,741c-13.61-8.66-24.74-5-24.74,7.42S261.91,778.07,274.28,785.49Zm1.24-45.75c13.6,7.42,24.73,24.73,24.73,38.33,0,12.37-11.13,16.08-26,8.66-13.6-8.66-24.73-26-24.73-38.33C249.55,734.8,260.68,731.09,275.52,739.74Z" transform="translate(-23.88 -220.53)"/><polygon class="cls-34" points="256.59 501.9 260.3 501.9 235.56 515.51 235.56 514.27 256.59 501.9"/><polygon class="cls-37" points="235.56 514.27 235.56 516.74 235.56 516.74 235.56 515.51 235.56 514.27"/><path class="cls-37" d="M286.64,752.11l-27.2-14.84v4.94l24.73,13.61a2.33,2.33,0,0,0,3.71,0h0v-3.71Z" transform="translate(-23.88 -220.53)"/><path class="cls-34" d="M287.88,752.11v3.71l24.73-13.61v-4.94Z" transform="translate(-23.88 -220.53)"/><path class="cls-33" d="M312.61,736l-24.73-13.6a2.32,2.32,0,0,0-3.71,0L259.44,736c-1.24,1.24-1.24,1.24,0,2.47l24.73,13.61a2.33,2.33,0,0,0,3.71,0l24.73-13.61C313.85,737.27,313.85,737.27,312.61,736Z" transform="translate(-23.88 -220.53)"/><polygon class="cls-36" points="286.26 516.74 262.77 530.34 261.53 530.34 238.04 516.74 238.04 516.74 261.53 503.14 262.77 503.14 286.26 516.74"/><polygon class="cls-35" points="261.53 530.34 238.04 516.74 238.04 516.74 286.26 516.74 286.26 516.74 262.77 530.34 261.53 530.34"/><path class="cls-33" d="M271.81,747.16v1.24c-1.24-1.24-1.24-1.24-1.24-2.48h1.24Z" transform="translate(-23.88 -220.53)"/><path class="cls-33" d="M264.39,743.45v-1.24h0l2.47,1.24a1.21,1.21,0,0,1,1.24,1.24h0c0,1.23,0,1.23-1.24,1.23l-2.47-2.47Z" transform="translate(-23.88 -220.53)"/><path class="cls-33" d="M275.52,749.63V748.4h0l3.7,1.23v2.48h0l-3.7-1.24Z" transform="translate(-23.88 -220.53)"/><polygon class="cls-33" points="288.74 521.69 288.74 519.22 264 532.82 267.71 534.05 288.74 521.69"/><polygon class="cls-37" points="264 532.82 264 535.29 267.71 535.29 267.71 534.05 264 532.82"/><path class="cls-34" d="M295.3,771.89l-2.47-2.47h-2.48l-19.78,12.36h-1.24v2.48h1.24l2.47,2.47h1.24v-1.24h1.24l19.78-12.36c1.24,0,1.24,0,1.24-1.24v-1.23Z" transform="translate(-23.88 -220.53)"/><path class="cls-33" d="M295.3,771.89l-19.78,12.37H273l-2.47-2.48c-1.24,0-1.24-1.23,0-1.23l19.78-11.13c1.24-1.24,2.48-1.24,2.48,0l2.47,1.24C296.54,770.66,296.54,771.89,295.3,771.89Z" transform="translate(-23.88 -220.53)"/><path class="cls-33" d="M447.4,830h0c1.23,0,1.23,0,1.23-1.24l65.54-37.09h2.47l-60.59,79.14-1.23-1.24h-1.24l-6.18-37.1Z" transform="translate(-23.88 -220.53)"/><path class="cls-34" d="M457.29,870.82l64.3-38.34a2.65,2.65,0,0,0,2.47-2.47l-7.42-37.1c0-1.23,0-1.23-1.23-1.23L449.87,830a4.33,4.33,0,0,0-1.24,2.47l7.42,37.1C456.05,870.82,456.05,870.82,457.29,870.82Z" transform="translate(-23.88 -220.53)"/><polygon class="cls-36" points="486.59 611.96 481.64 583.52 439.6 608.25 444.54 636.69 486.59 611.96"/><polygon class="cls-35" points="444.54 636.69 439.6 608.25 486.59 611.96 444.54 636.69"/><path class="cls-37" d="M484.49,811.46A4.29,4.29,0,0,1,482,812.7v2.47c1.24,0,2.47,0,2.47-1.24Z" transform="translate(-23.88 -220.53)"/><path class="cls-37" d="M461,849.8c1.24,0,0,1.23,0,2.47-1.24,0-1.24,0-2.47-1.24a4.34,4.34,0,0,1,1.23-2.47C461,848.56,461,848.56,461,849.8Z" transform="translate(-23.88 -220.53)"/><path class="cls-37" d="M461,844.85c0,1.24,0,2.47-1.24,2.47-1.23,1.24-1.23,0-1.23,0v-2.47C459.76,843.61,461,843.61,461,844.85Z" transform="translate(-23.88 -220.53)"/><path class="cls-37" d="M459.76,841.14a3.82,3.82,0,0,1-1.23,2.47,1.21,1.21,0,0,1-1.24-1.23c0-1.24,0-2.48,1.24-2.48A1.21,1.21,0,0,1,459.76,841.14Z" transform="translate(-23.88 -220.53)"/><path class="cls-37" d="M456.05,849.8a1.21,1.21,0,0,1-1.23-1.24,3.82,3.82,0,0,1,1.23-2.47,1.21,1.21,0,0,1,1.24,1.23C457.29,848.56,457.29,849.8,456.05,849.8Z" transform="translate(-23.88 -220.53)"/><path class="cls-37" d="M463.47,844.85c-1.23,1.24-1.23,0-1.23,0a1.7,1.7,0,0,1,0-2.47c1.23-1.24,1.23,0,2.47,0A4.33,4.33,0,0,1,463.47,844.85Z" transform="translate(-23.88 -220.53)"/><path class="cls-37" d="M516.64,820.12c0,1.23,0,2.47-1.23,2.47s-1.24,0-1.24-1.24c-1.24,0,0-1.23,0-2.47C515.41,818.88,516.64,818.88,516.64,820.12Z" transform="translate(-23.88 -220.53)"/><path class="cls-37" d="M515.41,815.17c0,1.24,0,2.47-1.24,2.47,0,1.24-1.24,0-1.24,0,0-1.23,0-2.47,1.24-2.47C514.17,813.93,515.41,815.17,515.41,815.17Z" transform="translate(-23.88 -220.53)"/><path class="cls-37" d="M514.17,811.46v2.47c-1.24,0-2.47,0-2.47-1.23s0-1.24,1.23-2.47C514.17,810.23,514.17,810.23,514.17,811.46Z" transform="translate(-23.88 -220.53)"/><path class="cls-37" d="M510.46,820.12a1.21,1.21,0,0,1-1.24-1.24,3.81,3.81,0,0,1,1.24-2.47c1.24,0,1.24,0,1.24,1.23S511.7,820.12,510.46,820.12Z" transform="translate(-23.88 -220.53)"/><path class="cls-37" d="M517.88,816.41c-1.24,0-1.24,0-1.24-1.24s0-2.47,1.24-2.47a1.21,1.21,0,0,1,1.24,1.23A3.84,3.84,0,0,1,517.88,816.41Z" transform="translate(-23.88 -220.53)"/><path class="cls-34" d="M561.16,853.5v6.19h0L495.62,898h-2.47v-4.95Z" transform="translate(-23.88 -220.53)"/><path class="cls-37" d="M457.29,870.82V877h0l35.86,21v-4.95Z" transform="translate(-23.88 -220.53)"/><path class="cls-33" d="M457.29,870.82v1.23l4.95,2.48,30.91,18.54c1.24,0,2.47,0,2.47-1.23l55.65-30.92,9.89-6.18V853.5h0l-35.86-21h-2.47l-65.54,37.1Z" transform="translate(-23.88 -220.53)"/><path class="cls-34" d="M488.2,879.47c-2.47,1.24-2.47,4.95,1.24,6.19a13.71,13.71,0,0,0,9.89,0c2.48-2.48,2.48-4.95,0-6.19C496.86,877,491.91,877,488.2,879.47Z" transform="translate(-23.88 -220.53)"/><path class="cls-33" d="M499.33,880.71V882a3.84,3.84,0,0,1-1.23,2.47,7.87,7.87,0,0,1-7.42,0c-1.24-1.24-1.24-1.24-1.24-2.47l-1.24-1.24Z" transform="translate(-23.88 -220.53)"/><path class="cls-70" d="M490.68,879.47q-3.72,1.86,0,3.71a7.87,7.87,0,0,0,7.42,0,3.77,3.77,0,0,0,0-4.94C495.62,877,491.91,878.24,490.68,879.47Z" transform="translate(-23.88 -220.53)"/><path class="cls-34" d="M519.12,841.14c-3.71,1.24-2.48,3.71,0,6.18,2.47,1.24,7.42,1.24,11.13-1.23,2.47-1.24,2.47-3.71-1.24-6.19C526.54,838.67,521.59,838.67,519.12,841.14Z" transform="translate(-23.88 -220.53)"/><path class="cls-33" d="M529,842.38v1.23a1.21,1.21,0,0,1-1.24,1.24c-1.23,1.24-4.94,2.47-7.42,1.24-1.23-1.24-1.23-1.24-1.23-2.48v-1.23Z" transform="translate(-23.88 -220.53)"/><path class="cls-70" d="M520.35,839.9c-2.47,1.24-2.47,3.71,0,5s6.19,1.24,7.42,0c2.48-1.24,2.48-3.71,0-5A7.92,7.92,0,0,0,520.35,839.9Z" transform="translate(-23.88 -220.53)"/><path class="cls-71" d="M470.89,872.05c1.24,0,1.24-1.23,0-1.23l-2.47-1.24h-1.24v-1.24l8.66,1.24,7.42-2.47v1.23h0l-2.48,1.24c-1.23,1.24-1.23,2.47,0,2.47l2.48,1.24h0v1.24L482,875.76h-2.47l-2.48-1.23c0-1.24-2.47-1.24-3.71,0l-1.23,1.23h-1.24l-2.47-1.23h-1.24v-1.24Z" transform="translate(-23.88 -220.53)"/><path class="cls-70" d="M472.13,865.87l1.23,1.24c1.24,1.23,3.71,1.23,3.71,0l2.48-1.24h1.23l2.48,1.24v1.23l-2.48,1.24c-1.23,0-1.23,1.24,0,1.24l2.48,1.23c1.23,0,1.23,1.24,0,1.24L482,874.53h-2.47l-2.48-1.24h-3.71l-1.23,1.24c0,1.23-1.24,1.23-1.24,0h-2.47c-1.24-1.24-1.24-1.24,0-1.24l2.47-1.24c1.24-1.23,1.24-2.47,0-2.47l-2.47-1.24c-1.24,0-1.24,0,0-1.23l1.23-1.24Z" transform="translate(-23.88 -220.53)"/><path class="cls-72" d="M548.79,848.56v1.24a1.2,1.2,0,0,1-1.23,1.23,3.76,3.76,0,0,1-4.95,0V849.8h0Z" transform="translate(-23.88 -220.53)"/><path class="cls-44" d="M542.61,847.32c-1.23,1.24-1.23,2.48,0,2.48a3.78,3.78,0,0,0,4.95,0c1.23,0,1.23-1.24,0-2.48Z" transform="translate(-23.88 -220.53)"/><path class="cls-73" d="M538.9,848.56v1.24a1.2,1.2,0,0,1-1.23,1.23c0,1.24-2.48,1.24-3.71,0a1.21,1.21,0,0,1-1.24-1.23v-1.24Z" transform="translate(-23.88 -220.53)"/><path class="cls-45" d="M534,847.32c-1.24,1.24-1.24,2.48,0,2.48,1.23,1.23,3.71,1.23,3.71,0,1.23,0,1.23-1.24,0-2.48Z" transform="translate(-23.88 -220.53)"/><path class="cls-74" d="M548.79,854.74V856a1.2,1.2,0,0,1-1.23,1.23,2.32,2.32,0,0,1-3.71,0c-1.24,0-1.24,0-1.24-1.23v-1.24Z" transform="translate(-23.88 -220.53)"/><path class="cls-46" d="M543.85,853.5c-1.24,1.24-1.24,2.48,0,2.48a2.33,2.33,0,0,0,3.71,0c1.23,0,1.23-1.24,0-2.48Z" transform="translate(-23.88 -220.53)"/><path class="cls-71" d="M538.9,854.74v2.47a3.75,3.75,0,0,1-4.94,0,1.21,1.21,0,0,1-1.24-1.23v-1.24Z" transform="translate(-23.88 -220.53)"/><path class="cls-70" d="M534,853.5c-1.24,1.24-1.24,2.48,0,2.48a3.77,3.77,0,0,0,4.94,0c1.24,0,1.24-1.24,0-2.48Z" transform="translate(-23.88 -220.53)"/><polygon class="cls-37" points="511.32 641.63 482.88 657.71 460.62 644.11 489.06 628.03 511.32 641.63"/><polygon class="cls-75" points="482.88 657.71 460.62 644.11 511.32 641.63 482.88 657.71"/><path class="cls-71" d="M488.2,856h0l6.19-1.24h0l-2.48,2.47h-2.47C488.2,857.21,488.2,857.21,488.2,856Z" transform="translate(-23.88 -220.53)"/><path class="cls-70" d="M489.44,854.74l2.47-1.24h2.48v1.24L491.91,856a3.82,3.82,0,0,1-2.47,1.23C488.2,856,488.2,856,489.44,854.74Z" transform="translate(-23.88 -220.53)"/><path class="cls-71" d="M496.86,851h0l6.18-2.47v1.24h0l-3.71,2.47h-2.47V851Z" transform="translate(-23.88 -220.53)"/><path class="cls-70" d="M496.86,849.8l3.71-1.24h1.24A1.21,1.21,0,0,1,503,849.8L499.33,851c0,1.24-1.23,1.24-2.47,0Z" transform="translate(-23.88 -220.53)"/><polygon class="cls-33" points="438.36 657.71 442.07 660.18 442.07 660.18 442.07 658.95 442.07 657.71 438.36 656.47 438.36 656.47 438.36 657.71"/><polygon class="cls-37" points="438.36 657.71 442.07 658.95 442.07 658.95 442.07 658.95 438.36 656.47 438.36 657.71"/><polygon class="cls-34" points="438.36 657.71 442.07 658.95 442.07 658.95 438.36 656.47 438.36 657.71"/><polygon class="cls-33" points="444.54 661.42 447.02 662.66 448.25 662.66 448.25 662.66 447.02 661.42 444.54 658.95 443.31 658.95 443.31 660.18 444.54 661.42"/><polygon class="cls-37" points="444.54 661.42 447.02 662.66 447.02 662.66 447.02 661.42 444.54 660.18 444.54 660.18 444.54 661.42"/><polygon class="cls-34" points="444.54 660.18 447.02 662.66 447.02 661.42 444.54 660.18"/><path class="cls-33" d="M525.3,877v2.47c-1.24,1.24-1.24,1.24-2.47,1.24v-2.47C524.06,877,524.06,877,525.3,877Z" transform="translate(-23.88 -220.53)"/><path class="cls-37" d="M525.3,878.24v1.23c-1.24,0-1.24,1.24-2.47,0v-1.23C524.06,878.24,524.06,877,525.3,878.24Z" transform="translate(-23.88 -220.53)"/><path class="cls-33" d="M531.48,873.29c1.24,0,1.24,1.24,0,2.47,0,1.24-1.23,1.24-2.47,1.24v-2.47A3.83,3.83,0,0,1,531.48,873.29Z" transform="translate(-23.88 -220.53)"/><path class="cls-37" d="M531.48,874.53v1.23s-1.23,1.24-1.23,0c-1.24,0-1.24,0,0-1.23C530.25,874.53,531.48,873.29,531.48,874.53Z" transform="translate(-23.88 -220.53)"/></svg>