<?xml version="1.0" encoding="UTF-8"?>
<!DOCTYPE svg PUBLIC "-//W3C//DTD SVG 1.0//EN" "http://www.w3.org/TR/2001/REC-SVG-20010904/DTD/svg10.dtd">
<!-- Creator: CorelDRAW X7 -->
<svg xmlns="http://www.w3.org/2000/svg" xml:space="preserve" width="0.531in" height="0.482in" version="1.0" shape-rendering="geometricPrecision" text-rendering="geometricPrecision" image-rendering="optimizeQuality" fill-rule="evenodd" clip-rule="evenodd"
viewBox="0 0 531 482"
 xmlns:xlink="http://www.w3.org/1999/xlink">
 <g id="Layer_x0020_1">
  <metadata id="CorelCorpID_0Corel-Layer"/>
  <g id="_1994182270128">
   <polygon fill="#B3B4B4" fill-rule="nonzero" points="307,297 302,295 335,190 339,191 "/>
   <polygon fill="#FEFEFE" fill-rule="nonzero" points="336,199 333,198 "/>
   <polygon fill="#383838" fill-rule="nonzero" points="336,198 333,197 333,198 336,200 "/>
   <polygon fill="#B3B4B4" fill-rule="nonzero" points="212,297 218,295 184,190 181,191 "/>
   <path fill="#DFE0DF" fill-rule="nonzero" d="M347 315l-176 0c-3,0 -5,-3 -5,-6l0 -13c0,-3 2,-6 5,-6l176 0c3,0 6,3 6,6l0 13c0,3 -3,6 -6,6z"/>
   <polygon fill="#B3B4B4" fill-rule="nonzero" points="184,315 176,315 179,320 189,320 191,315 "/>
   <polygon fill="#B3B4B4" fill-rule="nonzero" points="335,315 327,315 330,320 340,320 342,315 "/>
   <path fill="#383838" fill-rule="nonzero" d="M192 306l-11 0c-2,0 -4,-2 -4,-4 0,-1 2,-3 4,-3l11 0c1,0 3,2 3,3 0,2 -2,4 -3,4z"/>
   <path fill="#383838" fill-rule="nonzero" d="M216 306l-11 0c-2,0 -3,-2 -3,-4 0,-1 1,-3 3,-3l11 0c2,0 4,2 4,3 0,2 -2,4 -4,4z"/>
   <path fill="#383838" fill-rule="nonzero" d="M241 306l-11 0c-2,0 -4,-2 -4,-4 0,-1 2,-3 4,-3l11 0c2,0 3,2 3,3 0,2 -1,4 -3,4z"/>
   <path fill="#383838" fill-rule="nonzero" d="M265 306l-11 0c-2,0 -3,-2 -3,-4 0,-1 1,-3 3,-3l11 0c2,0 4,2 4,3 0,2 -2,4 -4,4z"/>
   <polygon fill="#FEFEFE" fill-rule="nonzero" points="183,199 187,198 "/>
   <polygon fill="#383838" fill-rule="nonzero" points="184,200 187,198 187,197 183,198 "/>
   <path fill="#383838" fill-rule="nonzero" d="M275 246c0,9 -7,15 -15,15 -9,0 -15,-6 -15,-15 0,-8 6,-15 15,-15 8,0 15,7 15,15z"/>
   <path fill="#383838" fill-rule="nonzero" d="M280 229c0,0 -1,0 -2,-1 -5,-5 -11,-7 -18,-7 -7,0 -13,2 -18,7 -2,2 -4,2 -6,0 -1,-1 -1,-4 0,-5 7,-7 15,-10 24,-10 9,0 17,3 23,10 2,1 2,4 0,5 -1,1 -2,1 -3,1z"/>
   <path fill="#383838" fill-rule="nonzero" d="M228 218c-1,0 -2,0 -3,-1 -1,-2 -1,-4 0,-6 9,-9 22,-14 35,-14 13,0 25,5 35,14 1,2 1,4 0,6 -2,1 -4,1 -6,0 -8,-8 -18,-12 -29,-12 -11,0 -22,4 -30,12 0,1 -1,1 -2,1z"/>
   <path fill="#383838" fill-rule="nonzero" d="M304 206c-1,0 -2,0 -3,-1 -11,-11 -26,-17 -41,-17 -16,0 -30,6 -41,17 -2,2 -4,2 -6,0 -1,-1 -1,-4 0,-5 13,-13 29,-20 47,-20 17,0 34,7 46,20 2,1 2,4 0,5 0,1 -1,1 -2,1z"/>
   <path fill="#383838" fill-rule="nonzero" d="M203 193c-1,0 -2,0 -2,-1 -2,-1 -2,-4 0,-5 15,-16 36,-25 59,-25 22,0 43,9 59,25 2,1 2,4 0,5 -1,2 -4,2 -5,0 -15,-14 -34,-22 -54,-22 -21,0 -40,8 -54,22 -1,1 -2,1 -3,1z"/>
   <polygon fill="#2C2C2C" fill-rule="nonzero" points="259,263 260,263 260,261 259,261 "/>
   <path fill="#2C2C2C" fill-rule="nonzero" d="M259 267l0 3 1 0 0 -3 -1 0zm0 7l0 4 1 0 0 -4 -1 0zm0 7l0 4 1 0 0 -4 -1 0z"/>
   <polygon fill="#2C2C2C" fill-rule="nonzero" points="259,290 260,290 260,288 259,288 "/>
   <path fill="#DFE0DF" fill-rule="nonzero" d="M205 137l-194 0c-2,0 -4,-2 -4,-4l0 -129c0,-2 2,-4 4,-4l194 0c2,0 4,2 4,4l0 129c0,2 -2,4 -4,4z"/>
   <path fill="#383838" fill-rule="nonzero" d="M209 112l-202 0 0 -108c0,-2 2,-4 4,-4l194 0c2,0 4,2 4,4l0 108z"/>
   <path fill="#999999" fill-rule="nonzero" d="M201 104l-185 0c-2,0 -2,0 -2,-2l0 -93c0,-1 0,-2 2,-2l185 0c1,0 2,1 2,2l0 93c0,2 -1,2 -2,2z"/>
   <path fill="#7A797A" fill-rule="nonzero" d="M116 125c0,4 -4,7 -8,7 -4,0 -8,-3 -8,-7 0,-5 4,-8 8,-8 4,0 8,3 8,8z"/>
   <polygon fill="#B3B4B4" fill-rule="nonzero" points="128,159 88,159 91,137 125,137 "/>
   <path fill="#DFE0DF" fill-rule="nonzero" d="M146 165l-75 0c-2,0 -3,-1 -3,-2l0 -1c0,-2 1,-3 3,-3l75 0c1,0 2,1 2,3l0 1c0,1 -1,2 -2,2z"/>
   <path fill="#FEFEFE" fill-rule="nonzero" d="M201 7l-185 0c-2,0 -2,1 -2,2l0 5 189 0 0 -5c0,-1 -1,-2 -2,-2z"/>
   <path fill="#D25B5D" fill-rule="nonzero" d="M22 10c0,1 -1,2 -2,2 0,0 -1,-1 -1,-2 0,0 1,-1 1,-1 1,0 2,1 2,1z"/>
   <path fill="#F3D63F" fill-rule="nonzero" d="M27 10c0,1 0,2 -1,2 -1,0 -1,-1 -1,-2 0,0 0,-1 1,-1 1,0 1,1 1,1z"/>
   <path fill="#77B662" fill-rule="nonzero" d="M33 10c0,1 -1,2 -2,2 0,0 -1,-1 -1,-2 0,0 1,-1 1,-1 1,0 2,1 2,1z"/>
   <polygon fill="#DFE0DF" fill-rule="nonzero" points="26,83 63,83 63,34 26,34 "/>
   <polygon fill="#FEFEFE" fill-rule="nonzero" points="26,40 63,40 63,34 26,34 "/>
   <path fill="#D25B5D" fill-rule="nonzero" d="M31 37c0,1 0,1 -1,1 -1,0 -1,0 -1,-1 0,-1 0,-1 1,-1 1,0 1,0 1,1z"/>
   <path fill="#F3D63F" fill-rule="nonzero" d="M37 37c0,1 -1,1 -2,1 0,0 -1,0 -1,-1 0,-1 1,-1 1,-1 1,0 2,0 2,1z"/>
   <path fill="#77B662" fill-rule="nonzero" d="M42 37c0,1 0,1 -1,1 -1,0 -1,0 -1,-1 0,-1 0,-1 1,-1 1,0 1,0 1,1z"/>
   <polygon fill="#383838" fill-rule="nonzero" points="30,44 54,44 54,43 30,43 "/>
   <polygon fill="#383838" fill-rule="nonzero" points="30,47 59,47 59,46 30,46 "/>
   <polygon fill="#383838" fill-rule="nonzero" points="30,51 59,51 59,50 30,50 "/>
   <polygon fill="#383838" fill-rule="nonzero" points="30,54 59,54 59,53 30,53 "/>
   <polygon fill="#383838" fill-rule="nonzero" points="30,58 59,58 59,57 30,57 "/>
   <polygon fill="#383838" fill-rule="nonzero" points="30,61 59,61 59,60 30,60 "/>
   <polygon fill="#383838" fill-rule="nonzero" points="30,65 59,65 59,64 30,64 "/>
   <polygon fill="#383838" fill-rule="nonzero" points="30,68 59,68 59,67 30,67 "/>
   <polygon fill="#383838" fill-rule="nonzero" points="30,72 59,72 59,71 30,71 "/>
   <polygon fill="#383838" fill-rule="nonzero" points="30,75 59,75 59,74 30,74 "/>
   <polygon fill="#DFE0DF" fill-rule="nonzero" points="86,89 175,89 175,29 86,29 "/>
   <polygon fill="#FEFEFE" fill-rule="nonzero" points="86,35 175,35 175,29 86,29 "/>
   <path fill="#D25B5D" fill-rule="nonzero" d="M93 32c0,1 -1,1 -1,1 -1,0 -2,0 -2,-1 0,-1 1,-1 2,-1 0,0 1,0 1,1z"/>
   <path fill="#F3D63F" fill-rule="nonzero" d="M98 32c0,1 0,1 -1,1 -1,0 -1,0 -1,-1 0,-1 0,-1 1,-1 1,0 1,0 1,1z"/>
   <path fill="#77B662" fill-rule="nonzero" d="M104 32c0,1 -1,1 -1,1 -1,0 -2,0 -2,-1 0,-1 1,-1 2,-1 0,0 1,0 1,1z"/>
   <polygon fill="#383838" fill-rule="nonzero" points="111,89 112,89 112,35 111,35 "/>
   <polygon fill="#383838" fill-rule="nonzero" points="91,41 107,41 107,40 91,40 "/>
   <polygon fill="#383838" fill-rule="nonzero" points="91,45 107,45 107,44 91,44 "/>
   <polygon fill="#383838" fill-rule="nonzero" points="91,48 107,48 107,47 91,47 "/>
   <polygon fill="#383838" fill-rule="nonzero" points="91,52 107,52 107,51 91,51 "/>
   <polygon fill="#383838" fill-rule="nonzero" points="91,56 107,56 107,54 91,54 "/>
   <polygon fill="#383838" fill-rule="nonzero" points="91,59 107,59 107,58 91,58 "/>
   <polygon fill="#383838" fill-rule="nonzero" points="91,63 107,63 107,62 91,62 "/>
   <polygon fill="#383838" fill-rule="nonzero" points="91,66 107,66 107,65 91,65 "/>
   <polygon fill="#383838" fill-rule="nonzero" points="91,70 107,70 107,69 91,69 "/>
   <polygon fill="#383838" fill-rule="nonzero" points="91,74 107,74 107,72 91,72 "/>
   <polygon fill="#383838" fill-rule="nonzero" points="91,77 107,77 107,76 91,76 "/>
   <polygon fill="#383838" fill-rule="nonzero" points="121,45 125,45 125,41 121,41 "/>
   <polygon fill="#383838" fill-rule="nonzero" points="117,48 129,48 129,47 117,47 "/>
   <polygon fill="#383838" fill-rule="nonzero" points="136,45 140,45 140,41 136,41 "/>
   <polygon fill="#383838" fill-rule="nonzero" points="132,48 144,48 144,47 132,47 "/>
   <polygon fill="#383838" fill-rule="nonzero" points="152,45 156,45 156,41 152,41 "/>
   <polygon fill="#383838" fill-rule="nonzero" points="148,48 160,48 160,47 148,47 "/>
   <polygon fill="#383838" fill-rule="nonzero" points="121,57 125,57 125,53 121,53 "/>
   <polygon fill="#383838" fill-rule="nonzero" points="117,61 129,61 129,60 117,60 "/>
   <polygon fill="#383838" fill-rule="nonzero" points="136,57 140,57 140,53 136,53 "/>
   <polygon fill="#383838" fill-rule="nonzero" points="132,61 144,61 144,60 132,60 "/>
   <polygon fill="#383838" fill-rule="nonzero" points="152,57 156,57 156,53 152,53 "/>
   <polygon fill="#383838" fill-rule="nonzero" points="148,61 160,61 160,60 148,60 "/>
   <polygon fill="#383838" fill-rule="nonzero" points="121,70 125,70 125,66 121,66 "/>
   <polygon fill="#383838" fill-rule="nonzero" points="117,73 129,73 129,72 117,72 "/>
   <polygon fill="#383838" fill-rule="nonzero" points="136,70 140,70 140,66 136,66 "/>
   <polygon fill="#383838" fill-rule="nonzero" points="132,73 144,73 144,72 132,72 "/>
   <polygon fill="#383838" fill-rule="nonzero" points="152,70 156,70 156,66 152,66 "/>
   <polygon fill="#383838" fill-rule="nonzero" points="148,73 160,73 160,72 148,72 "/>
   <polygon fill="#D8D9D8" fill-rule="nonzero" points="91,141 91,141 91,137 91,141 "/>
   <polygon fill="#999A99" fill-rule="nonzero" points="126,141 91,141 91,137 125,137 "/>
   <path fill="#383838" fill-rule="nonzero" d="M315 130l-47 0c-2,0 -3,-2 -3,-4l0 -91c0,-2 1,-3 3,-3l47 0c2,0 3,1 3,3l0 91c0,2 -1,4 -3,4z"/>
   <path fill="#999999" fill-rule="nonzero" d="M312 117l-41 0c-1,0 -2,-1 -2,-2l0 -74c0,-1 1,-2 2,-2l41 0c1,0 2,1 2,2l0 74c0,1 -1,2 -2,2z"/>
   <path fill="#2C2C2C" fill-rule="nonzero" d="M284 36l15 0c1,0 1,0 1,-1 0,0 0,0 -1,0l-15 0c-1,0 -1,0 -1,0 0,1 0,1 1,1z"/>
   <path fill="#2C2C2C" fill-rule="nonzero" d="M306 35c0,1 0,1 -1,1 0,0 -1,0 -1,-1 0,0 1,-1 1,-1 1,0 1,1 1,1z"/>
   <path fill="#2C2C2C" fill-rule="nonzero" d="M310 35c0,1 -1,1 -1,1 -1,0 -1,0 -1,-1 0,0 0,-1 1,-1 0,0 1,1 1,1z"/>
   <path fill="#555556" fill-rule="nonzero" d="M295 123c0,2 -2,3 -4,3 -1,0 -3,-1 -3,-3 0,-2 2,-3 3,-3 2,0 4,1 4,3z"/>
   <path fill="#FEFEFE" fill-rule="nonzero" d="M312 39l-41 0c-1,0 -2,1 -2,2l0 2 45 0 0 -2c0,-1 -1,-2 -2,-2z"/>
   <polygon fill="#B3B3B3" fill-rule="nonzero" points="275,55 281,55 281,49 275,49 "/>
   <polygon fill="#FEFEFE" fill-rule="nonzero" points="272,58 284,58 284,57 272,57 "/>
   <polygon fill="#B3B3B3" fill-rule="nonzero" points="289,55 294,55 294,49 289,49 "/>
   <polygon fill="#FEFEFE" fill-rule="nonzero" points="286,58 297,58 297,57 286,57 "/>
   <polygon fill="#B3B3B3" fill-rule="nonzero" points="302,55 308,55 308,49 302,49 "/>
   <polygon fill="#FEFEFE" fill-rule="nonzero" points="299,58 311,58 311,57 299,57 "/>
   <polygon fill="#B3B3B3" fill-rule="nonzero" points="275,70 281,70 281,65 275,65 "/>
   <polygon fill="#FEFEFE" fill-rule="nonzero" points="272,73 284,73 284,72 272,72 "/>
   <polygon fill="#B3B3B3" fill-rule="nonzero" points="289,70 294,70 294,65 289,65 "/>
   <polygon fill="#FEFEFE" fill-rule="nonzero" points="286,73 297,73 297,72 286,72 "/>
   <polygon fill="#B3B3B3" fill-rule="nonzero" points="302,70 308,70 308,65 302,65 "/>
   <polygon fill="#FEFEFE" fill-rule="nonzero" points="299,73 311,73 311,72 299,72 "/>
   <polygon fill="#B3B3B3" fill-rule="nonzero" points="275,85 281,85 281,80 275,80 "/>
   <polygon fill="#FEFEFE" fill-rule="nonzero" points="272,88 284,88 284,87 272,87 "/>
   <polygon fill="#B3B3B3" fill-rule="nonzero" points="289,85 294,85 294,80 289,80 "/>
   <polygon fill="#FEFEFE" fill-rule="nonzero" points="286,88 297,88 297,87 286,87 "/>
   <polygon fill="#B3B3B3" fill-rule="nonzero" points="302,85 308,85 308,80 302,80 "/>
   <polygon fill="#FEFEFE" fill-rule="nonzero" points="299,88 311,88 311,87 299,87 "/>
   <polygon fill="#B3B3B3" fill-rule="nonzero" points="275,100 281,100 281,95 275,95 "/>
   <polygon fill="#FEFEFE" fill-rule="nonzero" points="272,103 284,103 284,102 272,102 "/>
   <polygon fill="#B3B3B3" fill-rule="nonzero" points="289,100 294,100 294,95 289,95 "/>
   <polygon fill="#FEFEFE" fill-rule="nonzero" points="286,103 297,103 297,102 286,102 "/>
   <polygon fill="#B3B3B3" fill-rule="nonzero" points="302,100 308,100 308,95 302,95 "/>
   <polygon fill="#FEFEFE" fill-rule="nonzero" points="299,103 311,103 311,102 299,102 "/>
   <polygon fill="#383838" fill-rule="nonzero" points="300,42 304,42 304,41 300,41 "/>
   <polygon fill="#383838" fill-rule="nonzero" points="306,42 310,42 310,41 306,41 "/>
   <path fill="#383838" fill-rule="nonzero" d="M105 299l-102 0c-2,0 -3,-1 -3,-3l0 -52c0,-1 1,-3 3,-3l102 0c1,0 3,2 3,3l0 52c0,2 -2,3 -3,3z"/>
   <polygon fill="#7A797A" fill-rule="nonzero" points="0,291 108,291 108,250 0,250 "/>
   <path fill="#363636" fill-rule="nonzero" d="M50 294c-4,0 -8,-1 -12,-3l24 0c-3,2 -7,3 -12,3zm12 -44l-24 0c4,-2 8,-3 12,-3 5,0 9,1 12,3z"/>
   <path fill="dimgray" fill-rule="nonzero" d="M62 291l-24 0c-7,-4 -12,-12 -12,-21 0,-8 5,-16 12,-20l24 0c7,4 12,12 12,20 0,9 -5,17 -12,21z"/>
   <path fill="#919191" fill-rule="nonzero" d="M78 270c0,13 -11,24 -24,24 -13,0 -24,-11 -24,-24 0,-13 11,-23 24,-23 13,0 24,10 24,23z"/>
   <path fill="#C8C8C8" fill-rule="nonzero" d="M74 270c0,11 -9,20 -20,20 -11,0 -20,-9 -20,-20 0,-11 9,-20 20,-20 11,0 20,9 20,20z"/>
   <path fill="#E9E9E8" fill-rule="nonzero" d="M69 270c0,9 -7,16 -15,16 -9,0 -16,-7 -16,-16 0,-8 7,-15 16,-15 8,0 15,7 15,15z"/>
   <path fill="#999999" fill-rule="nonzero" d="M65 270c0,6 -5,11 -11,11 -6,0 -11,-5 -11,-11 0,-6 5,-11 11,-11 6,0 11,5 11,11z"/>
   <path fill="#E6E6E6" fill-rule="nonzero" d="M61 270c0,4 -3,8 -7,8 -4,0 -8,-4 -8,-8 0,-4 4,-7 8,-7 4,0 7,3 7,7z"/>
   <path fill="#7A797A" fill-rule="nonzero" d="M65 235c-2,-2 -4,-3 -6,-3l-10 0c-2,0 -4,1 -6,3l-7 6 36 0 -7 -6z"/>
   <path fill="#E9E9E8" fill-rule="nonzero" d="M62 237c-1,-2 -3,-2 -5,-2l-7 0c-2,0 -3,0 -5,2l-5 4 28 0 -6 -4z"/>
   <polygon fill="#999999" fill-rule="nonzero" points="83,260 101,260 101,253 83,253 "/>
   <path fill="#E6E6E6" fill-rule="nonzero" d="M95 257c0,1 -1,3 -3,3 -2,0 -3,-2 -3,-3 0,-2 1,-4 3,-4 2,0 3,2 3,4z"/>
   <path fill="#7A797A" fill-rule="nonzero" d="M100 241l-12 0 0 -3c0,0 0,0 1,0l10 0c0,0 1,0 1,0l0 3z"/>
   <path fill="#7A797A" fill-rule="nonzero" d="M26 241l-20 0 0 -4c0,0 1,-1 2,-1l17 0c1,0 1,1 1,1l0 4z"/>
   <polygon fill="#383838" fill-rule="nonzero" points="10,241 10,241 10,236 10,236 "/>
   <polygon fill="#383838" fill-rule="nonzero" points="13,241 13,241 13,236 13,236 "/>
   <polygon fill="#383838" fill-rule="nonzero" points="16,241 17,241 17,236 16,236 "/>
   <polygon fill="#383838" fill-rule="nonzero" points="19,241 20,241 20,236 19,236 "/>
   <polygon fill="#383838" fill-rule="nonzero" points="23,241 23,241 23,236 23,236 "/>
   <path fill="#7A797A" fill-rule="nonzero" d="M523 137l-143 0 0 -88c0,-2 1,-4 4,-4l135 0c3,0 4,2 4,4l0 88z"/>
   <path fill="#999999" fill-rule="nonzero" d="M515 132l-127 0c-2,0 -3,-1 -3,-3l0 -75c0,-2 1,-4 3,-4l127 0c2,0 3,2 3,4l0 75c0,2 -1,3 -3,3z"/>
   <path fill="#BDBCBC" fill-rule="nonzero" d="M526 148l-149 0c-3,0 -5,-2 -5,-5l0 -6 159 0 0 6c0,3 -2,5 -5,5z"/>
   <path fill="#383838" fill-rule="nonzero" d="M501 143c0,1 -1,1 -1,1 -1,0 -2,0 -2,-1 0,-1 1,-2 2,-2 0,0 1,1 1,2z"/>
   <path fill="#383838" fill-rule="nonzero" d="M509 143c0,1 0,1 -1,1 -1,0 -2,0 -2,-1 0,-1 1,-2 2,-2 1,0 1,1 1,2z"/>
   <path fill="#383838" fill-rule="nonzero" d="M394 144l-8 0c-1,0 -1,0 -1,-1 0,-1 0,-2 1,-2l8 0c0,0 1,1 1,2 0,1 -1,1 -1,1z"/>
   <path fill="#383838" fill-rule="nonzero" d="M410 144l-8 0c-1,0 -1,0 -1,-1 0,-1 0,-2 1,-2l8 0c0,0 1,1 1,2 0,1 -1,1 -1,1z"/>
   <path fill="#FEFEFE" fill-rule="nonzero" d="M385 54l0 4 133 0 0 -4c0,-2 -1,-4 -3,-4l-127 0c-2,0 -3,2 -3,4z"/>
   <path fill="#D25B5D" fill-rule="nonzero" d="M394 54c0,1 -1,1 -2,1 0,0 -1,0 -1,-1 0,-1 1,-1 1,-1 1,0 2,0 2,1z"/>
   <path fill="#F3D63F" fill-rule="nonzero" d="M399 54c0,1 0,1 -1,1 -1,0 -1,0 -1,-1 0,-1 0,-1 1,-1 1,0 1,0 1,1z"/>
   <path fill="#77B662" fill-rule="nonzero" d="M405 54c0,1 -1,1 -2,1 0,0 -1,0 -1,-1 0,-1 1,-1 1,-1 1,0 2,0 2,1z"/>
   <polygon fill="#DFE0DF" fill-rule="nonzero" points="407,125 496,125 496,65 407,65 "/>
   <polygon fill="#FEFEFE" fill-rule="nonzero" points="407,70 496,70 496,65 407,65 "/>
   <path fill="#D25B5D" fill-rule="nonzero" d="M414 67c0,1 -1,2 -1,2 -1,0 -2,-1 -2,-2 0,0 1,-1 2,-1 0,0 1,1 1,1z"/>
   <path fill="#F3D63F" fill-rule="nonzero" d="M419 67c0,1 0,2 -1,2 -1,0 -1,-1 -1,-2 0,0 0,-1 1,-1 1,0 1,1 1,1z"/>
   <path fill="#77B662" fill-rule="nonzero" d="M425 67c0,1 -1,2 -1,2 -1,0 -2,-1 -2,-2 0,0 1,-1 2,-1 0,0 1,1 1,1z"/>
   <polygon fill="#383838" fill-rule="nonzero" points="432,125 433,125 433,70 432,70 "/>
   <polygon fill="#383838" fill-rule="nonzero" points="412,76 428,76 428,75 412,75 "/>
   <polygon fill="#383838" fill-rule="nonzero" points="412,80 428,80 428,79 412,79 "/>
   <polygon fill="#383838" fill-rule="nonzero" points="412,84 428,84 428,82 412,82 "/>
   <polygon fill="#383838" fill-rule="nonzero" points="412,87 428,87 428,86 412,86 "/>
   <polygon fill="#383838" fill-rule="nonzero" points="412,91 428,91 428,90 412,90 "/>
   <polygon fill="#383838" fill-rule="nonzero" points="412,94 428,94 428,93 412,93 "/>
   <polygon fill="#383838" fill-rule="nonzero" points="412,98 428,98 428,97 412,97 "/>
   <polygon fill="#383838" fill-rule="nonzero" points="412,102 428,102 428,100 412,100 "/>
   <polygon fill="#383838" fill-rule="nonzero" points="412,105 428,105 428,104 412,104 "/>
   <polygon fill="#383838" fill-rule="nonzero" points="412,109 428,109 428,108 412,108 "/>
   <polygon fill="#383838" fill-rule="nonzero" points="412,112 428,112 428,111 412,111 "/>
   <polygon fill="#383838" fill-rule="nonzero" points="442,80 446,80 446,76 442,76 "/>
   <polygon fill="#383838" fill-rule="nonzero" points="438,83 450,83 450,82 438,82 "/>
   <polygon fill="#383838" fill-rule="nonzero" points="457,80 461,80 461,76 457,76 "/>
   <polygon fill="#383838" fill-rule="nonzero" points="453,83 465,83 465,82 453,82 "/>
   <polygon fill="#383838" fill-rule="nonzero" points="473,80 477,80 477,76 473,76 "/>
   <polygon fill="#383838" fill-rule="nonzero" points="469,83 481,83 481,82 469,82 "/>
   <polygon fill="#383838" fill-rule="nonzero" points="442,92 446,92 446,88 442,88 "/>
   <polygon fill="#383838" fill-rule="nonzero" points="438,96 450,96 450,95 438,95 "/>
   <polygon fill="#383838" fill-rule="nonzero" points="457,92 461,92 461,88 457,88 "/>
   <polygon fill="#383838" fill-rule="nonzero" points="453,96 465,96 465,95 453,95 "/>
   <polygon fill="#383838" fill-rule="nonzero" points="473,92 477,92 477,88 473,88 "/>
   <polygon fill="#383838" fill-rule="nonzero" points="469,96 481,96 481,95 469,95 "/>
   <polygon fill="#383838" fill-rule="nonzero" points="442,105 446,105 446,101 442,101 "/>
   <polygon fill="#383838" fill-rule="nonzero" points="438,108 450,108 450,107 438,107 "/>
   <polygon fill="#383838" fill-rule="nonzero" points="457,105 461,105 461,101 457,101 "/>
   <polygon fill="#383838" fill-rule="nonzero" points="453,108 465,108 465,107 453,107 "/>
   <polygon fill="#383838" fill-rule="nonzero" points="473,105 477,105 477,101 473,101 "/>
   <polygon fill="#383838" fill-rule="nonzero" points="469,108 481,108 481,107 469,107 "/>
   <path fill="#DFE0DF" fill-rule="nonzero" d="M489 302l-77 0c-2,0 -4,-2 -4,-4l0 -95c0,-2 2,-4 4,-4l77 0c2,0 4,2 4,4l0 95c0,2 -2,4 -4,4z"/>
   <path fill="#999999" fill-rule="nonzero" d="M485 290l-68 0c-2,0 -3,-1 -3,-2l0 -79c0,-2 1,-3 3,-3l68 0c1,0 2,1 2,3l0 79c0,1 -1,2 -2,2z"/>
   <path fill="#7A797A" fill-rule="nonzero" d="M454 296c0,1 -1,3 -3,3 -1,0 -2,-2 -2,-3 0,-2 1,-3 2,-3 2,0 3,1 3,3z"/>
   <polygon fill="#B3B3B3" fill-rule="nonzero" points="421,220 427,220 427,215 421,215 "/>
   <polygon fill="#FEFEFE" fill-rule="nonzero" points="418,224 429,224 429,222 418,222 "/>
   <polygon fill="#B3B3B3" fill-rule="nonzero" points="435,220 440,220 440,215 435,215 "/>
   <polygon fill="#FEFEFE" fill-rule="nonzero" points="432,224 443,224 443,222 432,222 "/>
   <polygon fill="#B3B3B3" fill-rule="nonzero" points="448,220 453,220 453,215 448,215 "/>
   <polygon fill="#FEFEFE" fill-rule="nonzero" points="445,224 456,224 456,222 445,222 "/>
   <polygon fill="#B3B3B3" fill-rule="nonzero" points="421,236 427,236 427,230 421,230 "/>
   <polygon fill="#FEFEFE" fill-rule="nonzero" points="418,239 429,239 429,238 418,238 "/>
   <polygon fill="#B3B3B3" fill-rule="nonzero" points="435,236 440,236 440,230 435,230 "/>
   <polygon fill="#FEFEFE" fill-rule="nonzero" points="432,239 443,239 443,238 432,238 "/>
   <polygon fill="#B3B3B3" fill-rule="nonzero" points="448,236 453,236 453,230 448,230 "/>
   <polygon fill="#FEFEFE" fill-rule="nonzero" points="445,239 456,239 456,238 445,238 "/>
   <polygon fill="#B3B3B3" fill-rule="nonzero" points="421,251 427,251 427,245 421,245 "/>
   <polygon fill="#FEFEFE" fill-rule="nonzero" points="418,254 429,254 429,253 418,253 "/>
   <polygon fill="#B3B3B3" fill-rule="nonzero" points="435,251 440,251 440,245 435,245 "/>
   <polygon fill="#FEFEFE" fill-rule="nonzero" points="432,254 443,254 443,253 432,253 "/>
   <polygon fill="#B3B3B3" fill-rule="nonzero" points="448,251 453,251 453,245 448,245 "/>
   <polygon fill="#FEFEFE" fill-rule="nonzero" points="445,254 456,254 456,253 445,253 "/>
   <polygon fill="#B3B3B3" fill-rule="nonzero" points="421,266 427,266 427,261 421,261 "/>
   <polygon fill="#FEFEFE" fill-rule="nonzero" points="418,269 429,269 429,268 418,268 "/>
   <polygon fill="#B3B3B3" fill-rule="nonzero" points="435,266 440,266 440,261 435,261 "/>
   <polygon fill="#FEFEFE" fill-rule="nonzero" points="432,269 443,269 443,268 432,268 "/>
   <polygon fill="#B3B3B3" fill-rule="nonzero" points="448,266 453,266 453,261 448,261 "/>
   <polygon fill="#FEFEFE" fill-rule="nonzero" points="445,269 456,269 456,268 445,268 "/>
   <polygon fill="#B3B3B3" fill-rule="nonzero" points="461,220 467,220 467,215 461,215 "/>
   <polygon fill="#FEFEFE" fill-rule="nonzero" points="458,224 470,224 470,222 458,222 "/>
   <polygon fill="#B3B3B3" fill-rule="nonzero" points="475,220 480,220 480,215 475,215 "/>
   <polygon fill="#FEFEFE" fill-rule="nonzero" points="472,224 483,224 483,222 472,222 "/>
   <polygon fill="#B3B3B3" fill-rule="nonzero" points="461,236 467,236 467,230 461,230 "/>
   <polygon fill="#FEFEFE" fill-rule="nonzero" points="458,239 470,239 470,238 458,238 "/>
   <polygon fill="#B3B3B3" fill-rule="nonzero" points="475,236 480,236 480,230 475,230 "/>
   <polygon fill="#FEFEFE" fill-rule="nonzero" points="472,239 483,239 483,238 472,238 "/>
   <polygon fill="#B3B3B3" fill-rule="nonzero" points="461,251 467,251 467,245 461,245 "/>
   <polygon fill="#FEFEFE" fill-rule="nonzero" points="458,254 470,254 470,253 458,253 "/>
   <polygon fill="#B3B3B3" fill-rule="nonzero" points="475,251 480,251 480,245 475,245 "/>
   <polygon fill="#FEFEFE" fill-rule="nonzero" points="472,254 483,254 483,253 472,253 "/>
   <polygon fill="#B3B3B3" fill-rule="nonzero" points="461,266 467,266 467,261 461,261 "/>
   <polygon fill="#FEFEFE" fill-rule="nonzero" points="458,269 470,269 470,268 458,268 "/>
   <polygon fill="#B3B3B3" fill-rule="nonzero" points="475,266 480,266 480,261 475,261 "/>
   <polygon fill="#FEFEFE" fill-rule="nonzero" points="472,269 483,269 483,268 472,268 "/>
   <path fill="#FEFEFE" fill-rule="nonzero" d="M485 206l-68 0c-2,0 -3,1 -3,3l0 2 73 0 0 -2c0,-2 -1,-3 -2,-3z"/>
   <path fill="#383838" fill-rule="nonzero" d="M166 482l-70 0c-4,0 -7,-3 -7,-7l0 -106c0,-4 3,-7 7,-7l70 0c4,0 7,3 7,7l0 106c0,4 -3,7 -7,7z"/>
   <path fill="#7A797A" fill-rule="nonzero" d="M150 392c0,11 -8,20 -19,20 -11,0 -20,-9 -20,-20 0,-10 9,-19 20,-19 11,0 19,9 19,19z"/>
   <path fill="#BDBCBC" fill-rule="nonzero" d="M146 392c0,9 -7,15 -15,15 -8,0 -15,-6 -15,-15 0,-8 7,-15 15,-15 8,0 15,7 15,15z"/>
   <path fill="#DFE0DF" fill-rule="nonzero" d="M138 392c0,4 -4,7 -7,7 -4,0 -7,-3 -7,-7 0,-3 3,-6 7,-6 3,0 7,3 7,6z"/>
   <path fill="#7A797A" fill-rule="nonzero" d="M158 444c0,15 -12,27 -27,27 -15,0 -27,-12 -27,-27 0,-14 12,-26 27,-26 15,0 27,12 27,26z"/>
   <path fill="#BDBCBC" fill-rule="nonzero" d="M152 444c0,12 -9,22 -21,22 -12,0 -22,-10 -22,-22 0,-11 10,-21 22,-21 12,0 21,10 21,21z"/>
   <path fill="#DFE0DF" fill-rule="nonzero" d="M140 444c0,6 -4,10 -9,10 -6,0 -10,-4 -10,-10 0,-5 4,-9 10,-9 5,0 9,4 9,9z"/>
   <path fill="#FEFEFE" fill-rule="nonzero" d="M99 371c0,1 -1,2 -3,2 -1,0 -2,-1 -2,-2 0,-1 1,-2 2,-2 2,0 3,1 3,2z"/>
   <path fill="#2C2C2C" fill-rule="nonzero" d="M99 371l-1 0c0,1 -1,1 -2,1 0,0 -1,0 -1,-1 0,-1 1,-2 1,-2 1,0 2,1 2,2l1 0c0,-2 -1,-3 -3,-3 -1,0 -2,1 -2,3 0,1 1,2 2,2 2,0 3,-1 3,-2l0 0z"/>
   <path fill="#FEFEFE" fill-rule="nonzero" d="M167 371c0,1 -1,2 -2,2 -1,0 -2,-1 -2,-2 0,-1 1,-2 2,-2 1,0 2,1 2,2z"/>
   <path fill="#2C2C2C" fill-rule="nonzero" d="M167 371l-1 0c0,1 0,1 -1,1 -1,0 -1,0 -1,-1 0,-1 0,-2 1,-2 1,0 1,1 1,2l2 0c0,-2 -2,-3 -3,-3 -1,0 -3,1 -3,3 0,1 2,2 3,2 1,0 3,-1 3,-2l-1 0z"/>
   <path fill="#FEFEFE" fill-rule="nonzero" d="M99 474c0,1 -1,2 -3,2 -1,0 -2,-1 -2,-2 0,-2 1,-3 2,-3 2,0 3,1 3,3z"/>
   <path fill="#2C2C2C" fill-rule="nonzero" d="M99 474l-1 0c0,0 -1,1 -2,1 0,0 -1,-1 -1,-1 0,-1 1,-2 1,-2 1,0 2,1 2,2l1 0c0,-2 -1,-3 -3,-3 -1,0 -2,1 -2,3 0,1 1,2 2,2 2,0 3,-1 3,-2l0 0z"/>
   <path fill="#FEFEFE" fill-rule="nonzero" d="M167 474c0,1 -1,2 -2,2 -1,0 -2,-1 -2,-2 0,-2 1,-3 2,-3 1,0 2,1 2,3z"/>
   <path fill="#2C2C2C" fill-rule="nonzero" d="M167 474l-1 0c0,0 0,1 -1,1 -1,0 -1,-1 -1,-1 0,-1 0,-2 1,-2 1,0 1,1 1,2l2 0c0,-2 -2,-3 -3,-3 -1,0 -3,1 -3,3 0,1 2,2 3,2 1,0 3,-1 3,-2l-1 0z"/>
   <path fill="#383838" fill-rule="nonzero" d="M428 482l-70 0c-4,0 -7,-3 -7,-7l0 -106c0,-4 3,-7 7,-7l70 0c4,0 7,3 7,7l0 106c0,4 -3,7 -7,7z"/>
   <path fill="#7A797A" fill-rule="nonzero" d="M413 392c0,11 -9,20 -20,20 -11,0 -19,-9 -19,-20 0,-10 8,-19 19,-19 11,0 20,9 20,19z"/>
   <path fill="#BDBCBC" fill-rule="nonzero" d="M408 392c0,9 -6,15 -15,15 -8,0 -15,-6 -15,-15 0,-8 7,-15 15,-15 9,0 15,7 15,15z"/>
   <path fill="#DFE0DF" fill-rule="nonzero" d="M400 392c0,4 -3,7 -7,7 -3,0 -7,-3 -7,-7 0,-3 4,-6 7,-6 4,0 7,3 7,6z"/>
   <path fill="#7A797A" fill-rule="nonzero" d="M420 444c0,15 -12,27 -27,27 -15,0 -27,-12 -27,-27 0,-14 12,-26 27,-26 15,0 27,12 27,26z"/>
   <path fill="#BDBCBC" fill-rule="nonzero" d="M415 444c0,12 -10,22 -22,22 -12,0 -21,-10 -21,-22 0,-11 9,-21 21,-21 12,0 22,10 22,21z"/>
   <path fill="#DFE0DF" fill-rule="nonzero" d="M403 444c0,6 -4,10 -10,10 -5,0 -9,-4 -9,-10 0,-5 4,-9 9,-9 6,0 10,4 10,9z"/>
   <path fill="#BDBCBC" fill-rule="nonzero" d="M361 371c0,1 -1,2 -2,2 -1,0 -2,-1 -2,-2 0,-1 1,-2 2,-2 1,0 2,1 2,2z"/>
   <path fill="#BDBCBC" fill-rule="nonzero" d="M430 371c0,1 -1,2 -2,2 -2,0 -3,-1 -3,-2 0,-1 1,-2 3,-2 1,0 2,1 2,2z"/>
   <path fill="#BDBCBC" fill-rule="nonzero" d="M361 474c0,1 -1,2 -2,2 -1,0 -2,-1 -2,-2 0,-2 1,-3 2,-3 1,0 2,1 2,3z"/>
   <path fill="#BDBCBC" fill-rule="nonzero" d="M430 474c0,1 -1,2 -2,2 -2,0 -3,-1 -3,-2 0,-2 1,-3 3,-3 1,0 2,1 2,3z"/>
   <path fill="#B3B4B4" fill-rule="nonzero" d="M316 403l0 -43c0,-2 -1,-2 -2,-2l-103 0c-1,0 -2,0 -2,2l0 43 -8 4 0 71c0,2 1,4 3,4l117 0c2,0 3,-2 3,-4l0 -71 -8 -4z"/>
   <path fill="#999999" fill-rule="nonzero" d="M304 401l-84 0c0,0 -1,0 -1,-1l0 -33c0,-1 1,-2 1,-2l84 0c1,0 1,1 1,2l0 33c0,1 0,1 -1,1z"/>
   <path fill="#7A797A" fill-rule="nonzero" d="M303 428l-81 0c-1,0 -1,-1 -1,-1l0 -9c0,0 0,0 1,0l81 0c1,0 1,0 1,0l0 9c0,0 0,1 -1,1z"/>
   <polygon fill="#DFE0DF" fill-rule="nonzero" points="222,438 232,438 232,433 222,433 "/>
   <polygon fill="#DFE0DF" fill-rule="nonzero" points="236,438 246,438 246,433 236,433 "/>
   <polygon fill="#DFE0DF" fill-rule="nonzero" points="250,438 260,438 260,433 250,433 "/>
   <polygon fill="#DFE0DF" fill-rule="nonzero" points="264,438 274,438 274,433 264,433 "/>
   <polygon fill="#DFE0DF" fill-rule="nonzero" points="279,438 288,438 288,433 279,433 "/>
   <polygon fill="#DFE0DF" fill-rule="nonzero" points="293,438 302,438 302,433 293,433 "/>
   <polygon fill="#E6E6E6" fill-rule="nonzero" points="226,401 232,401 232,386 226,386 "/>
   <polygon fill="#E6E6E6" fill-rule="nonzero" points="243,401 249,401 249,377 243,377 "/>
   <polygon fill="#E6E6E6" fill-rule="nonzero" points="259,401 265,401 265,394 259,394 "/>
   <polygon fill="#E6E6E6" fill-rule="nonzero" points="275,401 281,401 281,389 275,389 "/>
   <polygon fill="#E6E6E6" fill-rule="nonzero" points="292,401 298,401 298,392 292,392 "/>
   <polygon fill="#E6E6E6" fill-rule="nonzero" points="226,384 232,384 232,381 226,381 "/>
   <polygon fill="#E6E6E6" fill-rule="nonzero" points="243,375 249,375 249,372 243,372 "/>
   <polygon fill="#E6E6E6" fill-rule="nonzero" points="226,379 232,379 232,376 226,376 "/>
   <polygon fill="#E6E6E6" fill-rule="nonzero" points="259,392 265,392 265,389 259,389 "/>
   <polygon fill="#E6E6E6" fill-rule="nonzero" points="259,387 265,387 265,384 259,384 "/>
   <polygon fill="#E6E6E6" fill-rule="nonzero" points="259,382 265,382 265,379 259,379 "/>
   <polygon fill="#E6E6E6" fill-rule="nonzero" points="275,387 281,387 281,384 275,384 "/>
   <polygon fill="#E6E6E6" fill-rule="nonzero" points="275,382 281,382 281,379 275,379 "/>
   <polygon fill="#E6E6E6" fill-rule="nonzero" points="275,376 281,376 281,374 275,374 "/>
   <polygon fill="#E6E6E6" fill-rule="nonzero" points="292,390 298,390 298,387 292,387 "/>
   <polygon fill="#E6E6E6" fill-rule="nonzero" points="292,385 298,385 298,382 292,382 "/>
   <polygon fill="#E6E6E6" fill-rule="nonzero" points="292,380 298,380 298,377 292,377 "/>
   <polygon fill="#4F4F4F" fill-rule="nonzero" points="204,477 207,477 207,418 204,418 "/>
   <polygon fill="#4F4F4F" fill-rule="nonzero" points="209,477 211,477 211,418 209,418 "/>
   <polygon fill="#4F4F4F" fill-rule="nonzero" points="214,477 216,477 216,418 214,418 "/>
   <polygon fill="#4F4F4F" fill-rule="nonzero" points="309,477 311,477 311,418 309,418 "/>
   <polygon fill="#4F4F4F" fill-rule="nonzero" points="314,477 316,477 316,418 314,418 "/>
   <polygon fill="#4F4F4F" fill-rule="nonzero" points="318,477 321,477 321,418 318,418 "/>
   <polygon fill="#FFCC00" fill-rule="nonzero" points="221,458 304,458 304,443 221,443 "/>
   <polygon fill="#FEFEFE" fill-rule="nonzero" points="227,449 265,449 265,448 227,448 "/>
   <polygon fill="#FEFEFE" fill-rule="nonzero" points="227,453 292,453 292,452 227,452 "/>
   <path fill="#383838" fill-rule="nonzero" d="M232 472l-7 0c-1,0 -2,-1 -2,-2 0,-1 1,-2 2,-2l7 0c1,0 2,1 2,2 0,1 -1,2 -2,2z"/>
   <path fill="#383838" fill-rule="nonzero" d="M242 470c0,1 -1,2 -2,2 -1,0 -2,-1 -2,-2 0,-1 1,-2 2,-2 1,0 2,1 2,2z"/>
   <polygon fill="#2C2C2C" fill-rule="nonzero" points="87,428 89,428 89,427 87,427 "/>
   <path fill="#2C2C2C" fill-rule="nonzero" d="M83 427l-3 0 0 1 3 0 0 -1zm-7 0l-3 0 0 1 3 0 0 -1zm-6 0l-4 0 0 1 4 0 0 -1zm-7 0l-4 0 0 1 4 0 0 -1z"/>
   <polygon fill="#2C2C2C" fill-rule="nonzero" points="56,427 54,427 54,426 53,426 53,428 56,428 "/>
   <path fill="#2C2C2C" fill-rule="nonzero" d="M54 422l0 -3 -1 0 0 3 1 0zm0 -7l0 -3 -1 0 0 3 1 0zm0 -7l0 -3 -1 0 0 3 1 0zm0 -7l0 -4 -1 0 0 4 1 0zm0 -7l0 -4 -1 0 0 4 1 0zm0 -7l0 -4 -1 0 0 4 1 0zm0 -7l0 -4 -1 0 0 4 1 0zm0 -8l0 -3 -1 0 0 3 1 0zm0 -7l0 -3 -1 0 0 3 1 0zm0 -7l0 -3 -1 0 0 3 1 0zm0 -7l0 -4 -1 0 0 4 1 0zm0 -7l0 -4 -1 0 0 4 1 0zm0 -7l0 -4 -1 0 0 4 1 0zm0 -7l0 -4 -1 0 0 4 1 0zm0 -8l0 -3 -1 0 0 3 1 0zm0 -7l0 -3 -1 0 0 3 1 0zm0 -7l0 -3 -1 0 0 3 1 0z"/>
   <polygon fill="#2C2C2C" fill-rule="nonzero" points="53,301 54,301 54,299 53,299 "/>
   <polygon fill="#2C2C2C" fill-rule="nonzero" points="259,316 260,316 260,315 259,315 "/>
   <path fill="#2C2C2C" fill-rule="nonzero" d="M259 320l0 4 1 0 0 -4 -1 0zm0 7l0 4 1 0 0 -4 -1 0zm0 7l0 4 1 0 0 -4 -1 0zm0 7l0 4 1 0 0 -4 -1 0zm0 8l0 3 1 0 0 -3 -1 0z"/>
   <polygon fill="#2C2C2C" fill-rule="nonzero" points="259,358 260,358 260,356 259,356 "/>
   <polygon fill="#2C2C2C" fill-rule="nonzero" points="173,428 175,428 175,427 173,427 "/>
   <path fill="#2C2C2C" fill-rule="nonzero" d="M178 428l4 0 0 -1 -4 0 0 1zm7 0l3 0 0 -1 -3 0 0 1zm7 0l3 0 0 -1 -3 0 0 1z"/>
   <polygon fill="#2C2C2C" fill-rule="nonzero" points="199,428 201,428 201,427 199,427 "/>
   <polygon fill="#2C2C2C" fill-rule="nonzero" points="324,428 326,428 326,427 324,427 "/>
   <path fill="#2C2C2C" fill-rule="nonzero" d="M329 428l4 0 0 -1 -4 0 0 1zm7 0l3 0 0 -1 -3 0 0 1zm7 0l3 0 0 -1 -3 0 0 1z"/>
   <polygon fill="#2C2C2C" fill-rule="nonzero" points="349,428 351,428 351,427 349,427 "/>
   <polygon fill="#2C2C2C" fill-rule="nonzero" points="435,428 437,428 437,427 435,427 "/>
   <polygon fill="#2C2C2C" fill-rule="nonzero" points="441,428 445,428 445,427 441,427 "/>
   <polygon fill="#2C2C2C" fill-rule="nonzero" points="450,428 452,428 452,426 451,426 451,427 450,427 "/>
   <path fill="#2C2C2C" fill-rule="nonzero" d="M452 423l0 -4 -1 0 0 4 1 0zm0 -7l0 -4 -1 0 0 4 1 0zm0 -8l0 -3 -1 0 0 3 1 0zm0 -7l0 -3 -1 0 0 3 1 0zm0 -7l0 -3 -1 0 0 3 1 0zm0 -7l0 -3 -1 0 0 3 1 0zm0 -7l0 -3 -1 0 0 3 1 0zm0 -7l0 -3 -1 0 0 3 1 0zm0 -7l0 -3 -1 0 0 3 1 0zm0 -7l0 -3 -1 0 0 3 1 0zm0 -7l0 -3 -1 0 0 3 1 0zm0 -7l0 -3 -1 0 0 3 1 0zm0 -7l0 -3 -1 0 0 3 1 0zm0 -7l0 -3 -1 0 0 3 1 0zm0 -7l0 -3 -1 0 0 3 1 0zm0 -7l0 -3 -1 0 0 3 1 0zm0 -7l0 -3 -1 0 0 3 1 0z"/>
   <polygon fill="#2C2C2C" fill-rule="nonzero" points="451,303 452,303 452,302 451,302 "/>
   <polygon fill="#2C2C2C" fill-rule="nonzero" points="451,199 452,199 452,197 451,197 "/>
   <path fill="#2C2C2C" fill-rule="nonzero" d="M452 194l0 -4 -1 0 0 4 1 0zm0 -8l0 -3 -1 0 0 3 1 0zm0 -7l0 -4 -1 0 0 4 1 0zm0 -7l0 -4 -1 0 0 4 1 0zm0 -7l0 -4 -1 0 0 4 1 0zm0 -8l0 -3 -1 0 0 3 1 0z"/>
   <polygon fill="#2C2C2C" fill-rule="nonzero" points="451,150 452,150 452,148 451,148 "/>
   <polygon fill="#2C2C2C" fill-rule="nonzero" points="378,78 380,78 380,77 378,77 "/>
   <path fill="#2C2C2C" fill-rule="nonzero" d="M374 77l-3 0 0 1 3 0 0 -1zm-6 0l-4 0 0 1 4 0 0 -1zm-7 0l-4 0 0 1 4 0 0 -1zm-7 0l-3 0 0 1 3 0 0 -1zm-7 0l-3 0 0 1 3 0 0 -1zm-7 0l-3 0 0 1 3 0 0 -1zm-6 0l-4 0 0 1 4 0 0 -1zm-7 0l-4 0 0 1 4 0 0 -1z"/>
   <polygon fill="#2C2C2C" fill-rule="nonzero" points="318,78 320,78 320,77 318,77 "/>
   <polygon fill="#2C2C2C" fill-rule="nonzero" points="353,303 355,303 355,302 353,302 "/>
   <path fill="#2C2C2C" fill-rule="nonzero" d="M358 303l4 0 0 -1 -4 0 0 1zm8 0l4 0 0 -1 -4 0 0 1z"/>
   <polygon fill="#2C2C2C" fill-rule="nonzero" points="374,303 376,303 376,301 375,301 375,302 374,302 "/>
   <path fill="#2C2C2C" fill-rule="nonzero" d="M376 297l0 -3 -1 0 0 3 1 0zm0 -7l0 -4 -1 0 0 4 1 0zm0 -7l0 -4 -1 0 0 4 1 0zm0 -7l0 -4 -1 0 0 4 1 0zm0 -7l0 -4 -1 0 0 4 1 0zm0 -8l0 -3 -1 0 0 3 1 0zm0 -7l0 -3 -1 0 0 3 1 0z"/>
   <polygon fill="#2C2C2C" fill-rule="nonzero" points="376,247 376,246 377,246 377,245 375,245 375,247 "/>
   <path fill="#2C2C2C" fill-rule="nonzero" d="M381 246l3 0 0 -1 -3 0 0 1zm6 0l3 0 0 -1 -3 0 0 1zm7 0l3 0 0 -1 -3 0 0 1zm6 0l3 0 0 -1 -3 0 0 1z"/>
   <polygon fill="#2C2C2C" fill-rule="nonzero" points="407,246 408,246 408,245 407,245 "/>
   <polygon fill="#2C2C2C" fill-rule="nonzero" points="108,271 109,271 109,270 108,270 "/>
   <path fill="#2C2C2C" fill-rule="nonzero" d="M113 271l4 0 0 -1 -4 0 0 1zm9 0l4 0 0 -1 -4 0 0 1zm8 0l4 0 0 -1 -4 0 0 1z"/>
   <polygon fill="#2C2C2C" fill-rule="nonzero" points="138,271 139,271 139,272 140,272 140,270 138,270 "/>
   <path fill="#2C2C2C" fill-rule="nonzero" d="M139 276l0 4 1 0 0 -4 -1 0zm0 8l0 4 1 0 0 -4 -1 0zm0 8l0 4 1 0 0 -4 -1 0z"/>
   <polygon fill="#2C2C2C" fill-rule="nonzero" points="139,300 139,302 141,302 141,301 140,301 140,300 "/>
   <path fill="#2C2C2C" fill-rule="nonzero" d="M145 302l3 0 0 -1 -3 0 0 1zm6 0l3 0 0 -1 -3 0 0 1zm7 0l3 0 0 -1 -3 0 0 1z"/>
   <polygon fill="#2C2C2C" fill-rule="nonzero" points="164,302 166,302 166,301 164,301 "/>
   <polygon fill="#2C2C2C" fill-rule="nonzero" points="263,80 265,80 265,79 263,79 "/>
   <path fill="#2C2C2C" fill-rule="nonzero" d="M259 79l-3 0 0 1 3 0 0 -1zm-7 0l-4 0 0 1 4 0 0 -1zm-8 0l-3 0 0 1 3 0 0 -1z"/>
   <polygon fill="#2C2C2C" fill-rule="nonzero" points="237,79 236,79 236,78 235,78 235,80 237,80 "/>
   <path fill="#2C2C2C" fill-rule="nonzero" d="M236 74l0 -3 -1 0 0 3 1 0zm0 -6l0 -4 -1 0 0 4 1 0z"/>
   <polygon fill="#2C2C2C" fill-rule="nonzero" points="236,61 236,59 233,59 233,60 235,60 235,61 "/>
   <path fill="#2C2C2C" fill-rule="nonzero" d="M230 59l-3 0 0 1 3 0 0 -1zm-6 0l-3 0 0 1 3 0 0 -1zm-6 0l-4 0 0 1 4 0 0 -1z"/>
   <polygon fill="#2C2C2C" fill-rule="nonzero" points="209,60 211,60 211,59 209,59 "/>
   <polygon fill="#2C2C2C" fill-rule="nonzero" points="108,167 109,167 109,165 108,165 "/>
   <path fill="#2C2C2C" fill-rule="nonzero" d="M108 171l0 4 1 0 0 -4 -1 0zm0 7l0 4 1 0 0 -4 -1 0zm0 8l0 4 1 0 0 -4 -1 0zm0 8l0 3 1 0 0 -3 -1 0zm0 7l0 4 1 0 0 -4 -1 0z"/>
   <polygon fill="#2C2C2C" fill-rule="nonzero" points="108,209 108,211 110,211 110,210 109,210 109,209 "/>
   <path fill="#2C2C2C" fill-rule="nonzero" d="M114 211l4 0 0 -1 -4 0 0 1zm7 0l4 0 0 -1 -4 0 0 1zm8 0l3 0 0 -1 -3 0 0 1zm7 0l4 0 0 -1 -4 0 0 1zm7 0l4 0 0 -1 -4 0 0 1zm8 0l3 0 0 -1 -3 0 0 1zm7 0l4 0 0 -1 -4 0 0 1zm7 0l4 0 0 -1 -4 0 0 1z"/>
   <polygon fill="#2C2C2C" fill-rule="nonzero" points="173,211 174,211 174,213 175,213 175,210 173,210 "/>
   <path fill="#2C2C2C" fill-rule="nonzero" d="M174 216l0 4 1 0 0 -4 -1 0zm0 7l0 4 1 0 0 -4 -1 0zm0 8l0 3 1 0 0 -3 -1 0zm0 7l0 4 1 0 0 -4 -1 0zm0 7l0 4 1 0 0 -4 -1 0zm0 8l0 3 1 0 0 -3 -1 0zm0 7l0 3 1 0 0 -3 -1 0zm0 7l0 4 1 0 0 -4 -1 0zm0 7l0 4 1 0 0 -4 -1 0zm0 8l0 3 1 0 0 -3 -1 0z"/>
   <polygon fill="#2C2C2C" fill-rule="nonzero" points="174,291 175,291 175,289 174,289 "/>
   <polygon fill="#2C2C2C" fill-rule="nonzero" points="291,131 292,131 292,130 291,130 "/>
   <path fill="#2C2C2C" fill-rule="nonzero" d="M291 135l0 4 1 0 0 -4 -1 0zm0 8l0 3 1 0 0 -3 -1 0z"/>
   <polygon fill="#2C2C2C" fill-rule="nonzero" points="291,150 291,152 293,152 293,151 292,151 292,150 "/>
   <path fill="#2C2C2C" fill-rule="nonzero" d="M297 152l3 0 0 -1 -3 0 0 1zm6 0l4 0 0 -1 -4 0 0 1zm7 0l4 0 0 -1 -4 0 0 1zm7 0l3 0 0 -1 -3 0 0 1zm7 0l3 0 0 -1 -3 0 0 1zm6 0l4 0 0 -1 -4 0 0 1zm7 0l3 0 0 -1 -3 0 0 1z"/>
   <polygon fill="#2C2C2C" fill-rule="nonzero" points="344,152 345,152 345,153 346,153 346,151 344,151 "/>
   <path fill="#2C2C2C" fill-rule="nonzero" d="M345 157l0 4 1 0 0 -4 -1 0zm0 7l0 4 1 0 0 -4 -1 0zm0 8l0 3 1 0 0 -3 -1 0zm0 7l0 4 1 0 0 -4 -1 0zm0 7l0 4 1 0 0 -4 -1 0zm0 8l0 3 1 0 0 -3 -1 0zm0 7l0 4 1 0 0 -4 -1 0zm0 7l0 4 1 0 0 -4 -1 0zm0 8l0 3 1 0 0 -3 -1 0zm0 7l0 3 1 0 0 -3 -1 0zm0 7l0 4 1 0 0 -4 -1 0zm0 7l0 4 1 0 0 -4 -1 0zm0 8l0 3 1 0 0 -3 -1 0zm0 7l0 4 1 0 0 -4 -1 0zm0 7l0 4 1 0 0 -4 -1 0zm0 8l0 3 1 0 0 -3 -1 0zm0 7l0 4 1 0 0 -4 -1 0zm0 7l0 4 1 0 0 -4 -1 0z"/>
   <polygon fill="#2C2C2C" fill-rule="nonzero" points="345,290 346,290 346,288 345,288 "/>
   <polygon fill="#2C2C2C" fill-rule="nonzero" points="44,139 45,139 45,137 44,137 "/>
   <path fill="#2C2C2C" fill-rule="nonzero" d="M44 143l0 4 1 0 0 -4 -1 0zm0 7l0 4 1 0 0 -4 -1 0zm0 8l0 4 1 0 0 -4 -1 0zm0 7l0 4 1 0 0 -4 -1 0zm0 8l0 4 1 0 0 -4 -1 0zm0 7l0 4 1 0 0 -4 -1 0z"/>
   <polygon fill="#2C2C2C" fill-rule="nonzero" points="44,188 44,190 46,190 46,189 45,189 45,188 "/>
   <polygon fill="#2C2C2C" fill-rule="nonzero" points="48,190 50,190 50,189 48,189 "/>
   <polygon fill="#2C2C2C" fill-rule="nonzero" points="52,190 53,190 53,191 54,191 54,189 52,189 "/>
   <path fill="#2C2C2C" fill-rule="nonzero" d="M53 195l0 3 1 0 0 -3 -1 0zm0 7l0 3 1 0 0 -3 -1 0zm0 7l0 3 1 0 0 -3 -1 0zm0 7l0 3 1 0 0 -3 -1 0zm0 7l0 4 1 0 0 -4 -1 0z"/>
   <polygon fill="#2C2C2C" fill-rule="nonzero" points="53,232 54,232 54,230 53,230 "/>
   <path fill="#D25B5D" fill-rule="nonzero" d="M423 208c0,1 -1,2 -1,2 -1,0 -2,-1 -2,-2 0,0 1,-1 2,-1 0,0 1,1 1,1z"/>
   <path fill="#F3D63F" fill-rule="nonzero" d="M429 208c0,1 -1,2 -2,2 0,0 -1,-1 -1,-2 0,0 1,-1 1,-1 1,0 2,1 2,1z"/>
   <path fill="#77B662" fill-rule="nonzero" d="M434 208c0,1 -1,2 -1,2 -1,0 -2,-1 -2,-2 0,0 1,-1 2,-1 0,0 1,1 1,1z"/>
  </g>
 </g>
</svg>
