<?xml version="1.0" encoding="UTF-8"?>
<!DOCTYPE svg PUBLIC "-//W3C//DTD SVG 1.0//EN" "http://www.w3.org/TR/2001/REC-SVG-20010904/DTD/svg10.dtd">
<!-- Creator: CorelDRAW X7 -->
<svg xmlns="http://www.w3.org/2000/svg" xml:space="preserve" width="0.516661in" height="0.429992in" version="1.0" shape-rendering="geometricPrecision" text-rendering="geometricPrecision" image-rendering="optimizeQuality" fill-rule="evenodd" clip-rule="evenodd"
viewBox="0 0 517 430"
 xmlns:xlink="http://www.w3.org/1999/xlink"
 enable-background="new 0 0 512 512">
 <g id="Layer_x0020_1">
  <metadata id="CorelCorpID_0Corel-Layer"/>
  <g id="_2432061851168">
   <path fill="#DCB000" d="M313 346l-22 -22 -1 1c-2,2 -4,2 -6,0 -1,-1 -1,-4 0,-5l0 0 1 -1 -5 -6 -19 19 6 5 1 -1c1,-1 4,-1 5,0 2,2 2,4 0,6l-1 1 22 22c1,1 2,1 3,2l18 -18c-1,-1 -1,-2 -2,-3z"/>
   <path fill="#4D4D4D" d="M208 270l7 13c0,0 1,0 1,0l7 2 24 24 3 -3 -25 -24c0,0 0,0 0,0l-7 -2 -6 -11 5 -5 11 6 2 7c0,0 0,0 0,0l24 24 3 -2 -24 -24 -1 -7c-1,0 -1,-1 -1,-1l-13 -7c-1,-1 -2,-1 -3,0l-7 7c-1,1 -1,2 0,3z"/>
   <rect fill="#4D4D4D" transform="matrix(0.00786665 -0.00786664 0.00786665 0.00786664 241.405 334.07)" width="5183" height="333"/>
   <path fill="#4D4D4D" d="M237 338c0,0 -1,-1 -2,-1l-11 0c0,0 -1,1 -1,1l-6 9c0,1 0,2 0,2l6 10c0,0 1,0 1,0l11 0c1,0 2,0 2,0l5 -10c1,0 1,-1 0,-2l-5 -9zm-3 18l-9 0 -4 -8 4 -7 9 0 5 7 -5 8z"/>
   <path fill="#4D4D4D" d="M296 304c13,0 23,-10 23,-22 0,-2 -1,-4 -1,-6 0,-1 -1,-1 -2,-1 -1,0 -1,0 -1,0l-12 12 -9 -3 -3 -9 12 -12c0,-1 0,-2 0,-2 -1,-1 -1,-1 -1,-1 -12,-3 -24,4 -27,16 -1,2 -1,4 -1,6 0,1 0,3 1,4l-41 41c-1,-1 -3,-1 -4,-1 -13,0 -22,10 -22,22 0,13 9,23 22,23 12,0 22,-10 22,-23 0,-1 0,-3 0,-4l9 -10 5 5c0,0 1,0 2,0l1 -1c1,-1 2,-1 3,0 1,0 1,2 0,3 0,0 0,0 0,0l-1 0c-1,1 -1,2 0,3l22 22c6,6 15,6 21,0 6,-6 6,-15 0,-21 0,0 0,0 0,0l-22 -22c-1,-1 -2,-1 -2,0l-1 1c-1,1 -2,1 -3,0 -1,-1 -1,-2 0,-3 0,0 0,0 0,0l1 -1c0,-1 0,-2 0,-3l-5 -4 10 -10c2,1 3,1 4,1zm8 63c-2,0 -3,0 -4,-1l14 -14c2,6 0,12 -6,14 -2,1 -3,1 -4,1zm-21 -48c-2,2 -2,6 0,8 3,2 6,2 8,0l21 21c0,0 0,0 0,0l-16 16c0,0 0,0 0,0l-21 -21c2,-3 2,-6 -1,-8 -2,-2 -5,-2 -7,0l-3 -3 16 -16 3 3zm7 -19l-42 42c0,1 0,1 0,2 2,10 -4,20 -14,23 -10,2 -20,-4 -22,-14 -3,-10 3,-20 13,-23 3,0 6,0 9,0 1,1 2,0 2,0l42 -42c0,-1 1,-1 1,-2 -3,-10 3,-20 13,-22 2,-1 4,-1 6,-1l-10 10c-1,0 -1,1 -1,2l4 11c0,0 1,1 1,1l11 4c1,0 2,0 2,-1l10 -9c0,0 0,0 0,1 0,10 -8,18 -18,18 -2,0 -3,0 -5,0 -1,-1 -1,0 -2,0 0,0 0,0 0,0z"/>
   <rect fill="#4D4D4D" transform="matrix(0.00786665 -0.00786664 0.00786665 0.00786664 282.175 336.692)" width="333" height="2356"/>
   <path fill="#4D4D4D" d="M88 118c3,-3 4,-7 2,-11 -5,-8 -8,-18 -8,-28l0 -15 7 0c0,0 0,0 0,0 0,0 0,0 0,0l8 0 0 10c0,19 15,34 33,34l83 0 0 15c0,13 11,23 23,23l44 0c13,0 23,-10 23,-23l0 -15 28 0c4,0 8,-4 8,-8 0,-4 -4,-8 -8,-8l-201 0c-10,0 -18,-8 -18,-18l0 -18c0,-4 -3,-7 -8,-7l-7 0 0 -9 74 0c4,0 8,-3 8,-8 0,-4 -4,-7 -8,-7l-59 0 0 -2c0,-12 -10,-22 -23,-22 -12,0 -22,10 -22,22l0 2 -59 0c-5,0 -8,3 -8,7 0,5 3,8 8,8l74 0 0 9 -8 0c-4,0 -7,3 -7,7l0 23c0,13 3,26 10,36 2,3 4,4 7,4 1,0 2,-1 4,-1l0 0zm200 -10l0 15c0,4 -3,8 -8,8l-44 0c-4,0 -7,-4 -7,-8l0 -15 59 0zm-206 -85c0,-4 3,-7 7,-7 4,0 8,3 8,7l0 2 -15 0 0 -2z"/>
   <g>
    <path fill="#4D4D4D" d="M287 246l73 0c0,0 0,0 0,0 0,0 0,0 0,0l54 0c3,0 6,3 6,6l0 70c0,4 4,7 8,7 4,0 7,-3 7,-7l0 -70c0,-12 -9,-21 -21,-21l-52 0 -77 -47 27 0c14,0 25,-11 25,-24l0 -14 46 0c37,0 67,-30 67,-67l0 -23c0,-4 -3,-7 -8,-7l-7 0 0 -9 74 0c4,0 8,-3 8,-8 0,-4 -4,-7 -8,-7l-59 0 0 -2c0,-12 -10,-22 -23,-22 -12,0 -22,10 -22,22l0 2 -59 0c-5,0 -8,3 -8,7 0,5 3,8 8,8l74 0 0 9 -8 0c-4,0 -7,3 -7,7l0 18c0,10 -8,18 -18,18l-21 0c-4,0 -7,4 -7,8 0,4 3,8 7,8l21 0c18,0 33,-15 33,-34l0 -10 7 0c0,0 0,0 0,0 0,0 0,0 0,0l8 0 0 15c0,29 -23,52 -52,52l-54 0c-4,0 -8,3 -8,7l0 22c0,5 -4,9 -9,9l-107 0c-6,0 -10,-4 -10,-9l0 -22c0,-4 -3,-7 -7,-7l-55 0c-7,0 -13,-2 -20,-4 -4,-2 -8,0 -10,4 -1,4 1,8 4,10 9,3 17,5 26,5l47 0 0 14c0,13 11,24 25,24l26 0 -77 47 -51 0c-12,0 -22,9 -22,21l0 156c0,12 10,21 22,21l311 0c12,0 21,-9 21,-21l0 -50c0,-5 -3,-8 -7,-8 -4,0 -8,3 -8,8l0 22 -133 0 -191 0 0 -128c0,-3 3,-6 7,-6l0 0 142 0 42 0zm-191 162l0 -13 134 0 0 19 -127 0c-4,0 -7,-3 -7,-6zm324 -13l0 13c0,3 -3,6 -6,6l-127 0 0 -19 133 0zm-236 -164l74 -46 75 46 -149 0zm236 -206l0 -2c0,-4 3,-7 7,-7 5,0 8,3 8,7l0 2 -15 0z"/>
   </g>
  </g>
 </g>
</svg>
