<?xml version="1.0" encoding="utf-8"?>
<!-- Generator: Adobe Illustrator 24.2.0, SVG Export Plug-In . SVG Version: 6.00 Build 0)  -->
<svg version="1.1" id="Layer_1" xmlns="http://www.w3.org/2000/svg" xmlns:xlink="http://www.w3.org/1999/xlink" x="0px" y="0px"
	 viewBox="0 0 250 250" style="enable-background:new 0 0 250 250;" xml:space="preserve">
<style type="text/css">
	.st0{fill-rule:evenodd;clip-rule:evenodd;fill:#808080;}
</style>
<g>
	<path class="st0" d="M226.6,170.5H6.4V96.4c0-8.8,8.2-17,17-17h220.2v73.1C243.6,161.9,235.8,170.5,226.6,170.5L226.6,170.5z
		 M24,74.8c-4.3,0.1-7.4,0.7-11.3,3c-4.6,2.8-7.8,6.5-9.9,11.8c-0.6,1.5-1,3.3-1.1,5.3v15v0.3v65.1H226c4.3-0.1,7.4-0.7,11.3-3
		c4.5-2.7,7.9-6.6,9.9-11.8c0.6-1.5,0.9-3.3,1.1-5.2V74.8H24z"/>
	<path class="st0" d="M108.2,148.3c0-4.2-0.3-5.9,0.5-9.4c4.9-1.1,31.6-0.5,38.7-0.5v11.8h-37.3C109,150.2,108.2,149.4,108.2,148.3
		L108.2,148.3z M97.4,121h46.2c4.6,0,3.8,4.8,3.8,8H105c-4.8,0-9,4.1-9,9c0,9.5-2.3,22.2,9.9,22.2h52.3c1.1,0,1.4-0.3,1.4-1.4v-36.8
		c0-7.8-5.3-12.7-13.2-12.7h-49V121z"/>
	<path class="st0" d="M16.8,104.9v53.7c0,2.4,4.4,1.4,10.9,1.4c1.1,0,1.4-0.3,1.4-1.4v-22.6h40.1v-12.7H29v-17.4
		c0-2.3,1.5-3.8,3.8-3.8h37.3V89.9H31.4C23.5,89.9,16.8,95.8,16.8,104.9z"/>
	<path class="st0" d="M186.6,158.7c0,2.4,4.4,1.4,10.9,1.4c2.3,0,1.4-3.8,1.4-8v-19.8c-0.1-13.3,6.5-13.2,16-13.2l14.7,0
		c4.5,0.1,3.7,1,3.7-8.5c0-1.1-0.3-1.4-1.4-1.4h-21.7c-5.9,0-8.6,3-11.3,6.1v-6.1h-12.3L186.6,158.7L186.6,158.7z"/>
	<rect x="77.1" y="89.9" class="st0" width="11.8" height="70.3"/>
	<path class="st0" d="M167.2,158.7c0,2.4,4.4,1.4,10.9,1.4c1.1,0,1.4-0.3,1.4-1.4v-49.5h-12.3V158.7z"/>
	<path class="st0" d="M166.3,97.9c0,9.7,14.1,8.6,14.1,1C180.4,87.4,166.3,88.9,166.3,97.9z"/>
	<path class="st0" d="M229.1,82.8c1.8,0,3.7,0.5,5.5,1.4c1.8,1,3.2,2.3,4.2,4.1c1,1.8,1.5,3.7,1.5,5.6s-0.5,3.8-1.5,5.5
		c-1,1.8-2.4,3.2-4.1,4.1c-1.8,1-3.6,1.5-5.5,1.5c-2,0-3.8-0.5-5.5-1.5c-1.8-1-3.2-2.4-4.1-4.1c-1-1.7-1.5-3.6-1.5-5.5
		c0-2,0.5-3.8,1.5-5.6c1-1.8,2.4-3.2,4.2-4.1C225.4,83.3,227.2,82.8,229.1,82.8L229.1,82.8z M229.1,84.6L229.1,84.6
		c-1.6,0-3.1,0.4-4.6,1.2c-1.5,0.8-2.6,2-3.5,3.5c-0.9,1.5-1.3,3-1.3,4.7s0.4,3.2,1.2,4.6s2,2.6,3.5,3.5s3,1.2,4.6,1.2
		s3.2-0.4,4.6-1.2c1.5-0.8,2.6-2,3.4-3.5c0.8-1.5,1.2-3,1.2-4.6s-0.4-3.2-1.3-4.7c-0.8-1.5-2-2.6-3.5-3.5
		C232.2,85,230.6,84.6,229.1,84.6L229.1,84.6z M224.2,100.1h2V95h1.1c0.7,0,1.2,0.1,1.5,0.4c0.5,0.4,1.2,1.3,2,2.8l1.1,1.9h2.4
		l-1.5-2.4c-0.7-1.1-1.3-1.9-1.8-2.4c-0.2-0.2-0.6-0.4-1-0.7c1-0.1,1.9-0.4,2.5-1.1c0.6-0.7,1-1.4,1-2.3c0-0.6-0.2-1.2-0.5-1.7
		s-0.9-0.9-1.5-1.1c-0.6-0.2-1.6-0.3-3-0.3h-4.1V100.1L224.2,100.1L224.2,100.1z M226.1,93.4L226.1,93.4h2.4c1.1,0,1.9-0.2,2.3-0.5
		c0.4-0.3,0.6-0.8,0.6-1.3c0-0.4-0.1-0.7-0.3-1s-0.5-0.5-0.8-0.6c-0.4-0.1-1-0.2-2-0.2h-2.2C226.1,89.8,226.1,93.4,226.1,93.4z"/>
</g>
</svg>
