<?xml version="1.0" encoding="utf-8"?>
<!-- Generator: Adobe Illustrator 24.2.0, SVG Export Plug-In . SVG Version: 6.00 Build 0)  -->
<svg version="1.1" xmlns="http://www.w3.org/2000/svg" xmlns:xlink="http://www.w3.org/1999/xlink" x="0px" y="0px"
	 viewBox="0 0 1700 1270" style="enable-background:new 0 0 1700 1270;" xml:space="preserve">
<style type="text/css">
	.st0{opacity:0.06;}
	.st1{fill:#272525;}
	.st2{fill:#514943;}
	.st3{fill:#D7DDDD;}
	.st4{fill:#C5CCCC;}
	.st5{opacity:0.09;}
	.st6{opacity:0.04;}
	.st7{fill:#363636;}
	.st8{fill:#2E4661;}
	.st9{fill:#FFFFFF;}
	.st10{fill:#E7CAAD;}
	.st11{fill:#3A3029;}
	.st12{fill:#273140;}
	.st13{fill:#647380;}
	.st14{fill:#E8CBAE;}
	.st15{fill:#C1D6E0;}
	.st16{fill:#899195;}
	.st17{fill:#58646C;}
	.st18{opacity:0.25;}
	.st19{fill:#F1F8FF;}
	.st20{fill:#CCE1E8;}
	.st21{fill:#801B2E;}
</style>
<g id="background">
</g>
<g id="shadow">
</g>
<g id="object">
	<g>
		<g class="st0">
			<path class="st1" d="M1507.02,1026.14c-1.77-0.85-3.64-1.55-5.6-2.09c-7.61-2.07-18.89,0.1-26.73,0.15
				c-35.24,0.19-70.49,0.39-105.73,0.58c-117.82,0.65-235.64,1.29-353.46,1.94c-138.29,0.76-276.58,1.52-414.87,2.28
				c-107.6,0.59-215.19,1.18-322.79,1.77c-29.78,0.16-59.55,0.33-89.33,0.49c0,0,82.54,127.19,232.93,141.29
				c114.59,10.74,231.84,6.39,346.75,6.69c172.13,0.45,344.27-0.45,516.4-1.72c42.63-0.31,85.26-0.66,127.89-1.03
				c23.4-0.2,93.5,10.54,110.58-6.6c4.38-4.4,6.72-10.4,8.55-16.33C1541.16,1122.67,1542.77,1043.32,1507.02,1026.14z"/>
		</g>
		<g>
			<g>
				<polygon class="st2" points="477.68,1090.01 478.11,1101.65 470.86,1122.72 456.56,1119.61 458.08,1087.18 460.89,1082.32 				
					"/>
			</g>
			<g>
				<path class="st3" d="M1472.56,1028.49c0,14.54-11.79,26.32-26.32,26.32h-89.3V713.37h89.3c14.54,0,26.32,11.79,26.32,26.32
					V1028.49z"/>
			</g>
			<g>
				<path class="st4" d="M1358.21,1054.81H299.83V592.2c0-18.98,15.39-34.38,34.38-34.38h989.63c18.98,0,34.38,15.39,34.38,34.38
					V1054.81z"/>
			</g>
			<g class="st5">
				<path d="M1358.21,935.72L316.65,969.68c-9.86,0.43-18.09-7.26-18.09-16.9v-69.16l1058.38,27.29L1358.21,935.72z"/>
			</g>
			<g>
				<path class="st3" d="M1362.08,923.31H327.73c-19.62,0-35.52-15.9-35.52-35.52v-14.26c0-19.62,15.9-35.52,35.52-35.52h1034.35
					c19.62,0,35.52,15.9,35.52,35.52v14.26C1397.6,907.41,1381.69,923.31,1362.08,923.31z"/>
			</g>
			<g>
				<path class="st3" d="M299.69,1054.31h-84.4c-17.25,0-31.23-13.98-31.23-31.23V744.1c0-17.25,13.98-31.23,31.23-31.23h84.4
					V1054.31z"/>
			</g>
			<g class="st6">
				<path d="M298.56,837.98L362.15,797c0,0,951.62-13.28,957.29-9.13s38.77,48.14,38.77,48.14S313.23,838.3,298.56,837.98z"/>
			</g>
			<g>
				<g>
					<g>
						<polygon class="st7" points="837.46,1100.02 830.71,1110.43 837.95,1149.64 851.58,1158.5 865.43,1150.23 864.04,1119.2 
							851.31,1091.75 						"/>
					</g>
					<g>
						<polygon class="st7" points="896.45,1107.4 894.34,1119.63 916.46,1152.81 932.48,1155.57 941.95,1142.52 928.44,1114.55 
							905.91,1094.35 						"/>
					</g>
					<g>
						<path class="st8" d="M729.59,796.71c8.57,11.34,23.82,14.89,37.86,16.89c15.73,2.25,31.6,3.54,47.49,3.87
							c11.25,0.23,22.6-0.02,33.61-2.36c17.5-3.72,33.45-12.51,50.23-18.73c14.84-5.51,30.42-9.01,46.18-10.39
							c4.45-0.39,9.12-0.68,12.9-3.06c8.29-5.22,8.2-17.16,7.12-26.92c-1.54-13.88-3.67-28.97-13.74-38.61
							c-7.13-6.83-17.08-9.7-26.72-11.76c-45.66-9.78-93.94-6.1-137.86,9.62c-17.64,6.32-45.46,15.51-57.82,30.61
							C718.68,758.28,720.39,784.52,729.59,796.71z"/>
					</g>
					<g>
						<path class="st8" d="M729.64,792.46c-1.73,4.57-2.05,10.24-2.18,18.71l53.16,39.46l47.93,264.96l36.82-0.24l20.62-253.63
							c-3.66-21.21-4.28-46.13-11.44-66.27c-8.5-23.9-47.63-34.3-70.99-34.79c-20.27-0.42-40.44,5.34-57.65,16
							C736.42,782.53,731.86,786.59,729.64,792.46z"/>
					</g>
					<g>
						<path class="st8" d="M954.71,761.21c2.32,4.39,4.28,9.04,7.07,13.4c6.26,9.8,12.44,19.44,18.29,29.72
							c8.21,14.4,16.27,28.88,24.19,43.43l-74.67,272.25l-35.61-2.3c0,0,8.04-265.32,8.04-265.36c0.19-6.81-15.01-15.94-19.5-19.48
							c-11.55-9.09-17.02-13.74-23.46-27.2c-5.02-10.5-5.86-22.99-2.01-33.98c3.85-10.99,12.42-20.29,23.16-24.77
							c8.33-3.48,17.54-4.07,26.56-4.61c13.04-0.79,27.26-1.25,37.84,6.41C949.35,752.15,952.23,756.53,954.71,761.21z"/>
					</g>
				</g>
				<g>
					<path class="st8" d="M694.9,765.13c-0.65,19.21-0.23,44.9,7.84,45.86c1.51,0.18,2.97-0.49,4.3-1.14
						c14.03-6.83,24.04-16.49,37.87-23.09c14.5-6.92,30.97-10.54,47.08-13.04c24.02-3.84,48.43-6.15,72.61-6.37
						c20.78-0.18,45.92-0.77,65.56,4.45c14.92,5.39,29.59,10.91,44.15,16.82c-4.39-71.55-14.54-144.53-30.58-218.31
						c-6.26-28.8-6.12-57.29-27.1-79.33c-18.78-19.72-12.47-45.02-67.6-44.61c-97.76,0.72-68.54-6.38-110.54,71.86
						c-9.43,17.56-21.31,65.45-24.84,84.38c-4.25,22.78-8.17,45.46-11.26,68.07c-3.42,25.05-5.83,50.02-6.53,74.85
						C695.77,748.29,695.21,755.96,694.9,765.13z"/>
				</g>
				<g>
					<path class="st9" d="M800.85,452.99l53.59,0.31c0,0,37.69,153.75,39.43,180.23c1.71,26,8.16,127.58,8.16,127.58
						s-52.47-9.47-107.77,1.53c-54.9,10.93-51.14,14.17-51.14,14.17s29.61-110.78,30.58-142.61C774.7,601.64,799,521,799,521
						L800.85,452.99z"/>
				</g>
				<g>
					<path class="st10" d="M835.25,453.47c-0.48,0.42-1.04,0.75-1.68,0.96c-1.27,0.42-2.65,0.27-3.99,0.11
						c-5.42-0.64-10.84-1.28-16.26-1.92c1.79-16.6-7.91-20.35-17.37-31.03c-9.58-10.82-6.63-25.41-6.09-38.66
						c0.15-3.69,0.33-7.49,1.89-10.83c2.74-5.87,9.11-9.11,15.29-11.04c15.79-4.91,33.84-3.7,47.74,5.25
						c3.7,2.38,7.15,5.37,9.16,9.29c3.09,6.04,2.3,13.25,1.44,19.97c-1.32,10.34-4.38,20.5-10.23,29.22
						c-5.45,8.12-15.84,12.01-17.03,21.76C837.83,449.07,837.06,451.9,835.25,453.47z"/>
				</g>
				<g>
					<path class="st11" d="M903.12,345.11c-0.17-5.06-2.19-9.59-6.95-12.64c-4.1-2.63-8.82-4.82-11.31-9.01
						c-1.93-3.25-2.22-7.27-4.13-10.53c-3.47-5.9-10.99-7.64-17.54-9.64c-16.38-5.01-25.19-10.78-42.54-4.38
						c-12.33,4.56-28.27,5.17-39.71,11.81c-4.78,2.78-8.85,7.23-12.18,12.2c-11.56,17.21-14.34,41.4-6.81,59.35
						c1.69,4.02,3.83,7.71,6.12,11.25c4.58,7.07,9.48,15.77,17.59,19.24c0.51-3.33,3.12-5.17,3.93-8.45
						c0.59-2.36,0.39-4.83,0.26-7.25c-0.5-9.44-3.54-24.36,6.36-29.04c12.52-5.92,36.01-0.58,48.07,4.43
						c10.67,4.43,28.68,10.2,40.05,5.45C894.89,373.49,903.48,355.92,903.12,345.11z"/>
				</g>
				<g>
					<polygon class="st8" points="810.94,453.63 847.99,453.63 833.49,474.57 854.43,687.52 828.66,715.44 810.94,682.28 
						815.78,474.57 					"/>
				</g>
			</g>
			<g>
				<g>
					<polygon class="st12" points="1223.75,1099.21 1225.41,1111.51 1202.12,1143.88 1186.01,1146.06 1177.02,1132.67 
						1191.52,1105.2 1214.75,1085.82 					"/>
				</g>
				<g>
					<polygon class="st12" points="1167.08,1103.1 1169.19,1115.32 1147.07,1148.51 1131.05,1151.27 1121.58,1138.21 
						1135.09,1110.24 1157.62,1090.04 					"/>
				</g>
				<g>
					<path class="st12" d="M1333.93,792.4c-8.57,11.34-23.82,14.89-37.86,16.89c-15.73,2.25-31.6,3.54-47.49,3.87
						c-11.25,0.23-22.6-0.02-33.61-2.36c-17.5-3.72-33.45-12.51-50.23-18.73c-14.84-5.51-30.42-9.01-46.18-10.39
						c-4.45-0.39-9.12-0.68-12.9-3.06c-8.29-5.22-8.2-17.16-7.12-26.92c1.54-13.88,3.67-28.97,13.74-38.61
						c7.13-6.83,17.08-9.7,26.72-11.76c45.66-9.78,93.94-6.1,137.86,9.62c17.64,6.32,45.46,15.51,57.82,30.61
						C1344.85,753.97,1343.14,780.22,1333.93,792.4z"/>
				</g>
				<g>
					<path class="st12" d="M1324.14,784.25c1.73,4.57,2.05,10.24,2.18,18.71l-53.16,39.46l-47.93,264.96l-36.82-0.24l-20.62-253.63
						c3.66-21.21,4.28-46.13,11.44-66.27c8.5-23.9,47.63-34.3,70.99-34.79c20.27-0.42,40.44,5.34,57.65,16
						C1317.36,774.32,1321.91,778.39,1324.14,784.25z"/>
				</g>
				<g>
					<path class="st12" d="M1108.82,756.91c-2.32,4.39-4.28,9.04-7.07,13.4c-6.26,9.8-12.44,19.44-18.29,29.72
						c-8.21,14.4-16.27,28.88-24.19,43.43l74.67,272.25l35.61-2.3c0,0-8.04-265.32-8.04-265.36c-0.19-6.81,15.01-15.94,19.5-19.48
						c11.55-9.09,17.02-13.74,23.46-27.2c5.02-10.5,5.86-22.99,2.01-33.98c-3.85-10.99-12.42-20.29-23.16-24.77
						c-8.33-3.48-17.54-4.07-26.56-4.61c-13.04-0.79-27.26-1.25-37.84,6.41C1114.18,747.84,1111.29,752.22,1108.82,756.91z"/>
				</g>
			</g>
			<g>
				<path class="st13" d="M471.06,466.47c-0.42,0.1-0.84,0.2-1.25,0.31c-19.9,5.01-42.42,33.02-49.54,52.37
					c-21.97,59.67-25.63,97.09-33.86,149.5c-4.43,28.22-16.52,55.8-28.21,81.85c-3.28,7.3-1.32,14.68-1.83,22.27
					c-0.54,7.9,1.35,16,2.89,23.8c0.39,2.17,13.34-3.29,14.48-3.66c20.34-6.52,40.86-12.55,61.68-17.33
					c13.78-3.17,27.69-5.79,41.71-7.69c41.34-5.62,68.78,7.71,108.22,20.87c-1.38-90.26,3.63-163.29-11.56-251.94
					c-1.82-10.6-1.74-17.8-7.7-29.25c-5.72-11-9.57-18.66-18.73-26.33c-3.14-2.63-6.3-5.27-9.86-7.25
					C518.71,463.55,491.98,461.54,471.06,466.47z"/>
			</g>
			<g>
				<g>
					<polygon class="st14" points="671.7,508.42 689.51,486.16 680.33,478.13 664.75,490.68 662.17,484.86 649.25,505.77 
						657.67,515.41 					"/>
				</g>
				<g>
					<polygon class="st13" points="547.35,481.22 593.06,551.18 645.4,501.13 661.13,521.1 576.27,637.74 512.41,537.45 					"/>
				</g>
			</g>
			<g>
				<polygon class="st13" points="470.3,466.75 380.6,516.16 355.26,447.42 329.88,448.88 324.17,583.05 339.32,603.56 
					432.12,564.61 				"/>
			</g>
			<g>
				<g>
					<g>
						<path class="st2" d="M535.63,420.31c4.29,12.56-1.91,25.95-7.37,37.4c-2.23,4.68-5.74,11.22-1.94,15.96
							c4.26,5.31,13.53,3.29,17.29-1.33c2.65-3.26,3.73-7.45,4.63-11.52c4.03-18.23,9.66-43.78,6.53-62.25
							c-2.51-14.81-22.33-39.67-39.56-28.49c-3.13,2.03-4.95,5.46-6.48,8.81c-0.91,2-1.77,4.09-1.8,6.28
							c-0.11,8.72,8.07,10.2,13.71,14.35C527.61,404.64,532.88,412.29,535.63,420.31z"/>
					</g>
					<g>
						<path class="st10" d="M509.48,469.34c11.92-2.74,21.24-12.49,25.72-23.6c4.48-11.11,4.71-23.42,3.47-35.3
							c-4.12-39.51-54.56-36.97-71.64-6.69C452.15,430.15,474.82,477.3,509.48,469.34z"/>
					</g>
					<g>
						<path class="st2" d="M470.84,422.23c-2.48,9.19-2.9,20.35-2.43,27.09c0.53,7.68,4.29,28.55-10.08,25.25
							c-11.98-2.76-22.06-30.13-25.87-39.92c-9.26-23.79-11.63-48.8,2.63-70.77c5.55-8.56,13.3-16.12,23.02-19.72
							c14.62-5.41,40.03-7.59,54.91-1.31c16.22,6.85,24.82,27.32,14.62,42.26c-10.97,16.08-36.45,11.95-50.18,24.41
							C474.39,412.27,472.27,416.92,470.84,422.23z"/>
					</g>
				</g>
				<g>
					<path class="st10" d="M510.14,465.16c-0.36,3-0.71,6.01-1.07,9.01c-0.16,1.38,0.28,5.23-0.76,6.26
						c-0.54,0.54-1.41,0.55-2.18,0.52c-2.2-0.07-21.93-0.83-21.83-2.14c0.27-3.53,0.61-6.99,1.36-10.4
						c0.61-2.76,0.49-7.83,1.86-10.01c3.52,2.05,7.07,3.19,11.07,3.98c3.86,0.76,7.74,1.45,11.62,2.08
						C510.2,464.7,510.17,464.93,510.14,465.16z"/>
				</g>
			</g>
			<g>
				<g>
					<polygon class="st10" points="1063.96,436.33 1052.83,424.58 1053.44,410.32 1050.49,408.66 1048.29,412.21 1045.41,400.23 
						1037.41,394.23 1024.73,398.25 1016.94,409.58 1022.27,421.76 1035,431.12 1049.54,447.87 					"/>
				</g>
				<g>
					<path class="st12" d="M1057.27,424.99l61.9,68.65c15.85-5.05,30.51-8.22,46.73-10.91c15.75-2.61,33.3-15.45,49.51-11.88
						c36.59,8.05-35.39,57.71-44.33,64.04c-17.85,12.64-35.69,25.27-53.54,37.91l-14.78-10.33l-73.59-123.11L1057.27,424.99z"/>
				</g>
			</g>
			<g>
				<path class="st12" d="M1341.5,756.02c0.41,18.85-0.18,44.26-7.42,45.19c-1.36,0.17-2.66-0.5-3.84-1.14
					c-12.52-6.84-21.38-16.46-33.73-23.07c-12.94-6.92-27.74-10.6-42.26-13.18c-21.71-3.97-43.89-6.43-66.01-6.81
					c-17.39-0.3-34.85,1.18-52.17,2.62c-14.4,1.2-27.81,5.47-42.48,4.45c-15.04-1.04-29.85-5.65-42.71-13.55
					c-0.47-0.29-0.97-0.62-1.16-1.14c-0.21-0.57-0.01-1.19,0.2-1.76c3.07-8.42,5.28-16.75,10.86-23.73
					c6.23-7.78,10.66-17.68,15.16-26.54c9.38-18.47,18.22-37.82,24.78-57.5c5.42-14.64,10.64-29.43,15.2-44.37
					c2.07-6.8,3.93-13.71,5.97-20.59c2.02-6.82,5.77-15.69,5.77-22.82c0-28.67,25.73-50.25,42.47-71.2
					c5.03-6.3,10.4-12.85,17.88-15.86c5.13-2.06,10.78-2.24,16.3-2.4c16.75-0.48,33.5-0.96,50.25-1.44
					c6.11-0.18,12.46-0.3,18.03,2.21c8.34,3.77,13.06,12.53,17.18,20.71c18.48,36.65,30.27,76.17,36.87,116.92
					c3.45,21.28,6.63,42.6,9.12,64c2.77,23.88,4.67,47.87,5.07,71.9C1340.88,739.58,1341.3,747.06,1341.5,756.02z"/>
			</g>
			<g>
				<path class="st15" d="M1219.7,549.21c-4.49,9.81-7.1,16.47,0.65,24.58c7.41,7.76,10.45,8.17,13.59,19.78
					c5.25,19.42,10.14,39.6,12.46,59.61c1.54,13.2-0.95,25.84,0.75,39.23c0.62,4.87,5.99,61.94,9.32,61.97
					c-25.97-0.23-51.93-0.45-77.9-0.68c-12.98-0.11-25.97-0.23-38.95-0.34c-7.99-0.07-15.2,2.01-15.83-7.05
					c-0.54-7.76,8.77-21.9,11.24-29.69c6.55-20.72,11.15-42.61,23.61-60.83c6.5-9.51,14.96-17.7,20.37-27.87
					c10.6-19.92,7.95-43.88,8.01-66.45c0.06-20.76,2.68-41.5,7.75-61.63c3.59-14.25,5.85-33,23-35.98
					c12.86-2.23,27.37-4.12,40.29-2.22c4.39,16.01-9.82,34.92-17.78,47.4c-5.42,8.5-10.06,17.47-14.1,26.69
					C1224.83,538.85,1222.13,543.91,1219.7,549.21z"/>
			</g>
			<g>
				<g>
					<path class="st10" d="M1221.43,472.03c9.32-0.4,18.65-0.81,27.97-1.21c0.5-7.42,0.41-14.89-0.28-22.3
						c7.88-2.29,17.03-5.87,18.83-13.87c0.57-2.52,0.27-5.15-0.03-7.71c-1.23-10.61-2.47-21.22-3.7-31.83
						c-0.43-3.67-0.89-7.45-2.69-10.67c-3.17-5.66-9.77-8.42-16.08-9.88c-16.12-3.73-34.05-1.19-47.26,8.77
						c-3.52,2.65-6.74,5.89-8.45,9.95c-2.64,6.26-1.32,13.39,0.04,20.04c1.25,6.14,2.51,12.28,3.76,18.42
						c1.44,7.06,3.64,15.12,10.2,18.1c3.48,1.58,7.71,1.41,10.82,3.64C1220.04,457.4,1218.81,465.81,1221.43,472.03z"/>
				</g>
				<g>
					<path class="st11" d="M1169.78,337.17c2.07-0.37,4.18-0.81,6.32-1.74c6.75-2.94,11.49-8.83,18.66-11.59
						c14.51-5.58,32.7-4.77,46.95,1.22c13.64,5.74,32.25,7.94,44.45,15.65c5.1,3.22,9.04,8.02,12.03,13.26
						c10.36,18.13,9.08,42.26-3.13,59.2c-2.74,3.8-5.96,7.23-9.32,10.5c-6.96,6.75-15.3,15.11-24.47,17.25
						c0.23-8.09,9-33.15,3.17-40.11c-7.74-9.23-22.93-9-33.81-7.98c-12.97,1.21-23.64-2.95-36.58-2.3
						c-6.59,0.33-14.04,1.65-19.09-2.59c-5.84-4.9-18.18-20.48-21.11-27.31c-2.56-5.98-0.85-13.35,3.6-18.1
						C1161.29,338.42,1165.44,337.94,1169.78,337.17z"/>
				</g>
			</g>
			<g>
				<g>
					<polygon class="st14" points="439.28,808.97 456.64,969.26 459.14,1088.67 477.9,1094.19 493.35,985.51 526.71,786.87 					"/>
				</g>
			</g>
			<g>
				<g>
					<polygon class="st2" points="547.28,1092.49 552.4,1103.71 553.71,1127.27 538.29,1130.01 526.71,1097.65 527.53,1091.75 					
						"/>
				</g>
				<g>
					<g>
						<polygon class="st14" points="570.42,771.67 579.7,902.09 547.08,1095.18 528.16,1095.18 534.46,916.43 496.47,762.19 						
							"/>
					</g>
				</g>
			</g>
			<g>
				<path class="st16" d="M598.11,795.47c-3.1-8.18-7.4-16.34-13.16-24.67c-20.37-29.43-53.12-36.89-84.91-38.55
					c-14.7-0.77-28.82-5.87-43.46-4.58c-18.64,1.65-36.95,9.27-54.64,15.42c-16.12,5.6-41.24,14.73-38.7,38.4
					c4.03,37.52,37.41,50.88,46.84,83.36c1.91,6.59,2.19,13.59,2.46,20.5c0.73,19.05,0.93,38.27,2.34,57.25
					c9.28,1.7,18.57-3.18,28.01-3.65c15.48-0.76,32.12,3.24,47.58,4.58c32.57,2.83,65.21,4.69,97.88,5.58
					c4.18-24.96,8.37-49.91,12.55-74.87C605.91,844.31,607.31,819.78,598.11,795.47z"/>
			</g>
			<g>
				<g>
					<path class="st10" d="M975.61,435.03l3.3-12.86l-6.12-9.98l1.46-2.37l2.99,1.68c-4.68-2.58-1.53-18.21-0.49-21.52
						c0.37-1.18,0.83-2.4,1.74-3.23c1.14-1.04,2.76-1.31,4.29-1.47c3.63-0.4,7.29-0.51,10.93-0.31c0.83,0.04,1.7,0.12,2.37,0.62
						c0.98,0.74,1.16,2.12,1.24,3.35c0.75,11.2,1.65,20.65-3.02,30.84l-3.76,17.8L975.61,435.03z"/>
				</g>
				<g>
					<polygon class="st8" points="970.55,421.32 955,500 868.69,447.88 899.28,544.82 980,576 991.9,571.15 1000.68,431.73 					"/>
				</g>
			</g>
			<g>
				<path class="st8" d="M1220.04,478.53l18.52,3.9l-4.87,13.65l-7.8,8.77c0,0-19.5,53.62-22.42,79.95c-2.92,26.32,0,60.44,0,60.44
					l-0.98,23.41c0,0-11.7-15.6-14.62-18.52c-2.92-2.92-1.95-75.07,3.9-102.37s24.95-50.98,24.95-50.98
					S1219.07,485.35,1220.04,478.53z"/>
			</g>
			<g>
				<g>
					<polygon class="st10" points="1173.48,663.3 1157.69,671.6 1142.75,666.69 1140.1,669.33 1143.21,672.72 1129.65,672.2 
						1120.89,678.9 1121.37,693.55 1131.07,705.19 1145.58,703.17 1159.31,692.46 1181.41,682.04 					"/>
				</g>
				<g>
					<path class="st12" d="M1159.45,667.02l91.3-45.18c-0.63-18.32,0.38-34.82,2.37-52.83c1.93-17.49-6.45-39.94,2.17-56.06
						c19.46-36.41,50.66,54.77,54.71,66.14c8.08,22.7,16.16,45.4,24.23,68.11l-15.36,12.59l-152.56,41.33L1159.45,667.02z"/>
				</g>
			</g>
			<g>
				<g>
					<g>
						<path class="st17" d="M1019.67,484.42l-9.28-2.41c-3.48-0.9-5.56-4.46-4.66-7.93l47.16-181.29c0.9-3.48,4.45-5.56,7.93-4.66
							l9.28,2.42c3.48,0.9,5.56,4.45,4.66,7.93l-47.16,181.29C1026.7,483.24,1023.15,485.33,1019.67,484.42z"/>
					</g>
					<g class="st18">
						<polygon points="1043.46,329.07 1057.69,364.13 1066.86,328.88 1046.14,321.2 						"/>
					</g>
					<g>
						
							<ellipse transform="matrix(0.7071 -0.7071 0.7071 0.7071 157.2877 831.2178)" class="st19" cx="1082.01" cy="225.75" rx="103.91" ry="103.91"/>
					</g>
					<g>
						<g>
							<path class="st20" d="M1054.39,331.92c-58.54-15.23-93.78-75.25-78.55-133.79c15.23-58.54,75.25-93.78,133.79-78.55
								c58.54,15.23,93.78,75.25,78.55,133.79C1172.95,311.91,1112.93,347.15,1054.39,331.92z M1106.71,130.79
								c-52.36-13.62-106.03,17.89-119.66,70.25s17.89,106.03,70.25,119.66c52.36,13.62,106.03-17.89,119.66-70.25
								C1190.59,198.09,1159.07,144.41,1106.71,130.79z"/>
						</g>
					</g>
				</g>
				<g class="st18">
					<polygon points="1029.66,265.07 1032.14,270.56 1096.96,237.09 1120.34,276.17 1123.69,277.05 1101.9,234.58 1142.46,214.24 
						1137.81,207.41 					"/>
				</g>
				<g>
					<polygon class="st21" points="1144.38,210.94 1133.06,188.72 1085.93,212.73 1059.15,167.12 1037.64,179.74 1063.67,224.07 
						1017.87,247.4 1029.19,269.62 1076.32,245.61 1103.09,291.23 1124.6,278.6 1098.58,234.27 					"/>
				</g>
			</g>
			<g>
				<g>
					<g>
						<path class="st17" d="M761.02,810.36l-7.88-5.47c-2.95-2.05-3.68-6.1-1.63-9.05l106.91-153.82c2.05-2.95,6.1-3.68,9.05-1.63
							l7.88,5.47c2.95,2.05,3.68,6.1,1.63,9.05L770.07,808.73C768.02,811.68,763.97,812.41,761.02,810.36z"/>
					</g>
					<g class="st18">
						<polygon points="837.02,672.8 838.26,710.61 859.05,680.7 842.26,666.34 						"/>
					</g>
					<g>
						<circle class="st19" cx="908.91" cy="589.16" r="103.91"/>
					</g>
					<g>
						<g>
							<path class="st20" d="M846.3,679.25c-49.67-34.52-62-103.02-27.48-152.69c34.52-49.67,103.02-62,152.69-27.48
								c49.67,34.52,62,103.02,27.48,152.69C964.47,701.45,895.97,713.77,846.3,679.25z M964.9,508.6
								c-44.42-30.88-105.69-19.85-136.56,24.57s-19.85,105.69,24.57,136.56c44.42,30.88,105.69,19.85,136.56-24.57
								C1020.35,600.73,1009.33,539.47,964.9,508.6z"/>
						</g>
					</g>
				</g>
				<g class="st18">
					<polygon points="846.19,607.97 846.62,613.98 919.01,604.97 927.45,649.73 930.29,651.71 924.52,604.32 969.61,599.26 
						967.61,591.24 					"/>
				</g>
				<g>
					<polygon class="st21" points="972.55,596.82 969.6,572.06 917.08,578.3 907.71,526.25 883.17,530.66 892.27,581.25 
						841.23,587.32 844.17,612.08 896.7,605.84 906.06,657.9 930.61,653.48 921.5,602.89 					"/>
				</g>
			</g>
			<g>
				<path class="st16" d="M544.24,534.88c-0.97-34.78-29.25-53.9-29.25-53.9l-39-2.61l-27.3,46.95l52.4,63.42
					c-8.93,72.34-30.8,139.37-30.8,139.37l23.5,3.57c3.66-16.91,8.69-112.05,10.17-141.21L544.24,534.88z"/>
			</g>
			<g>
				<g>
					<path class="st10" d="M778.35,729.78l6.27,11.71l11.26,3.21l0.53,2.73l-3.34,0.79c5.19-1.26,13.44,12.38,14.92,15.52
						c0.53,1.12,1.01,2.33,0.9,3.56c-0.14,1.53-1.15,2.83-2.16,3.99c-2.4,2.75-5.03,5.3-7.84,7.63c-0.64,0.53-1.34,1.06-2.16,1.15
						c-1.23,0.12-2.29-0.78-3.18-1.63c-8.13-7.74-15.18-14.09-18.64-24.76l-9.28-15.65L778.35,729.78z"/>
				</g>
				<g>
					<polygon class="st8" points="792.04,732.99 753,630 772,571 762.79,467.8 686,599 684,626 764.73,756.7 					"/>
				</g>
			</g>
			<g>
				<g>
					<polygon class="st14" points="329.57,441.69 329.06,413.89 341.22,413.04 345.89,431.96 351.48,428.95 348.95,452.83 
						336.41,455.37 					"/>
				</g>
				<g>
					<g>
						<g>
							<path class="st17" d="M311.68,501.02l-8.81-3.79c-3.3-1.42-4.82-5.24-3.4-8.54l74.05-172.07c1.42-3.3,5.25-4.82,8.54-3.4
								l8.81,3.79c3.3,1.42,4.82,5.25,3.4,8.54l-74.05,172.07C318.81,500.91,314.98,502.43,311.68,501.02z"/>
						</g>
						<g class="st18">
							<polygon points="358.7,351.05 367.46,387.85 381.86,354.4 362.54,343.68 							"/>
						</g>
						<g>
							
								<ellipse transform="matrix(0.7071 -0.7071 0.7071 0.7071 -59.3312 366.2543)" class="st19" cx="412.44" cy="254.75" rx="103.91" ry="103.91"/>
						</g>
						<g>
							<g>
								<path class="st20" d="M369.08,355.52c-55.56-23.91-81.32-88.57-57.4-144.14c23.91-55.56,88.57-81.32,144.14-57.4
									c55.56,23.91,81.32,88.57,57.4,144.14C489.3,353.68,424.64,379.43,369.08,355.52z M451.23,164.62
									c-49.69-21.39-107.52,1.64-128.91,51.34c-21.39,49.69,1.64,107.52,51.34,128.91c49.69,21.39,107.52-1.64,128.91-51.34
									C523.95,243.84,500.92,186.01,451.23,164.62z"/>
							</g>
						</g>
					</g>
					<g class="st18">
						<polygon points="354.74,285.69 356.36,291.5 425.5,268.22 442.7,310.39 445.88,311.77 430.76,266.49 473.93,252.52 
							470.38,245.06 						"/>
					</g>
					<g>
						<polygon class="st21" points="476.33,249.55 468.5,225.87 418.28,242.47 398.71,193.33 375.54,202.56 394.56,250.31 
							345.76,266.45 353.59,290.13 403.8,273.52 423.37,322.66 446.54,313.44 427.52,265.68 						"/>
					</g>
				</g>
				<g>
					<path class="st10" d="M351.79,427.8c-1.76-1.18-3.95-1.72-6.06-1.49c-0.25,0.03-0.51,0.07-0.71,0.22
						c-0.25,0.18-0.36,0.49-0.46,0.79c-0.78,2.3-1.56,4.61-2.35,6.91c2.91,0.34,5.79,0.97,8.58,1.87c0.63-2.54,0.94-5.15,0.91-7.77
						L351.79,427.8z"/>
				</g>
			</g>
		</g>
	</g>
</g>
</svg>
