<?xml version="1.0" encoding="utf-8"?>
<!-- Generator: Adobe Illustrator 24.2.0, SVG Export Plug-In . SVG Version: 6.00 Build 0)  -->
<svg version="1.1" xmlns="http://www.w3.org/2000/svg" xmlns:xlink="http://www.w3.org/1999/xlink" x="0px" y="0px"
	 viewBox="0 0 750 500" style="enable-background:new 0 0 750 500;" xml:space="preserve">
<style type="text/css">
	.st0{fill:#FFFFFF;}
	.st1{fill:#D9E8FF;}
	.st2{opacity:0.1;}
	.st3{fill:#A4CFFF;}
	.st4{fill:#6B6BFF;}
	.st5{fill:#7D7DFF;}
	.st6{fill:#9D9DFF;}
	.st7{fill:#B8B8FF;}
	.st8{opacity:0.15;}
	.st9{fill:#FF5781;}
</style>
<g id="BACKGROUND">
	<rect class="st0" width="750" height="500"/>
	<path class="st1" d="M682.11,253.96c-19.08,8.67-38.88,16.32-37.97,35.13c1.08,22.24,26.67,36.81,28.58,58.91
		c4.65,53.84-58.4,42.1-89.82,38.4c-21.01-2.47-42.69,1.07-61.81,10.11c-22.68,10.72-43.04,26.72-69.17,17.83
		c-23.05-7.84-37.87-28.16-59.12-38.76c-33.3-16.6-73.06-6.8-107.72-0.07c-35.57,6.9-71.89,15.95-108.47,13.13
		c-22.78-1.76-51.72-8.72-65.39-28.24c-6.06-8.65-8.4-20.1-4.43-29.81c5.43-13.27,15.97-29.58,11.81-44.44
		c-4.27-15.27-21.52-23.04-32.93-32.65c-25.63-21.58-60.98-61.56-49.86-98.21c5.15-16.98,20.79-29.33,37.82-34.33
		c40.87-12.01,84.25,9.33,123.19,19.54c40.78,10.69,80.29,10.27,114.52-17.31c15.41-12.42,28.02-28.03,44.87-38.59
		c31.23-19.58,64.52-15.89,95.24,2.71c30.1,18.22,62.92,32.74,97.96,37.8c36.56,5.28,74.03-2.3,110.13,7.47
		c42.92,11.61,72.27,51.48,54.91,95.89C709.66,240.71,696.08,247.61,682.11,253.96z"/>
</g>
<g id="OBJECTS">
	<g>
		<g class="st2">
			<ellipse cx="375.05" cy="417.39" rx="349.01" ry="11.08"/>
		</g>
		<g>
			<g>
				<g>
					<path class="st0" d="M405.6,177.9l13.42-2.86l-2.14-10.05c4.88-2.03,9.17-5.03,12.68-8.73l8.62,5.59l7.47-11.52l-8.62-5.59
						c1.94-4.71,2.94-9.85,2.8-15.14l10.05-2.14l-2.86-13.42l-10.05,2.14c-2.03-4.88-5.03-9.17-8.73-12.68l5.59-8.62l-11.52-7.47
						l-5.59,8.62c-4.71-1.94-9.85-2.94-15.14-2.8l-2.14-10.05l-13.42,2.86l2.14,10.05c-4.88,2.03-9.17,5.03-12.68,8.73l-8.62-5.59
						l-7.47,11.52l8.62,5.59c-1.94,4.71-2.94,9.85-2.8,15.14l-10.05,2.14l2.86,13.42l10.05-2.14c2.03,4.88,5.03,9.17,8.73,12.68
						l-5.59,8.62l11.52,7.47l5.59-8.62c4.71,1.94,9.85,2.94,15.14,2.8L405.6,177.9z M381.05,135.14
						c-2.53-11.85,5.03-23.51,16.89-26.04c11.85-2.53,23.51,5.03,26.04,16.89c2.53,11.85-5.03,23.51-16.89,26.04
						C395.24,154.55,383.58,146.99,381.05,135.14z"/>
				</g>
			</g>
			<g>
				<g>
					<path class="st0" d="M333.49,250.72l13.42-2.86l-2.14-10.05c4.88-2.03,9.17-5.03,12.68-8.73l8.62,5.59l7.47-11.52l-8.62-5.59
						c1.94-4.71,2.94-9.85,2.8-15.14l10.05-2.14l-2.86-13.42L364.86,189c-2.03-4.88-5.03-9.17-8.73-12.68l5.59-8.62l-11.52-7.47
						l-5.59,8.62c-4.71-1.94-9.85-2.94-15.14-2.8l-2.14-10.05l-13.42,2.86l2.14,10.05c-4.88,2.03-9.17,5.03-12.68,8.73l-8.62-5.59
						l-7.47,11.52l8.62,5.59c-1.94,4.71-2.94,9.85-2.8,15.14l-10.05,2.14l2.86,13.42l10.05-2.14c2.03,4.88,5.03,9.17,8.73,12.68
						l-5.59,8.62l11.52,7.47l5.59-8.62c4.71,1.94,9.85,2.94,15.14,2.8L333.49,250.72z M308.94,207.96
						c-2.53-11.85,5.03-23.51,16.89-26.04c11.85-2.53,23.51,5.03,26.04,16.89c2.53,11.85-5.03,23.51-16.89,26.04
						C323.12,227.37,311.46,219.81,308.94,207.96z"/>
				</g>
			</g>
		</g>
		<g>
			<g>
				<path class="st3" d="M219.84,341.93c-2.63-5.65-6.6-10.82-11.92-14.07c-8.84-5.41-20.24-0.26-29.67-2.44
					c-4.82-1.12-9.47-4.43-10.83-9.31c-0.32-1.16-0.44-2.32-0.39-3.46c0.28-6.01,5.35-11.55,10.89-14.31
					c11.39-5.67,25.08-7.01,34.48-16.34c9.25-9.17,12.38-23.17,7.93-35.38c-3.04-8.33-9.75-14.4-17.85-17.72
					c-9.68-3.97-17.67-1.21-27.24-2.45c-5.27-0.68-7.67-4.53-7.88-9.49c-0.82-18.94,2.17-36.89-6.75-54.44
					c-9.79-19.26-33.69-25.52-52.51-16.27c-13.4,6.6-20.68,19.32-23.7,34.31c-2.8,13.49,6.63,46.13-16.32,43.9
					c-17.61-1.71-32.94,0.66-39.79,19.13c-6.84,18.5,1.66,39.5,18.69,46.45c10.37,4.26,24.32,6.26,31.33,15.97
					c2.86,3.97,4.11,9.3,2.42,13.89c-4.38,11.88-18.33,6.71-27.48,6.71c-11.55-0.01-20.14,11.96-23.48,22.95
					c-8.68,28.6,12.14,47.42,34.42,56.75c27.75,11.72,58.57,13.84,87.61,7.75c24.2-5.1,62.39-17.61,70.38-44.58
					C224.87,360.45,223.82,350.48,219.84,341.93z"/>
			</g>
			<g>
				<g>
					<g>
						<path class="st1" d="M122.94,272.5c-0.13,0-0.26-0.02-0.39-0.06c-9.01-2.92-18.17-5.93-27.22-8.95
							c-0.66-0.22-1.01-0.93-0.79-1.58c0.22-0.66,0.93-1.01,1.58-0.79c9.05,3.01,18.2,6.02,27.21,8.94c0.66,0.21,1.02,0.92,0.8,1.58
							C123.96,272.17,123.46,272.5,122.94,272.5z"/>
					</g>
					<g>
						<path class="st1" d="M124.61,366.82c-0.11,0-0.22-0.01-0.33-0.05c-9.15-2.54-18.43-5.15-27.58-7.77
							c-0.66-0.19-1.05-0.88-0.86-1.55c0.19-0.66,0.88-1.04,1.55-0.86c9.15,2.61,18.42,5.23,27.56,7.76
							c0.67,0.18,1.05,0.87,0.87,1.54C125.66,366.46,125.15,366.82,124.61,366.82z"/>
					</g>
				</g>
				<g>
					<g>
						<path class="st1" d="M125.15,272.51c-0.53,0-1.02-0.34-1.19-0.87c-0.21-0.66,0.16-1.36,0.82-1.57
							c9.14-2.88,18.33-5.75,27.33-8.51c0.66-0.2,1.36,0.17,1.56,0.83c0.2,0.66-0.17,1.36-0.83,1.56
							c-8.99,2.76-18.18,5.62-27.31,8.51C125.4,272.49,125.27,272.51,125.15,272.51z"/>
					</g>
					<g>
						<path class="st1" d="M126.81,366.74c-0.51,0-0.99-0.31-1.17-0.82c-0.24-0.65,0.1-1.37,0.75-1.6
							c8.98-3.27,18.04-6.52,26.93-9.68c0.65-0.23,1.37,0.11,1.6,0.76c0.23,0.65-0.11,1.37-0.76,1.6
							c-8.89,3.16-17.94,6.41-26.92,9.68C127.1,366.71,126.96,366.74,126.81,366.74z"/>
					</g>
				</g>
				<g>
					<path class="st1" d="M128.77,418.64c-0.66,0-1.21-0.51-1.25-1.18c-3.6-63.88-4.57-143.29-2.54-207.24
						c0.02-0.69,0.61-1.24,1.29-1.21c0.69,0.02,1.23,0.6,1.21,1.29c-2.02,63.88-1.05,143.21,2.54,207.02
						c0.04,0.69-0.49,1.28-1.18,1.32C128.82,418.64,128.8,418.64,128.77,418.64z"/>
				</g>
			</g>
		</g>
		<g>
			<g>
				<path class="st3" d="M551.71,350.81c2.32-4.98,5.82-9.55,10.52-12.41c7.8-4.77,17.86-0.23,26.17-2.15
					c4.25-0.99,8.36-3.9,9.55-8.21c0.28-1.02,0.39-2.04,0.34-3.05c-0.25-5.31-4.72-10.19-9.61-12.63
					c-10.05-5-22.12-6.18-30.42-14.41c-8.16-8.09-10.92-20.44-7-31.22c5.6-15.36,22.08-20.09,37.11-18.08
					c1.92,0.26,3.95,0.62,5.71-0.2c2.26-1.06,3.32-3.77,3.57-6.31c1.67-16.51-1.53-34.25,6.3-49.6
					c8.64-16.99,29.72-22.52,46.32-14.36c11.82,5.82,18.24,17.04,20.91,30.27c1.82,8.79-2.82,33.14,6.75,38.13
					c1.6,0.83,3.45,0.81,5.21,0.64c15.91-1.45,30.38-2.45,37.54,16.84c6.03,16.32-1.46,34.85-16.49,40.98
					c-7.4,3.04-14.82,6.05-22.23,9.02c-4.74,1.9-7.91,6.71-7.99,12.11c-0.3,16.84,15.18,11.15,24.69,11.14
					c10.19-0.01,17.76,10.55,20.71,20.25c7.66,25.23-10.71,41.83-30.37,50.07c-24.49,10.34-51.67,12.21-77.29,6.84
					c-21.35-4.5-55.05-15.54-62.09-39.33C547.27,367.16,548.2,358.36,551.71,350.81z"/>
			</g>
			<g>
				<g>
					<g>
						<path class="st1" d="M637.2,289.71c-0.53,0-1.02-0.34-1.19-0.86c-0.21-0.66,0.15-1.36,0.8-1.58c8.06-2.61,16.13-5.27,24-7.89
							c0.65-0.22,1.36,0.14,1.58,0.79c0.22,0.65-0.14,1.36-0.79,1.58c-7.88,2.62-15.96,5.28-24.02,7.9
							C637.46,289.69,637.33,289.71,637.2,289.71z"/>
					</g>
					<g>
						<path class="st1" d="M635.73,372.92c-0.55,0-1.05-0.36-1.2-0.92c-0.18-0.67,0.21-1.35,0.87-1.54
							c8.03-2.23,16.21-4.53,24.32-6.85c0.66-0.19,1.36,0.19,1.55,0.86c0.19,0.66-0.2,1.36-0.86,1.55
							c-8.11,2.32-16.3,4.62-24.34,6.85C635.95,372.91,635.84,372.92,635.73,372.92z"/>
					</g>
				</g>
				<g>
					<g>
						<path class="st1" d="M635.25,289.71c-0.12,0-0.25-0.02-0.38-0.06c-7.92-2.5-16.03-5.03-24.09-7.5
							c-0.66-0.2-1.03-0.9-0.83-1.56c0.2-0.66,0.9-1.03,1.56-0.83c8.07,2.48,16.18,5.01,24.11,7.51c0.66,0.21,1.02,0.91,0.82,1.57
							C636.28,289.37,635.78,289.71,635.25,289.71z"/>
					</g>
					<g>
						<path class="st1" d="M633.78,372.85c-0.14,0-0.29-0.02-0.43-0.08c-7.88-2.87-15.87-5.74-23.75-8.54
							c-0.65-0.23-0.99-0.95-0.76-1.6c0.23-0.65,0.95-0.99,1.6-0.76c7.88,2.8,15.88,5.67,23.76,8.54c0.65,0.24,0.98,0.95,0.75,1.6
							C634.77,372.53,634.29,372.85,633.78,372.85z"/>
					</g>
				</g>
				<g>
					<path class="st1" d="M632.21,405.7c-0.02,0-0.05,0-0.07,0c-0.69-0.04-1.22-0.63-1.18-1.32c3.17-56.26,3.87-113.35,2.09-169.7
						c-0.02-0.69,0.52-1.27,1.21-1.29c0.7-0.03,1.27,0.52,1.29,1.21c1.79,56.42,1.09,113.58-2.09,169.92
						C633.42,405.19,632.87,405.7,632.21,405.7z"/>
				</g>
			</g>
		</g>
		<g>
			<g>
				<path class="st3" d="M369.13,357.7c2.1-4.52,5.27-8.65,9.53-11.24c7.06-4.32,16.17-0.21,23.71-1.95
					c3.85-0.9,7.57-3.54,8.65-7.44c0.26-0.93,0.35-1.85,0.31-2.76c-0.22-4.81-4.27-9.23-8.7-11.44c-9.1-4.53-20.04-5.6-27.56-13.05
					c-7.39-7.33-9.89-18.52-6.34-28.27c5.07-13.91,19.99-18.2,33.61-16.37c1.73,0.23,3.58,0.56,5.17-0.18
					c2.04-0.96,3.01-3.42,3.24-5.71c1.51-14.96-1.38-31.02,5.7-44.93c7.83-15.39,26.92-20.39,41.96-13.01
					c10.7,5.27,16.52,15.44,18.94,27.41c1.65,7.96-2.56,30.02,6.12,34.54c1.44,0.75,3.12,0.73,4.72,0.58
					c14.41-1.31,27.52-2.22,34,15.25c5.46,14.79-1.32,31.57-14.94,37.12c-6.71,2.76-13.42,5.48-20.14,8.17
					c-4.29,1.72-7.16,6.08-7.24,10.97c-0.27,15.25,13.75,10.1,22.37,10.09c9.23,0,16.09,9.56,18.76,18.34
					c6.94,22.85-9.7,37.89-27.5,45.35c-22.18,9.37-46.8,11.06-70.01,6.2c-19.34-4.08-49.86-14.07-56.24-35.62
					C365.11,372.5,365.96,364.53,369.13,357.7z"/>
			</g>
		</g>
		<g>
			<g>
				<path class="st4" d="M654.09,294.11c-2.32-0.33-4.55,0.55-6.42,1.8c-2.27,1.53-4.51,3.09-6.69,4.74
					c-1.46,1.1-3.26,2.24-4.58,3.64c-2.21-0.69-4.64-0.89-6.89-1.48c-0.15-0.04-0.31-0.08-0.46-0.13c-2.87-0.84-5.72-1.92-8.47-2.94
					c-0.11-0.04-0.99-0.45-1.39-0.57c-0.61-1.42-1.93-3.29-3.07-4.05c-1.07,1.32-1.95,2.66-2.56,4.2c-0.18,0.46-0.35,0.95-0.3,1.44
					c0.06,0.61,2.87,1.73,4.12,2.02c0.01,0.02,0,0.04,0.01,0.05c0.23,0.61,1.09,1.11,1.6,1.52c0.63,0.51,1.28,1.01,1.94,1.5
					c3.86,2.81,10.63,7.09,15.67,6.78c0.59,0.14,1.28,0.09,2-0.19c2.22-0.89,4.28-2.14,6.25-3.53c1.9-1.34,10.91-7.55,12.9-9.99
					C659.43,296.85,656.07,294.4,654.09,294.11z"/>
			</g>
			<g>
				<path class="st5" d="M645.5,415.7c2.3,0.74,3.59,0.23,5.91-0.45c1.59-0.46,3.02-1.33,4.44-2.18c0.5-0.3,1.01-0.61,1.33-1.09
					c0.34-0.5,0.35-3.42,0.3-4.02c-0.03-0.46-0.02-2.67-0.34-3c-0.33-0.32-3.71-1.16-4.17-1.24c-1.14-0.2,0.55,4.51-0.59,4.66
					c-0.94,0.12-1.22,0.49-1.83,1.16c-1.33,1.46-2.91,2.68-4.65,3.62C644.92,413.7,642.78,414.82,645.5,415.7z"/>
			</g>
			<g>
				<path class="st6" d="M662.81,329.33c-0.47-0.25-1.02-0.26-1.54-0.27c-5.27-0.08-18.38-4.91-16.94,2.82
					c0.48,2.59,3.34,46.29,4.48,56.09c0.74,6.34,1.28,12.72,1.62,19.1c0.02,0.42,0.05,0.84,0.08,1.26c0.04,0.65,1.74,0.99,2.18,1.08
					c1.6,0.34,4.75,0.57,5.33-1.51c0.42-1.51-0.06-3.75-0.08-5.29c-0.07-4.5-0.08-8.99,0-13.49c0.33-19.01,3.95-37.39,5.93-56.22
					C664,331.58,663.98,329.95,662.81,329.33z"/>
			</g>
			<g>
				<path class="st5" d="M655.45,417.03c2.3,0.74,3.59,0.23,5.91-0.45c1.59-0.46,3.02-1.33,4.44-2.18c0.5-0.3,1.01-0.61,1.33-1.09
					c0.34-0.5,0.35-3.42,0.3-4.02c-0.03-0.46-0.02-2.67-0.34-3c-0.33-0.32-3.71-1.16-4.17-1.24c-1.14-0.2,0.55,4.51-0.59,4.66
					c-0.94,0.12-1.22,0.49-1.83,1.16c-1.33,1.46-2.91,2.68-4.65,3.62C654.86,415.03,652.72,416.15,655.45,417.03z"/>
			</g>
			<g>
				<path class="st7" d="M672.76,330.66c-0.47-0.25-1.02-0.26-1.54-0.27c-5.27-0.08-10.54-0.05-15.8,0.07c-0.02,0-0.03,0-0.05,0
					c-1.53-0.88-3.24-1.46-5-1.56c-1.8-0.1-3.64,0.22-4.94,1.62c-0.67,0.72-0.87,1.36-0.88,2.35c0,1.24,0.19,3.64,0.19,3.64
					c1.6,6.26,7.39,9.03,8.62,15.67c0.48,2.59,0.62,5.25,0.98,7.87c1.32,9.77,3.27,19.45,4.42,29.24c0.74,6.34,1.28,12.72,1.62,19.1
					c0.02,0.42,0.05,0.84,0.08,1.26c0.04,0.65,1.74,0.99,2.18,1.08c1.6,0.34,4.75,0.57,5.33-1.51c0.42-1.51-0.06-3.75-0.08-5.29
					c-0.07-4.5-0.08-8.99,0-13.49c0.33-19.01,3.95-37.39,5.93-56.22C673.94,332.91,673.92,331.28,672.76,330.66z"/>
			</g>
			<g>
				<path class="st5" d="M644.84,299.92c-0.85,2.39-0.98,4.99-0.89,7.53c0.43,11.38-0.92,25-0.1,26.7c2.73,5.65,27,2.71,28.77,0.1
					c2.19-3.24,1.56-11.47,1.69-15.38c0.19-6.15-0.32-12.3-0.83-18.43c-0.08-0.93,0.88-2.14,0.52-3c-0.53-1.26-7.21-7.05-10.08-7.22
					c-1.14-0.07-9.52,1.44-10.63,1.7c-3.13,0.74-0.71,0.3-3.77,2.2C647.48,295.4,645.65,297.66,644.84,299.92z"/>
			</g>
			<g>
				<polygon class="st6" points="660.76,290.61 653.56,292 653.29,291.94 651.93,291.64 651.05,284.33 660.76,280.02 				"/>
			</g>
			<g class="st8">
				<path d="M651.05,284.33l0.8,6.58c2.16,0.5,4.42-0.86,5.68-2.7c1.28-1.86,1.78-4.13,2.39-6.3c0.16-0.57,0.33-1.15,0.48-1.73
					L651.05,284.33z"/>
			</g>
			<g>
				<path class="st6" d="M649.29,284.86c0.81,1.82,2.1,3.64,4.03,4.14c2.19,0.56,4.49-0.82,5.77-2.68s1.78-4.13,2.39-6.3
					c0.42-1.52,0.91-3.05,1.05-4.62c0.13-1.58-0.13-3.25-1.08-4.52c-0.89-1.19-2.29-1.9-3.71-2.36c-3.34-1.08-6.39-0.33-8.57,2.47
					c-1.57,2.01-1.55,5.5-1.36,7.89C647.95,280.94,648.45,282.98,649.29,284.86z"/>
			</g>
			<g>
				<path class="st7" d="M660.78,287.32c0.08,0.17,2.38,2.91,2.38,2.91c-3.07,1.5-5.33,3.11-8.03,5.19l-1.84-3.49
					C656.01,290.23,657.91,289.22,660.78,287.32z"/>
			</g>
			<g>
				<polygon class="st7" points="653.29,291.94 651.67,295.09 650.58,293.48 651.76,290.23 				"/>
			</g>
			<g>
				<path class="st9" d="M664.12,271.84c0.01-0.87-0.08-1.72-0.36-2.44c-0.76-1.96-2.84-2.48-4.76-2.46
					c-0.67,0.01-1.33,0.08-1.99,0.17c-1.8,0.27-3.66,0.6-5.39,0.05c-0.8-0.26-1.52-0.69-2.32-0.95c-1.99-0.66-4.56,0.81-4.57,3.05
					c-0.01,5.22,5.02,6.82,12.97,6.21c-0.02,0.27-0.02,0.57-0.01,0.88c0.06,1.98,0.76,4.55,3.09,4.18c0.54-0.08,1.02-0.43,1.37-0.86
					c0.99-1.23,1.37-3.22,1.64-4.74C663.94,274.02,664.11,272.91,664.12,271.84z"/>
			</g>
			<g class="st8">
				<path d="M665.64,336.54c3.64-0.61,6.43-1.46,6.99-2.28c2.19-3.24,1.56-11.47,1.69-15.38c0.09-2.86,0.03-5.73-0.12-8.59
					c-0.3-0.9-0.6-1.81-1.05-2.65c-1.41-2.63-6.09-3.98-5.56,0.1c0.56,4.34,1.4,8.58,1.47,12.97c0.08,4.86-0.59,9.8-2.64,14.21
					C666.17,335.46,665.9,336,665.64,336.54z"/>
			</g>
			<g>
				<g>
					<path class="st5" d="M681.74,311.81c1.05,2.17,1.95,4.41,2.46,6.74c0.42,1.92-0.58,3.37-2.38,3.56
						c-1.58,0.17-3.21-0.27-4.53-1.23c-2.03-1.48-3.15-4.38-4.33-6.61c-1.27-2.42-2.45-4.88-3.58-7.37
						c-0.93-2.05-1.44-4.39-0.73-6.63c0.61-1.91,3.58-4.83,5.34-2.83C676.07,299.81,680.73,309.72,681.74,311.81z"/>
				</g>
				<g>
					<path class="st6" d="M671.34,337.48c-0.13,0.75-2.1,4.2-2.81,4.16c-0.49-0.03-0.94-0.27-1.37-0.53
						c-1.42-0.85-2.6-1.95-3.73-3.21c1.08-1.13,3.6-2.27,5.09-2.49C669.23,336.93,669.78,337.23,671.34,337.48z"/>
				</g>
				<g>
					<path class="st5" d="M673.22,325.94c1.13-2.52,1.75-5.38,3.22-7.68c1.14-1.77,1.4-0.3,3.34-0.26c0.64,0.01,1.28,0.09,1.87,0.34
						c1.77,0.77,2.53,0.97,2.43,2.06c-0.43,5.05-5.83,11.12-9.27,14.5c-0.58,0.57-1.18,1.13-1.79,1.67
						c-0.49,0.43-1.12,1.2-1.76,1.32c-0.43,0.08-0.85-0.14-1.23-0.37c-0.77-0.44-1.68-0.97-2.14-1.81
						c-0.07-0.12,0.78-1.35,0.85-1.47c1.46-2.55,2.99-5.18,4.29-7.88C673.09,326.23,673.15,326.09,673.22,325.94z"/>
				</g>
			</g>
		</g>
		<g>
			<g>
				<g>
					<path class="st6" d="M284.72,140.81c7.54,1.29,10.55-3.1,9.54-3.7c-2.27-1.35-6.31-0.56-9.35,0.22
						C285.64,138.83,285.52,139.45,284.72,140.81z"/>
				</g>
				<g>
					<path class="st4" d="M274.62,134.93c-2.66-0.73-5.27-2.07-7.98-2.4c-2.09-0.25-1.12,0.89-2.32,2.41
						c-0.39,0.5-0.75,1.04-0.92,1.66c-0.53,1.86-1.46,2.66-0.5,3.17c4.31,2.26,13.35,2.57,17.64,2.08c0.81-0.09,1.63-0.19,2.43-0.32
						c0.64-0.1,1.64-0.1,2.14-0.52c0.34-0.28,0.43-0.75,0.5-1.19c0.15-0.88,0.32-1.92-0.04-2.8c-0.05-0.13-1.53-0.26-1.68-0.28
						c-2.9-0.49-5.9-0.98-8.81-1.69C274.93,135.01,274.77,134.97,274.62,134.93z"/>
				</g>
			</g>
			<g>
				<path class="st4" d="M266.75,133.81c-0.67,4.8-1.81,1.22-3.79,5.65c0.35-0.77-0.88-3.92-1.03-4.85
					c-0.27-1.63-0.46-3.28-0.59-4.93c-0.25-3.38-0.38-7.05,0.22-10.4c0.33-1.85,0.67-7.2,2.53-4.81
					C265.9,116.75,267.81,126.28,266.75,133.81z"/>
			</g>
			<g>
				<path class="st5" d="M264.03,231.55c-2.3,0.74-3.59,0.23-5.91-0.45c-1.59-0.46-3.02-1.33-4.44-2.18
					c-0.5-0.3-1.01-0.61-1.33-1.09c-0.34-0.5-0.35-3.42-0.3-4.02c0.03-0.46,0.02-2.67,0.34-3c0.33-0.32,3.71-1.16,4.17-1.24
					c1.14-0.2-0.55,4.51,0.59,4.66c0.94,0.12,1.22,0.49,1.83,1.16c1.33,1.46,2.91,2.68,4.65,3.62
					C264.61,229.55,266.75,230.67,264.03,231.55z"/>
			</g>
			<g>
				<path class="st6" d="M246.71,145.18c0.47-0.25,1.02-0.26,1.54-0.27c5.27-0.08,16.49,3.11,16.49,3.11
					c-0.48,2.59-2.89,45.99-4.03,55.79c-0.74,6.34-1.28,12.72-1.62,19.1c-0.02,0.42-0.05,0.84-0.08,1.26
					c-0.04,0.65-1.74,0.99-2.18,1.08c-1.6,0.34-4.75,0.57-5.33-1.51c-0.42-1.51,0.06-3.75,0.08-5.29c0.07-4.5,0.08-8.99,0-13.49
					c-0.33-19.01-3.95-37.39-5.93-56.22C245.53,147.43,245.55,145.8,246.71,145.18z"/>
			</g>
			<g>
				<path class="st5" d="M254.08,232.88c-2.3,0.74-3.59,0.23-5.91-0.45c-1.59-0.46-3.02-1.33-4.44-2.18
					c-0.5-0.3-1.01-0.61-1.33-1.09c-0.34-0.5-0.35-3.42-0.3-4.02c0.03-0.46,0.02-2.67,0.34-3c0.33-0.32,3.71-1.16,4.17-1.24
					c1.14-0.2-0.55,4.51,0.59,4.66c0.94,0.12,1.22,0.49,1.83,1.16c1.33,1.46,2.91,2.68,4.65,3.62
					C254.67,230.88,256.81,232,254.08,232.88z"/>
			</g>
			<g>
				<path class="st7" d="M236.77,146.51c0.47-0.25,1.02-0.26,1.54-0.27c5.27-0.08,10.54-0.05,15.8,0.07c0.02,0,0.03,0,0.05,0
					c1.53-0.88,3.24-1.46,5-1.56c1.8-0.1,3.64,0.22,4.94,1.62c0.67,0.72,0.87,1.36,0.88,2.35c0,1.24-0.19,3.64-0.19,3.64
					c-1.6,6.26-7.39,9.03-8.62,15.67c-0.48,2.59-0.62,5.25-0.98,7.87c-1.32,9.77-3.27,19.45-4.42,29.24
					c-0.74,6.34-1.28,12.72-1.62,19.1c-0.02,0.42-0.05,0.84-0.08,1.26c-0.04,0.65-1.74,0.99-2.18,1.08
					c-1.6,0.34-4.75,0.57-5.33-1.51c-0.42-1.51,0.06-3.75,0.08-5.29c0.07-4.5,0.08-8.99,0-13.49c-0.33-19.01-3.51-37.97-5.49-56.8
					C236.03,148.18,235.6,147.13,236.77,146.51z"/>
			</g>
			<g>
				<path class="st5" d="M264.69,115.78c0.85,2.39,0.98,4.99,0.89,7.53c-0.43,11.38-0.59,26.42-0.59,26.42
					c-1.99,2.16-27.35,2.56-28.82-0.23c-0.85-1.62-0.82-10.85-0.95-14.76c-0.19-6.15,0.32-12.3,0.83-18.43
					c0.08-0.93-1.01-2.21-0.52-3c1.59-2.51,6.77-5.69,9.55-6.44c5.65-1.51,11.97,0.58,15.03,2.48
					C262.15,110.61,263.88,113.52,264.69,115.78z"/>
			</g>
			<g>
				<path class="st6" d="M249.45,108.59c1.11,1.76,3.27,3.06,5.38,2.41c1.99-0.61,2.62-2.31,2.85-4.2c0.23-1.91,0.46-3.82,0.69-5.73
					c0.04-0.3,0.07-0.59,0.11-0.89l-9.81-4.15c0,0,0,7.57,0,10.5C248.67,107.41,248.96,107.82,249.45,108.59z"/>
			</g>
			<g class="st8">
				<path d="M258.48,100.19l-0.8,6.58c-2.16,0.5-5.87-1.43-7.13-3.27c-1.28-1.86-1.42-4.78-0.94-5.73c0.27-0.53-0.33-1.15-0.48-1.73
					L258.48,100.19z"/>
			</g>
			<g>
				<path class="st6" d="M256.21,104.86c-2.24-0.3-5.79-1.54-7.07-3.4c-2.16-3.16-2-8.63-2.13-10.2c-0.13-1.58,0.13-3.25,1.08-4.52
					c0.89-1.19,2.29-1.9,3.71-2.36c3.34-1.08,6.39-0.33,8.57,2.47C261.94,88.85,263.62,105.86,256.21,104.86z"/>
			</g>
			<g>
				<path class="st9" d="M247.37,95.57c0.21,0.08,0.44,0.12,0.68,0.11c1.62-0.06,2.01-1.99,2.05-3.26c0.03-0.9-0.03-1.82,0.2-2.7
					c0.85-3.19,4.91-2.45,7.22-1.81c0.98,0.27,1.99,0.53,3.01,0.47c3.09-0.2,7.11-5.13,4.4-7.92c-0.55-0.56-1.32-0.86-2.09-0.97
					c-2.2-0.3-4.28,0.76-6.45,0.61c-4.56-0.32-10.3-1.1-11.47,3.79C244.41,86.01,244.58,94.5,247.37,95.57z"/>
			</g>
			<g class="st8">
				<path d="M245.37,150.01c-2.13-8.06-4.26-16.13-6.4-24.19c-0.11-0.42-0.23-0.85-0.53-1.16c-0.58-0.59-1.62-0.45-2.25,0.09
					c-0.38,0.33-0.64,0.76-0.84,1.22c-0.15,2.92-0.22,5.84-0.13,8.76c0.12,3.91,0.1,13.15,0.95,14.76c0.56,1.07,4.61,1.67,9.51,1.88
					C245.6,150.92,245.48,150.46,245.37,150.01z"/>
			</g>
			<g>
				<g>
					<path class="st5" d="M227.79,127.67c-1.05,2.17-1.95,4.41-2.46,6.74c-0.42,1.92,0.58,3.37,2.38,3.56
						c1.58,0.17,3.21-0.27,4.53-1.23c2.03-1.48,3.15-4.38,4.33-6.61c1.27-2.42,2.45-4.88,3.58-7.37c0.93-2.05,1.44-4.39,0.73-6.63
						c-0.61-1.91-3.58-4.83-5.34-2.83C233.46,115.66,228.8,125.58,227.79,127.67z"/>
				</g>
				<g>
					<path class="st6" d="M230.32,155.68c-0.67,4-0.2,8.56,3.9,10.25c0.81,0.33,0.96-9.18-0.49-11.02
						C232.47,156.02,231.85,156.07,230.32,155.68z"/>
				</g>
				<g>
					<path class="st5" d="M233.21,144.35c-0.03-2.76,0.55-5.63,0.12-8.33c-0.33-2.08-1.16-0.83-2.96-1.57
						c-0.59-0.24-1.21-0.43-1.85-0.43c-1.93,0-2.96-0.68-3.18,0.39c-0.99,4.76,1.19,13.54,2.84,17.53c0.31,0.76,0.63,1.51,0.98,2.25
						c0.27,0.59,0.55,1.55,1.08,1.92c0.36,0.25,0.84,0.21,1.28,0.16c0.88-0.1,1.93-0.22,2.68-0.81c0.11-0.09-0.17-1.55-0.19-1.69
						c-0.32-2.92-0.67-5.94-0.78-8.94C233.21,144.67,233.21,144.51,233.21,144.35z"/>
				</g>
			</g>
		</g>
		<g>
			<g>
				<g>
					<path class="st6" d="M142.65,316.68c0.39,2.15,0.92,4.3,1.76,6.34c0.69,1.68,2.12,2.34,3.46,1.67
						c1.17-0.58,1.56-1.87,1.97-3.21c0,0-0.72-11.78-1.21-14.22c-0.41-2.01-7.83-7.56-8.01-5.21
						C140.39,304.82,142.27,314.61,142.65,316.68z"/>
				</g>
				<g>
					<path class="st6" d="M163.81,327.21c1.72,0.71,3.47,1.96,7.4,0.77c2.25-0.68,3.5-2.57-2.67-3.94
						c-1.24-0.23-3.31,0.16-4.28,0.67C164.71,325.96,164.56,326.38,163.81,327.21z"/>
				</g>
				<g>
					<path class="st6" d="M147.77,318.47c-1.92-0.35-1.08,0.24-2.26,1.38c-0.39,0.37-0.74,0.79-0.93,1.28
						c-0.58,1.48-2.32,1.1-1.53,1.71c3.68,2.82,8.05,3.18,16.82,4.13c2.24,0.24,6.08,0.62,6.08,0.62c0.32-0.19,0.63-2.79-0.86-3.09
						C157.03,322.84,153.16,319.45,147.77,318.47z"/>
				</g>
			</g>
			<g>
				<g>
					<g>
						<path class="st4" d="M131.16,415.57c-2.11,0.47-4.06,0.36-6.31-0.77c-1.54-0.77-2.66-2.47-3.29-4.25
							c-0.22-0.62-0.62-0.9-0.51-1.83c0.11-0.93,1.23-2.75,1.97-3.61c0.56-0.65,1.13-2.13,2.05-2.3c0.92-0.17,3.42,0.78,3.94,1.22
							c1.29,1.12-2.58,2.93-2.07,4.04c0.42,0.9,0.4,0.95,0.62,1.81c0.49,1.87,1.71,2.27,3.46,3.22
							C132.02,413.64,133.67,415,131.16,415.57z"/>
					</g>
				</g>
			</g>
			<g>
				<g>
					<path class="st6" d="M131.15,330.7c5.23-3.29,8.48-0.26,13.08-1.41c0.01,0,0,0.05,0.02,0.04c1.94-0.55,1.3,5.66,1.61,20.51
						c0.21,10.2-3.52,28.98-8.66,38.74c-3.33,6.32-5.66,13.13-8.72,18.71c-0.2,0.37-0.24,0.86-0.52,1.22
						c-0.44,0.57-1.79,0.35-2.37,0.22c-1.56-0.36-2.91-1.2-3.21-2.75c-0.06-0.33,0.09-0.65,0.2-0.9c1.26-2.77,2.23-6.59,3.66-9.59
						c7.95-16.68,5.08-34.16,3.42-49.66C128.77,337.69,130.63,331.02,131.15,330.7z"/>
				</g>
			</g>
			<g>
				<path class="st9" d="M129.48,301.45c-2.95,1.13-6.68-1.04-7.14-4.17c-0.3-2.01,0.46-4.4-0.94-5.87
					c-1.75-1.84-5.76-0.86-6.53-3.27c-0.39-1.25,0.51-2.53,1.53-3.35c1.01-0.82,2.23-1.5,2.84-2.65c1.27-2.4-0.75-5.43,0.06-8.02
					c0.7-2.25,3.17-3.33,5.26-4.42c2.82-1.47,5.38-3.41,8.18-4.92c2.8-1.51,5.99-2.59,9.14-2.11c3.15,0.48,6.15,2.87,6.52,6.03
					c0.26,2.3-0.84,4.65-0.27,6.89c0.55,2.17,2.49,3.64,4.01,5.27c1.88,2.01,3,4.98,0.64,7.04c-2.1,1.83-3.94,1.91-5.39,4.53
					c-1.01,1.82-2.1,3.9-4.13,4.74c-2.33,0.96-4.41-0.51-6.7-0.18C133.73,297.4,132.07,300.45,129.48,301.45z"/>
			</g>
			<g>
				<path class="st5" d="M136.85,418.03c-2.07,0.67-3.23,0.21-5.32-0.4c-1.43-0.42-2.72-1.19-4-1.96c-0.45-0.27-0.91-0.55-1.2-0.98
					c-0.3-0.45-0.31-3.07-0.27-3.61c0.03-0.41,0.02-2.41,0.31-2.7c0.29-0.29,3.34-1.05,3.75-1.12c1.02-0.18-0.5,4.06,0.53,4.2
					c0.84,0.11,1.1,0.44,1.65,1.04c1.2,1.31,2.62,2.41,4.18,3.26C137.37,416.23,139.3,417.23,136.85,418.03z"/>
			</g>
			<g>
				<path class="st7" d="M124.39,332.8c5.27-0.08,7.4-0.31,12.67-0.18c0.02,0,0.03,0,0.05,0c1.53-0.88,3.99-0.12,5-1.56
					c1.99-2.82,3.77-3.93,3.77,6.13c0,8.36-5.6,6.47-6.84,13.11c-0.48,2.59-4.18,31.35-5.32,41.15c-0.74,6.34-1.28,12.72-1.62,19.1
					c-0.02,0.42-0.05,0.84-0.08,1.26c-0.04,0.65-1.74,0.99-2.18,1.08c-1.18,0.25-3.43-0.09-3.96-1.4c-0.11-0.28-0.11-0.59-0.11-0.89
					c0.01-3.31-0.02-6.63,0.05-9.94c0.42-18.45-1.95-34.51-3.33-52.79C121.77,338.27,123.86,332.81,124.39,332.8z"/>
			</g>
			<g>
				<path class="st5" d="M150.23,310.41c0,3.97-1.7,4.53-2.25,8.24c-0.87,5.93-1.95,13.84-2.11,14.89
					c-0.41,2.68-20.09,1.76-21.49-0.74c-0.76-1.36-5.32-24.21-1.65-31.48c3.73-7.4,11.63-8.5,14.86-7.76
					C144.27,295.1,150.23,304.39,150.23,310.41z"/>
			</g>
			<g>
				<path class="st6" d="M134.81,296.67c0.52,0.41,1.14,0.7,1.81,0.81c2.04,0.33,4.09-1.06,4.45-3.11l0.96-5.51
					c0.06-0.35-0.11-0.71-0.43-0.87l-7.14-3.67c-0.55-0.28-1.2,0.12-1.2,0.73c0,0,0,8.54,0,8.54
					C133.27,294.8,133.88,295.94,134.81,296.67z"/>
			</g>
			<g class="st8">
				<path d="M134.05,285.06c0-0.62,0.59-1.01,1.09-0.73l6.5,3.67c0.29,0.16,0.45,0.52,0.4,0.87l-0.95,5.44
					c-0.02,0.1-3.89-0.21-5.2-2.34c-0.92-1.49-1.41-3.23-1.84-4.98C134.05,285.87,134.05,285.06,134.05,285.06z"/>
			</g>
			<g>
				<path class="st6" d="M144.45,287.42c-0.81,1.82-2.1,3.64-4.03,4.14c-2.19,0.56-4.49-0.82-5.77-2.68
					c-1.28-1.86-1.78-4.13-2.39-6.3c-0.42-1.52-0.91-3.05-1.05-4.62c-0.13-1.58,0.13-3.25,1.08-4.52c0.89-1.19,2.29-1.9,3.71-2.36
					c3.34-1.08,6.39-0.33,8.57,2.47c1.57,2.01,1.55,5.5,1.36,7.89C145.79,283.5,145.29,285.53,144.45,287.42z"/>
			</g>
			<g>
				<path class="st9" d="M145.92,277.68c-0.48,0.64-0.74,1.53-1.61,1.78c-0.59,0.17-1.23-0.07-1.74-0.42
					c-0.6-0.4-1.1-0.94-1.67-1.39c-3.12-2.48-2.63,1.78-4.56,2.89c-1.38,0.8-2.92,0.24-4.26-0.32c-0.92-0.38-1.94-0.71-2.88-0.39
					c-0.97,0.33-1.28,1.47-2.07,2.03c-0.37,0.26-0.87,0.38-1.27,0.17c-0.29-0.14-0.48-0.42-0.63-0.71
					c-0.82-1.56-0.57-3.57,0.49-4.96c1.08-1.43,2.88-2.17,4-3.57c1.42-1.78,1.58-4.45,3.35-5.88c1.84-1.49,4.63-0.94,6.67,0.26
					c2.04,1.2,3.74,2.97,5.9,3.96c1.23,0.56,2.41,5.67,1.31,5.86C146.48,277.09,146.17,277.35,145.92,277.68z"/>
			</g>
			<g class="st8">
				<path d="M121.64,305.25c1.52-1.22-1.38,11.08,3.36,12.76c4.78,1.69,20.93-1.42,20.88-0.01c-0.06,1.8-20.41,4.21-22.05,12.83
					C122.67,325.89,120.53,312.99,121.64,305.25z"/>
			</g>
			<g>
				<g>
					<path class="st6" d="M119.03,315.73c-0.47,2.14-0.81,4.32-0.82,6.53c-0.01,1.82,1.05,2.98,2.55,2.88
						c1.31-0.09,2.16-1.12,3.05-2.2c0,0,3.89-11.14,4.37-13.59c0.4-2.01-4.3-10-5.38-7.9C121.53,303.91,119.48,313.67,119.03,315.73
						z"/>
				</g>
				<g>
					<path class="st6" d="M124.34,341.1c0.23,1.51,1.25,4.43,2.15,4.8c0.4,0.17,2.91-1.45,2.62-2.79c-0.39-1.21-1.45-2.2-2.36-2.8
						C125.87,341.29,125.42,341.36,124.34,341.1z"/>
				</g>
				<g>
					<path class="st6" d="M124.36,322.83c-0.61-1.85-0.73-0.83-2.29-1.33c-0.51-0.16-1.04-0.28-1.57-0.21
						c-1.58,0.2-2.08-1.52-2.24-0.53c-0.72,4.58,1.05,8.59,4.4,16.75c0.86,2.08,2.35,5.64,2.35,5.64c0.33,0.19,2.75-0.77,2.31-2.23
						C124.94,333.05,126.07,328.03,124.36,322.83z"/>
				</g>
				<g>
					<path class="st5" d="M122.8,301.44c1.08-2.1,3.99,0.1,4.82,1.75c0.96,1.93,0.96,4.14,0.56,6.15c-0.22,1.11-1.14,4.02-2.08,6.86
						c-1.98-1.37-4.19-2.41-6.51-3.01C120.4,309.48,121.83,303.33,122.8,301.44z"/>
				</g>
			</g>
		</g>
		<g>
			<g>
				<polygon class="st5" points="446.47,400.27 174.71,400.27 168.46,229.32 440.22,229.32 				"/>
			</g>
			<g>
				<polygon class="st0" points="438.8,390.63 184.25,393.76 176.13,235.76 434.42,237.01 				"/>
			</g>
			<g>
				<g>
					<rect x="236.48" y="400.27" class="st7" width="297.05" height="14.4"/>
				</g>
			</g>
			<g>
				<g>
					<rect x="236.48" y="411.65" class="st6" width="297.05" height="5.74"/>
				</g>
			</g>
			<g>
				<g>
					<path class="st6" d="M359.22,400.27h53.09l0,0c0,3.6-2.5,6.52-5.58,6.52H364.8C361.72,406.79,359.22,403.87,359.22,400.27
						L359.22,400.27z"/>
				</g>
			</g>
			<g>
				<rect x="168.46" y="400.27" class="st4" width="68.02" height="17.12"/>
			</g>
			<g>
				<polygon class="st4" points="174.71,400.27 168.46,400.27 162.21,229.32 168.46,229.32 				"/>
			</g>
		</g>
		<g>
			<g>
				<g>
					<polygon class="st7" points="566.2,220.02 484.02,217.42 481.98,156.34 566.2,158.57 					"/>
				</g>
			</g>
			<g>
				<g>
					<polygon class="st7" points="501.04,236.64 492.44,208.47 514.13,208.47 					"/>
				</g>
			</g>
			<g>
				<g>
					<g>
						<rect x="492.49" y="170.65" class="st0" width="36.24" height="2.03"/>
					</g>
				</g>
				<g>
					<g>
						<rect x="492.49" y="192.42" class="st0" width="65.18" height="2.03"/>
					</g>
				</g>
				<g>
					<g>
						<rect x="492.49" y="181.54" class="st0" width="65.15" height="2.03"/>
					</g>
				</g>
				<g>
					<g>
						<rect x="528.76" y="203.31" class="st0" width="28.98" height="2.03"/>
					</g>
				</g>
			</g>
		</g>
		<g>
			<g>
				<g>
					<polygon class="st7" points="124.1,186.6 206.27,183.99 208.32,122.92 124.1,125.15 					"/>
				</g>
			</g>
			<g>
				<g>
					<polygon class="st7" points="189.26,203.22 197.85,175.05 176.17,175.05 					"/>
				</g>
			</g>
			<g>
				<g>
					<g>
						<rect x="161.56" y="137.23" class="st0" width="36.24" height="2.03"/>
					</g>
				</g>
				<g>
					<g>
						<rect x="132.62" y="159" class="st0" width="65.18" height="2.03"/>
					</g>
				</g>
				<g>
					<g>
						<rect x="132.66" y="148.11" class="st0" width="65.15" height="2.03"/>
					</g>
				</g>
				<g>
					<g>
						<rect x="132.56" y="169.88" class="st0" width="28.98" height="2.03"/>
					</g>
				</g>
			</g>
		</g>
		<g>
			<g>
				<g>
					<g>
						<path class="st4" d="M610.22,360.62l-56.46,0.17c-6.59,0.02-11.95-5.31-11.97-11.9l-0.32-107.43
							c-0.02-6.59,5.31-11.95,11.9-11.97l56.46-0.17c6.59-0.02,11.95,5.31,11.97,11.9l0.32,107.43
							C622.14,355.24,616.81,360.6,610.22,360.62z"/>
					</g>
				</g>
				<g>
					<path class="st5" d="M603.32,229.34c0,0-50.07,0.15-50.15,0.15c-5.12,0.02-9.21,3.16-10.7,8.05c-0.9,2.94-0.91,6.07-0.91,9.14
						c-0.03,29.41-0.05,58.81-0.07,88.22c0,5.67-0.86,12.11,0.88,17.6c1.57,4.94,5.96,8.31,11.19,8.29l50.15-0.15
						c6.48-0.02,11.72-5.29,11.7-11.77l-0.32-107.83C615.06,234.56,609.8,229.32,603.32,229.34z"/>
				</g>
				<g>
					<g>
						<g>
							
								<ellipse transform="matrix(0.9442 -0.3294 0.3294 0.9442 -83.5296 210.2244)" class="st7" cx="578.6" cy="351.61" rx="4.55" ry="4.55"/>
						</g>
					</g>
				</g>
				<g>
					<g>
						<path class="st7" d="M584.92,238.08c-0.17,0.09-0.37,0.14-0.58,0.14l-12.14,0.04c-0.69,0-1.24-0.55-1.24-1.24
							c0-0.68,0.55-1.24,1.24-1.24l12.14-0.04c0.69,0,1.24,0.55,1.24,1.24C585.58,237.46,585.31,237.87,584.92,238.08z"/>
					</g>
				</g>
				<g>
					<g>
						<g>
							<path class="st5" d="M618.41,270.95L618.41,270.95c-0.77,0-1.4-0.62-1.4-1.39l-0.04-14.74c0-0.77,0.62-1.4,1.39-1.4l0,0
								c0.77,0,1.4,0.62,1.4,1.39l0.04,14.74C619.81,270.32,619.18,270.95,618.41,270.95z"/>
						</g>
					</g>
				</g>
			</g>
			<g>
				<g>
					<g>
						<path class="st0" d="M544.39,246.89l0.01,95.9l68.08-0.01l-0.01-95.9c0-0.89,0-2.61,0-2.61l-68.08,0.01
							C544.39,244.28,544.39,246,544.39,246.89z"/>
					</g>
				</g>
			</g>
		</g>
		<g>
			<g>
				<path class="st6" d="M399.44,291.54c12.88,8.89,52.15-4.02,54.72-4.38c0,0,3.22,28.24,5.81,46.56c0,0-31.42,13.75-43.32,17.19
					c-0.61,0.18-7.24-1.35-7.86-1.49c-1.07-0.24-1.71-1.31-2.24-2.28c-5.73-10.44-13.3-19.86-22.27-27.69
					c-1.58-1.38-3.28-2.83-3.87-4.83c-0.57-1.93,0-3.99,0.56-5.91c1.01-3.46,2.04-6.96,3.91-10.03
					C386.76,295.59,396.48,289.49,399.44,291.54z"/>
			</g>
			<g>
				<path class="st7" d="M353.31,292.61c5.57,1.54,11.06,3.33,16.47,5.37c10.81,4.08,21.26,9.12,31.15,15.09
					c8.15,4.91,15.95,10.4,23.24,16.51c5.69,4.76,16.89,12.46,13,21.29c-1.1,2.49-3.49,4.39-6.15,4.94
					c-3.27,0.67-6.08-1.22-8.74-2.88c2.07,3.77,2.47,8.37-0.99,11.51c-3.95,3.58-8.1,1.78-12.03-0.52c1.19,4.35,0.55,8.47-3.75,10.8
					c-4.66,2.53-9.27,0.12-12.98-2.85c0.68,3.66-1.31,7.45-4.47,9.3c-3.27,1.92-7.18,1.58-10.21-0.62
					c-20.45-16.7-52.4-25.3-62.8-45.43c0,0,3.76-32.2,12.32-47.92C328.09,285.9,351.74,292.18,353.31,292.61z"/>
			</g>
			<g>
				<path class="st6" d="M376.37,366.44c-2.78-1.57-6.43-1.39-9.03,1.09c1.22-3.04,1.89-6.54,0.59-9.55
					c-2.18-5.05-9.11-6.35-13.14-2.71c0.87-2.7,0.34-5.8-1.37-8.06c-3.37-4.45-9.46-4.3-13.43-0.79c0.55-2.66-0.14-5.56-1.86-7.65
					c-1.16-1.42-2.94-2.62-4.74-3.02c-3.03-0.68-5.14,1.37-6.58,3.75c-1.95,3.23-3.91,6.46-5.87,9.69c-0.91,1.5-1.84,3.06-2.03,4.8
					c-0.39,3.49,2.39,6.33,5.63,7.06c2.41,0.55,4.92,0.2,7.35-0.24c-1.19,3.84,0.64,8.39,4.16,10.34c3.52,1.94,8.35,1.07,10.96-1.98
					c-0.29,3.75,2.28,7.53,5.88,8.63c3.59,1.1,7.84-0.59,9.7-3.86c-1.17,2.34-1.03,5.28,0.35,7.51c1.38,2.23,3.95,3.66,6.57,3.66
					c3.46,0,6.56-2.35,8.51-5.21c1.87-2.75,3.05-6.3,1.76-9.54C379.06,368.6,377.84,367.27,376.37,366.44z"/>
			</g>
			<g>
				<path class="st6" d="M403.59,298.24c0.08-2.41-3.85-6.44-5.4-8c-2.59-2.61-5.78-4.7-9.56-4.9c-12.99-0.68-26.09,0.68-38.67,4.01
					c-3.61,12-5.02,25.26-1.07,37.15c1.62,4.88,9.02,4.99,13.9,3.37c1.04-6.38,2.17-13.42,2.1-19.88c0,0,35.74-4.48,38.56-11.12
					C403.54,298.67,403.58,298.46,403.59,298.24z"/>
			</g>
			<g>
				<path class="st5" d="M174.88,235.14l4.57,82.85c23.02-1.29,80.8,6.39,135.61,17.14c0,0,9.13-29.22,14.72-51.48
					C279.93,264.72,223.23,248.59,174.88,235.14z"/>
			</g>
			<g>
				<path class="st5" d="M613.72,244.57c-53.09,11.03-112.67,24.92-168.64,42.62c4.32,22.54,11.79,52.23,11.79,52.23
					c91.46-15.04,114.41-8.71,156.23-10.25L613.72,244.57z"/>
			</g>
		</g>
		<g>
			<g>
				<g>
					<g>
						<g>
							<g>
								<path class="st9" d="M371.55,253.31c4.86,7.19,2.98,16.97-4.22,21.83c-10.55,7.13-25.21-1.14-24.51-13.89
									C343.64,246.51,363.32,241.14,371.55,253.31z"/>
							</g>
						</g>
					</g>
				</g>
				<g>
					<path class="st0" d="M363.41,255.35c-0.97-0.47-2.11-0.53-3.2,0.09c-1.18,0.67-1.54,1.86-1.88,3.09
						c-0.09,0.29-0.17,0.58-0.2,0.74c-0.01,0.03-0.02,0.07-0.03,0.1c0.03-0.12-0.91-0.96-1.02-1.07c-0.37-0.37-0.76-0.73-1.21-1
						c-0.96-0.58-2.12-0.64-3.14-0.15c-2.35,1.13-2.55,4.07-1.42,6.12c1.15,2.09,3.16,3.72,5.15,4.98c0.19,0.12,0.38,0.24,0.57,0.35
						c0.61,0.36,1.23,0.68,1.87,0.98c0.42,0.2,1.42,0.82,1.92,0.6c0.43-0.19,0.8-0.91,1.05-1.27c1.97-2.79,4.23-6.31,3.93-9.88
						c-0.02-0.23-0.05-0.46-0.1-0.68C365.43,257.03,364.54,255.9,363.41,255.35z"/>
				</g>
			</g>
			<g>
				<g>
					<g>
						<g>
							<g>
								<path class="st9" d="M409.14,191.87c-6.32,9.34-3.87,22.03,5.47,28.35c13.7,9.26,32.73-1.48,31.82-18.03
									C445.39,183.04,419.83,176.06,409.14,191.87z"/>
							</g>
						</g>
					</g>
				</g>
				<g>
					<path class="st0" d="M419.71,194.51c1.26-0.62,2.74-0.69,4.15,0.11c1.53,0.87,2,2.42,2.44,4.01c0.12,0.38,0.23,0.75,0.26,0.96
						c0.01,0.04,0.02,0.09,0.04,0.13c-0.04-0.16,1.18-1.24,1.33-1.39c0.48-0.48,0.99-0.95,1.57-1.3c1.25-0.76,2.75-0.83,4.07-0.19
						c3.05,1.46,3.31,5.29,1.85,7.94c-1.49,2.72-4.11,4.83-6.69,6.46c-0.24,0.16-0.49,0.31-0.74,0.45c-0.79,0.46-1.6,0.88-2.43,1.27
						c-0.55,0.26-1.85,1.07-2.49,0.78c-0.56-0.25-1.03-1.19-1.37-1.66c-2.56-3.62-5.5-8.19-5.11-12.83c0.03-0.3,0.07-0.59,0.13-0.88
						C417.09,196.69,418.24,195.23,419.71,194.51z"/>
				</g>
			</g>
			<g>
				<g>
					<g>
						<g>
							<g>
								<path class="st9" d="M343.3,84.37c10.55,15.6,6.46,36.79-9.14,47.34c-22.87,15.47-54.66-2.46-53.14-30.11
									C282.77,69.62,325.45,57.98,343.3,84.37z"/>
							</g>
						</g>
					</g>
				</g>
				<g>
					<path class="st0" d="M325.64,88.77c-2.1-1.03-4.58-1.15-6.93,0.19c-2.55,1.45-3.35,4.03-4.07,6.7
						c-0.2,0.64-0.38,1.26-0.44,1.61c-0.02,0.07-0.04,0.15-0.06,0.22c0.07-0.26-1.96-2.07-2.22-2.33c-0.8-0.8-1.65-1.58-2.63-2.18
						c-2.08-1.26-4.59-1.38-6.8-0.33c-5.1,2.45-5.52,8.83-3.08,13.27c2.49,4.54,6.86,8.06,11.17,10.8c0.41,0.26,0.82,0.51,1.24,0.76
						c1.31,0.77,2.68,1.47,4.05,2.13c0.92,0.44,3.08,1.78,4.16,1.3c0.93-0.42,1.73-1.98,2.28-2.76c4.27-6.05,9.18-13.68,8.53-21.42
						c-0.04-0.5-0.11-0.99-0.21-1.48C330.03,92.43,328.09,89.98,325.64,88.77z"/>
				</g>
			</g>
		</g>
	</g>
</g>
<g id="DESIGNED_BY_FREEPIK">
</g>
</svg>
